<?xml version="1.0" encoding="utf-8"?>
<!-- Generator: Adobe Illustrator 21.0.0, SVG Export Plug-In . SVG Version: 6.00 Build 0)  -->
<svg version="1.1" id="Layer_1" xmlns="http://www.w3.org/2000/svg" xmlns:xlink="http://www.w3.org/1999/xlink" x="0px" y="0px"
	 viewBox="0 0 64 64" style="enable-background:new 0 0 64 64;" xml:space="preserve">
<style type="text/css">
	.st0{fill:#039BE5;stroke:#0277BD;stroke-linecap:round;stroke-linejoin:round;stroke-miterlimit:10;}
	.st1{fill:#81D4FA;stroke:#0277BD;stroke-linecap:round;stroke-linejoin:round;stroke-miterlimit:10;}
	.st2{fill:#EC407A;stroke:#0277BD;stroke-linecap:round;stroke-linejoin:round;stroke-miterlimit:10;}
	.st3{fill:#FFA726;stroke:#0277BD;stroke-linecap:round;stroke-linejoin:round;stroke-miterlimit:10;}
	.st4{fill:#80CBC4;stroke:#0277BD;stroke-linecap:round;stroke-linejoin:round;stroke-miterlimit:10;}
	.st5{fill:none;stroke:#F48FB1;stroke-linecap:round;stroke-linejoin:round;stroke-miterlimit:10;}
	.st6{fill:none;stroke:#FFCC80;stroke-linecap:round;stroke-linejoin:round;stroke-miterlimit:10;}
	.st7{fill:none;stroke:#E0F2F1;stroke-linecap:round;stroke-linejoin:round;stroke-miterlimit:10;}
	.st8{fill:none;stroke:#26A69A;stroke-linecap:round;stroke-linejoin:round;stroke-miterlimit:10;}
	.st9{fill:none;stroke:#F57C00;stroke-linecap:round;stroke-linejoin:round;stroke-miterlimit:10;}
	.st10{fill:none;stroke:#D81B60;stroke-linecap:round;stroke-linejoin:round;stroke-miterlimit:10;}
	.st11{fill:#EEEEEE;stroke:#0277BD;stroke-linecap:round;stroke-linejoin:round;stroke-miterlimit:10;}
	.st12{fill:none;stroke:#BDBDBD;stroke-linecap:round;stroke-linejoin:round;stroke-miterlimit:10;}
	.st13{fill:none;stroke:#E1F5FE;stroke-linecap:round;stroke-linejoin:round;stroke-miterlimit:10;}
	.st14{fill:none;stroke:#FFFFFF;stroke-linecap:round;stroke-linejoin:round;stroke-miterlimit:10;}
	.st15{fill:none;stroke:#29B6F6;stroke-linecap:round;stroke-linejoin:round;stroke-miterlimit:10;}
	.st16{fill:none;stroke:#4FC3F7;stroke-linecap:round;stroke-linejoin:round;stroke-miterlimit:10;}
	.st17{fill:none;stroke:#0277BD;stroke-linecap:round;stroke-linejoin:round;stroke-miterlimit:10;}
</style>
<g id="Parcel_In">
	<g>
		<rect x="11.5" y="14.5" class="st11" width="41" height="20"/>
		<path class="st3" d="M49.5,63.5h-35c-1.7,0-3-1.3-3-3v-26h41v26C52.5,62.2,51.2,63.5,49.5,63.5z"/>
		<path class="st11" d="M2.2,43l9.3-8.5v-20l-10,9.1c-0.6,0.6-1,1.4-1,2.2v16.4C0.5,43.1,1.5,43.6,2.2,43z"/>
		<path class="st11" d="M61.8,43l-9.3-8.5v-20l10,9.1c0.6,0.6,1,1.4,1,2.2v16.4C63.5,43.1,62.5,43.6,61.8,43z"/>
		<path class="st14" d="M2.8,25.1L9.5,19"/>
		<path class="st12" d="M9.5,33.6l-7,6.4"/>
		<path class="st14" d="M54.5,19l6.7,6.1"/>
		<path class="st12" d="M61.5,40l-7-6.4"/>
		<path class="st11" d="M46.2,0.5H17.8c-1.3,0-2.5,0.9-2.9,2.2l-3.4,11.8h41L49.1,2.7C48.8,1.4,47.6,0.5,46.2,0.5z"/>
		<path class="st12" d="M49.8,12.5H14.2"/>
		<path class="st9" d="M49.8,61.5H14.2"/>
		<path class="st11" d="M17.8,48.5h28.5c1.3,0,2.5-0.9,2.9-2.2l3.4-11.8h-41l3.4,11.8C15.2,47.6,16.4,48.5,17.8,48.5z"/>
		<path class="st14" d="M14.2,36.5h35.7"/>
		<line class="st14" x1="17.8" y1="2.5" x2="46.2" y2="2.5"/>
		<line class="st12" x1="17.8" y1="46.5" x2="46.2" y2="46.5"/>
		<path class="st1" d="M32.7,29.5l8.9-8.9c0.6-0.6,0.2-1.7-0.7-1.7h-3.1c-0.6,0-1-0.4-1-1V7.7c0-0.6-0.4-1-1-1h-7.6
			c-0.6,0-1,0.4-1,1V18c0,0.6-0.4,1-1,1h-3.1c-0.9,0-1.3,1.1-0.7,1.7l8.9,8.9C31.7,29.9,32.3,29.9,32.7,29.5z"/>
		<path class="st13" d="M29.2,8.7h5.6"/>
		<path class="st15" d="M38.4,21L32,27.4L25.6,21"/>
	</g>
</g>
</svg>
