<?xml version="1.0" encoding="UTF-8" standalone="no"?>
<!-- Uploaded to: SVG Repo, www.svgrepo.com, Generator: SVG Repo Mixer Tools -->

<svg
   width="800px"
   height="800px"
   viewBox="0 0 48 48"
   version="1.1"
   id="svg3"
   sodipodi:docname="image.svg"
   inkscape:version="1.3.1 (9b9bdc1480, 2023-11-25, custom)"
   xmlns:inkscape="http://www.inkscape.org/namespaces/inkscape"
   xmlns:sodipodi="http://sodipodi.sourceforge.net/DTD/sodipodi-0.dtd"
   xmlns="http://www.w3.org/2000/svg"
   xmlns:svg="http://www.w3.org/2000/svg">
  <defs
     id="defs3" />
  <sodipodi:namedview
     id="namedview3"
     pagecolor="#ffffff"
     bordercolor="#000000"
     borderopacity="0.25"
     inkscape:showpageshadow="2"
     inkscape:pageopacity="0.0"
     inkscape:pagecheckerboard="0"
     inkscape:deskcolor="#d1d1d1"
     inkscape:zoom="1.3525"
     inkscape:cx="400"
     inkscape:cy="400"
     inkscape:window-width="2560"
     inkscape:window-height="1324"
     inkscape:window-x="0"
     inkscape:window-y="0"
     inkscape:window-maximized="1"
     inkscape:current-layer="svg3" />
  <title
     id="title1">70 Basic icons by Xicons.co</title>
  <path
     d="m 15.102241,15.820787 c -6.8571559,0 -12.4138168,3.88695 -12.4138168,8.678995 v 4.339498 a 1.1822683,1.2398564 0 0 0 1.1822683,1.239856 H 26.33379 a 1.1822683,1.2398564 0 0 0 1.182268,-1.239856 v -4.339498 c 0,-4.792045 -5.556661,-8.678995 -12.413817,-8.678995 z"
     fill="#4dbe86"
     id="path1"
     style="stroke-width:0.60536" />
  <path
     d="M 15.102241,1.5624375 A 7.6847439,8.0590669 0 1 0 22.786985,9.6215041 7.6847439,8.0590669 0 0 0 15.102241,1.5624375 Z"
     fill="#fac591"
     id="path2"
     style="stroke-width:0.60536" />
  <path
     d="m 21.185011,4.6620787 a 7.6847439,8.0590669 0 0 0 -12.1005154,-0.061993 0.05320207,0.05579354 0 0 0 0.041379,0.08679 H 21.185011 Z"
     fill="#84523c"
     id="path3"
     style="stroke-width:0.60536" />
  <path
     d="m 34.584448,24.527293 c -6.857156,0 -12.413817,3.88695 -12.413817,8.678995 v 4.339498 a 1.1822683,1.2398564 0 0 0 1.182268,1.239856 h 22.463098 a 1.1822683,1.2398564 0 0 0 1.182268,-1.239856 v -4.339498 c 0,-4.792045 -5.556661,-8.678995 -12.413817,-8.678995 z"
     fill="#4dbe86"
     id="path1-3"
     style="stroke-width:0.60536;fill:#ff2a2a" />
  <path
     d="m 34.584448,10.268944 a 7.6847439,8.0590669 0 1 0 7.684744,8.059066 7.6847439,8.0590669 0 0 0 -7.684744,-8.059066 z"
     fill="#fac591"
     id="path2-7"
     style="stroke-width:0.60536" />
  <path
     d="m 40.667218,13.368585 a 7.6847439,8.0590669 0 0 0 -12.100516,-0.06199 0.05320207,0.05579354 0 0 0 0.04138,0.08679 h 12.059137 z"
     fill="#84523c"
     id="path3-5"
     style="stroke-width:0.60536" />
  <path
     d="m 13.476952,32.588463 c -6.8571556,0 -12.4138166,3.88695 -12.4138166,8.678995 v 4.339498 a 1.1822683,1.2398564 0 0 0 1.182268,1.239856 H 24.708501 a 1.1822683,1.2398564 0 0 0 1.182268,-1.239856 v -4.339498 c 0,-4.792045 -5.556661,-8.678995 -12.413817,-8.678995 z"
     fill="#4dbe86"
     id="path1-9"
     style="stroke-width:0.60536;fill:#0000ff" />
  <path
     d="m 13.476952,18.330113 a 7.6847439,8.0590669 0 1 0 7.684744,8.059067 7.6847439,8.0590669 0 0 0 -7.684744,-8.059067 z"
     fill="#fac591"
     id="path2-2"
     style="stroke-width:0.60536" />
  <path
     d="m 19.559722,21.429755 a 7.6847439,8.0590669 0 0 0 -12.1005156,-0.06199 0.05320207,0.05579354 0 0 0 0.04138,0.08679 H 19.559723 Z"
     fill="#84523c"
     id="path3-2"
     style="stroke-width:0.60536" />
</svg>
