<?xml version="1.0" encoding="iso-8859-1"?>
<!-- Uploaded to: SVG Repo, www.svgrepo.com, Generator: SVG Repo Mixer Tools -->
<svg version="1.1" id="Layer_1" xmlns="http://www.w3.org/2000/svg" xmlns:xlink="http://www.w3.org/1999/xlink" 
	 viewBox="0 0 511.992 511.992" xml:space="preserve">
<path d="M181.341,85.436c0,5.891-4.781,10.656-10.672,10.656s-10.672-4.766-10.672-10.656s4.781-10.672,10.672-10.672
	S181.341,79.546,181.341,85.436z"/>
<path style="fill:#5D9CEC;" d="M74.671,202.763V85.436c0-5.891,4.781-10.672,10.672-10.672h170.653
	c5.891,0,10.672,4.781,10.672,10.672v117.326H74.671V202.763z"/>
<path style="fill:#CCD1D9;" d="M255.996,64.093H85.343c-11.781,0-21.344,9.547-21.344,21.344v127.982H277.34V85.436
	C277.34,73.64,267.793,64.093,255.996,64.093z M255.996,192.091H85.343V85.436h170.653V192.091z"/>
<path style="fill:#E6E9ED;" d="M287.995,192.091H53.343c-5.891,0-10.672,4.781-10.672,10.672s4.781,10.656,10.672,10.656h234.652
	c5.891,0,10.672-4.766,10.672-10.656S293.886,192.091,287.995,192.091z"/>
<polygon style="opacity:0.1;fill:#FFFFFF;enable-background:new    ;" points="167.997,192.091 127.998,192.091 170.669,85.436 
	210.652,85.436 "/>
<g>
	<rect x="319.996" y="213.216" style="fill:#FFD2A6;" width="170.67" height="234.68"/>
	<path style="fill:#FFD2A6;" d="M31.999,447.899c-5.89,0-10.655-4.781-10.655-10.688V224.294c0-5.891,4.766-10.672,10.655-10.672
		c5.906,0,10.672,4.781,10.672,10.672v212.918C42.671,443.118,37.905,447.899,31.999,447.899z"/>
</g>
<rect x="319.996" y="330.556" style="fill:#F4BE8E;" width="170.67" height="21.343"/>
<g>
	<path style="fill:#434A54;" d="M415.993,298.558h-21.327c-5.891,0-10.672-4.781-10.672-10.656c0-5.906,4.781-10.688,10.672-10.688
		h21.327c5.906,0,10.672,4.781,10.672,10.688C426.665,293.777,421.899,298.558,415.993,298.558z"/>
	<path style="fill:#434A54;" d="M415.993,405.213h-21.327c-5.891,0-10.672-4.75-10.672-10.656c0-5.875,4.781-10.656,10.672-10.656
		h21.327c5.906,0,10.672,4.781,10.672,10.656C426.665,400.463,421.899,405.213,415.993,405.213z"/>
</g>
<rect x="362.666" y="117.216" style="fill:#5D9CEC;" width="42.671" height="106.67"/>
<rect x="405.336" y="117.216" style="fill:#48CFAD;" width="42.655" height="106.67"/>
<g>
	<path style="fill:#965353;" d="M351.994,234.558c-5.891,0-10.656-4.78-10.656-10.671v-10.266c0-5.891,4.766-10.656,10.656-10.656
		c5.906,0,10.672,4.766,10.672,10.656v10.266C362.666,229.778,357.9,234.558,351.994,234.558z"/>
	<path style="fill:#965353;" d="M458.664,234.558c-5.891,0-10.672-4.78-10.672-10.671v-10.266c0-5.891,4.781-10.656,10.672-10.656
		s10.672,4.766,10.672,10.656v10.266C469.336,229.778,464.555,234.558,458.664,234.558z"/>
</g>
<path style="fill:#A85D5D;" d="M501.336,234.558H10.672C4.781,234.558,0,229.778,0,223.887s4.781-10.672,10.672-10.672h490.664
	c5.891,0,10.656,4.781,10.656,10.672S507.226,234.558,501.336,234.558z"/>
</svg>