<?xml version="1.0" encoding="iso-8859-1"?>
<!-- Uploaded to: SVG Repo, www.svgrepo.com, Generator: SVG Repo Mixer Tools -->
<svg height="800px" width="800px" version="1.1" id="Layer_1" xmlns="http://www.w3.org/2000/svg" xmlns:xlink="http://www.w3.org/1999/xlink" 
	 viewBox="0 0 512 512" xml:space="preserve">
<g transform="translate(1)">
	<path style="fill:#FFE100;" d="M380.847,503.467h-250.88c-11.093,0-19.627-8.533-19.627-19.627V96.427
		c0-11.093,8.533-19.627,19.627-19.627h250.027c11.947,0,20.48,8.533,20.48,19.627v386.56
		C400.473,494.933,391.94,503.467,380.847,503.467"/>
	<path style="fill:#FFA800;" d="M380.847,76.8h-25.6c11.093,0,19.627,8.533,19.627,19.627v386.56
		c0,11.093-8.533,19.627-19.627,19.627h25.6c11.093,0,19.627-8.533,19.627-19.627V96.427C400.473,85.333,391.94,76.8,380.847,76.8"
		/>
	<path style="fill:#FFE100;" d="M127.407,76.8c0-37.547,57.173-68.267,128-68.267s128,30.72,128,68.267"/>
	<path style="fill:#FFA800;" d="M255.407,8.533c-4.267,0-8.533,0-12.8,0c64.853,3.413,115.2,33.28,115.2,68.267h25.6
		C383.407,39.253,326.233,8.533,255.407,8.533"/>
	<g>
		<path style="fill:#FFFFFF;" d="M131.673,76.8h25.6c-11.093,0-19.627,8.533-19.627,19.627v386.56
			c0,11.093,8.533,19.627,19.627,19.627h-25.6c-11.093,0-19.627-8.533-19.627-19.627V96.427
			C112.047,85.333,120.58,76.8,131.673,76.8"/>
		<path style="fill:#FFFFFF;" d="M257.113,8.533c4.267,0,8.533,0,12.8,0c-64.853,3.413-115.2,33.28-115.2,68.267h-25.6
			C129.113,39.253,186.287,8.533,257.113,8.533"/>
	</g>
	<path style="fill:#63D3FD;" d="M332.207,503.467h-153.6V240.64c0-5.973,4.267-10.24,10.24-10.24H322.82
		c5.12,0,10.24,4.267,10.24,10.24v262.827H332.207z"/>
	<path style="fill:#3DB9F9;" d="M321.967,230.4H304.9c5.12,0,10.24,4.267,10.24,10.24v262.827h17.067V240.64
		C332.207,234.667,327.94,230.4,321.967,230.4"/>
	<path style="fill:#63D3FD;" d="M323.673,187.733H187.14c-4.267,0-8.533-3.413-8.533-8.533V128c0-4.267,3.413-8.533,8.533-8.533
		h136.533c4.267,0,8.533,3.413,8.533,8.533v51.2C332.207,184.32,328.793,187.733,323.673,187.733"/>
	<path style="fill:#3DB9F9;" d="M323.673,119.467h-25.6c4.267,0,8.533,3.413,8.533,8.533v51.2c0,4.267-3.413,8.533-8.533,8.533h25.6
		c4.267,0,8.533-3.413,8.533-8.533V128C332.207,122.88,328.793,119.467,323.673,119.467"/>
	<path d="M380.847,512h-250.88c-15.36,0-28.16-12.8-28.16-28.16V96.427c0-15.36,12.8-28.16,28.16-28.16h250.027
		c15.36,0,28.16,12.8,28.16,28.16v386.56C409.007,499.2,396.207,512,380.847,512z M129.967,85.333
		c-5.973,0-11.093,5.12-11.093,11.093v386.56c0,6.827,5.12,11.947,11.093,11.947h250.027c5.973,0,11.093-5.12,11.093-11.093V96.427
		c0-5.973-5.12-11.093-11.093-11.093H129.967z"/>
	<path d="M391.94,76.8h-17.067c0-32.427-54.613-59.733-119.467-59.733S135.94,44.373,135.94,76.8h-17.067
		c0-42.667,59.733-76.8,136.533-76.8S391.94,34.133,391.94,76.8z"/>
	<path d="M340.74,512H170.073V240.64c0-10.24,8.533-18.773,18.773-18.773H322.82c10.24,0,18.773,8.533,18.773,18.773V512H340.74z
		 M187.14,494.933h136.533V240.64c0-0.853-0.853-1.707-1.707-1.707h-133.12c-0.853,0-1.707,0.853-1.707,1.707V494.933z"/>
	<path d="M255.407,366.933c-5.12,0-8.533-3.413-8.533-8.533v-59.733c0-5.12,3.413-8.533,8.533-8.533c5.12,0,8.533,3.413,8.533,8.533
		V358.4C263.94,363.52,260.527,366.933,255.407,366.933z"/>
	<path d="M281.007,392.533c-2.56,0-4.267-0.853-5.973-2.56l-25.6-25.6c-3.413-3.413-3.413-8.533,0-11.947
		c3.413-3.413,8.533-3.413,11.947,0l25.6,25.6c3.413,3.413,3.413,8.533,0,11.947C285.273,391.68,283.566,392.533,281.007,392.533z"
		/>
	<path d="M229.807,392.533c-2.56,0-4.267-0.853-5.973-2.56c-3.413-3.413-3.413-8.533,0-11.947l25.6-25.6
		c3.413-3.413,8.533-3.413,11.947,0c3.413,3.413,3.413,8.533,0,11.947l-25.6,25.6C234.073,391.68,232.367,392.533,229.807,392.533z"
		/>
	<path d="M281.007,349.867c-2.56,0-4.267-0.853-5.973-2.56l-25.6-25.6c-3.413-3.413-3.413-8.533,0-11.947s8.533-3.413,11.947,0
		l25.6,25.6c3.413,3.413,3.413,8.533,0,11.947C285.273,349.013,283.566,349.867,281.007,349.867z"/>
	<path d="M229.807,349.867c-2.56,0-4.267-0.853-5.973-2.56c-3.413-3.413-3.413-8.533,0-11.947l25.6-25.6
		c3.413-3.413,8.533-3.413,11.947,0s3.413,8.533,0,11.947l-25.6,25.6C234.073,349.013,232.367,349.867,229.807,349.867z"/>
	<path d="M255.407,307.2c-14.507,0-25.6-11.093-25.6-25.6c0-14.507,11.093-25.6,25.6-25.6c14.507,0,25.6,11.093,25.6,25.6
		C281.007,296.107,269.913,307.2,255.407,307.2z M255.407,273.067c-5.12,0-8.533,3.413-8.533,8.533c0,5.12,3.413,8.533,8.533,8.533
		c5.12,0,8.533-3.413,8.533-8.533C263.94,276.48,260.527,273.067,255.407,273.067z"/>
	<path d="M306.607,426.667H289.54c-5.12,0-8.533-3.413-8.533-8.533s3.413-8.533,8.533-8.533h17.067c5.12,0,8.533,3.413,8.533,8.533
		S311.727,426.667,306.607,426.667z"/>
	<path d="M289.54,443.733c-5.12,0-8.533-3.413-8.533-8.533v-17.067c0-5.12,3.413-8.533,8.533-8.533s8.533,3.413,8.533,8.533V435.2
		C298.073,440.32,294.66,443.733,289.54,443.733z"/>
	<path d="M323.673,196.267H187.14c-9.387,0-17.067-7.68-17.067-17.067V128c0-9.387,7.68-17.067,17.067-17.067h136.533
		c9.387,0,17.067,7.68,17.067,17.067v51.2C340.74,188.587,333.06,196.267,323.673,196.267z M323.673,179.2v8.533V179.2
		L323.673,179.2L323.673,179.2z M323.673,128H187.14v51.2h136.533V128z"/>
</g>
</svg>