<?xml version="1.0" encoding="UTF-8" standalone="no"?>
<!-- Generator: Adobe Illustrator 24.0.0, SVG Export Plug-In . SVG Version: 6.00 Build 0)  -->

<svg
   version="1.1"
   id="Layer_1"
   x="0px"
   y="0px"
   viewBox="0 0 256 256"
   enable-background="new 0 0 256 256"
   xml:space="preserve"
   sodipodi:docname="image.svg"
   inkscape:version="1.2.2 (b0a8486541, 2022-12-01)"
   xmlns:inkscape="http://www.inkscape.org/namespaces/inkscape"
   xmlns:sodipodi="http://sodipodi.sourceforge.net/DTD/sodipodi-0.dtd"
   xmlns="http://www.w3.org/2000/svg"
   xmlns:svg="http://www.w3.org/2000/svg"><defs
   id="defs993">
	
	
	
	
	
	
	
	
	
	
	
	
	
	
	
	
	
	
	
	
	
	
	
	
	
	
	
	
</defs><sodipodi:namedview
   id="namedview991"
   pagecolor="#ffffff"
   bordercolor="#000000"
   borderopacity="0.25"
   inkscape:showpageshadow="2"
   inkscape:pageopacity="0.0"
   inkscape:pagecheckerboard="0"
   inkscape:deskcolor="#d1d1d1"
   showgrid="false"
   inkscape:zoom="3.0117188"
   inkscape:cx="127.83398"
   inkscape:cy="75.206226"
   inkscape:window-width="1442"
   inkscape:window-height="795"
   inkscape:window-x="180"
   inkscape:window-y="116"
   inkscape:window-maximized="0"
   inkscape:current-layer="Layer_1" />
<g
   id="g930">
</g>
<circle
   fill="#feb69f"
   cx="57.915001"
   cy="146.112"
   r="26.747"
   id="circle932" /><path
   fill="#72c2e9"
   d="M 97.629,247.291 H 18.2 v -34.718 c 0,-21.934 17.781,-39.715 39.715,-39.715 v 0 c 21.934,0 39.715,17.781 39.715,39.715 v 34.718 z"
   id="path934"
   style="fill:#0000ff" /><path
   fill="#c5e5fe"
   d="m 86.251,238.412 c -1.381,0 -2.5,-1.119 -2.5,-2.5 v -2.855 c 0,-1.381 1.119,-2.5 2.5,-2.5 1.381,0 2.5,1.119 2.5,2.5 v 2.855 c 0,1.381 -1.119,2.5 -2.5,2.5 z m 0,-12.855 c -1.381,0 -2.5,-1.119 -2.5,-2.5 v -10.483 c 0,-14.246 -11.59,-25.836 -25.836,-25.836 -1.381,0 -2.5,-1.119 -2.5,-2.5 0,-1.381 1.119,-2.5 2.5,-2.5 17.003,0 30.836,13.833 30.836,30.836 v 10.483 c 0,1.381 -1.119,2.5 -2.5,2.5 z"
   id="path936" /><circle
   fill="#feb69f"
   cx="128"
   cy="169.91701"
   r="20.454"
   id="circle938" /><path
   fill="#8b72e9"
   d="M 158.371,247.291 H 97.629 v -26.549 c 0,-16.773 13.597,-30.37 30.37,-30.37 v 0 c 16.773,0 30.37,13.597 30.37,30.37 v 26.549 z"
   id="path940" /><path
   fill="#b8a4ff"
   d="m 146.992,238.412 c -1.381,0 -2.5,-1.119 -2.5,-2.5 v -4.008 c 0,-1.381 1.119,-2.5 2.5,-2.5 1.381,0 2.5,1.119 2.5,2.5 v 4.008 c 0,1.381 -1.119,2.5 -2.5,2.5 z m 0,-14.008 c -1.381,0 -2.5,-1.119 -2.5,-2.5 v -1.163 c 0,-9.094 -7.398,-16.492 -16.492,-16.492 -1.381,0 -2.5,-1.119 -2.5,-2.5 0,-1.381 1.119,-2.5 2.5,-2.5 11.851,0 21.492,9.642 21.492,21.492 v 1.163 c 0,1.381 -1.119,2.5 -2.5,2.5 z"
   id="path942" /><circle
   fill="#feb69f"
   cx="198.08501"
   cy="146.112"
   r="26.747"
   id="circle944" /><path
   fill="#fb5e3d"
   d="m 237.8,247.291 h -79.429 v -34.718 c 0,-21.934 17.781,-39.715 39.715,-39.715 v 0 c 21.934,0 39.715,17.781 39.715,39.715 v 34.718 z"
   id="path946"
   style="fill:#ff00ff" /><path
   fill="#ffcbc3"
   d="m 226.421,238.412 c -1.381,0 -2.5,-1.119 -2.5,-2.5 v -2.855 c 0,-1.381 1.119,-2.5 2.5,-2.5 1.381,0 2.5,1.119 2.5,2.5 v 2.855 c 0,1.381 -1.119,2.5 -2.5,2.5 z m 0,-12.855 c -1.381,0 -2.5,-1.119 -2.5,-2.5 v -10.483 c 0,-14.246 -11.59,-25.836 -25.836,-25.836 -1.381,0 -2.5,-1.119 -2.5,-2.5 0,-1.381 1.119,-2.5 2.5,-2.5 17.003,0 30.836,13.833 30.836,30.836 v 10.483 c 0,1.381 -1.119,2.5 -2.5,2.5 z"
   id="path948" /><path
   fill="#f0c020"
   d="M 204.832,8.707 H 51.168 c -11.046,0 -20,8.954 -20,20 v 40.064 c 0,10.486 8.074,19.071 18.342,19.916 l 8.404,20.059 8.369,-19.976 h 50.792 L 128,118.005 138.925,88.771 h 50.791 l 8.369,19.976 8.404,-20.059 c 10.268,-0.844 18.343,-9.43 18.343,-19.916 V 28.707 c 0,-11.046 -8.955,-20 -20,-20 z"
   id="path950"
   style="fill:#ffb380" /><path
   fill="#f8e5b0"
   d="m 214.83,70.835 c -1.38,0 -2.5,-1.12 -2.5,-2.5 0,-1.38 1.12,-2.5 2.5,-2.5 1.38,0 2.5,1.12 2.5,2.5 0,1.38 -1.12,2.5 -2.5,2.5 z m 0,-10 c -1.38,0 -2.5,-1.12 -2.5,-2.5 v -29.63 c -0.011,-4.131 -3.37,-7.49 -7.5,-7.5 H 51.17 c -1.38,0 -2.5,-1.12 -2.5,-2.5 0,-1.381 1.12,-2.5 2.5,-2.5 h 153.66 c 6.89,0.01 12.5,5.609 12.5,12.5 v 29.63 c 0,1.38 -1.12,2.5 -2.5,2.5 z"
   id="path952"
   style="fill:#ffccaa" /><path
   d="m 74.52,146.114 c 0,-1.38 -1.12,-2.5 -2.5,-2.5 -1.37,0 -2.489,1.11 -2.5,2.48 0,0.01 0,0.01 0,0.02 -0.01,6.381 -5.22,11.591 -11.6,11.601 -6.39,-0.01 -11.601,-5.22 -11.61,-11.601 0,-1.38 -1.12,-2.5 -2.5,-2.5 -1.38,0 -2.5,1.12 -2.5,2.5 0.01,9.15 7.45,16.601 16.61,16.601 9.149,0 16.59,-7.45 16.6,-16.601 z"
   id="path958" /><path
   d="m 15.7,212.574 v 34.721 c 0,1.38 1.119,2.5 2.5,2.5 1.38,0 2.5,-1.12 2.5,-2.5 0,-0.01 0,-0.01 0,-0.021 v -34.7 c 0,-20.581 16.649,-37.22 37.22,-37.22 20.568,0 37.21,16.651 37.21,37.22 0,14.037 0,20.39 0,34.721 0,1.38 1.12,2.5 2.5,2.5 1.38,0 2.5,-1.12 2.5,-2.5 v -0.021 -26.529 c 0.03,-15.341 12.53,-27.851 27.87,-27.87 15.34,0.02 27.84,12.529 27.87,27.87 v 26.55 c 0,1.38 1.12,2.5 2.5,2.5 1.38,0 2.5,-1.12 2.5,-2.5 v -0.021 c 0,-13.15 0,-21.302 0,-34.7 0,-7.699 2.33,-15.079 6.729,-21.359 0.79,-1.13 0.521,-2.69 -0.609,-3.48 -1.091,-0.77 -2.721,-0.479 -3.48,0.61 -3.448,4.911 -5.773,10.421 -6.884,16.231 -3.87,-6.83 -10.023,-12.038 -17.306,-14.704 6.94,-3.954 11.631,-11.413 11.631,-19.957 0,-12.65 -10.29,-22.95 -22.95,-22.95 -12.66,0 -22.95,10.3 -22.95,22.95 0,8.544 4.69,16.003 11.63,19.957 -7.307,2.673 -13.45,7.898 -17.307,14.708 -2.934,-15.398 -14.187,-27.614 -28.557,-32.214 9.625,-4.735 16.345,-14.63 16.345,-26.252 0,-16.17 -13.073,-29.25 -29.25,-29.25 -16.121,0 -29.24,13.037 -29.24,29.25 0,11.59 6.69,21.503 16.344,26.253 C 28.315,177.711 15.7,193.412 15.7,212.574 Z m 94.34,-42.659 c 0.02,-9.88 8.08,-17.931 17.96,-17.95 9.88,0.02 17.939,8.07 17.95,17.95 -0.011,9.88 -8.07,17.939 -17.95,17.96 -9.88,-0.021 -17.94,-8.08 -17.96,-17.96 z M 33.67,146.114 c 0.02,-13.35 10.899,-24.229 24.24,-24.25 13.35,0.021 24.229,10.9 24.25,24.25 -0.021,13.341 -10.9,24.221 -24.25,24.24 -13.341,-0.019 -24.221,-10.899 -24.24,-24.24 z"
   id="path960" /><path
   d="m 136.31,167.415 c -1.37,0 -2.5,1.12 -2.5,2.5 0,3.199 -2.609,5.81 -5.81,5.819 -3.2,-0.01 -5.811,-2.62 -5.82,-5.819 0,-1.38 -1.12,-2.5 -2.49,-2.5 -1.38,0 -2.5,1.12 -2.5,2.5 0,5.96 4.851,10.81 10.811,10.819 5.96,-0.01 10.81,-4.859 10.81,-10.819 -0.001,-1.38 -1.122,-2.5 -2.501,-2.5 z"
   id="path962" /><path
   d="m 210.609,143.614 c -1.38,0 -2.5,1.12 -2.5,2.5 -0.01,5.511 -4.51,10.011 -10.029,10.021 -5.511,-0.01 -10.011,-4.51 -10.021,-10.021 0,-1.38 -1.12,-2.5 -2.5,-2.5 -1.38,0 -2.5,1.12 -2.5,2.5 0.01,8.28 6.74,15.021 15.021,15.021 8.279,0 15.02,-6.74 15.029,-15.021 0,-1.38 -1.119,-2.5 -2.5,-2.5 z"
   id="path964" /><path
   d="m 173.89,184.305 c 0,-0.01 0,-0.01 0,-0.01 1.04,-0.9 1.16,-2.48 0.271,-3.521 -0.86,-1.01 -2.521,-1.14 -3.53,-0.27 -0.983,0.845 -1.217,2.396 -0.271,3.52 0.881,1.029 2.418,1.199 3.53,0.281 z"
   id="path966" /><path
   d="m 237.8,249.795 c 1.38,0 2.5,-1.12 2.5,-2.5 v -34.721 c 0,-19.152 -12.62,-34.864 -29.314,-40.208 9.606,-4.727 16.344,-14.61 16.344,-26.252 0,-16.186 -13.092,-29.25 -29.24,-29.25 -16.164,0 -29.25,13.067 -29.25,29.25 0,11.628 6.726,21.526 16.355,26.258 -1.945,0.625 -3.855,1.379 -5.716,2.293 -1.281,0.641 -1.733,2.163 -1.14,3.35 0.59,1.2 2.11,1.74 3.33,1.15 0.01,0 0.01,-0.011 0.02,-0.011 5.12,-2.52 10.641,-3.8 16.4,-3.8 20.568,0 37.21,16.651 37.21,37.22 v 34.721 c 0.001,1.38 1.121,2.5 2.501,2.5 z M 173.84,146.114 c 0.02,-13.35 10.9,-24.229 24.25,-24.25 13.34,0.021 24.22,10.9 24.24,24.25 -0.021,13.341 -10.9,24.221 -24.24,24.24 -13.35,-0.019 -24.231,-10.899 -24.25,-24.24 z"
   id="path968" /><path
   d="M 204.83,6.205 H 51.17 c -12.41,0 -22.5,10.1 -22.5,22.5 v 14.909 c 0,1.381 1.12,2.5 2.5,2.5 1.38,0 2.5,-1.119 2.5,-2.5 V 28.705 c 0.01,-9.631 7.86,-17.48 17.5,-17.5 h 153.66 c 9.63,0.02 17.479,7.869 17.5,17.5 v 40.069 c 0.01,9.03 -7.04,16.681 -16.04,17.42 -0.94,0.08 -1.74,0.66 -2.11,1.521 l -6.1,14.56 -6.061,-14.47 c -0.39,-0.93 -1.29,-1.54 -2.3,-1.54 h -22.32 c -1.38,0 -2.5,1.13 -2.5,2.51 0,1.37 1.12,2.5 2.5,2.5 h 20.65 l 7.73,18.44 c 0.852,2.033 3.753,2.042 4.609,0 l 7.84,-18.72 c 10.877,-1.633 19.101,-11.051 19.101,-22.221 V 28.705 c 0.001,-12.4 -10.089,-22.5 -22.499,-22.5 z"
   id="path976" /><path
   d="m 28.67,63.614 v 5.16 c 0,11.282 8.309,20.6 19.1,22.221 l 7.84,18.72 c 0.859,2.045 3.759,2.03 4.61,0 l 7.73,-18.45 h 47.39 l 10.32,27.62 c 0.796,2.149 3.878,2.157 4.68,0 l 10.32,-27.61 h 6.729 c 1.38,0 2.5,-1.13 2.5,-2.5 0,-1.38 -1.12,-2.5 -2.5,-2.5 l -8.46,-0.01 c -1.04,0 -1.979,0.66 -2.35,1.63 l -8.58,22.97 -8.58,-22.97 c -0.37,-0.97 -1.311,-1.63 -2.34,-1.63 h -50.8 c -1.011,0 -1.91,0.61 -2.301,1.54 l -6.069,14.47 -6.101,-14.56 c -0.359,-0.86 -1.16,-1.44 -2.1,-1.521 -9,-0.739 -16.05,-8.39 -16.04,-17.42 v -5.16 c 0,-1.38 -1.12,-2.5 -2.5,-2.5 -1.37,0 -2.49,1.11 -2.5,2.49 0.002,0 0.002,0 0.002,0.01 z"
   id="path978" /><circle
   cx="31.17"
   cy="53.613998"
   r="2.5"
   id="circle980" /><path
   d="m 154.899,88.774 c 0,1.37 1.12,2.5 2.5,2.5 1.37,0 2.5,-1.13 2.5,-2.5 0,-1.38 -1.13,-2.51 -2.5,-2.51 -1.379,0.001 -2.5,1.131 -2.5,2.51 z"
   id="path982" />
<text
   xml:space="preserve"
   style="font-size:92.5289px;fill:#0000ff;stroke-width:7.71074"
   x="54.717907"
   y="99.97567"
   id="text1077"
   transform="scale(1.2686881,0.78821577)"><tspan
     sodipodi:role="line"
     id="tspan1075"
     x="54.717907"
     y="99.97567"
     style="stroke-width:7.71074">ID</tspan></text></svg>
