<?xml version="1.0" encoding="iso-8859-1"?>
<!-- Uploaded to: SVG Repo, www.svgrepo.com, Generator: SVG Repo Mixer Tools -->
<svg height="800px" width="800px" version="1.1" id="Layer_1" xmlns="http://www.w3.org/2000/svg" xmlns:xlink="http://www.w3.org/1999/xlink" 
	 viewBox="0 0 511.999 511.999" xml:space="preserve">
<g>
	<path style="fill:#FDD7AD;" d="M505.818,343.757c6.833-5.667,8.227-15.713,3.046-22.934c-11.061-15.404-20.224-19.059-58.659,1.148
		l-76.57,46.804c-23.402,12.438-84.807,8.828-111.298,8.828c0,0,62.517,4.228,37.57-32.997
		c-12.403-18.529-33.801-29.043-56.099-29.043H209.37c-20.065,0-39.865-5.967-55.896-18.044
		c-37.394-28.204-109.338,27.118-109.338,27.118v158.897h123.586c17.629,0,35.231-1.324,52.665-3.981l115.059-17.496
		c3.928,0,7.742-0.459,11.432-1.28c0.062-0.009,0.124-0.018,0.177-0.026c9.313-1.315,17.823-6.029,24.62-12.526L505.818,343.757z"/>
	<polygon style="fill:#4482C3;" points="0,510.016 44.138,510.016 44.138,298.154 0,298.154 	"/>
	<path style="fill:#F09372;" d="M152.56,412.913c-4.873,0-8.828-3.946-8.828-8.828c0-22.113,16.499-35.31,44.138-35.31h85.786
		c4.873,0,8.828,3.946,8.828,8.828c0,4.882-3.955,8.828-8.828,8.828H187.87c-26.483,0-26.483,13.286-26.483,17.655
		C161.388,408.967,157.433,412.913,152.56,412.913"/>
	<path style="fill:#F0C419;" d="M255.999,59.697c-14.583,0-26.412-11.802-26.474-26.368h-0.009v211.862h52.966V33.329h-0.009
		C282.411,47.895,270.582,59.697,255.999,59.697"/>
	<g>
		<path style="fill:#C03A2B;" d="M167.723,95.12v132.414c0,9.746,7.91,17.655,17.655,17.655h44.138V95.12H167.723z"/>
		<path style="fill:#C03A2B;" d="M282.482,95.12v150.069h44.138c9.746,0,17.655-7.91,17.655-17.655V95.12H282.482z"/>
	</g>
	<g>
		<path style="fill:#96241B;" d="M229.516,53.809l-30.252,10.09c-6.833,2.269-13.886-2.816-13.886-10.01V33.329h-17.655
			c-9.746,0-17.655,7.901-17.655,17.655v26.483c0,9.746,7.91,17.655,17.655,17.655h61.793V53.809z"/>
		<path style="fill:#96241B;" d="M344.275,33.326H326.62v20.559c0,7.203-7.053,12.288-13.886,10.01l-30.252-10.09V95.12h61.793
			c9.746,0,17.655-7.91,17.655-17.655V50.982C361.93,41.236,354.021,33.326,344.275,33.326"/>
	</g>
	<path style="fill:#F29CAF;" d="M229.516,33.214c0-14.627,11.855-26.483,26.483-26.483s26.483,11.855,26.483,26.483
		c0,14.618-11.855,26.483-26.483,26.483S229.516,47.833,229.516,33.214"/>
	<g>
		<path style="fill:#D75D72;" d="M229.516,33.214c0-7.053,2.798-13.427,7.292-18.176L199.264,2.53
			c-6.833-2.269-13.886,2.807-13.886,10.01v41.348c0,7.194,7.053,12.279,13.886,10.01l37.544-12.518
			C232.315,46.632,229.516,40.268,229.516,33.214"/>
		<path style="fill:#D75D72;" d="M282.482,33.214c0-7.053-2.798-13.427-7.292-18.176L312.734,2.53
			c6.833-2.269,13.886,2.807,13.886,10.01v41.348c0,7.194-7.053,12.279-13.886,10.01L275.19,51.381
			C279.684,46.632,282.482,40.268,282.482,33.214"/>
	</g>
</g>
</svg>