<?xml version="1.0" encoding="UTF-8" standalone="no"?>
<!-- Uploaded to: SVG Repo, www.svgrepo.com, Generator: SVG Repo Mixer Tools -->

<svg
   height="800px"
   width="800px"
   version="1.1"
   id="Layer_1"
   viewBox="0 0 511.999 511.999"
   xml:space="preserve"
   xmlns="http://www.w3.org/2000/svg"
   xmlns:svg="http://www.w3.org/2000/svg"><defs
   id="defs11">
	
	
	
	
	
	
	
	
</defs>
<path
   style="fill:#fdd7ad"
   d="m 505.818,343.757 c 6.833,-5.667 8.227,-15.713 3.046,-22.934 -11.061,-15.404 -20.224,-19.059 -58.659,1.148 l -76.57,46.804 c -23.402,12.438 -84.807,8.828 -111.298,8.828 0,0 62.517,4.228 37.57,-32.997 -12.403,-18.529 -33.801,-29.043 -56.099,-29.043 H 209.37 c -20.065,0 -39.865,-5.967 -55.896,-18.044 C 116.08,269.315 44.136,324.637 44.136,324.637 v 158.897 h 123.586 c 17.629,0 35.231,-1.324 52.665,-3.981 l 115.059,-17.496 c 3.928,0 7.742,-0.459 11.432,-1.28 0.062,-0.009 0.124,-0.018 0.177,-0.026 9.313,-1.315 17.823,-6.029 24.62,-12.526 z"
   id="path1" /><polygon
   style="fill:#4482c3"
   points="44.138,298.154 0,298.154 0,510.016 44.138,510.016 "
   id="polygon1" /><path
   style="fill:#f09372"
   d="m 152.56,412.913 c -4.873,0 -8.828,-3.946 -8.828,-8.828 0,-22.113 16.499,-35.31 44.138,-35.31 h 85.786 c 4.873,0 8.828,3.946 8.828,8.828 0,4.882 -3.955,8.828 -8.828,8.828 H 187.87 c -26.483,0 -26.483,13.286 -26.483,17.655 0.001,4.881 -3.954,8.827 -8.827,8.827"
   id="path2" /><path
   style="fill:#b3b3b3;stroke-width:5.75302"
   d="m 117.33279,193.00986 c 0,-84.87309 67.62071,-153.667462 151.05855,-153.667462 83.43785,0 151.05856,68.788582 151.05856,153.667462 0,84.82087 -67.62071,153.66746 -151.05856,153.66746 -83.43784,0 -151.05855,-68.84079 -151.05855,-153.66746"
   id="path8" />
</svg>
