<?xml version="1.0" encoding="iso-8859-1"?>
<!-- Uploaded to: SVG Repo, www.svgrepo.com, Generator: SVG Repo Mixer Tools -->
<svg height="800px" width="800px" version="1.1" id="Layer_1" xmlns="http://www.w3.org/2000/svg" xmlns:xlink="http://www.w3.org/1999/xlink" 
	 viewBox="0 0 512.001 512.001" xml:space="preserve">
<path style="fill:#F9BB4E;" d="M445.217,489.739H66.783c-24.588,0-44.522-19.934-44.522-44.522V66.783
	c0-24.588,19.933-44.522,44.522-44.522h378.434c24.588,0,44.522,19.933,44.522,44.522v378.435
	C489.739,469.806,469.806,489.739,445.217,489.739z"/>
<path style="fill:#D3C58B;" d="M456.347,378.435H55.653V77.913h400.695V378.435z"/>
<path style="fill:#BAA570;" d="M456.347,289.392L55.653,100.174v-11.13h400.695V289.392z"/>
<path style="fill:#5B452E;" d="M500.869,367.305h-33.391v-267.13c0-6.147-4.983-11.13-11.13-11.13s-11.13,4.983-11.13,11.13v211.478
	h-77.913v-11.13c0-6.147-4.983-11.13-11.13-11.13c-6.147,0-11.13,4.983-11.13,11.13v11.13H267.13v-11.13
	c0-6.147-4.983-11.13-11.13-11.13s-11.13,4.983-11.13,11.13v11.13h-77.913v-11.13c0-6.147-4.983-11.13-11.13-11.13
	c-6.147,0-11.13,4.983-11.13,11.13v11.13H66.783V100.174c0-6.147-4.983-11.13-11.13-11.13s-11.13,4.983-11.13,11.13v267.13H11.131
	c-6.147,0-11.13,4.983-11.13,11.13s4.983,11.13,11.13,11.13h33.391v66.783c0,6.147,4.983,11.13,11.13,11.13s11.13-4.983,11.13-11.13
	v-66.783h378.434v66.783c0,6.147,4.983,11.13,11.13,11.13s11.13-4.983,11.13-11.13v-66.783h33.391c6.147,0,11.13-4.983,11.13-11.13
	S507.017,367.305,500.869,367.305z M345.043,333.913v33.391H267.13v-33.391H345.043z M244.87,333.913v33.391h-77.913v-33.391H244.87
	z M66.783,333.913h77.913v33.391H66.783V333.913z M367.304,367.305v-33.391h77.913v33.391H367.304z M356.175,233.739H155.827
	v-66.783h200.348V233.739z"/>
<path style="fill:#BAA570;" d="M75.475,82.092c3.84,4.801,3.062,11.804-1.739,15.645l-55.652,44.522
	c-2.052,1.642-4.508,2.439-6.947,2.439c-3.266,0-6.5-1.429-8.698-4.177c-3.84-4.801-3.062-11.804,1.739-15.645L59.83,80.353
	C64.631,76.512,71.635,77.291,75.475,82.092z M507.823,124.875l-55.652-44.522c-4.801-3.841-11.805-3.063-15.645,1.739
	c-3.84,4.801-3.062,11.804,1.739,15.645l55.652,44.522c2.052,1.642,4.508,2.439,6.947,2.439c3.266,0,6.5-1.429,8.698-4.177
	C513.401,135.72,512.623,128.716,507.823,124.875z"/>
<path style="fill:#B94B00;" d="M299.011,8.061l209.524,81.397c5.649,2.311,3.996,10.716-2.107,10.716H5.573
	c-6.103,0-7.756-8.406-2.107-10.716L212.989,8.061C226.703,2.734,241.289,0,256.001,0l0,0C270.713,0,285.297,2.734,299.011,8.061z"
	/>
<path style="fill:#00CEA6;" d="M512,406.158v61.321C512,492.067,492.066,512,467.478,512H44.522
	c-24.588,0-44.522-19.934-44.522-44.522v-61.321c16.296,17.7,39.225,27.93,63.79,27.93c24.703,0,47.758-10.339,64.069-28.226
	c16.313,17.887,39.368,28.226,64.071,28.226s47.758-10.339,64.07-28.226c16.312,17.887,39.367,28.226,64.07,28.226
	s47.758-10.339,64.07-28.226c16.312,17.887,39.367,28.226,64.069,28.226C472.776,434.087,495.705,423.857,512,406.158z"/>
<path style="fill:#00A384;" d="M512,434.383v33.095C512,492.067,492.066,512,467.478,512H44.522
	c-24.588,0-44.522-19.934-44.522-44.522v-33.095c16.296,17.7,39.225,27.93,63.79,27.93c24.703,0,47.758-10.339,64.069-28.226
	c16.312,17.887,39.367,28.226,64.07,28.226s47.758-10.339,64.07-28.226c16.312,17.887,39.367,28.226,64.07,28.226
	s47.758-10.339,64.07-28.226c16.312,17.887,39.367,28.226,64.07,28.226C472.776,462.313,495.705,452.083,512,434.383z"/>
</svg>