<?xml version="1.0" encoding="iso-8859-1"?>
<!-- Uploaded to: SVG Repo, www.svgrepo.com, Generator: SVG Repo Mixer Tools -->
<svg height="800px" width="800px" version="1.1" id="Layer_1" xmlns="http://www.w3.org/2000/svg" xmlns:xlink="http://www.w3.org/1999/xlink" 
	 viewBox="0 0 392.598 392.598" xml:space="preserve">
<path style="fill:#FFFFFF;" d="M349.026,337.842c0,6.012-4.848,10.925-10.925,10.925H54.626c-6.012,0-10.925-4.848-10.925-10.925
	V134.594H21.851v235.96h348.962v-235.96h-21.786L349.026,337.842L349.026,337.842z"/>
<path style="fill:#56ACE0;" d="M335.257,87.402c0,6.012-4.849,10.925-10.925,10.925c-6.012,0-10.925-4.848-10.925-10.925V60.121
	h-33.875v27.281c0,6.012-4.848,10.925-10.925,10.925c-6.012,0-10.925-4.848-10.925-10.925V60.121H134.853v27.281
	c0,6.012-4.848,10.925-10.925,10.925s-10.925-4.848-10.925-10.925V60.121H79.127v27.281c0,6.012-4.848,10.925-10.925,10.925
	c-6.077,0-10.925-4.848-10.925-10.925V60.121H21.721v52.687h348.962V60.121h-35.556v27.281H335.257z"/>
<path style="fill:#FFC10D;" d="M74.214,223.289h-8.727v103.693H327.24V134.594H65.487v23.273H96c6.012,0,10.925,4.848,10.925,10.925
	c0,6.012-4.848,10.925-10.925,10.925H65.487v21.721h8.727c6.012,0,10.925,4.848,10.925,10.925
	C85.139,218.376,80.162,223.289,74.214,223.289z"/>
<g>
	<path style="fill:#194F82;" d="M381.737,38.335h-46.416V11.055c0-6.012-4.848-10.925-10.925-10.925
		c-6.012,0-10.925,4.848-10.925,10.925v27.281h-33.875V11.055c0-6.012-4.848-10.925-10.925-10.925
		c-6.012,0-10.925,4.848-10.925,10.925v27.281H134.853V11.055c0-6.012-4.848-10.925-10.925-10.925s-10.925,4.848-10.925,10.925
		v27.281H79.127V11.055c0-6.012-4.848-10.925-10.925-10.925c-6.077,0-10.925,4.848-10.925,10.925v27.281H10.925
		C4.913,38.335,0,43.184,0,49.261v332.283c0,6.012,4.848,10.925,10.925,10.925h370.747c6.012,0,10.925-4.848,10.925-10.925V49.261
		C392.598,43.184,387.749,38.335,381.737,38.335z M21.851,370.618v-235.96h21.786v203.184c0,6.012,4.848,10.925,10.925,10.925
		h283.539c6.012,0,10.925-4.848,10.925-10.925V134.594h21.786v235.96H21.851V370.618z M74.214,201.438h-8.727v-21.786H96
		c6.012,0,10.925-4.848,10.925-10.925S102.077,157.802,96,157.802H65.487v-23.273H327.24v192.323H65.487V223.289h8.727
		c6.012,0,10.925-4.848,10.925-10.925S80.162,201.438,74.214,201.438z M370.812,112.808L370.812,112.808H21.851V60.121h35.556
		v27.281c0,6.012,4.848,10.925,10.925,10.925s10.925-4.848,10.925-10.925V60.121h33.875v27.281c0,6.012,4.848,10.925,10.925,10.925
		c6.012,0,10.925-4.848,10.925-10.925V60.121h123.022v27.281c0,6.012,4.848,10.925,10.925,10.925
		c6.012,0,10.925-4.848,10.925-10.925V60.121h33.875v27.281c0,6.012,4.848,10.925,10.925,10.925c6.012,0,10.925-4.848,10.925-10.925
		V60.121h35.556v52.687H370.812z"/>
	<path style="fill:#194F82;" d="M149.139,194.327v82.101c0,5.042,4.073,9.051,9.051,9.051c5.042,0,9.051-4.073,9.051-9.051v-91.281
		c0-5.042-3.943-9.051-8.857-9.051h-9.244c-5.042,0-9.051,4.073-9.051,9.051C140.024,190.319,144.097,194.327,149.139,194.327z"/>
	<path style="fill:#194F82;" d="M188.832,262.659h31.935v13.77c0,5.042,4.073,9.051,9.051,9.051c5.172,0,9.18-4.073,9.18-9.051
		v-13.77h4.59c5.042,0,9.051-4.073,9.051-9.051c0-5.042-4.073-9.18-9.051-9.18h-4.59v-59.281c0-5.042-4.073-9.051-9.18-9.051h-4.59
		c-3.297,0-6.4,1.875-7.952,4.848l-36.396,68.202C177.842,255.095,181.204,262.659,188.832,262.659z M220.768,213.139v31.289
		h-16.679L220.768,213.139z"/>
</g>
</svg>