<?xml version="1.0" encoding="UTF-8" standalone="no"?>
<!-- Uploaded to: SVG Repo, www.svgrepo.com, Generator: SVG Repo Mixer Tools -->

<svg
   fill="#000000"
   height="800px"
   width="800px"
   version="1.1"
   id="Capa_1"
   viewBox="0 0 489.737 489.737"
   xml:space="preserve"
   xmlns="http://www.w3.org/2000/svg"
   xmlns:svg="http://www.w3.org/2000/svg"><defs
   id="defs3">
	

		
		
	</defs>
<g
   id="g1"
   style="fill:#ff9955">
			<path
   d="m 266.375,0 c -28.4,0 -55.7,6.2 -79.9,18 -63.9,29.9 -108.2,94.4 -108.2,169.1 v 24.7 6.2 l -38.1,73.2 c -9.8,18.6 -0.5,33.5 20.1,33.5 h 18 v 0.5 31.4 37.1 c 0,21.6 17.5,39.2 39.2,39.2 l 54.1,-8.2 v 54.1 0.5 c 0,6.7 6.2,11.3 13.4,10.3 l 194.3,-34.5 c 7.2,-1.5 13.4,-8.2 13.4,-16 v -8.8 -6.7 -99 c 37.1,-34 60.8,-83 60.8,-137.6 -0.5,-103 -84,-187 -187.1,-187 z m 92.8,278.7 c -43.1,43.1 -108.8,49.7 -158.9,20.4 l -0.4,-0.4 c -19.5,15.1 -40.8,17.3 -55.9,15.1 -4.9,-0.9 -5.8,-7.5 -1.3,-9.8 13.3,-6.7 22.2,-20 27.1,-30.6 l -0.9,-0.9 c -45.7,-51.5 -43.9,-130.1 5.3,-179.3 51.1,-51.5 134.1,-51.5 185.1,0 51,51 51,134 -0.1,185.5 z"
   id="path1"
   style="fill:#ff9955" />
		</g>
<path
   fill="#494c4e"
   d="M 268.48925,77.290312 A 106.37909,107.90815 0 1 0 374.86834,185.19846 106.37909,107.90815 0 0 0 268.48925,77.290312 Z M 185.74995,185.19846 A 82.644734,83.832646 0 0 1 318.01463,118.05561 L 202.29781,235.4357 a 82.089198,83.269125 0 0 1 -16.54786,-50.23724 z m 82.7393,83.92856 A 82.077377,83.257134 0 0 1 218.96387,252.34131 L 334.68068,134.96122 a 82.644734,83.832646 0 0 1 -66.19143,134.1658 z"
   id="path1-6"
   style="stroke-width:11.9045;fill:#ff0000" /></svg>
