<?xml version="1.0" encoding="UTF-8" standalone="no"?>
<!-- Uploaded to: SVG Repo, www.svgrepo.com, Generator: SVG Repo Mixer Tools -->

<svg
   version="1.1"
   id="Layer_1"
   viewBox="0 0 512.001 512.001"
   xml:space="preserve"
   xmlns="http://www.w3.org/2000/svg"
   xmlns:svg="http://www.w3.org/2000/svg"><defs
   id="defs14" />

















<g
   id="g14"
   transform="matrix(0.73271708,-0.02700501,0.03135321,0.63110075,80.839595,169.07067)"><polygon
     style="fill:#1d66db"
     points="208.481,190.256 240.327,144.007 420.621,144.007 452.465,190.256 "
     id="polygon1" /><rect
     x="55.428001"
     y="154.25"
     style="fill:#ff1a1a"
     width="50.141998"
     height="35.999001"
     id="rect1" /><path
     style="fill:#0084ff"
     d="M 126.559,190.254 H 41.85 c -17.307,0 -31.339,13.989 -31.339,31.243 v 248.814 c 0,17.255 14.031,31.243 31.339,31.243 h 428.298 c 17.307,0 31.339,-13.989 31.339,-31.243 V 221.497 c 0,-17.255 -14.031,-31.243 -31.339,-31.243 H 385.44 Z"
     id="path1" /><circle
     style="fill:#ffffff"
     cx="330.478"
     cy="345.90799"
     r="114.69"
     id="circle1" /><circle
     style="fill:#1d66db"
     cx="330.478"
     cy="345.90799"
     r="77.179001"
     id="circle2" /><path
     d="m 330.473,220.763 c -69.003,0 -125.14,56.138 -125.14,125.141 0,69.002 56.137,125.139 125.14,125.139 69.003,0 125.14,-56.137 125.14,-125.139 10e-4,-69.003 -56.137,-125.141 -125.14,-125.141 z m 0,229.388 c -57.482,0 -104.248,-46.765 -104.248,-104.247 0,-57.483 46.766,-104.249 104.248,-104.249 57.482,0 104.248,46.766 104.248,104.249 0,57.482 -46.766,104.247 -104.248,104.247 z"
     id="path2" /><path
     d="m 330.473,258.277 c -48.316,0 -87.626,39.309 -87.626,87.627 0,48.316 39.308,87.625 87.626,87.625 48.318,0 87.626,-39.308 87.626,-87.625 0,-48.317 -39.31,-87.627 -87.626,-87.627 z m 0,154.359 c -36.797,0 -66.733,-29.936 -66.733,-66.732 0,-36.797 29.936,-66.734 66.733,-66.734 36.797,0 66.733,29.937 66.733,66.734 0,36.796 -29.936,66.732 -66.733,66.732 z"
     id="path3" /><path
     d="m 330.473,313.992 c 7.158,0 13.92,2.314 19.557,6.692 1.905,1.48 4.161,2.196 6.4,2.196 3.116,0 6.199,-1.388 8.258,-4.04 3.539,-4.557 2.714,-11.119 -1.843,-14.658 -9.336,-7.251 -20.529,-11.083 -32.371,-11.083 -5.77,0 -10.446,4.677 -10.446,10.446 -0.001,5.77 4.676,10.447 10.445,10.447 z"
     id="path4" /><path
     d="m 362.386,345.904 c 0,17.597 -14.316,31.912 -31.912,31.912 -17.597,0 -31.912,-14.316 -31.912,-31.912 0,-5.77 -4.677,-10.446 -10.446,-10.446 -5.769,0 -10.446,4.677 -10.446,10.446 0,29.117 23.688,52.805 52.805,52.805 29.117,0 52.805,-23.688 52.805,-52.805 0,-5.77 -4.677,-10.446 -10.446,-10.446 -5.772,0 -10.448,4.676 -10.448,10.446 z"
     id="path5" /><path
     d="m 65.877,271.129 c 9.216,0 16.714,-7.498 16.714,-16.714 0,-9.216 -7.498,-16.714 -16.714,-16.714 -9.216,0 -16.714,7.498 -16.714,16.714 0,9.216 7.498,16.714 16.714,16.714 z"
     id="path6" /><path
     d="m 470.148,179.808 h -12.195 l -28.729,-41.725 c -1.949,-2.831 -5.167,-4.522 -8.604,-4.522 H 240.327 c -3.438,0 -6.654,1.691 -8.604,4.522 l -28.73,41.726 H 116.02 v -25.553 c 0,-5.769 -4.677,-10.446 -10.446,-10.446 H 55.432 c -5.769,0 -10.446,4.677 -10.446,10.446 v 25.553 h -3.134 c -23.04,0 -41.785,18.702 -41.785,41.689 v 248.814 c 0,22.987 18.745,41.689 41.785,41.689 H 470.15 c 23.04,0 41.785,-18.702 41.785,-41.689 V 221.497 C 511.934,198.51 493.189,179.808 470.148,179.808 Z M 245.817,154.454 H 415.13 l 17.458,25.354 H 228.359 Z m -179.94,10.247 h 29.25 v 15.106 h -29.25 c 0,0.001 0,-15.106 0,-15.106 z m 425.164,305.61 c 0,11.468 -9.372,20.796 -20.893,20.796 H 41.85 c -11.52,0 -20.893,-9.33 -20.893,-20.796 V 221.497 c 0,-11.468 9.372,-20.796 20.893,-20.796 h 410.573 c 0.018,0 0.034,0.003 0.051,0.003 0.027,0 17.674,-0.003 17.674,-0.003 11.52,0 20.893,9.33 20.893,20.796 z"
     id="path7" /><path
     d="m 181.037,342.443 h -4.677 c -5.769,0 -10.446,4.677 -10.446,10.446 0,5.77 4.677,10.446 10.446,10.446 h 4.677 c 5.769,0 10.446,-4.677 10.446,-10.446 0,-5.77 -4.677,-10.446 -10.446,-10.446 z"
     id="path8" /><path
     d="M 142.565,342.443 H 55.431 c -5.769,0 -10.446,4.677 -10.446,10.446 0,5.77 4.677,10.446 10.446,10.446 h 87.135 c 5.769,0 10.446,-4.677 10.446,-10.446 0,-5.77 -4.677,-10.446 -10.447,-10.446 z"
     id="path9" /><path
     d="m 181.037,384.315 h -4.677 c -5.769,0 -10.446,4.677 -10.446,10.446 0,5.769 4.677,10.446 10.446,10.446 h 4.677 c 5.769,0 10.446,-4.677 10.446,-10.446 0,-5.77 -4.677,-10.446 -10.446,-10.446 z"
     id="path10" /><path
     d="M 142.565,384.315 H 55.431 c -5.769,0 -10.446,4.677 -10.446,10.446 0,5.769 4.677,10.446 10.446,10.446 h 87.135 c 5.769,0 10.446,-4.677 10.446,-10.446 0,-5.77 -4.677,-10.446 -10.447,-10.446 z"
     id="path11" /><path
     d="m 181.037,426.186 h -4.677 c -5.769,0 -10.446,4.677 -10.446,10.446 0,5.769 4.677,10.446 10.446,10.446 h 4.677 c 5.769,0 10.446,-4.677 10.446,-10.446 0,-5.768 -4.677,-10.446 -10.446,-10.446 z"
     id="path12" /><path
     d="M 142.565,426.186 H 55.431 c -5.769,0 -10.446,4.677 -10.446,10.446 0,5.769 4.677,10.446 10.446,10.446 h 87.135 c 5.769,0 10.446,-4.677 10.446,-10.446 0,-5.768 -4.677,-10.446 -10.447,-10.446 z"
     id="path13" /><path
     d="m 164.674,151.861 19.989,16.966 c 4.399,3.734 10.991,3.193 14.724,-1.204 3.734,-4.399 3.194,-10.991 -1.204,-14.724 l -6.372,-5.408 50.55,-18.72 c 4.712,-1.745 7.515,-6.598 6.67,-11.553 L 239.97,64.08 290.725,82.233 c 4.73,1.69 9.998,-0.224 12.536,-4.563 l 27.213,-46.531 27.213,46.531 c 2.537,4.337 7.804,6.254 12.536,4.563 l 50.756,-18.153 -9.062,53.138 c -0.845,4.954 1.958,9.807 6.67,11.553 l 50.55,18.72 -6.372,5.408 c -4.398,3.734 -4.938,10.325 -1.204,14.724 2.066,2.434 5.008,3.687 7.969,3.687 2.389,0 4.791,-0.815 6.755,-2.482 l 19.989,-16.966 c 2.829,-2.402 4.172,-6.124 3.528,-9.779 -0.645,-3.655 -3.18,-6.693 -6.659,-7.982 l -59.172,-21.913 10.608,-62.202 c 0.625,-3.658 -0.74,-7.373 -3.583,-9.759 -2.843,-2.387 -6.739,-3.083 -10.232,-1.833 L 371.349,59.643 339.49,5.173 C 337.617,1.969 334.185,0 330.473,0 c -3.712,0 -7.144,1.969 -9.017,5.173 l -31.855,54.47 -59.413,-21.249 c -3.496,-1.249 -7.391,-0.552 -10.232,1.833 -2.843,2.386 -4.207,6.1 -3.583,9.759 l 10.607,62.202 -59.173,21.913 c -3.48,1.288 -6.015,4.327 -6.661,7.982 -0.644,3.654 0.698,7.376 3.528,9.778 z"
     id="path14" /></g>
<g
   id="g11"
   transform="matrix(0.72775641,0,0,0.77951258,-112.83514,37.017673)"><rect
     x="429.43301"
     y="10.448"
     style="fill:#ff1a1a"
     width="72.088997"
     height="183.79601"
     id="rect4" /><path
     style="fill:#fcddc9"
     d="M 429.432,20.961 H 282.116 c -10.16,0 -18.395,8.236 -18.395,18.396 0,10.16 8.236,18.396 18.395,18.396 -10.16,0 -18.395,8.236 -18.395,18.397 0,10.16 8.236,18.395 18.395,18.395 -10.16,0 -18.395,8.237 -18.395,18.397 0,10.16 8.236,18.396 18.395,18.396 h -71.019 c -11.071,0 -20.047,8.975 -20.047,20.047 0,11.071 8.976,20.047 20.047,20.047 h 141.962 c -15.121,17.613 -24.271,40.493 -24.271,65.473 0,11.541 9.355,20.895 20.895,20.895 11.541,0 20.895,-9.355 20.895,-20.895 0,-32.453 26.402,-58.854 58.854,-58.854 z"
     id="path5-6" /><path
     d="m 501.521,0 h -72.089 c -5.769,0 -10.448,4.677 -10.448,10.448 v 0.066 H 282.116 c -15.905,0 -28.843,12.94 -28.843,28.844 0,6.986 2.496,13.4 6.644,18.396 -4.149,4.997 -6.644,11.411 -6.644,18.397 0,6.986 2.496,13.399 6.644,18.396 -4.149,4.997 -6.644,11.41 -6.644,18.397 0,2.756 0.389,5.422 1.114,7.949 h -43.289 c -16.815,0 -30.495,13.679 -30.495,30.495 0,16.815 13.68,30.495 30.495,30.495 h 121.867 c -9.521,16.666 -14.625,35.626 -14.625,55.025 0,17.283 14.061,31.343 31.343,31.343 17.283,0 31.343,-14.061 31.343,-31.343 0,-23.104 16.274,-42.468 37.959,-47.258 v 4.59 c 0,5.77 4.678,10.448 10.448,10.448 h 72.089 c 5.769,0 10.448,-4.677 10.448,-10.448 V 10.448 C 511.969,4.677 507.291,0 501.521,0 Z M 360.13,236.908 c 0,5.761 -4.687,10.448 -10.448,10.448 -5.761,0 -10.448,-4.687 -10.448,-10.448 0,-21.494 7.724,-42.329 21.751,-58.667 2.658,-3.097 3.27,-7.459 1.566,-11.168 -1.704,-3.709 -5.413,-6.086 -9.494,-6.086 h -141.96 c -5.293,0 -9.599,-4.307 -9.599,-9.599 0,-5.293 4.305,-9.599 9.599,-9.599 h 71.019 c 5.769,0 10.448,-4.677 10.448,-10.448 0,-5.77 -4.678,-10.448 -10.448,-10.448 -4.382,0 -7.948,-3.566 -7.948,-7.949 0,-4.384 3.566,-7.95 7.948,-7.95 5.769,0 10.448,-4.677 10.448,-10.448 0,-5.771 -4.678,-10.446 -10.447,-10.446 -4.382,0 -7.948,-3.566 -7.948,-7.948 0,-4.384 3.566,-7.95 7.948,-7.95 5.769,0 10.448,-4.677 10.448,-10.448 0,-5.771 -4.678,-10.448 -10.448,-10.448 -4.382,0 -7.948,-3.566 -7.948,-7.949 0,-4.383 3.566,-7.949 7.948,-7.949 h 136.868 v 136.986 c -33.274,5.054 -58.855,33.852 -58.855,68.514 z M 491.073,183.792 H 439.879 V 20.895 h 51.194 z"
     id="path8-5" /><path
     d="m 468.786,173.432 c 7.681,0 13.93,-6.249 13.93,-13.93 0,-7.681 -6.25,-13.93 -13.93,-13.93 -7.681,0 -13.93,6.249 -13.93,13.93 0,7.681 6.25,13.93 13.93,13.93 z"
     id="path9-6" /><path
     d="m 318.929,44.987 h -4.677 c -5.769,0 -10.448,4.677 -10.448,10.448 0,5.771 4.678,10.448 10.448,10.448 h 4.677 c 5.77,0 10.448,-4.677 10.448,-10.448 0,-5.771 -4.679,-10.448 -10.448,-10.448 z"
     id="path10-3" /><path
     d="M 396.248,44.987 H 352.73 c -5.77,0 -10.448,4.677 -10.448,10.448 0,5.771 4.677,10.448 10.448,10.448 h 43.518 c 5.769,0 10.448,-4.677 10.448,-10.448 0,-5.771 -4.679,-10.448 -10.448,-10.448 z"
     id="path11-9" /></g></svg>
