<?xml version="1.0" encoding="iso-8859-1"?>
<!-- Uploaded to: SVG Repo, www.svgrepo.com, Generator: SVG Repo Mixer Tools -->
<svg height="800px" width="800px" version="1.1" id="Layer_1" xmlns="http://www.w3.org/2000/svg" xmlns:xlink="http://www.w3.org/1999/xlink" 
	 viewBox="0 0 508.4 508.4" xml:space="preserve">
<path style="fill:#FFCC80;" d="M358,332.8c-4,0-8,0.4-11.6,1.6c-1.2,0.4-2-0.4-2.4-1.2v-0.4c0,0,0,0,0-0.4l0,0
	C338.8,234.4,320.8,6,255.6,6c-64.8,0-84,227.6-88,326l-2,0.4l0,0v0.4c-0.4,1.2-1.2,1.6-2.4,1.2c-3.6-1.2-7.6-1.6-11.2-1.6
	c-36.8,0-72.8,52.4-72.8,91.6c0,38,30.8,69.2,69.2,69.2c38,0,58.4,0.8,92.8,8c9.6,1.6,20,1.2,29.6-0.4l9.2-2c0.4,0,0.8,0,1.2,0
	c28-5.2,47.6-5.6,81.2-5.6c38,0,69.2-30.8,69.2-69.2C430.8,385.2,394.8,332.8,358,332.8z"/>
<g>
	<path style="fill:#FFCDD2;" d="M168.4,436.8l-5.2-46.4c0,8.4,0,13.6,0,16C162.8,416.8,164.8,426.8,168.4,436.8z"/>
	<path style="fill:#FFCDD2;" d="M168.4,436.8l0.8,7.2c-5.2-11.6-8-24.4-8-37.6c0-6,0-16.8,0.4-30.4l1.6,14.4c0-4,0-8.8,0.4-14.4
		c0-1.2-0.8-2-2-2s-2,0.8-2,2c-0.4,16.8-0.4,27.2-0.4,30.4c0,13.6,2.8,26.4,8.4,38.8c0.4,0.8,1.2,1.2,2,1.2c0.4,0,0.4,0,0.8,0
		c0.8-0.4,1.6-1.6,0.8-2.8C170,440.8,169.2,438.8,168.4,436.8z"/>
	<path style="fill:#FFCDD2;" d="M160.8,406c0,13.6,2.8,26.4,8,37.6l-0.8-7.2c-3.6-9.6-5.2-20-5.2-30.4c0-2.4,0-7.6,0-16l-1.6-14.4
		C161.2,389.2,160.8,400,160.8,406z"/>
	<path style="fill:#FFCDD2;" d="M347.6,390l-5.2,46.4c3.6-9.6,5.2-20,5.2-30.4C347.6,403.6,347.6,398.4,347.6,390z"/>
	<path style="fill:#FFCDD2;" d="M340.8,445.6c0.4,0,0.4,0,0.8,0c0.8,0,1.6-0.4,2-1.2c5.6-12,8.4-25.2,8.4-38.8
		c0-3.6,0-13.6-0.4-30.4c0-1.2-1.2-2-2-2c-1.2,0-2,0.8-2,2c0,5.6,0.4,10.4,0.4,14.4l1.6-14.4c0.4,13.6,0.4,24.4,0.4,30.4
		c0,13.6-2.8,26.4-8,37.6l0.8-7.2c-0.8,2-1.6,4.4-2.8,6.4C339.2,444,339.6,445.2,340.8,445.6z"/>
	<path style="fill:#FFCDD2;" d="M349.6,406c0-6,0-16.8-0.4-30.4l-1.6,14.4c0,8.4,0,13.6,0,16c0,10.4-2,20.8-5.6,30.4l-0.8,7.2
		C346.8,432.4,349.6,419.6,349.6,406z"/>
	<polygon style="fill:#FFCDD2;" points="285.2,306.8 165.6,332.4 165.6,332.4 	"/>
	<path style="fill:#FFCDD2;" d="M165.6,332.4C165.6,332.8,165.6,332.8,165.6,332.4C165.6,332.8,165.6,332.8,165.6,332.4L165.6,332.4
		z"/>
	<path style="fill:#FFCDD2;" d="M165.6,332.4L165.6,332.4L165.6,332.4z"/>
</g>
<path d="M169.2,448c-1.6,0-2.8-0.8-3.6-2.4c-5.6-12.4-8.4-25.6-8.4-39.6c0-3.6,0-13.6,0.4-30.8c0-2.4,2-4,4-4c2.4,0,4,2,4,4
	c-0.4,16.8-0.4,26.8-0.4,30.4c0,12.4,2.8,24.8,8,36c0.8,2,0,4.4-2,5.2C170.4,448,169.6,448,169.2,448z"/>
<path d="M341.6,448c-0.4,0-1.2,0-1.6-0.4c-2-0.8-2.8-3.2-2-5.2c5.2-11.2,8-23.6,8-36c0-3.6,0-13.6-0.4-30.4c0-2.4,1.6-4,4-4l0,0
	c2,0,4,1.6,4,4c0.4,16.8,0.4,26.8,0.4,30.8c0,13.6-2.8,27.2-8.4,39.6C344.4,447.2,343.2,448,341.6,448z"/>
<path d="M345.6,332.4c-2,0-4-1.6-4-3.6C331.2,128.4,298.4,8.4,254.4,8.4S178,128,167.2,328.4c0,2.4-2,4-4.4,3.6c-2.4,0-4-2-3.6-4.4
	C165.6,205.2,186.4,0,254.4,0c67.6,0,88.8,205.6,95.2,328C349.6,330.4,348,332.4,345.6,332.4L345.6,332.4z"/>
<path d="M254.4,508.4c-4.8,0-10-0.4-14.8-1.2c0,0,0,0-0.4,0l0,0c-2-0.4-4-0.8-6-1.2c-0.4,0-0.4,0-0.8-0.4c-30-6-49.6-6.4-85.2-6.4
	C106,499.2,72,465.6,72,424c0-42.4,38-97.6,78.8-97.6c4.4,0,8.8,0.8,12.8,2c2,0.8,3.2,2.8,2.8,4.8c-0.8,2-2.8,3.2-4.8,2.8
	c-3.6-1.2-7.2-1.6-10.8-1.6c-35.6,0-70.8,51.2-70.8,89.6c0,36.8,30,67.2,67.2,67.2c38.4,0,58.8,0.8,93.2,8
	c9.6,1.6,19.2,1.2,28.8-0.4l8.8-2c0.4,0,1.2,0,1.6,0c27.6-5.2,47.6-5.6,81.2-5.6c36.8,0,67.2-30,67.2-67.2
	c0-38.4-34.8-89.6-70.8-89.6c-3.6,0-7.6,0.4-11.2,1.6c-2,0.8-4.4-0.4-4.8-2.8s0.4-4.4,2.8-4.8c4.4-1.2,8.8-2,13.6-2
	c40.4,0,78.8,54.8,78.8,97.6c0,41.2-33.6,75.2-75.2,75.2c-35.6,0-55.2,0.8-85.6,6.8c-1.2,0.4-2.4,0.4-4,0.8c-0.8,0-1.2,0.4-2,0.4
	c-0.4,0-0.8,0-1.2,0C264.4,508,259.6,508.4,254.4,508.4z"/>
<path d="M219.6,486.4c-6.4,0-14.8-4-24.4-8.4c-18-8.4-40.4-18.8-52.8-6c-1.6,1.6-4,1.6-5.6,0s-1.6-4,0-5.6
	c16.4-16.4,42.8-4.4,62,4.4c8.4,4,16.8,7.6,21.2,7.6c2.4,0,4,1.6,4,4S221.6,486.4,219.6,486.4z"/>
<path d="M290.8,486.4c-2.4,0-4-1.6-4-4s1.6-4,4-4c4.4,0,12.4-3.6,21.2-7.6c19.2-8.8,45.6-21.2,62-4.4c1.6,1.6,1.6,4,0,5.6
	s-4,1.6-5.6,0c-12.4-12.4-34.8-2-52.8,6C305.2,482.4,296.8,486.4,290.8,486.4z"/>
</svg>