<?xml version="1.0" encoding="UTF-8" standalone="no"?>
<!-- Uploaded to: SVG Repo, www.svgrepo.com, Generator: SVG Repo Mixer Tools -->

<svg
   width="800px"
   height="800px"
   viewBox="0 0 24 24"
   version="1.1"
   id="svg12"
   xmlns="http://www.w3.org/2000/svg"
   xmlns:svg="http://www.w3.org/2000/svg">
  <defs
     id="defs12" />
  <g
     id="g12"
     transform="matrix(1,0,0,-1,0,25)">
    <path
       d="M 23,13 A 11,11 0 1 1 1,13 11,11 0 1 1 23,13 Z"
       fill="#95a5a6"
       id="path1" />
    <path
       d="M 23,12 A 11,11 0 1 1 1,12 11,11 0 1 1 23,12 Z"
       fill="#bdc3c7"
       id="path2" />
    <path
       d="m 20.99953,12 a 8.9998,9 0 1 1 -17.9996,0 8.9998,9 0 1 1 17.9996,0 z"
       fill="#3498db"
       id="path3"
       style="stroke-width:1.02898" />
    <path
       d="m 16,5 -6,7 -2,9 6,-7 z"
       fill="#2980b9"
       id="path4" />
    <path
       d="M 12,3 C 7.0294,3 3,7 3,12 3,12.1 3.0218,12.3 3.0312,12.5 3.2963,7.7 7.201,4 12,4 16.799,4 20.704,7.7 20.969,12.5 20.978,12.3 21,12.1 21,12 21,7 16.971,3 12,3 Z"
       fill="#2980b9"
       id="path5" />
    <path
       d="M 14,13 10,11 16,4 Z"
       fill="#e74c3c"
       id="path6"
       style="fill:#ff6600" />
    <path
       d="m 10,11 4,2 -6,7 z"
       fill="#ecf0f1"
       id="path7" />
    <path
       d="M 12,1 C 5.9249,1 1,5.9 1,12 1,18 5.9249,23 12,23 18.075,23 23,18 23,12 23,5.9 18.075,1 12,1 Z m 0,2 c 4.971,0 9,4 9,9 0,4.9 -4.029,9 -9,9 C 7.0294,21 3,16.9 3,12 3,7 7.0294,3 12,3 Z"
       fill="#bdc3c7"
       id="path8" />
    <path
       d="m 16,4 -4,8 2,1 z"
       fill="#c0392b"
       id="path9"
       style="fill:#ff2a2a" />
    <path
       d="m 12,11 c -0.552,0 -1,0.4 -1,1 h 2 c 0,-0.6 -0.448,-1 -1,-1 z"
       fill="#bdc3c7"
       id="path10" />
    <path
       d="m 12,12 -4,8 6,-7 z"
       fill="#bdc3c7"
       id="path11" />
    <path
       d="m 12,13 c 0.552,0 1,-0.5 1,-1 h -2 c 0,0.5 0.448,1 1,1 z"
       fill="#7f8c8d"
       id="path12" />
  </g>
</svg>
