<?xml version="1.0" encoding="UTF-8" standalone="no"?>
<!-- Uploaded to: SVG Repo, www.svgrepo.com, Generator: SVG Repo Mixer Tools -->

<svg
   height="800px"
   width="800px"
   version="1.1"
   id="Layer_1"
   viewBox="0 0 512 512"
   xml:space="preserve"
   sodipodi:docname="image.svg"
   inkscape:version="1.4.4 (dcaf3e7d9e, 2026-05-05)"
   xmlns:inkscape="http://www.inkscape.org/namespaces/inkscape"
   xmlns:sodipodi="http://sodipodi.sourceforge.net/DTD/sodipodi-0.dtd"
   xmlns="http://www.w3.org/2000/svg"
   xmlns:svg="http://www.w3.org/2000/svg"><defs
   id="defs4" /><sodipodi:namedview
   id="namedview4"
   pagecolor="#ffffff"
   bordercolor="#000000"
   borderopacity="0.25"
   inkscape:showpageshadow="2"
   inkscape:pageopacity="0.0"
   inkscape:pagecheckerboard="0"
   inkscape:deskcolor="#d1d1d1"
   inkscape:zoom="0.98125"
   inkscape:cx="399.49045"
   inkscape:cy="400"
   inkscape:window-width="1920"
   inkscape:window-height="971"
   inkscape:window-x="0"
   inkscape:window-y="0"
   inkscape:window-maximized="1"
   inkscape:current-layer="Layer_1" />
<path
   style="fill:#507C5C;"
   d="M287.112,512h-62.224c-8.341,0-15.103-6.762-15.103-15.103v-28.925  c-23.181-5.244-45.499-14.494-65.639-27.205l-20.464,20.464c-2.832,2.832-6.674,4.424-10.679,4.424s-7.847-1.592-10.679-4.424  l-43.999-43.999c-5.898-5.898-5.898-15.461,0-21.359l20.464-20.463c-12.711-20.138-21.96-42.456-27.203-65.639H22.659  c-8.341,0-15.103-6.762-15.103-15.103v-62.224c0-8.341,6.762-15.103,15.103-15.103h41.379c8.341,0,15.103,6.762,15.103,15.103  c0,8.341-6.762,15.103-15.103,15.103H37.762v32.018h26.276c7.416,0,13.735,5.383,14.911,12.705  c4.395,27.327,15.31,53.667,31.567,76.171c4.341,6.009,3.679,14.281-1.563,19.523l-18.59,18.59l22.641,22.641l18.59-18.59  c5.242-5.242,13.513-5.905,19.523-1.563c22.506,16.257,48.846,27.172,76.171,31.567c7.322,1.178,12.705,7.496,12.705,14.911v26.276  h32.018v-26.279c0-7.416,5.383-13.733,12.705-14.911c27.324-4.395,53.665-15.31,76.171-31.567  c6.009-4.341,14.281-3.679,19.522,1.563l18.59,18.59l22.641-22.641l-18.59-18.59c-5.898-5.898-5.898-15.461,0-21.36  c5.898-5.896,15.461-5.896,21.36,0l29.269,29.269c5.898,5.898,5.898,15.461,0,21.359l-43.999,43.999  c-2.832,2.832-6.674,4.424-10.679,4.424c-4.005,0-7.847-1.592-10.679-4.424l-20.464-20.464  c-20.14,12.711-42.457,21.961-65.639,27.205v28.925C302.215,505.238,295.453,512,287.112,512z"
   id="path1" />
<circle
   style="fill:#CFF09E;"
   cx="255.994"
   cy="263.561"
   r="128.979"
   id="circle1" />
<g
   id="g4">
	<path
   style="fill:#507C5C;"
   d="M256,407.636c-79.446,0-144.08-64.634-144.08-144.08s64.634-144.08,144.08-144.08   s144.08,64.634,144.08,144.08S335.446,407.636,256,407.636z M256,149.682c-62.79,0-113.874,51.084-113.874,113.874   S193.21,377.43,256,377.43s113.874-51.084,113.874-113.874S318.79,149.682,256,149.682z"
   id="path2" />
	<path
   style="fill:#507C5C;"
   d="M489.341,217.341h-28.925c-5.244-23.183-14.494-45.499-27.203-65.639l20.463-20.463   c2.832-2.832,4.424-6.674,4.424-10.679s-1.592-7.847-4.424-10.679l-43.999-43.999c-2.832-2.832-6.674-4.424-10.679-4.424   c-4.005,0-7.847,1.592-10.679,4.424l-20.464,20.464c-20.14-12.711-42.457-21.961-65.639-27.205V30.206h23.017   c8.341,0,15.103-6.762,15.103-15.103S333.573,0,325.232,0h-38.12h-62.224h-38.12c-8.341,0-15.103,6.762-15.103,15.103   s6.762,15.103,15.103,15.103h23.017V59.14c-23.181,5.244-45.499,14.494-65.639,27.205L123.682,65.88   c-2.832-2.832-6.674-4.424-10.679-4.424s-7.847,1.592-10.679,4.424L58.324,109.88c-2.832,2.832-4.424,6.674-4.424,10.679   s1.592,7.847,4.424,10.679l29.269,29.268c5.898,5.898,15.461,5.898,21.358,0c5.898-5.898,5.898-15.461,0-21.359l-18.59-18.589   l22.641-22.641l18.59,18.59c5.242,5.242,13.514,5.904,19.522,1.563c22.506-16.257,48.846-27.172,76.171-31.567   c7.322-1.177,12.705-7.496,12.705-14.911V30.206h32.018v41.388c0,7.416,5.383,13.735,12.705,14.911   c27.324,4.395,53.665,15.31,76.171,31.567c6.009,4.339,14.28,3.678,19.523-1.563l18.59-18.59l22.641,22.641l-18.59,18.589   c-5.242,5.242-5.905,13.514-1.565,19.524c16.257,22.506,27.172,48.846,31.567,76.171c1.178,7.322,7.496,12.705,14.911,12.705   h26.276v32.018h-26.276c-8.341,0-15.103,6.762-15.103,15.103c0,8.341,6.762,15.103,15.103,15.103h41.379   c8.341,0,15.103-6.762,15.103-15.103v-62.224C504.444,224.103,497.682,217.341,489.341,217.341z"
   id="path3" />
	<path
   style="fill:#507C5C;"
   d="M304.832,278.659h-48.329c-8.341,0-15.103-6.762-15.103-15.103v-52.86   c0-8.341,6.762-15.103,15.103-15.103c8.341,0,15.103,6.762,15.103,15.103v37.757h33.226c8.341,0,15.103,6.762,15.103,15.103   C319.935,271.897,313.173,278.659,304.832,278.659z"
   id="path4" />
</g>
<path
   d="m 250.37341,116.48449 c -84.04045,2.43789 -149.82415,69.33378 -147.27694,149.76693 2.54723,80.43315 72.4433,143.39319 156.48375,140.95531 84.04045,-2.43789 149.82415,-69.33378 147.27694,-149.76693 -2.54722,-80.43315 -72.4433,-143.39319 -156.48375,-140.95531 m 115.98232,142.13019 c 0.70586,22.28871 -5.72207,43.3294 -17.82636,61.13989 L 188.91595,175.98015 c 17.84203,-12.64212 39.39671,-20.05714 62.68503,-20.73269 61.76468,-1.7917 112.89805,44.73824 114.75475,103.36722 m -222.75783,6.46186 c -0.70586,-22.28871 5.72208,-43.32941 17.82636,-61.13989 l 159.61342,143.77441 c -17.84202,12.64213 -39.39671,20.05714 -62.68503,20.7327 -61.25841,1.77701 -112.89804,-44.73824 -114.75475,-103.36722"
   fill="#ff5a79"
   id="path1-3"
   style="stroke-width:4.95511;fill:#ff0000" /></svg>
