<?xml version="1.0" encoding="UTF-8" standalone="no"?>
<!-- Uploaded to: SVG Repo, www.svgrepo.com, Generator: SVG Repo Mixer Tools -->

<svg
   fill="#000000"
   height="800px"
   width="800px"
   version="1.1"
   id="Capa_1"
   viewBox="0 0 302.033 302.033"
   xml:space="preserve"
   sodipodi:docname="kilo-svgrepo-com.svg"
   inkscape:version="1.3.1 (9b9bdc1480, 2023-11-25, custom)"
   xmlns:inkscape="http://www.inkscape.org/namespaces/inkscape"
   xmlns:sodipodi="http://sodipodi.sourceforge.net/DTD/sodipodi-0.dtd"
   xmlns:xlink="http://www.w3.org/1999/xlink"
   xmlns="http://www.w3.org/2000/svg"
   xmlns:svg="http://www.w3.org/2000/svg"><defs
   id="defs2"><linearGradient
     id="linearGradient2"
     inkscape:collect="always"><stop
       style="stop-color:#0104f6;stop-opacity:1;"
       offset="0"
       id="stop2" /><stop
       style="stop-color:#ff00ee;stop-opacity:1;"
       offset="1"
       id="stop3" /></linearGradient><linearGradient
     inkscape:collect="always"
     xlink:href="#linearGradient2"
     id="linearGradient3"
     x1="31.43"
     y1="151.0165"
     x2="270.604"
     y2="151.0165"
     gradientUnits="userSpaceOnUse" /></defs><sodipodi:namedview
   id="namedview2"
   pagecolor="#ffffff"
   bordercolor="#000000"
   borderopacity="0.25"
   inkscape:showpageshadow="2"
   inkscape:pageopacity="0.0"
   inkscape:pagecheckerboard="0"
   inkscape:deskcolor="#d1d1d1"
   inkscape:zoom="1.405"
   inkscape:cx="399.64413"
   inkscape:cy="400"
   inkscape:window-width="2560"
   inkscape:window-height="1324"
   inkscape:window-x="0"
   inkscape:window-y="0"
   inkscape:window-maximized="1"
   inkscape:current-layer="Capa_1" />
<g
   id="g2"
   style="fill:url(#linearGradient3)">
	<path
   d="M245.1,100.362h-50.988c-9.772,0-17.858-7.141-19.379-16.485c12.939-7.984,21.584-22.287,21.584-38.576   C196.316,20.322,175.996,0,151.018,0c-24.979,0-45.301,20.322-45.301,45.301c0,16.289,8.645,30.592,21.585,38.576   c-1.52,9.344-9.605,16.485-19.378,16.485H56.935L31.43,302.033h239.174L245.1,100.362z M151.018,24.066   c11.708,0,21.232,9.526,21.232,21.234c0,11.708-9.525,21.233-21.232,21.233c-11.708,0-21.234-9.525-21.234-21.233   C129.783,33.592,139.309,24.066,151.018,24.066z M142.106,225.464l-19.979-29.789l-5.76,6.66v23.129h-7.83v-60.658h7.83v29.249   h0.27c1.62-2.34,3.24-4.5,4.77-6.48l18.54-22.769h9.72l-21.96,25.739l23.669,34.919H142.106z M193.766,193.875v25.289   c0,9.99-1.98,16.109-6.21,19.889c-4.229,3.96-10.35,5.22-15.839,5.22c-5.22,0-10.979-1.26-14.489-3.6l1.98-6.03   c2.88,1.8,7.38,3.42,12.779,3.42c8.1,0,14.04-4.23,14.04-15.21v-4.86h-0.18c-2.43,4.05-7.109,7.29-13.859,7.29   c-10.799,0-18.539-9.179-18.539-21.239c0-14.76,9.629-23.129,19.619-23.129c7.56,0,11.7,3.96,13.589,7.56h0.18l0.36-6.57h6.93   C193.946,185.056,193.766,188.565,193.766,193.875z"
   id="path1"
   style="fill:url(#linearGradient3)" />
	<path
   d="M174.417,187.126c-7.56,0-12.96,6.39-12.96,16.469c0,8.55,4.32,15.659,12.869,15.659c4.86,0,9.27-3.06,10.979-8.1   c0.45-1.35,0.63-2.88,0.63-4.229v-7.83c0-1.35-0.09-2.52-0.45-3.6C184.046,190.905,180.177,187.126,174.417,187.126z"
   id="path2"
   style="fill:url(#linearGradient3)" />
</g>
</svg>
