<?xml version="1.0" encoding="UTF-8" standalone="no"?>
<!-- Uploaded to: SVG Repo, www.svgrepo.com, Generator: SVG Repo Mixer Tools -->

<svg
   fill="#000000"
   width="800px"
   height="800px"
   viewBox="0 0 24 24"
   id="Layer_1"
   data-name="Layer 1"
   version="1.1"
   xmlns="http://www.w3.org/2000/svg"
   xmlns:svg="http://www.w3.org/2000/svg">
  <defs
     id="defs1594" />
  <path
     d="m 1.0120036,11 a 1,1 0 0 1 1,1 10.034,10.034 0 1 0 2.9,-7.021 0.862,0.862 0 0 0 0.1,0.021 h 3 a 1,1 0 0 1 0,2 h -3 a 3,3 0 0 1 -3,-3 V 1 a 1,1 0 0 1 2,0 V 3.065 A 11.994,11.994 0 1 1 0.01200362,12 1,1 0 0 1 1.0120036,11 Z M 12.012004,6 a 1,1 0 0 1 1,1 v 5 a 1,1 0 0 1 -0.293,0.707 l -3.0000004,3 a 1,1 0 0 1 -1.414,-1.414 L 11.012004,11.586 V 7 a 1,1 0 0 1 1,-1 z"
     id="path1589"
     style="fill:#ff6600" />
</svg>
