<?xml version="1.0" encoding="iso-8859-1"?>
<!-- Uploaded to: SVG Repo, www.svgrepo.com, Generator: SVG Repo Mixer Tools -->
<svg height="800px" width="800px" version="1.1" id="Layer_1" xmlns="http://www.w3.org/2000/svg" xmlns:xlink="http://www.w3.org/1999/xlink" 
	 viewBox="0 0 512 512" xml:space="preserve">
<g transform="translate(1 1)">
	<path style="fill:#FFE100;" d="M322.567,74.541c0,36.931-30.216,67.148-67.148,67.148s-67.148-30.216-67.148-67.148
		S218.489,7.393,255.42,7.393S322.567,37.61,322.567,74.541"/>
	<path style="fill:#FFA800;" d="M263.813,7.393c-4.197,0-8.393,0.839-12.59,0.839c31.056,5.875,54.557,33.574,54.557,66.308
		s-23.502,60.433-54.557,66.308c4.197,0.839,8.393,0.839,12.59,0.839c36.931,0,67.148-30.216,67.148-67.148
		S300.744,7.393,263.813,7.393"/>
	<path style="fill:#FFFFFF;" d="M247.026,7.393c4.197,0,8.393,0.839,12.59,0.839c-31.056,5.875-54.557,33.574-54.557,66.308
		s23.502,60.433,54.557,66.308c-4.197,0-8.393,0.839-12.59,0.839c-36.931,0-67.148-30.216-67.148-67.148
		S210.095,7.393,247.026,7.393"/>
	<g>
		<polygon style="fill:#FDCC00;" points="272.207,208.836 238.633,208.836 221.846,175.262 288.993,175.262 		"/>
		<path style="fill:#FDCC00;" d="M255.42,141.689c-12.59,0-23.502-3.357-33.574-9.233v42.807h67.148v-42.807
			C278.921,138.331,268.01,141.689,255.42,141.689"/>
	</g>
	<g>
		<path style="fill:#FFE100;" d="M121.125,309.557c-5.036,0-8.393-3.357-8.393-8.393v-41.967c0-5.036,3.357-8.393,8.393-8.393
			c5.036,0,8.393,3.357,8.393,8.393v41.967C129.518,306.2,126.161,309.557,121.125,309.557z"/>
		<path style="fill:#FFE100;" d="M406.502,309.557c-5.036,0-8.393-3.357-8.393-8.393v-41.967c0-5.036,3.357-8.393,8.393-8.393
			c5.036,0,8.393,3.357,8.393,8.393v41.967C414.895,306.2,411.538,309.557,406.502,309.557z"/>
		<path style="fill:#FFE100;" d="M406.502,267.59H121.125c-5.036,0-8.393-3.357-8.393-8.393s3.357-8.393,8.393-8.393h285.377
			c5.036,0,8.393,3.357,8.393,8.393S411.538,267.59,406.502,267.59z"/>
		<path style="fill:#FFE100;" d="M263.813,267.59c-5.036,0-8.393-3.357-8.393-8.393v-41.967c0-5.036,3.357-8.393,8.393-8.393
			s8.393,3.357,8.393,8.393v41.967C272.207,264.233,268.849,267.59,263.813,267.59z"/>
		<path style="fill:#FFE100;" d="M112.731,443.852c-14.269,0-25.18-10.911-25.18-25.18s10.911-25.18,25.18-25.18
			s25.18,10.911,25.18,25.18S127,443.852,112.731,443.852L112.731,443.852z M186.593,408.6
			c-15.108-2.518-21.823-20.144-12.59-32.734l6.715-8.393l-13.43-13.429l-8.393,5.875c-12.59,8.393-30.216,0.839-31.895-14.269
			l-3.357-10.911h-19.305l-2.518,13.43c-2.518,14.269-19.305,21.823-31.895,13.43l-10.911-7.554l-13.43,13.43l6.715,8.393
			c9.233,12.59,2.518,30.216-12.59,32.734l-10.911,1.679v19.305l10.911,1.679c15.108,2.518,22.662,19.305,14.269,31.895
			l-5.875,8.393l13.43,14.269l8.393-6.715c12.59-9.233,30.216-2.518,32.734,12.59l1.679,10.911h19.305l0.839-7.554
			c2.518-15.108,20.144-22.662,32.734-13.43l5.875,4.197l13.43-13.43l-5.875-8.393c-8.393-12.59-0.839-30.216,14.269-31.895
			l10.911-1.679v-20.144L186.593,408.6z"/>
		<path style="fill:#FFE100;" d="M398.108,443.852c-14.269,0-25.18-10.911-25.18-25.18s10.911-25.18,25.18-25.18
			s25.18,10.911,25.18,25.18S412.377,443.852,398.108,443.852L398.108,443.852z M471.97,408.6
			c-15.108-2.518-21.823-20.144-12.59-32.734l6.715-8.393l-13.43-13.429l-8.393,5.875c-12.59,8.393-30.216,0.839-31.895-14.269
			l-3.357-10.911h-19.305l-2.518,13.43c-2.518,14.269-19.305,21.823-31.895,13.43l-10.911-7.554l-13.43,13.43l6.715,8.393
			c9.233,12.59,2.518,30.216-12.59,32.734l-10.911,1.679v19.305l10.911,1.679c15.108,2.518,22.662,19.305,14.269,31.895
			l-5.875,8.393l13.43,13.43l8.393-6.715c12.59-9.233,30.216-2.518,32.734,12.59l1.679,11.751h19.305l0.839-7.554
			c2.518-15.108,20.144-22.662,32.734-13.43l5.875,4.197l13.43-13.43l-5.875-8.393c-8.393-12.59-0.839-30.216,14.269-31.895
			l10.911-1.679v-20.144L471.97,408.6z"/>
	</g>
	<path d="M255.42,150.082c-41.967,0-75.541-33.574-75.541-75.541S213.452-1,255.42-1s75.541,33.574,75.541,75.541
		S297.387,150.082,255.42,150.082z M255.42,15.787c-32.734,0-58.754,26.02-58.754,58.754s26.02,58.754,58.754,58.754
		s58.754-26.02,58.754-58.754S288.154,15.787,255.42,15.787z"/>
	<path d="M272.207,217.229h-33.574c-3.357,0-5.875-1.679-7.554-5.036l-16.787-33.574c-1.679-2.518-0.839-5.875,0-8.393
		c1.679-2.518,4.197-4.197,7.554-4.197h67.148c2.518,0,5.875,1.679,7.554,4.197c1.679,2.518,1.679,5.875,0,8.393l-16.787,33.574
		C278.082,215.551,275.564,217.229,272.207,217.229z M243.669,200.443h23.502l8.393-16.787h-40.289L243.669,200.443z"/>
	<path d="M255.42,150.082c-5.036,0-8.393-3.357-8.393-8.393V40.967c0-5.036,3.357-8.393,8.393-8.393
		c5.036,0,8.393,3.357,8.393,8.393v100.721C263.813,146.725,260.456,150.082,255.42,150.082z"/>
	<path d="M272.207,74.541h-33.574c-5.036,0-8.393-3.357-8.393-8.393s3.357-8.393,8.393-8.393h33.574
		c5.036,0,8.393,3.357,8.393,8.393S277.243,74.541,272.207,74.541z"/>
	<path d="M272.207,108.115h-33.574c-5.036,0-8.393-3.357-8.393-8.393s3.357-8.393,8.393-8.393h33.574
		c5.036,0,8.393,3.357,8.393,8.393S277.243,108.115,272.207,108.115z"/>
	<path d="M112.731,301.164c-5.036,0-8.393-3.357-8.393-8.393v-41.967c0-5.036,3.357-8.393,8.393-8.393
		c5.036,0,8.393,3.357,8.393,8.393v41.967C121.125,297.807,117.767,301.164,112.731,301.164z"/>
	<path d="M398.108,301.164c-5.036,0-8.393-3.357-8.393-8.393v-41.967c0-5.036,3.357-8.393,8.393-8.393s8.393,3.357,8.393,8.393
		v41.967C406.502,297.807,403.144,301.164,398.108,301.164z"/>
	<path d="M398.108,259.197H112.731c-5.036,0-8.393-3.357-8.393-8.393s3.357-8.393,8.393-8.393h285.377
		c5.036,0,8.393,3.357,8.393,8.393S403.144,259.197,398.108,259.197z"/>
	<path d="M255.42,259.197c-5.036,0-8.393-3.357-8.393-8.393v-41.967c0-5.036,3.357-8.393,8.393-8.393
		c5.036,0,8.393,3.357,8.393,8.393v41.967C263.813,255.839,260.456,259.197,255.42,259.197z"/>
	<path d="M288.993,183.656h-67.148c-5.036,0-8.393-3.357-8.393-8.393v-42.807c0-3.357,1.679-5.875,4.197-7.554
		c2.518-1.679,5.875-1.679,8.393,0c17.626,10.072,41.128,10.072,58.754,0c2.518-1.679,5.875-1.679,8.393,0s4.197,4.197,4.197,7.554
		v42.807C297.387,180.298,294.03,183.656,288.993,183.656z M230.239,166.869H280.6v-20.984c-15.948,5.875-34.413,5.875-50.361,0
		V166.869z"/>
	<path d="M123.643,511h-19.305c-4.197,0-7.554-2.518-8.393-6.715l-1.679-10.072c-1.679-6.715-6.715-10.072-12.59-10.072
		c-2.518,0-5.036,0.839-7.554,2.518l-8.393,6.715c-3.357,2.518-8.393,1.679-10.911-0.839l-13.43-13.43
		c-2.518-2.518-3.357-7.554-0.839-10.911l5.875-8.393c2.518-3.357,2.518-7.554,0.839-11.751c-1.679-4.197-5.036-6.715-9.233-7.554
		l-10.911-1.679c-4.197-0.839-6.715-4.197-6.715-8.393v-20.144c0-4.197,2.518-7.554,6.715-8.393l10.072-1.679
		c4.197-0.839,7.554-3.357,9.233-7.554c1.679-4.197,0.839-8.393-1.679-11.751l-6.715-8.393c-2.518-3.357-1.679-7.554,0.839-10.911
		l13.43-13.43c2.518-2.518,7.554-3.357,10.911-0.839l10.911,7.554c2.518,1.679,4.197,2.518,6.715,2.518
		c5.036,0,10.911-3.357,12.59-10.072l2.518-13.43c0.839-5.036,5.036-7.554,8.393-7.554h19.305c4.197,0,7.554,3.357,8.393,6.715
		l1.679,10.911c0.839,6.715,6.715,10.911,12.59,10.911c2.518,0,5.036-0.839,6.715-2.518l8.393-5.875
		c3.357-2.518,7.554-1.679,10.911,0.839l13.43,13.43c2.518,2.518,3.357,7.554,0.839,10.911l-6.715,8.393
		c-2.518,3.357-3.357,7.554-1.679,11.751c1.679,4.197,5.036,6.715,9.233,7.554l10.072,1.679c4.197,0.839,6.715,4.197,6.715,8.393
		v19.305c0,4.197-3.357,7.554-6.715,8.393l-10.911,1.679c-4.197,0.839-7.554,3.357-9.233,7.554
		c-1.679,4.197-1.679,8.393,0.839,11.751l5.875,8.393c2.518,3.357,1.679,7.554-0.839,10.911l-13.43,13.429
		c-2.518,2.518-7.554,3.357-10.911,0.839l-5.875-4.197c-2.518-1.679-5.036-2.518-7.554-2.518c-5.036,0-10.911,3.357-12.59,10.911
		l-0.839,7.554C132.036,507.643,127.839,511,123.643,511z M111.892,494.213h5.036c2.518-14.269,14.269-25.18,28.538-25.18
		c5.875,0,11.751,1.679,16.787,5.875l0,0l3.357-3.357l-1.679-2.518c-5.875-8.393-6.715-18.466-2.518-27.698
		c4.197-9.233,12.59-15.948,22.662-16.787l3.357-0.839v-5.036l-3.357-0.839c-10.072-1.679-17.626-8.393-21.823-17.626
		c-4.197-9.233-2.518-20.144,3.357-27.698l1.679-2.518l-3.357-3.357l-2.518,1.679c-5.036,3.357-10.911,5.036-15.948,5.036
		c-14.269,0-26.859-10.072-28.538-25.18l0-5.036h-5.036l-0.839,5.875c-2.518,13.43-15.108,23.502-28.538,23.502
		c-5.875,0-11.751-1.679-15.948-5.036l-5.036-3.357l-5.036,4.197l1.679,2.518c5.875,8.393,7.554,18.466,3.357,27.698
		c-4.197,9.233-11.751,15.948-21.823,17.626l-2.518,1.679v5.036l3.357,0.839c10.072,1.679,18.466,7.554,22.662,16.787
		c4.197,9.233,3.357,19.305-2.518,27.698l-1.679,2.518l3.357,4.197l2.518-1.679c5.036-3.357,10.911-5.875,16.787-5.875
		c14.269,0,26.02,10.072,28.538,23.502L111.892,494.213z M112.731,452.246c-18.466,0-33.574-15.108-33.574-33.574
		s15.108-33.574,33.574-33.574s33.574,15.108,33.574,33.574S131.197,452.246,112.731,452.246z M112.731,401.885
		c-9.233,0-16.787,7.554-16.787,16.787c0,9.233,7.554,16.787,16.787,16.787s16.787-7.554,16.787-16.787
		C129.518,409.439,121.964,401.885,112.731,401.885z"/>
	<path d="M409.02,511h-19.305c-4.197,0-7.554-2.518-8.393-6.715l-1.679-10.072c-1.679-6.715-6.715-10.072-12.59-10.072
		c-2.518,0-5.036,0.839-7.554,2.518l-8.393,6.715c-3.357,2.518-8.393,1.679-10.911-0.839l-13.43-13.43
		c-2.518-2.518-3.357-7.554-0.839-10.911l5.875-8.393c2.518-3.357,2.518-7.554,0.839-11.751s-5.036-6.715-9.233-7.554l-10.911-1.679
		c-4.197-0.839-6.715-4.197-6.715-8.393v-20.144c0-4.197,2.518-7.554,6.715-8.393l10.072-1.679c4.197-0.839,7.554-3.357,9.233-7.554
		c1.679-4.197,0.839-8.393-1.679-11.751l-6.715-8.393c-2.518-3.357-1.679-8.393,0.839-10.911l13.429-13.43
		c2.518-2.518,7.554-3.357,10.911-0.839l10.911,7.554c2.518,1.679,4.197,2.518,6.715,2.518c5.036,0,10.911-3.357,12.59-10.072
		l2.518-13.43c0.839-4.197,4.197-6.715,8.393-6.715h19.305c4.197,0,7.554,3.357,8.393,6.715l1.679,10.911
		c0.839,6.715,6.715,10.911,12.59,10.911c2.518,0,5.036-0.839,6.715-2.518l8.393-5.875c3.357-2.518,7.554-1.679,10.911,0.839
		l13.43,13.43c2.518,2.518,3.357,7.554,0.839,10.911l-6.715,8.393c-2.518,3.357-3.357,7.554-1.679,11.751
		c1.679,4.197,5.036,6.715,9.233,7.554l10.072,1.679c4.197,0.839,6.715,4.197,6.715,8.393v19.305c0,4.197-3.357,7.554-6.715,8.393
		l-10.911,1.679c-4.197,0.839-7.554,3.357-9.233,7.554c-1.679,4.197-1.679,8.393,0.839,11.751l5.875,8.393
		c2.518,3.357,1.679,7.554-0.839,10.911l-13.429,13.43c-2.518,2.518-7.554,3.357-10.911,0.839l-5.875-4.197
		c-2.518-1.679-5.036-2.518-7.554-2.518c-5.036,0-10.911,3.357-12.59,10.911l-0.839,7.554C417.413,507.643,413.216,511,409.02,511z
		 M397.269,494.213h5.036c2.518-14.269,14.269-24.341,28.538-24.341c5.875,0,11.751,1.679,16.787,5.875l0,0l3.357-3.357
		l-1.679-2.518c-5.875-8.393-6.715-18.466-2.518-27.698c4.197-9.233,12.59-15.948,22.662-16.787l3.357-0.839v-5.036l-3.357-0.839
		c-10.072-1.679-17.626-8.393-21.823-17.626c-3.357-9.233-2.518-20.144,3.357-27.698l1.679-2.518l-3.357-3.357l-2.518,1.679
		c-5.036,3.357-10.911,5.036-15.948,5.036c-14.269,0-26.859-10.072-28.538-24.341l0-6.715h-5.036l-0.839,5.875
		c-2.518,13.43-15.108,23.502-28.538,23.502c-5.875,0-11.751-1.679-15.948-5.036l-5.036-3.357l-5.036,4.197l1.679,2.518
		c5.875,8.393,7.554,18.466,3.357,27.698c-3.357,9.233-11.751,15.948-21.823,17.626l-2.518,1.679v5.036l3.357,0.839
		c10.072,1.679,18.466,7.554,22.662,16.787c4.197,9.233,3.357,19.305-2.518,27.698l-1.679,2.518l3.357,3.357l2.518-1.679
		c5.036-3.357,10.911-5.875,16.787-5.875c14.269,0,26.02,10.072,28.538,23.502L397.269,494.213z M398.108,452.246
		c-18.466,0-33.574-15.108-33.574-33.574s15.108-33.574,33.574-33.574s33.574,15.108,33.574,33.574S416.574,452.246,398.108,452.246
		z M398.108,401.885c-9.233,0-16.787,7.554-16.787,16.787c0,9.233,7.554,16.787,16.787,16.787s16.787-7.554,16.787-16.787
		C414.895,409.439,407.341,401.885,398.108,401.885z"/>
</g>
</svg>