<?xml version="1.0" encoding="iso-8859-1"?>
<!-- Uploaded to: SVG Repo, www.svgrepo.com, Generator: SVG Repo Mixer Tools -->
<svg height="800px" width="800px" version="1.1" id="Layer_1" xmlns="http://www.w3.org/2000/svg" xmlns:xlink="http://www.w3.org/1999/xlink" 
	 viewBox="0 0 512 512" xml:space="preserve">
<path style="fill:#7C54B8;" d="M376.083,148.574c-41.186-12.46-74.235-29.818-98.789-45.572
	c-8.866-5.688-16.624-11.168-23.259-16.132c-5.535,18.217-43.025,141.606-50.148,165.05
	c-24.707,81.317,9.426,163.694,76.239,183.994l7.466,2.269l7.466,2.269c66.813,20.3,141.004-29.164,165.711-110.481
	c10.169-33.466,28.192-92.787,41.451-136.425c4.213-13.867-5.998-27.863-20.488-28.178
	C452.898,164.741,416.448,160.785,376.083,148.574z M286.672,224.125c-12.584-8.058-20.863-20.627-24.516-35.154
	c14.724-2.76,29.604-0.5,42.187,7.558c12.584,8.058,20.863,20.627,24.516,35.154C314.136,234.443,299.256,232.183,286.672,224.125z
	 M406.576,260.556c-14.939-0.304-28.561-6.705-39.26-17.189c11.117-10.04,24.99-15.878,39.929-15.572
	c14.939,0.304,28.562,6.705,39.26,17.189C435.387,255.022,421.516,260.861,406.576,260.556z"/>
<path style="fill:#674799;" d="M299.599,233.195v-3.031c-4.495-1.421-8.834-3.418-12.928-6.039
	c-12.584-8.058-20.863-20.627-24.516-35.154c12.912-2.42,25.945-0.978,37.444,4.849v-77.534c-8.07-4.459-15.523-8.931-22.304-13.283
	c-8.866-5.688-16.624-11.168-23.259-16.132c-3.49,11.485-42.502,139.885-50.148,165.05c-15.944,52.475-7.378,105.384,18.652,141.776
	C268.91,362.107,299.599,305.42,299.599,233.195z"/>
<path style="fill:#FFDB6C;" d="M143.53,82.502c-42.6,0.052-78.965-6.811-106.928-14.647C22.651,63.944,8.816,74.381,8.816,88.87
	v142.574c0,84.988,56.608,153.884,126.435,153.884h7.804h7.804c69.828,0,126.435-68.896,126.435-153.884V88.871
	c0-14.492-13.84-24.924-27.795-21.014C221.727,75.64,185.702,82.451,143.53,82.502z M80.396,182.274
	c-14.383-4.052-25.958-13.671-33.678-26.509c13.285-6.921,28.179-9.084,42.562-5.033c14.383,4.052,25.958,13.671,33.678,26.509
	C109.675,184.162,94.779,186.324,80.396,182.274z M205.714,182.274c-14.383,4.052-29.277,1.888-42.562-5.033
	c7.719-12.837,19.295-22.457,33.678-26.509c14.383-4.052,29.277-1.888,42.562,5.033
	C231.672,168.603,220.097,178.222,205.714,182.274z"/>
<path style="fill:#FFB966;" d="M242.955,67.84c-24.561,6.883-55.587,12.997-91.601,14.356c29.256,5.92,60.893,14.644,77.329,41.497
	c8.951,14.625,11.126,31.734,13.006,48.45c2.473,21.977,2.988,44.161,2.323,66.255c-1.09,36.152-2.249,75.477-20.337,107.817
	c-2.401,4.294-5.052,8.32-7.88,12.15c33.185-27.735,54.955-74.238,54.955-126.936V88.853
	C270.748,74.361,256.909,63.929,242.955,67.84z"/>
<path style="fill:#674799;" d="M475.188,165.351c-14.33-0.311-30.556-1.465-48.195-4.029c4.915,3.287,9.354,7.358,13.099,12.441
	c7.082,9.611,10.427,21.371,11.998,33.06c2.446,18.205,2.022,36.714-0.423,54.891c-4.682,34.797-16.246,69.636-34.119,99.922
	c-22.358,37.887-56.538,69.828-97.785,83.348c57.283-0.277,113.569-46.26,134.463-115.029
	c10.169-33.466,28.192-92.787,41.451-136.424C499.889,179.662,489.677,165.666,475.188,165.351z"/>
<path style="fill:#FC4C59;" d="M146.022,335.638h-5.933c-23.843,0-43.171-19.328-43.171-43.171l0,0h92.273l0,0
	C189.192,316.31,169.864,335.638,146.022,335.638z"/>
<path style="fill:#E83A64;" d="M143.055,335.638h2.966c23.842,0,43.171-19.328,43.171-43.17l0,0h-46.137
	C143.055,292.468,143.055,335.638,143.055,335.638z"/>
<path style="fill:#FC4C59;" d="M311.751,346.913l5.676,1.724c22.812,6.932,35.687,31.044,28.755,53.856l0,0l-88.288-26.825l0,0
	C264.827,352.856,288.939,339.981,311.751,346.913z"/>
<path style="fill:#E83A64;" d="M346.188,402.488c6.932-22.812-5.943-46.925-28.755-53.856l-4.317-1.312l-14.165,40.815
	L346.188,402.488z"/>
<path d="M243.465,147.947c-15.674-8.166-33.086-10.19-49.026-5.701c-15.943,4.491-29.737,15.306-38.843,30.451
	c-1.252,2.084-1.59,4.592-0.93,6.933c0.659,2.34,2.256,4.305,4.413,5.428c10.217,5.324,21.175,8.037,31.979,8.037
	c5.77,0,11.497-0.773,17.045-2.336c15.943-4.491,29.737-15.306,38.843-30.451c1.252-2.084,1.59-4.592,0.93-6.933
	C247.217,151.035,245.621,149.071,243.465,147.947z M203.324,173.788c-8.615,2.425-17.609,2.267-26.459-0.41
	c6.149-6.903,13.74-11.732,22.355-14.16c8.615-2.427,17.608-2.269,26.459,0.41C219.529,166.532,211.938,171.361,203.324,173.788z"/>
<path d="M127.031,185.06c2.157-1.124,3.753-3.087,4.413-5.428c0.661-2.34,0.322-4.849-0.93-6.933
	c-9.106-15.146-22.9-25.96-38.843-30.451c-15.939-4.489-33.351-2.465-49.026,5.701c-2.156,1.124-3.752,3.088-4.411,5.428
	c-0.661,2.34-0.322,4.849,0.93,6.933c9.106,15.147,22.901,25.961,38.843,30.451c5.549,1.563,11.275,2.336,17.045,2.336
	C105.858,193.096,116.814,190.383,127.031,185.06z M60.432,159.628c8.85-2.679,17.845-2.838,26.459-0.41
	c8.614,2.426,16.205,7.256,22.355,14.16c-8.85,2.679-17.845,2.838-26.459,0.41C74.174,171.362,66.582,166.532,60.432,159.628z"/>
<path d="M286.083,233.988c9.384,5.024,20.007,7.616,31.026,7.616c4.413,0,8.89-0.416,13.373-1.255
	c2.39-0.448,4.488-1.863,5.801-3.911c1.311-2.048,1.719-4.547,1.125-6.905c-4.31-17.14-14.365-31.497-28.312-40.429
	c-7.045-4.51-14.748-7.524-22.986-9.005V88.871c0-9.67-4.417-18.566-12.12-24.407c-7.726-5.857-17.518-7.718-26.871-5.094
	c-33.748,9.458-68.604,14.276-103.601,14.318c-0.155,0-0.307,0-0.463,0c-35.152,0-70.168-4.818-104.075-14.321
	c-9.345-2.619-19.136-0.763-26.86,5.093C4.419,70.301,0,79.198,0,88.87v142.574c0,89.713,60.673,162.699,135.251,162.699h15.607
	C224.731,394.145,284.949,322.532,286.083,233.988z M299.588,203.953c7.537,4.825,13.395,11.655,17.272,20.047
	c-9.245-0.011-17.9-2.474-25.436-7.3c-1.869-1.197-3.64-2.545-5.314-4v-14.566C290.905,199.34,295.417,201.281,299.588,203.953z
	 M150.859,376.513h-15.607c-64.856,0-117.621-65.078-117.621-145.068V88.87c0-4.106,1.875-7.883,5.143-10.36
	c2.31-1.751,5.056-2.662,7.866-2.662c1.192,0,2.396,0.165,3.582,0.496c35.613,9.981,72.368,14.973,109.317,14.974
	c36.598-0.045,73.049-5.081,108.338-14.972c3.992-1.117,8.168-0.329,11.459,2.168c3.268,2.477,5.141,6.252,5.141,10.358v127.526
	c0,0.052,0,0.102,0,0.154v14.894C268.479,311.435,215.715,376.513,150.859,376.513z"/>
<path d="M189.192,283.652H96.919c-4.87,0-8.816,3.947-8.816,8.816c0,28.666,23.321,51.987,51.987,51.987h5.933
	c28.666,0,51.987-23.321,51.987-51.987C198.008,287.599,194.062,283.652,189.192,283.652z M146.022,326.822h-5.933
	c-15.896,0-29.306-10.853-33.208-25.539h72.348C175.327,315.969,161.918,326.822,146.022,326.822z"/>
<path d="M123.66,249.564c0,4.869,3.946,8.816,8.816,8.816h21.158c4.87,0,8.816-3.947,8.816-8.816c0-4.869-3.946-8.816-8.816-8.816
	h-21.158C127.607,240.748,123.66,244.695,123.66,249.564z"/>
<path d="M407.656,269.383c16.125,0,31.975-6.313,44.758-17.856c1.804-1.629,2.856-3.932,2.906-6.363
	c0.051-2.431-0.906-4.775-2.644-6.477c-12.622-12.37-28.693-19.369-45.25-19.708c-16.586-0.334-32.9,6-46.017,17.845
	c-1.804,1.629-2.856,3.932-2.906,6.364c-0.051,2.431,0.906,4.775,2.644,6.477c12.622,12.369,28.693,19.368,45.25,19.706
	C406.818,269.379,407.235,269.383,407.656,269.383z M407.065,236.608c8.948,0.182,17.51,2.949,25.198,8.084
	c-7.893,4.818-16.612,7.227-25.505,7.049c-8.948-0.182-17.51-2.949-25.197-8.084C389.449,238.84,398.15,236.431,407.065,236.608z"/>
<path d="M506.154,169.242c-5.689-7.852-14.52-12.476-24.228-12.687c-35.041-0.762-69.793-6.286-103.288-16.42
	c-21.309-6.446-42.197-14.807-62.083-24.848c-4.35-2.193-9.648-0.45-11.844,3.895c-2.193,4.346-0.45,9.648,3.895,11.843
	c20.797,10.502,42.641,19.245,64.925,25.986c35.03,10.597,71.369,16.374,108.011,17.17c4.143,0.09,7.911,2.061,10.335,5.405
	c2.406,3.321,3.102,7.477,1.908,11.405l-41.449,136.416c-23.255,76.536-92.663,123.462-154.713,104.608l-14.932-4.537
	c-20.07-6.098-37.767-18.701-51.179-36.45c-2.934-3.883-8.464-4.654-12.348-1.719c-3.885,2.936-4.654,8.464-1.719,12.349
	c15.672,20.74,36.463,35.502,60.12,42.69l14.932,4.537c10.928,3.319,22.037,4.908,33.117,4.908
	c61.268,0,121.506-48.567,143.592-121.261l41.449-136.416C513.466,186.865,511.826,177.069,506.154,169.242z"/>
<path d="M319.991,340.202l-5.676-1.724c-13.29-4.038-27.35-2.657-39.599,3.883c-12.249,6.54-21.219,17.46-25.255,30.746
	c-1.415,4.658,1.213,9.582,5.871,10.998l88.287,26.825c4.596,1.393,9.602-1.279,10.998-5.873
	c4.038-13.286,2.659-27.349-3.883-39.599C344.196,353.209,333.276,344.239,319.991,340.202z M339.225,391.166l-69.245-21.039
	c3.15-5.107,7.608-9.312,13.04-12.213c8.097-4.322,17.386-5.234,26.168-2.565l5.676,1.724c8.781,2.667,15.997,8.595,20.319,16.689
	C338.083,379.195,339.448,385.169,339.225,391.166z"/>
<path d="M339.748,301.364l-20.245-6.151c-4.663-1.415-9.582,1.213-10.998,5.873c-1.415,4.658,1.213,9.582,5.871,10.998l20.245,6.151
	c0.856,0.26,1.717,0.383,2.567,0.383c3.78,0,7.275-2.451,8.432-6.256C347.034,307.704,344.406,302.78,339.748,301.364z"/>
</svg>