<?xml version="1.0" encoding="UTF-8" standalone="no"?>
<!-- Uploaded to: SVG Repo, www.svgrepo.com, Generator: SVG Repo Mixer Tools -->

<svg
   height="800px"
   width="800px"
   version="1.1"
   id="Layer_1"
   viewBox="0 0 511.999 511.999"
   xml:space="preserve"
   xmlns="http://www.w3.org/2000/svg"
   xmlns:svg="http://www.w3.org/2000/svg"><defs
   id="defs17" />














<g
   id="g18"><path
     style="fill:#ffda44;stroke-width:0.999998"
     d="m 265.85739,465.47304 c -121.46276,0 -220.278575,-98.81581 -220.278575,-220.27857 0,-121.46277 98.815815,-220.278579 220.278575,-220.278579 121.46276,0 220.27857,98.815809 220.27857,220.278579 0,121.46276 -98.81581,220.27857 -220.27857,220.27857 z m 0,-404.836219 c -101.7648,0 -184.557645,82.792839 -184.557645,184.557649 0,101.7648 82.792845,184.55764 184.557645,184.55764 101.7648,0 184.55764,-82.79284 184.55764,-184.55764 0,-101.76481 -82.79284,-184.557649 -184.55764,-184.557649 z"
     id="path1-5" /><path
     style="fill:#ffad41;stroke-width:0.999998"
     d="m 265.85739,24.915891 v 35.72093 c 101.7648,0 184.55764,82.792839 184.55764,184.557649 0,101.7648 -82.79284,184.55764 -184.55764,184.55764 v 35.72093 c 121.46276,0 220.27857,-98.81581 220.27857,-220.27857 0,-121.46277 -98.81581,-220.278579 -220.27857,-220.278579 z"
     id="path2-3" /></g><g
   id="g17"
   transform="matrix(1.0400717,0,0,0.79463284,-27.882524,85.432739)"><path
     style="fill:#c3f6f9"
     d="m 309.7,378.512 c 0,16.992 -6.055,33.961 -18.176,47.411 -1.631,1.787 -2.603,2.748 -2.603,2.748 -5.642,5.641 -12.009,10.143 -18.79,13.484 -10.378,5.116 -21.751,7.541 -33.078,7.273 -17.584,-0.413 -35.044,-7.34 -48.461,-20.756 l -27.291,-27.28 c -0.011,-0.011 -0.011,-0.022 -0.011,-0.022 l -48.528,-48.528 c -27.705,-27.705 -27.705,-72.613 0,-100.318 5.798,-5.798 12.344,-10.378 19.337,-13.752 16.455,-7.932 35.335,-9.149 52.516,-3.642 -19.27,4.01 -33.748,21.091 -33.748,41.557 0,23.449 19.002,42.451 42.451,42.451 23.449,0 42.451,-19.002 42.451,-42.451 0,-0.514 -0.011,-1.005 -0.034,-1.508 l 10.803,10.791 42.384,42.384 c 13.852,13.851 20.778,32.005 20.778,50.158 z"
     id="path1" /><path
     style="fill:#f9dca4"
     d="m 235.731,275.179 c 0.022,0.503 0.034,0.994 0.034,1.508 0,23.449 -19.002,42.451 -42.451,42.451 -23.449,0 -42.451,-19.002 -42.451,-42.451 0,-20.466 14.478,-37.547 33.748,-41.557 10.412,3.329 20.198,9.127 28.464,17.394 l 22.655,22.644 v 0.011 z"
     id="path2" /><path
     style="fill:#e7c080"
     d="m 237.05,449.44 v 47.623 C 179.652,474.72 161.622,402.722 161.298,401.392 l 27.291,27.28 c 13.417,13.417 30.877,20.343 48.461,20.756 z"
     id="path3" /><path
     style="fill:#eaa0e3"
     d="m 311.889,497.363 c -13.651,4.156 -26.174,6.077 -37.614,6.222 -13.942,0.179 -26.297,-2.279 -37.223,-6.524 v -47.634 c 18.723,0.447 37.58,-6.468 51.868,-20.756 0,0 0.972,-0.961 2.603,-2.748 9.753,-10.825 15.584,-23.929 17.483,-37.48 0.458,-3.296 0.693,-6.613 0.693,-9.931 0,-18.042 -6.837,-36.072 -20.522,-49.891 -0.078,-0.089 -0.168,-0.179 -0.257,-0.268 l -42.384,-42.384 c 0,-25.135 42.239,-38.541 42.239,-38.541 v 15.64 c 0,0 1.117,0.223 3.061,0.536 11.093,1.81 49.265,6.859 62.984,-6.87 h 0.011 c -2.737,20.79 -11.462,40.485 -25.281,56.605 0,0 1.341,0.145 3.698,0.145 10.523,0 41.2,-2.782 62.827,-33.19 0.325,1.721 33.66,181.187 -84.186,217.069 z"
     id="path4" /><path
     style="fill:#e7c080"
     d="m 355.666,237.911 c 0.268,6.323 -0.011,12.624 -0.838,18.824 h -0.011 c -16.131,16.142 -66.045,6.334 -66.045,6.334 v -15.64 -21.225 c 25.281,0 47.88,-11.428 62.939,-29.392 2.168,12.702 3.341,26.543 3.955,41.099 z"
     id="path5" /><path
     style="fill:#f9dca4"
     d="m 351.715,196.811 c -7.328,8.736 -16.444,15.93 -26.778,21.002 -10.903,5.373 -23.18,8.39 -36.161,8.39 -5.988,0 -11.83,-0.637 -17.461,-1.866 -36.955,-7.999 -64.648,-40.887 -64.648,-80.243 V 71.38 c 0,-4.111 0.391,-8.122 1.151,-12.009 3.363,5.251 14.065,20.79 31.581,35.703 8.39,7.161 18.354,14.176 29.827,19.84 8.177,4.033 17.126,7.395 26.811,9.63 0.067,0.011 0.123,0.034 0.19,0.045 34.452,8.043 49.199,35.402 55.488,72.222 z"
     id="path6" /><path
     style="fill:#4d4d4d"
     d="m 418.921,189.338 c 0,44.071 -9.764,72.557 -22.845,90.945 0,0 0,0 0,0.011 -21.628,30.408 -52.304,33.19 -62.827,33.19 -2.357,0 -3.698,-0.145 -3.698,-0.145 13.819,-16.12 22.544,-35.815 25.281,-56.605 0.827,-6.2 1.106,-12.501 0.838,-18.824 -0.614,-14.556 -1.787,-28.397 -3.955,-41.099 -6.301,-36.888 -21.091,-64.28 -55.678,-72.267 -9.686,-2.234 -18.634,-5.597 -26.811,-9.63 C 257.753,109.25 247.788,102.235 239.399,95.074 221.882,80.16 211.18,64.621 207.818,59.371 213.415,30.314 238.997,8.363 269.685,8.363 h 24.119 c 4.2,0 8.267,0.168 12.199,0.492 0.056,0 0.112,0 0.156,0.011 90.219,7.428 112.762,97.022 112.762,180.472 z"
     id="path7" /><g
     id="g9">
	<path
   style="fill:#e7c080"
   d="M 271.315,224.337 C 234.36,216.338 206.667,183.45 206.667,144.094 V 71.38 c 0,-4.111 0.391,-8.122 1.151,-12.009 3.363,5.251 14.065,20.79 31.581,35.703 0,0 -8.546,88.789 31.894,129.241 0.011,0.011 0.011,0.011 0.022,0.022 z"
   id="path8" />
	<path
   style="fill:#e7c080"
   d="m 351.715,196.811 c -7.328,8.736 -16.444,15.93 -26.778,21.002 -0.034,-55.264 -27.738,-91.951 -28.71,-93.224 34.452,8.043 49.199,35.402 55.488,72.222 z"
   id="path9" />
</g><path
     style="fill:#333333"
     d="m 279.917,8.363 v 0.011 c 0,0 -48.193,31.302 -40.529,86.577 0.011,0.045 0.011,0.078 0.011,0.123 C 221.882,80.16 211.18,64.621 207.818,59.371 213.415,30.314 238.997,8.363 269.685,8.363 c -10e-4,0 10.232,0 10.232,0 z"
     id="path10" /><path
     style="fill:#ace3e5"
     d="m 270.131,442.155 c -10.378,5.116 -21.75,7.541 -33.078,7.273 -17.584,-0.413 -35.044,-7.34 -48.461,-20.756 l -27.291,-27.28 c -0.011,-0.011 -0.011,-0.022 -0.011,-0.022 l -48.528,-48.528 c -27.705,-27.705 -27.705,-72.613 0,-100.318 5.798,-5.798 12.344,-10.378 19.337,-13.752 v 0.089 c 0,0 -29.246,54.918 27.169,111.333 33.022,33.021 78.679,68.345 110.863,91.961 z"
     id="path11" /><path
     style="fill:#f9dca4"
     d="m 112.921,352.854 0.822,32.035 c 0.244,9.502 8.984,16.497 18.309,14.652 l 23.007,-4.55"
     id="path12" /><g
     id="g14">
	<path
   style="fill:#d57cd4"
   d="m 317.62,389.147 c 0,0 -10.333,56.56 -28.766,74.993 -8.926,8.926 -12.88,25.124 -14.579,39.446 -13.942,0.179 -26.297,-2.279 -37.223,-6.524 v -47.634 c 18.723,0.447 37.58,-6.468 51.868,-20.756 0,0 0.972,-0.961 2.603,-2.748 9.753,-10.825 15.584,-23.929 17.483,-37.48 z"
   id="path13" />
	<path
   style="fill:#d57cd4"
   d="m 289.078,328.364 c 0.034,0.089 0.067,0.168 0.101,0.257 -0.078,-0.089 -0.168,-0.179 -0.257,-0.268 l -42.384,-42.384 c 0,-25.135 42.239,-38.541 42.239,-38.541 v 15.64 c 0,0 1.117,0.223 3.061,0.536 -7.888,13.886 -14.513,36.173 -2.76,64.76 z"
   id="path14" />
</g><path
     d="m 427.453,189.35 c 0,-33.228 -3.504,-62.815 -10.416,-87.943 -8.441,-30.681 -22.028,-54.813 -40.384,-71.73 -3.402,-3.135 -8.702,-2.919 -11.839,0.484 -3.136,3.403 -2.918,8.704 0.485,11.839 37.522,34.576 45.399,99.213 45.399,147.348 0,87.495 -39.251,109.263 -63.609,114.327 12.104,-19.736 18.106,-42.641 17.107,-66.108 -0.69,-16.383 -2.022,-30.171 -4.067,-42.156 -4.938,-28.91 -16.741,-68.556 -62.052,-79.02 -44.518,-10.274 -72.566,-46.2 -81.135,-58.657 6.141,-23.931 27.871,-40.977 52.9,-40.977 h 27.951 c 2.413,0 4.816,0.134 7.145,0.399 0.141,0.021 0.282,0.038 0.425,0.051 l 0.161,0.016 c 0.115,0.011 0.229,0.02 0.343,0.026 16.13,1.358 30.58,5.624 42.949,12.678 4.021,2.291 9.137,0.891 11.428,-3.128 2.293,-4.019 0.893,-9.136 -3.127,-11.428 C 342.599,7.092 325.811,2.105 307.209,0.547 307.113,0.536 307.02,0.527 306.933,0.52 303.943,0.174 300.871,0 297.792,0 h -27.951 c -34.063,0 -63.464,24.17 -70.027,57.491 -0.017,0.071 -0.032,0.144 -0.047,0.217 -0.004,0.025 -0.011,0.048 -0.016,0.073 -0.865,4.434 -1.305,9.015 -1.305,13.616 v 72.714 c 0,47.069 36.129,85.841 82.109,90.085 v 7.408 c -4.404,1.768 -10.75,4.62 -17.132,8.545 -10.794,6.636 -17.145,13.544 -20.762,19.955 L 219.167,246.61 c -30.927,-30.925 -81.245,-30.925 -112.169,0 -8.914,8.914 -15.643,19.932 -19.459,31.864 -1.41,4.407 1.021,9.124 5.427,10.532 4.409,1.41 9.124,-1.021 10.533,-5.428 3.049,-9.535 8.213,-17.986 15.347,-25.12 10.898,-10.899 24.852,-16.912 39.129,-18.072 -9.511,9.332 -15.33,22.3 -15.33,36.311 0,28.028 22.802,50.829 50.829,50.829 22.396,0 41.441,-14.566 48.196,-34.717 l 41.481,41.481 c 11.816,11.816 18.322,27.526 18.322,44.236 0,16.71 -6.506,32.42 -18.323,44.236 -11.815,11.816 -27.525,18.323 -44.236,18.323 -16.71,0 -32.42,-6.507 -44.236,-18.323 l -75.833,-75.833 c -9.549,-9.549 -15.648,-21.632 -17.634,-34.942 -0.684,-4.578 -4.962,-7.727 -9.524,-7.05 -4.577,0.684 -7.733,4.948 -7.05,9.524 2.353,15.756 9.244,30.15 19.991,41.842 l 0.738,28.801 c 0.18,7.003 3.421,13.531 8.89,17.908 4.246,3.398 9.463,5.202 14.8,5.202 1.537,0 3.083,-0.15 4.619,-0.454 l 18.619,-3.683 1.638,1.638 c 3.394,12.138 20.815,66.571 66.476,92.602 15.993,9.117 33.572,13.683 52.556,13.683 13.181,0 27.041,-2.202 41.517,-6.609 25.049,-7.625 45.552,-21.95 60.94,-42.578 12.644,-16.95 21.881,-38.25 27.455,-63.309 1.004,-4.517 -1.842,-8.993 -6.36,-9.998 -4.517,-1.003 -8.993,1.843 -9.997,6.36 -11.094,49.879 -36.972,81.335 -76.919,93.495 -23.513,7.157 -44.962,7.728 -64.01,1.757 v -33.571 c 18.653,-1.545 35.987,-9.529 49.378,-22.906 0.004,-0.004 0.01,-0.008 0.015,-0.013 0.003,-0.002 0.011,-0.011 0.015,-0.014 l 0.001,-10e-4 c 0,0 10e-4,-10e-4 0.002,-10e-4 1.867,-1.86 41.893,-42.273 44.397,-89.536 0.246,-4.622 -3.302,-8.565 -7.924,-8.81 -4.586,-0.241 -8.565,3.301 -8.81,7.923 -0.442,8.346 -2.344,16.542 -5.084,24.311 -2.181,-17.386 -9.994,-33.467 -22.583,-46.056 l -39.562,-39.562 c 2.269,-9.799 14.805,-17.999 25.116,-22.984 v 3.183 c 0,4.004 2.834,7.449 6.764,8.221 2.806,0.552 16.76,3.128 32.306,3.128 7.857,0 16.112,-0.669 23.546,-2.579 -4.004,13.118 -10.689,25.39 -19.827,36.047 -2.025,2.361 -2.575,5.648 -1.429,8.539 1.144,2.891 3.796,4.91 6.888,5.245 0.299,0.032 1.926,0.193 4.598,0.193 9.27,0 33.145,-1.968 54.593,-20.202 0.823,-0.699 1.631,-1.42 2.43,-2.153 1.743,16.327 3.318,42.159 0.385,69.755 -0.489,4.601 2.845,8.728 7.447,9.216 0.302,0.032 0.599,0.047 0.895,0.047 4.229,0 7.865,-3.193 8.322,-7.494 4.362,-41.058 -0.604,-77.64 -2.41,-88.845 4.172,-6.337 7.784,-13.359 10.798,-21.044 7.696,-19.617 11.596,-43.776 11.596,-71.805 z M 130.425,391.322 c -2.762,0.547 -4.756,-0.638 -5.698,-1.394 -0.944,-0.754 -2.537,-2.441 -2.61,-5.255 l -0.284,-11.057 16.201,16.201 z m 98.368,92.486 c -20.373,-11.585 -34.51,-30.309 -43.85,-47.183 12.241,11.391 27.479,18.494 43.892,20.564 v 26.642 c -0.014,-0.008 -0.029,-0.016 -0.042,-0.023 z M 193.474,310.769 c -18.787,0 -34.072,-15.285 -34.072,-34.072 0,-15.319 10.362,-28.781 24.933,-32.826 3.456,1.242 6.822,2.797 10.058,4.667 -1.904,2.146 -2.663,5.207 -1.81,8.013 1.06,3.487 4.371,5.948 8.02,5.948 2.844,0 5.45,-1.491 6.975,-3.781 l 19.911,19.911 c -1.006,17.89 -15.876,32.14 -34.015,32.14 z M 215.203,144.11 V 82.65 c 10.293,11.781 25.669,26.382 45.804,37.322 v 50.386 c 0,4.627 3.75,8.378 8.378,8.378 h 18.08 c 4.628,0 8.378,-3.751 8.378,-8.378 0,-4.627 -3.75,-8.378 -8.378,-8.378 h -9.701 v -34.314 c 5.267,2 10.772,3.723 16.541,5.054 26.508,6.122 41.597,25.189 48.593,61.607 -13.944,14.987 -33.397,23.513 -53.965,23.513 -40.655,0 -73.73,-33.075 -73.73,-73.73 z m 82.109,111.888 v -21.794 c 17.834,-1.648 34.656,-8.52 48.473,-19.699 0.744,7.229 1.3,15.096 1.667,23.775 0.202,4.749 0.068,9.472 -0.39,14.138 -9.541,6.303 -32.348,6.083 -49.75,3.58 z"
     id="path15" /><path
     d="m 247.8,124.036 -12.288,-1.117 c -4.6,-0.425 -8.683,2.977 -9.101,7.585 -0.419,4.608 2.977,8.683 7.585,9.102 l 12.288,1.117 c 0.257,0.023 0.514,0.035 0.769,0.035 4.284,0 7.938,-3.27 8.334,-7.62 0.417,-4.608 -2.979,-8.683 -7.587,-9.102 z"
     id="path16" /><path
     d="m 182.734,271.616 c -2.858,-1.806 -6.607,-1.676 -9.356,0.276 -3.07,2.18 -4.293,6.313 -2.934,9.818 1.239,3.196 4.386,5.364 7.817,5.364 3.795,0 7.2,-2.667 8.123,-6.346 0.867,-3.462 -0.636,-7.205 -3.65,-9.112 z"
     id="path17" /></g>
</svg>
