<?xml version="1.0" encoding="UTF-8" standalone="no"?>
<!-- Uploaded to: SVG Repo, www.svgrepo.com, Generator: SVG Repo Mixer Tools -->

<svg
   height="800"
   width="800"
   version="1.1"
   id="Layer_1"
   viewBox="0 0 512 512"
   xml:space="preserve"
   xmlns="http://www.w3.org/2000/svg"
   xmlns:svg="http://www.w3.org/2000/svg"><defs
   id="defs14"><style
     id="style1">.cls-1{fill:#ff6368;}.cls-2{fill:#d34a5b;}.cls-3{fill:#354251;}</style></defs>









<g
   id="g14"
   transform="matrix(1.0813122,0,0,1.0224762,-11.345687,-8.8918697)"><path
     style="fill:#008080;stroke-width:1.48929"
     d="M 347.18345,278.23387 V 460.51441 H 75.744256 c -18.738832,0 -33.930097,-13.60055 -33.930097,-30.38032 V 278.23387 c 0,-50.33511 45.572223,-91.14097 101.790281,-91.14097 h 101.79029 c 56.2165,0.001 101.78872,40.80586 101.78872,91.14097 z"
     id="path1" /><path
     style="fill:#005d5d;fill-opacity:1;stroke-width:1.48929"
     d="M 194.49958,460.51582 H 75.744256 c -18.738832,0 -33.930097,-13.60054 -33.930097,-30.38033 V 278.23387 c 0,-50.33511 45.572223,-91.14097 101.790281,-91.14097 h 50.89514 z"
     id="path2" /><path
     style="fill:#f4c064;stroke-width:1.48929"
     d="m 347.18345,475.70599 c 0,16.77836 -15.18969,30.38032 -33.9301,30.38032 v 0 c -18.73884,0 -33.9301,-13.60055 -33.9301,-30.38032 V 323.80437 c 0,-8.38919 7.59563,-15.19017 16.96505,-15.19017 h 50.89515 z"
     id="path3" /><path
     style="fill:#f4c064;stroke-width:1.48929"
     d="m 262.35821,80.763172 c 0,33.556748 -30.38253,60.760658 -67.86021,60.760658 -37.47766,0 -67.85861,-27.20391 -67.85861,-60.760658 0,-33.556744 30.38253,-60.760648 67.86019,-60.760648 37.47767,0 67.85863,27.203904 67.85863,60.760648 z M 194.49958,414.94534 h -84.82524 v -91.14097 c 0,-8.38919 -7.59562,-15.19017 -16.965035,-15.19017 H 41.814159 v 136.71146 c 0,16.77837 15.189692,30.38033 33.930097,30.38033 H 194.49958 c 18.73883,0 33.93009,-13.60056 33.93009,-30.38033 v 0 c -10e-4,-16.77978 -15.19126,-30.38032 -33.93009,-30.38032 z"
     id="path9" /><path
     style="fill:#f4ab53;stroke-width:1.48929"
     d="M 194.49958,20.002524 V 141.52383 c -37.47766,0 -67.86019,-27.20391 -67.86019,-60.760658 0,-33.556744 30.38253,-60.760648 67.86019,-60.760648 z"
     id="path10" /></g>




<g
   id="noodle"
   transform="matrix(5.4456501,0,0,4.8135289,216.90055,291.05458)"><path
     class="cls-1"
     d="M 41.85,19.93 H 3 a 19.45,19.45 0 0 0 11.38,17.73 v 2.5 a 1.69,1.69 0 0 0 1.69,1.69 h 12.65 a 1.69,1.69 0 0 0 1.69,-1.69 v -2.5 A 19.46,19.46 0 0 0 41.85,19.93 Z"
     id="path1-9" /><path
     class="cls-2"
     d="m 24.2,40.16 v -2.5 A 19.46,19.46 0 0 1 12.76,19.93 H 3 a 19.45,19.45 0 0 0 11.38,17.73 v 2.5 a 1.69,1.69 0 0 0 1.69,1.69 h 9.81 A 1.69,1.69 0 0 1 24.2,40.16 Z"
     id="path2-1" /><path
     class="cls-3"
     d="M 28.72,43.21 H 16.07 A 3.06,3.06 0 0 1 13,40.16 V 38.52 A 20.89,20.89 0 0 1 1.58,19.93 1.36,1.36 0 0 1 3,18.57 h 38.9 a 1.36,1.36 0 0 1 1.36,1.36 20.88,20.88 0 0 1 -11.49,18.59 v 1.64 a 3.06,3.06 0 0 1 -3.05,3.05 z M 4.36,21.29 A 18.13,18.13 0 0 0 15,36.42 a 1.37,1.37 0 0 1 0.79,1.24 v 2.5 a 0.32,0.32 0 0 0 0.33,0.32 h 12.6 a 0.32,0.32 0 0 0 0.33,-0.32 v -2.5 a 1.36,1.36 0 0 1 0.8,-1.24 18.14,18.14 0 0 0 10.58,-15.13 z"
     id="path3-8" /><path
     class="cls-3"
     d="m 13.87,34.28 a 1.39,1.39 0 0 1 -0.93,-0.37 13.79,13.79 0 0 1 -4.12,-7.7 1.36,1.36 0 1 1 2.68,-0.46 11.12,11.12 0 0 0 3.31,6.18 1.37,1.37 0 0 1 -0.94,2.35 z"
     id="path4" /><path
     class="cls-3"
     d="M 7,20 C 4.67,19.81 5.88,16.71 6.68,16 7.01,15.61 7.09,15.5 7.09,15.15 7.09,14.8 7.01,14.68 6.68,14.3 a 3.78,3.78 0 0 1 0,-5.21 1.06,1.06 0 0 0 0,-1.7 3.82,3.82 0 0 1 0,-5.21 C 7.01,1.8 7.09,1.68 7.09,1.33 A 1.36,1.36 0 0 1 8.42,0 c 2.33,0.19 1.12,3.29 0.32,4 -0.33,0.39 -0.41,0.5 -0.41,0.86 0,0.36 0.08,0.46 0.41,0.85 a 3.77,3.77 0 0 1 0,5.2 1.06,1.06 0 0 0 0,1.7 3.82,3.82 0 0 1 0,5.21 C 8.41,18.2 8.33,18.32 8.33,18.67 A 1.36,1.36 0 0 1 7,20 Z"
     id="path5" /><path
     class="cls-3"
     d="M 12,20 C 9.66,19.81 10.88,16.71 11.68,16 12,15.61 12.09,15.5 12.09,15.15 12.09,14.8 12,14.68 11.68,14.3 a 3.78,3.78 0 0 1 0,-5.21 1.07,1.07 0 0 0 0,-1.7 3.81,3.81 0 0 1 0,-5.21 C 12,1.8 12.09,1.68 12.09,1.33 A 1.36,1.36 0 0 1 13.49,0 c 2.33,0.19 1.11,3.29 0.31,4 -0.32,0.39 -0.4,0.5 -0.4,0.86 0,0.36 0.08,0.46 0.4,0.85 a 3.74,3.74 0 0 1 0,5.2 1.07,1.07 0 0 0 0,1.7 3.8,3.8 0 0 1 0,5.21 c -0.32,0.38 -0.4,0.5 -0.4,0.85 A 1.36,1.36 0 0 1 12,20 Z"
     id="path6" /><path
     class="cls-3"
     d="m 17.1,20 c -2.33,-0.19 -1.11,-3.29 -0.31,-4 0.32,-0.39 0.4,-0.5 0.4,-0.85 0,-0.35 -0.08,-0.47 -0.4,-0.85 a 3.76,3.76 0 0 1 0,-5.21 1.07,1.07 0 0 0 0,-1.7 3.8,3.8 0 0 1 0,-5.21 c 0.32,-0.38 0.4,-0.5 0.4,-0.85 A 1.36,1.36 0 0 1 18.55,0 c 2.34,0.19 1.12,3.29 0.32,4 -0.32,0.39 -0.41,0.5 -0.41,0.86 0,0.36 0.09,0.46 0.41,0.85 a 3.74,3.74 0 0 1 0,5.2 1.07,1.07 0 0 0 0,1.7 3.81,3.81 0 0 1 0,5.21 c -0.32,0.38 -0.41,0.5 -0.41,0.85 A 1.36,1.36 0 0 1 17.1,20 Z"
     id="path7" /><path
     class="cls-3"
     d="M 42.82,2.72 H 1.36 A 1.36,1.36 0 0 1 1.36,0 h 41.46 a 1.36,1.36 0 0 1 0,2.72 z"
     id="path8" /><path
     class="cls-3"
     d="m 42.72,10.63 c 0,0 -41.33,-4.18 -41.39,-4.17 A 1.3617085,1.3617085 0 0 1 1.6,3.75 l 41.25,4.17 a 1.36,1.36 0 0 1 -0.13,2.71 z"
     id="path9-5" /></g></svg>
