<?xml version="1.0" encoding="iso-8859-1"?>
<!-- Uploaded to: SVG Repo, www.svgrepo.com, Generator: SVG Repo Mixer Tools -->
<svg height="800px" width="800px" version="1.1" id="Layer_1" xmlns="http://www.w3.org/2000/svg" xmlns:xlink="http://www.w3.org/1999/xlink" 
	 viewBox="0 0 512 512" xml:space="preserve">
<g>
	<path style="fill:#48A0DC;" d="M416.542,374.888c-2.603,0-5.207-0.868-6.942-3.471c-2.603-3.471-2.603-9.546,1.736-12.149
		c47.729-35.58,74.63-91.119,74.63-150.997c0-105.003-85.912-190.915-190.915-190.915c-32.976,0-65.953,8.678-94.59,25.166
		c-4.339,1.736-9.546,0.868-11.281-3.471c-2.603-4.339-0.868-9.546,3.471-12.149C223.024,9.546,258.603,0,295.051,0
		C409.6,0,503.322,93.722,503.322,208.271c0,65.085-29.505,125.831-81.573,164.881C420.014,374.888,418.278,374.888,416.542,374.888
		"/>
	<path style="fill:#48A0DC;" d="M173.559,374.888c-1.736,0-3.471-0.868-5.207-1.736c-49.464-37.315-78.969-94.59-81.573-156.203
		c0-5.207,3.471-8.678,8.678-8.678c4.339,0,8.678,3.471,8.678,8.678c2.603,56.407,29.505,108.475,74.631,143.186
		c3.471,2.603,4.339,8.678,1.736,12.149C178.766,374.02,176.163,374.888,173.559,374.888"/>
</g>
<polygon style="fill:#EDDCC7;" points="34.712,157.071 34.712,157.071 19.959,210.007 53.803,176.163 "/>
<path style="fill:#D75A4A;" d="M173.559,56.407l-8.678-8.678c-5.207-5.207-14.753-5.207-19.959,0l-26.034,26.034l19.092,19.092
	L173.559,56.407z"/>
<polygon style="fill:#F29C21;" points="137.112,92.854 118.02,73.763 34.712,157.071 53.803,176.163 "/>
<polygon style="fill:#D6C4B1;" points="75.498,197.858 75.498,197.858 53.803,176.163 19.959,210.007 19.092,213.478 "/>
<path style="fill:#A34740;" d="M158.807,114.549l26.034-26.034c5.207-5.207,5.207-14.753,0-19.959l-11.281-12.149l-35.58,35.58
	L158.807,114.549z"/>
<polygon style="fill:#E18C25;" points="53.803,176.163 75.498,197.858 158.807,114.549 137.112,92.854 "/>
<path style="fill:#5E5E5E;" d="M17.356,225.627c-2.603,0-4.339-0.868-6.075-2.603c-3.471-3.471-3.471-8.678,0-12.149l19.092-19.092
	c3.471-3.471,8.678-3.471,12.149,0c3.471,3.471,3.471,8.678,0,12.149l-19.092,19.092C21.695,224.759,19.959,225.627,17.356,225.627"
	/>
<path style="fill:#FDC794;" d="M295.051,512L295.051,512c-66.82,0-121.492-54.671-121.492-121.492V199.593
	c0-66.82,54.671-121.492,121.492-121.492s121.492,54.671,121.492,121.492v190.915C416.542,457.329,361.871,512,295.051,512"/>
<path style="fill:#FFE9EC;" d="M208.271,286.373v-86.78c0-47.729,39.051-86.78,86.78-86.78s86.78,39.051,86.78,86.78v86.78H208.271z
	"/>
<g>
	<path style="fill:#F9A671;" d="M381.831,373.153H208.271c-5.207,0-8.678-3.471-8.678-8.678s3.471-8.678,8.678-8.678h173.559
		c5.207,0,8.678,3.471,8.678,8.678S387.037,373.153,381.831,373.153"/>
	<path style="fill:#F9A671;" d="M381.831,407.864H208.271c-5.207,0-8.678-3.471-8.678-8.678c0-5.207,3.471-8.678,8.678-8.678
		h173.559c5.207,0,8.678,3.471,8.678,8.678C390.508,404.393,387.037,407.864,381.831,407.864"/>
</g>
<path style="fill:#FFFFFF;" d="M295.051,234.305c-47.729,0-86.78,23.431-86.78,52.068h173.559
	C381.831,257.736,342.78,234.305,295.051,234.305"/>
</svg>