<?xml version="1.0" encoding="UTF-8" standalone="no"?>
<!-- Uploaded to: SVG Repo, www.svgrepo.com, Generator: SVG Repo Mixer Tools -->

<svg
   width="800px"
   height="800px"
   viewBox="0 0 36 36"
   aria-hidden="true"
   role="img"
   class="iconify iconify--twemoji"
   preserveAspectRatio="xMidYMid meet"
   version="1.1"
   id="svg15"
   sodipodi:docname="image.svg"
   inkscape:version="1.3.1 (9b9bdc1480, 2023-11-25, custom)"
   xmlns:inkscape="http://www.inkscape.org/namespaces/inkscape"
   xmlns:sodipodi="http://sodipodi.sourceforge.net/DTD/sodipodi-0.dtd"
   xmlns="http://www.w3.org/2000/svg"
   xmlns:svg="http://www.w3.org/2000/svg">
  <defs
     id="defs15" />
  <sodipodi:namedview
     id="namedview15"
     pagecolor="#ffffff"
     bordercolor="#000000"
     borderopacity="0.25"
     inkscape:showpageshadow="2"
     inkscape:pageopacity="0.0"
     inkscape:pagecheckerboard="0"
     inkscape:deskcolor="#d1d1d1"
     inkscape:zoom="1.3525"
     inkscape:cx="400"
     inkscape:cy="400"
     inkscape:window-width="2560"
     inkscape:window-height="1324"
     inkscape:window-x="0"
     inkscape:window-y="0"
     inkscape:window-maximized="1"
     inkscape:current-layer="svg15" />
  <path
     fill="#FFDC5D"
     d="M4 14c.253 3.89 3.521 6.969 7.5 6.969S18.747 17.89 19 14V4H4v10z"
     id="path1"
     style="fill:#ffccaa" />
  <path
     fill="#FFAC33"
     d="M15.538.808c-.333 0-.657.034-.974.09C13.393.328 12.39 0 11 0C6.093 0 2 4.093 2 9v7c.148 5.223 4.241 9.568 9.5 9.568S20.852 21.223 21 16V6C21 2.878 18.661.808 15.538.808zM19 14c-.253 3.89-3.521 6.969-7.5 6.969S4.253 17.89 4 14V9.663c5.328-.155 8.51-2.343 10.237-4.181C14.652 6.957 15.801 9 19 9v5z"
     id="path2" />
  <path
     fill="#9268CA"
     d="M19 22H3c-1.779 0-1.945 1.193-1.945 2.973V36H22V24.973C22 23 21 22 19 22z"
     id="path3" />
  <path
     fill="#7450A8"
     d="M17 26h1.028v10H17zM5 26h1.028v10H5z"
     id="path4" />
  <path
     fill="#FFDC5D"
     d="M9 19v3a2.5 2.5 0 1 0 5 0v-3H9z"
     id="path5"
     style="fill:#ffccaa" />
  <path
     fill="#DA2F47"
     d="M8.269 17.769h6.462s-.808 1.616-3.231 1.616s-3.231-1.616-3.231-1.616z"
     id="path6" />
  <path
     fill="#BF6952"
     d="M12 15.5h-1a.5.5 0 0 1 0-1h1a.5.5 0 0 1 0 1z"
     id="path7" />
  <path
     fill="#662113"
     d="M8 13a1 1 0 0 1-1-1v-1a1 1 0 1 1 2 0v1a1 1 0 0 1-1 1zm7 0a1 1 0 0 1-1-1v-1a1 1 0 1 1 2 0v1a1 1 0 0 1-1 1z"
     id="path8" />
  <path
     fill="#FFDC5D"
     d="M32.994 26.047L32.992 26H33v-6h-3.557c-1.018-.574-2.192-.906-3.446-.906s-2.428.332-3.446.906H19v6h.002l-.002.047c0 3.353 2.39 6.152 5.569 6.807a7.065 7.065 0 0 0 2.863-.002c3.176-.658 5.562-3.454 5.562-6.805z"
     id="path9"
     style="fill:#ffccaa" />
  <path
     fill="#F4900C"
     d="M27.432 32.852c-.264.511-.432.921-.432 1.148c4.656 0 9-3 9-3c-1.125-3.688-1.666-8.139-1.666-8.139A7.86 7.86 0 0 0 26.473 15a7.817 7.817 0 0 0-3.464.812a6.136 6.136 0 0 0-5.545 8.47c-.25 1.611-.733 4.322-1.464 6.718c0 0 4.344 3 9 3c0-.227-.167-.636-.431-1.146C21.39 32.198 19 29.4 19 26.047l.002-.047H19v-3.036c4.856-.18 7.656-1.81 9.204-3.332c1.065 1.257 2.765 2.841 4.796 3.257V26h-.008l.002.047c0 3.351-2.386 6.147-5.562 6.805z"
     id="path10" />
  <path
     fill="#FFDC5D"
     d="M28 35v-4h-4v4h-1v1h6v-1z"
     id="path11"
     style="fill:#ffccaa" />
  <path
     fill="#EA596E"
     d="M26 36h8.818c-.518-1.602-2.159-3-3.818-3h-3l-2 3z"
     id="path12" />
  <path
     fill="#EA596E"
     d="M22 33c-2.493 0-4.276 1.385-4.814 3H26l-2-3h-2z"
     id="path13" />
  <path
     fill="#BF6952"
     d="M29 30h-6s.583 2 3 2s3-2 3-2zm-3-.5a.47.47 0 0 1-.35-.15c-.1-.09-.15-.22-.15-.35s.05-.26.15-.36c.17-.17.52-.18.71.01c.09.09.14.22.14.35s-.05.26-.15.35a.47.47 0 0 1-.35.15z"
     id="path14" />
  <path
     fill="#662113"
     d="M23 28a1 1 0 0 1-1-1v-1a1 1 0 1 1 2 0v1a1 1 0 0 1-1 1zm6 0a1 1 0 0 1-1-1v-1a1 1 0 1 1 2 0v1a1 1 0 0 1-1 1z"
     id="path15" />
</svg>
