<?xml version="1.0" encoding="UTF-8" standalone="no"?>
<!-- Uploaded to: SVG Repo, www.svgrepo.com, Generator: SVG Repo Mixer Tools -->

<svg
   fill="#000000"
   version="1.1"
   id="Layer_1"
   width="800px"
   height="800px"
   viewBox="0 0 260 260"
   xml:space="preserve"
   sodipodi:docname="image.svg"
   inkscape:version="1.4.4 (dcaf3e7d9e, 2026-05-05)"
   xmlns:inkscape="http://www.inkscape.org/namespaces/inkscape"
   xmlns:sodipodi="http://sodipodi.sourceforge.net/DTD/sodipodi-0.dtd"
   xmlns="http://www.w3.org/2000/svg"
   xmlns:svg="http://www.w3.org/2000/svg"><defs
   id="defs1" /><sodipodi:namedview
   id="namedview1"
   pagecolor="#ffffff"
   bordercolor="#000000"
   borderopacity="0.25"
   inkscape:showpageshadow="2"
   inkscape:pageopacity="0.0"
   inkscape:pagecheckerboard="0"
   inkscape:deskcolor="#d1d1d1"
   inkscape:zoom="1.03625"
   inkscape:cx="399.51749"
   inkscape:cy="400"
   inkscape:window-width="1634"
   inkscape:window-height="1036"
   inkscape:window-x="36"
   inkscape:window-y="32"
   inkscape:window-maximized="0"
   inkscape:current-layer="Layer_1" />
<rect
   style="fill:#ff0000;stroke:#000000;stroke-width:4.65504;stroke-dasharray:none;stroke-opacity:1"
   id="rect1"
   width="61.479378"
   height="55.520393"
   x="158.69336"
   y="94.085403" /><path
   d="M130,2C59.3,2,2,59.3,2,130s57.3,128,128,128s128-57.3,128-128S200.7,2,130,2z M58.2,120.2H35.8v-14h66.4v14  c0,0,0,20.4-22,20.4C68.6,140.6,59.1,131.6,58.2,120.2z M160.5,204.9c-20.1-9.2-43.1-9.1-63.1,0.3l-9.4-19.9  c25.9-12.2,55.6-12.3,81.6-0.4L160.5,204.9z M180.3,140.6c-12.2,0-22-9.8-22-22s9.8-22,22-22s22,9.8,22,22S192.5,140.6,180.3,140.6z   M207,81.5c-9.4-5.9-20.3-7.6-30.8-4.9c-10.8,2.9-19.9,10.2-25.6,20.7l-12.3-6.7c7.6-13.9,19.8-23.8,34.4-27.6  c14.2-3.7,29-1.4,41.7,6.5L207,81.5z"
   id="path1"
   style="fill:#ffcc00;stroke:#000000;stroke-opacity:1;stroke-width:5.290025;stroke-dasharray:none" />
</svg>
