<?xml version="1.0" encoding="UTF-8" standalone="no"?>
<!-- Uploaded to: SVG Repo, www.svgrepo.com, Generator: SVG Repo Mixer Tools -->

<svg
   width="800px"
   height="800px"
   viewBox="0 0 128 128"
   aria-hidden="true"
   role="img"
   class="iconify iconify--noto"
   preserveAspectRatio="xMidYMid meet"
   version="1.1"
   id="svg41"
   xmlns="http://www.w3.org/2000/svg"
   xmlns:svg="http://www.w3.org/2000/svg">
  <defs
     id="defs41">
    <radialGradient
       id="IconifyId17ecdb2904d178eab8296-9"
       cx="55.272999"
       cy="22.614"
       r="9.8369999"
       gradientTransform="matrix(0.8651,0.5016,0.3314,-0.5715,50.297299,46.311069)"
       gradientUnits="userSpaceOnUse">
      <stop
         offset=".525"
         stop-color="#6d4c41"
         stop-opacity="0"
         id="stop20-6" />
      <stop
         offset="1"
         stop-color="#6d4c41"
         id="stop21-2" />
    </radialGradient>
    <radialGradient
       id="IconifyId17ecdb2904d178eab8297-1"
       cx="1274.531"
       cy="22.614"
       r="9.342"
       gradientTransform="matrix(-0.8651,0.5016,-0.3314,-0.5715,1183.7463,-565.28593)"
       gradientUnits="userSpaceOnUse">
      <stop
         offset=".525"
         stop-color="#6d4c41"
         stop-opacity="0"
         id="stop22-7" />
      <stop
         offset="1"
         stop-color="#6d4c41"
         id="stop23-8" />
    </radialGradient>
    <radialGradient
       id="IconifyId17ecdb2904d178eab8298"
       cx="46.695"
       cy="43.200001"
       r="23.474001"
       gradientTransform="matrix(1.0432,0,0,-0.9174,-9.203,124.433)"
       gradientUnits="userSpaceOnUse">
      <stop
         offset=".685"
         stop-color="#6d4c41"
         stop-opacity="0"
         id="stop30" />
      <stop
         offset="1"
         stop-color="#6d4c41"
         id="stop31" />
    </radialGradient>
  </defs>
  <linearGradient
     id="IconifyId17ecdb2904d178eab8291"
     gradientUnits="userSpaceOnUse"
     x1="64.001"
     y1="4.226"
     x2="64.001"
     y2="58.852"
     gradientTransform="matrix(1,0,0,-1,25.379448,126.79226)">
    <stop
       offset="0"
       stop-color="#009e89"
       id="stop1" />
    <stop
       offset="1"
       stop-color="#00bfa5"
       id="stop2" />
  </linearGradient>
  <linearGradient
     id="IconifyId17ecdb2904d178eab8292"
     gradientUnits="userSpaceOnUse"
     x1="36.929"
     y1="3.854"
     x2="36.929"
     y2="30.974"
     gradientTransform="matrix(1,0,0,-1,25.379448,126.79226)">
    <stop
       offset=".606"
       stop-color="#ffca28"
       id="stop3" />
    <stop
       offset="1"
       stop-color="#ffb300"
       id="stop4" />
  </linearGradient>
  <linearGradient
     id="IconifyId17ecdb2904d178eab8293"
     gradientUnits="userSpaceOnUse"
     x1="91.071"
     y1="3.854"
     x2="91.071"
     y2="30.974"
     gradientTransform="matrix(1,0,0,-1,25.379448,126.79226)">
    <stop
       offset=".606"
       stop-color="#ffca28"
       id="stop5" />
    <stop
       offset="1"
       stop-color="#ffb300"
       id="stop6" />
  </linearGradient>
  <radialGradient
     id="IconifyId17ecdb2904d178eab8294"
     cx="64.07"
     cy="95.612"
     r="24.934"
     gradientTransform="matrix(1.199967,0,0,-1.8217915,13.21218,222.36036)"
     gradientUnits="userSpaceOnUse">
    <stop
       offset=".794"
       stop-color="#6d4c41"
       stop-opacity="0"
       id="stop13" />
    <stop
       offset="1"
       stop-color="#6d4c41"
       id="stop14" />
  </radialGradient>
  <radialGradient
     id="IconifyId17ecdb2904d178eab8295"
     cx="64.353"
     cy="4.671"
     r="61.31"
     gradientTransform="matrix(1 0 0 -.9433 0 127.73)"
     gradientUnits="userSpaceOnUse">
    <stop
       offset="0"
       stop-color="#212121"
       id="stop15" />
    <stop
       offset=".574"
       stop-color="#616161"
       stop-opacity=".05"
       id="stop16" />
  </radialGradient>
  <path
     d="m 61.176819,56.304404 0.62,-2.92 -5.39,1.35 c 0,0 -0.38,-5.2 4.26,-8.2 5.09,-3.29 10.94,0.22 10.94,0.22 0,0 -0.58,3.93 -4.06,7.3 -2.35,2.26 -6.37,2.25 -6.37,2.25 z"
     fill="#543930"
     id="path19" />
  <path
     d="m 113.40955,57.126699 -0.62,-2.92 5.39,1.35 c 0,0 0.38,-5.2 -4.26,-8.2 -5.09,-3.29 -10.94,0.22 -10.94,0.22 0,0 0.58,3.93 4.06,7.3 2.35,2.26 6.37,2.25 6.37,2.25 z"
     fill="#543930"
     id="path20" />
  <path
     d="m 100.58945,66.19226 c -1.830002,-0.43 -6.520002,-0.65 -11.210002,-0.65 -4.69,0 -9.38,0.22 -11.21,0.65 -11.23,2.67 -20.86,9.43 -20.86,25.43 v 31.17 h 64.140002 v -31.17 c 0,-16 -9.63,-22.76 -20.86,-25.43 z"
     fill="url(#IconifyId17ecdb2904d178eab8291)"
     id="path2"
     style="fill:#de8787" />
  <path
     d="m 89.379448,72.91226 c -3.87,0 -7,-3.13 -7,-7 v -6.42 h 14 v 6.42 c 0,3.87 -3.13,7 -7,7 z"
     fill="#e59600"
     id="path3" />
  <path
     fill="url(#IconifyId17ecdb2904d178eab8292)"
     d="m 57.309448,95.61226 v 27.18 h 10 v -27.18 z"
     id="path4"
     style="fill:url(#IconifyId17ecdb2904d178eab8292)" />
  <path
     fill="url(#IconifyId17ecdb2904d178eab8293)"
     d="m 111.44945,95.61226 v 27.18 h 10 v -27.18 z"
     id="path6"
     style="fill:url(#IconifyId17ecdb2904d178eab8293)" />
  <path
     d="M 107.40945,33.53226 H 71.349448 c -3.89,0 -7.07,3.39 -7.07,7.53 0,4.14 3.18,7.53 7.07,7.53 h 36.050002 c 3.89,0 7.07,-3.39 7.07,-7.53 0,-4.14 -3.18,-7.53 -7.06,-7.53 z"
     fill="#e59600"
     id="path7"
     style="fill:#ffccaa" />
  <path
     d="m 89.379448,6.9022599 c -11.48,0 -22.11,12.2800001 -22.11,29.9400001 0,17.57 10.95,26.26 22.11,26.26 11.160002,0 22.110002,-8.69 22.110002,-26.26 0,-17.66 -10.63,-29.9400001 -22.110002,-29.9400001 z"
     fill="#ffca28"
     id="path8"
     style="fill:#ffccaa" />
  <path
     d="m 94.929448,50.33226 c -2.1,1.25 -8.99,1.25 -11.09,0 -1.21,-0.72 -2.44,0.38 -1.94,1.48 0.49,1.08 4.25,3.58 7.5,3.58 3.25,0 6.96,-2.5 7.45,-3.58 0.51,-1.1 -0.71,-2.2 -1.92,-1.48 z"
     fill="#795548"
     id="path9" />
  <path
     d="m 91.919448,44.99226 a 0.537,0.537 0 0 0 -0.21,-0.05 h -4.67 c -0.07,0.01 -0.14,0.03 -0.21,0.05 -0.42,0.17 -0.66,0.61 -0.46,1.08 0.2,0.47 1.13,1.78 3,1.78 1.87,0 2.8,-1.31 3,-1.78 0.21,-0.47 -0.02,-0.91 -0.45,-1.08 z"
     fill="#e59600"
     id="path10"
     style="fill:#ffb380" />
  <g
     fill="#404040"
     id="g11"
     transform="translate(25.379448,-1.2077401)">
    <ellipse
       cx="53.16"
       cy="40.169998"
       rx="3.25"
       ry="3.3699999"
       id="ellipse10" />
    <ellipse
       cx="74.839996"
       cy="40.169998"
       rx="3.25"
       ry="3.3699999"
       id="ellipse11" />
  </g>
  <g
     fill="#6d4c41"
     id="g12"
     transform="translate(25.379448,-1.2077401)">
    <path
       d="m 48.16,34.51 c 0,0 1.78,-2.35 4.97,-2.35 3.19,0 5.01,2.38 5.01,2.38 a 1.04,1.04 0 0 1 -1.18,1.59 c 0,0 -0.97,-0.44 -1.88,-0.66 -0.91,-0.22 -1.91,-0.29 -2.9,-0.18 -1.5,0.17 -2.73,0.81 -2.73,0.81 -0.95,0.39 -1.87,-0.73 -1.29,-1.59 z"
       id="path11" />
    <path
       d="m 79.84,34.51 c 0,0 -1.79,-2.35 -4.97,-2.35 -3.18,0 -5.01,2.38 -5.01,2.38 a 1.04,1.04 0 0 0 1.18,1.59 c 0,0 0.97,-0.44 1.88,-0.66 0.91,-0.22 1.91,-0.29 2.9,-0.18 1.5,0.17 2.73,0.81 2.73,0.81 0.95,0.39 1.87,-0.73 1.29,-1.59 z"
       id="path12" />
  </g>
  <radialGradient
     id="IconifyId17ecdb2904d178eab8296"
     cx="55.273"
     cy="22.614"
     r="9.837"
     gradientTransform="matrix(.8651 .5016 .3314 -.5715 -.039 90.583)"
     gradientUnits="userSpaceOnUse">
    <stop
       offset=".525"
       stop-color="#6d4c41"
       stop-opacity="0"
       id="stop20" />
    <stop
       offset="1"
       stop-color="#6d4c41"
       id="stop21" />
  </radialGradient>
  <radialGradient
     id="IconifyId17ecdb2904d178eab8297"
     cx="1274.531"
     cy="22.614"
     r="9.342"
     gradientTransform="matrix(-.8651 .5016 -.3314 -.5715 1133.41 -521.014)"
     gradientUnits="userSpaceOnUse">
    <stop
       offset=".525"
       stop-color="#6d4c41"
       stop-opacity="0"
       id="stop22" />
    <stop
       offset="1"
       stop-color="#6d4c41"
       id="stop23" />
  </radialGradient>
  <g
     id="g42"
     transform="translate(-61.11032,-1.9479538)">
    <g
       id="g32">
      <path
         d="m 110.23,121.98 c 0,-9.84 -12.51,-13.14 -16.87,-13.14 h -9.38 c -4.35,0 -16.88,3.3 -16.88,13.14 0,0 -0.01,0.79 -0.03,2.02 h 43.18 z"
         fill="#b2ebf2"
         id="path32" />
    </g>
    <g
       id="g33">
      <path
         d="m 88.67,116.3 a 4.69,4.69 0 0 1 -4.69,-4.69 v -3.6 h 9.39 v 3.6 a 4.705,4.705 0 0 1 -4.7,4.69 z"
         fill="#e59600"
         id="path33" />
    </g>
    <g
       id="g34"
       style="fill:#ffccaa">
      <path
         d="M 103.4,89.21 H 73.93 c -3.18,0 -5.78,2.5 -5.78,5.56 0,3.06 2.6,5.56 5.78,5.56 h 29.47 c 3.18,0 5.78,-2.5 5.78,-5.56 0,-3.06 -2.6,-5.56 -5.78,-5.56 z"
         fill="#e59600"
         id="path34"
         style="fill:#ffccaa" />
    </g>
    <path
       d="m 88.67,66.27 c -9.33,0 -17.96,9.8 -17.96,23.9 0,14.02 8.9,20.96 17.96,20.96 9.06,0 17.96,-6.93 17.96,-20.96 0,-14.11 -8.64,-23.9 -17.96,-23.9 z"
       fill="#ffca28"
       id="path35"
       style="fill:#ffccaa" />
    <path
       d="m 92.99,100.89 c -1.64,0.97 -7,0.97 -8.64,0 -0.94,-0.56 -1.9,0.3 -1.51,1.15 0.38,0.84 3.31,2.79 5.84,2.79 2.53,0 5.42,-1.95 5.8,-2.79 0.4,-0.86 -0.55,-1.71 -1.49,-1.15 z"
       fill="#795548"
       id="path36" />
    <path
       d="m 90.65,96.72 a 0.471,0.471 0 0 0 -0.17,-0.04 h -3.63 c -0.06,0.01 -0.11,0.02 -0.17,0.04 -0.33,0.13 -0.51,0.47 -0.36,0.84 0.15,0.37 0.88,1.38 2.34,1.38 1.46,0 2.18,-1.02 2.34,-1.38 0.16,-0.37 -0.02,-0.71 -0.35,-0.84 z"
       fill="#e59600"
       id="path37"
       style="fill:#ffb380" />
    <g
       fill="#404040"
       id="g38">
      <ellipse
         cx="80.120003"
         cy="94.07"
         rx="2.53"
         ry="2.6199999"
         id="ellipse37" />
      <ellipse
         cx="97.209999"
         cy="94.07"
         rx="2.53"
         ry="2.6199999"
         id="ellipse38" />
    </g>
    <g
       fill="#6d4c41"
       id="g39">
      <path
         d="m 76.17,89.41 c 0.1,-0.13 0.13,-0.21 0.31,-0.39 0.39,-0.42 1.18,-0.92 1.94,-1.18 0.73,-0.25 1.07,-0.25 1.62,-0.25 0.85,0 1.37,0.18 1.62,0.25 0.35,0.12 0.68,0.28 1.01,0.46 0.55,0.33 1.74,1.14 1.38,1.87 -0.4,0.81 -1.01,0.51 -1.56,0.3 -0.24,-0.07 -1.32,-0.5 -2.46,-0.5 -0.62,0 -0.88,0.07 -1.04,0.09 -0.73,0.12 -1.28,0.35 -1.38,0.38 -0.38,0.15 -0.65,0.37 -1.07,0.2 -0.47,-0.2 -0.66,-0.8 -0.37,-1.23 z"
         id="path38" />
      <path
         d="m 101.16,89.41 c -0.1,-0.13 -0.13,-0.21 -0.31,-0.39 -0.39,-0.42 -1.18,-0.92 -1.94,-1.18 -0.73,-0.25 -1.07,-0.25 -1.62,-0.25 -0.85,0 -1.37,0.18 -1.62,0.25 -0.35,0.12 -0.68,0.28 -1.01,0.46 -0.55,0.33 -1.74,1.14 -1.38,1.87 0.4,0.81 1.01,0.51 1.56,0.3 0.24,-0.07 1.32,-0.5 2.46,-0.5 0.62,0 0.88,0.07 1.04,0.09 0.73,0.12 1.28,0.35 1.38,0.38 0.38,0.15 0.65,0.37 1.07,0.2 0.47,-0.2 0.66,-0.8 0.37,-1.23 z"
         id="path39" />
    </g>
    <g
       id="g41">
      <path
         d="m 88.77,64.16 c -19.93,0 -21.32,16.28 -20.51,23.4 0.71,6.29 3.99,7.84 3.99,7.84 0,0 -0.64,-5.49 0.4,-9.47 0.83,-3.16 2.8,-5.5 2.8,-5.5 0,0 3.6,3.12 10.3,5.15 3.23,0.98 7.37,0.49 7.37,0.49 l -2.32,-4.1 c 0,0 3.8,2.79 6.16,3.32 3.03,0.68 5.25,0.39 5.25,0.39 l -1.11,-4.33 c 0,0 1.93,1.26 3.37,4.71 1.44,3.45 0.55,9.34 0.55,9.34 0,0 3.46,-1.54 4.02,-7.84 0.7,-7.89 -0.42,-23.4 -20.27,-23.4 z"
         fill="#543930"
         id="path40" />
      <radialGradient
         id="IconifyId17ecdb2904d178eab8299"
         cx="39.352001"
         cy="33.259998"
         r="23.080999"
         gradientTransform="matrix(0,1.1138,-0.9718,0,120.91,42.187)"
         gradientUnits="userSpaceOnUse">
        <stop
           offset=".794"
           stop-color="#6d4c41"
           stop-opacity="0"
           id="stop40" />
        <stop
           offset="1"
           stop-color="#6d4c41"
           id="stop41" />
      </radialGradient>
      <path
         d="m 88.77,64.16 c -19.93,0 -21.32,16.28 -20.51,23.4 0.71,6.29 3.99,7.84 3.99,7.84 0,0 -0.64,-5.49 0.4,-9.47 0.83,-3.16 2.8,-5.5 2.8,-5.5 0,0 3.6,3.12 10.3,5.15 3.23,0.98 7.37,0.49 7.37,0.49 l -2.32,-4.1 c 0,0 3.8,2.79 6.16,3.32 3.03,0.68 5.25,0.39 5.25,0.39 l -1.11,-4.33 c 0,0 1.93,1.26 3.37,4.71 1.44,3.45 0.55,9.34 0.55,9.34 0,0 3.46,-1.54 4.02,-7.84 0.7,-7.89 -0.42,-23.4 -20.27,-23.4 z"
         fill="url(#IconifyId17ecdb2904d178eab8299)"
         id="path41"
         style="fill:url(#IconifyId17ecdb2904d178eab8299)" />
    </g>
  </g>
  <g
     id="g31"
     transform="matrix(1.190465,0,0,1.2138285,42.506229,-74.118684)">
    <path
       d="M 54.93,69.92 C 52.6,67.49 50.37,66.6 50.15,66.57 47.44,65.33 43.95,64.32 39.43,64.32 19.55,64.32 18.2,80.52 19,87.65 c 0.7,6.29 4.37,7.84 4.37,7.84 l -0.6,-7.11 c 0,0 7.11,-2.18 11.04,-4.83 3.87,-2.61 5.48,-4.39 5.48,-4.39 0,0 1.2,1.28 5.44,4.34 4.4,3.18 11.04,4.92 11.04,4.92 l -0.51,7.07 c 0,0 3.85,-1.54 4.4,-7.84 0.7,-7.89 -0.24,-12.61 -4.73,-17.73 z"
       fill="#543930"
       id="path30" />
    <radialGradient
       id="radialGradient2"
       cx="46.695"
       cy="43.200001"
       r="23.474001"
       gradientTransform="matrix(1.0432,0,0,-0.9174,-9.203,124.433)"
       gradientUnits="userSpaceOnUse">
      <stop
         offset=".685"
         stop-color="#6d4c41"
         stop-opacity="0"
         id="stop1-5" />
      <stop
         offset="1"
         stop-color="#6d4c41"
         id="stop2-7" />
    </radialGradient>
    <path
       d="M 54.93,69.92 C 52.6,67.49 50.37,66.6 50.15,66.57 47.44,65.33 43.95,64.32 39.43,64.32 19.55,64.32 18.2,80.52 19,87.65 c 0.7,6.29 4.37,7.84 4.37,7.84 l -0.6,-7.11 c 0,0 7.11,-2.18 11.04,-4.83 3.87,-2.61 5.48,-4.39 5.48,-4.39 0,0 1.2,1.28 5.44,4.34 4.4,3.18 11.04,4.92 11.04,4.92 l -0.51,7.07 c 0,0 3.85,-1.54 4.4,-7.84 0.7,-7.89 -0.24,-12.61 -4.73,-17.73 z"
       fill="url(#IconifyId17ecdb2904d178eab8298)"
       id="path31"
       style="fill:url(#IconifyId17ecdb2904d178eab8298)" />
  </g>
</svg>
