<?xml version="1.0" encoding="UTF-8" standalone="no"?>
<!-- Uploaded to: SVG Repo, www.svgrepo.com, Generator: SVG Repo Mixer Tools -->

<svg
   width="800px"
   height="800px"
   viewBox="0 0 128 128"
   aria-hidden="true"
   role="img"
   class="iconify iconify--noto"
   preserveAspectRatio="xMidYMid meet"
   version="1.1"
   id="svg18"
   sodipodi:docname="image.svg"
   inkscape:version="1.4.4 (dcaf3e7d9e, 2026-05-05)"
   xmlns:inkscape="http://www.inkscape.org/namespaces/inkscape"
   xmlns:sodipodi="http://sodipodi.sourceforge.net/DTD/sodipodi-0.dtd"
   xmlns:xlink="http://www.w3.org/1999/xlink"
   xmlns="http://www.w3.org/2000/svg"
   xmlns:svg="http://www.w3.org/2000/svg">
  <sodipodi:namedview
     id="namedview18"
     pagecolor="#ffffff"
     bordercolor="#000000"
     borderopacity="0.25"
     inkscape:showpageshadow="2"
     inkscape:pageopacity="0.0"
     inkscape:pagecheckerboard="0"
     inkscape:deskcolor="#d1d1d1"
     inkscape:zoom="1.03625"
     inkscape:cx="399.51749"
     inkscape:cy="400"
     inkscape:window-width="1734"
     inkscape:window-height="1036"
     inkscape:window-x="36"
     inkscape:window-y="32"
     inkscape:window-maximized="0"
     inkscape:current-layer="svg18" />
  <radialGradient
     id="IconifyId17ecdb2904d178eab7430"
     cx="62.596"
     cy="83.067"
     r="35.101"
     gradientTransform="matrix(.9722 .2342 -.3166 1.3142 28.036 -40.758)"
     gradientUnits="userSpaceOnUse">
    <stop
       stop-color="#FFB300"
       offset="0"
       id="stop1" />
    <stop
       stop-color="#FFCA28"
       offset=".689"
       id="stop2" />
    <stop
       stop-color="#FFB300"
       offset="1"
       id="stop3" />
  </radialGradient>
  <path
     d="M63.78 122.64c-25.12 0-37.33-12.86-37.33-39.31V61.05c0-.8.06-1.29.12-1.59c.73.42 2.08 1.58 3.11 2.48c3.42 2.96 8.09 7 13.48 7h29.69c.48 0 1.2-.01 2.09-.03c1.45-.03 3.37-.07 5.51-.07c16.66 0 17.85 2.49 17.93 2.77c.28.97.65 1.96 1.04 3c1.11 2.95 2.36 6.28 2.36 11.13c0 13.78-4.93 36.9-38 36.9z"
     fill="url(#IconifyId17ecdb2904d178eab7430)"
     id="path3" />
  <path
     d="M27.95 62.43c.26.22.51.44.75.64c3.59 3.11 8.52 7.37 14.46 7.37h29.69c.49 0 1.21-.01 2.12-.03c1.42-.03 3.36-.07 5.49-.07c13.01 0 15.99 1.53 16.57 1.96c.28.93.63 1.86 1 2.84c1.06 2.83 2.27 6.03 2.27 10.6c0 7-1.34 16.92-7.7 24.44c-6.15 7.27-15.84 10.96-28.8 10.96c-13.08 0-22.64-3.65-28.42-10.86c-4.92-6.14-7.41-15.2-7.41-26.94V62.43m-1.76-4.62c-.81 0-1.26.9-1.26 3.24v22.28c0 22.44 8.58 40.81 38.83 40.81s39.5-19.25 39.5-38.4c0-6.91-2.47-11.05-3.46-14.54c-.95-3.34-11.58-3.86-19.37-3.86c-3.45 0-6.35.1-7.6.1H43.16c-7.67.01-14.28-9.63-16.95-9.63z"
     fill="#EDA600"
     id="path4" />
  <radialGradient
     id="IconifyId17ecdb2904d178eab7431"
     cx="1697.9"
     cy="-795.66"
     r="22.669"
     gradientTransform="matrix(-.808 -.266 -.6312 1.9172 959.46 1992.5)"
     gradientUnits="userSpaceOnUse">
    <stop
       stop-color="#FFCA28"
       offset="0"
       id="stop4" />
    <stop
       stop-color="#FFB300"
       offset=".5"
       id="stop5" />
  </radialGradient>
  <path
     d="M71.37 80.08c-.88 0-1.76-.14-2.61-.42c-4.36-1.44-6.75-6.16-5.31-10.52l19.11-58.05a8.316 8.316 0 0 1 10.52-5.31c4.36 1.44 6.75 6.16 5.31 10.52l-19.1 58.05a8.332 8.332 0 0 1-7.92 5.73z"
     fill="url(#IconifyId17ecdb2904d178eab7431)"
     id="path5" />
  <path
     d="M90.48 6.86c.72 0 1.44.12 2.14.35c1.73.57 3.14 1.78 3.96 3.41s.96 3.48.39 5.21L77.86 73.88a6.824 6.824 0 0 1-6.49 4.7c-.72 0-1.44-.12-2.14-.35c-1.73-.57-3.14-1.78-3.96-3.41s-.96-3.48-.39-5.21l19.11-58.05c.93-2.81 3.53-4.7 6.49-4.7m0-3c-4.13 0-7.98 2.62-9.34 6.76L62.03 68.67c-1.7 5.16 1.11 10.72 6.26 12.41c1.02.34 2.06.5 3.08.5c4.13 0 7.98-2.62 9.34-6.76l19.11-58.05c1.7-5.16-1.11-10.72-6.26-12.41c-1.02-.34-2.06-.5-3.08-.5z"
     fill="#EDA600"
     id="path6" />
  <radialGradient
     id="IconifyId17ecdb2904d178eab7432"
     cx="-137.01"
     cy="-38.954"
     r="21.561"
     gradientTransform="matrix(.0108 1.05 -.6645 .0104 30.069 194.26)"
     gradientUnits="userSpaceOnUse">
    <stop
       stop-color="#FFCA28"
       offset=".599"
       id="stop6" />
    <stop
       stop-color="#FFB300"
       offset="1"
       id="stop7" />
  </radialGradient>
  <path
     d="M54.73 79.11c-4.72 0-8.56-3.84-8.56-8.56V52.1c0-4.72 3.84-8.56 8.56-8.56s8.56 3.84 8.56 8.56v18.45c0 4.72-3.84 8.56-8.56 8.56z"
     fill="url(#IconifyId17ecdb2904d178eab7432)"
     id="path7" />
  <path
     d="M54.73 45.05c3.89 0 7.06 3.17 7.06 7.06v18.45c0 3.89-3.17 7.06-7.06 7.06s-7.06-3.17-7.06-7.06V52.1c0-3.89 3.17-7.05 7.06-7.05m0-3c-5.55 0-10.06 4.5-10.06 10.06v18.45c0 5.55 4.5 10.06 10.06 10.06c5.55 0 10.06-4.5 10.06-10.06V52.1c0-5.55-4.5-10.05-10.06-10.05z"
     fill="#EDA600"
     id="path8" />
  <radialGradient
     id="IconifyId17ecdb2904d178eab7433"
     cx="-140.77"
     cy="-33.31"
     r="18.218"
     gradientTransform="matrix(-.00188 1.0497 -.6804 -.0018 11.585 203.66)"
     gradientUnits="userSpaceOnUse">
    <stop
       stop-color="#FFCA28"
       offset=".599"
       id="stop8" />
    <stop
       stop-color="#FFB300"
       offset="1"
       id="stop9" />
  </radialGradient>
  <path
     d="M34.71 80.28c-4.68 0-8.49-3.81-8.49-8.49V57.71c0-4.68 3.81-8.49 8.49-8.49s8.49 3.81 8.49 8.49v14.08c0 4.68-3.81 8.49-8.49 8.49z"
     fill="url(#IconifyId17ecdb2904d178eab7433)"
     id="path9" />
  <path
     d="M34.71 50.72c3.85 0 6.99 3.14 6.99 6.99v14.08c0 3.85-3.14 6.99-6.99 6.99s-6.99-3.14-6.99-6.99V57.71c0-3.85 3.13-6.99 6.99-6.99m0-3c-5.52 0-9.99 4.47-9.99 9.99v14.08c0 5.52 4.47 9.99 9.99 9.99s9.99-4.47 9.99-9.99V57.71c0-5.52-4.48-9.99-9.99-9.99z"
     fill="#EDA600"
     id="path10" />
  <defs
     id="defs10">
    <path
       id="IconifyId17ecdb2904d178eab7434"
       d="M91.99 77.98c-6.22 1.86-10.31.81-10.31.81L61.31 16.91c-1.7-5.16 1.11-10.72 6.26-12.41c5.16-1.7 10.72 1.11 12.41 6.26l20.37 61.88c.89 2.69-1.42 5.24-1.42 5.24L97.7 74.4c.02.01-2.48 2.62-5.71 3.58z" />
  </defs>
  <clipPath
     id="IconifyId17ecdb2904d178eab7435">
    <use
       xlink:href="#IconifyId17ecdb2904d178eab7434"
       id="use10" />
  </clipPath>
  <g
     clip-path="url(#IconifyId17ecdb2904d178eab7435)"
     id="g15">
    <radialGradient
       id="IconifyId17ecdb2904d178eab7436"
       cx="-752.81"
       cy="-1177.3"
       r="88.77"
       gradientTransform="matrix(.659 2.0141 -.1346 .0426 404.49 1568.2)"
       gradientUnits="userSpaceOnUse">
      <stop
         stop-color="#FFCA28"
         offset="0"
         id="stop10" />
      <stop
         stop-color="#FFC41E"
         offset=".112"
         id="stop11" />
      <stop
         stop-color="#FFBB0D"
         offset=".369"
         id="stop12" />
      <stop
         stop-color="#FFB503"
         offset=".65"
         id="stop13" />
      <stop
         stop-color="#FFB300"
         offset="1"
         id="stop14" />
    </radialGradient>
    <path
       d="M91.02 84.05c-3.61 0-6.79-2.3-7.91-5.73L62.73 16.44c-.7-2.11-.53-4.37.48-6.36c1-1.99 2.72-3.46 4.83-4.16a8.316 8.316 0 0 1 10.52 5.31l20.37 61.88c.7 2.11.53 4.37-.48 6.36c-1 1.99-2.72 3.46-4.83 4.16c-.84.28-1.72.42-2.6.42z"
       fill="url(#IconifyId17ecdb2904d178eab7436)"
       id="path14" />
    <path
       d="M70.65 7c2.96 0 5.56 1.89 6.49 4.7l20.37 61.88a6.84 6.84 0 0 1-4.35 8.63c-.7.23-1.42.35-2.14.35c-2.96 0-5.56-1.89-6.49-4.7L64.16 15.98a6.84 6.84 0 0 1 4.35-8.63c.7-.23 1.42-.35 2.14-.35m0-3c-1.02 0-2.06.16-3.08.5c-5.16 1.7-7.96 7.26-6.26 12.41l20.37 61.88c1.36 4.14 5.21 6.76 9.34 6.76c1.02 0 2.06-.16 3.08-.5c5.16-1.7 7.96-7.26 6.26-12.41L79.99 10.76A9.856 9.856 0 0 0 70.65 4z"
       fill="#EDA600"
       id="path15" />
  </g>
  <path
     d="M87.89 89.9c-3.71-1.09-7.79-1.48-11.37.26c-3.7 1.8-5.57 5.42-7.06 9.06c-.73 1.79 2.17 2.56 2.89.8c1.23-3 2.8-6.05 5.96-7.35c2.85-1.18 5.91-.72 8.78.13c1.86.54 2.65-2.35.8-2.9z"
     fill="#EDA600"
     id="path16" />
  <defs
     id="defs16">
    <path
       id="IconifyId17ecdb2904d178eab7437"
       d="M54.83 70.24c-7.26 0-8.46 7.56-6.72 11.88c1.73 4.32 6.89 7.33 11.49 6.91c16.48-1.51 20.62.94 22.77 5.4c2.96 6.16 6.51 6.47 10.12 6.07c5.28-.58 6.98-9.89 7.2-18.93c.26-10.22-20.14-13.7-20.14-13.7s-21.25 2.37-24.72 2.37z" />
  </defs>
  <clipPath
     id="IconifyId17ecdb2904d178eab7438">
    <use
       xlink:href="#IconifyId17ecdb2904d178eab7437"
       id="use16" />
  </clipPath>
  <g
     clip-path="url(#IconifyId17ecdb2904d178eab7438)"
     id="g18">
    <radialGradient
       id="IconifyId17ecdb2904d178eab7439"
       cx="69.661"
       cy="65.901"
       r="47.633"
       gradientUnits="userSpaceOnUse">
      <stop
         stop-color="#FFCA28"
         offset=".356"
         id="stop16" />
      <stop
         stop-color="#FFB300"
         offset=".505"
         id="stop17" />
    </radialGradient>
    <path
       d="M93.38 103.44c-2.97-.05-6.94-4.02-9.66-9.66c-2.32-4.82-6.69-6.7-15.61-6.7c-2.5 0-5.32.15-8.65.45c-.24.02-.49.03-.73.03c-3.82 0-7.88-2.64-9.23-6.01c-.84-2.09-.91-5.35.58-7.55c1.02-1.5 2.62-2.27 4.75-2.27c3.34 0 22.08-2.07 24.63-2.36c6.85 1.63 23.91 7.24 24.62 14.6c.76 7.99-.25 13.58-3.01 16.62c-1.73 1.91-4.15 2.83-7.39 2.83l-.3.02z"
       fill="url(#IconifyId17ecdb2904d178eab7439)"
       id="path17" />
    <path
       d="M79.36 70.91c1.55.39 6.59 1.73 11.66 3.89c7.07 3.02 11.29 6.42 11.57 9.33c.72 7.55-.16 12.75-2.63 15.47c-1.43 1.58-3.49 2.34-6.28 2.34h-.27c-2.03-.04-5.7-3.34-8.33-8.81c-2.58-5.36-7.49-7.54-16.96-7.54c-2.54 0-5.42.15-8.79.46c-.19.02-.39.03-.6.03c-3.25 0-6.7-2.23-7.84-5.07c-.67-1.68-.75-4.4.43-6.15c.73-1.08 1.88-1.61 3.51-1.61c3.34-.01 20.73-1.92 24.53-2.34m.19-3.04s-21.25 2.38-24.72 2.38c-7.26 0-8.46 7.56-6.72 11.88c1.63 4.05 6.26 6.95 10.62 6.95c.29 0 .58-.01.87-.04c3.31-.3 6.12-.45 8.51-.45c9.55 0 12.54 2.28 14.25 5.85c2.96 6.16 7.36 10.45 10.98 10.51h.32c12.05 0 12.76-12.1 11.9-21.1c-.96-10.18-26.01-15.98-26.01-15.98z"
       fill="#EDA600"
       id="path18" />
  </g>
  <g
     id="g12"
     transform="matrix(0.24554476,0,0,0.25847451,-31.432053,-34.695676)">
    <path
       style="fill:#e24642"
       d="m 356.174,234.512 c 0,16.173 -6.764,30.779 -17.643,41.236 L 255.996,357.287 232.703,274.782 256,194.603 c 10.592,-10.863 25.455,-17.63 41.933,-17.63 32.165,10e-4 58.241,25.762 58.241,57.539 z"
       id="path11" />
    <path
       style="fill:#f15d4a"
       d="m 214.067,176.974 c -32.165,0 -58.241,25.761 -58.241,57.538 0,16.173 6.764,30.779 17.635,41.236 L 255.997,357.287 256,194.603 C 245.408,183.74 230.537,176.974 214.067,176.974 Z"
       id="path12" />
  </g>
</svg>
