<?xml version="1.0" encoding="UTF-8" standalone="no"?>
<!-- Uploaded to: SVG Repo, www.svgrepo.com, Generator: SVG Repo Mixer Tools -->

<svg
   width="800px"
   height="800px"
   viewBox="0 -6.13 82.251 82.251"
   version="1.1"
   id="svg1"
   xmlns="http://www.w3.org/2000/svg"
   xmlns:svg="http://www.w3.org/2000/svg"
   xmlns:rdf="http://www.w3.org/1999/02/22-rdf-syntax-ns#"
   xmlns:cc="http://creativecommons.org/ns#"
   xmlns:dc="http://purl.org/dc/elements/1.1/">
  <defs
     id="defs1" />
  <metadata
     id="metadata1">
    <rdf:RDF>
      <cc:Work>
        <dc:subject>
                    Miscellaneous
                </dc:subject>
        <dc:identifier>
                    healthy
                </dc:identifier>
        <dc:format>
                    image/svg+xml
                </dc:format>
        <dc:publisher>
                    Amido Limited
                </dc:publisher>
        <dc:creator>
                    Richard Slater
                </dc:creator>
        <dc:type
           rdf:resource="http://purl.org/dc/dcmitype/StillImage" />
      </cc:Work>
    </rdf:RDF>
  </metadata>
  <path
     d="M 4.7058266,24.511297 C 4.1198759,19.625718 6.8543128,11.794423 8.1564256,1.2329496 8.4168482,-0.63506574 17.271216,-2.6467752 21.437977,-2.6467752 c 1.04169,0 1.95317,5.3885068 1.692747,7.256523 -0.195318,1.3650879 -1.95317,1.0058539 -1.95317,1.0058539 -0.58595,1.796169 -2.343803,1.0777013 -2.343803,1.0777013 -0.520845,1.5087824 -2.08338,0.7903143 -2.08338,0.7903143 -0.651056,1.4369346 -2.083381,0.7184681 -2.083381,0.7184681 -1.302113,6.2506666 1.106796,5.6758926 2.864648,15.0878176 0,0 0.520846,-0.07184 1.888064,-3.161257 5.599085,-12.4294879 25.26099,-8.477918 24.089088,4.88558 -0.260422,2.945716 2.604225,7.831296 -8.007994,11.49548 -8.398628,2.873871 -18.68532,-2.65833 -18.68532,-2.65833 C 13.299772,35.072771 6.463679,35.000924 6.268362,32.127054 6.0730452,28.750256 5.0313548,27.025934 4.7058266,24.511297"
     fill="#8a6859"
     id="path1-7"
     style="fill:#e9c6af;stroke-width:0.683931" />
  <path
     d="M 50.12227,71.226994 C 46.196177,68.981158 40.409045,64.274011 35.966228,59.712774 29.112852,52.676663 25.075909,46.101773 23.837369,39.958669 23.518911,38.37911 23.484026,35.18853 23.770039,33.799835 c 0.539531,-2.619734 1.649366,-4.909127 3.491989,-7.203553 1.345473,-1.675411 3.464574,-3.068021 5.464031,-3.590975 1.282459,-0.335376 3.839136,-0.360755 5.197267,-0.05174 4.155726,0.946142 8.398012,3.774359 12.083718,8.055872 0.599686,0.696689 1.131835,1.239709 1.182556,1.206849 0.0507,-0.03286 0.378034,-0.453809 0.727365,-0.935375 2.962446,-4.083796 7.305355,-7.062118 11.840628,-8.120261 1.145833,-0.26728 4.493767,-0.262246 5.513886,0.0084 2.677646,0.710253 4.669415,2.198784 6.432509,4.807333 1.36965,2.026447 2.160648,4.005913 2.528627,6.327884 0.242646,1.53111 0.166961,4.174755 -0.166587,5.818844 -1.083126,5.338887 -4.574049,11.388656 -10.06924,17.45017 -4.17866,4.609268 -9.66397,9.403737 -14.29465,12.49427 -0.96091,0.641318 -2.637119,1.615914 -2.767236,1.608923 -0.01626,0 -0.381951,-0.203169 -0.812631,-0.449545 z m 6.550314,-24.735173 c 4.518012,-6.08864 6.334325,-8.617348 6.334325,-8.818769 0,-0.2268 -0.248629,-0.484781 -1.263944,-1.31158 -1.271813,-1.035631 -1.590843,-1.179723 -1.898281,-0.857072 -0.0911,0.09557 -2.400136,3.194146 -5.131176,6.885727 -2.731046,3.691511 -4.998019,6.711851 -5.037721,6.711851 -0.03971,0 -1.41704,-1.523838 -3.060743,-3.386408 -1.753673,-1.987156 -3.067352,-3.386408 -3.179255,-3.386408 -0.187527,0 -2.439497,2.095662 -2.62426,2.442084 -0.05303,0.09949 -0.0541,0.265742 -0.0027,0.378722 0.0507,0.110814 2.124431,2.496687 4.608267,5.301903 l 4.516066,5.100481 0.202391,-0.262037 c 0.11131,-0.144162 3.052829,-4.103442 6.53671,-8.798494 z"
     fill="#00bcf2"
     id="path1"
     style="fill:#ff0000;stroke-width:0.682492" />
</svg>
