<?xml version="1.0" encoding="UTF-8" standalone="no"?>
<svg
   viewBox="0 0 640 640"
   version="1.1"
   id="svg1"
   xmlns="http://www.w3.org/2000/svg"
   xmlns:svg="http://www.w3.org/2000/svg">
  <defs
     id="defs1" />
  <!--!Font Awesome Free 7.1.0 by @fontawesome - https://fontawesome.com License - https://fontawesome.com/license/free Copyright 2025 Fonticons, Inc.-->
  <path
     d="m 402.09821,284.66459 c 3.04468,-4.73774 8.49675,-7.64805 14.37366,-7.64805 h 73.63844 c 9.41723,0 16.99349,7.24195 16.99349,16.24364 0,9.00168 -7.57626,16.24364 -16.99349,16.24364 h -46.44886 l 51.12207,100.43985 c 7.57626,-1.96278 15.50656,-2.97801 23.64927,-2.97801 50.05998,0 90.63193,38.78169 90.63193,86.63275 0,47.85106 -40.57195,86.63275 -90.63193,86.63275 -50.05997,0 -90.63192,-38.78169 -90.63192,-86.63275 0,-28.42637 14.30284,-53.60401 36.39438,-69.44156 l -14.44447,-28.35869 -52.04254,99.4923 c -1.62855,3.24873 -4.46079,5.956 -8.07192,7.58036 -0.42483,0.20305 -0.84967,0.33841 -1.2745,0.47377 -2.05338,0.74451 -4.17757,1.08291 -6.30176,1.01523 l -22.9412,0.0677 c -5.59369,42.70724 -43.68742,75.80366 -89.92387,75.80366 -50.05998,0 -90.63192,-38.7817 -90.63192,-86.63275 0,-47.85106 40.57194,-86.63275 90.63192,-86.63275 7.64707,0 15.01091,0.87987 22.09153,2.57191 l 20.17977,-38.51097 -8.14271,-18.20641 h -28.46409 c -9.41722,0 -16.99349,-7.24196 -16.99349,-16.24364 0,-9.00168 7.57627,-16.24364 16.99349,-16.24364 h 39.65146 c 6.7974,0 12.95754,3.85786 15.64818,9.81387 l 10.12528,22.67341 h 87.58726 l -26.69393,-52.45342 c -2.54903,-5.00846 -2.2658,-10.96446 0.84967,-15.70219 z m -73.07198,125.48212 -32.28763,61.79352 h 60.04365 l -27.68522,-61.79352 z m 54.66238,39.45851 33.63294,-64.29775 h -62.45106 z m 119.45005,51.09979 -21.02945,-41.28593 c -9.06318,8.79864 -14.65688,20.84601 -14.65688,34.17933 0,26.93738 22.79959,48.73092 50.98046,48.73092 28.18087,0 50.98046,-21.79354 50.98046,-48.73092 0,-26.93737 -22.79959,-48.73092 -50.98046,-48.73092 -1.91177,0 -3.89434,0.13537 -5.7353,0.33841 l 21.02944,41.28592 c 4.10675,8.05414 0.56645,17.80032 -7.85949,21.72587 -8.42594,3.92555 -18.62203,0.54145 -22.72878,-7.51268 z m -230.26174,3.72249 c -14.30286,0 -23.64928,-14.41622 -17.20591,-26.66664 l 17.1351,-32.82569 c -1.20371,-0.0677 -2.40741,-0.13536 -3.61112,-0.13536 -28.18086,0 -50.98045,21.79355 -50.98045,48.73092 0,26.93737 22.79959,48.73092 50.98045,48.73092 24.28653,0 44.5371,-16.17595 49.70595,-37.90183 h -46.02402 z"
     id="path1"
     style="fill:#ffd42a;fill-opacity:1;stroke:#000000;stroke-width:8.281;stroke-dasharray:none;stroke-opacity:1" />
  <path
     d="m 78.486156,52.063406 c 0,-11.775784 9.26326,-21.289554 20.72895,-21.289554 h 41.457914 c 11.46571,0 20.72895,9.51377 20.72895,21.289554 h 62.18688 c 0,-11.775784 9.26327,-21.289554 20.72896,-21.289554 h 41.4579 c 11.46571,0 20.72896,9.51377 20.72896,21.289554 h 10.36448 c 22.86663,0 41.45791,19.09407 41.45791,42.57911 V 264.95897 c 0,23.48504 -18.59128,42.57911 -41.45791,42.57911 H 68.121666 c -22.86663,0 -41.4579,-19.09407 -41.4579,-42.57911 V 94.642516 c 0,-23.48504 18.59127,-42.57911 41.4579,-42.57911 z M 280.59348,131.89925 c 0,-8.84848 -6.93125,-15.96717 -15.54672,-15.96717 -8.61547,0 -15.54672,7.11869 -15.54672,15.96717 v 21.28954 h -20.72895 c -8.61547,0 -15.54672,7.1187 -15.54672,15.96718 0,8.84846 6.93125,15.96716 15.54672,15.96716 h 20.72895 v 21.28956 c 0,8.84846 6.93125,15.96716 15.54672,15.96716 8.61547,0 15.54672,-7.1187 15.54672,-15.96716 v -21.28956 h 20.72895 c 8.61548,0 15.54672,-7.1187 15.54672,-15.96716 0,-8.84848 -6.93124,-15.96718 -15.54672,-15.96718 H 280.59348 Z M 68.121666,169.15597 c 0,8.84846 6.93125,15.96716 15.54672,15.96716 h 72.551354 c 8.61547,0 15.54672,-7.1187 15.54672,-15.96716 0,-8.84848 -6.93125,-15.96718 -15.54672,-15.96718 H 83.668386 c -8.61547,0 -15.54672,7.1187 -15.54672,15.96718 z"
     id="path1-5"
     style="fill:#00ffff;stroke:#000000;stroke-width:14.6206;stroke-dasharray:none;stroke-opacity:1" />
</svg>
