<?xml version="1.0" encoding="iso-8859-1"?>
<!-- Uploaded to: SVG Repo, www.svgrepo.com, Generator: SVG Repo Mixer Tools -->
<svg height="800px" width="800px" version="1.1" id="Layer_1" xmlns="http://www.w3.org/2000/svg" xmlns:xlink="http://www.w3.org/1999/xlink" 
	 viewBox="0 0 506.731 506.731" xml:space="preserve">
<g>
	<path style="fill:#EF934A;" d="M401.175,225.131l17.2-17.2c0.4-0.4,0.8-0.4,1.6-0.4c-5.6-45.2-27.2-90-64.4-127.2
		c-88.8-88.8-223.2-99.6-298.8-24c-63.2,63.2-66.8,171.6-8.4,258.8c2-8,5.6-15.6,10.4-22.4
		C41.175,264.331,399.575,178.731,401.175,225.131z"/>
	<path style="fill:#EF934A;" d="M207.975,418.331l17.6-17.6c-22.4-0.8-44.4-5.6-65.6-15.2c-6.4,5.2-13.6,9.6-21.6,12.4
		c22.4,11.6,45.6,19.2,69.2,22C207.175,419.531,207.575,418.731,207.975,418.331z"/>
</g>
<path style="fill:#CB5A30;" d="M347.575,381.531l102.4,114c0.4,0,0.8,0,0.8,0.4c4,4,10.4,5.6,17.6,4.4s14.8-5.2,21.2-11.6
	c6-6,10.4-13.6,11.6-21.2c1.2-7.2-0.4-13.2-4.4-17.6c-0.4-0.4-0.4-0.8-0.4-0.8l-114-102l-0.4-0.4l-34.4,34.4
	C347.175,381.131,347.175,381.531,347.575,381.531z"/>
<path style="fill:#E8BB85;" d="M400.375,231.531l-189.2,189.2c42,4.4,84-6,120.8-30c0,0,0,0,3.6,3.6l58.4-58.4
	c20.4-40.4,30.4-82.4,26-124L400.375,231.531L400.375,231.531z"/>
<path style="fill:#EFDC81;" d="M397.575,229.131c-0.4-47.2-20.8-94.4-58.8-132.8c-35.2-35.2-84-58.8-138-66.8
	c-14.4-2-46,1.2-46.4,1.2c-31.6,5.2-59.6,19.2-81.2,40.4l-0.8-0.4c0,0.8,0,0.8-0.4,1.2c-0.4,0.4-1.6,1.2-1.6,1.6l0,0
	c-31.6,32.4-46,77.2-41.2,127.2c2.8,30.4,13.2,60.8,29.2,89.2l0,0h0.4c12.8-16.4,32.8-26.4,54.8-26.4c38.8,0,70,31.6,70,70
	c0,20-8.4,38-21.6,50.8c2.4,1.2,5.2,2,8,3.2c16,6,32.4,9.6,49.2,10.8c3.2,0.4,4.8,0.4,8.4,0.4l168-169.6c0,0,0,0,0-0.4
	L397.575,229.131z"/>
<path style="fill:#F4EFEF;" d="M115.175,267.531c-21.6,0-40.8,10.4-52.8,26.8l0,0c-5.6,7.6-9.6,16.4-11.2,26.4c0,0.4,0,0.8,0,1.2
	c-0.4,3.6-0.8,7.2-0.8,10.8c0,36,29.2,65.2,65.2,65.2c5.6,0,11.2-0.8,16.4-2c28-7.2,49.2-32.8,49.2-63.2
	C180.375,296.731,151.175,267.531,115.175,267.531z"/>
<path style="fill:#CC0000;" d="M58.375,294.331C57.975,294.331,57.975,294.331,58.375,294.331
	C57.975,294.331,57.975,294.331,58.375,294.331z"/>
<path d="M463.175,506.731c-6,0-11.6-2-16-5.6c-0.4,0-1.2-0.4-1.6-0.8l-100.4-112c-62.8,47.2-142.8,52-214,12.8
	c-2-1.2-2.8-3.6-1.6-5.6s3.6-2.8,5.6-1.6c69.6,38.4,147.6,32.8,208.4-14.4c1.6-1.2,4-1.2,5.6,0.4l102,113.6c0.4,0,0.8,0.4,1.2,0.8
	c3.6,3.6,9.2,4.8,15.6,4c6.8-1.2,14-5.2,20-10.8c6-6,9.6-12.8,10.8-20c1.2-6.4-0.4-12-4-15.6c-0.4-0.4-0.8-0.8-0.8-1.2l-113.6-101.6
	c-1.6-1.6-1.6-3.6-0.4-5.6c60.8-78,50-185.6-26-261.6c-88-88-220.8-98.8-296-24c-63.6,63.6-66,172.8-6,260c1.2,2,0.8,4.4-1.2,5.6
	s-4.4,0.8-5.6-1.2c-62.4-90.4-59.6-204,6.8-270.4c38.8-38.8,92.8-56.8,152-50.8c56.4,5.6,113.2,32.8,155.2,74.8
	c78,78,89.6,188,28.8,269.2l112,100.4c0.4,0.4,0.8,1.2,1.2,1.6c4.4,5.6,6.4,12.8,4.8,21.2c-1.6,8.4-6,17.2-13.2,24.4
	c-7.2,7.2-15.6,11.6-24.4,13.2C467.175,506.731,465.175,506.731,463.175,506.731z"/>
<path d="M209.175,423.931c-1.2,0-2-0.4-2.8-1.2c-1.6-1.6-1.6-4,0-5.6l210.4-210.4c1.6-1.6,4-1.6,5.6,0s1.6,4,0,5.6l-210.4,210.4
	C211.175,423.531,210.375,423.931,209.175,423.931z"/>
<path d="M333.575,395.531c-1.2,0-2-0.4-2.8-1.2c-1.6-1.6-1.6-4,0-5.6l25.6-25.6c1.6-1.6,4-1.6,5.6,0s1.6,4,0,5.6l-25.6,25.6
	C335.575,395.131,334.375,395.531,333.575,395.531z"/>
<path d="M376.375,352.731c-1.2,0-2-0.4-2.8-1.2c-1.6-1.6-1.6-4,0-5.6l15.2-15.2c1.6-1.6,4-1.6,5.6,0s1.6,4,0,5.6l-15.2,15.2
	C378.375,352.331,377.575,352.731,376.375,352.731z"/>
<path d="M229.975,403.131c-24.4,0-48.8-5.2-72.4-16c-2-0.8-2.8-3.2-2-5.2s3.2-2.8,5.2-2c22.4,10,45.6,15.2,68.8,15.2l0,0l0,0
	c2.4,0,4,1.6,4,4C233.975,401.131,232.375,403.131,229.975,403.131z M60.375,297.131c-1.2,0-2.8-0.8-3.6-2
	c-17.6-29.2-28.4-61.6-31.2-93.2c-5.2-52,10.4-99.2,44-132.4l0,0l0,0c22.4-22.4,52-37.2,84.8-42.4c2-0.4,4.4,1.2,4.4,3.2
	s-1.2,4.4-3.2,4.4c-31.2,5.2-58.8,18.8-80.4,40.4l0,0c-31.6,31.6-46.4,76.4-41.6,126c2.8,30.8,13.6,61.6,30.4,90
	c1.2,2,0.4,4.4-1.2,5.6C61.975,297.131,61.175,297.131,60.375,297.131z M399.175,233.931L399.175,233.931c-2.4,0-4-1.6-4-4
	c0-46.8-20.8-93.2-58.4-130.8c-36.8-36.8-86-60.8-135.2-65.6c-2-0.4-4-2-3.6-4.4s2-4,4.4-3.6c51.2,4.8,102,29.6,140.4,68
	c39.2,39.2,60.8,87.6,60.8,136.4C403.175,232.331,401.175,233.931,399.175,233.931z"/>
<path d="M115.175,403.931c-39.2,0-71.2-32-71.2-71.2c0-4.4,0.4-8.8,1.2-13.2c6.4-33.6,35.6-58,70-58c39.2,0,71.2,32,71.2,71.2
	S154.375,403.931,115.175,403.931z M115.175,269.531c-30.4,0-56.8,21.6-62.4,51.6c-0.8,4-1.2,7.6-1.2,11.6
	c0,34.8,28.4,63.2,63.2,63.2s63.2-28.4,63.2-63.2S149.975,269.531,115.175,269.531z"/>
<path d="M147.575,301.931c-0.8,0-2-0.4-2.8-1.2c-8-7.6-18.8-11.6-30-11.6c-2.4,0-4-1.6-4-4s1.6-4,4-4c13.2,0,25.6,4.8,35.2,14
	c1.6,1.6,1.6,4,0,5.6C149.575,301.531,148.775,301.931,147.575,301.931z"/>
</svg>