<?xml version="1.0" encoding="UTF-8" standalone="no"?>
<svg
   viewBox="0 0 640 640"
   version="1.1"
   id="svg1"
   xmlns="http://www.w3.org/2000/svg"
   xmlns:svg="http://www.w3.org/2000/svg">
  <defs
     id="defs1" />
  <!--!Font Awesome Free 7.1.0 by @fontawesome - https://fontawesome.com License - https://fontawesome.com/license/free Copyright 2025 Fonticons, Inc.-->
  <path
     d="m 152.14843,32.683644 c -2.98334,-7.354518 -10.10682,-12.175126 -17.96091,-12.175126 -7.85409,0 -14.97758,4.820608 -17.96091,12.175126 C 59.421433,171.12163 26.909143,250.22905 18.811513,270.00591 c -4.140142,10.07383 0.54796,21.63094 10.472124,25.83352 9.924162,4.20258 21.309552,-0.55623 25.449694,-10.63006 L 74.09458,238.05393 h 120.12499 l 19.36125,47.15544 c 4.14015,10.07383 15.52554,14.83264 25.4497,10.63006 9.92415,-4.20258 14.61226,-15.75969 10.47212,-25.83352 -8.09763,-19.77686 -40.60992,-98.88428 -97.41509,-237.322266 z M 178.02431,198.50022 H 90.350724 L 134.18752,91.705198 Z"
     id="path1"
     style="stroke-width:0.613418;fill:#008000" />
  <path
     d="m 251.55439,152.19921 c -11.20459,0 -20.25688,9.82874 -20.25688,21.99438 v 263.9326 c 0,12.16564 9.05229,21.99438 20.25688,21.99438 h 101.2844 c 44.75505,0 81.02753,-39.38369 81.02753,-87.97753 0,-31.96059 -15.69909,-60.00343 -39.24771,-75.39949 11.83762,-15.32734 18.99083,-35.05355 18.99083,-56.56681 0,-48.59384 -36.27248,-87.97753 -81.02753,-87.97753 z m 81.02752,131.9663 h -60.77064 v -87.97753 h 60.77064 c 22.34588,0 40.51377,19.72621 40.51377,43.98876 0,24.26256 -18.16789,43.98877 -40.51377,43.98877 z m -60.77064,43.98876 h 81.02752 c 22.34588,0 40.51377,19.72622 40.51377,43.98877 0,24.26255 -18.16789,43.98877 -40.51377,43.98877 h -81.02752 z"
     id="path1-2"
     style="stroke-width:0.659618;fill:#d40000" />
  <path
     d="m 573.94794,415.67034 c -37.23016,-37.46067 -92.80737,-37.46067 -130.03755,0 -37.23018,37.46066 -37.23018,98.17691 0,135.63758 37.23018,37.46067 92.80739,37.46067 130.03755,0 7.44604,-7.49213 19.53841,-7.49213 26.98445,0 7.44602,7.49213 7.44602,19.65936 0,27.1515 -52.12225,52.44493 -131.82461,52.44493 -183.94686,0 -52.12225,-52.44495 -52.12225,-137.4357 0,-189.88064 52.12225,-52.44494 131.82461,-52.44494 183.94686,0 7.44602,7.49213 7.44602,19.65937 0,27.15149 -7.44604,7.49213 -19.53841,7.49213 -26.98445,0 z"
     id="path1-3"
     style="stroke-width:0.597524;fill:#0000ff" />
</svg>
