<?xml version="1.0" encoding="UTF-8" standalone="no"?>
<!-- Uploaded to: SVG Repo, www.svgrepo.com, Generator: SVG Repo Mixer Tools -->

<svg
   fill="#000000"
   version="1.1"
   id="Capa_1"
   width="800px"
   height="800px"
   viewBox="0 0 470.946 470.947"
   xml:space="preserve"
   xmlns="http://www.w3.org/2000/svg"
   xmlns:svg="http://www.w3.org/2000/svg"><defs
   id="defs5">
	

		
	</defs>
<g
   id="g4"
   style="fill:#e807af;fill-opacity:1;stroke:#08008a;stroke-opacity:1">
			<path
   d="M 235.475,0.001 C 105.632,0.001 0,105.634 0,235.476 c 0,129.84 105.632,235.469 235.475,235.469 129.833,0 235.471,-105.629 235.471,-235.469 C 470.945,105.634 365.309,0.001 235.475,0.001 Z m 0,416.252 c -99.686,0 -180.783,-81.098 -180.783,-180.778 0,-99.684 81.098,-180.786 180.783,-180.786 99.682,0 180.781,81.102 180.781,180.786 0,99.681 -81.1,180.778 -180.781,180.778 z"
   id="path1"
   style="fill:#e807af;fill-opacity:1;stroke:#08008a;stroke-opacity:1" />
			<path
   d="m 235.475,343.715 c -9.438,0 -17.093,7.649 -17.093,17.092 v 17.472 c 0,9.438 7.654,17.088 17.093,17.088 9.434,0 17.091,-7.65 17.091,-17.088 v -17.472 c 0,-9.442 -7.658,-17.092 -17.091,-17.092 z"
   id="path2"
   style="fill:#e807af;fill-opacity:1;stroke:#08008a;stroke-opacity:1" />
			<path
   d="M 110.138,218.378 H 92.67 c -9.438,0 -17.09,7.655 -17.09,17.098 0,9.438 7.651,17.088 17.09,17.088 h 17.468 c 9.444,0 17.093,-7.65 17.093,-17.089 -10e-4,-9.442 -7.649,-17.097 -17.093,-17.097 z"
   id="path3"
   style="fill:#e807af;fill-opacity:1;stroke:#08008a;stroke-opacity:1" />
			<path
   d="m 235.475,75.585 c -0.516,0 -1.015,0.036 -1.525,0.039 v 158.321 h 161.372 c -0.827,-87.46 -72.2,-158.36 -159.847,-158.36 z"
   id="path4"
   style="fill:#e807af;fill-opacity:1;stroke:#08008a;stroke-opacity:1" />
		</g>
</svg>
