<?xml version="1.0" encoding="UTF-8" standalone="no"?>
<!-- Uploaded to: SVG Repo, www.svgrepo.com, Generator: SVG Repo Mixer Tools -->

<svg
   height="800px"
   width="800px"
   version="1.1"
   id="Layer_1"
   viewBox="0 0 512 512"
   xml:space="preserve"
   sodipodi:docname="banking-coin-svgrepo-com.svg"
   inkscape:version="1.4.4 (dcaf3e7d9e, 2026-05-05)"
   xmlns:inkscape="http://www.inkscape.org/namespaces/inkscape"
   xmlns:sodipodi="http://sodipodi.sourceforge.net/DTD/sodipodi-0.dtd"
   xmlns="http://www.w3.org/2000/svg"
   xmlns:svg="http://www.w3.org/2000/svg"><defs
   id="defs36" /><sodipodi:namedview
   id="namedview36"
   pagecolor="#ffffff"
   bordercolor="#000000"
   borderopacity="0.25"
   inkscape:showpageshadow="2"
   inkscape:pageopacity="0.0"
   inkscape:pagecheckerboard="0"
   inkscape:deskcolor="#d1d1d1"
   inkscape:zoom="1.03625"
   inkscape:cx="399.51749"
   inkscape:cy="400"
   inkscape:window-width="1662"
   inkscape:window-height="1036"
   inkscape:window-x="36"
   inkscape:window-y="32"
   inkscape:window-maximized="0"
   inkscape:current-layer="Layer_1" />
<circle
   style="fill:#ffcc00"
   cx="256"
   cy="256"
   r="256"
   id="circle1" />
<g
   id="g30"
   style="fill:#d4aa00">
	<path
   style="fill:#d4aa00"
   d="M256,37.134c4.964,0,9.002-4.039,9.002-9.002S260.964,19.13,256,19.13   c-4.964,0-9.002,4.039-9.002,9.002S251.036,37.134,256,37.134z"
   id="path1" />
	<path
   style="fill:#d4aa00"
   d="M208.623,42.113c0.629,0,1.26-0.066,1.868-0.196c2.354-0.498,4.373-1.886,5.683-3.905   c1.311-2.019,1.757-4.427,1.254-6.78c-0.881-4.128-4.583-7.124-8.803-7.124c-0.629,0-1.26,0.066-1.876,0.198   c-2.353,0.501-4.369,1.888-5.678,3.907c-1.308,2.016-1.752,4.422-1.256,6.748C200.684,39.106,204.388,42.113,208.623,42.113z"
   id="path2" />
	<path
   style="fill:#d4aa00"
   d="M163.318,56.834c1.27,0,2.504-0.262,3.654-0.775c2.2-0.977,3.887-2.751,4.75-4.998   c0.863-2.245,0.799-4.69-0.178-6.889c-1.444-3.245-4.672-5.343-8.226-5.343c-1.27,0-2.504,0.262-3.665,0.78   c-4.53,2.02-6.577,7.35-4.561,11.883C156.536,54.738,159.765,56.834,163.318,56.834z"
   id="path3" />
	<path
   style="fill:#d4aa00"
   d="M122.063,80.653c1.91,0,3.737-0.592,5.293-1.721c4.013-2.918,4.905-8.557,1.994-12.566   c-1.688-2.328-4.412-3.718-7.288-3.718c-1.91,0-3.737,0.592-5.284,1.714c-1.951,1.414-3.233,3.506-3.609,5.887   c-0.375,2.381,0.203,4.764,1.606,6.684C116.463,79.262,119.187,80.653,122.063,80.653z"
   id="path4" />
	<path
   style="fill:#d4aa00"
   d="M54.158,149.862c1.367,0.79,2.925,1.206,4.502,1.206c3.21,0,6.2-1.728,7.789-4.489   c1.206-2.083,1.529-4.51,0.909-6.836c-0.62-2.326-2.111-4.269-4.196-5.473c-1.367-0.79-2.925-1.206-4.502-1.206   c-3.21,0-6.2,1.728-7.789,4.489c-1.206,2.083-1.529,4.51-0.909,6.836S52.073,148.658,54.158,149.862z"
   id="path5" />
	<path
   style="fill:#d4aa00"
   d="M42.068,177.024c-0.9-0.293-1.838-0.442-2.785-0.442c-3.916,0-7.358,2.505-8.563,6.232   c-0.739,2.284-0.546,4.719,0.544,6.859c1.095,2.146,2.958,3.736,5.236,4.473c0.901,0.293,1.839,0.442,2.786,0.442   c3.904,0,7.341-2.494,8.563-6.232c0.739-2.284,0.546-4.719-0.544-6.859C46.211,179.351,44.347,177.761,42.068,177.024z"
   id="path6" />
	<path
   style="fill:#d4aa00"
   d="M28.442,241.135c0.293,0.03,0.644,0.048,0.937,0.048c4.629,0,8.479-3.473,8.952-8.048   c0.255-2.393-0.439-4.743-1.951-6.615c-1.516-1.872-3.668-3.042-6.046-3.29c-0.298-0.032-0.657-0.051-0.956-0.051   c-4.628,0-8.477,3.473-8.949,8.048c-0.255,2.393,0.438,4.742,1.951,6.614C23.893,239.713,26.046,240.882,28.442,241.135z"
   id="path7" />
	<path
   style="fill:#d4aa00"
   d="M36.38,285.48c1.513-1.872,2.207-4.221,1.953-6.586c-0.475-4.605-4.324-8.077-8.954-8.077   c-0.295,0-0.648,0.019-0.941,0.049c-2.395,0.252-4.546,1.421-6.06,3.293c-1.515,1.872-2.207,4.221-1.955,6.584   c0.476,4.606,4.324,8.078,8.953,8.078c0.294,0,0.647-0.019,0.938-0.048C32.712,288.52,34.864,287.351,36.38,285.48z"
   id="path8" />
	<path
   style="fill:#d4aa00"
   d="M39.286,317.413c-0.947,0-1.885,0.149-2.772,0.438c-2.292,0.742-4.156,2.332-5.251,4.477   c-1.09,2.139-1.284,4.574-0.544,6.859c1.205,3.727,4.647,6.232,8.563,6.232c0.947,0,1.885-0.149,2.772-0.438   c2.292-0.742,4.156-2.332,5.251-4.477c1.09-2.139,1.284-4.574,0.536-6.886C46.628,319.907,43.189,317.413,39.286,317.413z"
   id="path9" />
	<path
   style="fill:#d4aa00"
   d="M58.661,360.932c-1.578,0-3.135,0.417-4.502,1.206c-2.085,1.204-3.575,3.147-4.196,5.473   c-0.621,2.326-0.298,4.753,0.897,6.814c1.601,2.783,4.591,4.511,7.802,4.511c1.578,0,3.135-0.417,4.502-1.206   c2.085-1.204,3.575-3.147,4.196-5.473s0.298-4.753-0.897-6.814C64.861,362.66,61.87,360.932,58.661,360.932z"
   id="path10" />
	<path
   style="fill:#d4aa00"
   d="M86.661,399.471c-2.23,0-4.373,0.823-6.021,2.311c-3.69,3.321-3.99,9.024-0.67,12.713   c1.705,1.894,4.143,2.98,6.691,2.98c2.227,0,4.366-0.82,6.029-2.318c3.681-3.322,3.977-9.021,0.667-12.699   C91.654,400.56,89.212,399.471,86.661,399.471z"
   id="path11" />
	<path
   style="fill:#d4aa00"
   d="M127.347,433.061c-1.547-1.122-3.375-1.714-5.284-1.714c-2.876,0-5.6,1.39-7.269,3.692   c-1.422,1.946-1.998,4.33-1.624,6.711c0.376,2.381,1.658,4.473,3.61,5.887c1.546,1.122,3.374,1.714,5.283,1.714   c2.876,0,5.6-1.39,7.284-3.711C132.261,441.625,131.369,435.985,127.347,433.061z"
   id="path12" />
	<path
   style="fill:#d4aa00"
   d="M166.983,455.946c-1.161-0.518-2.395-0.78-3.665-0.78c-3.552,0-6.781,2.098-8.226,5.344   c-2.017,4.531,0.029,9.862,4.561,11.882c1.161,0.518,2.395,0.78,3.665,0.78c3.552,0,6.781-2.098,8.226-5.344   c0.977-2.198,1.041-4.643,0.178-6.888C170.858,458.692,169.172,456.918,166.983,455.946z"
   id="path13" />
	<path
   style="fill:#d4aa00"
   d="M210.498,470.084c-0.616-0.132-1.247-0.198-1.876-0.198c-4.236,0-7.94,3.008-8.803,7.126   c-0.501,2.351-0.057,4.758,1.25,6.774c1.309,2.018,3.325,3.405,5.678,3.907c0.616,0.132,1.247,0.198,1.876,0.198   c4.22,0,7.922-2.997,8.803-7.124c0.502-2.354,0.057-4.761-1.254-6.78C214.863,471.968,212.845,470.581,210.498,470.084z"
   id="path14" />
	<path
   style="fill:#d4aa00"
   d="M256,474.866c-4.964,0-9.002,4.039-9.002,9.002c0,4.964,4.039,9.002,9.002,9.002   c4.964,0,9.002-4.039,9.002-9.002C265.002,478.905,260.964,474.866,256,474.866z"
   id="path15" />
	<path
   style="fill:#d4aa00"
   d="M303.377,469.887c-0.629,0-1.26,0.066-1.868,0.196c-2.354,0.499-4.373,1.886-5.683,3.905   c-1.311,2.019-1.757,4.427-1.254,6.78c0.881,4.128,4.583,7.124,8.803,7.124c0.629,0,1.26-0.066,1.876-0.198   c2.353-0.501,4.369-1.888,5.678-3.907c1.308-2.016,1.752-4.422,1.256-6.748C311.316,472.894,307.612,469.887,303.377,469.887z"
   id="path16" />
	<path
   style="fill:#d4aa00"
   d="M348.682,455.166c-1.27,0-2.504,0.262-3.654,0.775c-2.2,0.977-3.887,2.751-4.75,4.998   c-0.863,2.245-0.799,4.69,0.178,6.889c1.444,3.245,4.672,5.343,8.226,5.343c1.27,0,2.504-0.262,3.665-0.78   c4.53-2.02,6.577-7.35,4.561-11.883C355.464,457.262,352.235,455.166,348.682,455.166z"
   id="path17" />
	<path
   style="fill:#d4aa00"
   d="M389.937,431.347c-1.91,0-3.737,0.592-5.293,1.721c-4.013,2.918-4.905,8.557-1.994,12.566   c1.688,2.328,4.412,3.718,7.288,3.718c1.91,0,3.737-0.592,5.284-1.714c1.951-1.414,3.233-3.506,3.609-5.887   c0.375-2.381-0.203-4.764-1.606-6.684C395.537,432.738,392.813,431.347,389.937,431.347z"
   id="path18" />
	<path
   style="fill:#d4aa00"
   d="M431.37,401.789c-1.658-1.496-3.799-2.318-6.029-2.318c-2.552,0-4.994,1.088-6.692,2.98   c-3.315,3.684-3.019,9.385,0.67,12.713c1.656,1.49,3.794,2.311,6.022,2.311c2.549,0,4.987-1.086,6.692-2.98   C435.351,410.806,435.05,405.102,431.37,401.789z"
   id="path19" />
	<path
   style="fill:#d4aa00"
   d="M457.842,362.138c-1.367-0.79-2.925-1.206-4.502-1.206c-3.21,0-6.2,1.728-7.789,4.489   c-1.206,2.083-1.529,4.51-0.909,6.836s2.111,4.269,4.196,5.473c1.367,0.79,2.925,1.206,4.502,1.206c3.21,0,6.2-1.728,7.789-4.489   c1.206-2.083,1.529-4.51,0.909-6.836C461.418,365.286,459.927,363.342,457.842,362.138z"
   id="path20" />
	<path
   style="fill:#d4aa00"
   d="M475.499,317.854c-0.901-0.293-1.839-0.442-2.786-0.442c-3.904,0-7.341,2.494-8.563,6.232   c-0.739,2.284-0.546,4.719,0.543,6.859c1.095,2.146,2.958,3.736,5.237,4.473c0.9,0.293,1.838,0.442,2.785,0.442   c3.916,0,7.358-2.505,8.563-6.232c0.739-2.284,0.546-4.719-0.544-6.859C479.642,320.181,477.778,318.591,475.499,317.854z"
   id="path21" />
	<path
   style="fill:#d4aa00"
   d="M483.558,270.865c-0.293-0.03-0.644-0.048-0.937-0.048c-4.629,0-8.479,3.471-8.952,8.048   c-0.255,2.393,0.439,4.743,1.951,6.615c1.516,1.872,3.668,3.042,6.046,3.29c0.298,0.032,0.657,0.051,0.956,0.051   c4.628,0,8.478-3.473,8.949-8.048c0.255-2.393-0.438-4.742-1.951-6.614C488.107,272.287,485.954,271.118,483.558,270.865z"
   id="path22" />
	<path
   style="fill:#d4aa00"
   d="M475.62,226.52c-1.513,1.872-2.207,4.221-1.953,6.587c0.475,4.605,4.324,8.076,8.954,8.076   c0.295,0,0.648-0.019,0.941-0.05c2.395-0.252,4.546-1.421,6.06-3.293c1.515-1.872,2.207-4.221,1.955-6.584   c-0.475-4.606-4.324-8.078-8.953-8.078c-0.294,0-0.647,0.019-0.939,0.048C479.288,223.48,477.136,224.649,475.62,226.52z"
   id="path23" />
	<path
   style="fill:#d4aa00"
   d="M472.714,194.587c0.947,0,1.885-0.149,2.772-0.438c2.292-0.742,4.156-2.332,5.25-4.477   c1.09-2.139,1.284-4.574,0.544-6.859c-1.205-3.727-4.647-6.232-8.563-6.232c-0.947,0-1.885,0.149-2.772,0.438   c-2.292,0.742-4.156,2.332-5.251,4.477c-1.09,2.139-1.284,4.574-0.536,6.886C465.372,192.093,468.811,194.587,472.714,194.587z"
   id="path24" />
	<path
   style="fill:#d4aa00"
   d="M453.339,133.064c-1.578,0-3.135,0.417-4.502,1.206c-2.085,1.204-3.575,3.147-4.196,5.473   c-0.621,2.326-0.298,4.753,0.897,6.814c1.601,2.783,4.591,4.511,7.802,4.511c1.578,0,3.135-0.417,4.502-1.206   c2.085-1.204,3.575-3.147,4.196-5.473s0.298-4.753-0.897-6.814C459.54,134.792,456.55,133.064,453.339,133.064z"
   id="path25" />
	<path
   style="fill:#d4aa00"
   d="M425.339,112.529c2.23,0,4.373-0.823,6.021-2.311c3.69-3.321,3.99-9.024,0.67-12.713   c-1.705-1.894-4.143-2.98-6.691-2.98c-2.227,0-4.366,0.82-6.029,2.318c-3.681,3.322-3.977,9.021-0.667,12.699   C420.346,111.44,422.788,112.529,425.339,112.529z"
   id="path26" />
	<path
   style="fill:#d4aa00"
   d="M93.358,109.541c3.309-3.677,3.013-9.377-0.667-12.699c-1.664-1.498-3.802-2.318-6.029-2.318   c-2.549,0-4.987,1.086-6.691,2.98c-3.321,3.69-3.021,9.394,0.67,12.713c1.649,1.488,3.79,2.311,6.021,2.311   C89.212,112.529,91.654,111.44,93.358,109.541z"
   id="path27" />
	<path
   style="fill:#d4aa00"
   d="M384.653,78.939c1.547,1.122,3.375,1.714,5.284,1.714c2.876,0,5.6-1.39,7.269-3.692   c1.422-1.946,1.998-4.33,1.624-6.711c-0.376-2.381-1.658-4.473-3.61-5.887c-1.546-1.122-3.374-1.714-5.283-1.714   c-2.876,0-5.6,1.39-7.284,3.711C379.739,70.375,380.631,76.015,384.653,78.939z"
   id="path28" />
	<path
   style="fill:#d4aa00"
   d="M345.017,56.054c1.161,0.518,2.395,0.78,3.665,0.78c3.552,0,6.781-2.098,8.226-5.344   c2.017-4.531-0.029-9.862-4.561-11.882c-1.161-0.518-2.395-0.78-3.665-0.78c-3.553,0-6.781,2.098-8.226,5.344   c-0.977,2.198-1.041,4.643-0.178,6.888C341.142,53.308,342.828,55.082,345.017,56.054z"
   id="path29" />
	<path
   style="fill:#d4aa00"
   d="M301.502,41.916c0.616,0.132,1.247,0.198,1.876,0.198c4.236,0,7.94-3.008,8.803-7.126   c0.501-2.351,0.057-4.758-1.25-6.774c-1.309-2.018-3.325-3.405-5.678-3.907c-0.616-0.132-1.247-0.198-1.876-0.198   c-4.22,0-7.922,2.997-8.803,7.124c-0.502,2.354-0.057,4.761,1.254,6.78C297.137,40.032,299.155,41.419,301.502,41.916z"
   id="path30" />
</g>
<g
   id="g35"
   style="fill:#4d4d4d">
	<path
   style="fill:#4d4d4d"
   d="M144.435,118.059c-2.541,0-5.054-1.143-6.715-3.32c-2.829-3.704-2.118-9.001,1.588-11.829   C173.068,77.139,213.42,63.517,256,63.517c42.579,0,82.931,13.621,116.691,39.392c3.704,2.828,4.416,8.124,1.588,11.829   c-2.828,3.706-8.125,4.416-11.829,1.588c-30.793-23.506-67.603-35.93-106.449-35.93c-38.847,0-75.657,12.425-106.45,35.931   C148.021,117.494,146.22,118.059,144.435,118.059z"
   id="path31" />
	<path
   style="fill:#4d4d4d"
   d="M366.897,412.798c-2.569,0-5.105-1.168-6.763-3.381c-2.793-3.731-2.033-9.021,1.698-11.814   c13.574-10.162,25.61-22.198,35.771-35.771c2.794-3.731,8.083-4.491,11.814-1.698c3.731,2.793,4.492,8.083,1.698,11.814   c-11.127,14.863-24.305,28.041-39.167,39.169C370.431,412.25,368.657,412.798,366.897,412.798z"
   id="path32" />
	<path
   style="fill:#4d4d4d"
   d="M277.844,448.361c-4.221,0-7.867-3.16-8.371-7.455c-0.544-4.629,2.767-8.823,7.396-9.367   c16.866-1.983,33.302-6.376,48.852-13.057c4.284-1.842,9.245,0.141,11.086,4.422c1.84,4.283-0.141,9.246-4.422,11.086   c-17.047,7.324-35.061,12.139-53.545,14.312C278.504,448.342,278.172,448.361,277.844,448.361z"
   id="path33" />
	<path
   style="fill:#4d4d4d"
   d="M145.103,412.798c-1.76,0-3.534-0.548-5.051-1.685c-14.863-11.128-28.041-24.306-39.167-39.169   c-2.793-3.731-2.033-9.02,1.698-11.814c3.731-2.794,9.02-2.032,11.814,1.698c10.161,13.574,22.197,25.609,35.771,35.771   c3.73,2.793,4.491,8.083,1.698,11.814C150.207,411.63,147.671,412.798,145.103,412.798z"
   id="path34" />
	<path
   style="fill:#4d4d4d"
   d="M234.156,448.361c-0.329,0-0.661-0.019-0.996-0.059c-18.484-2.173-36.498-6.988-53.545-14.312   c-4.283-1.84-6.262-6.802-4.422-11.086c1.84-4.283,6.805-6.262,11.086-4.422c15.549,6.681,31.986,11.074,48.852,13.057   c4.629,0.543,7.941,4.737,7.396,9.367C242.023,445.2,238.377,448.361,234.156,448.361z"
   id="path35" />
</g>
<g
   id="g36"
   style="fill:#4d4d4d">
	<polygon
   style="fill:#4d4d4d"
   points="199.073,155.851 144.43,165.9 144.43,192.907 160.845,189.877 160.845,347.147    199.073,347.147  "
   id="polygon35" />
	<path
   style="fill:#4d4d4d"
   d="M299.023,155.851c-37.858,0-68.547,42.823-68.547,95.648s30.69,95.648,68.547,95.648   s68.547-42.823,68.547-95.648S336.88,155.851,299.023,155.851z M299.023,311.79c-16.744,0-30.318-26.993-30.318-60.291   s13.574-60.291,30.318-60.291s30.318,26.993,30.318,60.291S315.767,311.79,299.023,311.79z"
   id="path36" />
</g>
</svg>
