<?xml version="1.0" encoding="UTF-8" standalone="no"?>
<!-- Uploaded to: SVG Repo, www.svgrepo.com, Generator: SVG Repo Mixer Tools -->

<svg
   height="800px"
   width="800px"
   version="1.1"
   id="Layer_1"
   viewBox="0 0 511.984 511.984"
   xml:space="preserve"
   sodipodi:docname="image.svg"
   inkscape:version="1.4.4 (dcaf3e7d9e, 2026-05-05)"
   xmlns:inkscape="http://www.inkscape.org/namespaces/inkscape"
   xmlns:sodipodi="http://sodipodi.sourceforge.net/DTD/sodipodi-0.dtd"
   xmlns="http://www.w3.org/2000/svg"
   xmlns:svg="http://www.w3.org/2000/svg"><defs
   id="defs8" /><sodipodi:namedview
   id="namedview8"
   pagecolor="#ffffff"
   bordercolor="#000000"
   borderopacity="0.25"
   inkscape:showpageshadow="2"
   inkscape:pageopacity="0.0"
   inkscape:pagecheckerboard="0"
   inkscape:deskcolor="#d1d1d1"
   inkscape:zoom="1.07125"
   inkscape:cx="399.53326"
   inkscape:cy="400"
   inkscape:window-width="1920"
   inkscape:window-height="971"
   inkscape:window-x="0"
   inkscape:window-y="0"
   inkscape:window-maximized="1"
   inkscape:current-layer="Layer_1" />
<path
   style="fill:#434A54;"
   d="M432.738,386.348l-1.812-0.516c-26.467-7.109-14.093-13.937-25.873-18.421  c-41.811-15.938-52.685-27.405-55.466-32.827c-0.094-0.188-0.156-0.406-0.25-0.609H150.383c-0.094,0.203-0.172,0.422-0.266,0.609  c-2.781,5.422-13.656,16.89-55.451,32.827c-11.78,4.484-20.733,11.312-47.201,18.421l-1.828,0.516  c-24.093,7.968-40.295,30.311-40.295,55.53v70.106h244.506H473.05v-70.106C473.05,416.659,456.832,394.316,432.738,386.348z"
   id="path1" />
<polygon
   style="fill:#CCD1D9;"
   points="292.339,322.148 207.88,309.258 172.335,384.364 250.66,511.984 327.962,394.66 "
   id="polygon1" />
<polygon
   style="fill:#DA4453;"
   points="272.807,394.66 228.52,394.66 214.615,447.986 250.66,511.984 286.151,447.986 "
   id="polygon2" />
<path
   style="fill:#ED5564;"
   d="M280.276,361.349l-24.616-40.326c-2.078-3.391-5.875-5.359-9.859-5.078  c-3.968,0.281-7.453,2.75-9.031,6.406l-18.031,41.623c-0.578,1.344-0.891,2.781-0.891,4.234v26.451  c0,5.891,4.781,10.655,10.672,10.655h42.67c5.898,0,10.648-4.765,10.648-10.655v-27.747  C281.839,364.943,281.307,363.021,280.276,361.349z"
   id="path2" />
<path
   style="fill:#E6E9ED;"
   d="M175.944,393.144l74.716-40.701l78.677,42.951c0,0,21.75-57.888,20.25-60.81  c-0.094-0.188-0.156-0.406-0.25-0.609l-0.344-48.545l-99.146-1.125l-99.121,1.125l-0.344,48.545  c-0.094,0.203-0.172,0.422-0.266,0.609C148.82,337.116,175.944,393.144,175.944,393.144z"
   id="path3" />
<path
   style="fill:#EAC6BB;"
   d="M387.396,191.48c0,89.372-85.184,171.619-137.549,171.619c-52.342,0-137.542-82.247-137.542-171.619  c0-89.371,61.592-148.322,137.542-148.322C325.805,43.158,387.396,102.109,387.396,191.48z"
   id="path4" />
<path
   style="fill:#965353;"
   d="M334.962,28.409c-23.405-21.187-104.676-51.623-180.032,0  c-59.436,40.718-53.436,143.369-53.436,143.369s77.997,19.702,167.321-31.327c57.74-32.999,77.865,0.562,88.208,29.78  c10.093,28.437,30.373,21.249,30.373,21.249S409.803,96.172,334.962,28.409z"
   id="path5" />
<path
   style="fill:#7F4242;"
   d="M309.119,126.827c8.187-0.25,15.03,1.547,20.812,4.75c11.094-40.249,32.937-51.076,42.467-53.936  c-3.094-6.25-6.719-12.515-10.874-18.718C345.899,65.064,321.274,81.751,309.119,126.827z"
   id="path6" />
<g
   id="g7">
	<polygon
   style="fill:#656D78;"
   points="250.66,511.984 150.383,333.975 122.665,367.756 155.226,392.754 149.398,416.753  "
   id="polygon6" />
	<polygon
   style="fill:#656D78;"
   points="250.66,511.984 349.337,333.975 378.428,367.756 345.899,392.754 351.712,416.753  "
   id="polygon7" />
</g>
<path
   style="fill:#e2e3db;stroke-width:1.50047;fill-opacity:1"
   d="m 501.61835,310.00208 -86.58766,-74.56862 c -3.24839,-2.7945 -7.71494,-4.37472 -12.33416,-4.37472 H 281.44522 c -9.5909,0 -17.30584,6.62724 -17.30584,14.79312 v 251.33901 c 0,8.16589 7.71494,14.79313 17.30584,14.79313 h 207.88932 c 9.59252,0 17.30746,-6.62724 17.30746,-14.79313 V 320.39692 c 0,-3.89651 -1.77525,-7.6433 -5.02365,-10.39484 z"
   id="path7" />

<path
   class="cls-1"
   d="m 489.47169,352.29864 -28.15135,-69.99393 c 0,-0.041 -0.0648,-0.0512 -0.081,-0.0872 a 2.662819,2.5266901 0 0 0 -3.28396,-1.43504 l -64.05891,19.9419 a 14.723823,13.97111 0 0 0 -27.6706,8.63076 l -64.04809,19.92652 a 2.6466153,2.5113147 0 0 0 -1.62038,1.4504 c 0,0.0307 -0.0487,0.041 -0.0648,0.0717 l -28.15135,69.99395 a 32.807227,31.130052 0 1 0 61.30966,0 l -27.09813,-67.48775 61.39067,-19.10137 a 14.767033,14.012111 0 0 0 3.43519,3.98736 0.93981848,0.89177295 0 0 0 -0.027,0.11274 v 120.05111 a 50.431524,47.853358 0 0 0 -37.8088,31.36068 h -8.32332 a 7.1296576,6.7651745 0 0 0 -7.12426,6.75492 v 7.55445 a 7.1350586,6.7702994 0 0 0 7.12426,6.75492 H 436.5934 a 7.1350586,6.7702994 0 0 0 7.12426,-6.75492 v -7.55445 a 7.1296576,6.7651745 0 0 0 -7.12426,-6.75492 h -8.28551 A 50.431524,47.853358 0 0 0 390.49913,438.35978 V 318.30876 a 0.93981848,0.89177295 0 0 0 -0.0271,-0.11276 14.777835,14.022361 0 0 0 5.32564,-10.73202 14.864256,14.104364 0 0 0 -0.19985,-1.87067 l 58.65229,-18.27622 -26.10967,64.98155 a 32.807227,31.130052 0 1 0 61.30966,0 z m -160.844,50.33392 a 28.383599,26.932569 0 0 1 1.36652,4.82786 h -53.95314 a 28.383599,26.932569 0 0 1 1.36651,-4.82786 l 25.61276,-63.72589 z M 431.81868,358.9613 a 28.507827,27.050447 0 0 1 1.36652,-4.82787 l 25.60735,-63.74127 25.61276,63.71564 a 28.507827,27.050447 0 0 1 1.36651,4.82788 z"
   id="path1-3"
   style="fill:#231f20;stroke-width:5.26139" /><path
   class="cls-2"
   d="m 325.58678,426.6438 a 27.416774,26.015171 0 0 1 -49.97781,-14.06848 h 54.81734 a 27.119705,25.733287 0 0 1 -4.83953,14.06848 z"
   id="path2-5"
   style="fill:#ffba50;stroke-width:5.26139" /><ellipse
   class="cls-3"
   cx="380.90643"
   cy="307.46396"
   id="circle2"
   style="fill:#ff8e5a;stroke-width:5.26139"
   rx="9.4792042"
   ry="8.994606" /><path
   class="cls-4"
   d="m 325.21949,474.84568 h 111.3793 a 1.7175993,1.629792 0 0 1 1.7176,1.62977 v 7.54933 a 1.7230005,1.6349172 0 0 1 -1.723,1.63492 H 325.2141 a 1.7175993,1.629792 0 0 1 -1.7176,-1.6298 v -7.55445 a 1.7230005,1.6349172 0 0 1 1.72299,-1.62977 z"
   id="path3-6"
   style="fill:#8d7f89;stroke-width:5.26139" /><path
   class="cls-4"
   d="m 422.60414,469.72054 h -83.39539 a 44.679187,42.395093 0 0 1 83.39539,0 z"
   id="path4-2"
   style="fill:#8d7f89;stroke-width:5.26139" /><path
   class="cls-3"
   d="m 385.08701,437.60133 q -2.07408,-0.16913 -4.18057,-0.16913 -2.10648,0 -4.18057,0.16913 V 320.9482 a 13.384312,12.700077 0 0 0 8.36114,0 z"
   id="path5-9"
   style="fill:#ff8e5a;stroke-width:5.26139" /><path
   class="cls-2"
   d="m 481.3698,378.14467 a 27.416774,26.015171 0 0 1 -49.97781,-14.06848 h 54.83894 a 27.119705,25.733287 0 0 1 -4.86113,14.06848 z"
   id="path6-1"
   style="fill:#ffba50;stroke-width:5.26139" /><path
   style="fill:#c8b7b7;stroke-width:1.41193;fill-opacity:1"
   d="m 418.15027,235.26789 c -2.98949,-2.68873 -7.10005,-4.20915 -11.35112,-4.20915 v 85.95691 h 95.66095 c 0,-3.75036 -1.63525,-7.35535 -4.62475,-10.00141 z"
   id="path8" /></svg>
