<?xml version="1.0" encoding="iso-8859-1"?>
<!-- Uploaded to: SVG Repo, www.svgrepo.com, Generator: SVG Repo Mixer Tools -->
<!DOCTYPE svg PUBLIC "-//W3C//DTD SVG 1.1//EN" "http://www.w3.org/Graphics/SVG/1.1/DTD/svg11.dtd">
<svg height="800px" width="800px" version="1.1" id="Capa_1" xmlns="http://www.w3.org/2000/svg" xmlns:xlink="http://www.w3.org/1999/xlink" 
	 viewBox="0 0 297.5 297.5" xml:space="preserve">
<g>
	<g id="XMLID_36_">
		<g>
			<path style="fill:#B8C4AC;" d="M204.73,52.63l14.99,224.851H77.77L92.761,52.63H204.73z M191.241,98.84
				c0-2.6-1.051-5.149-2.9-6.99c-1.84-1.84-4.38-2.89-6.979-2.89c-2.601,0-5.15,1.05-6.99,2.89c-1.84,1.841-2.9,4.391-2.9,6.99
				c0,2.601,1.061,5.15,2.9,6.99c1.84,1.83,4.39,2.89,6.99,2.89c2.6,0,5.14-1.06,6.979-2.89
				C190.19,103.99,191.241,101.44,191.241,98.84z M191.241,147.76c0-2.6-1.051-5.149-2.9-6.99c-1.84-1.829-4.38-2.89-6.979-2.89
				c-2.601,0-5.15,1.061-6.99,2.89c-1.84,1.841-2.9,4.391-2.9,6.99c0,2.601,1.061,5.15,2.9,6.99c1.84,1.84,4.39,2.9,6.99,2.9
				c2.6,0,5.14-1.061,6.979-2.9C190.19,152.91,191.241,150.36,191.241,147.76z M191.241,196.69c0-2.601-1.051-5.15-2.9-6.99
				c-1.84-1.84-4.38-2.9-6.979-2.9c-2.601,0-5.15,1.061-6.99,2.9c-1.84,1.84-2.9,4.39-2.9,6.99c0,2.59,1.061,5.14,2.9,6.98
				c1.84,1.84,4.39,2.9,6.99,2.9c2.6,0,5.14-1.061,6.979-2.9C190.19,201.83,191.241,199.28,191.241,196.69z M191.241,245.61
				c0-2.601-1.051-5.15-2.9-6.99c-1.84-1.84-4.38-2.9-6.979-2.9c-2.601,0-5.15,1.061-6.99,2.9c-1.84,1.84-2.9,4.39-2.9,6.99
				c0,2.6,1.061,5.149,2.9,6.989c1.84,1.83,4.39,2.891,6.99,2.891c2.6,0,5.14-1.061,6.979-2.891
				C190.19,250.76,191.241,248.21,191.241,245.61z M158.621,98.84c0-2.6-1.04-5.149-2.891-6.99c-1.84-1.84-4.38-2.89-6.989-2.89
				c-2.601,0-5.15,1.05-6.99,2.89c-1.84,1.841-2.89,4.391-2.89,6.99c0,2.601,1.05,5.15,2.89,6.99c1.84,1.83,4.39,2.89,6.99,2.89
				c2.609,0,5.149-1.06,6.989-2.89C157.581,103.99,158.621,101.44,158.621,98.84z M158.621,147.76c0-2.6-1.04-5.149-2.891-6.99
				c-1.84-1.829-4.38-2.89-6.989-2.89c-2.601,0-5.15,1.061-6.99,2.89c-1.84,1.841-2.89,4.391-2.89,6.99c0,2.601,1.05,5.15,2.89,6.99
				c1.84,1.84,4.39,2.9,6.99,2.9c2.609,0,5.149-1.061,6.989-2.9C157.581,152.91,158.621,150.36,158.621,147.76z M158.621,196.69
				c0-2.601-1.04-5.15-2.891-6.99c-1.84-1.84-4.38-2.9-6.989-2.9c-2.601,0-5.15,1.061-6.99,2.9c-1.84,1.84-2.89,4.39-2.89,6.99
				c0,2.59,1.05,5.14,2.89,6.98c1.84,1.84,4.39,2.9,6.99,2.9c2.609,0,5.149-1.061,6.989-2.9
				C157.581,201.83,158.621,199.28,158.621,196.69z M158.621,245.61c0-2.601-1.04-5.15-2.891-6.99c-1.84-1.84-4.38-2.9-6.989-2.9
				c-2.601,0-5.15,1.061-6.99,2.9c-1.84,1.84-2.89,4.39-2.89,6.99c0,2.6,1.05,5.149,2.89,6.989c1.84,1.83,4.39,2.891,6.99,2.891
				c2.609,0,5.149-1.061,6.989-2.891C157.581,250.76,158.621,248.21,158.621,245.61z M126.011,98.84c0-2.6-1.05-5.149-2.899-6.99
				c-1.841-1.84-4.391-2.89-6.98-2.89c-2.6,0-5.15,1.05-6.99,2.89c-1.84,1.841-2.899,4.391-2.899,6.99c0,2.601,1.06,5.15,2.899,6.99
				c1.84,1.83,4.391,2.89,6.99,2.89c2.59,0,5.14-1.06,6.98-2.89C124.961,103.99,126.011,101.44,126.011,98.84z M126.011,147.76
				c0-2.6-1.05-5.149-2.899-6.99c-1.841-1.829-4.381-2.89-6.98-2.89c-2.6,0-5.15,1.061-6.99,2.89
				c-1.84,1.841-2.899,4.391-2.899,6.99c0,2.601,1.06,5.15,2.899,6.99c1.84,1.84,4.391,2.9,6.99,2.9c2.59,0,5.14-1.061,6.98-2.9
				C124.961,152.91,126.011,150.36,126.011,147.76z M126.011,196.69c0-2.601-1.05-5.15-2.899-6.99c-1.841-1.84-4.391-2.9-6.98-2.9
				c-2.6,0-5.15,1.061-6.99,2.9c-1.84,1.84-2.899,4.39-2.899,6.99c0,2.59,1.06,5.14,2.899,6.98c1.84,1.84,4.391,2.9,6.99,2.9
				c2.59,0,5.14-1.061,6.98-2.9C124.961,201.83,126.011,199.28,126.011,196.69z M126.011,245.61c0-2.601-1.05-5.15-2.899-6.99
				c-1.841-1.84-4.381-2.9-6.98-2.9c-2.6,0-5.15,1.061-6.99,2.9c-1.84,1.84-2.899,4.39-2.899,6.99c0,2.6,1.06,5.149,2.899,6.989
				c1.84,1.83,4.391,2.891,6.99,2.891c2.6,0,5.14-1.061,6.98-2.891C124.961,250.76,126.011,248.21,126.011,245.61z"/>
			<path d="M223.841,42.09l16.34,244.63c0,5.46-4.42,10.53-9.88,10.53c0,0-0.01,0-0.02,0H67.201c-2.73,0-5.34-1.13-7.21-3.13
				c-1.87-2-2.83-4.68-2.65-7.41L73.651,42.09c0.35-5.189,4.659-9.22,9.859-9.22h10.2l13.58-27.16c1.67-3.34,5.09-5.46,8.84-5.46
				h65.23c3.739,0,7.17,2.12,8.84,5.46l13.569,27.16h10.2C219.181,32.87,223.491,36.9,223.841,42.09z M219.721,277.48L204.73,52.63
				H92.761L77.77,277.48H219.721z M181.671,32.87l-6.42-12.851h-53.01L115.81,32.87H181.671z"/>
			<path d="M188.341,91.85c1.85,1.841,2.9,4.391,2.9,6.99c0,2.601-1.051,5.15-2.9,6.99c-1.84,1.83-4.38,2.89-6.979,2.89
				c-2.601,0-5.15-1.06-6.99-2.89c-1.84-1.84-2.9-4.39-2.9-6.99c0-2.6,1.061-5.149,2.9-6.99c1.84-1.84,4.39-2.89,6.99-2.89
				C183.961,88.96,186.501,90.01,188.341,91.85z"/>
			<path d="M188.341,140.77c1.85,1.841,2.9,4.391,2.9,6.99c0,2.601-1.051,5.15-2.9,6.99c-1.84,1.84-4.38,2.9-6.979,2.9
				c-2.601,0-5.15-1.061-6.99-2.9c-1.84-1.84-2.9-4.39-2.9-6.99c0-2.6,1.061-5.149,2.9-6.99c1.84-1.829,4.39-2.89,6.99-2.89
				C183.961,137.88,186.501,138.94,188.341,140.77z"/>
			<path d="M188.341,189.7c1.85,1.84,2.9,4.39,2.9,6.99c0,2.59-1.051,5.14-2.9,6.98c-1.84,1.84-4.38,2.9-6.979,2.9
				c-2.601,0-5.15-1.061-6.99-2.9c-1.84-1.84-2.9-4.39-2.9-6.98c0-2.601,1.061-5.15,2.9-6.99c1.84-1.84,4.39-2.9,6.99-2.9
				C183.961,186.8,186.501,187.86,188.341,189.7z"/>
			<path d="M188.341,238.62c1.85,1.84,2.9,4.39,2.9,6.99c0,2.6-1.051,5.149-2.9,6.989c-1.84,1.83-4.38,2.891-6.979,2.891
				c-2.601,0-5.15-1.061-6.99-2.891c-1.84-1.84-2.9-4.39-2.9-6.989c0-2.601,1.061-5.15,2.9-6.99c1.84-1.84,4.39-2.9,6.99-2.9
				C183.961,235.72,186.501,236.78,188.341,238.62z"/>
			<path d="M155.73,91.85c1.85,1.841,2.891,4.391,2.891,6.99c0,2.601-1.04,5.15-2.891,6.99c-1.84,1.83-4.38,2.89-6.989,2.89
				c-2.601,0-5.15-1.06-6.99-2.89c-1.84-1.84-2.89-4.39-2.89-6.99c0-2.6,1.05-5.149,2.89-6.99c1.84-1.84,4.39-2.89,6.99-2.89
				C151.351,88.96,153.891,90.01,155.73,91.85z"/>
			<path d="M155.73,140.77c1.85,1.841,2.891,4.391,2.891,6.99c0,2.601-1.04,5.15-2.891,6.99c-1.84,1.84-4.38,2.9-6.989,2.9
				c-2.601,0-5.15-1.061-6.99-2.9c-1.84-1.84-2.89-4.39-2.89-6.99c0-2.6,1.05-5.149,2.89-6.99c1.84-1.829,4.39-2.89,6.99-2.89
				C151.351,137.88,153.891,138.94,155.73,140.77z"/>
			<path d="M155.73,189.7c1.85,1.84,2.891,4.39,2.891,6.99c0,2.59-1.04,5.14-2.891,6.98c-1.84,1.84-4.38,2.9-6.989,2.9
				c-2.601,0-5.15-1.061-6.99-2.9c-1.84-1.84-2.89-4.39-2.89-6.98c0-2.601,1.05-5.15,2.89-6.99c1.84-1.84,4.39-2.9,6.99-2.9
				C151.351,186.8,153.891,187.86,155.73,189.7z"/>
			<path d="M155.73,238.62c1.85,1.84,2.891,4.39,2.891,6.99c0,2.6-1.04,5.149-2.891,6.989c-1.84,1.83-4.38,2.891-6.989,2.891
				c-2.601,0-5.15-1.061-6.99-2.891c-1.84-1.84-2.89-4.39-2.89-6.989c0-2.601,1.05-5.15,2.89-6.99c1.84-1.84,4.39-2.9,6.99-2.9
				C151.351,235.72,153.891,236.78,155.73,238.62z"/>
			<path d="M123.111,91.85c1.85,1.841,2.899,4.391,2.899,6.99c0,2.601-1.05,5.15-2.899,6.99c-1.841,1.83-4.391,2.89-6.98,2.89
				c-2.6,0-5.15-1.06-6.99-2.89c-1.84-1.84-2.899-4.39-2.899-6.99c0-2.6,1.06-5.149,2.899-6.99c1.84-1.84,4.391-2.89,6.99-2.89
				C118.721,88.96,121.27,90.01,123.111,91.85z"/>
			<path d="M123.111,140.77c1.85,1.841,2.899,4.391,2.899,6.99c0,2.601-1.05,5.15-2.899,6.99c-1.841,1.84-4.391,2.9-6.98,2.9
				c-2.6,0-5.15-1.061-6.99-2.9c-1.84-1.84-2.899-4.39-2.899-6.99c0-2.6,1.06-5.149,2.899-6.99c1.84-1.829,4.391-2.89,6.99-2.89
				C118.73,137.88,121.27,138.94,123.111,140.77z"/>
			<path d="M123.111,189.7c1.85,1.84,2.899,4.39,2.899,6.99c0,2.59-1.05,5.14-2.899,6.98c-1.841,1.84-4.391,2.9-6.98,2.9
				c-2.6,0-5.15-1.061-6.99-2.9c-1.84-1.84-2.899-4.39-2.899-6.98c0-2.601,1.06-5.15,2.899-6.99c1.84-1.84,4.391-2.9,6.99-2.9
				C118.721,186.8,121.27,187.86,123.111,189.7z"/>
			<path d="M123.111,238.62c1.85,1.84,2.899,4.39,2.899,6.99c0,2.6-1.05,5.149-2.899,6.989c-1.841,1.83-4.381,2.891-6.98,2.891
				c-2.6,0-5.15-1.061-6.99-2.891c-1.84-1.84-2.899-4.39-2.899-6.989c0-2.601,1.06-5.15,2.899-6.99c1.84-1.84,4.391-2.9,6.99-2.9
				C118.73,235.72,121.27,236.78,123.111,238.62z"/>
		</g>
		<g>
		</g>
	</g>
</g>
</svg>