<?xml version="1.0" encoding="iso-8859-1"?>
<!-- Uploaded to: SVG Repo, www.svgrepo.com, Generator: SVG Repo Mixer Tools -->
<svg version="1.1" id="Layer_1" xmlns="http://www.w3.org/2000/svg" xmlns:xlink="http://www.w3.org/1999/xlink" 
	 viewBox="0 0 480 480" xml:space="preserve">
<g>
	<path style="fill:#9CD9F1;" d="M432,336.096v-120H48v120h128v8h24v-5.712c-8-7.6-8-16.696-8-26.48c0-26.472,21.528-48,48-48
		s48,21.528,48,48c0,9.784-8,18.88-8,26.48v5.712h24v-8H432z"/>
	
		<rect x="135.032" y="38.931" transform="matrix(-0.7071 0.7071 -0.7071 -0.7071 279.703 -20.0515)" style="fill:#9CD9F1;" width="17.944" height="17.944"/>
	<polygon style="fill:#9CD9F1;" points="132.688,24 124.688,16.096 115.312,16.096 107.312,24 120,36.688 	"/>
	<polygon style="fill:#9CD9F1;" points="180.688,24 172.688,16.096 163.312,16.096 155.312,24 168,36.688 	"/>
	<polygon style="fill:#9CD9F1;" points="84.688,24 76.688,16.096 67.312,16.096 59.312,24 72,36.688 	"/>
	
		<rect x="87.028" y="38.936" transform="matrix(-0.7071 0.7071 -0.7071 -0.7071 197.757 13.9012)" style="fill:#9CD9F1;" width="17.944" height="17.944"/>
	
		<rect x="183.029" y="38.934" transform="matrix(-0.7071 0.7071 -0.7071 -0.7071 361.6409 -53.9849)" style="fill:#9CD9F1;" width="17.944" height="17.944"/>
	<polygon style="fill:#9CD9F1;" points="324.688,24 316.688,16.096 307.312,16.096 299.312,24 312,36.688 	"/>
	
		<rect x="279.031" y="38.964" transform="matrix(-0.7071 0.7071 -0.7071 -0.7071 525.5474 -121.8164)" style="fill:#9CD9F1;" width="17.944" height="17.944"/>
	
		<rect x="39.031" y="38.932" transform="matrix(-0.7071 0.7071 -0.7071 -0.7071 115.8191 47.8346)" style="fill:#9CD9F1;" width="17.944" height="17.944"/>
	<polygon style="fill:#9CD9F1;" points="276.688,24 268.688,16.096 259.312,16.096 251.312,24 264,36.688 	"/>
	
		<rect x="231.026" y="38.937" transform="matrix(-0.7071 0.7071 -0.7071 -0.7071 443.5788 -87.9183)" style="fill:#9CD9F1;" width="17.944" height="17.944"/>
	<polygon style="fill:#9CD9F1;" points="228.688,24 220.688,16.096 211.312,16.096 203.312,24 216,36.688 	"/>
	<polygon style="fill:#9CD9F1;" points="443.312,71.904 456,84.592 464,76.592 464,67.216 456,59.216 	"/>
	<path style="fill:#9CD9F1;" d="M36.688,23.904l-6.08-6.08c-5.688,2.432-10.256,7-12.688,12.688l6.08,6.08L36.688,23.904z"/>
	<polygon style="fill:#9CD9F1;" points="443.312,119.904 456,132.592 464,124.592 464,115.216 456,107.216 	"/>
	
		<rect x="327.028" y="38.936" transform="matrix(-0.7071 0.7071 -0.7071 -0.7071 607.4627 -155.8044)" style="fill:#9CD9F1;" width="17.944" height="17.944"/>
	<polygon style="fill:#9CD9F1;" points="443.312,168.096 464,168.096 464,163.216 456,155.312 	"/>
	<polygon style="fill:#9CD9F1;" points="36.688,71.904 24,59.216 16,67.216 16,76.592 24,84.592 	"/>
</g>
<path style="fill:#E5E8E8;" d="M16,455.904c0,4.408,3.584,8,8,8s8-3.592,8-8v-248c0-4.416,3.576-7.808,8-7.808h400
	c4.424,0,8,3.392,8,7.808v248c0,4.408,3.584,8,8,8s8-3.592,8-8V184.096H16V455.904z"/>
<g>
	<polygon style="fill:#9CD9F1;" points="24,155.312 16,163.216 16,168.096 36.688,168.096 	"/>
	<polygon style="fill:#9CD9F1;" points="36.688,119.904 24,107.216 16,115.216 16,124.592 24,132.592 	"/>
	
		<rect x="279.036" y="86.937" transform="matrix(-0.7071 0.7071 -0.7071 -0.7071 559.4775 -39.9251)" style="fill:#9CD9F1;" width="17.944" height="17.944"/>
	
		<rect x="255.028" y="110.942" transform="matrix(-0.7071 0.7071 -0.7071 -0.7071 535.4672 18.0299)" style="fill:#9CD9F1;" width="17.944" height="17.944"/>
	
		<rect x="303.036" y="62.964" transform="matrix(-0.7071 0.7071 -0.7071 -0.7071 583.4967 -97.8198)" style="fill:#9CD9F1;" width="17.944" height="17.944"/>
	
		<rect x="207.031" y="110.939" transform="matrix(-0.7071 0.7071 -0.7071 -0.7071 453.5293 51.9633)" style="fill:#9CD9F1;" width="17.944" height="17.944"/>
	
		<rect x="231.031" y="86.942" transform="matrix(-0.7071 0.7071 -0.7071 -0.7071 477.5315 -5.9724)" style="fill:#9CD9F1;" width="17.944" height="17.944"/>
	
		<rect x="255.031" y="62.937" transform="matrix(-0.7071 0.7071 -0.7071 -0.7071 501.5281 -63.9217)" style="fill:#9CD9F1;" width="17.944" height="17.944"/>
</g>
<circle style="fill:#E07940;" cx="240" cy="311.904" r="32"/>
<g>
	
		<rect x="303.032" y="110.937" transform="matrix(-0.7071 0.7071 -0.7071 -0.7071 617.4131 -15.9228)" style="fill:#9CD9F1;" width="17.944" height="17.944"/>
	
		<rect x="350.992" y="62.944" transform="matrix(-0.7071 0.7071 -0.7071 -0.7071 665.3494 -131.7659)" style="fill:#9CD9F1;" width="17.944" height="17.944"/>
	
		<rect x="375.029" y="86.944" transform="matrix(-0.7071 0.7071 -0.7071 -0.7071 723.3533 -107.7919)" style="fill:#9CD9F1;" width="17.944" height="17.944"/>
	
		<rect x="326.992" y="86.964" transform="matrix(-0.7071 0.7071 -0.7071 -0.7071 641.3641 -73.7893)" style="fill:#9CD9F1;" width="17.944" height="17.944"/>
	
		<rect x="351.029" y="110.964" transform="matrix(-0.7071 0.7071 -0.7071 -0.7071 699.368 -49.8153)" style="fill:#9CD9F1;" width="17.944" height="17.944"/>
	<path style="fill:#9CD9F1;" d="M462.08,30.512c-2.432-5.688-6.992-10.256-12.688-12.688l-6.08,6.08L456,36.592L462.08,30.512z"/>
	
		<rect x="399.026" y="110.944" transform="matrix(-0.7071 0.7071 -0.7071 -0.7071 781.289 -83.7896)" style="fill:#9CD9F1;" width="17.944" height="17.944"/>
	
		<rect x="399.029" y="62.931" transform="matrix(-0.7071 0.7071 -0.7071 -0.7071 747.3443 -165.7549)" style="fill:#9CD9F1;" width="17.944" height="17.944"/>
	
		<rect x="423.029" y="38.934" transform="matrix(-0.7071 0.7071 -0.7071 -0.7071 771.3465 -223.6906)" style="fill:#9CD9F1;" width="17.944" height="17.944"/>
	
		<rect x="87.032" y="86.932" transform="matrix(-0.7071 0.7071 -0.7071 -0.7071 231.7041 95.8335)" style="fill:#9CD9F1;" width="17.944" height="17.944"/>
	
		<rect x="111.032" y="62.936" transform="matrix(-0.7071 0.7071 -0.7071 -0.7071 255.7064 37.8978)" style="fill:#9CD9F1;" width="17.944" height="17.944"/>
	
		<rect x="63.032" y="110.937" transform="matrix(-0.7071 0.7071 -0.7071 -0.7071 207.7075 153.7828)" style="fill:#9CD9F1;" width="17.944" height="17.944"/>
	
		<rect x="63.028" y="62.932" transform="matrix(-0.7071 0.7071 -0.7071 -0.7071 173.7548 71.8369)" style="fill:#9CD9F1;" width="17.944" height="17.944"/>
	
		<rect x="159.026" y="110.936" transform="matrix(-0.7071 0.7071 -0.7071 -0.7071 371.5777 85.9024)" style="fill:#9CD9F1;" width="17.944" height="17.944"/>
	
		<rect x="39.028" y="86.937" transform="matrix(-0.7071 0.7071 -0.7071 -0.7071 149.7582 129.7862)" style="fill:#9CD9F1;" width="17.944" height="17.944"/>
	
		<rect x="183.034" y="86.939" transform="matrix(-0.7071 0.7071 -0.7071 -0.7071 395.5936 27.961)" style="fill:#9CD9F1;" width="17.944" height="17.944"/>
	
		<rect x="135.069" y="86.936" transform="matrix(-0.7071 0.7071 -0.7071 -0.7071 313.7103 61.8718)" style="fill:#9CD9F1;" width="17.944" height="17.944"/>
	
		<rect x="159.029" y="62.939" transform="matrix(-0.7071 0.7071 -0.7071 -0.7071 337.6443 3.9644)" style="fill:#9CD9F1;" width="17.944" height="17.944"/>
	
		<rect x="111.069" y="110.94" transform="matrix(-0.7071 0.7071 -0.7071 -0.7071 289.7137 119.8211)" style="fill:#9CD9F1;" width="17.944" height="17.944"/>
	
		<rect x="87.069" y="134.929" transform="matrix(-0.7071 0.7071 -0.7071 -0.7071 265.7058 177.7431)" style="fill:#9CD9F1;" width="17.944" height="17.944"/>
	<polygon style="fill:#9CD9F1;" points="216,155.408 203.312,168.096 228.688,168.096 	"/>
	
		<rect x="183.031" y="134.968" transform="matrix(-0.7071 0.7071 -0.7071 -0.7071 429.5496 109.9536)" style="fill:#9CD9F1;" width="17.944" height="17.944"/>
	
		<rect x="231.028" y="134.931" transform="matrix(-0.7071 0.7071 -0.7071 -0.7071 511.4593 75.9519)" style="fill:#9CD9F1;" width="17.944" height="17.944"/>
	
		<rect x="39.032" y="134.934" transform="matrix(-0.7071 0.7071 -0.7071 -0.7071 183.7052 211.7185)" style="fill:#9CD9F1;" width="17.944" height="17.944"/>
	<polygon style="fill:#9CD9F1;" points="264,155.408 251.312,168.096 276.688,168.096 	"/>
	
		<rect x="279.024" y="134.926" transform="matrix(-0.7071 0.7071 -0.7071 -0.7071 593.3915 42.0048)" style="fill:#9CD9F1;" width="17.944" height="17.944"/>
	<polygon style="fill:#9CD9F1;" points="168,155.408 155.312,168.096 180.688,168.096 	"/>
	<polygon style="fill:#9CD9F1;" points="72,155.408 59.312,168.096 84.688,168.096 	"/>
	<polygon style="fill:#9CD9F1;" points="372.688,24 364.688,16.096 355.312,16.096 347.312,24 360,36.688 	"/>
	<polygon style="fill:#9CD9F1;" points="120,155.408 107.312,168.096 132.688,168.096 	"/>
	
		<rect x="135.026" y="134.924" transform="matrix(-0.7071 0.7071 -0.7071 -0.7071 347.5698 143.8244)" style="fill:#9CD9F1;" width="17.944" height="17.944"/>
	
		<rect x="423.023" y="134.944" transform="matrix(-0.7071 0.7071 -0.7071 -0.7071 839.2246 -59.7874)" style="fill:#9CD9F1;" width="17.944" height="17.944"/>
	<polygon style="fill:#9CD9F1;" points="420.688,24 412.688,16.096 403.312,16.096 395.312,24 408,36.688 	"/>
	<polygon style="fill:#9CD9F1;" points="312,155.408 299.312,168.096 324.688,168.096 	"/>
	
		<rect x="423.026" y="86.931" transform="matrix(-0.7071 0.7071 -0.7071 -0.7071 805.2799 -141.7526)" style="fill:#9CD9F1;" width="17.944" height="17.944"/>
	
		<rect x="374.992" y="38.931" transform="matrix(-0.7071 0.7071 -0.7071 -0.7071 689.3403 -189.7288)" style="fill:#9CD9F1;" width="17.944" height="17.944"/>
	
		<rect x="375.026" y="134.964" transform="matrix(-0.7071 0.7071 -0.7071 -0.7071 757.3036 -25.813)" style="fill:#9CD9F1;" width="17.944" height="17.944"/>
	
		<rect x="327.029" y="134.929" transform="matrix(-0.7071 0.7071 -0.7071 -0.7071 675.3431 8.0658)" style="fill:#9CD9F1;" width="17.944" height="17.944"/>
	<polygon style="fill:#9CD9F1;" points="360,155.408 347.312,168.096 372.688,168.096 	"/>
	
		<rect x="207.034" y="62.934" transform="matrix(-0.7071 0.7071 -0.7071 -0.7071 419.5902 -29.9883)" style="fill:#9CD9F1;" width="17.944" height="17.944"/>
	<polygon style="fill:#9CD9F1;" points="408,155.408 395.312,168.096 420.688,168.096 	"/>
</g>
<g>
	<path style="fill:#334C5B;" d="M440,0.096H40c-22.056,0-40,17.76-40,39.808v136v280c0,13.232,10.768,24,24,24s24-10.768,24-24
		V352.096h128v-8.192v-7.808H48v-120h384v120H304v7.808v8.192h128v103.808c0,13.232,10.768,24,24,24s24-10.768,24-24v-280v-136
		C480,17.856,462.056,0.096,440,0.096z M449.392,17.824c5.688,2.432,10.256,6.992,12.688,12.688l-6.08,6.08l-12.688-12.688
		L449.392,17.824z M444.688,47.904L432,60.592l-12.688-12.688L432,35.216L444.688,47.904z M395.312,71.904L408,59.216l12.688,12.688
		L408,84.592L395.312,71.904z M420.688,119.904L408,132.592l-12.688-12.688L408,107.216L420.688,119.904z M396.688,95.904
		L384,108.592l-12.688-12.688L384,83.216L396.688,95.904z M372.688,119.904L360,132.592l-12.688-12.688L360,107.216L372.688,119.904
		z M360,84.592l-12.688-12.688L360,59.216l12.688,12.688L360,84.592z M348.688,95.904L336,108.592l-12.688-12.688L336,83.216
		L348.688,95.904z M324.688,119.904L312,132.592l-12.688-12.688L312,107.216L324.688,119.904z M312,84.592l-12.688-12.688
		L312,59.216l12.688,12.688L312,84.592z M300.688,95.904L288,108.592l-12.688-12.688L288,83.216L300.688,95.904z M276.688,119.904
		L264,132.592l-12.688-12.688L264,107.216L276.688,119.904z M264,84.592l-12.688-12.688L264,59.216l12.688,12.688L264,84.592z
		 M252.688,95.904L240,108.592l-12.688-12.688L240,83.216L252.688,95.904z M228.688,119.904L216,132.592l-12.688-12.688L216,107.216
		L228.688,119.904z M216,84.592l-12.688-12.688L216,59.216l12.688,12.688L216,84.592z M204.688,95.904L192,108.592l-12.688-12.688
		L192,83.216L204.688,95.904z M180.688,119.904L168,132.592l-12.688-12.688L168,107.216L180.688,119.904z M168,84.592
		l-12.688-12.688L168,59.216l12.688,12.688L168,84.592z M156.688,95.904L144,108.592l-12.688-12.688L144,83.216L156.688,95.904z
		 M132.688,119.904L120,132.592l-12.688-12.688L120,107.216L132.688,119.904z M120,84.592l-12.688-12.688L120,59.216l12.688,12.688
		L120,84.592z M108.688,95.904L96,108.592L83.312,95.904L96,83.216L108.688,95.904z M84.688,119.904L72,132.592l-12.688-12.688
		L72,107.216L84.688,119.904z M72,84.592L59.312,71.904L72,59.216l12.688,12.688L72,84.592z M60.688,95.904L48,108.592
		L35.312,95.904L48,83.216L60.688,95.904z M60.688,143.904L48,156.592l-12.688-12.688L48,131.216L60.688,143.904z M72,155.408
		l12.688,12.688H59.312L72,155.408z M83.312,143.904L96,131.216l12.688,12.688L96,156.592L83.312,143.904z M120,155.408
		l12.688,12.688h-25.376L120,155.408z M131.312,143.904L144,131.216l12.688,12.688L144,156.592L131.312,143.904z M168,155.408
		l12.688,12.688h-25.376L168,155.408z M179.312,143.904L192,131.216l12.688,12.688L192,156.592L179.312,143.904z M216,155.408
		l12.688,12.688h-25.376L216,155.408z M227.312,143.904L240,131.216l12.688,12.688L240,156.592L227.312,143.904z M264,155.408
		l12.688,12.688h-25.376L264,155.408z M275.312,143.904L288,131.216l12.688,12.688L288,156.592L275.312,143.904z M312,155.408
		l12.688,12.688h-25.376L312,155.408z M323.312,143.904L336,131.216l12.688,12.688L336,156.592L323.312,143.904z M360,155.408
		l12.688,12.688h-25.376L360,155.408z M371.312,143.904L384,131.216l12.688,12.688L384,156.592L371.312,143.904z M408,155.408
		l12.688,12.688h-25.376L408,155.408z M419.312,143.904L432,131.216l12.688,12.688L432,156.592L419.312,143.904z M419.312,95.904
		L432,83.216l12.688,12.688L432,108.592L419.312,95.904z M403.312,16.096h9.376l8,7.904L408,36.64l-12.688-12.616L403.312,16.096z
		 M396.688,47.904L384,60.592l-12.688-12.688L384,35.216L396.688,47.904z M355.312,16.096h9.376l8,7.904L360,36.64l-12.688-12.616
		L355.312,16.096z M348.688,47.904L336,60.592l-12.688-12.688L336,35.216L348.688,47.904z M307.312,16.096h9.376l8,7.904L312,36.64
		l-12.688-12.616L307.312,16.096z M300.688,47.904L288,60.592l-12.688-12.688L288,35.216L300.688,47.904z M259.312,16.096h9.376
		l8,7.904L264,36.64l-12.688-12.616L259.312,16.096z M252.688,47.904L240,60.592l-12.688-12.688L240,35.216L252.688,47.904z
		 M211.312,16.096h9.376l8,7.904L216,36.64l-12.688-12.616L211.312,16.096z M204.688,47.904L192,60.592l-12.688-12.688L192,35.216
		L204.688,47.904z M163.312,16.096h9.376l8,7.904L168,36.64l-12.688-12.616L163.312,16.096z M156.688,47.904L144,60.592
		l-12.688-12.688L144,35.216L156.688,47.904z M115.312,16.096h9.376l8,7.904L120,36.64l-12.688-12.616L115.312,16.096z
		 M108.688,47.904L96,60.592L83.312,47.904L96,35.216L108.688,47.904z M67.312,16.096h9.376l8,7.904L72,36.64L59.312,24.024
		L67.312,16.096z M48,35.216l12.688,12.688L48,60.592L35.312,47.904L48,35.216z M30.608,17.824l6.08,6.08L24,36.592l-6.08-6.08
		C20.352,24.824,24.92,20.256,30.608,17.824z M16,67.216l8-8l12.688,12.688L24,84.592l-8-8V67.216z M16,115.216l8-8l12.688,12.688
		L24,132.592l-8-8V115.216z M16,163.216l8-7.904l12.688,12.784H16V163.216z M464,455.904c0,4.408-3.584,8-8,8s-8-3.592-8-8v-248
		c0-4.416-3.576-7.808-8-7.808H40c-4.424,0-8,3.392-8,7.808v248c0,4.408-3.584,8-8,8s-8-3.592-8-8V184.096h448V455.904z
		 M464,168.096h-20.688L456,155.312l8,7.904V168.096z M464,124.592l-8,8l-12.688-12.688L456,107.216l8,8V124.592z M464,76.592l-8,8
		l-12.688-12.688L456,59.216l8,8V76.592z"/>
	<path style="fill:#334C5B;" d="M288,311.904c0-26.472-21.528-48-48-48s-48,21.528-48,48c0,9.784,0,18.88,8,26.48v5.52v56.192h16
		v-46.68c0,2.824,8,4.8,16,5.768v88.912h16v-88.912c8-0.968,8-2.952,16-5.768v46.68h16v-56.192v-5.52
		C280,330.784,288,321.688,288,311.904z M208,311.904c0-17.648,14.352-32,32-32s32,14.352,32,32s-14.352,32-32,32
		S208,329.552,208,311.904z"/>
	<rect x="264" y="415.904" style="fill:#334C5B;" width="16" height="16"/>
	<rect x="232" y="463.904" style="fill:#334C5B;" width="16" height="16"/>
</g>
</svg>