<?xml version="1.0" encoding="iso-8859-1"?>
<!-- Uploaded to: SVG Repo, www.svgrepo.com, Generator: SVG Repo Mixer Tools -->
<svg version="1.1" id="Layer_1" xmlns="http://www.w3.org/2000/svg" xmlns:xlink="http://www.w3.org/1999/xlink" 
	 viewBox="0 0 512 512" xml:space="preserve">
<rect x="196.441" y="18.111" style="fill:#D7E9FF;" width="123.726" height="283.867"/>
<rect x="255.958" y="18.111" style="fill:#BBDDFF;" width="64.209" height="283.867"/>
<rect x="135.576" y="294.661" style="fill:#DFCCBE;" width="240.765" height="217.339"/>
<rect x="255.958" y="294.661" style="fill:#BD9B7B;" width="120.383" height="217.339"/>
<path d="M276.956,60.513l-16.9,6.773v-1.279c0-1.465-1.029-2.653-2.299-2.653h-3.786c-1.27,0-2.299,1.188-2.299,2.653v1.17
	l-16.63-6.665c-4.898-1.963-10.011,2.235-10.011,8.22v12.259c0,5.985,5.114,10.184,10.011,8.22l16.63-6.664v2.189
	c0,1.465,1.029,2.653,2.299,2.653h3.786c1.27,0,2.299-1.188,2.299-2.653v-2.298l16.9,6.773c4.898,1.963,10.012-2.235,10.012-8.22
	V68.733C286.969,62.748,281.855,58.55,276.956,60.513z"/>
<path style="fill:#FF738E;" d="M441.25,107.823v254.892h-55.818v21.201H300.46c-19.79,0-35.892-18.568-35.892-41.399V160.381
	l39.926-109.672V31.347h-96.987v19.362l39.926,109.672v182.136c0,22.831-16.102,41.399-35.892,41.399h-84.971v-21.201H70.75V107.823
	c0-18.014,5.632-35.098,15.862-48.118c10.94-13.918,26.436-21.901,42.517-21.901h47.031V0h159.681v37.804h47.031
	c16.081,0,31.577,7.983,42.517,21.901C435.618,72.725,441.25,89.809,441.25,107.823z"/>
<path style="fill:#85C9FF;" d="M286.971,68.733V80.99c0,5.987-5.12,10.188-10.01,8.223l-16.906-6.771v2.299
	c0,1.463-1.024,2.654-2.299,2.654h-3.783c-1.275,0-2.299-1.191-2.299-2.654v-2.194l-16.635,6.666
	c-4.89,1.964-10.01-2.236-10.01-8.223V68.733c0-5.987,5.12-10.188,10.01-8.223l16.635,6.666v-1.17c0-1.463,1.024-2.654,2.299-2.654
	h3.783c1.275,0,2.299,1.191,2.299,2.654v1.285l16.906-6.781C281.851,58.546,286.971,62.746,286.971,68.733z"/>
<path style="fill:#FF3C62;" d="M441.25,107.823v254.892h-55.818v21.201H300.46c-19.79,0-35.892-18.568-35.892-41.399V160.381
	l39.926-109.672V31.347h-48.536V0h79.882v37.804h47.031c16.081,0,31.577,7.983,42.517,21.901
	C435.618,72.725,441.25,89.809,441.25,107.823z"/>
<rect x="147.414" y="262.499" style="fill:#D7E9FF;" width="77.615" height="31.347"/>
<rect x="286.323" y="262.499" style="fill:#BBDDFF;" width="77.615" height="31.347"/>
<path style="fill:#00A6FF;" d="M276.961,89.213l-16.906-6.771v2.299c0,1.463-1.024,2.654-2.299,2.654h-1.797V63.352h1.797
	c1.275,0,2.299,1.191,2.299,2.654v1.285l16.906-6.781c4.89-1.964,10.01,2.236,10.01,8.223V80.99
	C286.971,86.977,281.851,91.178,276.961,89.213z"/>
</svg>