<?xml version="1.0" encoding="UTF-8" standalone="no"?>
<!-- Uploaded to: SVG Repo, www.svgrepo.com, Generator: SVG Repo Mixer Tools -->

<svg
   width="800px"
   height="800px"
   viewBox="0 0 32 32"
   enable-background="new 0 0 32 32"
   version="1.1"
   xml:space="preserve"
   id="svg5"
   sodipodi:docname="image.svg"
   inkscape:version="1.4.4 (dcaf3e7d9e, 2026-05-05)"
   xmlns:inkscape="http://www.inkscape.org/namespaces/inkscape"
   xmlns:sodipodi="http://sodipodi.sourceforge.net/DTD/sodipodi-0.dtd"
   xmlns="http://www.w3.org/2000/svg"
   xmlns:svg="http://www.w3.org/2000/svg"><defs
   id="defs5">











</defs><sodipodi:namedview
   id="namedview5"
   pagecolor="#ffffff"
   bordercolor="#000000"
   borderopacity="0.25"
   inkscape:showpageshadow="2"
   inkscape:pageopacity="0.0"
   inkscape:pagecheckerboard="0"
   inkscape:deskcolor="#d1d1d1"
   inkscape:zoom="0.98125"
   inkscape:cx="399.49045"
   inkscape:cy="400"
   inkscape:window-width="1920"
   inkscape:window-height="971"
   inkscape:window-x="0"
   inkscape:window-y="0"
   inkscape:window-maximized="1"
   inkscape:current-layer="svg5" />

<g
   id="ball" />

<g
   id="wistle" />

<g
   id="pitch" />

<g
   id="goal" />

<g
   id="socks" />

<g
   id="shoe" />

<g
   id="jersey" />

<g
   id="bottle" />

<g
   id="shorts" />

<g
   id="corner" />

<g
   id="winner" />

<g
   id="trophy" />

<g
   id="substitution" />

<g
   id="medal_award" />

<g
   id="strategy" />

<g
   id="card" />

<g
   id="gloves" />

<g
   id="stadium" />

<g
   id="keeper" />

<g
   id="time" />

<g
   id="horns" />

<g
   id="flag" />

<g
   id="referee" />

<g
   id="player" />

<g
   id="injury" />

<g
   id="supporter" />

<g
   id="coach" />

<g
   id="cone" />

<g
   id="captain" />

<g
   id="g5"
   transform="translate(0,2)"><path
     d="m 21,14 c 0,0.552 -0.447,1 -1,1 h -3 v 9 c 0,0.552 -0.447,1 -1,1 h -4 c -0.553,0 -1,-0.448 -1,-1 0,-0.552 0.447,-1 1,-1 h 3 V 5 H 12 C 11.447,5 11,4.552 11,4 11,3.448 11.447,3 12,3 h 4 c 0.553,0 1,0.448 1,1 v 9 h 3 c 0.553,0 1,0.448 1,1 z"
     fill="#ffcc2f"
     id="path1"
     style="fill:#c8c4b7" /><path
     d="M 12,7 H 2 C 1.447,7 1,6.552 1,6 V 2 C 1,1.448 1.447,1 2,1 h 10 c 0.553,0 1,0.448 1,1 v 4 c 0,0.552 -0.447,1 -1,1 z M 3,5 h 8 V 3 H 3 Z"
     fill="#ff911c"
     id="path2" /><path
     d="M 30,17 H 20 c -0.553,0 -1,-0.448 -1,-1 v -4 c 0,-0.552 0.447,-1 1,-1 h 10 c 0.553,0 1,0.448 1,1 v 4 c 0,0.552 -0.447,1 -1,1 z m -9,-2 h 8 v -2 h -8 z"
     fill="#ff911c"
     id="path3"
     style="fill:#ff0000" /><path
     d="M 12,27 H 2 C 1.447,27 1,26.552 1,26 v -4 c 0,-0.552 0.447,-1 1,-1 h 10 c 0.553,0 1,0.448 1,1 v 4 c 0,0.552 -0.447,1 -1,1 z M 3,25 h 8 V 23 H 3 Z"
     fill="#ff911c"
     id="path4" /></g>

<g
   id="score" />

<g
   id="celender" />

<g
   id="grass" />

<g
   id="game" />

<g
   id="subsitutions" />

<g
   id="bench" />

<g
   id="g9"
   transform="matrix(0.16264002,0,0,0.16097664,19.796666,10.699193)"><path
     d="m 24,49 h 16 a 2,2 0 0 1 2,2 v 6 H 22 v -6 a 2,2 0 0 1 2,-2 z"
     style="fill:#e5e6eb"
     id="path1-3" /><path
     d="M 4,11 V 24.977 A 4.023,4.023 0 0 0 8.023,29 H 55.977 A 4.023,4.023 0 0 0 60,24.977 V 11 Z M 56,25 H 8 V 15 h 48 z"
     style="fill:#e5e6eb"
     id="path2-6" /><polygon
     points="6,25 8,25 8,15 56,15 56,13 6,13 "
     style="fill:#d9dae2"
     id="polygon2" /><path
     d="M 58,11 V 22.977 A 4.023,4.023 0 0 1 53.977,27 H 6.023 A 3.989,3.989 0 0 1 4.366,26.634 4.016,4.016 0 0 0 8.023,29 H 55.977 A 4.023,4.023 0 0 0 60,24.977 V 11 Z"
     style="fill:#d9dae2"
     id="path3-7" /><rect
     height="13"
     style="fill:#e5e6eb"
     width="4"
     x="30"
     y="37"
     id="rect3" /><rect
     height="13"
     style="fill:#d9dae2"
     width="2"
     x="32"
     y="37"
     id="rect4" /><path
     d="M 18,6 H 46 V 25 A 14,14 0 0 1 32,39 v 0 A 14,14 0 0 1 18,25 Z"
     style="fill:#e5e6eb"
     id="path4-5" /><path
     d="M 44,6 V 23 A 14,14 0 0 1 21.153,33.847 14,14 0 0 0 46,25 V 6 Z"
     style="fill:#d9dae2"
     id="path5" /><polygon
     points="50,45 50,25 56,25 56,45 53,42 "
     style="fill:#cceaff"
     id="polygon5" /><polygon
     points="14,45 14,25 8,25 8,45 11,42 "
     style="fill:#cceaff"
     id="polygon6" /><rect
     height="4"
     style="fill:#d9dae2"
     width="32"
     x="16"
     y="3"
     id="rect6" /><rect
     height="4"
     style="fill:#cfcfd9"
     width="4"
     x="44"
     y="3"
     id="rect7" /><polygon
     points="38.179,18.424 35.135,21.392 35.853,25.583 32.09,23.605 28.326,25.583 29.045,21.392 26,18.424 30.208,17.813 32.09,14 33.972,17.813 "
     style="fill:#027de5"
     id="polygon7" /><rect
     height="4"
     style="fill:#444444"
     width="24"
     x="20"
     y="57"
     id="rect8" /><rect
     height="4"
     width="4"
     x="40"
     y="57"
     id="rect9" /><polygon
     points="20,15 20,9 26,9 "
     style="fill:#ffffff"
     id="polygon9" /><path
     d="M 60,10 H 47 V 8 h 1 A 1,1 0 0 0 49,7 V 3 A 1,1 0 0 0 48,2 H 16 a 1,1 0 0 0 -1,1 v 4 a 1,1 0 0 0 1,1 h 1 v 2 H 4 a 1,1 0 0 0 -1,1 v 13.978 a 5.029,5.029 0 0 0 4,4.916 V 45 a 1,1 0 0 0 1.707,0.707 L 11,43.414 13.293,45.707 A 1,1 0 0 0 15,45 V 30 h 2.875 A 15.043,15.043 0 0 0 29,39.7 V 48 H 24.012 A 3.015,3.015 0 0 0 21,51.012 V 56 h -1 a 1,1 0 0 0 -1,1 v 4 a 1,1 0 0 0 1,1 h 24 a 1,1 0 0 0 1,-1 V 57 A 1,1 0 0 0 44,56 H 43 V 51.012 A 3.015,3.015 0 0 0 39.988,48 H 35 V 39.7 A 15.043,15.043 0 0 0 46.125,30 H 49 v 15 a 1,1 0 0 0 1.707,0.707 L 53,43.414 55.293,45.707 A 1,1 0 0 0 57,45 V 29.894 a 5.029,5.029 0 0 0 4,-4.916 V 11 a 1,1 0 0 0 -1,-1 z m -5,14 h -8 v -8 h 8 z M 17,4 H 47 V 6 H 17 Z M 9,24 v -8 h 8 v 8 z M 5,24.978 V 12 h 12 v 2 H 8 A 1,1 0 0 0 7,15 V 27.81 A 3.019,3.019 0 0 1 5,24.978 Z m 6.707,16.315 a 1,1 0 0 0 -1.414,0 L 9,42.586 V 26 h 4 V 42.586 Z M 15,28 v -2 h 2.051 a 15.117,15.117 0 0 0 0.251,2 z M 43,60 H 21 V 58 H 43 Z M 41,51.012 V 56 H 23 V 51.012 A 1.013,1.013 0 0 1 24.012,50 H 39.988 A 1.013,1.013 0 0 1 41,51.012 Z M 33,48 h -2 v -8.051 c 0.332,0.022 0.662,0.051 1,0.051 0.338,0 0.668,-0.029 1,-0.051 z M 32,38 A 13.015,13.015 0 0 1 19,25 V 8 H 45 V 25 A 13.015,13.015 0 0 1 32,38 Z M 46.7,28 a 15.117,15.117 0 0 0 0.251,-2 H 49 v 2 z m 7.009,13.293 a 1,1 0 0 0 -1.414,0 L 51,42.586 V 26 h 4 V 42.586 Z M 59,24.978 A 3.019,3.019 0 0 1 57,27.81 V 15 a 1,1 0 0 0 -1,-1 h -9 v -2 h 12 z"
     id="path9" /></g></svg>
