<?xml version="1.0" encoding="UTF-8" standalone="no"?>
<!-- Uploaded to: SVG Repo, www.svgrepo.com, Generator: SVG Repo Mixer Tools -->

<svg
   height="800px"
   width="800px"
   version="1.1"
   id="Layer_1"
   viewBox="0 0 512 512"
   xml:space="preserve"
   xmlns="http://www.w3.org/2000/svg"
   xmlns:svg="http://www.w3.org/2000/svg"><defs
   id="defs6" />
<circle
   style="fill:#FF5B62;"
   cx="256"
   cy="256"
   r="256"
   id="circle1" />
<path
   style="fill:#FAD24D;"
   d="M369.749,430.031l-19.94-85.46c0,0,68.235-65.651,60.586-149.807  c-7.654-84.157-92.45-137.073-178.521-114.129c-86.071,22.941-100.327,91.892-100.731,103.204  c-0.406,11.313,10.196,40.242,2.542,60.009c-7.651,19.767-35.06,50.684-32.513,59.93c2.555,9.241,26.138,10.836,26.138,10.836  s0.278,8.942-2.859,10.841c-3.137,1.896-1.366,9.328,3.793,13.462c5.16,4.134,13.734,6.94,13.734,6.94s-9.886,2.233-8.606,9.244  c1.277,7.016,4.782,10.523,12.113,10.838c7.334,0.317,9.249-3.179,10.52,0.646c1.274,3.82,2.075,4.139,2.075,4.139  s-7.326,18.97-0.949,32.993c6.382,14.028,16.257,14.039,27.738,11.163c11.479-2.874,33.79-9.249,33.79-9.249l6.109,31.106  c6.387,45.273-24.444,68.547-25.094,69.032c18.123,4.068,36.969,6.23,56.321,6.23c57.014,0,109.665-18.645,152.211-50.16  c-4.102-1.978-37-30.348-38.461-31.809L369.749,430.031z"
   id="path1" />
<g
   id="g3">
	<path
   style="fill:#EDB937;"
   d="M159.24,407.649c6.351,10.062,15.347,9.805,25.632,7.229c11.479-2.874,33.79-9.249,33.79-9.249   l6.109,31.106c2.18,15.45,0.021,28.334-3.788,38.629l0.003-0.005c21.312-30.409,5.595-53.651,8.402-65.19   c2.807-11.541,47.408-22.455,56.762-29.629c9.359-7.174,16.061-26.975,16.061-26.975s-9.357,14.345-19.334,23.077   c-9.98,8.732-87.482,31.497-102.297,36.486C166.512,417.864,159.874,408.597,159.24,407.649L159.24,407.649L159.24,407.649z"
   id="path2" />
	<path
   style="fill:#EDB937;"
   d="M210.708,87.729c53.606-19.639,117.096-9.046,155.604,30.338   c45.892,46.93,56.586,132.331-23.555,222.698l26.99,89.266l-19.94-85.46c0,0,68.235-65.651,60.586-149.807   c-7.654-84.157-92.45-137.073-178.521-114.129c-7.607,2.028-14.641,4.419-21.165,7.092L210.708,87.729L210.708,87.729z"
   id="path3" />
</g>

<g
   id="g3-9"
   transform="matrix(0.32231405,0,0,0.33663911,183.16342,105.86094)"><path
     style="fill:#ff7855"
     d="M 0,256 C 0,397.384 114.615,512 256,512 L 278.261,256 256,0 C 114.615,0 0,114.615 0,256 Z"
     id="path1-4" /><path
     style="fill:#ff562b"
     d="M 256,0 V 512 C 397.384,512 512,397.384 512,256 512,114.616 397.384,0 256,0 Z"
     id="path2-8" /><polygon
     style="fill:#ffffff"
     points="114.333,350.445 161.555,397.667 256,303.222 278.261,256 256,208.778 161.555,114.333 114.333,161.555 208.778,256 "
     id="polygon2" /><polygon
     style="fill:#ffeac3"
     points="350.445,397.667 397.667,350.445 303.222,256 397.667,161.555 350.445,114.333 256,208.778 256,303.222 "
     id="polygon3" /></g></svg>
