<?xml version="1.0" ?>
<!-- Uploaded to: SVG Repo, www.svgrepo.com, Generator: SVG Repo Mixer Tools -->
<svg width="800px" height="800px" viewBox="0 0 512 512" baseProfile="tiny" overflow="visible" version="1.1" xml:space="preserve" xmlns="http://www.w3.org/2000/svg" xmlns:xlink="http://www.w3.org/1999/xlink">
<g id="Layer_1"/>
<g id="Layer_2"/>
<g id="Layer_3">
<g>
<path d="M414.351,243.542h-72.997v45.19h67.991c15.37,0,27.83,12.428,27.83,27.758l0,0    c0,15.33-12.46,27.758-27.83,27.758h-67.991v44.635h72.997c40.24,0,72.86-32.536,72.86-72.67v0    C487.211,276.078,454.591,243.542,414.351,243.542z" fill="#85A4E4"/>
<path d="M252.993,459.333H191.38c-63.789,0-115.5-51.711-115.5-115.5v-115.76c0-2.761,2.239-5,5-5h282.613    c2.761,0,5,2.239,5,5v115.76C368.493,407.622,316.782,459.333,252.993,459.333z" fill="#4677D5"/>
<path d="M363.567,223.073h-19.703c2.72,0,4.926,2.205,4.926,4.926V345.55c0,62.84-50.942,113.783-113.783,113.783    h19.703c62.841,0,113.783-50.943,113.783-113.783V227.998C368.493,225.278,366.288,223.073,363.567,223.073z" fill="#2E67D0"/>
<path d="M356.314,504.5H88.059c-34.943,0-63.27-28.327-63.27-63.27v-7.009c0-2.761,2.239-5,5-5h384.795    c2.761,0,5,2.239,5,5v7.009C419.584,476.173,391.257,504.5,356.314,504.5z" fill="#85A4E4"/>
<path d="M75.88,293.086v31.322c0,5.047,0.286,10.026,0.826,14.93h290.96c0.54-4.904,0.826-9.883,0.826-14.93    v-31.322H75.88z" fill="#85A4E4"/>
<circle cx="222.187" cy="316.212" fill="#155AC8" r="42.912"/>
<path d="M414.351,243.542h-19.703c40.24,0,72.86,32.536,72.86,72.671l0,0c0,40.135-32.621,72.67-72.86,72.67    h19.703c40.24,0,72.86-32.535,72.86-72.67l0,0C487.211,276.078,454.591,243.542,414.351,243.542z" fill="#7293DF"/>
<path d="M414.659,429.221h-19.703c2.72,0,4.926,2.205,4.926,4.926v8.024c0,34.424-27.906,62.33-62.329,62.33    h19.703c34.424,0,62.329-27.906,62.329-62.33v-8.024C419.584,431.427,417.379,429.221,414.659,429.221z" fill="#7293DF"/>
<path d="M348.79,293.086v31.322c0,5.047-0.286,10.026-0.826,14.93h19.703c0.54-4.904,0.826-9.883,0.826-14.93    v-31.322H348.79z" fill="#5C85DA"/>
<path d="M222.187,273.3c-3.392,0-6.687,0.406-9.851,1.149c18.949,4.454,33.061,21.455,33.061,41.763    c0,20.308-14.112,37.309-33.061,41.763c3.165,0.744,6.46,1.149,9.851,1.149c23.7,0,42.912-19.212,42.912-42.912    C265.099,292.512,245.886,273.3,222.187,273.3z" fill="#0046B0"/>
</g>
</g>
<g id="Layer_4"/>
<g id="Layer_5"/>
<g id="Layer_6"/>
<g id="Layer_7"/>
<g id="Layer_8"/>
<g id="Layer_9"/>
<g id="Layer_10"/>
<g id="Layer_11"/>
<g id="Layer_12"/>
<g id="Layer_13"/>
<g id="Layer_14"/>
<g id="Layer_15"/>
<g id="Layer_16"/>
<g id="Layer_17"/>
<g id="Layer_18"/>
<g id="Layer_19"/>
<g id="Layer_20"/>
<g id="Layer_21"/>
<g id="Layer_22"/>
<g id="Layer_23"/>
<g id="Layer_24"/>
<g id="Layer_25"/>
<g id="Layer_26"/>
<g id="Layer_27"/>
<g id="Layer_28"/>
<g id="Layer_29"/>
<g id="Layer_30"/>
<g id="Layer_31"/>
<g id="Layer_32"/>
<g id="Layer_33"/>
<g id="Layer_34"/>
<g id="Layer_35"/>
<g id="Layer_36"/>
<g id="Layer_37"/>
<g id="Layer_38"/>
<g id="Layer_39"/>
<g id="Layer_40"/>
<g id="Layer_41"/>
<g id="Layer_42"/>
<g id="Layer_43"/>
<g id="Layer_44"/>
<g id="Layer_45"/>
<g id="Layer_46"/>
<g id="Layer_47"/>
<g id="Layer_48"/>
<g id="Layer_49"/>
<g id="Layer_50">
<g>
<g>
<path d="M411.655,349.33h-41.47c-4.142,0-7.5-3.357-7.5-7.5s3.358-7.5,7.5-7.5h41.47c5.545,0,10.761-2.153,14.688-6.064     c3.908-3.9,6.062-9.093,6.062-14.616c0-11.397-9.309-20.67-20.75-20.67h-41.47c-4.142,0-7.5-3.357-7.5-7.5s3.358-7.5,7.5-7.5     h41.47c19.712,0,35.75,16.002,35.75,35.67c0,9.536-3.719,18.499-10.472,25.238C430.171,345.624,421.195,349.33,411.655,349.33z"/>
</g>
<g>
<path d="M416.735,394.64h-55.231c-4.142,0-7.5-3.357-7.5-7.5s3.358-7.5,7.5-7.5h55.231c36.646,0,66.46-29.729,66.46-66.27     c0-17.693-6.91-34.332-19.458-46.851c-12.551-12.523-29.244-19.42-47.003-19.42h-46.55c-4.142,0-7.5-3.357-7.5-7.5     s3.358-7.5,7.5-7.5h46.55c21.759,0,42.214,8.453,57.597,23.801c15.388,15.354,23.863,35.764,23.863,57.47     C498.195,358.183,461.652,394.64,416.735,394.64z"/>
</g>
<g>
<path d="M110.403,435.59c-1.816,0-3.637-0.655-5.079-1.983c-25.21-23.217-39.669-56.187-39.669-90.456V223.83     c0-6.893,5.607-12.5,12.5-12.5h287.03c6.893,0,12.5,5.607,12.5,12.5v119.32c0,16.23-3.111,31.993-9.248,46.853     c-6.768,16.439-17.29,31.52-30.423,43.606c-3.047,2.805-7.793,2.608-10.598-0.44c-2.805-3.048-2.607-7.792,0.44-10.597     c11.533-10.613,20.771-23.853,26.713-38.287c5.386-13.041,8.115-26.878,8.115-41.134V226.33H80.655v116.82     c0,30.089,12.695,59.037,34.831,79.423c3.047,2.806,3.242,7.551,0.437,10.598C114.443,434.777,112.426,435.59,110.403,435.59z"/>
</g>
<g>
<path d="M358.777,512H84.564c-39.022,0-70.77-31.747-70.77-70.77v-8.146c0-6.893,5.607-12.5,12.5-12.5h390.753     c6.893,0,12.5,5.607,12.5,12.5v8.146C429.548,480.253,397.8,512,358.777,512z M28.795,435.585v5.646     c0,30.751,25.018,55.77,55.77,55.77h274.213c30.752,0,55.77-25.019,55.77-55.77v-5.646H28.795z"/>
</g>
<g>
<g>
<path d="M165.849,185.652c-2.078,0-4.145-0.857-5.627-2.538c-14.181-16.076-20.957-32.367-20.138-48.421      c1.082-21.22,15.094-35.614,27.457-48.314c11.126-11.429,20.734-21.299,20.707-34.13c-0.025-12.297-9.08-25.337-26.911-38.758      c-3.31-2.491-3.973-7.193-1.482-10.502c2.491-3.31,7.193-3.972,10.502-1.482c21.789,16.399,32.854,33.461,32.89,50.711      c0.04,18.944-12.668,31.999-24.958,44.624c-11.535,11.85-22.431,23.042-23.225,38.614c-0.612,12.004,4.908,24.699,16.406,37.733      c2.741,3.106,2.444,7.846-0.663,10.586C169.383,185.034,167.612,185.652,165.849,185.652z"/>
</g>
<g>
<path d="M229.804,185.652c-2.078,0-4.145-0.857-5.627-2.538c-14.182-16.076-20.957-32.367-20.138-48.421      c1.082-21.22,15.094-35.614,27.457-48.314c11.126-11.429,20.733-21.299,20.707-34.13c-0.025-12.297-9.08-25.337-26.911-38.758      c-3.31-2.491-3.973-7.193-1.482-10.502c2.491-3.31,7.193-3.972,10.502-1.482c21.789,16.399,32.854,33.461,32.89,50.711      c0.04,18.944-12.668,31.999-24.959,44.624c-11.535,11.85-22.43,23.042-23.224,38.614c-0.612,12.004,4.908,24.699,16.407,37.733      c2.74,3.106,2.443,7.846-0.663,10.586C233.337,185.034,231.566,185.652,229.804,185.652z"/>
</g>
<g>
<path d="M291.266,185.652c-2.078,0-4.145-0.857-5.627-2.538c-14.182-16.076-20.957-32.367-20.139-48.421      c1.082-21.22,15.094-35.614,27.457-48.314c11.126-11.429,20.733-21.299,20.707-34.13c-0.026-12.297-9.08-25.337-26.911-38.758      c-3.31-2.491-3.973-7.193-1.482-10.502c2.49-3.31,7.192-3.972,10.502-1.482c21.788,16.398,32.854,33.46,32.89,50.711      c0.04,18.944-12.668,31.999-24.958,44.624c-11.535,11.85-22.431,23.042-23.225,38.614c-0.612,12.004,4.908,24.699,16.407,37.733      c2.74,3.106,2.443,7.846-0.663,10.586C294.799,185.034,293.029,185.652,291.266,185.652z"/>
</g>
</g>
<g>
<path d="M369.345,344.35h-110.97c-4.142,0-7.5-3.357-7.5-7.5c0-4.143,3.358-7.5,7.5-7.5h104.082     c0.152-2.563,0.229-5.124,0.229-7.659V297.4h-104.3c-4.142,0-7.5-3.357-7.5-7.5s3.358-7.5,7.5-7.5h111.8     c4.142,0,7.5,3.357,7.5,7.5v31.79c0,5.285-0.298,10.663-0.885,15.982C376.38,341.474,373.169,344.35,369.345,344.35z"/>
</g>
<g>
<path d="M184.975,344.35H73.994c-3.824,0-7.035-2.876-7.455-6.677c-0.587-5.319-0.885-10.697-0.885-15.982V289.9     c0-4.143,3.358-7.5,7.5-7.5h111.81c4.142,0,7.5,3.357,7.5,7.5s-3.358,7.5-7.5,7.5H80.655v24.29c0,2.535,0.077,5.096,0.229,7.659     h104.091c4.142,0,7.5,3.357,7.5,7.5C192.475,340.992,189.117,344.35,184.975,344.35z"/>
</g>
<g>
<path d="M221.671,364.431c-28.154,0-51.06-22.905-51.06-51.06s22.905-51.06,51.06-51.06c28.155,0,51.06,22.905,51.06,51.06     S249.826,364.431,221.671,364.431z M221.671,277.312c-19.883,0-36.06,16.176-36.06,36.06c0,19.884,16.176,36.06,36.06,36.06     c19.884,0,36.06-16.176,36.06-36.06C257.731,293.487,241.555,277.312,221.671,277.312z"/>
</g>
</g>
</g>
</svg>