<?xml version="1.0" encoding="UTF-8" standalone="no"?>
<!-- Uploaded to: SVG Repo, www.svgrepo.com, Generator: SVG Repo Mixer Tools -->

<svg
   fill="#000000"
   version="1.1"
   id="Capa_1"
   width="800px"
   height="800px"
   viewBox="0 0 459.319 459.319"
   xml:space="preserve"
   xmlns="http://www.w3.org/2000/svg"
   xmlns:svg="http://www.w3.org/2000/svg"><defs
   id="defs1">
	
</defs>
<path
   d="M 141.288,189.821 H 117.603 V 145.28 h 23.528 v -23.69 h 21.016 v 23.374 h 23.681 v 44.707 h -23.681 v 0.151 H 141.288 Z M 60.801,398.87 c 0.012,1.1 0.03,1.921 0.042,2.459 0.006,0.331 -0.053,0.638 -0.071,0.963 0.739,18.224 15.755,32.817 34.146,32.817 h 303.76 v -33.461 c 0,-6.68 5.421,-12.105 12.105,-12.105 6.679,0 12.105,5.426 12.105,12.105 v 45.565 c 0,6.686 -5.427,12.105 -12.105,12.105 H 93.091 c -0.629,0 -1.235,-0.089 -1.847,-0.183 -30.505,-1.91 -54.757,-27.261 -54.757,-58.245 0,-0.71 0.085,-1.396 0.109,-2.099 -0.375,-35.943 0,-309.36 0.042,-339.109 C 36.591,59.259 36.511,58.855 36.511,58.423 36.511,26.205 62.719,0 94.938,0 h 19.343 293.535 2.955 c 6.685,0 12.105,5.423 12.105,12.105 v 342.139 c 0,6.679 -5.421,12.104 -12.105,12.104 -0.071,0 -0.13,-0.023 -0.201,-0.023 -0.887,0.213 -1.82,0.354 -2.772,0.354 H 94.918 C 76.736,366.674 61.859,380.948 60.801,398.87 Z M 278.347,121.59 h 94.425 v 20.862 h -23.685 v 23.69 h -23.525 v 23.685 h -23.69 v 23.533 h -23.536 v 49.882 h 120.792 v -26.209 h -94.584 v -20.859 h 23.69 V 192.49 h 23.525 V 168.8 h 23.689 v -23.52 h 23.679 V 95.237 h -120.78 z m -53.398,70.9 h 56.265 V 166.137 H 224.949 Z M 91.41,263.229 h 26.2 v -47.056 h 23.679 v -0.15 h 44.54 v 47.219 h 26.354 V 142.452 H 188.495 V 118.611 H 164.81 V 95.237 h -26.202 v 23.684 h -23.685 v 23.69 H 91.389 v 120.618 z"
   id="path1"
   style="fill:#aa0000" />
</svg>
