<?xml version="1.0" encoding="iso-8859-1"?>
<!-- Uploaded to: SVG Repo, www.svgrepo.com, Generator: SVG Repo Mixer Tools -->
<svg height="800px" width="800px" version="1.1" id="Layer_1" xmlns="http://www.w3.org/2000/svg" xmlns:xlink="http://www.w3.org/1999/xlink" 
	 viewBox="0 0 512 512" xml:space="preserve">
<polygon style="fill:#74D6FF;" points="503.944,13.479 341.062,347.995 170.939,347.995 8.057,13.479 "/>
<path style="fill:#464655;" d="M316.047,375.353L316.047,375.353v-0.002l-1.117-10.404l-3.306-11.571l-4.959-9.367l-7.989-11.02
	l-10.193-7.301l-14.188-7.989l-18.293,4.175l-18.293-4.175l-14.188,7.989l-10.193,7.301l-7.989,11.02l-4.959,9.367l-3.306,11.571
	l-1.117,10.406l0.038,0.348c3.617,29.934,29.099,53.132,60.009,53.132c30.941,0,56.439-23.247,60.017-53.226
	C316.027,375.523,316.038,375.438,316.047,375.353L316.047,375.353L316.047,375.353z"/>
<g>
	<path style="fill:#5A5A6E;" d="M256,321.874c31.028,0,56.583,23.378,60.046,53.48c0.263-2.292,0.413-4.618,0.413-6.981
		c0-33.391-27.068-60.46-60.459-60.46s-60.46,27.069-60.46,60.46c0,2.363,0.15,4.689,0.413,6.981
		C199.417,345.253,224.972,321.874,256,321.874z"/>
	<path style="fill:#5A5A6E;" d="M256,368.019c-15.131,0-27.397,12.266-27.397,27.397v78.442h54.793v-78.443
		C283.398,380.285,271.132,368.019,256,368.019z"/>
</g>
<path style="fill:#464655;" d="M290.719,456.597h-69.437c-23.153,0-41.923,18.769-41.923,41.923l0,0h153.282l0,0
	C332.641,475.367,313.873,456.597,290.719,456.597z"/>
<path d="M15.18,9.721C13.103,5.786,8.231,4.28,4.296,6.357c-3.934,2.076-5.44,6.949-3.364,10.883
	c3.77,7.142,7.306,14.644,11.051,22.585c3.133,6.646,6.373,13.518,9.794,20.232c1.423,2.792,4.251,4.4,7.183,4.4
	c1.231,0,2.48-0.284,3.65-0.88c3.963-2.019,5.54-6.869,3.519-10.833c-3.309-6.492-6.495-13.251-9.577-19.787
	C22.9,25.201,19.119,17.183,15.18,9.721z"/>
<path d="M53.622,88.66c-1.961-3.993-6.786-5.641-10.782-3.678c-3.993,1.962-5.639,6.789-3.677,10.782
	c18.986,38.646,38.079,78.107,56.543,116.267c22.183,45.848,45.122,93.256,68.012,139.535c1.405,2.841,4.259,4.486,7.227,4.486
	c1.199,0,2.418-0.268,3.565-0.837c3.988-1.972,5.62-6.804,3.648-10.791c-22.858-46.215-45.782-93.593-67.95-139.409
	C91.733,166.833,72.63,127.35,53.622,88.66z"/>
<path d="M496.657,10.049c-5.832,12.385-12.004,24.841-17.973,36.887c-6.173,12.459-12.558,25.341-18.537,38.094
	c-1.888,4.027-0.154,8.824,3.874,10.713c1.105,0.518,2.268,0.764,3.414,0.764c3.026,0,5.928-1.716,7.299-4.637
	c5.904-12.593,12.249-25.396,18.384-37.779c6.005-12.117,12.213-24.646,18.113-37.177c1.896-4.025,0.169-8.824-3.857-10.718
	S498.55,6.024,496.657,10.049z"/>
<path d="M442.87,120.511c-7.729,15.322-15.167,30.471-20.782,41.956c-1.954,3.997-0.298,8.821,3.699,10.774
	c1.138,0.557,2.344,0.821,3.531,0.821c2.98,0,5.845-1.66,7.243-4.518c5.594-11.443,13.002-26.534,20.692-41.777
	c2.003-3.972,0.408-8.815-3.563-10.819C449.719,114.945,444.875,116.54,442.87,120.511z"/>
<path d="M348.384,351.357c18.651-40.625,38.545-80.931,55.726-115.522c5.974-12.029,11.776-23.892,16.162-32.883
	c1.95-3.998,0.291-8.821-3.707-10.771c-3.996-1.949-8.821-0.291-10.77,3.707c-4.375,8.968-10.161,20.798-16.112,32.78
	c-17.235,34.697-37.194,75.134-55.94,115.967c-1.856,4.042-0.083,8.825,3.961,10.681c1.089,0.499,2.231,0.737,3.355,0.737
	C344.108,356.052,347.027,354.31,348.384,351.357z"/>
<path d="M255.975,289.345c0.004,0,0.01,0,0.01,0h0.006l0.018,0.001c0.012,0,0.023-0.001,0.034-0.002
	c72.626-0.023,131.708-59.095,131.745-131.719c0-0.023,0.001-0.045,0.001-0.068c0,0,0-0.001,0-0.002v-0.002
	c0-0.023-0.001-0.045-0.001-0.068c-0.038-72.607-59.095-131.671-131.701-131.718c-0.03,0-0.06-0.001-0.09-0.001
	c-0.026,0-0.052,0.001-0.078,0.001c-72.612,0.045-131.676,59.115-131.707,131.729c0,0.012,0,0.023,0,0.034c0,0.008,0,0.016,0,0.024
	c0,0.001,0,0.002,0,0.003c0,0.023,0.001,0.045,0.001,0.067C124.251,230.254,183.341,289.331,255.975,289.345z M283.922,269.822
	c3.783-3.625,7.758-7.8,11.734-12.562c7.718-9.244,16.141-21.626,22.829-37.216c15.591-6.69,27.973-15.112,37.216-22.831
	c4.762-3.976,8.939-7.952,12.563-11.734C357.967,226.873,325.316,259.523,283.922,269.822z M330.805,149.502
	c-0.558-11.931-2.335-22.882-4.937-32.868c6.608,3.805,12.946,8.205,18.995,13.207c8.439,6.979,14.875,14.008,19.422,19.661
	L330.805,149.502L330.805,149.502z M364.274,165.612c-7.463,9.245-20.053,22.205-38.369,32.729
	c2.582-9.948,4.343-20.853,4.899-32.729H364.274z M368.265,129.637c-3.625-3.781-7.8-7.758-12.563-11.734
	c-9.244-7.719-21.626-16.142-37.216-22.831c-6.69-15.591-15.112-27.973-22.829-37.216c-3.977-4.762-7.953-8.938-11.734-12.562
	C325.316,55.592,357.967,88.241,368.265,129.637z M264.055,49.284c9.245,7.463,22.204,20.052,32.729,38.368
	c-9.948-2.582-20.853-4.343-32.729-4.899V49.284z M264.055,98.876c14.84,0.745,28.864,3.568,41.995,8.446
	c4.583,12.218,7.806,26.244,8.627,42.18h-50.623V98.876H264.055z M264.055,165.612h50.626c-0.746,14.84-3.568,28.864-8.446,41.996
	c-12.218,4.584-26.244,7.806-42.18,8.628V165.612z M264.055,232.362c11.931-0.56,22.882-2.335,32.868-4.937
	c-3.805,6.608-8.205,12.946-13.208,18.995c-6.978,8.438-14.007,14.873-19.661,19.422v-33.48H264.055z M247.946,265.842
	c-5.654-4.548-12.684-10.984-19.662-19.422c-5.003-6.05-9.403-12.387-13.208-18.995c9.987,2.602,20.938,4.379,32.869,4.937v33.48
	H247.946z M247.946,216.239c-14.892-0.749-28.962-3.586-42.132-8.495c-4.909-13.17-7.747-27.239-8.495-42.131h50.627V216.239z
	 M247.946,149.502h-50.627c0.749-14.892,3.586-28.961,8.495-42.131c13.17-4.909,27.24-7.747,42.132-8.495V149.502z M247.946,49.272
	v33.48c-11.932,0.56-22.883,2.335-32.869,4.937c3.805-6.608,8.205-12.946,13.208-18.995
	C235.262,60.255,242.292,53.82,247.946,49.272z M228.08,45.293c-3.783,3.625-7.758,7.8-11.735,12.562
	c-7.719,9.244-16.142,21.627-22.831,37.216c-15.59,6.69-27.973,15.112-37.216,22.831c-4.762,3.977-8.939,7.952-12.563,11.734
	C154.034,88.241,186.685,55.592,228.08,45.293z M181.195,149.502h-33.48c4.548-5.654,10.984-12.684,19.423-19.661
	c6.049-5.002,12.386-9.402,18.994-13.207C183.531,126.621,181.755,137.572,181.195,149.502z M186.132,198.48
	c-6.608-3.805-12.946-8.205-18.994-13.207c-8.439-6.978-14.873-14.007-19.422-19.661h33.48
	C181.755,177.542,183.531,188.494,186.132,198.48z M156.298,197.212c9.244,7.719,21.626,16.141,37.216,22.831
	c6.69,15.591,15.113,27.973,22.831,37.216c3.977,4.762,7.953,8.938,11.735,12.562c-41.395-10.298-74.046-42.948-84.345-84.345
	C147.36,189.259,151.536,193.235,156.298,197.212z"/>
<path d="M179.36,506.576h153.282c4.449,0,8.055-3.606,8.055-8.055c0-27.312-22.025-49.564-49.245-49.959v-21.568
	c20.515-12.384,33.063-34.41,33.063-58.622c0-10.347-2.254-20.297-6.698-29.574c-1.923-4.012-6.735-5.705-10.744-3.784
	c-4.012,1.922-5.706,6.733-3.784,10.744c3.395,7.087,5.118,14.695,5.118,22.614c0,14.963-6.267,28.836-16.954,38.61v-11.568
	c0-19.548-15.903-35.451-35.451-35.451s-35.452,15.903-35.452,35.451v11.567c-10.687-9.774-16.954-23.648-16.954-38.609
	c0-28.896,23.509-52.405,52.406-52.405c10.435,0,20.514,3.061,29.147,8.852c3.692,2.479,8.698,1.493,11.176-2.203
	c2.479-3.693,1.493-8.698-2.203-11.176c-11.296-7.578-24.477-11.583-38.12-11.583c-37.779,0-68.515,30.736-68.515,68.514
	c0,24.212,12.548,46.238,33.063,58.622v21.568c-27.22,0.395-49.245,22.647-49.245,49.959
	C171.305,502.969,174.91,506.576,179.36,506.576z M236.659,422.266v-26.849c0-10.665,8.677-19.341,19.342-19.341
	c10.665,0,19.341,8.677,19.341,19.341v26.849v26.279h-38.683L236.659,422.266L236.659,422.266z M221.281,464.653h7.322h54.793h7.322
	c15.9,0,29.277,11.014,32.899,25.813H188.382C192.005,475.667,205.381,464.653,221.281,464.653z"/>
</svg>