<?xml version="1.0" encoding="UTF-8" standalone="no"?>
<!-- Uploaded to: SVG Repo, www.svgrepo.com, Generator: SVG Repo Mixer Tools -->

<svg
   width="800px"
   height="800px"
   viewBox="0 -0.5 17 17"
   version="1.1"
   class="si-glyph si-glyph-stele"
   id="svg4"
   xmlns="http://www.w3.org/2000/svg"
   xmlns:svg="http://www.w3.org/2000/svg"
   xmlns:rdf="http://www.w3.org/1999/02/22-rdf-syntax-ns#"
   xmlns:cc="http://creativecommons.org/ns#"
   xmlns:dc="http://purl.org/dc/elements/1.1/">
  <title
     id="title1">634</title>
  <defs
     id="defs1" />
  <path
     d="m 1,14 1e-7,1.989746 H 16.003296 V 14 Z"
     class="si-glyph-fill"
     id="path1"
     style="fill:#332791;fill-rule:evenodd;stroke:none;stroke-width:1;fill-opacity:1" />
  <rect
     x="11"
     y="6"
     width="0.90499997"
     height="0.898"
     class="si-glyph-fill"
     id="rect1"
     style="fill:#3ac0d4;fill-rule:evenodd;stroke:none;stroke-width:1;fill-opacity:1" />
  <rect
     x="5"
     y="6"
     width="0.95099998"
     height="0.90499997"
     class="si-glyph-fill"
     id="rect2"
     style="fill:#2dd6da;fill-rule:evenodd;stroke:none;stroke-width:1;fill-opacity:1" />
  <path
     d="M 2,5.4120291 V 13.001 H 15 V 5.4120291 C 14.998992,0.06764078 10.01355,0.02441406 8.0595703,0.02441406 6.1055908,0.02441406 2,0.06764078 2,5.4120291 Z M 6.967,9.986 H 5.8935701 V 7.9538305 H 5.0066135 V 9.9565767 H 3.967 V 4.986 H 6.9525072 V 7.0142464 H 6.0201401 V 7.8734068 H 6.967 Z M 8.953,9.954 h -1 v -5 h 1 z M 11.038241,7.9961448 V 9.954 H 10 v -5 h 2.99522 L 13,7.9832837 Z"
     class="si-glyph-fill"
     id="path2"
     style="fill:#5271f3;fill-rule:evenodd;stroke:none;stroke-width:1;fill-opacity:1" />
  <metadata
     id="metadata4">
    <rdf:RDF>
      <cc:Work
         rdf:about="">
        <dc:title>634</dc:title>
      </cc:Work>
    </rdf:RDF>
  </metadata>
</svg>
