<?xml version="1.0" encoding="UTF-8" standalone="no"?>
<!-- Uploaded to: SVG Repo, www.svgrepo.com, Generator: SVG Repo Mixer Tools -->

<svg
   height="800px"
   width="800px"
   version="1.1"
   id="Layer_1"
   viewBox="0 0 487.402 487.402"
   xml:space="preserve"
   xmlns="http://www.w3.org/2000/svg"
   xmlns:svg="http://www.w3.org/2000/svg"><defs
   id="defs13">
	
	
	
	
	
	
	
	

		
	
		
	</defs>
<g
   id="g2"
   style="stroke:#ff0000;stroke-opacity:1">
			<path
   style="fill:#d1dceb;stroke:#ff0000;stroke-opacity:1"
   d="m 447.402,153.951 h -303 c -16.568,0 -30,-13.432 -30,-30 0,-16.568 13.432,-30 30,-30 h 303 c 16.568,0 30,13.432 30,30 0,16.568 -13.432,30 -30,30 z"
   id="path1" />
			<path
   d="m 447.402,163.951 h -303 c -22.056,0 -40,-17.944 -40,-40 0,-22.056 17.944,-40 40,-40 h 303 c 22.056,0 40,17.944 40,40 0,22.056 -17.944,40 -40,40 z m -303,-60 c -11.028,0 -20,8.972 -20,20 0,11.028 8.972,20 20,20 h 303 c 11.028,0 20,-8.972 20,-20 0,-11.028 -8.972,-20 -20,-20 z"
   id="path2"
   style="stroke:#ff0000;stroke-opacity:1" />
		</g><g
   id="g4"
   style="stroke:#ff0000;stroke-opacity:1">
			<path
   style="fill:#d1dceb;stroke:#ff0000;stroke-opacity:1"
   d="m 447.402,273.951 h -303 c -16.568,0 -30,-13.432 -30,-30 0,-16.568 13.432,-30 30,-30 h 303 c 16.568,0 30,13.432 30,30 0,16.568 -13.432,30 -30,30 z"
   id="path3" />
			<path
   d="m 447.402,283.951 h -303 c -22.056,0 -40,-17.944 -40,-40 0,-22.056 17.944,-40 40,-40 h 303 c 22.056,0 40,17.944 40,40 0,22.056 -17.944,40 -40,40 z m -303,-60 c -11.028,0 -20,8.972 -20,20 0,11.028 8.972,20 20,20 h 303 c 11.028,0 20,-8.972 20,-20 0,-11.028 -8.972,-20 -20,-20 z"
   id="path4"
   style="stroke:#ff0000;stroke-opacity:1" />
		</g><g
   id="g7"
   style="stroke:#ff0000;stroke-opacity:1">
		<g
   id="g6"
   style="stroke:#ff0000;stroke-opacity:1">
			<path
   style="fill:#d1dceb;stroke:#ff0000;stroke-opacity:1"
   d="m 447.402,393.951 h -303 c -16.568,0 -30,-13.432 -30,-30 0,-16.568 13.432,-30 30,-30 h 303 c 16.568,0 30,13.432 30,30 0,16.568 -13.432,30 -30,30 z"
   id="path5" />
			<path
   d="m 447.402,403.951 h -303 c -22.056,0 -40,-17.944 -40,-40 0,-22.056 17.944,-40 40,-40 h 303 c 22.056,0 40,17.944 40,40 0,22.056 -17.944,40 -40,40 z m -303,-60 c -11.028,0 -20,8.972 -20,20 0,11.028 8.972,20 20,20 h 303 c 11.028,0 20,-8.972 20,-20 0,-11.028 -8.972,-20 -20,-20 z"
   id="path6"
   style="stroke:#ff0000;stroke-opacity:1" />
		</g>
	</g><g
   id="g8"
   style="stroke:#ff0000;stroke-opacity:1;fill:#ff0000">
		<path
   d="m 41.985,173.451 c -5.523,0 -10,-4.477 -10,-10 v -55.629 l -12.212,12.212 c -3.905,3.905 -10.237,3.905 -14.143,0 -3.906,-3.905 -3.905,-10.237 0,-14.143 L 34.913,76.608 c 2.86,-2.859 7.163,-3.715 10.898,-2.167 3.737,1.548 6.173,5.194 6.173,9.239 v 79.771 c 10e-4,5.523 -4.476,10 -9.999,10 z"
   id="path7"
   style="stroke:#ff0000;stroke-opacity:1;fill:#ff0000" />
	</g><g
   id="g9"
   style="stroke:#ff0000;stroke-opacity:1;fill:#ff0000">
		<path
   d="M 59.402,290.451 H 14.473 c -4.044,0 -7.691,-2.437 -9.239,-6.173 -1.548,-3.736 -0.692,-8.038 2.167,-10.898 l 36.54,-36.54 c 5.028,-5.027 3.266,-10.964 2.606,-12.665 -0.624,-1.606 -3.175,-6.871 -9.83,-7.171 -0.242,-0.011 -0.49,-0.016 -0.739,-0.016 -8.81,0 -15.978,7.167 -15.978,15.978 0,5.523 -4.477,10 -10,10 -5.523,0 -10,-4.477 -10,-10 0,-19.838 16.14,-35.978 35.978,-35.978 0.548,0 1.093,0.012 1.635,0.036 12.463,0.562 23.029,8.192 27.579,19.916 4.645,11.968 1.921,25.013 -7.109,34.042 l -19.468,19.469 h 20.787 c 5.523,0 10,4.477 10,10 0,5.523 -4.477,10 -10,10 z"
   id="path8"
   style="stroke:#ff0000;stroke-opacity:1;fill:#ff0000" />
	</g><g
   id="g10"
   style="stroke:#ff0000;stroke-opacity:1;fill:#ff0000">
		<path
   d="m 36.818,413.723 c -16.606,0 -30.116,-13.51 -30.116,-30.116 0,-5.523 4.477,-10 10,-10 5.523,0 10,4.477 10,10 0,5.578 4.538,10.116 10.116,10.116 5.578,0 10.116,-4.538 10.116,-10.116 0,-5.478 -4.443,-9.77 -10.116,-9.77 -5.523,0 -10,-4.477 -10,-10 0,-5.523 4.477,-10 10,-10 5.673,0 10.116,-4.292 10.116,-9.77 0,-5.578 -4.538,-10.116 -10.116,-10.116 -5.578,0 -10.116,4.538 -10.116,10.116 0,5.523 -4.477,10 -10,10 -5.523,0 -10,-4.477 -10,-10 0,-16.606 13.51,-30.116 30.116,-30.116 16.606,0 30.116,13.51 30.116,30.116 0,7.58 -2.881,14.508 -7.618,19.77 4.736,5.261 7.618,12.189 7.618,19.77 0,16.606 -13.51,30.116 -30.116,30.116 z"
   id="path9"
   style="stroke:#ff0000;stroke-opacity:1;fill:#ff0000" />
	</g><g
   id="g11">
		<path
   d="m 372.402,131.451 h -171 c -5.523,0 -10,-4.477 -10,-10 0,-5.523 4.477,-10 10,-10 h 171 c 5.522,0 10,4.477 10,10 0,5.523 -4.478,10 -10,10 z"
   id="path10" />
	</g><g
   id="g12">
		<path
   d="m 161.402,131.451 h -18 c -5.523,0 -10,-4.477 -10,-10 0,-5.523 4.477,-10 10,-10 h 18 c 5.523,0 10,4.477 10,10 0,5.523 -4.477,10 -10,10 z"
   id="path11" />
	</g>
</svg>
