<?xml version="1.0" encoding="UTF-8" standalone="no"?>
<!-- Uploaded to: SVG Repo, www.svgrepo.com, Generator: SVG Repo Mixer Tools -->

<svg
   width="800px"
   height="800px"
   viewBox="0 0 1024 1024"
   class="icon"
   version="1.1"
   id="svg3"
   xmlns="http://www.w3.org/2000/svg"
   xmlns:svg="http://www.w3.org/2000/svg">
  <defs
     id="defs3" />
  <path
     d="m 106.70933,490.66667 c 0,185.55733 132.288,340.75733 307.49867,376.32 L 370.85867,764.05333 C 265.70667,717.78133 192.04267,612.736 192.04267,490.66667 192.04267,325.97333 325.99467,192 490.70933,192 c 164.672,0 298.66667,133.97333 298.66667,298.66667 0,122.06933 -73.70667,227.11466 -178.88,273.38666 L 567.168,866.98667 C 742.37867,831.424 874.70933,676.224 874.70933,490.66667 c 0,-211.75467 -172.288,-384 -384,-384 -211.75466,0 -384,172.24533 -384,384 z"
     fill="#64b5f6"
     id="path1" />
  <path
     d="M 85.333333,490.66667 H 213.33333 m 554.66667,0 H 896 M 490.66667,213.33333 V 85.333333"
     fill="none"
     id="path2" />
  <path
     d="M 490.70933,938.66667 320,533.33333 490.66667,640 661.33333,533.33333 Z"
     fill="#ff3d00"
     id="path3" />
</svg>
