<?xml version="1.0" encoding="UTF-8" standalone="no"?>
<!-- Uploaded to: SVG Repo, www.svgrepo.com, Generator: SVG Repo Mixer Tools -->

<svg
   width="800px"
   height="800px"
   viewBox="0 0 128 128"
   aria-hidden="true"
   role="img"
   class="iconify iconify--noto"
   preserveAspectRatio="xMidYMid meet"
   version="1.1"
   id="svg20"
   xmlns:xlink="http://www.w3.org/1999/xlink"
   xmlns="http://www.w3.org/2000/svg"
   xmlns:svg="http://www.w3.org/2000/svg">
  <symbol
     id="IconifyId17ecdb2904d178eab20390"
     viewBox="-64.5 -64.5 129 129">
    <g
       fill="none"
       stroke="#4285F4"
       stroke-miterlimit="10"
       id="g8">
      <path
         d="M-64-64H64V64H-64z"
         id="path1" />
      <path
         d="M36.95 37.82C27.32 46.32 14.2 51 0 51c-14.27 0-27.39-4.62-36.96-13.01C-47.45 28.79-53 15.65-53 0c0-15.58 5.55-28.69 16.04-37.92C-27.36-46.35-14.24-51 0-51c14.17 0 27.29 4.71 36.95 13.25C47.45-28.45 53-15.4 53 0c0 15.47-5.55 28.55-16.05 37.82z"
         id="path2" />
      <path
         d="M0 55c-29.59 0-57-19.01-57-55 0-35.8 27.41-55 57-55S57-35.31 57 0c0 35.51-27.41 55-57 55z"
         id="path3" />
      <path
         d="M0-43c-12.29 0-23.54 3.94-31.68 11.09C-40.39-24.25-45-13.21-45 0c0 29.7 22.6 43 45 43 21.67 0 45-13.46 45-43S21.67-43 0-43z"
         id="path4" />
      <path
         d="M-.01 51V-51"
         id="path5" />
      <path
         d="M-16 48.95v-97.88"
         id="path6" />
      <path
         d="M15.99 48.91v-97.84"
         id="path7" />
      <path
         d="M53 .08H-53"
         id="path8" />
    </g>
  </symbol>
  <linearGradient
     id="IconifyId17ecdb2904d178eab20391"
     x1="64"
     x2="64"
     y1="19.717"
     y2="107.7"
     gradientUnits="userSpaceOnUse">
    <stop
       stop-color="#FEE133"
       offset=".5"
       id="stop8" />
    <stop
       stop-color="#FEDE32"
       offset=".612"
       id="stop9" />
    <stop
       stop-color="#FCD32F"
       offset=".708"
       id="stop10" />
    <stop
       stop-color="#FAC12B"
       offset=".797"
       id="stop11" />
    <stop
       stop-color="#F7A924"
       offset=".883"
       id="stop12" />
    <stop
       stop-color="#F6A323"
       offset=".9"
       id="stop13" />
  </linearGradient>
  <defs
     id="defs14">
    <path
       id="IconifyId17ecdb2904d178eab20392"
       d="M63.47 62.53c-15.71 0-30.31-1.32-42.49-3.57-3.02-.56-5.69 2.1-5.08 5.11 4.04 19.81 23.55 36.08 47.55 36.08 26.27 0 43.94-16.8 47.61-36.15.57-2.99-2.1-5.6-5.09-5.04-12.18 2.25-26.78 3.57-42.5 3.57z" />
  </defs>
  <clipPath
     id="IconifyId17ecdb2904d178eab20393">
    <use
       xlink:href="#IconifyId17ecdb2904d178eab20392"
       id="use14" />
  </clipPath>
  <g
     id="g20"
     transform="matrix(1.1180274,0,0,1.576897,-6.9666351,-61.38993)">
    <path
       d="m 63.47,62.53 c -15.71,0 -30.31,-1.32 -42.49,-3.57 -3.02,-0.56 -5.69,2.1 -5.08,5.11 4.04,19.81 23.55,36.08 47.55,36.08 26.27,0 43.94,-16.8 47.61,-36.15 0.57,-2.99 -2.1,-5.6 -5.09,-5.04 -12.18,2.25 -26.78,3.57 -42.5,3.57 z"
       clip-path="url(#IconifyId17ecdb2904d178eab20393)"
       fill="#242424"
       id="path15" />
    <path
       d="M 116.72,61.38 V 46.49 H 10.24 V 61.38 C 26.61,71 44.6,76.35 63.48,76.35 c 18.88,0 36.86,-5.35 53.24,-14.97 z"
       clip-path="url(#IconifyId17ecdb2904d178eab20393)"
       fill="#ffffff"
       id="path16" />
    <path
       d="m 63.48,86.42 c -11.78,0 -22.05,6.42 -27.53,15.95 7.12,3.89 16.83,6.29 27.53,6.29 10.7,0 20.41,-2.4 27.53,-6.29 C 85.53,92.84 75.26,86.42 63.48,86.42 Z"
       clip-path="url(#IconifyId17ecdb2904d178eab20393)"
       fill="#ed7770"
       id="path17" />
    <g
       clip-path="url(#IconifyId17ecdb2904d178eab20393)"
       id="g19">
      <defs
         id="defs17">
        <path
           id="IconifyId17ecdb2904d178eab20394"
           d="M 10.24,46.49 V 61.38 C 26.62,71 44.6,76.35 63.48,76.35 82.36,76.35 100.34,71 116.72,61.38 V 46.49 Z m 53.24,39.93 c -11.78,0 -22.05,6.42 -27.53,15.95 7.12,3.89 16.83,6.29 27.53,6.29 10.71,0 20.41,-2.4 27.53,-6.29 C 85.53,92.84 75.26,86.42 63.48,86.42 Z" />
      </defs>
      <clipPath
         id="IconifyId17ecdb2904d178eab20395">
        <use
           xlink:href="#IconifyId17ecdb2904d178eab20394"
           id="use17" />
      </clipPath>
      <g
         clip-path="url(#IconifyId17ecdb2904d178eab20395)"
         id="g18">
        <path
           d="m 106.79,63.09 c 0.07,0 0.14,0.07 0.14,0.12 -1.68,8.85 -6.6,16.96 -13.85,22.84 -7.97,6.46 -18.21,9.88 -29.63,9.88 -10.46,0 -20.64,-3.45 -28.67,-9.72 -7.72,-6.03 -12.96,-14.19 -14.76,-23.02 0.01,-0.02 0.07,-0.1 0.18,-0.1 h 0.01 c 12.86,2.38 27.82,3.64 43.26,3.64 15.44,0 30.41,-1.26 43.28,-3.65 0.01,0.01 0.03,0.01 0.04,0.01 m 0,-4.21 c -0.27,0 -0.54,0.02 -0.81,0.08 -12.18,2.26 -26.79,3.58 -42.51,3.58 -15.71,0 -30.31,-1.32 -42.49,-3.57 -0.27,-0.05 -0.54,-0.08 -0.81,-0.08 -2.67,0 -4.83,2.44 -4.27,5.18 4.04,19.81 23.55,36.08 47.55,36.08 26.27,0 43.94,-16.8 47.61,-36.15 0.52,-2.72 -1.63,-5.12 -4.27,-5.12 z"
           fill="#eb8f00"
           id="path18" />
      </g>
    </g>
  </g>
</svg>
