<?xml version="1.0" encoding="UTF-8" standalone="no"?>
<!-- Uploaded to: SVG Repo, www.svgrepo.com, Generator: SVG Repo Mixer Tools -->

<svg
   fill="#000000"
   version="1.1"
   id="Capa_1"
   width="800px"
   height="800px"
   viewBox="0 0 259.77 259.77"
   xml:space="preserve"
   xmlns="http://www.w3.org/2000/svg"
   xmlns:svg="http://www.w3.org/2000/svg"><defs
   id="defs38">
	

		
		
		
	</defs>
<path
   d="m 96.083638,94.173802 c 5.186002,-6.58 8.109002,-14.79 8.109002,-23.335 0,-20.809 -16.932002,-37.74 -37.740002,-37.74 -20.809,0 -37.74,16.932 -37.74,37.74 0,8.692 3.001,17.004 8.331,23.627 -18.524,12.581998 -30.416,36.343008 -30.416,62.320008 0,3.958 3.2069998,7.169 7.169,7.169 H 119.73864 c 3.962,0 7.169,-3.211 7.169,-7.169 0,-26.244 -12.052,-50.11601 -30.824002,-62.612008 z m -74.759,55.447008 c 2.163,-21.436 13.915,-39.84301 30.6,-47.05801 2.39,-1.036 4.028,-3.290998 4.287,-5.875998 0.259,-2.586 -0.912,-5.113 -3.055,-6.6 -6.331,-4.382 -10.111,-11.579 -10.111,-19.245 0,-12.904 10.499,-23.403 23.403,-23.403 12.909,0 23.403,10.499 23.403,23.403 0,7.57 -3.713,14.715 -9.937,19.112 -2.126,1.496 -3.269,4.037 -2.987,6.625 0.282,2.585 1.946,4.824998 4.345,5.833998 16.877997,7.112 28.766002,25.58501 30.940002,47.21201 H 21.324638 Z"
   id="path25"
   style="fill:#ff00ff" /><path
   d="m 154.05307,173.94448 c -2.801,-2.8 -7.337,-2.8 -10.137,0 l -14.562,14.566 -14.57,-14.566 c -2.801,-2.8 -7.334,-2.8 -10.135,0 -2.801,2.8 -2.8,7.334 0,10.135 l 14.568,14.566 -14.568,14.57 c -2.8,2.801 -2.8,7.337 0,10.138 1.4,1.399 3.234,2.095 5.07,2.095 1.835,0 3.669,-0.695 5.073,-2.095 l 14.562,-14.571 14.57,14.571 c 1.4,1.399 3.234,2.095 5.069,2.095 1.834,0 3.668,-0.695 5.068,-2.095 2.8,-2.801 2.8,-7.337 0,-10.138 l -14.562,-14.57 14.562,-14.566 c 2.792,-2.8 2.792,-7.335 -0.008,-10.135 z"
   id="path27"
   style="fill:#ffcc00" />
<path
   d="m 220.70315,95.563704 c 5.186,-6.58 8.109,-14.79 8.109,-23.335 0,-20.809 -16.932,-37.74 -37.74,-37.74 -20.809,0 -37.74,16.932 -37.74,37.74 0,8.692 3.001,17.004 8.331,23.627 -18.524,12.581996 -30.416,36.342996 -30.416,62.319996 0,3.958 3.207,7.169 7.169,7.169 h 105.942 c 3.962,0 7.169,-3.211 7.169,-7.169 0,-26.244 -12.052,-50.116 -30.824,-62.611996 z m -74.759,55.446996 c 2.163,-21.436 13.915,-39.843 30.6,-47.058 2.39,-1.036 4.028,-3.291 4.287,-5.875996 0.259,-2.586 -0.912,-5.113 -3.055,-6.6 -6.331,-4.382 -10.111,-11.579 -10.111,-19.245 0,-12.904 10.499,-23.403 23.403,-23.403 12.909,0 23.403,10.499 23.403,23.403 0,7.57 -3.713,14.715 -9.937,19.112 -2.126,1.496 -3.269,4.037 -2.987,6.625 0.282,2.584996 1.946,4.824996 4.345,5.833996 16.878,7.112 28.766,25.585 30.94,47.212 h -90.888 z"
   id="path25-3"
   style="fill:#0000ff" /></svg>
