<?xml version="1.0" encoding="UTF-8" standalone="no"?>
<!-- Uploaded to: SVG Repo, www.svgrepo.com, Generator: SVG Repo Mixer Tools -->

<svg
   height="800px"
   width="800px"
   version="1.1"
   id="Capa_1"
   viewBox="0 0 52.397 52.397"
   xml:space="preserve"
   sodipodi:docname="image.svg"
   inkscape:version="1.3.1 (9b9bdc1480, 2023-11-25, custom)"
   xmlns:inkscape="http://www.inkscape.org/namespaces/inkscape"
   xmlns:sodipodi="http://sodipodi.sourceforge.net/DTD/sodipodi-0.dtd"
   xmlns="http://www.w3.org/2000/svg"
   xmlns:svg="http://www.w3.org/2000/svg"><defs
   id="defs2">
	
</defs><sodipodi:namedview
   id="namedview2"
   pagecolor="#ffffff"
   bordercolor="#000000"
   borderopacity="0.25"
   inkscape:showpageshadow="2"
   inkscape:pageopacity="0.0"
   inkscape:pagecheckerboard="0"
   inkscape:deskcolor="#d1d1d1"
   inkscape:zoom="1.3525"
   inkscape:cx="400"
   inkscape:cy="400"
   inkscape:window-width="2560"
   inkscape:window-height="1324"
   inkscape:window-x="0"
   inkscape:window-y="0"
   inkscape:window-maximized="1"
   inkscape:current-layer="Capa_1" />
<g
   id="g1"
   style="fill:#d38d5f">
		<circle
   style="fill:#d38d5f"
   cx="24.903"
   cy="4.6139998"
   r="4.6139998"
   id="circle1" />
		<path
   style="fill:#d38d5f"
   d="m 42.25,8.024 c -5.109,1.92 -10.387,3.046 -15.838,3.351 -0.055,0.003 -0.103,0.018 -0.154,0.024 -0.654,-0.248 -1.35,-0.359 -2.013,-0.291 -0.577,0.059 -1.086,0.227 -1.544,0.458 C 18.556,10.572 14.609,9.139 10.872,6.972 8.033,5.326 5.477,9.715 8.308,11.358 c 3.767,2.184 7.763,3.736 11.931,4.826 0.014,2.702 0.029,5.405 0.043,8.108 -0.978,6.823 -3.837,17.563 -6.127,23 -0.68,1.614 0.078,3.478 1.693,4.157 0.403,0.168 0.819,0.25 1.231,0.25 1.239,0 2.416,-0.731 2.927,-1.943 1.709,-4.059 3.454,-9.984 4.76,-15.473 1.078,4.82 1.391,9.52 1.02,14.713 -0.125,1.749 1.19,3.267 2.939,3.393 0.076,0.006 0.153,0.008 0.229,0.008 1.649,0 3.043,-1.275 3.162,-2.947 C 32.692,41.388 31.817,34.409 29.219,26.681 29.2,23.199 29.183,19.716 29.165,16.233 34.1,15.742 38.936,14.674 43.6,12.921 46.636,11.78 45.322,6.87 42.25,8.024 Z"
   id="path1" />
	</g>
</svg>
