<?xml version="1.0" encoding="UTF-8" standalone="no"?>
<!-- Uploaded to: SVG Repo, www.svgrepo.com, Generator: SVG Repo Mixer Tools -->

<svg
   width="800px"
   height="800px"
   viewBox="0 0 24 24"
   fill="none"
   version="1.1"
   id="svg9"
   sodipodi:docname="image.svg"
   inkscape:version="1.3.1 (9b9bdc1480, 2023-11-25, custom)"
   xmlns:inkscape="http://www.inkscape.org/namespaces/inkscape"
   xmlns:sodipodi="http://sodipodi.sourceforge.net/DTD/sodipodi-0.dtd"
   xmlns="http://www.w3.org/2000/svg"
   xmlns:svg="http://www.w3.org/2000/svg">
  <defs
     id="defs9" />
  <sodipodi:namedview
     id="namedview9"
     pagecolor="#ffffff"
     bordercolor="#000000"
     borderopacity="0.25"
     inkscape:showpageshadow="2"
     inkscape:pageopacity="0.0"
     inkscape:pagecheckerboard="0"
     inkscape:deskcolor="#d1d1d1"
     inkscape:zoom="1.3525"
     inkscape:cx="400"
     inkscape:cy="400"
     inkscape:window-width="2560"
     inkscape:window-height="1324"
     inkscape:window-x="0"
     inkscape:window-y="0"
     inkscape:window-maximized="1"
     inkscape:current-layer="svg9" />
  <path
     fill-rule="evenodd"
     clip-rule="evenodd"
     d="M3 1C1.89543 1 1 1.89543 1 3V5C1 6.10457 1.89543 7 3 7H5C6.10457 7 7 6.10457 7 5V3C7 1.89543 6.10457 1 5 1H3ZM5 3H3L3 5H5V3Z"
     fill="#0F0F0F"
     id="path1"
     style="fill:#0000ff" />
  <path
     fill-rule="evenodd"
     clip-rule="evenodd"
     d="M3 9C1.89543 9 1 9.89543 1 11V13C1 14.1046 1.89543 15 3 15H5C6.10457 15 7 14.1046 7 13V11C7 9.89543 6.10457 9 5 9H3ZM5 11H3L3 13H5V11Z"
     fill="#0F0F0F"
     id="path2"
     style="fill:#0000ff" />
  <path
     fill-rule="evenodd"
     clip-rule="evenodd"
     d="M1 19C1 17.8954 1.89543 17 3 17H5C6.10457 17 7 17.8954 7 19V21C7 22.1046 6.10457 23 5 23H3C1.89543 23 1 22.1046 1 21V19ZM3 19H5V21H3L3 19Z"
     fill="#0F0F0F"
     id="path3"
     style="fill:#0000ff" />
  <path
     fill-rule="evenodd"
     clip-rule="evenodd"
     d="M11 1C9.89543 1 9 1.89543 9 3V5C9 6.10457 9.89543 7 11 7H13C14.1046 7 15 6.10457 15 5V3C15 1.89543 14.1046 1 13 1H11ZM13 3H11V5H13V3Z"
     fill="#0F0F0F"
     id="path4"
     style="fill:#0000ff" />
  <path
     fill-rule="evenodd"
     clip-rule="evenodd"
     d="M9 11C9 9.89543 9.89543 9 11 9H13C14.1046 9 15 9.89543 15 11V13C15 14.1046 14.1046 15 13 15H11C9.89543 15 9 14.1046 9 13V11ZM11 11H13V13H11V11Z"
     fill="#0F0F0F"
     id="path5"
     style="fill:#0000ff" />
  <path
     fill-rule="evenodd"
     clip-rule="evenodd"
     d="M11 17C9.89543 17 9 17.8954 9 19V21C9 22.1046 9.89543 23 11 23H13C14.1046 23 15 22.1046 15 21V19C15 17.8954 14.1046 17 13 17H11ZM13 19H11V21H13V19Z"
     fill="#0F0F0F"
     id="path6"
     style="fill:#0000ff" />
  <path
     fill-rule="evenodd"
     clip-rule="evenodd"
     d="M17 3C17 1.89543 17.8954 1 19 1H21C22.1046 1 23 1.89543 23 3V5C23 6.10457 22.1046 7 21 7H19C17.8954 7 17 6.10457 17 5V3ZM19 3H21V5H19V3Z"
     fill="#0F0F0F"
     id="path7"
     style="fill:#0000ff" />
  <path
     fill-rule="evenodd"
     clip-rule="evenodd"
     d="M19 9C17.8954 9 17 9.89543 17 11V13C17 14.1046 17.8954 15 19 15H21C22.1046 15 23 14.1046 23 13V11C23 9.89543 22.1046 9 21 9H19ZM21 11H19V13H21V11Z"
     fill="#0F0F0F"
     id="path8"
     style="fill:#0000ff" />
  <path
     fill-rule="evenodd"
     clip-rule="evenodd"
     d="M17 19C17 17.8954 17.8954 17 19 17H21C22.1046 17 23 17.8954 23 19V21C23 22.1046 22.1046 23 21 23H19C17.8954 23 17 22.1046 17 21V19ZM19 19H21V21H19V19Z"
     fill="#0F0F0F"
     id="path9"
     style="fill:#0000ff" />
  <text
     xml:space="preserve"
     style="font-size:32.4639px;fill:#ff2a2a;stroke-width:2.70533"
     x="5.8850741"
     y="25.268135"
     id="text9"
     transform="scale(1.0986794,0.91018364)"><tspan
       sodipodi:role="line"
       id="tspan9"
       style="fill:#ff2a2a;stroke-width:2.70533"
       x="5.8850741"
       y="25.268135">?</tspan></text>
</svg>
