<?xml version="1.0" encoding="iso-8859-1"?>
<!-- Uploaded to: SVG Repo, www.svgrepo.com, Generator: SVG Repo Mixer Tools -->
<svg height="800px" width="800px" version="1.1" id="Layer_1" xmlns="http://www.w3.org/2000/svg" xmlns:xlink="http://www.w3.org/1999/xlink" 
	 viewBox="0 0 389.818 389.818" xml:space="preserve">
<path style="fill:#194F82;" d="M118.691,157.285h-18.424v-19.523c0-5.947-4.848-10.861-10.861-10.861s-10.861,4.848-10.861,10.861
	v30.319c0,5.947,4.848,10.861,10.861,10.861h29.285c5.947,0,10.861-4.848,10.861-10.861
	C129.552,162.198,124.638,157.285,118.691,157.285z"/>
<path style="fill:#FFFFFF;" d="M206.481,295.499c-14.61,0-26.57,11.895-26.57,26.57s11.895,26.57,26.57,26.57
	c14.61,0,26.57-11.895,26.57-26.57S221.091,295.499,206.481,295.499z"/>
<path style="fill:#FFC10D;" d="M122.505,304.162c0-24.372-20.04-43.895-43.895-43.895c-24.372,0-43.895,20.04-43.895,43.895
	s20.04,43.895,43.895,43.895S122.505,328.533,122.505,304.162z"/>
<path style="fill:#56ACE0;" d="M249.859,215.855v83.976c-8.663-15.709-24.954-25.988-43.378-25.988
	c-22.756,0-41.762,15.709-46.61,36.848H143.58c0-2.198,0.517-4.331,0.517-6.529c0-36.331-29.285-65.552-65.552-65.552
	c-23.855,0-44.994,12.994-56.372,32v-25.471c0-22.238,17.907-40.081,40.081-40.081h176.679
	C244.945,204.994,249.859,209.842,249.859,215.855z"/>
<path style="fill:#194F82;" d="M379.345,302.028h-72.081V31.547c0-5.947-4.848-10.861-10.861-10.861
	c-5.948,0-10.861,4.848-10.861,10.861V242.36h-14.61v-26.57c0-17.907-14.61-32.517-32.517-32.517H216.76L178.295,62.384
	c-4.331-13.576-16.808-22.756-30.901-22.756H83.459c-17.907,0-32.517,14.61-32.517,32.517V183.79
	C22.238,188.638,0,214.109,0,244.493v76.412c0,5.947,4.848,10.861,10.861,10.861h8.145c10.861,22.238,33.034,37.366,59.087,37.366
	s48.808-15.192,59.087-37.366h22.756c4.848,21.139,23.855,37.366,46.61,37.366c22.756,0,41.762-16.291,46.61-37.366h6.529
	c5.947,0,10.861-4.848,10.861-10.861v-56.889h14.61v48.808c0,5.947,4.849,10.861,10.861,10.861h82.941
	c5.947,0,10.861-4.848,10.861-10.861S385.358,302.028,379.345,302.028z M233.051,321.487c0,14.61-11.895,26.57-26.57,26.57
	c-14.61,0-26.57-11.895-26.57-26.57c0-14.61,11.895-26.57,26.57-26.57C221.091,294.982,233.051,307.394,233.051,321.487z
	 M78.028,348.057c-24.372,0-43.895-20.04-43.895-43.895s20.04-43.895,43.895-43.895c24.372,0,43.895,20.04,43.895,43.895
	S102.4,348.057,78.028,348.057z M206.481,273.842c-22.756,0-41.762,15.709-46.61,36.848H143.58c0-2.198,0.517-4.331,0.517-6.529
	c0-36.331-29.285-65.552-65.552-65.552c-23.855,0-44.994,12.994-56.372,32v-25.471c0-22.238,17.907-40.081,40.081-40.081h176.679
	c5.947,0,10.861,4.848,10.861,10.861v83.976C241.196,284.121,224.905,273.842,206.481,273.842z M72.598,72.21
	c0-5.947,4.848-10.861,10.861-10.861h63.935c4.848,0,8.663,3.232,10.279,7.564l36.331,113.842H72.598V72.21z"/>
</svg>