<?xml version="1.0" encoding="UTF-8" standalone="no"?>
<!-- Uploaded to: SVG Repo, www.svgrepo.com, Generator: SVG Repo Mixer Tools -->

<svg
   fill="#000000"
   height="800px"
   width="800px"
   version="1.1"
   id="Capa_1"
   viewBox="0 0 289.736 289.736"
   xml:space="preserve"
   xmlns="http://www.w3.org/2000/svg"
   xmlns:svg="http://www.w3.org/2000/svg"><defs
   id="defs1">
	
</defs>
<path
   id="path14179"
   d="m 72.194816,158.51838 c -9.777748,10.40387 -14.107421,25.54136 -10.085339,40.29328 1.457994,5.34743 3.895714,10.16775 7.050241,14.33929 l -46.891378,47.6176 c -2.371353,2.34101 -2.404926,6.17092 -0.07419,8.55272 2.330737,2.3818 6.143844,2.41552 8.515197,0.0745 0.04065,-0.0395 0.08045,-0.08 0.119391,-0.12125 L 77.737053,221.6397 c 10.04122,7.4322 23.239027,10.37245 36.151037,6.82137 22.3807,-6.15613 35.64763,-29.52998 29.51852,-52.00927 -1.458,-5.34742 -3.89572,-10.16775 -7.05025,-14.33928 l 85.27853,-86.599295 21.40312,21.262794 c 2.2071,2.192616 5.76532,2.172152 7.94748,-0.04379 0.71638,-0.727478 1.22229,-1.63681 1.46379,-2.6302 l 16.65533,-68.510173 c 0.73531,-3.029001 -1.11376,-6.082245 -4.12947,-6.820793 -0.89525,-0.219136 -1.82844,-0.213992 -2.72124,0.01499 L 194.23106,36.26552 c -0.9132,0.234234 -1.75111,0.69469 -2.44067,1.339912 -2.26952,2.125779 -2.39389,5.69876 -0.27744,7.978257 0.0506,0.05531 0.10364,0.109758 0.15671,0.162484 l 21.40313,21.262794 -85.29631,86.617363 c -10.04122,-7.4322 -23.24072,-10.37073 -36.152735,-6.81964 -7.690933,2.11375 -14.30725,6.26302 -19.428934,11.71168 z m 8.673398,8.30352 c 3.66146,-3.87812 8.403398,-6.83084 13.939062,-8.35373 10.434524,-2.87036 21.020914,0.0835 28.382654,6.91548 0.4033,0.56907 0.90072,1.06322 1.47168,1.46203 3.27513,3.49182 5.77745,7.82345 7.13292,12.79684 4.41047,16.17546 -4.98122,32.72118 -21.08575,37.14935 -10.43112,2.86864 -21.008979,-0.0835 -28.371556,-6.91126 -0.405891,-0.57504 -0.910139,-1.07428 -1.487927,-1.47477 -3.272572,-3.49096 -5.770618,-7.82005 -7.126931,-12.79087 -2.8934,-10.61286 0.15649,-21.3876 7.145848,-28.79307 z M 206.63225,44.727251 255.96752,32.049404 243.8891,81.73982 Z M 100.47648,167.36467 c -1.1694,1.18752 -1.15809,3.10233 0.0242,4.27687 0.57789,0.57411 1.36212,0.88877 2.1752,0.87318 8.34764,-0.0459 15.08792,6.65007 15.13457,15.03534 -0.025,1.66955 1.3032,3.04343 2.96544,3.06847 1.66223,0.0251 3.03007,-1.30895 3.05501,-2.97848 6.2e-4,-0.042 3.9e-4,-0.0829 -6.7e-4,-0.12316 -0.0637,-11.65301 -9.58548,-21.1124 -21.18739,-21.04847 -0.81236,-0.01 -1.59395,0.31496 -2.16637,0.89625 z M 218.97575,48.084422 c -1.13687,1.218127 -1.07535,3.131791 0.13829,4.274531 0.74804,0.704009 1.80026,0.977014 2.79427,0.726085 l 22.10975,-5.253224 c 1.62087,-0.374971 2.63123,-1.997778 2.2579,-3.625788 -0.37331,-1.628011 -1.989,-2.642817 -3.60988,-2.267846 -0.0109,0.0026 -0.0221,0.0052 -0.034,0.0087 l -22.10977,5.253225 c -0.59276,0.130696 -1.13176,0.438984 -1.54656,0.884278 z"
   style="fill:#37c8ab;stroke:#000000;stroke-width:1.20681;stroke-opacity:1" />
</svg>
