<?xml version="1.0" encoding="UTF-8" standalone="no"?>
<!-- Uploaded to: SVG Repo, www.svgrepo.com, Generator: SVG Repo Mixer Tools -->

<svg
   fill="#000000"
   height="800px"
   width="800px"
   version="1.1"
   id="Capa_1"
   viewBox="0 0 302.033 302.033"
   xml:space="preserve"
   xmlns:xlink="http://www.w3.org/1999/xlink"
   xmlns="http://www.w3.org/2000/svg"
   xmlns:svg="http://www.w3.org/2000/svg"><defs
   id="defs2"><linearGradient
   id="linearGradient5"><stop
     style="stop-color:#ff0000;stop-opacity:1;"
     offset="0"
     id="stop5" /><stop
     style="stop-color:#ff0000;stop-opacity:0;"
     offset="0.59418046"
     id="stop6" /></linearGradient>
	
	
<linearGradient
   xlink:href="#linearGradient5"
   id="linearGradient6"
   x1="43.305477"
   y1="147.65178"
   x2="261.10361"
   y2="147.65178"
   gradientUnits="userSpaceOnUse" /></defs>
<path
   d="m 237.87901,103.70253 h -46.43102 c -8.89864,0 -16.26196,-6.195727 -17.64703,-14.302847 11.7826,-6.92714 19.65496,-19.336818 19.65496,-33.469607 -9.1e-4,-21.672474 -18.50484,-39.304406 -41.25046,-39.304406 -22.74653,0 -41.25228,17.631932 -41.25228,39.304406 0,14.132789 7.87236,26.542467 19.65587,33.469607 -1.38416,8.10712 -8.74657,14.302847 -17.64612,14.302847 H 66.531002 L 43.305478,278.67789 H 261.10362 Z M 152.20546,37.506 c 10.66161,0 19.33442,8.265023 19.33442,18.423209 0,10.158186 -8.67372,18.422341 -19.33442,18.422341 -10.66161,0 -19.33624,-8.264155 -19.33624,-18.422341 C 132.86831,45.771023 141.54294,37.506 152.20546,37.506 Z m -8.1155,174.7385 -18.1934,-25.84577 -5.24521,5.77841 v 20.06736 h -7.13021 v -52.62857 h 7.13021 v 25.37725 h 0.24587 c 1.47521,-2.03025 2.95043,-3.90433 4.34368,-5.62223 l 16.88302,-19.75502 h 8.85128 l -19.99735,22.33187 21.55361,30.2967 z m 47.04295,-27.4075 v 21.94144 c 0,8.6676 -1.80304,13.97662 -5.65499,17.25625 -3.85103,3.43581 -9.42498,4.52902 -14.42341,4.52902 -4.75347,0 -9.99776,-1.09321 -13.19406,-3.12346 l 1.80304,-5.2318 c 2.6226,1.56173 6.72042,2.96729 11.63689,2.96729 7.37608,0 12.7852,-3.67006 12.7852,-13.19662 v -4.21667 h -0.16392 c -2.21282,3.51389 -6.47364,6.32501 -12.62037,6.32501 -9.83385,0 -16.8821,-7.96396 -16.8821,-18.42755 0,-12.80619 8.76842,-20.06736 17.86558,-20.06736 6.88434,0 10.65433,3.4358 12.3745,6.55926 h 0.16391 l 0.32783,-5.70031 h 6.31064 c -0.16482,2.73389 -0.32874,5.7784 -0.32874,10.3855 z"
   id="path1"
   style="stroke-width:0.888867;fill:url(#linearGradient6)" />
</svg>
