<?xml version="1.0" encoding="iso-8859-1"?>
<!-- Uploaded to: SVG Repo, www.svgrepo.com, Generator: SVG Repo Mixer Tools -->
<svg version="1.1" id="Layer_1" xmlns="http://www.w3.org/2000/svg" xmlns:xlink="http://www.w3.org/1999/xlink" 
	 viewBox="0 0 512 512" xml:space="preserve">
<polygon style="fill:#EDC272;" points="301.811,228.986 301.811,292.57 301.811,307.203 361.095,307.203 361.095,252.712 
	361.095,171.287 "/>
<polygon style="fill:#EABB71;" points="329.185,228.986 361.095,197.928 361.095,171.287 301.811,228.986 301.811,292.57 
	301.811,307.203 329.185,307.203 329.185,292.57 "/>
<path style="fill:#EDC272;" d="M396.126,150.905c-16.345,0-29.642,13.298-29.642,29.642v73.08V390.56h59.284V276.442v-95.895
	C425.768,164.203,412.471,150.905,396.126,150.905z"/>
<path style="fill:#EABB71;" d="M393.858,180.547c0-11.408,6.484-21.326,15.955-26.28c-4.098-2.143-8.751-3.362-13.687-3.362
	c-16.345,0-29.642,13.298-29.642,29.642v73.08V390.56h27.374V253.628V180.547z"/>
<path style="fill:#EDC272;" d="M150.089,152.975l0.758,25.62c0.036,0.647,0.058,1.297,0.058,1.953v72.165v39.857l59.284,30.691
	v-30.691v-81.282L150.089,152.975z"/>
<path style="fill:#EABB71;" d="M178.279,292.57v-39.857v-72.165c0-0.077-0.006-0.151-0.006-0.227l-28.183-27.345l0.758,25.62
	c0.036,0.647,0.058,1.297,0.058,1.953v72.165v39.857l59.284,30.691v-14.171L178.279,292.57z"/>
<path style="fill:#EDC272;" d="M115.874,150.905c-16.344,0-29.642,13.298-29.642,29.642v95.895v72.87h59.284v-95.686v-73.079
	C145.516,164.203,132.219,150.905,115.874,150.905z"/>
<path style="fill:#EABB71;" d="M113.606,180.547c0-11.408,6.484-21.326,15.955-26.28c-4.098-2.143-8.751-3.362-13.687-3.362
	c-16.344,0-29.642,13.298-29.642,29.642v95.895v72.87h27.374v-72.87C113.606,276.442,113.606,180.547,113.606,180.547z"/>
<g>
	<path style="fill:#EFCA83;" d="M258.695,501.221V361.405c0-11.647,4.534-22.596,12.763-30.833l29.278-29.304l0.141-0.122
		c0.096-0.084,0.185-0.172,0.265-0.265l0.126-0.146l32.298-32.326c6.521-6.527,15.179-10.12,24.379-10.12
		c1.139,0,2.293,0.057,3.43,0.169c10.331,1.02,19.561,6.561,25.321,15.202l0.522,0.783c9.152,13.728,7.614,32.317-3.656,44.203
		l-43.235,43.238c-1.051,1.052-1.051,2.762,0,3.813c0.686,0.686,1.489,0.787,1.906,0.787s1.219-0.102,1.906-0.788l2.667-2.667
		c6.733-6.733,24.947-24.945,39.909-39.895c0.204-0.203,0.65-0.664,0.65-0.664l43.006-43.005c0.509-0.51,0.789-1.187,0.789-1.907
		V142.821c0-19.317,15.716-35.032,35.032-35.032s35.032,15.715,35.032,35.032V323.1c0,11.371-4.952,22.137-13.585,29.535
		l-44.752,38.359c-10.877,9.324-17.116,22.888-17.116,37.214v48.833c0,13.332-10.847,24.179-24.179,24.179H258.695z"/>
	<path style="fill:#EFCA83;" d="M110.411,501.221c-13.332,0-24.179-10.847-24.179-24.18v-48.833
		c0-14.326-6.239-27.891-17.116-37.213l-44.752-38.359c-8.633-7.399-13.585-18.165-13.585-29.535V142.821
		c0-19.317,15.716-35.032,35.032-35.032s35.032,15.715,35.032,35.032v134.737c0,0.72,0.28,1.397,0.79,1.907l43.04,43.043
		c0.203,0.211,0.409,0.423,0.617,0.631c14.862,14.849,32.936,32.921,39.773,39.758l2.8,2.801c0.686,0.686,1.489,0.787,1.906,0.787
		c0.417,0,1.219-0.102,1.906-0.788c1.05-1.051,1.05-2.76,0-3.811l-43.235-43.237c-11.27-11.886-12.809-30.474-3.658-44.201
		l0.524-0.786c5.76-8.64,14.989-14.18,25.322-15.2c1.135-0.112,2.288-0.169,3.426-0.169c9.203,0,17.861,3.594,24.381,10.12
		l32.298,32.326l0.126,0.146c0.08,0.093,0.169,0.181,0.265,0.265l0.141,0.122l29.278,29.304
		c8.231,8.238,12.763,19.188,12.763,30.833v139.814H110.411z"/>
</g>
<path style="fill:#FF6342;" d="M146.548,228.355V80.842h216.657v147.513c0,3.659-2.966,6.626-6.626,6.626H153.174
	C149.516,234.981,146.548,232.015,146.548,228.355z"/>
<path style="fill:#FE5025;" d="M174.738,228.355V80.842h-28.189v147.513c0,3.659,2.966,6.626,6.626,6.626h28.189
	C177.704,234.981,174.738,232.015,174.738,228.355z"/>
<path style="fill:#FF3501;" d="M153.21,105.634c-10.268,0-17.44-5.16-17.44-12.548V63.209c0-7.388,7.171-12.548,17.44-12.548
	h208.228c6.918,0,12.548,5.629,12.548,12.548v29.878c0,6.919-5.629,12.548-12.548,12.548H153.21V105.634z"/>
<path style="fill:#AC2201;" d="M163.959,93.086V63.209c0-7.388,7.171-12.548,17.44-12.548H153.21c-10.268,0-17.44,5.16-17.44,12.548
	v29.878c0,7.388,7.171,12.548,17.44,12.548h28.189C171.131,105.634,163.959,100.474,163.959,93.086z"/>
<g>
	<rect x="232.782" y="104.556" style="fill:#FFA733;" width="44.194" height="130.425"/>
	<rect x="222.003" y="50.661" style="fill:#FFA733;" width="65.752" height="54.973"/>
	<path style="fill:#FFA733;" d="M287.214,7.545c-12.185,0-22.097,9.912-22.097,22.097s9.912,22.097,22.097,22.097
		s22.097-9.912,22.097-22.097S299.398,7.545,287.214,7.545z M287.214,35.448c-3.201,0-5.806-2.604-5.806-5.806
		s2.604-5.806,5.806-5.806c3.201,0,5.806,2.604,5.806,5.806S290.416,35.448,287.214,35.448z"/>
	<path style="fill:#FFA733;" d="M222.001,7.545c-12.185,0-22.097,9.912-22.097,22.097s9.912,22.097,22.097,22.097
		s22.097-9.912,22.097-22.097S234.186,7.545,222.001,7.545z M222.001,35.448c-3.201,0-5.806-2.604-5.806-5.806
		s2.604-5.806,5.806-5.806c3.201,0,5.806,2.604,5.806,5.806S225.203,35.448,222.001,35.448z"/>
</g>
<g>
	<path style="fill:#EABB71;" d="M298.832,330.572l29.278-29.304l0.141-0.122c0.096-0.084,0.185-0.172,0.265-0.265l0.126-0.146
		l32.298-32.326c3.133-3.136,6.764-5.587,10.707-7.295c-3.226-1.388-6.68-2.301-10.272-2.656c-1.137-0.112-2.291-0.169-3.43-0.169
		c-9.201,0-17.857,3.594-24.379,10.12l-32.298,32.326l-0.126,0.146c-0.08,0.093-0.169,0.181-0.265,0.265l-0.141,0.122
		l-29.278,29.304c-8.23,8.237-12.763,19.187-12.763,30.833v139.816h27.374V361.405C286.069,349.759,290.602,338.809,298.832,330.572
		z"/>
	<path style="fill:#EABB71;" d="M113.606,477.041v-48.833c0-14.326-6.239-27.891-17.116-37.213l-44.752-38.359
		c-8.633-7.399-13.585-18.166-13.585-29.535V142.821c0-14.462,8.811-26.904,21.344-32.245c-4.207-1.793-8.832-2.786-13.687-2.786
		c-19.316,0-35.032,15.715-35.032,35.032V323.1c0,11.371,4.952,22.137,13.585,29.535l44.752,38.359
		c10.878,9.324,17.116,22.888,17.116,37.214v48.833c0,13.332,10.847,24.179,24.179,24.179h27.374
		C124.453,501.221,113.606,490.374,113.606,477.041z"/>
</g>
<path d="M466.189,97.011c-27.634,0-46.934,16.622-46.934,40.421v10.802c-6.761-5.087-15.16-8.107-24.253-8.107
	c-9.093,0-17.492,3.019-24.253,8.107v-37.359c6.399-3.364,10.779-10.07,10.779-17.787V63.209c0-11.079-9.013-20.093-20.093-20.093
	h-47.834c2.074-4.045,3.253-8.623,3.253-13.474C316.856,13.298,303.559,0,287.214,0c-16.345,0-29.642,13.298-29.642,29.642
	c0,4.851,1.178,9.428,3.253,13.474H248.93c2.074-4.045,3.253-8.623,3.253-13.474C252.183,13.298,238.886,0,222.541,0
	s-29.642,13.298-29.642,29.642c0,4.851,1.178,9.428,3.253,13.474h-47.834c-11.079,0-20.093,9.013-20.093,20.093v29.878
	c0,7.718,4.379,14.423,10.779,17.787v37.359c-6.761-5.087-15.16-8.107-24.253-8.107s-17.492,3.019-24.253,8.107v-10.802
	c0-24.177-17.959-40.421-44.687-40.421C20.55,97.011,0,117.561,0,142.821V323.1c0,14.522,6.324,28.271,17.35,37.72l44.752,38.359
	c8.484,7.274,13.351,17.854,13.351,29.03v48.833c0,19.276,15.682,34.958,34.959,34.958h291.177
	c19.276,0,34.958-15.682,34.958-34.959v-48.833c0-11.175,4.867-21.756,13.352-29.03l44.752-38.359
	C505.676,351.371,512,337.622,512,323.1V142.821C512,117.561,491.45,97.011,466.189,97.011z M370.751,180.547
	c0-13.372,10.879-24.253,24.253-24.253s24.253,10.88,24.253,24.253v93.693l-15.47,15.675c-0.698-7.479-3.208-14.864-7.597-21.447
	l-0.525-0.787c-5.972-8.957-14.79-15.36-24.913-18.322V180.547z M361.437,59.284c2.163,0,3.925,1.76,3.925,3.925v29.878
	c0,2.164-1.76,3.925-3.925,3.925h-66.139V59.284H361.437z M284.519,226.358V113.179h70.063v113.179H284.519z M354.582,242.526v5.115
	c-10.74,0.794-20.881,5.384-28.641,13.15l-19.865,19.882v-38.147H354.582z M287.214,16.168c7.43,0,13.474,6.044,13.474,13.474
	s-6.044,13.474-13.474,13.474s-13.474-6.044-13.474-13.474S279.785,16.168,287.214,16.168z M279.129,59.284v37.726h-48.505V59.284
	H279.129z M268.35,113.179v113.179h-26.947V113.179H268.35z M222.54,16.168c7.43,0,13.474,6.044,13.474,13.474
	s-6.044,13.474-13.474,13.474s-13.474-6.044-13.474-13.474S215.111,16.168,222.54,16.168z M155.172,226.358V113.179h70.063v113.179
	H155.172z M203.677,242.526v35.899l-17.618-17.633c-8.298-8.305-19.321-12.974-30.887-13.256v-5.01H203.677z M144.393,63.209
	c0-2.164,1.76-3.925,3.925-3.925h66.139v37.726h-66.139c-2.163,0-3.925-1.76-3.925-3.925V63.209z M247.916,495.832H110.412
	c-10.378,0-18.791-8.413-18.791-18.791v-48.833c0-15.901-6.924-30.956-18.998-41.305l-44.752-38.359
	c-7.428-6.366-11.703-15.662-11.703-25.445V142.821c0-16.344,13.297-29.642,29.642-29.642c6.69,0,28.519,1.748,28.519,24.253v65.964
	c0,4.465,3.62,8.084,8.084,8.084l0,0c4.465,0,8.084-3.62,8.084-8.084v-22.252c0-13.134,10.193-24.335,23.317-24.83
	c13.797-0.522,25.188,10.552,25.188,24.235v69.531c-9.178,3.213-17.143,9.315-22.669,17.604l-0.522,0.784
	c-4.709,7.063-7.254,15.045-7.722,23.08l-17.592-17.366v-31.406c0-4.465-3.62-8.084-8.084-8.084l0,0
	c-4.465,0-8.084,3.62-8.084,8.084v34.783c0,2.162,0.867,4.235,2.405,5.754l87.355,86.232c3.17,3.128,8.275,3.105,11.414-0.056
	c3.14-3.16,3.131-8.264-0.018-11.415c0,0-23.84-23.84-42.577-42.562c-10.094-10.087-11.626-26.101-3.64-38.079l0.522-0.784
	c4.86-7.29,12.648-11.966,21.367-12.826c8.714-0.862,17.271,2.198,23.465,8.397l62.107,62.161
	c7.164,7.17,11.187,16.891,11.187,27.025V495.832z M256,332.857c-2.197-3.549-4.808-6.876-7.833-9.904l-28.322-28.346v-52.081
	h70.063v54.329l-26.075,26.098C260.81,325.98,258.197,329.308,256,332.857z M495.832,323.1c0,9.796-4.265,19.069-11.703,25.444
	l-44.753,38.359c-12.072,10.35-18.997,25.405-18.997,41.306v48.833c0,10.361-8.429,18.791-18.79,18.791H264.084V361.405
	c0-10.207,3.973-19.803,11.186-27.024l62.108-62.162c6.132-6.136,14.575-9.193,23.206-8.415c0.665,0.177,1.36,0.28,2.081,0.28
	c0.028,0,0.056-0.004,0.084-0.004c7.941,1.312,14.958,5.815,19.459,12.566l0.525,0.787c7.016,10.525,6.684,24.166-0.35,34.164
	l-45.906,46.512c-3.129,3.17-3.104,8.275,0.056,11.414c3.158,3.139,8.264,3.13,11.414-0.018c0-0.001,23.838-23.838,42.574-42.56
	c1.531-1.53,2.935-3.147,4.208-4.839l38.364-38.871c1.493-1.512,2.33-3.554,2.33-5.679V137.429
	c0-16.754,15.452-24.253,30.765-24.253c16.344,0,29.642,13.298,29.642,29.642V323.1z"/>
</svg>