<?xml version="1.0" encoding="UTF-8" standalone="no"?>
<!-- Uploaded to: SVG Repo, www.svgrepo.com, Generator: SVG Repo Mixer Tools -->

<svg
   height="800px"
   width="800px"
   version="1.1"
   id="Layer_1"
   viewBox="0 0 512 512"
   xml:space="preserve"
   xmlns="http://www.w3.org/2000/svg"
   xmlns:svg="http://www.w3.org/2000/svg"><defs
   id="defs4">
	
	
	
</defs>


<path
   style="fill:#008000;stroke-width:0.758827"
   d="m 475.86304,342.36694 h -41.82072 c -2.76547,17.2893 -9.23078,35.16041 -17.53347,47.26645 -10.14633,-9.79649 -22.75714,-23.91825 -34.75339,-36.31813 l 0.30727,-1.14596 c 28.60163,-13.55171 40.89889,-30.25922 40.89889,-49.85808 0,-27.96143 -24.29351,-45.5387 -56.28144,-45.5387 -41.51971,0 -62.12593,26.80959 -62.12593,51.29788 0,13.8338 6.76632,28.24939 15.68355,37.46996 v 1.14596 c -23.67896,11.53013 -39.36251,29.97715 -39.36251,55.62903 0,27.0858 22.14259,55.04135 72.26599,55.04135 24.60079,0 43.36336,-7.20486 56.89599,-17.00723 4.9164,5.18915 9.22451,9.51441 13.52636,13.8338 h 54.43779 c -12.91808,-12.96992 -24.91434,-25.646 -36.59705,-38.04588 18.46784,-19.30502 28.92772,-44.3751 34.45867,-73.77045 z M 365.15008,284.15216 c 12.30353,0 18.14802,10.09032 18.14802,19.3109 0,11.23628 -7.68814,18.73498 -22.75714,28.52559 -9.22451,-9.50853 -14.14718,-18.15906 -14.14718,-27.95555 0,-10.08445 6.76631,-19.88094 18.7563,-19.88094 z m -5.53095,141.50552 c -21.22076,0 -34.44612,-14.11588 -34.44612,-30.54719 0,-12.67608 7.68814,-21.03865 16.2981,-26.80372 16.91265,17.86523 33.83158,35.44837 46.74339,47.55442 -6.1455,5.47122 -16.29811,9.79649 -28.59537,9.79649 z"
   id="path4-2" /><path
   style="fill:#d40000;stroke-width:0.758827"
   d="m 352.42468,129.33167 h -41.82071 c -2.76547,17.2893 -9.23078,35.16041 -17.53348,47.26645 -10.14632,-9.79649 -22.75714,-23.91825 -34.75339,-36.31813 l 0.30727,-1.14596 c 28.60163,-13.55171 40.89889,-30.25922 40.89889,-49.858082 0,-27.96143 -24.29351,-45.5387 -56.28144,-45.5387 -41.51971,0 -62.12593,26.80959 -62.12593,51.29788 0,13.833802 6.76632,28.249392 15.68355,37.469962 v 1.14596 c -23.67896,11.53013 -39.36251,29.97715 -39.36251,55.62903 0,27.0858 22.14259,55.04135 72.26599,55.04135 24.60079,0 43.36336,-7.20486 56.89599,-17.00723 4.9164,5.18915 9.22451,9.51441 13.52636,13.8338 h 54.43779 c -12.91808,-12.96992 -24.91434,-25.646 -36.59705,-38.04588 18.46784,-19.30502 28.92772,-44.3751 34.45867,-73.77045 z M 241.71173,71.116888 c 12.30353,0 18.14801,10.09032 18.14801,19.3109 0,11.236282 -7.68813,18.734982 -22.75714,28.525592 -9.22451,-9.50853 -14.14717,-18.15906 -14.14717,-27.955552 0,-10.08445 6.76631,-19.88094 18.7563,-19.88094 z m -5.53095,141.505522 c -21.22076,0 -34.44612,-14.11588 -34.44612,-30.54719 0,-12.67608 7.68814,-21.03865 16.2981,-26.80372 16.91265,17.86523 33.83157,35.44837 46.74338,47.55442 -6.1455,5.47122 -16.29811,9.79649 -28.59536,9.79649 z"
   id="path4-2-1" /><path
   style="fill:#800080;stroke-width:0.758827"
   d="M 233.61842,336.72355 H 191.7977 c -2.76547,17.2893 -9.23078,35.16041 -17.53347,47.26645 -10.14633,-9.79649 -22.75714,-23.91825 -34.75339,-36.31813 l 0.30727,-1.14596 c 28.60163,-13.55171 40.89889,-30.25922 40.89889,-49.85808 0,-27.96143 -24.29351,-45.5387 -56.28144,-45.5387 -41.519711,0 -62.125931,26.80959 -62.125931,51.29788 0,13.8338 6.76632,28.24939 15.68355,37.46996 v 1.14596 c -23.67896,11.53013 -39.36251,29.97715 -39.36251,55.62903 0,27.0858 22.14259,55.04135 72.265991,55.04135 24.60079,0 43.36336,-7.20486 56.89599,-17.00723 4.9164,5.18915 9.22451,9.51441 13.52636,13.8338 h 54.43779 c -12.91808,-12.96992 -24.91434,-25.646 -36.59705,-38.04588 18.46784,-19.30502 28.92772,-44.3751 34.45867,-73.77045 z M 122.90546,278.50877 c 12.30353,0 18.14802,10.09032 18.14802,19.3109 0,11.23628 -7.68814,18.73498 -22.75714,28.52559 -9.22451,-9.50853 -14.14718,-18.15906 -14.14718,-27.95555 0,-10.08445 6.76631,-19.88094 18.7563,-19.88094 z m -5.53095,141.50552 c -21.220762,0 -34.446121,-14.11588 -34.446121,-30.54719 0,-12.67608 7.68814,-21.03865 16.298099,-26.80372 16.912652,17.86523 33.831582,35.44837 46.743392,47.55442 -6.1455,5.47122 -16.29811,9.79649 -28.59537,9.79649 z"
   id="path4-2-7" /></svg>
