<?xml version="1.0" encoding="UTF-8" standalone="no"?>
<!-- Uploaded to: SVG Repo, www.svgrepo.com, Generator: SVG Repo Mixer Tools -->

<svg
   height="800px"
   width="800px"
   version="1.1"
   id="Layer_1"
   viewBox="0 0 392.404 392.404"
   xml:space="preserve"
   xmlns="http://www.w3.org/2000/svg"
   xmlns:svg="http://www.w3.org/2000/svg"><defs
   id="defs5">
	
	
	
</defs>
<path
   style="fill:#FFFFFF;"
   d="M289.981,370.747V358.4c0-39.434,13.964-78.416,39.305-109.705  c23.208-28.962,31.418-51.135,30.901-87.467c0-76.8-62.513-139.313-139.313-139.313S81.561,84.428,81.561,161.228v32.388  c0,2.457-0.84,4.913-2.392,6.853l-35.103,43.507h26.57c6.012,0,10.925,4.848,10.925,10.925v32.517  c0,7.24,5.883,13.123,13.123,13.123h28.832c6.012,0,10.925,4.848,10.925,10.925v59.345h155.539V370.747z"
   id="path1" />

<path
   style="fill:#194f82"
   d="M 220.939,0 C 132.05,0 59.775,72.275 59.775,161.099 v 28.509 l -46.998,58.246 c -2.651,3.232 -3.168,7.758 -1.293,11.507 1.745,3.814 5.624,6.206 9.826,6.206 h 38.465 v 21.657 c 0,19.265 15.709,34.909 34.909,34.909 h 18.036 v 59.345 c 0,6.012 4.848,10.925 10.925,10.925 h 177.261 c 6.012,0 10.925,-4.848 10.925,-10.925 v -23.273 c 0,-34.457 12.218,-68.525 34.457,-96.065 23.079,-28.509 35.75,-64.453 35.75,-101.236 C 382.038,72.275 309.763,0 220.939,0 Z m 108.283,248.63 c -25.341,31.354 -39.305,70.335 -39.305,109.77 v 12.347 H 134.442 v -59.345 c 0,-6.012 -4.848,-10.925 -10.925,-10.925 H 94.62 c -7.24,0 -13.123,-5.883 -13.123,-13.123 v -32.517 c 0,-6.012 -4.848,-10.925 -10.925,-10.925 h -26.57 l 35.103,-43.507 c 1.552,-1.939 2.392,-4.331 2.392,-6.853 v -32.388 c 0,-76.8 62.513,-139.313 139.313,-139.313 76.8,0 139.313,62.513 139.313,139.313 0.646,36.266 -7.629,58.505 -30.901,87.466 z"
   id="path5" />
<g
   id="Plan"
   transform="matrix(2.5638506,0,0,2.4681461,-918.70463,-107.36492)"><g
     id="Group_8"
     data-name="Group 8"><g
       id="Group_7"
       data-name="Group 7"><path
         id="Path_10"
         data-name="Path 10"
         d="m 480.03,97.331 v 49.811 a 3,3 0 0 1 -3,3 h -59.35 a 16.671,16.671 0 0 1 -16.65,-16.65 v -43.74 c 0,-9.49 7.741,-16.65 18,-16.65 a 3,3 0 0 1 3,3 v 18.229 h 23.991 V 73.142 a 3,3 0 0 1 3,-3 h 15.309 a 3,3 0 0 1 3,3 v 21.189 h 9.7 a 3,3 0 0 1 3,3 z m -6,46.811 v -43.811 h -6.7 v 26.6 a 2.977,2.977 0 0 1 -0.6,1.8 l -7.671,10.231 a 3,3 0 0 1 -4.8,0 l -7.64,-10.2 a 3,3 0 0 1 -0.6,-1.8 V 100.331 H 422.03 v 19.5 a 3,3 0 0 1 -3,3 c -6.95,0 -12,4.48 -12,10.661 a 10.666,10.666 0 0 0 10.65,10.65 z m -12.7,-23.571 V 89.462 h -9.309 v 31.13 z m 0,-37.1 v -7.33 h -9.309 v 7.33 z m -4.67,48.69 4.2,-5.591 -8.379,0.021 z M 416.03,117.04 V 79.392 c -5.36,1.1 -9,5.12 -9,10.36 v 31.12 a 18.429,18.429 0 0 1 9,-3.831 z"
         fill="#104386" /><path
         id="Path_11"
         data-name="Path 11"
         d="m 474.03,100.331 v 43.811 h -56.35 a 10.666,10.666 0 0 1 -10.65,-10.65 c 0,-6.181 5.05,-10.661 12,-10.661 a 3,3 0 0 0 3,-3 v -19.5 h 23.991 v 26.631 a 3,3 0 0 0 0.6,1.8 l 7.64,10.2 a 3,3 0 0 0 4.8,0 l 7.671,-10.231 a 2.977,2.977 0 0 0 0.6,-1.8 v -26.6 z"
         fill="#ff6600" /><path
         id="Path_12"
         data-name="Path 12"
         d="m 461.33,89.462 v 31.109 l -9.31,0.021 v -31.13 z"
         fill="#ffffff" /><rect
         id="Rectangle_6"
         data-name="Rectangle 6"
         width="9.3100004"
         height="7.3299999"
         transform="translate(452.021,76.142)"
         fill="#6699ff"
         x="0"
         y="0" /><path
         id="Path_13"
         data-name="Path 13"
         d="m 416.03,79.392 v 37.649 a 18.429,18.429 0 0 0 -9,3.831 v -31.12 c 0,-5.24 3.64,-9.26 9,-10.36 z"
         fill="#6699ff" /></g></g></g></svg>
