<?xml version="1.0" encoding="UTF-8" standalone="no"?>
<!-- Uploaded to: SVG Repo, www.svgrepo.com, Generator: SVG Repo Mixer Tools -->

<svg
   fill="#000000"
   width="800px"
   height="800px"
   viewBox="0 0 24 24"
   id="present-low"
   data-name="Flat Line"
   class="icon flat-line"
   version="1.1"
   xmlns="http://www.w3.org/2000/svg"
   xmlns:svg="http://www.w3.org/2000/svg">
  <defs
     id="defs1" />
  <path
     id="secondary"
     d="M4,4H20a0,0,0,0,1,0,0V16a1,1,0,0,1-1,1H5a1,1,0,0,1-1-1V4A0,0,0,0,1,4,4Z"
     style="fill:#f4d7d7;stroke-width:2" />
  <path
     id="primary"
     d="M16,12c-4-1-6-2-8-4"
     style="fill:none;stroke:#ff0000;stroke-linecap:round;stroke-linejoin:round;stroke-width:2;stroke-opacity:1" />
  <polyline
     id="primary-2"
     data-name="primary"
     points="15 9 16 12 14 14"
     style="fill:none;stroke:#ff0000;stroke-linecap:round;stroke-linejoin:round;stroke-width:2;stroke-opacity:1" />
  <path
     id="primary-3"
     data-name="primary"
     d="M19,17H5a1,1,0,0,1-1-1V4H20V16A1,1,0,0,1,19,17ZM3,4H21M10.4,17,8,20m5.6-3L16,20"
     style="fill:none;stroke:#4200ff;stroke-linecap:round;stroke-linejoin:round;stroke-width:2;stroke-opacity:1" />
</svg>
