<?xml version="1.0" encoding="iso-8859-1"?>
<!-- Uploaded to: SVG Repo, www.svgrepo.com, Generator: SVG Repo Mixer Tools -->
<svg height="800px" width="800px" version="1.1" id="Layer_1" xmlns="http://www.w3.org/2000/svg" xmlns:xlink="http://www.w3.org/1999/xlink" 
	 viewBox="0 0 512 512" xml:space="preserve">
<path style="fill:#4FC0E8;" d="M0,256.006C0,397.402,114.606,512.004,255.996,512C397.394,512.004,512,397.402,512,256.006
	C512.009,114.61,397.394,0,255.996,0C114.606,0,0,114.614,0,256.006z"/>
<path style="fill:#3DAED9;" d="M512,256.005c0.002-35.591-7.272-69.477-20.394-100.273c-0.337-0.425-0.703-0.791-1.129-1.129
	c-0.34-0.429-0.708-0.797-1.137-1.137c-0.34-0.429-64.405-64.494-64.834-64.834c-1.298-1.638-3.217-2.755-5.471-2.755H178.027
	c-50.81,0-92.149,41.337-92.149,92.149c0,25.695,10.595,48.943,27.617,65.671c0.377,0.383,0.754,0.762,1.137,1.137
	c0.377,0.383,0.754,0.762,1.137,1.137c0.377,0.383,111.084,111.091,111.467,111.467c0.143,0.145,0.267,0.308,0.411,0.452v61.143
	c0,2.255,1.117,4.174,2.756,5.472c0.34,0.429,0.707,0.798,1.137,1.137c0.34,0.429,79.19,79.28,79.62,79.62
	c0.174,0.219,0.388,0.388,0.58,0.58C426.315,480.397,512,378.249,512,256.005z"/>
<path style="fill:#F4F6F9;" d="M419.035,85.877H178.027c-50.81,0-92.15,41.337-92.15,92.15s41.34,92.15,92.15,92.15h49.619v148.858
	c0,3.918,3.17,7.088,7.088,7.088c3.918,0,7.088-3.17,7.088-7.088V100.053h85.061v318.98c0,3.918,3.17,7.088,7.088,7.088
	c3.918,0,7.088-3.17,7.088-7.088v-318.98h77.973c3.918,0,7.088-3.174,7.088-7.088C426.121,89.052,422.953,85.877,419.035,85.877z
	 M227.646,256h-49.619c-42.994,0-77.973-34.978-77.973-77.973s34.978-77.973,77.973-77.973h49.619V256z"/>
</svg>