<?xml version="1.0" encoding="iso-8859-1"?>
<!-- Uploaded to: SVG Repo, www.svgrepo.com, Generator: SVG Repo Mixer Tools -->
<svg height="800px" width="800px" version="1.1" id="Layer_1" xmlns="http://www.w3.org/2000/svg" xmlns:xlink="http://www.w3.org/1999/xlink" 
	 viewBox="0 0 392.663 392.663" xml:space="preserve">
<path style="fill:#FFC10D;" d="M196.331,110.545c-15.709,0-28.509,12.735-28.509,28.509c0,15.709,12.735,28.509,28.509,28.509
	c15.709,0,28.509-12.735,28.509-28.509S212.04,110.545,196.331,110.545z"/>
<g>
	<path style="fill:#194F82;" d="M381.737,185.406h-26.893c-5.43-78.933-68.655-142.158-147.588-147.588V10.925
		C207.257,4.913,202.408,0,196.331,0c-6.012,0-10.925,4.848-10.925,10.925v26.893c-78.933,5.43-142.158,68.655-147.588,147.588
		H10.925C4.913,185.406,0,190.255,0,196.331c0,6.012,4.848,10.925,10.925,10.925h26.893c5.43,78.933,68.655,142.158,147.588,147.588
		v26.893c0,6.012,4.848,10.925,10.925,10.925c6.012,0,10.925-4.848,10.925-10.925v-26.893
		c78.933-5.43,142.158-68.655,147.588-147.588h26.893c6.012,0,10.925-4.848,10.925-10.925S387.749,185.406,381.737,185.406z
		 M196.331,333.382c-45.446,0-85.786-22.238-110.739-56.307c26.828-27.539,67.556-43.83,110.739-43.83s83.911,16.226,110.739,43.766
		C282.117,311.143,241.778,333.382,196.331,333.382z M318.707,258.004c-30.836-29.285-75.442-46.545-122.376-46.545
		s-91.539,17.261-122.376,46.545c-9.374-18.554-14.675-39.499-14.675-61.673c0-75.572,61.479-137.051,137.051-137.051
		s137.05,61.479,137.05,137.051C333.382,218.505,328.081,239.451,318.707,258.004z"/>
	<path style="fill:#194F82;" d="M196.331,88.76c-27.733,0-50.295,22.562-50.295,50.295s22.562,50.295,50.295,50.295
		s50.295-22.562,50.295-50.295C246.626,111.257,224.065,88.76,196.331,88.76z M196.331,167.499
		c-15.709,0-28.509-12.735-28.509-28.509c0-15.709,12.735-28.509,28.509-28.509c15.709,0,28.509,12.735,28.509,28.509
		S212.04,167.499,196.331,167.499z"/>
</g>
<path style="fill:#56ACE0;" d="M85.592,277.075c24.954,34.133,65.293,56.307,110.739,56.307s85.786-22.238,110.739-56.436
	c-26.828-27.539-67.556-43.766-110.739-43.766S112.485,249.6,85.592,277.075z"/>
<path style="fill:#FFFFFF;" d="M196.331,59.281c-75.572,0-137.051,61.479-137.051,137.051c0,22.174,5.301,43.119,14.675,61.673
	c30.836-29.285,75.442-46.545,122.376-46.545s91.539,17.261,122.376,46.545c9.374-18.554,14.675-39.499,14.675-61.673
	C333.382,120.76,271.903,59.281,196.331,59.281z M196.331,189.285c-27.733,0-50.295-22.562-50.295-50.295
	s22.562-50.295,50.295-50.295s50.295,22.562,50.295,50.295S224.065,189.285,196.331,189.285z"/>
</svg>