<?xml version="1.0" encoding="UTF-8" standalone="no"?>
<!-- Uploaded to: SVG Repo, www.svgrepo.com, Generator: SVG Repo Mixer Tools -->

<svg
   height="800px"
   width="800px"
   version="1.1"
   id="Layer_1"
   viewBox="0 0 512 512"
   xml:space="preserve"
   sodipodi:docname="chulai.svg"
   inkscape:version="1.4.4 (dcaf3e7d9e, 2026-05-05)"
   xmlns:inkscape="http://www.inkscape.org/namespaces/inkscape"
   xmlns:sodipodi="http://sodipodi.sourceforge.net/DTD/sodipodi-0.dtd"
   xmlns="http://www.w3.org/2000/svg"
   xmlns:svg="http://www.w3.org/2000/svg"><defs
   id="defs13" /><sodipodi:namedview
   id="namedview13"
   pagecolor="#ffffff"
   bordercolor="#000000"
   borderopacity="0.25"
   inkscape:showpageshadow="2"
   inkscape:pageopacity="0.0"
   inkscape:pagecheckerboard="0"
   inkscape:deskcolor="#d1d1d1"
   inkscape:zoom="1.03625"
   inkscape:cx="400"
   inkscape:cy="399.51749"
   inkscape:window-width="1855"
   inkscape:window-height="1269"
   inkscape:window-x="36"
   inkscape:window-y="32"
   inkscape:window-maximized="0"
   inkscape:current-layer="Layer_1" />
<polygon
   style="fill:#F6C958;"
   points="50.327,139.647 96.071,176.337 152.229,159.455 131.47,214.298 164.881,262.49   106.307,259.695 70.797,306.362 55.356,249.791 0,230.441 49.031,198.273 "
   id="polygon1" />
<polygon
   style="fill:#EE964B;"
   points="341.196,11.413 368.709,33.48 402.485,23.327 389.999,56.312 410.094,85.298 374.864,83.616   353.507,111.685 344.22,77.66 310.925,66.021 340.415,46.674 "
   id="polygon2" />
<g
   id="g4">
	<path
   style="fill:#DCDCDE;"
   d="M219.697,500.227h-35.721c0-86.054-43.221-151.278-68.985-182.499l27.551-22.735   C171.357,329.912,219.697,403.006,219.697,500.227z"
   id="path2" />
	<path
   style="fill:#DCDCDE;"
   d="M318.865,500.227h-35.721c0-97.221,48.339-170.317,77.155-205.234l27.551,22.735   C362.086,348.949,318.865,414.173,318.865,500.227z"
   id="path3" />
	<path
   style="fill:#DCDCDE;"
   d="M269.277,500.587l-35.714-0.719c1.066-52.963,2.679-132.999-11.677-195.893l34.826-7.949   C272.046,363.199,270.38,445.877,269.277,500.587z"
   id="path4" />
</g>
<polygon
   style="fill:#DF8D46;"
   points="389.999,56.312 402.485,23.327 368.709,33.481 341.196,11.413 374.864,83.616   410.094,85.298 "
   id="polygon4" />
<polygon
   style="fill:#EE964B;"
   points="269.659,154.131 273.509,189.19 304.573,205.893 272.42,220.389 266.133,255.094   242.411,228.994 207.462,233.739 224.954,203.113 209.641,171.341 244.174,178.512 "
   id="polygon5" />
<polygon
   style="fill:#DF8D46;"
   points="272.42,220.389 304.573,205.893 273.509,189.19 269.659,154.131 242.411,228.994   266.133,255.094 "
   id="polygon6" />
<polygon
   style="fill:#EE964B;"
   points="142.818,34.637 145.429,58.415 166.498,69.744 144.69,79.576 140.426,103.115   124.337,85.412 100.632,88.631 112.496,67.859 102.111,46.309 125.532,51.173 "
   id="polygon7" />
<polygon
   style="fill:#DF8D46;"
   points="144.69,79.576 166.498,69.744 145.429,58.415 142.818,34.637 124.337,85.412   140.426,103.115 "
   id="polygon8" />
<polygon
   style="fill:#F6C958;"
   points="220.64,66.169 239.3,81.136 262.209,74.25 253.741,96.622 267.37,116.282 243.475,115.141   228.99,134.178 222.69,111.101 200.109,103.207 220.11,90.085 "
   id="polygon9" />
<g
   id="g12">
	<polygon
   style="fill:#E5BC53;"
   points="253.741,96.622 262.209,74.25 239.3,81.138 220.64,66.169 243.475,115.141 267.37,116.282     "
   id="polygon10" />
	<polygon
   style="fill:#E5BC53;"
   points="131.47,214.298 152.229,159.455 96.071,176.337 50.327,139.647 106.307,259.695    164.881,262.49  "
   id="polygon11" />
	<polygon
   style="fill:#E5BC53;"
   points="461.673,139.647 415.929,176.337 359.771,159.455 380.53,214.298 347.119,262.49    405.693,259.695 441.203,306.362 456.644,249.791 512,230.441 462.969,198.273  "
   id="polygon12" />
</g>
<polygon
   style="fill:#F6C958;"
   points="380.53,214.298 359.771,159.455 415.929,176.337 461.673,139.647 405.693,259.695   347.119,262.49 "
   id="polygon13" />
<path
   fill="#444444"
   d="m 288.13621,249.68028 c 0,18.29848 -15.42529,33.11943 -34.46993,33.11943 -19.04465,0 -34.46995,-14.82095 -34.46995,-33.11943 0,-18.29848 15.4253,-33.11942 34.46995,-33.11942 19.04464,0 34.46993,14.82094 34.46993,33.11942 z"
   id="path1"
   style="stroke-width:16.894;fill:#ff9955" /><path
   fill="#444444"
   d="m 219.19633,481.51623 h 25.85246 v -82.79855 h 17.23497 v 82.79855 h 25.85245 v -149.0374 c 0,-0.26495 -0.0173,-0.56302 -0.0173,-0.8611 0,-8.62761 3.34358,-16.51003 8.84153,-22.52121 l 56.49624,-54.94511 c 3.72275,-2.13621 6.17012,-5.99462 6.17012,-10.39951 0,-6.67356 -5.63584,-12.08859 -12.58153,-12.08859 -4.5845,0 -8.60025,2.35148 -10.78909,5.8787 l -40.709,39.4618 c -3.65382,3.5769 -8.75537,5.7959 -14.3912,5.7959 -0.0345,0 -0.0689,0 -0.10341,0 h -54.80721 c -0.0344,0 -0.0689,0 -0.0862,0 -5.63584,0 -10.72015,-2.219 -14.37397,-5.7959 l -39.98502,-39.57772 c -2.22332,-3.57689 -6.23906,-5.92837 -10.82357,-5.92837 -6.94569,0 -12.58153,5.41503 -12.58153,12.08859 0,4.40488 2.44737,8.26329 6.11842,10.36637 l 55.89301,55.17696 c 5.46348,5.97806 8.80706,13.84392 8.80706,22.48809 0,0.29808 0,0.61271 -0.0173,0.91079 z"
   id="path2-6"
   style="stroke-width:16.894;fill:#ff7f2a" /></svg>
