<?xml version="1.0" encoding="UTF-8" standalone="no"?>
<!-- Uploaded to: SVG Repo, www.svgrepo.com, Generator: SVG Repo Mixer Tools -->

<svg
   width="800px"
   height="800px"
   viewBox="0 0 1024 1024"
   class="icon"
   version="1.1"
   id="svg3"
   xmlns="http://www.w3.org/2000/svg"
   xmlns:svg="http://www.w3.org/2000/svg">
  <defs
     id="defs3" />
  <path
     d="m 106.70933,533.33333 c 0,-185.55733 132.288,-340.75733 307.49867,-376.32 l -43.34933,102.93334 c -105.152,46.272 -178.816,151.31733 -178.816,273.38666 C 192.04267,698.02667 325.99467,832 490.70933,832 655.38133,832 789.376,698.02667 789.376,533.33333 789.376,411.264 715.66933,306.21867 610.496,259.94667 L 567.168,157.01333 c 175.21067,35.56267 307.54133,190.76267 307.54133,376.32 0,211.75467 -172.288,384 -384,384 -211.75466,0 -384,-172.24533 -384,-384 z"
     fill="#64b5f6"
     id="path1" />
  <path
     d="M 85.333333,533.33333 H 213.33333 m 554.66667,0 H 896 M 490.66667,810.66667 v 128"
     fill="none"
     id="path2" />
  <path
     d="M 490.70933,85.333333 320,490.66667 490.66667,384 661.33333,490.66667 Z"
     fill="#ff3d00"
     id="path3" />
</svg>
