<?xml version="1.0" encoding="UTF-8" standalone="no"?>
<!-- Uploaded to: SVG Repo, www.svgrepo.com, Generator: SVG Repo Mixer Tools -->

<svg
   fill="#000000"
   width="800px"
   height="800px"
   viewBox="0 0 24 24"
   version="1.1"
   id="svg1"
   xmlns="http://www.w3.org/2000/svg"
   xmlns:svg="http://www.w3.org/2000/svg">
  <defs
     id="defs1" />
  <path
     d="m 2,12 h 3 c 1.3333328,0 1.3333328,-2 0,-2 H 4.635 L 5.221,8.308 H 8.779 L 9.365,10 H 9 c -1.3333328,0 -1.3333328,2 0,2 h 3 c 1.333333,0 1.333333,-2 0,-2 H 11.482 L 8.945,2.673 C 8.8056202,2.2701949 8.4262378,2.0000104 8,2 H 6 C 5.5737622,2.0000104 5.1943798,2.2701949 5.055,2.673 L 2.518,10 H 2 c -1.33333275,0 -1.33333275,2 0,2 z M 6.712,4 h 0.576 l 0.8,2.308 H 5.913 Z M 23,4 c 0,0.5522847 -0.447715,1 -1,1 H 15 C 13.666667,5 13.666667,3 15,3 h 7 c 0.552285,0 1,0.4477153 1,1 z m 0,6 c 0,0.552285 -0.447715,1 -1,1 h -7 c -1.333333,0 -1.333333,-2 0,-2 h 7 c 0.552285,0 1,0.4477153 1,1 z m 0,5 c 0,0.552285 -0.447715,1 -1,1 H 2 C 0.66666725,16 0.66666725,14 2,14 h 20 c 0.552285,0 1,0.447715 1,1 z m 0,6 c 0,0.552285 -0.447715,1 -1,1 H 2 C 0.66666725,22 0.66666725,20 2,20 h 20 c 0.552285,0 1,0.447715 1,1 z"
     id="path1"
     style="fill:#aa4400" />
</svg>
