<?xml version="1.0" encoding="UTF-8" standalone="no"?>
<!-- Uploaded to: SVG Repo, www.svgrepo.com, Generator: SVG Repo Mixer Tools -->

<svg
   width="800px"
   height="800px"
   viewBox="0 0 24 24"
   version="1.1"
   id="svg9"
   sodipodi:docname="image.svg"
   inkscape:version="1.4.4 (dcaf3e7d9e, 2026-05-05)"
   xmlns:inkscape="http://www.inkscape.org/namespaces/inkscape"
   xmlns:sodipodi="http://sodipodi.sourceforge.net/DTD/sodipodi-0.dtd"
   xmlns="http://www.w3.org/2000/svg"
   xmlns:svg="http://www.w3.org/2000/svg">
  <defs
     id="defs9" />
  <sodipodi:namedview
     id="namedview9"
     pagecolor="#ffffff"
     bordercolor="#000000"
     borderopacity="0.25"
     inkscape:showpageshadow="2"
     inkscape:pageopacity="0.0"
     inkscape:pagecheckerboard="0"
     inkscape:deskcolor="#d1d1d1"
     inkscape:zoom="0.98125"
     inkscape:cx="399.49045"
     inkscape:cy="400"
     inkscape:window-width="1920"
     inkscape:window-height="971"
     inkscape:window-x="0"
     inkscape:window-y="0"
     inkscape:window-maximized="1"
     inkscape:current-layer="svg9" />
  <path
     d="m 1,11 v 6 3 c 0,1.105 0.8954,2 2,2 h 19 c 1.105,0 2,-0.895 2,-2 v -3 -6 z"
     fill="#95a5a6"
     id="path1" />
  <path
     d="m 0,2 v 9 7 3 c 0,1.105 0.89543,2 2,2 h 19 c 1.105,0 2,-0.895 2,-2 V 18 11 2 Z"
     fill="#bdc3c7"
     id="path2"
     style="fill:#f4f6f6;fill-opacity:1" />
  <path
     fill="#7f8c8d"
     d="M 2,4 V 9 H 3 V 6 L 5,9 H 6 V 4 H 5 V 7 L 3,4 Z m 5,0 v 5 h 4 V 8 H 8 V 7 h 2 V 6 H 8 V 5 h 3 V 4 Z m 5,0 v 5 h 1 l 1,-2 1,2 h 1 V 4 H 15 V 7 L 14,5 13,7 V 4 Z m 6.5,0 C 17.672,4 17,4.6716 17,5.5 17,6.3284 17.672,7 18.5,7 h 1 C 19.776,7 20,7.2239 20,7.5 20,7.7761 19.776,8 19.5,8 H 18.531 17 V 9 H 18.531 19.5 C 20.328,9 21,8.3284 21,7.5 21,6.6716 20.328,6 19.5,6 H 19 18.5 C 18.224,6 18,5.7761 18,5.5 18,5.2239 18.224,5 18.5,5 H 19 19.5 21 V 4 h -1.5 z"
     id="path3"
     style="fill:#4b6264;fill-opacity:1" />
  <g
     fill="#95a5a6"
     id="g9">
    <rect
       height="7"
       width="9"
       y="11"
       x="2"
       id="rect3" />
    <rect
       height="1"
       width="9"
       y="15"
       x="12"
       id="rect4" />
    <rect
       height="1"
       width="9"
       y="19"
       x="2"
       id="rect5" />
    <rect
       height="1"
       width="9"
       y="17"
       x="12"
       id="rect6" />
    <rect
       height="1"
       width="9"
       y="13"
       x="12"
       id="rect7" />
    <rect
       height="1"
       width="9"
       y="11"
       x="12"
       id="rect8" />
    <path
       d="m0 20v1c0 1.105 0.89543 2 2 2h19c1.105 0 3-0.895 3-2v-1c0 1.105-1.895 2-3 2h-19c-1.1046 0-2-0.895-2-2z"
       id="path8" />
    <rect
       height="1"
       width="9"
       y="19"
       x="12"
       id="rect9" />
  </g>
</svg>
