<?xml version="1.0" encoding="iso-8859-1"?>
<!-- Uploaded to: SVG Repo, www.svgrepo.com, Generator: SVG Repo Mixer Tools -->
<svg height="800px" width="800px" version="1.1" id="Layer_1" xmlns="http://www.w3.org/2000/svg" xmlns:xlink="http://www.w3.org/1999/xlink" 
	 viewBox="0 0 511.989 511.989" xml:space="preserve">
<g>
	<path style="fill:#434A54;" d="M0,347.099v137.777c0,5.891,4.765,10.672,10.656,10.672s10.672-4.781,10.672-10.672V347.099H0z"/>
	<path style="fill:#434A54;" d="M490.645,357.988v126.887c0,5.891,4.78,10.672,10.671,10.672s10.672-4.781,10.672-10.672V357.988
		H490.645z"/>
</g>
<path style="fill:#E6E9ED;" d="M501.316,176.438H10.656C4.765,176.438,0,181.21,0,187.102V357.77
	c0,5.875,4.765,10.656,10.656,10.656h490.661c5.891,0,10.672-4.781,10.672-10.656V187.102
	C511.988,181.212,507.207,176.438,501.316,176.438z M437.317,261.764H415.99v-21.328h21.327V261.764z M458.645,240.437h32v21.328
	h-32V240.437z M309.321,261.764h-21.328v-21.328h21.328V261.764z M330.648,240.437h21.343v21.328h-21.343V240.437z M266.649,261.764
	h-21.327v-21.328h21.327V261.764z M223.994,261.764h-21.343v-21.328h21.343V261.764z M181.324,261.764h-21.328v-21.328h21.328
	V261.764z M138.653,261.764h-21.328v-21.328h21.328V261.764z M138.653,283.1v21.326h-21.328V283.1H138.653z M159.996,283.1h21.328
	v21.326h-21.328V283.1z M202.651,283.1h21.343v21.326h-21.343V283.1z M245.322,283.1h21.327v21.326h-21.327V283.1z M287.993,283.1
	h21.328v21.326h-21.328V283.1z M330.648,283.1h21.343v21.326h-21.343V283.1z M373.319,283.1h21.328v21.326h-21.328V283.1z
	 M373.319,261.764v-21.328h21.328v21.328H373.319z M415.99,219.101v-21.335h21.327V219.1L415.99,219.101L415.99,219.101z
	 M394.647,219.101h-21.328v-21.335h21.328V219.101z M351.991,219.101h-21.343v-21.335h21.343V219.101z M309.321,219.101h-21.328
	v-21.335h21.328V219.101z M266.649,219.101h-21.327v-21.335h21.327V219.101z M223.994,219.101h-21.343v-21.335h21.343V219.101z
	 M181.324,219.101h-21.328v-21.335h21.328V219.101z M138.653,219.101h-21.328v-21.335h21.328V219.101z M95.997,219.101H74.654
	v-21.335h21.343C95.997,197.766,95.997,219.101,95.997,219.101z M95.997,240.437v21.328H74.654v-21.328L95.997,240.437
	L95.997,240.437z M53.327,261.764h-32v-21.328h31.999L53.327,261.764L53.327,261.764z M21.327,283.1h31.999v21.326H21.327V283.1z
	 M74.654,283.1h21.343v21.326H74.654V283.1z M95.997,325.77v21.328H74.654V325.77H95.997z M117.325,325.77h21.328v21.328h-21.328
	C117.325,347.098,117.325,325.77,117.325,325.77z M159.996,325.77h21.328v21.328h-21.328V325.77z M202.651,325.77h21.343v21.328
	h-21.343V325.77z M245.322,325.77h21.327v21.328h-21.327V325.77z M287.993,325.77h21.328v21.328h-21.328V325.77z M330.648,325.77
	h21.343v21.328h-21.343V325.77z M373.319,325.77h21.328v21.328h-21.328V325.77z M415.99,325.77h21.327v21.328H415.99V325.77z
	 M415.99,304.427v-21.326h21.327v21.326H415.99z M458.645,283.1h32v21.326h-32V283.1z M490.645,219.101h-32v-21.335h32V219.101z
	 M53.327,197.766V219.1h-32v-21.335H53.327z M21.327,325.77h31.999v21.328H21.327V325.77z M458.645,347.099v-21.328h32v21.328
	H458.645z"/>
<path style="fill:#FFCE54;" d="M287.993,80.441c0,35.343-28.656,63.998-63.999,63.998c-35.358,0-63.999-28.655-63.999-63.998
	c0-35.351,28.64-63.999,63.999-63.999C259.337,16.442,287.993,45.09,287.993,80.441z"/>
<g>
	<path style="fill:#ED5564;" d="M262.384,29.239c0,0-24.233,4.5-34.749,22.578l0,0c0,0,35.405,1.695,56.358,50.866l0.016-0.008
		c2.578-6.921,3.984-14.413,3.984-22.233C287.993,59.503,277.931,40.911,262.384,29.239z"/>
	<path style="fill:#ED5564;" d="M246.947,97.909c0,0-19.171,29.82-72.233,23.375c11.75,14.14,29.453,23.155,49.28,23.155
		c8.906,0,17.39-1.828,25.093-5.117l0.047-0.031C249.135,139.291,257.337,116.057,246.947,97.909L246.947,97.909z"/>
	<path style="fill:#ED5564;" d="M160.449,72.785c0.016,0.023,16.015,18.734,36.921,18.804v-0.008c0,0-16.234-31.507,15.875-74.233
		l-0.016-0.008C185.48,22.036,163.808,44.598,160.449,72.785z"/>
</g>
<path style="opacity:0.2;fill:#FFFFFF;enable-background:new    ;" d="M223.994,16.442c-1.812,0-3.578,0.078-5.344,0.219
	c32.859,2.711,58.67,30.226,58.67,63.78c0,33.546-25.812,61.061-58.67,63.771c1.766,0.148,3.531,0.227,5.344,0.227
	c35.342,0,63.999-28.655,63.999-63.998C287.993,45.09,259.337,16.442,223.994,16.442z"/>
</svg>