<?xml version="1.0" encoding="UTF-8" standalone="no"?>
<!-- Uploaded to: SVG Repo, www.svgrepo.com, Generator: SVG Repo Mixer Tools -->

<svg
   fill="#000000"
   width="800px"
   height="800px"
   viewBox="0 0 64 64"
   data-name="Layer 1"
   id="Layer_1"
   version="1.1"
   xmlns="http://www.w3.org/2000/svg"
   xmlns:svg="http://www.w3.org/2000/svg">
  <defs
     id="defs11" />
  <title
     id="title1" />
  <path
     d="M41.502,8.87372A9.97426,9.97426,0,0,0,40.07013,6.093l-.76825.5636A8.98629,8.98629,0,0,1,40.597,9.17133Z"
     id="path1"
     style="fill:#0000ff" />
  <path
     d="M23.38721,9.22156l-.90686-.292A9.98761,9.98761,0,0,0,22,11.99951V12.019l.95239-.01953A9.01972,9.01972,0,0,1,23.38721,9.22156Z"
     id="path2"
     style="fill:#0000ff" />
  <path
     d="M24.68787,17.32849A8.98993,8.98993,0,0,1,23.3974,14.811l-.90491.29572a9.92357,9.92357,0,0,0,1.42621,2.78357Z"
     id="path3"
     style="fill:#0000ff" />
  <path
     d="M26.66376,4.69238l-.56269-.76819a10.01815,10.01815,0,0,0-2.20513,2.21625l.771.558A9.09893,9.09893,0,0,1,26.66376,4.69238Z"
     id="path4"
     style="fill:#0000ff" />
  <path
     d="M31.97394,2.95233,31.97021,2a10.04107,10.04107,0,0,0-3.08685.49567l.29669.90582A9.06354,9.06354,0,0,1,31.97394,2.95233Z"
     id="path5"
     style="fill:#0000ff" />
  <path
     d="M42,11.99951v-.03815l-.95239.03815a9.04129,9.04129,0,0,1-.43988,2.79566l.90582.29388A9.9955,9.9955,0,0,0,42,11.99951Z"
     id="path6"
     style="fill:#0000ff" />
  <path
     d="M29.21307,20.60962a9.05583,9.05583,0,0,1-2.52185-1.28247l-.559.77a9.92609,9.92609,0,0,0,2.78784,1.41827Z"
     id="path7"
     style="fill:#0000ff" />
  <path
     d="M32.00836,21.04767,32.01025,22a10.0183,10.0183,0,0,0,3.08777-.49011l-.2948-.90589A9.06669,9.06669,0,0,1,32.00836,21.04767Z"
     id="path8"
     style="fill:#0000ff" />
  <path
     d="M37.851,3.88977A9.95109,9.95109,0,0,0,35.06085,2.478l-.29114.90582a9.0289,9.0289,0,0,1,2.52417,1.27783Z"
     id="path9"
     style="fill:#0000ff" />
  <path
     d="M40.0929,17.87445l-.77009-.55987a9.10542,9.10542,0,0,1-2.00054,2.0014l.56085.77A10.04159,10.04159,0,0,0,40.0929,17.87445Z"
     id="path10"
     style="fill:#0000ff" />
  <polygon
     points="33.545 9.292 32 6 30.455 9.292 27 9.82 29.5 12.382 28.91 16 32 14.292 35.09 16 34.5 12.382 37 9.82 33.545 9.292"
     id="polygon10"
     style="fill:#ffcc00" />
  <path
     d="M 49.951597,48.530491 46.79107,39.958985 H 42.577033 L 35.202468,20.366972 h -6.321056 l -6.321056,19.592013 h -4.214037 l -0.09092,0.246639 -6.839193,-12.491647 -0.88891,0.657692 3.969571,7.250367 -0.690207,1.604537 h -2.83491 v -0.951927 a 2.1070186,2.4490016 0 1 0 -2.1070188,0 v 8.76052 L 8.1129301,48.530491 H 7.8112262 L 1.4901704,62 H 62.593709 L 56.272654,48.530491 Z m -34.765806,0 H 10.28476 l 0.65561,-3.048101 a 1.0624747,1.2349213 0 0 0 0.03139,-0.296562 h 1.670803 l 2.643539,3.072616 z m 0.994154,-2.696155 -2.356341,-2.738767 A 1.0536357,1.2246477 0 0 0 13.078772,42.73679 h -2.107018 v -4.285753 h 3.160528 a 0.52792404,0.6136096 0 0 0 0.471203,-0.338403 l 0.553093,-1.285726 2.596152,4.741806 z"
     id="path11"
     style="fill:#c83737;stroke-width:1.13579" />
</svg>
