<?xml version="1.0" encoding="UTF-8" standalone="no"?>
<!-- Uploaded to: SVG Repo, www.svgrepo.com, Generator: SVG Repo Mixer Tools -->

<svg
   version="1.1"
   id="Layer_1"
   viewBox="0 0 512 512"
   xml:space="preserve"
   sodipodi:docname="court-svgrepo-com.svg"
   inkscape:version="1.4.4 (dcaf3e7d9e, 2026-05-05)"
   xmlns:inkscape="http://www.inkscape.org/namespaces/inkscape"
   xmlns:sodipodi="http://sodipodi.sourceforge.net/DTD/sodipodi-0.dtd"
   xmlns="http://www.w3.org/2000/svg"
   xmlns:svg="http://www.w3.org/2000/svg"><defs
   id="defs19" /><sodipodi:namedview
   id="namedview19"
   pagecolor="#ffffff"
   bordercolor="#000000"
   borderopacity="0.25"
   inkscape:showpageshadow="2"
   inkscape:pageopacity="0.0"
   inkscape:pagecheckerboard="0"
   inkscape:deskcolor="#d1d1d1"
   inkscape:zoom="1.6738281"
   inkscape:cx="255.70128"
   inkscape:cy="256"
   inkscape:window-width="1920"
   inkscape:window-height="1043"
   inkscape:window-x="0"
   inkscape:window-y="0"
   inkscape:window-maximized="1"
   inkscape:current-layer="Layer_1" />
<rect
   x="52.966"
   y="219.431"
   style="fill:#DCBE91;"
   width="406.069"
   height="211.862"
   id="rect1" />
<g
   id="g2">
	<path
   style="fill:#F5DCAA;"
   d="M503.172,448.952H8.828v-17.655c0-4.875,3.953-8.828,8.828-8.828h476.69   c4.875,0,8.828,3.953,8.828,8.828V448.952z"
   id="path1" />
	<path
   style="fill:#F5DCAA;"
   d="M494.345,228.262H17.655c-4.875,0-8.828-3.953-8.828-8.828V201.78h494.345v17.655   C503.172,224.31,499.22,228.262,494.345,228.262z"
   id="path2" />
</g>
<g
   id="g4">
	<path
   style="fill:#FFEBBE;"
   d="M503.172,466.607H8.828c-4.875,0-8.828-3.953-8.828-8.828v-8.828c0-4.875,3.953-8.828,8.828-8.828   h494.345c4.875,0,8.828,3.953,8.828,8.828v8.828C512,462.655,508.047,466.607,503.172,466.607z"
   id="path3" />
	<path
   style="fill:#FFEBBE;"
   d="M503.172,210.607H8.828c-4.875,0-8.828-3.953-8.828-8.828v-12.444c0-3.215,1.748-6.176,4.563-7.73   L247.471,47.589c5.309-2.929,11.748-2.929,17.057,0l242.908,134.018c2.815,1.554,4.563,4.514,4.563,7.73v12.444   C512,206.655,508.047,210.607,503.172,210.607z"
   id="path4" />
</g>
<path
   style="fill:#EBCD9B;"
   d="M61.793,245.918h-35.31c-4.875,0-8.828-3.953-8.828-8.828v-8.828h52.966v8.828  C70.621,241.965,66.668,245.918,61.793,245.918z"
   id="path5" />
<rect
   x="26.483"
   y="245.914"
   style="fill:#F5DCAA;"
   width="35.31"
   height="176.552"
   id="rect5" />
<g
   id="g7">
	<path
   style="fill:#EBCD9B;"
   d="M26.483,404.814h35.31c4.875,0,8.828,3.953,8.828,8.828v8.828H17.655v-8.828   C17.655,408.767,21.608,404.814,26.483,404.814z"
   id="path6" />
	<path
   style="fill:#EBCD9B;"
   d="M273.655,245.918h-35.31c-4.875,0-8.828-3.953-8.828-8.828v-8.828h52.966v8.828   C282.483,241.965,278.53,245.918,273.655,245.918z"
   id="path7" />
</g>
<rect
   x="238.345"
   y="245.914"
   style="fill:#F5DCAA;"
   width="35.31"
   height="176.552"
   id="rect7" />
<g
   id="g9">
	<path
   style="fill:#EBCD9B;"
   d="M238.345,404.814h35.31c4.875,0,8.828,3.953,8.828,8.828v8.828h-52.966v-8.828   C229.517,408.767,233.47,404.814,238.345,404.814z"
   id="path8" />
	<path
   style="fill:#EBCD9B;"
   d="M203.034,245.918h-35.31c-4.875,0-8.828-3.953-8.828-8.828v-8.828h52.966v8.828   C211.862,241.965,207.91,245.918,203.034,245.918z"
   id="path9" />
</g>
<rect
   x="167.724"
   y="245.914"
   style="fill:#F5DCAA;"
   width="35.31"
   height="176.552"
   id="rect9" />
<g
   id="g11">
	<path
   style="fill:#EBCD9B;"
   d="M167.724,404.814h35.31c4.875,0,8.828,3.953,8.828,8.828v8.828h-52.966v-8.828   C158.897,408.767,162.849,404.814,167.724,404.814z"
   id="path10" />
	<path
   style="fill:#EBCD9B;"
   d="M132.414,245.918h-35.31c-4.875,0-8.828-3.953-8.828-8.828v-8.828h52.966v8.828   C141.241,241.965,137.289,245.918,132.414,245.918z"
   id="path11" />
</g>
<rect
   x="97.103"
   y="245.914"
   style="fill:#F5DCAA;"
   width="35.31"
   height="176.552"
   id="rect11" />
<g
   id="g13">
	<path
   style="fill:#EBCD9B;"
   d="M97.103,404.814h35.31c4.875,0,8.828,3.953,8.828,8.828v8.828H88.276v-8.828   C88.276,408.767,92.228,404.814,97.103,404.814z"
   id="path12" />
	<path
   style="fill:#EBCD9B;"
   d="M344.276,245.918h-35.31c-4.875,0-8.828-3.953-8.828-8.828v-8.828h52.966v8.828   C353.103,241.965,349.151,245.918,344.276,245.918z"
   id="path13" />
</g>
<rect
   x="308.966"
   y="245.914"
   style="fill:#F5DCAA;"
   width="35.31"
   height="176.552"
   id="rect13" />
<g
   id="g15">
	<path
   style="fill:#EBCD9B;"
   d="M308.966,404.814h35.31c4.875,0,8.828,3.953,8.828,8.828v8.828h-52.966v-8.828   C300.138,408.767,304.09,404.814,308.966,404.814z"
   id="path14" />
	<path
   style="fill:#EBCD9B;"
   d="M485.517,245.918h-35.31c-4.875,0-8.828-3.953-8.828-8.828v-8.828h52.966v8.828   C494.345,241.965,490.392,245.918,485.517,245.918z"
   id="path15" />
</g>
<rect
   x="450.207"
   y="245.914"
   style="fill:#F5DCAA;"
   width="35.31"
   height="176.552"
   id="rect15" />
<g
   id="g17">
	<path
   style="fill:#EBCD9B;"
   d="M450.207,404.814h35.31c4.875,0,8.828,3.953,8.828,8.828v8.828h-52.966v-8.828   C441.379,408.767,445.332,404.814,450.207,404.814z"
   id="path16" />
	<path
   style="fill:#EBCD9B;"
   d="M414.897,245.918h-35.31c-4.875,0-8.828-3.953-8.828-8.828v-8.828h52.966v8.828   C423.724,241.965,419.772,245.918,414.897,245.918z"
   id="path17" />
</g>
<rect
   x="379.586"
   y="245.914"
   style="fill:#F5DCAA;"
   width="35.31"
   height="176.552"
   id="rect17" />
<path
   style="fill:#EBCD9B;"
   d="M379.586,404.814h35.31c4.875,0,8.828,3.953,8.828,8.828v8.828h-52.966v-8.828  C370.759,408.767,374.711,404.814,379.586,404.814z"
   id="path18" />
<path
   style="fill:#F5DCAA;"
   d="M256,83.212l166.905,92.086H89.095L256,83.212"
   id="path19" />
<g
   id="Layer_1-3"
   transform="matrix(7.9825206,0,0,8.3700703,8.4432134,8.4503342)"><g
     id="g6">

<g
   id="g2-6">

<path
   class="st4"
   d="M 24.01,44.25 H 10.54 c -0.83,0 -1.5,0.67 -1.5,1.5 v 1.28 h 16.47 v -1.28 c 0,-0.83 -0.67,-1.5 -1.5,-1.5 z"
   id="path1-7"
   style="fill:#fbd872" />

<path
   class="st7"
   d="M 25.6,47.03 H 8.95 C 8.42,47.03 8,47.45 8,47.98 8,48.5 8.42,48.93 8.95,48.93 H 25.6 c 0.52,0 0.95,-0.42 0.95,-0.95 0,-0.53 -0.43,-0.95 -0.95,-0.95 z"
   id="path2-5"
   style="fill:#f6af62" />

</g>

<g
   id="g5">

<path
   class="st6"
   d="m 53.34,37.03 -29.59,-9.56 2.03,-5.25 -9.91,-3.84 -5.55,14.35 9.91,3.84 2.03,-5.25 28.32,12.85 c 2.01,0.91 4.37,-0.05 5.17,-2.11 v 0 c 0.79,-2.05 -0.31,-4.35 -2.41,-5.03 z"
   id="path3-3"
   style="fill:#f38e7a" />

<path
   class="st5"
   d="m 8.12,33.73 c -0.34,0.88 0.1,1.88 0.98,2.22 l 9.86,3.82 c 0.88,0.34 1.88,-0.1 2.22,-0.98 0.34,-0.88 -0.1,-1.88 -0.98,-2.22 L 10.34,32.75 C 9.45,32.4 8.46,32.84 8.12,33.73 Z"
   id="path4-5"
   style="fill:#db7767" />

<path
   class="st5"
   d="m 14.91,16.18 c -0.34,0.88 0.1,1.88 0.98,2.22 l 9.86,3.82 c 0.88,0.34 1.88,-0.1 2.22,-0.98 0.34,-0.88 -0.1,-1.88 -0.98,-2.22 L 17.13,15.2 c -0.88,-0.35 -1.88,0.09 -2.22,0.98 z"
   id="path5-6"
   style="fill:#db7767" />

</g>

</g></g></svg>
