<?xml version="1.0" encoding="UTF-8" standalone="no"?>
<!-- Uploaded to: SVG Repo, www.svgrepo.com, Generator: SVG Repo Mixer Tools -->

<svg
   width="800px"
   height="800px"
   viewBox="0 0 48 48"
   fill="none"
   version="1.1"
   id="svg3"
   sodipodi:docname="clean-hands-svgrepo-com (1).svg"
   inkscape:version="1.4.2 (2aeb623e1d, 2025-05-12)"
   xmlns:inkscape="http://www.inkscape.org/namespaces/inkscape"
   xmlns:sodipodi="http://sodipodi.sourceforge.net/DTD/sodipodi-0.dtd"
   xmlns="http://www.w3.org/2000/svg"
   xmlns:svg="http://www.w3.org/2000/svg">
  <defs
     id="defs3" />
  <sodipodi:namedview
     id="namedview3"
     pagecolor="#ffffff"
     bordercolor="#000000"
     borderopacity="0.25"
     inkscape:showpageshadow="2"
     inkscape:pageopacity="0.0"
     inkscape:pagecheckerboard="0"
     inkscape:deskcolor="#d1d1d1"
     showgrid="false"
     inkscape:zoom="0.95375"
     inkscape:cx="399.47575"
     inkscape:cy="400"
     inkscape:window-width="1920"
     inkscape:window-height="971"
     inkscape:window-x="0"
     inkscape:window-y="0"
     inkscape:window-maximized="1"
     inkscape:current-layer="svg3" />
  <path
     d="m 20.377457,27.946265 1,-4 1,4 3,1 -3,1 -1,4 -1,-4 -3,-1 z"
     fill="#333333"
     id="path1"
     style="fill:#f5ff19;stroke:#ff7200;stroke-opacity:1;stroke-width:0.57402;stroke-dasharray:none;fill-opacity:1" />
  <path
     d="m 32.89384,18.098952 2.5,-8.5000005 2.5,8.5000005 5,2.5 -5,2.5 -2.5,7.5 -2.5,-7.5 -5,-2.5 z"
     fill="#333333"
     id="path2"
     style="fill:#f5ff19;stroke:#ff7200;stroke-opacity:1;stroke-width:0.57402;stroke-dasharray:none;fill-opacity:1" />
  <path
     d="m 9.553709,11.621651 2.5,-8.4999996 2.5,8.4999996 5,2.5 -5,2.5 -2.5,7.5 -2.5,-7.5 -5,-2.5 z"
     fill="#333333"
     id="path2-5"
     style="fill:#f5ff19;stroke:#ff7200;stroke-opacity:1;stroke-width:0.57402;stroke-dasharray:none;fill-opacity:1" />
  <path
     d="m 12.755858,37.338218 1,-4 1,4 3,1 -3,1 -1,4 -1,-4 -2.9999995,-1 z"
     fill="#333333"
     id="path1-2"
     style="fill:#f5ff19;stroke:#ff7200;stroke-opacity:1;stroke-width:0.57402;stroke-dasharray:none;fill-opacity:1" />
  <path
     d="m 28.869436,34.88616 1,-4 1,4 3,1 -3,1 -1,4 -1,-4 -3,-1 z"
     fill="#333333"
     id="path1-1"
     style="fill:#f5ff19;stroke:#ff7200;stroke-opacity:1;stroke-width:0.57402;stroke-dasharray:none;fill-opacity:1" />
</svg>
