<?xml version="1.0" encoding="UTF-8" standalone="no"?>
<!-- Uploaded to: SVG Repo, www.svgrepo.com, Generator: SVG Repo Mixer Tools -->

<svg
   width="800px"
   height="800px"
   viewBox="0 0 48 48"
   fill="none"
   version="1.1"
   id="svg8"
   sodipodi:docname="duan.svg"
   inkscape:version="1.4.4 (dcaf3e7d9e, 2026-05-05)"
   xmlns:inkscape="http://www.inkscape.org/namespaces/inkscape"
   xmlns:sodipodi="http://sodipodi.sourceforge.net/DTD/sodipodi-0.dtd"
   xmlns="http://www.w3.org/2000/svg"
   xmlns:svg="http://www.w3.org/2000/svg">
  <defs
     id="defs8" />
  <sodipodi:namedview
     id="namedview8"
     pagecolor="#ffffff"
     bordercolor="#000000"
     borderopacity="0.25"
     inkscape:showpageshadow="2"
     inkscape:pageopacity="0.0"
     inkscape:pagecheckerboard="0"
     inkscape:deskcolor="#d1d1d1"
     inkscape:zoom="1.03625"
     inkscape:cx="400"
     inkscape:cy="400"
     inkscape:window-width="1697"
     inkscape:window-height="1036"
     inkscape:window-x="36"
     inkscape:window-y="32"
     inkscape:window-maximized="0"
     inkscape:current-layer="svg8" />
  <g
     id="g8"
     transform="matrix(0.47382582,-0.47866252,0.43178776,0.42742471,9.0744731,15.949876)">
    <path
       d="M 12,4 H 4 v 8 h 8 z"
       fill="#2f88ff"
       stroke="#000000"
       stroke-width="4"
       stroke-linejoin="round"
       id="path1" />
    <path
       d="M 12,36 H 4 v 8 h 8 z"
       fill="#2f88ff"
       stroke="#000000"
       stroke-width="4"
       stroke-linejoin="round"
       id="path3" />
    <path
       d="M 8,36 V 12"
       stroke="#000000"
       stroke-width="4"
       stroke-linecap="round"
       stroke-linejoin="round"
       stroke-dasharray="1, 5"
       id="path5" />
  </g>
  <g
     id="g2"
     transform="matrix(-0.21959167,-0.22590099,0.22900093,-0.22260503,7.1418023,18.186371)">
    <path
       d="M 45,26 H 3 a 2,2 0 0 1 0,-4 h 42 a 2,2 0 0 1 0,4 z"
       fill="#4dbe86"
       id="path1-0" />
    <path
       d="m 19,43 a 2,2 0 0 1 -1.41,-0.59 l -17,-17 A 2,2 0 0 1 0,24 2.07,2.07 0 0 1 0.59,22.56 l 17,-17 a 2.0011122,2.0011122 0 0 1 2.83,2.83 L 4.81,24 20.38,39.57 A 2,2 0 0 1 19,43 Z"
       fill="#4dbe86"
       id="path2" />
  </g>
  <g
     id="g2-3"
     transform="matrix(0.21959167,0.22590099,-0.22900093,0.22260503,39.305971,27.005834)">
    <path
       d="M 45,26 H 3 a 2,2 0 0 1 0,-4 h 42 a 2,2 0 0 1 0,4 z"
       fill="#4dbe86"
       id="path1-0-6" />
    <path
       d="m 19,43 a 2,2 0 0 1 -1.41,-0.59 l -17,-17 A 2,2 0 0 1 0,24 2.07,2.07 0 0 1 0.59,22.56 l 17,-17 a 2.0011122,2.0011122 0 0 1 2.83,2.83 L 4.81,24 20.38,39.57 A 2,2 0 0 1 19,43 Z"
       fill="#4dbe86"
       id="path2-0" />
  </g>
</svg>
