<?xml version="1.0" encoding="iso-8859-1"?>
<!-- Uploaded to: SVG Repo, www.svgrepo.com, Generator: SVG Repo Mixer Tools -->
<svg height="800px" width="800px" version="1.1" id="Layer_1" xmlns="http://www.w3.org/2000/svg" xmlns:xlink="http://www.w3.org/1999/xlink" 
	 viewBox="0 0 511.998 511.998" xml:space="preserve">
<polyline style="fill:#F2F2F2;" points="271.19,225.098 271.19,351.447 244.165,351.447 244.165,225.098 "/>
<path style="fill:#76C7F4;" d="M257.677,503.781L257.677,503.781c-21.218,0-37.907-18.13-36.154-39.275l7.967-96.092
	c0.795-9.589,8.81-16.967,18.432-16.967h19.509c9.622,0,17.638,7.378,18.432,16.967l7.967,96.092
	C295.584,485.651,278.895,503.781,257.677,503.781z"/>
<path style="fill:#F2F2F2;" d="M319.402,128.834v30.803c0,35.022-28.385,63.407-63.407,63.407c-17.506,0-33.363-7.099-44.836-18.572
	c-11.473-11.473-18.572-27.319-18.572-44.836v-30.803c0,5.835,2.363,11.132,6.187,14.956c3.835,3.824,9.11,6.187,14.956,6.187
	c11.67,0,21.132-9.462,21.132-21.143c0,5.835,2.363,11.132,6.187,14.956c3.824,3.824,9.11,6.187,14.945,6.187
	c11.67,0,21.132-9.462,21.132-21.143c0,5.835,2.363,11.132,6.187,14.956c3.824,3.824,9.121,6.187,14.956,6.187
	C309.941,149.977,319.402,140.516,319.402,128.834z"/>
<path d="M319.4,0c-4.553,0-8.242,3.69-8.242,8.242v120.573c0,7.109-5.784,12.892-12.892,12.892s-12.892-5.784-12.892-12.892V8.242
	c0-4.552-3.689-8.242-8.242-8.242c-4.553,0-8.242,3.69-8.242,8.242v120.573c0,7.109-5.784,12.892-12.892,12.892
	s-12.892-5.784-12.892-12.892V8.242c0-4.552-3.689-8.242-8.242-8.242c-4.553,0-8.242,3.69-8.242,8.242v120.573
	c0,7.109-5.784,12.892-12.892,12.892c-7.109,0-12.892-5.784-12.892-12.892V8.242c0-4.552-3.689-8.242-8.242-8.242
	c-4.553,0-8.242,3.69-8.242,8.242v151.371c0,32.539,21.81,60.061,51.574,68.764v117.689c-8.052,4.091-13.858,12.14-14.64,21.572
	l-6.312,68.859c-0.415,4.533,2.922,8.544,7.455,8.959c4.51,0.411,8.544-2.922,8.959-7.455l6.319-68.93
	c0.436-5.275,4.925-9.407,10.219-9.407h19.509c5.292,0,9.781,4.132,10.219,9.407l7.967,96.092
	c0.656,7.903-1.943,15.471-7.313,21.305c-5.37,5.834-12.697,9.047-20.627,9.047c-7.931,0-15.256-3.213-20.628-9.048
	c-5.371-5.835-7.968-13.4-7.312-21.305c0.376-4.536-2.997-8.518-7.532-8.895c-4.529-0.377-8.519,2.996-8.896,7.532
	c-1.025,12.368,3.207,24.699,11.612,33.83c8.404,9.132,20.344,14.368,32.755,14.368c12.41,0,24.349-5.236,32.754-14.367
	c8.406-9.131,12.639-21.462,11.613-33.831l-7.967-96.092c-0.787-9.481-6.594-17.545-14.646-21.641v-66.695
	c0-4.552-3.689-8.242-8.242-8.242c-4.553,0-8.242,3.69-8.242,8.242v63.808H252.41V231.167c1.189,0.059,2.385,0.091,3.589,0.091
	c2.346,0,4.664-0.121,6.953-0.343v26.478c0,4.552,3.689,8.242,8.242,8.242c4.553,0,8.242-3.69,8.242-8.242v-30.093
	c28.028-9.733,48.209-36.391,48.209-67.69V8.242C327.642,3.69,323.952,0,319.4,0z M255.995,214.775
	c-30.417,0-55.162-24.746-55.162-55.163v-4.409c3.895,1.911,8.27,2.988,12.892,2.988c8.292,0,15.788-3.459,21.134-9.004
	c5.346,5.545,12.842,9.004,21.134,9.004c8.292,0,15.788-3.459,21.134-9.004c5.346,5.545,12.842,9.004,21.134,9.004
	c4.623,0,8.998-1.077,12.892-2.988v4.409C311.158,190.03,286.412,214.775,255.995,214.775z"/>
</svg>