<?xml version="1.0" encoding="UTF-8" standalone="no"?>
<!-- Uploaded to: SVG Repo, www.svgrepo.com, Generator: SVG Repo Mixer Tools -->

<svg
   version="1.1"
   id="Layer_1"
   viewBox="0 0 512 512"
   xml:space="preserve"
   xmlns="http://www.w3.org/2000/svg"
   xmlns:svg="http://www.w3.org/2000/svg"><defs
   id="defs33"><radialGradient
     id="IconifyId17ecdb2904d178eab20511"
     cx="99.638"
     cy="45.941002"
     r="23.419001"
     gradientTransform="matrix(1,0,0,0.4912,-21.055,59.492)"
     gradientUnits="userSpaceOnUse"><stop
       offset=".728"
       stop-color="#454140"
       stop-opacity="0"
       id="stop1" /><stop
       offset="1"
       stop-color="#454140"
       id="stop2" /></radialGradient><radialGradient
     id="IconifyId17ecdb2904d178eab20512"
     cx="76.572998"
     cy="49.423"
     r="6.921"
     gradientTransform="matrix(-0.9057,0.4238,-0.3144,-0.6719,186.542,79.33)"
     gradientUnits="userSpaceOnUse"><stop
       offset=".663"
       stop-color="#454140"
       id="stop3" /><stop
       offset="1"
       stop-color="#454140"
       stop-opacity="0"
       id="stop4" /></radialGradient><radialGradient
     id="IconifyId17ecdb2904d178eab20513"
     cx="94.509003"
     cy="69.001999"
     r="30.399"
     gradientTransform="matrix(-0.0746,-0.9972,0.8311,-0.0622,33.418,157.536)"
     gradientUnits="userSpaceOnUse"><stop
       offset=".725"
       stop-color="#454140"
       stop-opacity="0"
       id="stop5" /><stop
       offset="1"
       stop-color="#454140"
       id="stop6" /></radialGradient><radialGradient
     id="IconifyId17ecdb2904d178eab20514"
     cx="44.310001"
     cy="69.001999"
     r="30.399"
     gradientTransform="matrix(0.0746,-0.9972,-0.8311,-0.0622,98.35,107.477)"
     gradientUnits="userSpaceOnUse"><stop
       offset=".725"
       stop-color="#454140"
       stop-opacity="0"
       id="stop7" /><stop
       offset="1"
       stop-color="#454140"
       id="stop8" /></radialGradient><radialGradient
     id="IconifyId17ecdb2904d178eab20515"
     cx="49.438999"
     cy="45.941002"
     r="23.419001"
     gradientTransform="matrix(-1,0,0,0.4912,98.878,59.492)"
     gradientUnits="userSpaceOnUse"><stop
       offset=".728"
       stop-color="#454140"
       stop-opacity="0"
       id="stop9" /><stop
       offset="1"
       stop-color="#454140"
       id="stop10" /></radialGradient><radialGradient
     id="IconifyId17ecdb2904d178eab20516"
     cx="26.374001"
     cy="49.423"
     r="6.921"
     gradientTransform="matrix(0.9057,0.4238,0.3144,-0.6719,-13.052,100.605)"
     gradientUnits="userSpaceOnUse"><stop
       offset=".663"
       stop-color="#454140"
       id="stop11" /><stop
       offset="1"
       stop-color="#454140"
       stop-opacity="0"
       id="stop12" /></radialGradient><radialGradient
     id="IconifyId17ecdb2904d178eab20517"
     cx="82.872002"
     cy="84.536003"
     r="33.875999"
     gradientTransform="matrix(0.3076,0.9515,0.706,-0.2282,-2.303,-16.1)"
     gradientUnits="userSpaceOnUse"><stop
       offset=".699"
       stop-color="#454140"
       stop-opacity="0"
       id="stop20" /><stop
       offset="1"
       stop-color="#454140"
       id="stop21" /></radialGradient><radialGradient
     id="IconifyId17ecdb2904d178eab20518"
     cx="38.533001"
     cy="84.699997"
     r="16.886"
     gradientTransform="matrix(0.9907,0.1363,0.1915,-1.3921,-15.859,155.958)"
     gradientUnits="userSpaceOnUse"><stop
       offset=".598"
       stop-color="#454140"
       stop-opacity="0"
       id="stop22" /><stop
       offset="1"
       stop-color="#454140"
       id="stop23" /></radialGradient><radialGradient
     id="IconifyId17ecdb2904d178eab20519"
     cx="37.085999"
     cy="95.778"
     r="12.941"
     gradientTransform="matrix(-0.9657,-0.2598,-0.2432,0.9037,96.192,-44.696)"
     gradientUnits="userSpaceOnUse"><stop
       offset=".66"
       stop-color="#454140"
       stop-opacity="0"
       id="stop24" /><stop
       offset="1"
       stop-color="#454140"
       id="stop25" /></radialGradient><linearGradient
     id="IconifyId17ecdb2904d178eab20520"
     gradientUnits="userSpaceOnUse"
     x1="63.417"
     y1="128.33299"
     x2="63.417"
     y2="99.693001"
     gradientTransform="matrix(1,0,0,-1,0,128)"><stop
       offset=".003"
       stop-color="#424242"
       id="stop29" /><stop
       offset=".472"
       stop-color="#353535"
       id="stop30" /><stop
       offset="1"
       stop-color="#212121"
       id="stop31" /></linearGradient><linearGradient
     id="IconifyId17ecdb2904d178eab20521"
     gradientUnits="userSpaceOnUse"
     x1="63.417"
     y1="128.16701"
     x2="63.417"
     y2="97.167"
     gradientTransform="matrix(1,0,0,-1,0,128)"><stop
       offset=".003"
       stop-color="#616161"
       id="stop32" /><stop
       offset=".324"
       stop-color="#505050"
       id="stop33" /><stop
       offset=".955"
       stop-color="#242424"
       id="stop34" /><stop
       offset="1"
       stop-color="#212121"
       id="stop35" /></linearGradient><linearGradient
     id="IconifyId17ecdb2904d178eab20522"
     gradientUnits="userSpaceOnUse"
     x1="13.309"
     y1="110.001"
     x2="114.137"
     y2="110.001"
     gradientTransform="matrix(1,0,0,-1,0,128)"><stop
       offset=".001"
       stop-color="#bfbebe"
       id="stop36" /><stop
       offset=".3"
       stop-color="#212121"
       stop-opacity="0"
       id="stop37" /><stop
       offset=".7"
       stop-color="#212121"
       stop-opacity="0"
       id="stop38" /><stop
       offset="1"
       stop-color="#bfbebe"
       id="stop39" /></linearGradient><radialGradient
     id="IconifyId17ecdb2904d178eab20523"
     cx="64"
     cy="5.3969998"
     r="54.167"
     gradientTransform="matrix(1,0,0,-0.5247,0,125.435)"
     gradientUnits="userSpaceOnUse"><stop
       offset=".598"
       stop-color="#212121"
       id="stop40" /><stop
       offset="1"
       stop-color="#616161"
       id="stop41" /></radialGradient></defs>









<g
   id="g34"
   transform="matrix(0.68535565,0,0,0.75847492,13.282008,0.56180094)"><polygon
     style="fill:#ff9900"
     points="301,312.9 301,82.2 283,91.2 283,312.9 "
     id="polygon1" /><path
     style="fill:#cc9966"
     d="M 256,17.2 212.7,74.9 232,86.5 254.6,73 l 0.2,-0.1 c 0.4,-0.2 0.8,-0.4 1.2,-0.4 0.4,0 0.9,0.1 1.2,0.4 l 0.1,0.1 22.7,13.5 19.3,-11.6 z"
     id="path1" /><polygon
     style="fill:#ff9900"
     points="229,91.2 211,82.2 211,312.9 229,312.9 "
     id="polygon2" /><polygon
     style="fill:#ee5656"
     points="235,312.9 277,312.9 277,91.3 256,79.8 235,91.3 "
     id="polygon3" /><g
     id="g4">
	<path
   style="fill:#fff8ef"
   d="m 210.5,374.9 0.5,5.5 c 1.1,11.7 10.8,20.5 22.6,20.5 h 45.6 c 11.2,0 20.7,-9 21.8,-20.5 l 0.5,-5.5 z"
   id="path3" />
	<path
   style="fill:#fff8ef"
   d="m 390.5,479.4 c -4,-8.1 -13.1,-13.5 -22.5,-13.5 -5.2,0 -10.3,1.6 -14.6,4.7 -2.7,-11.8 -13.3,-20.7 -25.4,-20.7 -23.5,0 -39.5,-26.5 -47,-42.3 l -2.7,-5.7 h -45 l -2.6,6.2 c -6.4,15.5 -23.4,41.8 -46.8,41.8 -12,0 -22.1,8.3 -25.2,19.9 -4.1,-3 -9.5,-4.7 -14.8,-4.7 -9.4,0 -18.5,5.4 -22.5,13.5 l -1.1,2.1 v 2.4 c 0,1.4 0.3,2.8 0.8,4.1 v 1.6 l 6.1,6.1 c 1,1 2.7,2.7 5.8,4.3 l 0.6,0.3 0.7,0.2 c 0.4,0.1 0.8,0.3 1.2,0.4 2.1,0.8 4.7,1.7 8.4,1.7 h 224 c 2.2,0 3.9,-0.3 5.2,-0.6 0.5,-0.1 1,-0.2 1.2,-0.2 l 4.1,0.1 2.7,-2.7 c 0.1,-0.1 0.3,-0.2 0.4,-0.3 0.9,-0.6 2,-1.3 3.1,-2.4 l 6.1,-6.1 V 488 c 0.5,-1.3 0.8,-2.7 0.8,-4.1 v -2.4 z"
   id="path4" />
</g><g
     id="g23">
	<rect
   x="419"
   y="350.89999"
   style="fill:#1d9aae"
   width="34"
   height="18"
   id="rect4" />
	<rect
   x="379"
   y="350.89999"
   style="fill:#1d9aae"
   width="34"
   height="18"
   id="rect5" />
	<rect
   x="339"
   y="350.89999"
   style="fill:#1d9aae"
   width="34"
   height="18"
   id="rect6" />
	<rect
   x="299"
   y="350.89999"
   style="fill:#1d9aae"
   width="34"
   height="18"
   id="rect7" />
	<rect
   x="259"
   y="350.89999"
   style="fill:#1d9aae"
   width="34"
   height="18"
   id="rect8" />
	<rect
   x="219"
   y="350.89999"
   style="fill:#1d9aae"
   width="34"
   height="18"
   id="rect9" />
	<rect
   x="179"
   y="350.89999"
   style="fill:#1d9aae"
   width="34"
   height="18"
   id="rect10" />
	<rect
   x="139"
   y="350.89999"
   style="fill:#1d9aae"
   width="34"
   height="18"
   id="rect11" />
	<rect
   x="99"
   y="350.89999"
   style="fill:#1d9aae"
   width="34"
   height="18"
   id="rect12" />
	<rect
   x="59"
   y="350.89999"
   style="fill:#1d9aae"
   width="34"
   height="18"
   id="rect13" />
	<path
   style="fill:#1d9aae"
   d="m 488,318.9 c -1.5,0 -3,-1.3 -3,-2.2 v -0.2 -0.2 c -3.6,-44.3 -23,-86.1 -54.8,-117.7 -31.5,-31.4 -73,-50.8 -117,-54.8 l -5.5,-0.5 v 49.9 l 4.4,0.5 c 64.6,7.9 115,57.9 122.8,121.7 0,1.1 -0.4,2.1 -0.9,2.6 -0.6,0.6 -1.7,0.9 -2.9,0.9 H 81.6 c -1.2,0 -2.3,-0.4 -2.9,-0.9 -0.5,-0.5 -0.9,-1.5 -0.9,-2.6 7.7,-63.6 59.3,-114.7 122.7,-121.7 l 4.5,-0.5 v -50 l -5.5,0.5 c -44,4 -85.5,23.5 -117,54.8 C 50.7,230.1 31.3,272 27.7,316.2 v 0.2 0.2 c 0,0.9 -1.5,2.2 -3,2.2 H 11 v 50 h 42 v -18 H 29 v -14.4 c 8.8,-1.8 15.9,-9.3 16.8,-18.5 v -0.1 c 6,-77.1 65,-141.2 141.2,-154.5 v 13.9 c -32.4,5.9 -61.5,21.5 -84.4,45.2 -23.9,24.8 -38.7,56 -42.8,90.4 -1,6.3 1,12.6 5.4,17 4.7,4.7 9.9,7.1 15.5,7.1 h 350.4 c 6.8,0 12,-2.7 15.9,-8.2 4.3,-4.5 6,-9.9 5.1,-15.9 -4.1,-34.4 -18.9,-65.6 -42.8,-90.4 -22.9,-23.7 -52,-39.3 -84.4,-45.2 v -13.9 c 76.2,13.3 135.2,77.4 141.2,154.5 v 0.1 c 0.9,9.2 8,16.6 16.8,18.5 v 14.5 h -24 v 18 h 42 v -50 z"
   id="path13" />
	<rect
   x="424"
   y="355.89999"
   style="fill:#1d9aae"
   width="24"
   height="8"
   id="rect14" />
	<rect
   x="384"
   y="355.89999"
   style="fill:#1d9aae"
   width="24"
   height="8"
   id="rect15" />
	<rect
   x="344"
   y="355.89999"
   style="fill:#1d9aae"
   width="24"
   height="8"
   id="rect16" />
	<rect
   x="304"
   y="355.89999"
   style="fill:#1d9aae"
   width="24"
   height="8"
   id="rect17" />
	<rect
   x="264"
   y="355.89999"
   style="fill:#1d9aae"
   width="24"
   height="8"
   id="rect18" />
	<rect
   x="224"
   y="355.89999"
   style="fill:#1d9aae"
   width="24"
   height="8"
   id="rect19" />
	<rect
   x="184"
   y="355.89999"
   style="fill:#1d9aae"
   width="24"
   height="8"
   id="rect20" />
	<rect
   x="144"
   y="355.89999"
   style="fill:#1d9aae"
   width="24"
   height="8"
   id="rect21" />
	<rect
   x="104"
   y="355.89999"
   style="fill:#1d9aae"
   width="24"
   height="8"
   id="rect22" />
	<rect
   x="64"
   y="355.89999"
   style="fill:#1d9aae"
   width="24"
   height="8"
   id="rect23" />
	<path
   style="fill:#1d9aae"
   d="m 192,157.5 c -80,11.2 -144.8,78.4 -151.2,160 -0.8,8 -8,14.4 -16,14.4 H 24 v 24 h 24 v 8 H 16 v -40 h 8.8 c 4,0 8,-3.2 8,-7.2 7.2,-89.6 79.2,-160 167.2,-168 v 40 c -65.6,7.2 -119.2,59.2 -127.2,126.4 0,2.4 0.8,4.8 2.4,6.4 1.6,1.6 4,2.4 6.4,2.4 h 126.4 96 120 7.2 c 2.4,0 4.8,-0.8 6.4,-2.4 1.6,-1.6 2.4,-4 2.4,-6.4 -8,-67.2 -61.6,-118.4 -127.2,-126.4 v -40 c 88,8 160,78.4 167.2,168 0,4 4,7.2 8,7.2 h 8 v 40 h -32 v -8 h 24 v -24 h -0.8 c -8,0 -15.2,-6.4 -16,-14.4 C 464.8,235.9 400,168.7 320,157.5 v 24 c 67.2,10.4 119.2,64 127.2,132 0.8,4.8 -0.8,8.8 -4,12 -3.2,4.8 -7.2,6.4 -12,6.4 H 424 80.8 c -4.8,0 -8.8,-2.4 -12,-5.6 -3.2,-3.2 -4.8,-8 -4,-12.8 8,-68 60,-121.6 127.2,-132 z"
   id="path23" />
</g><g
     id="g24">
	<circle
   style="fill:#42210b"
   cx="456"
   cy="75.900002"
   r="16"
   id="circle23" />
	<rect
   x="448"
   y="99.900002"
   style="fill:#42210b"
   width="16"
   height="72"
   id="rect24" />
</g><g
     id="g31">
	<path
   style="fill:#d9cdc1"
   d="m 379.2,487.1 c 0.8,-0.8 0.8,-0.8 1.6,-1.6 -0.8,0.8 -0.8,0.8 -1.6,1.6 z"
   id="path24" />
	<path
   style="fill:#d9cdc1"
   d="m 379.2,487.1 c -0.8,0.8 -0.8,0.8 -1.6,1.6 0.8,-0.8 0.8,-0.8 1.6,-1.6 z"
   id="path25" />
	<path
   style="fill:#d9cdc1"
   d="m 374.4,490.3 c 1.6,-0.8 2.4,-1.6 3.2,-2.4 -0.8,1.6 -2.4,2.4 -3.2,2.4 z"
   id="path26" />
	<path
   style="fill:#d9cdc1"
   d="m 368,459.9 c 8.8,0 16,7.2 16,16 0,4 -1.6,7.2 -3.2,9.6 0,-0.8 0.8,-0.8 0.8,-1.6 -3.2,-4.8 -8,-8 -13.6,-8 -4,0 -8,1.6 -10.4,4 -2.4,2.4 -5.6,2.4 -8,1.6 -3.2,-0.8 -4.8,-4 -4.8,-7.2 -0.8,-8 -7.2,-15.2 -16,-15.2 -31.2,0 -50.4,-34.4 -56,-48 h 2.4 c 6.4,13.6 22.4,32 53.6,32 8,0 15.2,6.4 16,15.2 0,3.2 2.4,5.6 4.8,7.2 2.4,0.8 6.4,0.8 8,-1.6 2.4,-2.4 6.4,-4 10.4,-4 z"
   id="path27" />
	<path
   style="fill:#d9cdc1"
   d="m 137.6,490.3 c -0.8,-0.8 -2.4,-1.6 -3.2,-2.4 0.8,1.6 2.4,2.4 3.2,2.4 z"
   id="path28" />
	<path
   style="fill:#d9cdc1"
   d="m 134.4,488.7 c -0.8,0 -0.8,-0.8 -1.6,-1.6 0,0.8 0.8,0.8 1.6,1.6 z"
   id="path29" />
	<path
   style="fill:#d9cdc1"
   d="m 131.2,485.5 c 0.8,0.8 0.8,0.8 1.6,1.6 -0.8,-0.8 -0.8,-0.8 -1.6,-1.6 z"
   id="path30" />
	<path
   style="fill:#d9cdc1"
   d="m 240,411.9 c -6.4,13.6 -24.8,48 -56,48 -8,0 -15.2,6.4 -16,15.2 0,3.2 -2.4,5.6 -4.8,7.2 -2.4,0.8 -6.4,0.8 -8,-1.6 -3.2,-3.2 -7.2,-4.8 -11.2,-4.8 -5.6,0 -11.2,3.2 -13.6,8 0,0.8 0.8,0.8 0.8,1.6 -2.4,-2.4 -3.2,-5.6 -3.2,-9.6 0,-8.8 7.2,-16 16,-16 4,0 8,1.6 10.4,4 2.4,2.4 5.6,2.4 8,1.6 3.2,-0.8 4.8,-4 4.8,-7.2 0.8,-8 7.2,-15.2 16,-15.2 31.2,0 48,-18.4 53.6,-32 h 3.2 z"
   id="path31" />
</g><path
     style="fill:#2fb4c2"
     d="m 487.2,331.9 c -8,0 -15.2,-6.4 -16,-14.4 C 464.8,235.9 400,168.7 320,157.5 v 24 c 67.2,10.4 119.2,64 127.2,132 0.8,4.8 -0.8,8.8 -4,12 -3.2,4.8 -7.2,6.4 -12,6.4 H 424 80.8 c -4.8,0 -8.8,-2.4 -12,-5.6 -3.2,-3.2 -4.8,-8 -4,-12.8 8,-68 60,-121.6 127.2,-132 v -24 c -80,11.2 -144.8,78.4 -151.2,160 -0.8,8 -8,14.4 -16,14.4 H 24 v 24 h 24 v -16 h 16 v 16 h 24 v -16 h 16 v 16 h 24 v -16 h 16 v 16 h 24 v -16 h 16 v 16 h 24 v -16 h 16 v 16 h 24 v -16 h 16 v 16 h 24 v -16 h 16 v 16 h 24 v -16 h 16 v 16 h 24 v -16 h 16 v 16 h 24 v -16 h 16 v 16 h 24 v -16 h 16 v 16 h 24 z"
     id="path32" /><g
     id="g33">
	<circle
   style="fill:#42210b"
   cx="40"
   cy="67.900002"
   r="16"
   id="circle32" />
	<rect
   x="32"
   y="147.89999"
   style="fill:#42210b"
   width="16"
   height="32"
   id="rect32" />
	<rect
   x="32"
   y="91.900002"
   style="fill:#42210b"
   width="16"
   height="40"
   id="rect33" />
	<path
   style="fill:#42210b"
   d="m 296,307.9 v -104 -16 -40 -16 -42.4 l -8,4.8 v 213.6 z m 125.6,0 C 411.2,253.5 366.4,211.9 312,204.7 v 103.2 z m -197.6,0 V 94.3 l -8,-4.8 v 42.4 16 40 16 104 z m 8.8,88 h 45.6 c 8.8,0 16.8,-7.2 16.8,-16 H 216 c 0.8,8.8 8,16 16.8,16 z m 7.2,-88 h 32 V 94.3 l -16,-9.6 -16,9.6 z M 252,68.7 c 2.4,-1.6 5.6,-1.6 8,0 l 20,12 12,-7.2 -36,-48 -36,48 12,7.2 z m -14.4,343.2 c -6.4,13.6 -22.4,32 -53.6,32 -8,0 -15.2,6.4 -16,15.2 0,3.2 -2.4,5.6 -4.8,7.2 -2.4,0.8 -6.4,0.8 -8,-1.6 -3.2,-3.2 -7.2,-4.8 -11.2,-4.8 -8.8,0 -16,7.2 -16,16 0,4 0.8,7.2 3.2,9.6 0,0.8 0.8,0.8 1.6,1.6 0.8,0.8 0.8,0.8 1.6,1.6 0.8,0.8 2.4,1.6 3.2,2.4 1.6,0.8 4,1.6 6.4,1.6 h 224 c 2.4,0 4,-0.8 6.4,-1.6 1.6,-0.8 2.4,-1.6 3.2,-2.4 0.8,0 0.8,-0.8 1.6,-1.6 0.8,-0.8 0.8,-0.8 1.6,-1.6 2.4,-2.4 3.2,-6.4 3.2,-9.6 0,-8.8 -7.2,-16 -16,-16 -4,0 -8,1.6 -10.4,4 -2.4,2.4 -5.6,2.4 -8,1.6 -3.2,-0.8 -4.8,-4 -4.8,-7.2 -0.8,-8 -7.2,-15.2 -16,-15.2 -31.2,0 -48,-18.4 -53.6,-32 H 272 240 237.6 Z M 200,307.9 V 204.7 c -54.4,7.2 -99.2,48 -109.6,103.2 z m 8,16 H 80.8 c -2.4,0 -4.8,-0.8 -6.4,-2.4 -1.6,-1.6 -2.4,-4 -2.4,-6.4 8,-67.2 61.6,-118.4 127.2,-126.4 v -40 c -88,8 -160,78.4 -167.2,168 0,4 -3.2,7.2 -7.2,7.2 H 16 v 40 h 32 v -8 -16 h 16 v 16 8 h 24 v -8 -16 h 16 v 16 8 h 24 v -8 -16 h 16 v 16 8 h 24 v -8 -16 h 16 v 16 8 h 24 v -8 -16 h 16 v 16 8 h 24 v -8 -16 h 16 v 16 8 h 24 v -8 -16 h 16 v 16 8 h 24 v -8 -16 h 16 v 16 8 h 24 v -8 -16 h 16 v 16 8 h 24 v -8 -16 h 16 v 16 8 h 24 v -8 -16 h 16 v 16 8 h 32 v -40 h -8.8 c -4,0 -8,-3.2 -8,-7.2 C 472,227.1 400,156.7 312,148.7 v 40 c 65.6,7.2 119.2,59.2 127.2,126.4 0,2.4 -0.8,4.8 -2.4,6.4 -1.6,1.6 -4,2.4 -6.4,2.4 H 424 304 Z M 17.6,307.9 C 28.8,214.3 106.4,139.9 200,132.7 V 75.9 c 0,-1.6 0.8,-3.2 1.6,-4.8 v 0 l 48,-64 c 3.2,-4 9.6,-4 12.8,0 l 48,64 v 0 c 0.8,1.6 1.6,3.2 1.6,4.8 v 56.8 c 93.6,7.2 171.2,81.6 182.4,175.2 h 9.6 c 4,0 8,4 8,8 v 56 c 0,4 -4,8 -8,8 H 312 c -0.8,13.6 -8.8,24.8 -20.8,29.6 4.8,8 15.2,18.4 36.8,18.4 12.8,0 23.2,7.2 28.8,18.4 3.2,-1.6 7.2,-2.4 11.2,-2.4 17.6,0 32,14.4 32,32 0,17.6 -14.4,32 -32,32 H 144 c -17.6,0 -32,-14.4 -32,-32 0,-17.6 14.4,-32 32,-32 4,0 8,0.8 11.2,2.4 4.8,-10.4 16,-18.4 28.8,-18.4 21.6,0 32,-10.4 36.8,-18.4 -12,-4.8 -20,-16 -20.8,-29.6 H 8 c -4.8,0 -8,-4 -8,-8 v -56 c 0,-4 3.2,-8 8,-8 z"
   id="path33" />
</g></g>
<g
   id="g42"
   transform="matrix(2.4955659,0,0,2.3011018,180.51151,147.14203)"><path
     d="m 98.9,79.76 c -1.25,-2.27 0.34,-4.58 3.06,-7.44 4.31,-4.54 9,-15.07 4.64,-25.76 0.03,-0.06 -0.86,-1.86 -0.83,-1.92 l -1.79,-0.09 c -0.57,-0.08 -20.26,-0.12 -39.97,-0.12 -19.71,0 -39.4,0.04 -39.97,0.12 0,0 -2.65,1.95 -2.63,2.01 -4.35,10.69 0.33,21.22 4.64,25.76 2.71,2.86 4.3,5.17 3.06,7.44 -1.21,2.21 -4.81,2.53 -4.81,2.53 0,0 0.83,2.26 2.83,3.48 1.85,1.13 4.13,1.39 5.7,1.43 0,0 6.15,8.51 22.23,8.51 h 17.9 c 16.08,0 22.23,-8.51 22.23,-8.51 1.57,-0.04 3.85,-0.3 5.7,-1.43 2,-1.22 2.83,-3.48 2.83,-3.48 0,0 -3.61,-0.33 -4.82,-2.53 z"
     fill="#312d2d"
     id="path1-3" /><path
     d="M 63.99,95.7 V 86.26 L 92.56,84 l 2.6,3.2 c 0,0 -6.15,8.51 -22.23,8.51 z"
     fill="url(#IconifyId17ecdb2904d178eab20511)"
     id="path2"
     style="fill:url(#IconifyId17ecdb2904d178eab20511)" /><path
     d="m 95.1,83.07 c -4.28,-6.5 5.21,-8.93 5.21,-8.93 l 0.01,0.01 c -1.65,2.05 -2.4,3.84 -1.43,5.61 1.21,2.21 4.81,2.53 4.81,2.53 0,0 -4.91,4.36 -8.6,0.78 z"
     fill="url(#IconifyId17ecdb2904d178eab20512)"
     id="path4-6"
     style="fill:url(#IconifyId17ecdb2904d178eab20512)" /><path
     d="m 106.62,46.56 c 4.25,10.35 -0.22,21.01 -4.41,25.51 -0.57,0.62 -3.01,3.01 -3.57,4.92 0,0 -9.54,-13.31 -12.39,-21.13 -0.57,-1.58 -1.1,-3.2 -1.17,-4.88 -0.05,-1.26 0.14,-2.76 0.87,-3.83 0.89,-1.31 20.16,-1.7 20.16,-1.7 0,0.01 0.51,1.11 0.51,1.11 z"
     fill="url(#IconifyId17ecdb2904d178eab20513)"
     id="path6"
     style="fill:url(#IconifyId17ecdb2904d178eab20513)" /><path
     d="m 21.4,46.56 c -4.25,10.35 0.22,21.01 4.41,25.51 0.58,0.62 3.01,3.01 3.57,4.92 0,0 9.54,-13.31 12.39,-21.13 0.58,-1.58 1.1,-3.2 1.17,-4.88 0.05,-1.26 -0.14,-2.76 -0.87,-3.83 -0.89,-1.31 -1.93,-0.96 -3.44,-0.96 -2.88,0 -15.49,-0.74 -16.47,-0.74 0.01,0.01 -0.76,1.11 -0.76,1.11 z"
     fill="url(#IconifyId17ecdb2904d178eab20514)"
     id="path8"
     style="fill:url(#IconifyId17ecdb2904d178eab20514)" /><path
     d="M 64.03,95.7 V 86.26 L 35.46,84 l -2.6,3.2 c 0,0 6.15,8.51 22.23,8.51 z"
     fill="url(#IconifyId17ecdb2904d178eab20515)"
     id="path10"
     style="fill:url(#IconifyId17ecdb2904d178eab20515)" /><path
     d="m 32.92,83.07 c 4.28,-6.5 -5.21,-8.93 -5.21,-8.93 l -0.01,0.01 c 1.65,2.05 2.4,3.84 1.43,5.61 -1.21,2.21 -4.81,2.53 -4.81,2.53 0,0 4.91,4.36 8.6,0.78 z"
     fill="url(#IconifyId17ecdb2904d178eab20516)"
     id="path12"
     style="fill:url(#IconifyId17ecdb2904d178eab20516)" /><g
     id="g13"><path
       fill="#edc391"
       d="M 73.78,112.04 V 89.25 H 54.21 v 22.79 z"
       id="path13-7" /></g><g
     id="g14"><path
       d="M 91.33,50.34 H 36.67 c -5.89,0 -10.71,5.13 -10.71,11.41 0,6.28 4.82,11.41 10.71,11.41 h 54.65 c 5.89,0 10.71,-5.14 10.71,-11.41 0.01,-6.27 -4.81,-11.41 -10.7,-11.41 z"
       fill="#edc391"
       id="path14" /></g><g
     id="g15"><path
       d="m 64,10.98 c -17.4,0 -33.52,18.61 -33.52,45.4 0,26.64 16.61,39.81 33.52,39.81 16.91,0 33.52,-13.17 33.52,-39.81 C 97.52,29.59 81.4,10.98 64,10.98 Z"
       fill="#f9ddbd"
       id="path15" /></g><g
     fill="#454140"
     id="g17"><path
       d="m 54.8,49.72 c -0.93,-1.23 -3.07,-3.01 -7.23,-3.01 -4.16,0 -6.31,1.79 -7.23,3.01 -0.41,0.54 -0.31,1.17 -0.02,1.55 0.26,0.35 1.04,0.68 1.9,0.39 0.86,-0.29 2.54,-1.16 5.35,-1.18 2.81,0.02 4.49,0.89 5.35,1.18 0.86,0.29 1.64,-0.03 1.9,-0.39 0.28,-0.37 0.39,-1 -0.02,-1.55 z"
       id="path16" /><path
       d="m 87.67,49.72 c -0.93,-1.23 -3.07,-3.01 -7.23,-3.01 -4.16,0 -6.31,1.79 -7.23,3.01 -0.41,0.54 -0.31,1.17 -0.02,1.55 0.26,0.35 1.04,0.68 1.9,0.39 0.86,-0.29 2.54,-1.16 5.35,-1.18 2.81,0.02 4.49,0.89 5.35,1.18 0.86,0.29 1.64,-0.03 1.9,-0.39 0.28,-0.37 0.39,-1 -0.02,-1.55 z"
       id="path17" /></g><g
     fill="#312d2d"
     id="g18"><ellipse
       cx="47.560001"
       cy="58.720001"
       rx="4.9299998"
       ry="5.0999999"
       id="ellipse17" /><ellipse
       cx="80.440002"
       cy="58.720001"
       rx="4.9299998"
       ry="5.0999999"
       id="ellipse18" /></g><path
     d="m 72.42,76.05 c -3.18,1.89 -13.63,1.89 -16.81,0 -1.83,-1.09 -3.7,0.58 -2.94,2.24 0.75,1.63 6.44,5.42 11.37,5.42 4.93,0 10.55,-3.79 11.3,-5.42 0.75,-1.66 -1.09,-3.33 -2.92,-2.24 z"
     fill="#444444"
     id="path18" /><path
     d="m 67.86,67.96 c -0.11,-0.04 -0.21,-0.07 -0.32,-0.08 h -7.08 c -0.11,0.01 -0.22,0.04 -0.32,0.08 -0.64,0.26 -0.99,0.92 -0.69,1.63 0.3,0.71 1.71,2.69 4.55,2.69 2.84,0 4.25,-1.99 4.55,-2.69 0.3,-0.7 -0.05,-1.37 -0.69,-1.63 z"
     fill="#dba689"
     id="path19" /><path
     d="M 99.27,23.45 C 98.48,18.73 85.42,10.33 80.53,8.78 67.29,4.59 58.68,6.29 54.06,8.81 53.1,9.33 46.89,12.78 42.55,10.31 39.83,8.76 32.02,21.15 28.09,23.52 c -4.59,2.77 -4.19,7.81 -3.49,9.77 -2.52,2.14 -5.69,6.69 -3.52,12.6 1.64,4.45 8.17,6.5 8.17,6.5 -0.62,10.74 2.28,15.95 2.28,15.95 0,0 4.69,-18.45 4.3,-21.27 0,0 7.76,-1.54 16.57,-6.58 5.95,-3.41 10.02,-7.4 16.71,-8.91 10.18,-2.29 12.45,5.08 12.45,5.08 0,0 9.42,-1.81 12.26,11.27 1.17,5.38 1.93,14.3 2.57,19.77 -0.06,-0.48 3.24,-6.33 3.86,-12.33 0.16,-1.55 4.34,-3.6 6.14,-10.26 2.4,-8.88 -0.24,-18.5 -7.12,-21.66 z"
     fill="#312d2d"
     id="path20" /><g
     id="g25"><radialGradient
       id="radialGradient14"
       cx="82.872002"
       cy="84.536003"
       r="33.875999"
       gradientTransform="matrix(0.3076,0.9515,0.706,-0.2282,-2.303,-16.1)"
       gradientUnits="userSpaceOnUse"><stop
         offset=".699"
         stop-color="#454140"
         stop-opacity="0"
         id="stop13" /><stop
         offset="1"
         stop-color="#454140"
         id="stop14" /></radialGradient><path
       d="m 106.4,45.1 c -1.5,5.53 -4.63,7.88 -5.75,9.41 -1.54,-9.37 -1.3,-18.27 -12.71,-28.81 0,0 2.29,-0.49 3.41,-2.53 0.87,-1.59 0.54,-3.57 0.54,-3.57 0.38,0.02 0.77,0.06 1.17,0.11 1.96,0.36 3.96,1.32 5.79,2.55 0.22,0.42 0.36,0.82 0.42,1.19 6.88,3.15 9.53,12.77 7.13,21.65 z"
       fill="url(#IconifyId17ecdb2904d178eab20517)"
       id="path21"
       style="fill:url(#IconifyId17ecdb2904d178eab20517)" /><radialGradient
       id="radialGradient16"
       cx="38.533001"
       cy="84.699997"
       r="16.886"
       gradientTransform="matrix(0.9907,0.1363,0.1915,-1.3921,-15.859,155.958)"
       gradientUnits="userSpaceOnUse"><stop
         offset=".598"
         stop-color="#454140"
         stop-opacity="0"
         id="stop15" /><stop
         offset="1"
         stop-color="#454140"
         id="stop16" /></radialGradient><path
       d="m 24.37,33.49 c -2.37,2.1 -5.56,6.79 -3.21,12.61 1.77,4.39 8.09,6.29 8.09,6.29 0,0.02 1.26,0.4 1.91,0.4 l 1.48,-21.9 c -3.03,0 -5.94,0.91 -7.82,2.22 0.03,0.03 -0.46,0.35 -0.45,0.38 z"
       fill="url(#IconifyId17ecdb2904d178eab20518)"
       id="path23-5"
       style="fill:url(#IconifyId17ecdb2904d178eab20518)" /><radialGradient
       id="radialGradient18"
       cx="37.085999"
       cy="95.778"
       r="12.941"
       gradientTransform="matrix(-0.9657,-0.2598,-0.2432,0.9037,96.192,-44.696)"
       gradientUnits="userSpaceOnUse"><stop
         offset=".66"
         stop-color="#454140"
         stop-opacity="0"
         id="stop17" /><stop
         offset="1"
         stop-color="#454140"
         id="stop18" /></radialGradient><path
       d="m 32.69,30.9 v -0.05 c -3.03,0 -5.93,0.91 -7.82,2.21 0,0.03 -0.15,0.14 -0.27,0.23 v -0.01 c 0.01,-0.01 0.03,-0.02 0.04,-0.03 -0.7,-1.96 -1.11,-7 3.49,-9.77 0.44,-0.27 0.93,-0.66 1.46,-1.15 1.22,-0.5 2.52,-0.79 3.72,-0.91 0.35,-0.03 0.99,-0.08 1.18,-0.08 l 4.81,0.59 z"
       fill="url(#IconifyId17ecdb2904d178eab20519)"
       id="path25-3"
       style="fill:url(#IconifyId17ecdb2904d178eab20519)" /></g><g
     id="g39"><path
       d="m 116.67,53.3 c -1.24,0 -2.25,0.96 -2.25,2.14 v 9.2 c 0,1.18 1.01,2.14 2.25,2.14 1.24,0 2.25,-0.96 2.25,-2.14 v -9.2 c 0,-1.18 -1.01,-2.14 -2.25,-2.14 z"
       fill="#e8ad00"
       id="path26-5" /><path
       d="m 112.17,53.3 c -1.24,0 -2.25,0.96 -2.25,2.14 v 9.2 c 0,1.18 1.01,2.14 2.25,2.14 1.24,0 2.25,-0.96 2.25,-2.14 v -9.2 c 0,-1.18 -1.01,-2.14 -2.25,-2.14 z"
       fill="#e8ad00"
       id="path27-6" /><path
       d="m 114.42,53.3 c -1.24,0 -2.25,0.96 -2.25,2.14 v 11.19 c 0,1.18 1.01,2.14 2.25,2.14 1.24,0 2.25,-0.96 2.25,-2.14 V 55.44 c 0,-1.18 -1.01,-2.14 -2.25,-2.14 z"
       fill="#ffca28"
       id="path28-2" /><ellipse
       cx="114.42"
       cy="52.07"
       rx="2.76"
       ry="2.6300001"
       fill="#ffca28"
       id="ellipse28" /><path
       d="m 114.42,52.04 c -0.55,0 -1,-0.45 -1,-1 v -38 c 0,-0.55 0.45,-1 1,-1 0.55,0 1,0.45 1,1 v 38 c 0,0.55 -0.45,1 -1,1 z"
       fill="#504f4f"
       id="path29-9" /><linearGradient
       id="linearGradient27"
       gradientUnits="userSpaceOnUse"
       x1="63.417"
       y1="128.33299"
       x2="63.417"
       y2="99.693001"
       gradientTransform="matrix(1,0,0,-1,0,128)"><stop
         offset=".003"
         stop-color="#424242"
         id="stop19" /><stop
         offset=".472"
         stop-color="#353535"
         id="stop26" /><stop
         offset="1"
         stop-color="#212121"
         id="stop27" /></linearGradient><path
       d="m 115.42,12 c -30.83,-7.75 -52,-8 -52,-8 0,0 -21.17,0.25 -52,8 v 0.77 c 0,1.33 0.87,2.5 2.14,2.87 3.72,1.1 11.47,3.34 16.53,4.36 0,0 -1.11,1.71 -2,3.52 0,0 9.95,5.92 35.33,8.48 C 88.8,29.44 99.27,23.45 99.27,23.45 98.39,21.64 97.29,20 97.29,20 c 4.5,-0.74 12.32,-3.14 16.04,-4.32 1.25,-0.4 2.09,-1.55 2.09,-2.86 z"
       fill="url(#IconifyId17ecdb2904d178eab20520)"
       id="path31-1"
       style="fill:url(#IconifyId17ecdb2904d178eab20520)" /><linearGradient
       id="linearGradient44"
       gradientUnits="userSpaceOnUse"
       x1="63.417"
       y1="128.16701"
       x2="63.417"
       y2="97.167"
       gradientTransform="matrix(1,0,0,-1,0,128)"><stop
         offset=".003"
         stop-color="#616161"
         id="stop28" /><stop
         offset=".324"
         stop-color="#505050"
         id="stop42" /><stop
         offset=".955"
         stop-color="#242424"
         id="stop43" /><stop
         offset="1"
         stop-color="#212121"
         id="stop44" /></linearGradient><path
       d="m 63.42,4 c 0,0 -21.17,0.25 -52,8 0,0 35.41,9.67 52,9.38 16.59,0.29 52,-9.38 52,-9.38 -30.84,-7.75 -52,-8 -52,-8 z"
       fill="url(#IconifyId17ecdb2904d178eab20521)"
       id="path35"
       style="fill:url(#IconifyId17ecdb2904d178eab20521)" /><linearGradient
       id="linearGradient48"
       gradientUnits="userSpaceOnUse"
       x1="13.309"
       y1="110.001"
       x2="114.137"
       y2="110.001"
       gradientTransform="matrix(1,0,0,-1,0,128)"><stop
         offset=".001"
         stop-color="#bfbebe"
         id="stop45" /><stop
         offset=".3"
         stop-color="#212121"
         stop-opacity="0"
         id="stop46" /><stop
         offset=".7"
         stop-color="#212121"
         stop-opacity="0"
         id="stop47" /><stop
         offset="1"
         stop-color="#bfbebe"
         id="stop48" /></linearGradient><path
       d="m 115.42,12 c -30.83,-7.75 -52,-8 -52,-8 0,0 -21.17,0.25 -52,8 v 0.77 c 0,1.33 0.87,2.5 2.14,2.87 3.72,1.1 11.47,3.34 16.53,4.36 0,0 -1.11,1.71 -2,3.52 0,0 9.95,5.92 35.33,8.48 C 88.8,29.44 99.27,23.45 99.27,23.45 98.39,21.64 97.29,20 97.29,20 c 4.5,-0.74 12.32,-3.14 16.04,-4.32 1.25,-0.4 2.09,-1.55 2.09,-2.86 z"
       opacity="0.4"
       fill="url(#IconifyId17ecdb2904d178eab20522)"
       id="path39"
       style="fill:url(#IconifyId17ecdb2904d178eab20522)" /></g><g
     id="g41"><path
       d="m 114.5,120.99 c 0,-14.61 -21.75,-21.54 -40.72,-23.1 l -8.6,11.03 c -0.28,0.36 -0.72,0.58 -1.18,0.58 -0.46,0 -0.9,-0.21 -1.18,-0.58 L 54.2,97.87 c -10.55,0.81 -40.71,4.75 -40.71,23.12 V 124 h 101 z"
       fill="#212121"
       id="path40" /><radialGradient
       id="radialGradient50"
       cx="64"
       cy="5.3969998"
       r="54.167"
       gradientTransform="matrix(1,0,0,-0.5247,0,125.435)"
       gradientUnits="userSpaceOnUse"><stop
         offset=".598"
         stop-color="#212121"
         id="stop49" /><stop
         offset="1"
         stop-color="#616161"
         id="stop50" /></radialGradient><path
       d="m 114.5,120.99 c 0,-14.61 -21.75,-21.54 -40.72,-23.1 l -8.6,11.03 c -0.28,0.36 -0.72,0.58 -1.18,0.58 -0.46,0 -0.9,-0.21 -1.18,-0.58 L 54.2,97.87 c -10.55,0.81 -40.71,4.75 -40.71,23.12 V 124 h 101 z"
       fill="url(#IconifyId17ecdb2904d178eab20523)"
       id="path41"
       style="fill:url(#IconifyId17ecdb2904d178eab20523)" /></g></g></svg>
