<?xml version="1.0" encoding="UTF-8" standalone="no"?>
<!-- Uploaded to: SVG Repo, www.svgrepo.com, Generator: SVG Repo Mixer Tools -->

<svg
   height="800px"
   width="800px"
   version="1.1"
   id="Capa_1"
   viewBox="0 0 401.138 401.138"
   xml:space="preserve"
   sodipodi:docname="house-visiting-svgrepo-com.svg"
   inkscape:version="1.4.2 (2aeb623e1d, 2025-05-12)"
   xmlns:inkscape="http://www.inkscape.org/namespaces/inkscape"
   xmlns:sodipodi="http://sodipodi.sourceforge.net/DTD/sodipodi-0.dtd"
   xmlns="http://www.w3.org/2000/svg"
   xmlns:svg="http://www.w3.org/2000/svg"><defs
   id="defs5">
	

		
		
		
		
	</defs><sodipodi:namedview
   id="namedview5"
   pagecolor="#ffffff"
   bordercolor="#000000"
   borderopacity="0.25"
   inkscape:showpageshadow="2"
   inkscape:pageopacity="0.0"
   inkscape:pagecheckerboard="0"
   inkscape:deskcolor="#d1d1d1"
   showgrid="false"
   inkscape:zoom="1.40125"
   inkscape:cx="400"
   inkscape:cy="400"
   inkscape:window-width="2560"
   inkscape:window-height="1329"
   inkscape:window-x="0"
   inkscape:window-y="0"
   inkscape:window-maximized="1"
   inkscape:current-layer="Capa_1" />
<path
   style="fill:#800080"
   d="m 98.795,226.834 c 10.987,-6.978 18.286,-19.227 18.286,-33.205 0,-21.745 -17.628,-39.368 -39.368,-39.368 -21.745,0 -39.373,17.623 -39.373,39.368 0,13.978 7.31,26.227 18.286,33.205 C 23.959,236.021 0,266.017 0,301.622 c 0,42.92 155.416,42.92 155.416,0 0,-35.605 -23.954,-65.596 -56.621,-74.788 z"
   id="path1" /><path
   style="fill:#00aad4"
   d="M 397.862,221.134 322.71,145.982 V 96.417 c 0,-6.173 -5.004,-11.188 -11.194,-11.188 -6.179,0 -11.183,5.015 -11.183,11.188 v 27.195 l -53.02,-53.009 c -4.362,-4.368 -11.444,-4.368 -15.8,0 l -75.298,75.298 c 6.429,4.047 11.607,9.85 14.876,16.752 l 68.331,-68.336 142.645,142.639 c 2.17,2.176 5.042,3.28 7.898,3.28 2.85,0 5.727,-1.088 7.903,-3.28 4.362,-4.383 4.362,-11.46 -0.006,-15.822 z"
   id="path2" /><path
   style="fill:#55ddff"
   d="M 365.88,233.965 247.336,115.421 c -2.105,-2.105 -4.939,-3.285 -7.903,-3.285 -2.964,0 -5.803,1.18 -7.903,3.285 l -57.235,57.23 c 0.408,2.274 0.658,4.612 0.658,7 0,5.118 -0.968,10.089 -2.785,14.68 16.051,11.672 26.173,30.606 26.173,51.225 0,7.19 -3.236,23.437 -30.47,31.275 2.197,7.957 3.383,16.274 3.383,24.797 0,11.792 -5.586,21.033 -14.615,28.153 h 37.638 c 7.49,0 14.718,-3.166 19.831,-8.703 4.645,-5.015 7.201,-11.525 7.201,-18.335 v -42.49 c 0,-10.312 7.903,-18.923 18.112,-19.896 10.209,0.974 18.112,9.589 18.112,19.896 v 42.49 c 0,6.81 2.562,13.32 7.196,18.335 5.102,5.537 12.33,8.703 19.831,8.703 h 57.866 c 14.892,0 27.027,-12.124 27.027,-27.038 v -57.866 c 0,-1.692 -0.158,-3.41 -0.5,-5.118 -0.424,-2.204 -1.49,-4.211 -3.073,-5.794 z"
   id="path3" /><path
   style="fill:#ff0000"
   d="m 113.921,224.044 c 17.726,8.284 31.867,22.436 40.418,39.613 15.79,-2.633 28.163,-8.659 28.163,-18.101 0,-21.724 -14.62,-40.026 -34.554,-45.639 6.701,-4.27 11.166,-11.738 11.166,-20.271 0,-13.266 -10.764,-24.019 -24.024,-24.019 -7.99,0 -15.044,3.911 -19.412,9.899 5.836,7.87 9.333,17.568 9.333,28.087 -0.005,11.34 -4.003,22.028 -11.09,30.431 z"
   id="path4" />
</svg>
