<?xml version="1.0" encoding="UTF-8" standalone="no"?>
<!-- Uploaded to: SVG Repo, www.svgrepo.com, Generator: SVG Repo Mixer Tools -->

<svg
   height="800px"
   width="800px"
   version="1.1"
   id="Layer_1"
   viewBox="0 0 512 512"
   xml:space="preserve"
   sodipodi:docname="image.svg"
   inkscape:version="1.2.2 (b0a8486541, 2022-12-01)"
   xmlns:inkscape="http://www.inkscape.org/namespaces/inkscape"
   xmlns:sodipodi="http://sodipodi.sourceforge.net/DTD/sodipodi-0.dtd"
   xmlns="http://www.w3.org/2000/svg"
   xmlns:svg="http://www.w3.org/2000/svg"><defs
   id="defs809" /><sodipodi:namedview
   id="namedview807"
   pagecolor="#ffffff"
   bordercolor="#000000"
   borderopacity="0.25"
   inkscape:showpageshadow="2"
   inkscape:pageopacity="0.0"
   inkscape:pagecheckerboard="0"
   inkscape:deskcolor="#d1d1d1"
   showgrid="false"
   inkscape:zoom="0.96375"
   inkscape:cx="399.48119"
   inkscape:cy="447.73022"
   inkscape:window-width="1920"
   inkscape:window-height="977"
   inkscape:window-x="0"
   inkscape:window-y="32"
   inkscape:window-maximized="1"
   inkscape:current-layer="Layer_1" />
<path
   style="fill:#ff0000"
   d="m 159.60432,512 h 248.784 c 8.314,0 15.054,-6.741 15.054,-15.054 v -71.829 c 0,-8.313 -6.74,-15.054 -15.054,-15.054 h -43.659 c -8.314,0 -15.054,6.741 -15.054,15.054 0,8.313 6.74,15.054 15.054,15.054 h 28.605 v 41.722 h -218.676 v -41.722 h 116.991 c 8.314,0 15.054,-6.741 15.054,-15.054 0,-8.313 -6.74,-15.054 -15.054,-15.054 h -132.045 c -8.314,0 -15.054,6.741 -15.054,15.054 v 71.829 c 0,8.314 6.74,15.054 15.054,15.054 z"
   id="path800" />
<path
   style="fill:#e9c6af"
   d="m 302.48132,198.013 v -15.951 c 0,-15.948 -13.01,-29.53 -29.728,-30.096 -17.553,-0.595 -31.979,12.793 -31.979,29.391 v 17.213 l -0.333,-154.106 c 0,-16.243 -13.813,-29.411 -30.854,-29.411 h -1.186 c -17.039,0 -30.854,13.168 -30.854,29.411 v 110.671 25.447 76.908 l -30.02,-73.098 c -5.281,-15.769 -22.984,-24.465 -39.527,-19.431 -16.542995,5.043 -25.664995,21.909 -20.383995,37.684 L 153.53332,338.39 c 8.141,16.765 25.756,27.5 45.137,27.509 l 177.423,0.077 c 27.491,0.012 49.783,-21.226 49.786,-47.432 l 0.018,-116.556 c 0,-16.243 -13.813,-29.411 -30.854,-29.411 v 0 c -17.039,0 -30.854,13.168 -30.854,29.411 V 195 c 0,-16.243 -13.813,-29.411 -30.854,-29.411 v 0 c -17.039,0 -30.854,13.168 -30.854,29.411"
   id="path802" />
<path
   style="fill:#ff0000"
   d="m 376.11632,381.032 c 17.172,0 33.35,-6.405 45.562,-18.039 12.415,-11.826 19.254,-27.612 19.255,-44.443 l 0.018,-116.553 c 0,-24.521 -20.594,-44.467 -45.908,-44.467 -10.053,0 -19.362,3.146 -26.933,8.477 -8.426,-9.466 -20.889,-15.466 -34.774,-15.466 -8.597,0 -16.651,2.3 -23.537,6.302 -7.914,-11.632 -21.199,-19.398 -36.536,-19.918 -6.029,-0.205 -11.998,0.757 -17.563,2.75 l -0.205,-95.24 C 255.49532,19.946 234.90232,0 209.58932,0 h -1.188 c -25.313,0 -45.908,19.946 -45.908,44.464 v 136.747 l -0.872,-2.121 c -8.048,-23.068 -33.94,-35.848 -58.005,-28.53 -12.147995,3.703 -21.964995,11.816 -27.650995,22.844 -5.48,10.633 -6.413,22.715 -2.627,34.023 0.206,0.614 0.45,1.215 0.733,1.796 l 65.918995,135.745 c 10.61,21.851 33.641,35.976 58.672,35.988 l 177.423,0.077 c 0.01,-0.001 0.022,-0.001 0.031,-0.001 z m 18.927,-193.395 c 8.712,0 15.8,6.44 15.8,14.357 l -0.018,116.551 c 0,8.516 -3.521,16.559 -9.914,22.65 -6.586,6.276 -15.391,9.731 -24.794,9.731 -0.006,0 -0.011,0 -0.017,0 l -177.423,-0.077 c -13.586,-0.006 -25.99,-7.477 -31.601,-19.033 l -65.416,-134.711 c -0.903,-3.312 -0.531,-6.801 1.069,-9.905 1.93,-3.742 5.361,-6.526 9.66,-7.837 8.797,-2.677 18.156,1.725 20.863,9.814 0.105,0.316 0.223,0.629 0.349,0.938 l 30.02,73.098 c 2.732,6.651 9.783,10.455 16.841,9.05 7.054,-1.392 12.139,-7.578 12.139,-14.769 V 44.464 c 0,-7.917 7.087,-14.357 15.801,-14.357 h 1.188 c 8.712,0 15.8,6.44 15.8,14.357 l 0.333,154.138 c 0.018,8.302 6.753,15.022 15.054,15.022 0.006,0 0.011,0 0.017,0 8.308,-0.009 15.037,-6.746 15.037,-15.054 v -17.213 c 0,-3.661 1.525,-7.149 4.292,-9.824 3.178,-3.072 7.489,-4.677 12.123,-4.522 8.373,0.283 15.185,7.036 15.185,15.051 v 15.953 c 0,8.313 6.74,15.054 15.054,15.054 8.314,0 15.054,-6.741 15.054,-15.054 v -3.011 c 0,-7.917 7.087,-14.357 15.8,-14.357 8.713,0 15.8,6.44 15.8,14.357 v 6.991 c 0,8.313 6.74,15.054 15.054,15.054 8.314,0 15.054,-6.741 15.054,-15.054 -0.005,-7.918 7.084,-14.358 15.796,-14.358 z"
   id="path804" />
</svg>
