<?xml version="1.0" encoding="iso-8859-1"?>
<!-- Uploaded to: SVG Repo, www.svgrepo.com, Generator: SVG Repo Mixer Tools -->
<svg height="800px" width="800px" version="1.1" id="Layer_1" xmlns="http://www.w3.org/2000/svg" xmlns:xlink="http://www.w3.org/1999/xlink" 
	 viewBox="0 0 390.206 390.206" xml:space="preserve">
<path style="fill:#FFC10D;" d="M123.022,157.737c0-24.954,8.663-47.709,22.238-66.133c-10.861-4.848-23.273-7.564-35.749-7.564
	c-48.226,0-87.79,39.564-87.79,87.79s39.564,87.79,87.79,87.79c20.04,0,37.947-6.529,53.139-17.907
	C138.214,221.673,123.022,191.289,123.022,157.737z"/>
<g>
	<path style="fill:#56ACE0;" d="M232.469,69.883c-20.04,0-37.947,6.529-53.139,17.907c23.855,20.04,39.564,50.424,39.564,83.976
		c0,24.954-8.663,47.709-22.238,66.133c10.861,4.848,23.273,7.564,35.749,7.564c48.226,0,87.79-39.564,87.79-87.79
		S281.277,69.883,232.469,69.883z"/>
	<path style="fill:#56ACE0;" d="M197.236,171.83c0,20.622-7.046,39.564-19.523,54.756c-20.558-16.291-33.616-41.18-33.616-68.848
		c0-20.622,7.046-39.564,19.523-54.756C184.242,118.691,197.236,143.644,197.236,171.83z"/>
</g>
<path style="fill:#194F82;" d="M379.345,0h-55.273c-5.947,0-10.861,4.848-10.861,10.861s4.848,10.861,10.861,10.861h28.768
	L301.899,73.18c-18.941-15.709-42.796-24.954-69.366-24.954c-27.669,0-52.558,10.279-71.564,27.087
	c-15.192-8.145-32.517-12.994-51.459-12.994C49.325,62.319,0,111.127,0,171.83c0,56.889,43.378,103.499,98.651,108.929v48.226
	H74.796c-5.947,0-10.861,4.848-10.861,10.861s4.848,10.861,10.861,10.861h23.855v28.638c0,5.947,4.848,10.861,10.861,10.861
	c5.947,0,10.861-4.848,10.861-10.861v-28.703h23.855c5.947,0,10.861-4.848,10.861-10.861s-4.848-10.861-10.861-10.861h-23.855
	v-48.226c23.273-2.198,43.895-11.895,60.703-26.57c15.192,8.145,32.517,12.994,51.459,12.994
	c60.186,0,109.446-49.325,109.446-109.446c0-26.57-9.244-50.424-24.954-69.366l51.459-51.459v28.703
	c0,5.947,4.848,10.861,10.861,10.861c5.947,0,10.861-4.848,10.861-10.861V10.861C390.206,4.848,385.358,0,379.345,0z
	 M232.469,245.527c-12.994,0-24.954-2.715-35.749-7.564c14.093-18.424,22.238-41.18,22.238-66.133
	c0-33.616-15.192-63.935-39.564-83.976c14.61-11.378,33.034-17.907,53.139-17.907c48.226,0,87.79,39.564,87.79,87.79
	S281.277,245.527,232.469,245.527z M21.657,171.83c0-48.226,39.564-87.79,87.79-87.79c12.994,0,24.954,2.715,35.75,7.564
	c-14.093,18.424-22.238,41.18-22.238,66.133c0,33.616,15.192,63.935,39.564,83.976c-14.61,11.378-33.034,17.907-53.139,17.907
	C61.22,259.62,21.657,220.057,21.657,171.83z M197.301,171.83c0,20.622-7.046,39.564-19.523,54.756
	c-20.622-16.291-33.616-41.18-33.616-68.848c0-20.622,7.046-39.564,19.523-54.756C184.242,118.691,197.301,143.644,197.301,171.83z"
	/>
</svg>