<?xml version="1.0" encoding="iso-8859-1"?>
<!-- Uploaded to: SVG Repo, www.svgrepo.com, Generator: SVG Repo Mixer Tools -->
<svg height="800px" width="800px" version="1.1" id="Layer_1" xmlns="http://www.w3.org/2000/svg" xmlns:xlink="http://www.w3.org/1999/xlink" 
	 viewBox="0 0 512 512" xml:space="preserve">
<path style="fill:#40CACF;" d="M68.267,324.267C68.267,220.585,152.318,0,256,0s187.733,220.585,187.733,324.267
	S359.682,512,256,512S68.267,427.949,68.267,324.267z"/>
<path style="fill:#3AB0B0;" d="M307.2,469.333c-103.682,0-187.733-84.051-187.733-187.733c0-72.27,40.838-201.334,100.695-272.907
	C133.622,50.519,68.267,232.841,68.267,324.267C68.267,427.949,152.318,512,256,512c57.736,0,109.375-26.071,143.812-67.073
	C372.483,460.457,340.88,469.333,307.2,469.333z"/>
<path style="fill:#AB5DA9;" d="M443.733,307.2H68.267c-4.713,0-8.533-3.821-8.533-8.533v-51.2c0-4.713,3.821-8.533,8.533-8.533
	h375.467c4.713,0,8.533,3.821,8.533,8.533v51.2C452.267,303.379,448.446,307.2,443.733,307.2z"/>
<g>
	<path style="fill:#C971C2;" d="M290.133,247.467l96.66-34.522c11.115-3.969,22.806,4.27,22.806,16.073v103.5
		c0,12.253-12.528,20.513-23.79,15.686L290.133,307.2V247.467z"/>
	<path style="fill:#C971C2;" d="M221.867,247.467l-96.66-34.522c-11.115-3.969-22.806,4.271-22.806,16.073v103.5
		c0,12.253,12.528,20.513,23.79,15.686l95.677-41.004V247.467z"/>
</g>
<g>
	<path style="fill:#AB5DA9;" d="M334.474,281.765l-22.161-4.432l22.161-4.432c4.621-0.925,7.618-5.42,6.693-10.042
		c-0.924-4.622-5.419-7.619-10.042-6.694l-42.667,8.533c-4.621,0.925-7.618,5.42-6.693,10.042c0.188,0.94,0.529,1.808,0.983,2.594
		c-0.453,0.786-0.795,1.653-0.983,2.592c-0.924,4.622,2.073,9.117,6.693,10.042l42.667,8.533c0.565,0.113,1.129,0.167,1.683,0.167
		c3.984,0,7.547-2.805,8.358-6.862C342.092,287.185,339.094,282.69,334.474,281.765z"/>
	<path style="fill:#AB5DA9;" d="M229.251,277.334c0.454-0.786,0.796-1.654,0.983-2.594c0.924-4.622-2.073-9.117-6.693-10.042
		l-42.667-8.533c-4.622-0.922-9.117,2.073-10.042,6.694c-0.924,4.622,2.073,9.117,6.693,10.042l22.161,4.432l-22.161,4.432
		c-4.621,0.925-7.618,5.42-6.693,10.042c0.812,4.057,4.374,6.862,8.358,6.862c0.556,0,1.118-0.054,1.683-0.167l42.667-8.533
		c4.621-0.925,7.618-5.42,6.693-10.042C230.046,278.988,229.705,278.119,229.251,277.334z"/>
</g>
<path style="fill:#C971C2;" d="M281.6,324.267h-51.2c-9.426,0-17.067-7.641-17.067-17.067v-59.733
	c0-9.426,7.641-17.067,17.067-17.067h51.2c9.426,0,17.067,7.641,17.067,17.067V307.2C298.667,316.626,291.026,324.267,281.6,324.267
	z"/>
<path style="fill:#AB5DA9;" d="M213.333,290.667V307.2c0,9.426,7.642,17.067,17.067,17.067h51.2c9.425,0,17.067-7.641,17.067-17.067
	v-16.533H213.333z"/>
<g>
	<circle style="fill:#FFF2BA;" cx="273.067" cy="392.533" r="42.667"/>
	<path style="fill:#FFF2BA;" d="M416.138,422.282c-5.474-17.248-21.611-29.748-40.671-29.748c-23.564,0-42.667,19.103-42.667,42.667
		c0,20.16,13.987,37.043,32.783,41.503C385.829,462.123,403.054,443.611,416.138,422.282z"/>
	<circle style="fill:#FFF2BA;" cx="349.867" cy="179.2" r="42.667"/>
	<circle style="fill:#FFF2BA;" cx="281.6" cy="85.333" r="42.667"/>
	<circle style="fill:#FFF2BA;" cx="187.733" cy="170.667" r="42.667"/>
</g>
<g>
	<path style="fill:#F5E038;" d="M204.8,51.2c0-10.027-3.468-19.238-9.257-26.522c-19.393,15.84-37.36,38.279-53.318,64.258
		c5.945,3.142,12.716,4.93,19.908,4.93C185.697,93.867,204.8,74.764,204.8,51.2z"/>
	<path style="fill:#F5E038;" d="M204.8,460.8c0-23.564-19.103-42.667-42.667-42.667c-21.158,0-38.709,15.405-42.075,35.607
		c17.824,18.708,39.473,33.735,63.689,43.842C196.342,490.165,204.8,476.474,204.8,460.8z"/>
	<path style="fill:#F5E038;" d="M110.933,366.933c0-23.564-19.103-42.667-42.667-42.667c0,29.073,6.611,56.601,18.409,81.167
		C101.023,398.56,110.933,383.905,110.933,366.933z"/>
</g>
</svg>