<?xml version="1.0" encoding="iso-8859-1"?>
<!-- Uploaded to: SVG Repo, www.svgrepo.com, Generator: SVG Repo Mixer Tools -->
<svg height="800px" width="800px" version="1.1" id="Layer_1" xmlns="http://www.w3.org/2000/svg" xmlns:xlink="http://www.w3.org/1999/xlink" 
	 viewBox="0 0 512 512" xml:space="preserve">
<path style="fill:#FE834D;" d="M223.849,404.26l21.031-11.749l11.011,22.022c-4.514,10.207-12.332,18.509-22.418,23.739
	c-7.135,3.7-14.887,5.56-22.682,5.56c-5.054,0-10.13-0.782-15.085-2.367l-69.214-22.187c-24.224-7.763-38.439-32.581-33.583-56.992
	l22.022-11.011l10.064,21.295c0.264,6.805,4.735,13.059,11.583,15.25l69.214,22.187c4.151,1.332,8.588,0.947,12.497-1.068
	C220.512,407.783,222.395,406.187,223.849,404.26z"/>
<g>
	<path style="fill:#FE5F1A;" d="M270.776,368.596l-12.894,40.685c-0.562,1.806-1.233,3.556-1.993,5.252l-32.041-10.273
		c1.112-1.464,1.96-3.116,2.532-4.911l12.894-40.674L270.776,368.596z"/>
	<path style="fill:#FE5F1A;" d="M138.647,326.249l-12.894,40.685c-0.595,1.872-0.826,3.777-0.76,5.637l-32.085-10.284
		c0.341-1.762,0.793-3.534,1.343-5.285l12.894-40.685L138.647,326.249z"/>
</g>
<polygon style="fill:#FE834D;" points="487.226,58.016 487.226,453.984 437.677,438.107 393.634,256 437.677,73.893 "/>
<polygon style="fill:#FEA680;" points="437.677,73.893 437.677,438.107 327.57,402.806 283.527,256 327.57,109.194 "/>
<path style="fill:#FE5F1A;" d="M487.226,35.785c-9.117,0-16.516,7.399-16.516,16.516v407.398c0,9.117,7.399,16.516,16.516,16.516
	c9.117,0,16.516-7.399,16.516-16.516V52.301C503.742,43.184,496.343,35.785,487.226,35.785z"/>
<polygon style="fill:#EEEEEE;" points="327.57,109.194 327.57,402.806 184.43,356.936 140.387,256 184.43,155.064 "/>
<polygon style="fill:#FEA680;" points="184.43,155.064 184.43,356.936 41.29,311.054 25.875,256 41.29,200.946 "/>
<path style="fill:#FE5F1A;" d="M24.774,184.43c-9.117,0-16.516,7.399-16.516,16.516v110.108c0,9.117,7.399,16.516,16.516,16.516
	s16.516-7.399,16.516-16.516V200.946C41.29,191.829,33.891,184.43,24.774,184.43z"/>
<path d="M487.226,27.527c-13.661,0-24.774,11.114-24.774,24.774v4.986l-415.273,133.1c-3.972-8.393-12.519-14.215-22.405-14.215
	C11.113,176.172,0,187.286,0,200.946v110.108c0,13.66,11.113,24.774,24.774,24.774c9.885,0,18.433-5.821,22.405-14.215
	l45.048,14.438l-5.852,18.467c-9.558,30.338,7.308,62.917,37.597,72.625l69.216,22.183c5.728,1.837,11.65,2.768,17.605,2.768
	c9.119,0,18.276-2.245,26.48-6.492c13.736-7.111,23.854-19.13,28.486-33.832l5.783-18.247l190.91,61.189v4.986
	c0,13.66,11.113,24.774,24.774,24.774c13.661,0,24.774-11.114,24.774-24.774V52.301C512,38.641,500.887,27.527,487.226,27.527z
	 M24.774,319.312c-4.554,0-8.258-3.704-8.258-8.258V200.946c0-4.554,3.704-8.258,8.258-8.258s8.258,3.704,8.258,8.258
	c0,0.05,0,0.075,0,0.1v109.908c0,0.025,0,0.051,0,0.076C33.032,315.608,29.328,319.312,24.774,319.312z M250.01,406.796
	c-3.305,10.491-10.526,19.064-20.331,24.141c-5.951,3.081-12.305,4.643-18.886,4.643c-4.24,0-8.466-0.665-12.563-1.98
	l-69.217-22.184c-21.66-6.942-33.72-30.239-26.889-51.919l5.832-18.402l15.729,5.041l-5.804,18.312
	c-4.111,13.051,3.144,27.064,16.174,31.242l69.217,22.183c2.458,0.788,4.98,1.179,7.494,1.179c3.888,0,7.754-0.936,11.321-2.782
	c5.873-3.04,10.196-8.167,12.167-14.424l5.831-18.403l15.729,5.042L250.01,406.796z M133.629,369.423l5.783-18.247l84.946,27.226
	l-5.852,18.467c-0.654,2.077-2.041,3.713-4.011,4.734c-1.971,1.02-4.107,1.208-6.181,0.542l-69.217-22.183
	C134.695,378.55,132.245,373.816,133.629,369.423z M495.484,459.699c0,4.554-3.704,8.258-8.258,8.258
	c-4.554,0-8.258-3.704-8.258-8.258v-10.911c0-0.025,0-0.051,0-0.076V162.409c0-4.562-3.697-8.258-8.258-8.258
	s-8.258,3.696-8.258,8.258v274.961L49.548,305.029v-98.056L462.452,74.631v54.745c0,4.562,3.697,8.258,8.258,8.258
	s8.258-3.696,8.258-8.258V63.288c0-0.025,0-0.051,0-0.076V52.301c0-4.554,3.704-8.258,8.258-8.258c4.554,0,8.258,3.704,8.258,8.258
	V459.699z"/>
<path d="M184.43,181.677c-4.561,0-8.258,3.696-8.258,8.258v132.309c0,4.562,3.697,8.258,8.258,8.258s8.258-3.696,8.258-8.258
	V189.935C192.688,185.374,188.991,181.677,184.43,181.677z"/>
<path d="M327.57,135.619c-4.561,0-8.258,3.696-8.258,8.258v224.245c0,4.562,3.697,8.258,8.258,8.258
	c4.561,0,8.258-3.696,8.258-8.258V143.878C335.828,139.316,332.131,135.619,327.57,135.619z"/>
</svg>