<?xml version="1.0" encoding="UTF-8" standalone="no"?>
<!-- Uploaded to: SVG Repo, www.svgrepo.com, Generator: SVG Repo Mixer Tools -->

<svg
   version="1.1"
   id="Layer_1"
   width="512"
   height="512"
   viewBox="0 0 128 128"
   xml:space="preserve"
   sodipodi:docname="image.svg"
   inkscape:version="1.4.4 (dcaf3e7d9e, 2026-05-05)"
   xmlns:inkscape="http://www.inkscape.org/namespaces/inkscape"
   xmlns:sodipodi="http://sodipodi.sourceforge.net/DTD/sodipodi-0.dtd"
   xmlns="http://www.w3.org/2000/svg"
   xmlns:svg="http://www.w3.org/2000/svg"><defs
   id="defs6">
	
	
	
	
	
	
	
	
	
	
</defs><sodipodi:namedview
   id="namedview6"
   pagecolor="#ffffff"
   bordercolor="#000000"
   borderopacity="0.25"
   inkscape:showpageshadow="2"
   inkscape:pageopacity="0.0"
   inkscape:pagecheckerboard="0"
   inkscape:deskcolor="#d1d1d1"
   inkscape:zoom="1.6191406"
   inkscape:cx="256.30881"
   inkscape:cy="256"
   inkscape:window-width="1582"
   inkscape:window-height="1036"
   inkscape:window-x="36"
   inkscape:window-y="32"
   inkscape:window-maximized="0"
   inkscape:current-layer="Layer_1" />

<path
   style="fill:#999999;stroke-width:1.3059"
   d="m 120.51387,23.956145 c 0,1.394141 -1.21101,2.534802 -2.69113,2.534802 H 10.177264 c -1.4801256,0 -2.6911372,-1.140661 -2.6911372,-2.534802 v -5.069604 c 0,-1.394142 1.2110116,-2.534803 2.6911372,-2.534803 H 117.82274 c 1.48012,0 2.69113,1.140661 2.69113,2.534803 z"
   id="path1" /><g
   id="g3"
   transform="matrix(1.3455684,0,0,1.2674011,-22.116378,-15.333289)"
   style="fill:#999999">
		<path
   style="fill:#999999"
   d="m 98.09,103.07 c 0.389,0.39 0.389,1.025 0,1.414 l -1.414,1.414 c -0.389,0.39 -1.025,0.39 -1.414,0 L 78.291,88.928 c -0.389,-0.389 -0.389,-1.025 0,-1.414 L 79.705,86.1 c 0.389,-0.389 1.025,-0.389 1.414,0 z"
   id="path2" />
		<path
   style="fill:#999999"
   d="m 29.91,103.07 c -0.389,0.39 -0.389,1.025 0,1.414 l 1.414,1.414 c 0.389,0.39 1.025,0.39 1.415,0 l 16.97,-16.971 c 0.389,-0.389 0.389,-1.025 0,-1.414 L 48.295,86.1 c -0.389,-0.389 -1.025,-0.389 -1.414,0 z"
   id="path3" />
	</g><rect
   x="14.213969"
   y="26.490948"
   style="fill:#e6e6e6;stroke-width:1.3059"
   width="99.57206"
   height="70.974464"
   id="rect3" /><rect
   x="14.213969"
   y="26.490948"
   style="fill:#cccccc;stroke-width:1.3059"
   width="99.57206"
   height="1.2674011"
   id="rect4" /><path
   style="fill:#999999;stroke-width:1.3059"
   d="m 61.308863,16.351738 v -6.337005 c 0,-0.6970706 0.605506,-1.2674011 1.345568,-1.2674011 h 2.691137 c 0.740063,0 1.345568,0.5703305 1.345568,1.2674011 v 6.337005 z"
   id="path4" /><path
   style="fill:#999999;stroke-width:1.3059"
   d="m 61.308863,97.465409 v 16.476211 c 0,0.69707 0.605506,1.2674 1.345568,1.2674 h 2.691137 c 0.740063,0 1.345568,-0.57033 1.345568,-1.2674 V 97.465409 Z"
   id="path5" /><rect
   x="61.308865"
   y="15.084337"
   style="fill:#233540;stroke-width:1.3059"
   width="5.3822737"
   height="1.2674011"
   id="rect5" /><g
   id="g10"
   transform="matrix(0.06599689,0,0,0.06108167,20.779095,45.800861)"><circle
     style="fill:#fddf6d"
     cx="243.172"
     cy="273.26001"
     r="229.409"
     id="circle1-6" /><path
     style="fill:#fcc56b"
     d="M 292.329,468.801 C 165.63,468.801 62.921,366.092 62.921,239.393 62.921,171.703 92.244,110.868 138.874,68.878 64.604,106.852 13.76,184.117 13.76,273.259 c 0,126.699 102.709,229.408 229.408,229.408 59.009,0 112.807,-22.286 153.455,-58.892 -31.29,15.999 -66.737,25.026 -104.294,25.026 z"
     id="path1-7" /><g
     id="g3-5">
	<path
   style="fill:#ffff00"
   d="m 166.174,18.24 27.935,56.601 c 2.327,4.716 6.827,7.985 12.03,8.74 l 62.463,9.076 c 13.106,1.904 18.338,18.01 8.855,27.254 l -45.199,44.058 c -3.765,3.671 -5.484,8.959 -4.595,14.142 l 10.67,62.21 c 2.239,13.052 -11.462,23.006 -23.184,16.844 L 159.28,227.793 c -4.655,-2.448 -10.216,-2.448 -14.87,0 l -55.869,29.372 c -11.722,6.162 -25.422,-3.792 -23.184,-16.844 l 10.67,-62.21 c 0.888,-5.183 -0.83,-10.473 -4.595,-14.142 L 26.233,119.911 C 16.75,110.667 21.982,94.562 35.088,92.657 l 62.463,-9.076 c 5.204,-0.757 9.703,-4.024 12.03,-8.74 L 137.516,18.24 c 5.862,-11.876 22.797,-11.876 28.658,0 z"
   id="path2-3" />
	<path
   style="fill:#ffff00"
   d="m 422.946,93.963 18.112,36.697 c 1.509,3.057 4.426,5.177 7.8,5.667 l 40.498,5.885 c 8.496,1.234 11.89,11.677 5.741,17.67 l -29.305,28.564 c -2.441,2.38 -3.555,5.809 -2.979,9.17 l 6.917,40.333 c 1.451,8.463 -7.431,14.916 -15.031,10.92 l -36.222,-19.044 c -3.018,-1.587 -6.624,-1.587 -9.641,0 l -36.222,19.044 c -7.599,3.996 -16.483,-2.458 -15.031,-10.92 l 6.917,-40.333 c 0.576,-3.361 -0.538,-6.789 -2.979,-9.17 l -29.305,-28.564 c -6.148,-5.993 -2.755,-16.435 5.741,-17.67 l 40.498,-5.885 c 3.375,-0.49 6.291,-2.609 7.8,-5.667 l 18.112,-36.697 c 3.8,-7.701 14.78,-7.701 18.579,0 z"
   id="path3-5" />
</g><g
     id="g5">
	<path
   style="fill:#fc4c59"
   d="m 157.705,86.771 11.423,23.146 c 0.952,1.929 2.791,3.265 4.92,3.574 l 25.543,3.712 c 5.359,0.779 7.5,7.364 3.621,11.144 l -18.484,18.017 c -1.541,1.501 -2.242,3.663 -1.879,5.784 l 4.363,25.44 c 0.916,5.337 -4.687,9.407 -9.481,6.888 l -22.846,-12.011 c -1.904,-1 -4.177,-1 -6.081,0 l -22.846,12.011 c -4.793,2.52 -10.395,-1.55 -9.481,-6.888 l 4.363,-25.44 c 0.363,-2.119 -0.34,-4.282 -1.879,-5.784 l -18.484,-18.017 c -3.877,-3.78 -1.738,-10.365 3.621,-11.144 l 25.543,-3.712 c 2.128,-0.31 3.968,-1.646 4.92,-3.574 l 11.423,-23.146 c 2.399,-4.855 9.324,-4.855 11.721,0 z"
   id="path4-6" />
	<path
   style="fill:#fc4c59"
   d="m 416.666,144.781 5.867,11.889 c 0.489,0.991 1.434,1.677 2.527,1.835 l 13.119,1.906 c 2.753,0.399 3.851,3.783 1.86,5.724 l -9.493,9.256 c -0.791,0.771 -1.152,1.881 -0.966,2.97 l 2.241,13.067 c 0.47,2.741 -2.408,4.832 -4.869,3.538 l -11.734,-6.17 c -0.978,-0.514 -2.145,-0.514 -3.123,0 l -11.734,6.17 c -2.463,1.294 -5.34,-0.796 -4.869,-3.538 l 2.241,-13.067 c 0.187,-1.089 -0.174,-2.2 -0.966,-2.97 l -9.493,-9.254 c -1.992,-1.941 -0.892,-5.325 1.86,-5.724 l 13.119,-1.906 c 1.093,-0.159 2.038,-0.845 2.527,-1.835 l 5.867,-11.889 c 1.232,-2.496 4.788,-2.496 6.019,-0.002 z"
   id="path5-2" />
</g><path
     style="fill:#7f184c"
     d="m 289.948,424.751 v 0 c -51.285,0 -92.86,-41.575 -92.86,-92.86 v 0 h 185.72 v 0 c 0,51.285 -41.573,92.86 -92.86,92.86 z"
     id="path6" /><path
     style="fill:#f2f2f2"
     d="m 219.746,331.891 v 14.495 c 0,6.112 4.955,11.066 11.066,11.066 h 118.272 c 6.112,0 11.066,-4.955 11.066,-11.066 v -14.495 z"
     id="path7" /><path
     style="fill:#fc4c59"
     d="m 291.898,386.227 c -25.101,-11.662 -52.956,-9.967 -75.544,2.128 16.973,22.122 43.664,36.397 73.702,36.397 v 0 c 13.237,0 25.817,-2.789 37.212,-7.78 -8.36,-12.936 -20.347,-23.766 -35.37,-30.745 z"
     id="path8" /><path
     d="m 501.611,166.563 c 5.407,-5.27 7.317,-13.005 4.984,-20.186 -2.334,-7.181 -8.426,-12.317 -15.898,-13.403 L 450.2,127.09 c -0.335,-0.049 -0.623,-0.259 -0.773,-0.562 L 431.316,89.83 c -3.342,-6.771 -10.108,-10.976 -17.657,-10.976 -7.551,0 -14.318,4.206 -17.659,10.976 l -0.004,0.006 c -21.01,-17.548 -44.618,-31.213 -70.343,-40.684 -4.838,-1.783 -10.201,0.697 -11.982,5.534 -1.782,4.837 0.697,10.201 5.534,11.982 25.12,9.248 48.05,22.845 68.268,40.438 l -9.584,19.419 c -0.149,0.304 -0.439,0.514 -0.773,0.562 l -40.498,5.885 c -7.472,1.086 -13.563,6.222 -15.897,13.402 -2.333,7.181 -0.423,14.916 4.984,20.186 l 29.305,28.565 c 0.241,0.235 0.352,0.576 0.296,0.908 l -6.919,40.333 c -1.277,7.441 1.725,14.822 7.832,19.26 3.452,2.509 7.491,3.783 11.558,3.783 3.13,0 6.275,-0.754 9.182,-2.282 l 36.222,-19.044 c 0.299,-0.158 0.655,-0.157 0.954,0 l 36.222,19.044 c 3.915,2.058 8.261,2.703 12.42,2 0.299,4.7 0.467,9.412 0.467,14.13 0,121.351 -98.726,220.075 -220.075,220.075 -121.349,0 -220.076,-98.722 -220.076,-220.073 0,-40.087 10.752,-78.912 31.182,-112.982 l 10.643,10.375 c 1.567,1.527 2.281,3.727 1.911,5.882 l -10.67,62.21 c -1.64,9.567 2.217,19.052 10.069,24.756 4.436,3.224 9.626,4.862 14.853,4.862 4.023,0 8.066,-0.971 11.803,-2.934 l 55.869,-29.372 c 1.936,-1.017 4.248,-1.018 6.184,0 l 55.869,29.372 c 8.59,4.516 18.806,3.778 26.655,-1.926 7.852,-5.704 11.709,-15.191 10.069,-24.756 l -10.67,-62.21 c -0.37,-2.156 0.345,-4.355 1.911,-5.883 l 45.2,-44.058 c 6.948,-6.774 9.404,-16.715 6.403,-25.945 -2.998,-9.229 -10.827,-15.832 -20.432,-17.227 l -62.464,-9.076 c -2.164,-0.314 -4.034,-1.674 -5.004,-3.635 l -6.168,-12.498 c 15.324,-3.32 31.037,-5.028 46.859,-5.028 5.154,0 9.333,-4.179 9.333,-9.333 0,-5.154 -4.179,-9.333 -9.333,-9.333 -18.719,0 -37.306,2.184 -55.36,6.469 L 174.539,14.11 C 170.248,5.407 161.55,0 151.845,0 142.14,0 133.443,5.407 129.148,14.109 l -27.935,56.602 c -0.968,1.962 -2.838,3.32 -5.004,3.635 l -62.463,9.078 c -9.604,1.396 -17.433,7.996 -20.432,17.227 -2.999,9.229 -0.545,19.172 6.405,25.946 l 20.85,20.324 C 16.904,184.781 4.427,228.292 4.427,273.259 4.427,404.902 111.525,512 243.168,512 c 131.643,0 238.741,-107.098 238.741,-238.741 0,-16.566 -1.721,-33.106 -5.091,-49.189 l -4.807,-28.033 c -0.057,-0.333 0.054,-0.674 0.295,-0.91 z M 31.066,106.417 c 0.383,-1.182 1.675,-3.987 5.364,-4.523 l 62.463,-9.076 c 8.246,-1.197 15.372,-6.374 19.057,-13.846 l 27.935,-56.601 c 1.65,-3.344 4.717,-3.704 5.959,-3.704 1.243,0 4.309,0.361 5.959,3.704 l 27.935,56.601 c 3.688,7.472 10.812,12.649 19.057,13.846 l 62.463,9.076 c 3.691,0.536 4.981,3.342 5.366,4.523 0.385,1.181 0.988,4.21 -1.682,6.812 l -45.199,44.058 c -5.965,5.816 -8.687,14.191 -7.279,22.403 l 10.67,62.21 c 0.631,3.675 -1.639,5.77 -2.644,6.499 -1.004,0.729 -3.698,2.24 -6.998,0.505 l -55.869,-29.372 c -3.688,-1.94 -7.732,-2.908 -11.778,-2.908 -4.044,0 -8.091,0.969 -11.778,2.908 l -55.869,29.372 c -3.299,1.735 -5.993,0.224 -6.998,-0.506 -1.005,-0.729 -3.274,-2.825 -2.644,-6.499 l 10.67,-62.212 C 86.635,171.474 83.913,163.1 77.947,157.284 L 32.748,113.229 c -2.67,-2.603 -2.066,-5.631 -1.682,-6.812 z m 428.212,75.345 c -4.64,4.524 -6.759,11.04 -5.663,17.43 l 4.542,26.482 c 0.035,0.352 0.085,0.706 0.161,1.059 0.051,0.236 0.093,0.474 0.143,0.711 l 2.072,12.081 c 0.034,0.204 0.107,0.628 -0.408,1.003 -0.514,0.375 -0.9,0.174 -1.081,0.078 l -36.222,-19.042 c -2.869,-1.508 -6.015,-2.262 -9.163,-2.262 -3.146,0 -6.294,0.754 -9.162,2.262 l -36.222,19.044 c -0.183,0.097 -0.567,0.296 -1.081,-0.078 -0.515,-0.375 -0.442,-0.8 -0.408,-1.004 l 6.92,-40.336 c 1.095,-6.389 -1.023,-12.904 -5.664,-17.428 l -29.305,-28.565 c -0.149,-0.144 -0.458,-0.445 -0.26,-1.053 0.197,-0.607 0.623,-0.669 0.827,-0.699 l 40.498,-5.885 c 6.415,-0.932 11.957,-4.959 14.828,-10.772 l 12.712,-25.758 c 0.035,-0.07 0.071,-0.139 0.103,-0.209 l 5.295,-10.729 c 0.091,-0.185 0.282,-0.572 0.921,-0.572 0.638,0 0.829,0.387 0.92,0.572 l 18.112,36.697 c 2.871,5.812 8.412,9.839 14.827,10.771 l 40.498,5.885 c 0.205,0.03 0.632,0.092 0.829,0.699 0.197,0.607 -0.112,0.907 -0.26,1.053 z"
     id="path9" /><path
     d="m 187.756,331.891 c 0,56.349 45.843,102.193 102.193,102.193 56.35,0 102.193,-45.843 102.193,-102.193 0,-2.475 -0.983,-4.849 -2.733,-6.599 -1.751,-1.751 -4.124,-2.734 -6.6,-2.734 H 197.087 c -5.153,0 -9.331,4.179 -9.331,9.333 z m 185.202,9.332 c -4.654,41.681 -40.106,74.195 -83.01,74.195 -42.904,0 -78.356,-32.514 -83.01,-74.195 z"
     id="path10" /><circle
     cx="288.13"
     cy="48.580002"
     r="9.3330002"
     id="circle10" /></g><ellipse
   style="fill:#ffb380;stroke-width:0.0634917"
   cx="88.814629"
   cy="63.054565"
   id="circle1-6-2"
   rx="15.140281"
   ry="14.012685" /><path
   style="fill:#ff6600;stroke-width:0.0634917"
   d="m 92.05884,74.998537 c -8.36174,0 -15.140215,-6.273637 -15.140215,-14.012624 0,-4.134618 1.935227,-7.850521 5.012662,-10.415341 -4.901589,2.319516 -8.257135,7.038991 -8.257135,12.483933 0,7.738987 6.778475,14.012624 15.140215,14.012624 3.89441,0 7.444911,-1.361266 10.127553,-3.597222 -2.065043,0.977246 -4.404435,1.52863 -6.88308,1.52863 z"
   id="path1-7-2" /><g
   id="g3-5-8"
   transform="matrix(0.06599689,0,0,0.06108167,72.766035,46.363389)">
	<path
   style="fill:#ffff00"
   d="m 166.174,18.24 27.935,56.601 c 2.327,4.716 6.827,7.985 12.03,8.74 l 62.463,9.076 c 13.106,1.904 18.338,18.01 8.855,27.254 l -45.199,44.058 c -3.765,3.671 -5.484,8.959 -4.595,14.142 l 10.67,62.21 c 2.239,13.052 -11.462,23.006 -23.184,16.844 L 159.28,227.793 c -4.655,-2.448 -10.216,-2.448 -14.87,0 l -55.869,29.372 c -11.722,6.162 -25.422,-3.792 -23.184,-16.844 l 10.67,-62.21 c 0.888,-5.183 -0.83,-10.473 -4.595,-14.142 L 26.233,119.911 C 16.75,110.667 21.982,94.562 35.088,92.657 l 62.463,-9.076 c 5.204,-0.757 9.703,-4.024 12.03,-8.74 L 137.516,18.24 c 5.862,-11.876 22.797,-11.876 28.658,0 z"
   id="path2-3-9" />
	<path
   style="fill:#ffff00"
   d="m 422.946,93.963 18.112,36.697 c 1.509,3.057 4.426,5.177 7.8,5.667 l 40.498,5.885 c 8.496,1.234 11.89,11.677 5.741,17.67 l -29.305,28.564 c -2.441,2.38 -3.555,5.809 -2.979,9.17 l 6.917,40.333 c 1.451,8.463 -7.431,14.916 -15.031,10.92 l -36.222,-19.044 c -3.018,-1.587 -6.624,-1.587 -9.641,0 l -36.222,19.044 c -7.599,3.996 -16.483,-2.458 -15.031,-10.92 l 6.917,-40.333 c 0.576,-3.361 -0.538,-6.789 -2.979,-9.17 l -29.305,-28.564 c -6.148,-5.993 -2.755,-16.435 5.741,-17.67 l 40.498,-5.885 c 3.375,-0.49 6.291,-2.609 7.8,-5.667 l 18.112,-36.697 c 3.8,-7.701 14.78,-7.701 18.579,0 z"
   id="path3-5-7" />
</g><g
   id="g5-3"
   transform="matrix(0.06599689,0,0,0.06108167,72.766035,46.363389)">
	<path
   style="fill:#fc4c59"
   d="m 157.705,86.771 11.423,23.146 c 0.952,1.929 2.791,3.265 4.92,3.574 l 25.543,3.712 c 5.359,0.779 7.5,7.364 3.621,11.144 l -18.484,18.017 c -1.541,1.501 -2.242,3.663 -1.879,5.784 l 4.363,25.44 c 0.916,5.337 -4.687,9.407 -9.481,6.888 l -22.846,-12.011 c -1.904,-1 -4.177,-1 -6.081,0 l -22.846,12.011 c -4.793,2.52 -10.395,-1.55 -9.481,-6.888 l 4.363,-25.44 c 0.363,-2.119 -0.34,-4.282 -1.879,-5.784 l -18.484,-18.017 c -3.877,-3.78 -1.738,-10.365 3.621,-11.144 l 25.543,-3.712 c 2.128,-0.31 3.968,-1.646 4.92,-3.574 l 11.423,-23.146 c 2.399,-4.855 9.324,-4.855 11.721,0 z"
   id="path4-6-6" />
	<path
   style="fill:#fc4c59"
   d="m 416.666,144.781 5.867,11.889 c 0.489,0.991 1.434,1.677 2.527,1.835 l 13.119,1.906 c 2.753,0.399 3.851,3.783 1.86,5.724 l -9.493,9.256 c -0.791,0.771 -1.152,1.881 -0.966,2.97 l 2.241,13.067 c 0.47,2.741 -2.408,4.832 -4.869,3.538 l -11.734,-6.17 c -0.978,-0.514 -2.145,-0.514 -3.123,0 l -11.734,6.17 c -2.463,1.294 -5.34,-0.796 -4.869,-3.538 l 2.241,-13.067 c 0.187,-1.089 -0.174,-2.2 -0.966,-2.97 l -9.493,-9.254 c -1.992,-1.941 -0.892,-5.325 1.86,-5.724 l 13.119,-1.906 c 1.093,-0.159 2.038,-0.845 2.527,-1.835 l 5.867,-11.889 c 1.232,-2.496 4.788,-2.496 6.019,-0.002 z"
   id="path5-2-1" />
</g><path
   style="fill:#7f184c;stroke-width:0.0634917"
   d="m 91.901701,72.307889 v 0 c -3.38465,0 -6.128471,-2.53947 -6.128471,-5.672043 v 0 h 12.256942 v 0 c 0,3.132573 -2.743688,5.672043 -6.128471,5.672043 z"
   id="path6-2" /><path
   style="fill:#f2f2f2;stroke-width:0.0634917"
   d="m 87.268588,66.635846 v 0.885378 c 0,0.373332 0.327014,0.67593 0.730321,0.67593 h 7.805584 c 0.403373,0 0.730322,-0.30266 0.730322,-0.67593 v -0.885378 z"
   id="path7-9" /><path
   style="fill:#fc4c59;stroke-width:0.0634917"
   d="m 92.030395,69.954779 c -1.656588,-0.712334 -3.494931,-0.608801 -4.985669,0.129982 1.120165,1.351249 2.881688,2.223189 4.864103,2.223189 v 0 c 0.873601,0 1.703842,-0.170356 2.455876,-0.475215 -0.551734,-0.790152 -1.342839,-1.451667 -2.33431,-1.877956 z"
   id="path8-3" /><path
   d="m 105.8708,56.537335 c 0.35685,-0.3219 0.4829,-0.794367 0.32893,-1.232994 -0.15404,-0.438628 -0.55609,-0.752343 -1.04922,-0.818678 l -2.67268,-0.359405 c -0.0221,-0.003 -0.0411,-0.01582 -0.051,-0.03433 l -1.19527,-2.241576 c -0.22056,-0.413584 -0.6671,-0.670432 -1.16531,-0.670432 -0.49834,0 -0.944941,0.25691 -1.165437,0.670432 l -2.64e-4,3.67e-4 C 97.513945,50.778861 95.95589,49.94418 94.25812,49.365675 c -0.319293,-0.108908 -0.673234,0.04257 -0.790775,0.338026 -0.117606,0.295452 0.046,0.623094 0.365227,0.731881 1.657842,0.564883 3.171151,1.395411 4.505476,2.47002 l -0.632514,1.186145 c -0.0098,0.01857 -0.02897,0.0314 -0.05102,0.03433 l -2.672742,0.359466 c -0.493129,0.06634 -0.895116,0.38005 -1.049152,0.818616 -0.153971,0.438628 -0.02792,0.911095 0.328928,1.232995 l 1.934039,1.744798 c 0.01591,0.01435 0.02323,0.03518 0.01954,0.05546 l -0.456632,2.463607 c -0.08428,0.454509 0.113844,0.905353 0.516887,1.176433 0.227821,0.153254 0.494383,0.231072 0.762792,0.231072 0.20657,0 0.414131,-0.04606 0.605984,-0.139388 l 2.390542,-1.16324 c 0.0197,-0.0097 0.0432,-0.0096 0.063,0 l 2.39054,1.16324 c 0.25837,0.125706 0.5452,0.165103 0.81968,0.122163 0.0197,0.287084 0.0308,0.574901 0.0308,0.863084 0,7.412322 -6.51561,13.442548 -14.524266,13.442548 -8.008657,0 -14.524332,-6.030104 -14.524332,-13.442426 0,-2.448581 0.709599,-4.820077 2.057915,-6.901129 l 0.702405,0.633722 c 0.103417,0.09327 0.150539,0.227652 0.12612,0.359283 l -0.704187,3.79989 c -0.108235,0.584369 0.146315,1.163728 0.664523,1.512138 0.292762,0.196927 0.635286,0.296979 0.980252,0.296979 0.265505,0 0.532331,-0.05931 0.778961,-0.179213 l 3.68718,-1.794091 c 0.12777,-0.06212 0.280355,-0.06218 0.408125,0 l 3.68718,1.794091 c 0.566914,0.275844 1.241138,0.230766 1.759147,-0.117644 0.518208,-0.34841 0.772758,-0.927891 0.664523,-1.512138 l -0.704187,-3.79989 c -0.02442,-0.131692 0.02277,-0.266011 0.12612,-0.359344 l 2.98306,-2.691136 c 0.458546,-0.413767 0.620635,-1.02098 0.422578,-1.584764 -0.197859,-0.563723 -0.714548,-0.967045 -1.348449,-1.052254 l -4.12245,-0.554377 C 86.31612,50.885448 86.192706,50.802377 86.128689,50.682596 L 85.72162,49.919197 c 1.011337,-0.202791 2.048346,-0.307118 3.092549,-0.307118 0.340148,0 0.615949,-0.255261 0.615949,-0.570076 0,-0.314814 -0.275801,-0.570075 -0.615949,-0.570075 -1.235396,0 -2.46208,0.133403 -3.653588,0.395138 l -0.875515,-1.641815 c -0.283192,-0.531593 -0.857233,-0.861862 -1.497733,-0.861862 -0.6405,0 -1.214475,0.330269 -1.497932,0.861801 l -1.843623,3.457345 c -0.06388,0.119842 -0.187299,0.202791 -0.330248,0.222032 l -4.122364,0.554499 c -0.633834,0.08527 -1.150524,0.488409 -1.348448,1.052254 -0.197925,0.563723 -0.03597,1.171058 0.42271,1.584825 l 1.376035,1.241424 c -1.561817,2.312552 -2.38526,4.970277 -2.38526,7.716936 0,8.040974 7.068135,14.582699 15.756164,14.582699 8.688028,0 15.756163,-6.541725 15.756163,-14.582699 0,-1.011879 -0.11358,-2.02217 -0.33599,-3.004546 l -0.31725,-1.712303 c -0.004,-0.02034 0.004,-0.04117 0.0195,-0.05558 z M 74.816294,52.863517 c 0.02528,-0.0722 0.110545,-0.243533 0.354008,-0.276272 l 4.122363,-0.554378 c 0.544211,-0.07311 1.014505,-0.389334 1.257703,-0.845736 l 1.843623,-3.457284 c 0.108895,-0.204257 0.311308,-0.226246 0.393276,-0.226246 0.08203,0 0.28438,0.02205 0.393275,0.226246 l 1.843623,3.457284 c 0.243397,0.456402 0.713559,0.772622 1.257703,0.845736 l 4.122364,0.554378 c 0.243594,0.03274 0.32873,0.204135 0.354139,0.276272 0.02541,0.07214 0.06521,0.257154 -0.111007,0.416088 l -2.982993,2.691137 c -0.393672,0.355251 -0.573315,0.86681 -0.480391,1.368412 l 0.704186,3.799891 c 0.04164,0.224475 -0.108169,0.352441 -0.174495,0.39697 -0.06626,0.04453 -0.244057,0.136823 -0.461847,0.03085 l -3.68718,-1.794091 c -0.243396,-0.118498 -0.510288,-0.177625 -0.777311,-0.177625 -0.266892,0 -0.533981,0.05919 -0.777312,0.177625 l -3.68718,1.794091 c -0.217724,0.105977 -0.395519,0.01368 -0.461846,-0.03091 -0.06633,-0.04453 -0.216074,-0.172556 -0.174496,-0.39697 l 0.704187,-3.800013 c 0.09299,-0.501664 -0.08665,-1.013162 -0.480391,-1.368413 l -2.982994,-2.690953 c -0.176212,-0.158995 -0.136349,-0.34395 -0.111007,-0.416088 z m 28.260656,4.602199 c -0.30622,0.276333 -0.44607,0.674341 -0.37374,1.064653 l 0.29976,1.617565 c 0.002,0.0215 0.006,0.04312 0.0106,0.06468 0.003,0.01442 0.006,0.02895 0.009,0.04343 l 0.13674,0.737928 c 0.002,0.01246 0.007,0.03836 -0.0269,0.06126 -0.0339,0.02291 -0.0594,0.01063 -0.0713,0.0048 l -2.39054,-1.163117 c -0.18934,-0.09211 -0.39697,-0.138167 -0.60473,-0.138167 -0.207624,0 -0.415382,0.04606 -0.604661,0.138167 l -2.390539,1.163239 c -0.01208,0.0059 -0.03742,0.01808 -0.07134,-0.0048 -0.03399,-0.02291 -0.02917,-0.04886 -0.02693,-0.06133 l 0.456699,-2.46379 c 0.07227,-0.390251 -0.06752,-0.788198 -0.373807,-1.064531 l -1.934038,-1.744798 c -0.0098,-0.0088 -0.03023,-0.02718 -0.01716,-0.06432 0.013,-0.03708 0.04112,-0.04086 0.05458,-0.0427 l 2.672742,-0.359466 c 0.42337,-0.05693 0.789125,-0.302904 0.978602,-0.657972 l 0.838952,-1.573342 c 0.0023,-0.0043 0.0047,-0.0085 0.0068,-0.01277 l 0.34945,-0.655345 c 0.006,-0.0113 0.0186,-0.03494 0.0608,-0.03494 0.0421,0 0.0547,0.02364 0.0607,0.03494 l 1.19534,2.241514 c 0.18947,0.355007 0.55516,0.600983 0.97853,0.657911 l 2.67275,0.359466 c 0.0135,0.0018 0.0417,0.0056 0.0547,0.0427 0.013,0.03708 -0.007,0.0554 -0.0172,0.06432 z"
   id="path9-1"
   style="stroke-width:0.0634917" /><path
   d="m 85.157347,66.635846 c 0,3.441891 3.025496,6.242119 6.74442,6.242119 3.718925,0 6.74442,-2.800167 6.74442,-6.242119 0,-0.151178 -0.06488,-0.296185 -0.180369,-0.403078 -0.115561,-0.106954 -0.272171,-0.166998 -0.43558,-0.166998 H 85.773164 c -0.340082,0 -0.615817,0.255261 -0.615817,0.570076 z m 12.222756,0.570014 c -0.307149,2.545945 -2.646871,4.531954 -5.478402,4.531954 -2.83153,0 -5.171252,-1.986009 -5.478402,-4.531954 z"
   id="path10-9"
   style="stroke-width:0.0634917" /><ellipse
   cx="91.781723"
   cy="49.330738"
   id="circle10-4"
   rx="0.61594898"
   ry="0.57007521"
   style="stroke-width:0.0634917" /></svg>
