<?xml version="1.0" encoding="iso-8859-1"?>
<!-- Uploaded to: SVG Repo, www.svgrepo.com, Generator: SVG Repo Mixer Tools -->
<svg height="800px" width="800px" version="1.1" id="Layer_1" xmlns="http://www.w3.org/2000/svg" xmlns:xlink="http://www.w3.org/1999/xlink" 
	 viewBox="0 0 512 512" xml:space="preserve">
<path style="fill:#FFFFAE;" d="M482.358,503.916H29.642c-5.953,0-10.779-4.826-10.779-10.779V72.758
	c0-23.812,19.304-43.116,43.116-43.116h388.042c23.812,0,43.116,19.304,43.116,43.116v420.379
	C493.137,499.09,488.311,503.916,482.358,503.916z"/>
<path style="fill:#C5D57B;" d="M493.137,503.916H18.863v-53.895h474.274V503.916z"/>
<path style="fill:#C7FAFF;" d="M503.916,342.232c0,35.718-28.956,64.674-64.674,64.674s-64.674-28.956-64.674-64.674
	s28.956-64.674,64.674-64.674S503.916,306.513,503.916,342.232z"/>
<path style="fill:#FFED8F;" d="M396.126,191.326c0,47.625-38.607,86.232-86.232,86.232s-86.232-38.607-86.232-86.232
	s38.607-86.232,86.232-86.232S396.126,143.702,396.126,191.326z"/>
<path style="fill:#FFCD69;" d="M342.232,191.326c0,17.86-14.477,32.337-32.337,32.337c-17.86,0-32.337-14.477-32.337-32.337
	s14.477-32.337,32.337-32.337C327.754,158.989,342.232,173.467,342.232,191.326z M223.663,320.674
	c-17.86,0-32.337,14.477-32.337,32.337c0,17.86,14.477,32.337,32.337,32.337S256,370.87,256,353.01
	C256,335.151,241.523,320.674,223.663,320.674z M212.884,94.316c11.906,0,21.558-9.651,21.558-21.558S224.791,51.2,212.884,51.2
	s-21.558,9.651-21.558,21.558S200.978,94.316,212.884,94.316z"/>
<path style="fill:#EDACA9;" d="M8.084,115.874c0-11.906,9.651-21.558,21.558-21.558S51.2,103.967,51.2,115.874
	s-9.651,21.558-21.558,21.558S8.084,127.78,8.084,115.874z M110.484,83.537c20.836,0,37.726-16.891,37.726-37.726
	S131.32,8.084,110.484,8.084S72.758,24.975,72.758,45.811S89.648,83.537,110.484,83.537z M94.316,158.989
	c-47.625,0-86.232,38.607-86.232,86.232s38.607,86.232,86.232,86.232s86.232-38.607,86.232-86.232S141.94,158.989,94.316,158.989z"
	/>
<path style="fill:#DE9892;" d="M126.653,245.221c0,17.86-14.477,32.337-32.337,32.337s-32.337-14.477-32.337-32.337
	s14.477-32.337,32.337-32.337S126.653,227.361,126.653,245.221z"/>
<path d="M269.474,191.326c0,22.289,18.132,40.421,40.421,40.421c22.289,0,40.421-18.132,40.421-40.421s-18.132-40.421-40.421-40.421
	C287.606,150.905,269.474,169.038,269.474,191.326z M334.147,191.326c0,13.373-10.879,24.253-24.253,24.253
	c-13.373,0-24.253-10.879-24.253-24.253c0-13.373,10.879-24.253,24.253-24.253C323.268,167.074,334.147,177.953,334.147,191.326z
	 M215.579,191.326c0-52.006,42.31-94.316,94.316-94.316c28.774,0,55.611,12.889,73.627,35.366c2.793,3.484,2.232,8.571-1.251,11.364
	c-3.484,2.792-8.571,2.232-11.364-1.251c-14.931-18.627-37.169-29.31-61.011-29.31c-43.091,0-78.147,35.056-78.147,78.147
	c0,13.74,3.614,27.25,10.45,39.068c2.236,3.864,0.915,8.81-2.95,11.046c-1.275,0.737-2.667,1.088-4.041,1.088
	c-2.792,0-5.507-1.448-7.005-4.038C219.943,224.215,215.579,207.905,215.579,191.326z M258.695,9.162V8.084
	c0-4.465,3.62-8.084,8.084-8.084s8.084,3.62,8.084,8.084v1.078c0,4.465-3.62,8.084-8.084,8.084S258.695,13.627,258.695,9.162z
	 M490.442,249.533v1.078c0,4.465-3.62,8.084-8.084,8.084s-8.084-3.62-8.084-8.084v-1.078c0-4.465,3.62-8.084,8.084-8.084
	S490.442,245.068,490.442,249.533z M482.358,139.048c4.465,0,8.084,3.62,8.084,8.084v1.078c0,4.465-3.62,8.084-8.084,8.084
	s-8.084-3.62-8.084-8.084v-1.078C474.274,142.668,477.893,139.048,482.358,139.048z M463.495,9.162V8.084
	c0-4.465,3.62-8.084,8.084-8.084s8.084,3.62,8.084,8.084v1.078c0,4.465-3.62,8.084-8.084,8.084S463.495,13.627,463.495,9.162z
	 M441.937,84.615v-1.078c0-4.465,3.62-8.084,8.084-8.084s8.084,3.62,8.084,8.084v1.078c0,4.465-3.62,8.084-8.084,8.084
	S441.937,89.079,441.937,84.615z M212.884,102.4c16.345,0,29.642-13.297,29.642-29.642s-13.297-29.642-29.642-29.642
	s-29.642,13.297-29.642,29.642S196.539,102.4,212.884,102.4z M212.884,59.284c7.43,0,13.474,6.044,13.474,13.474
	c0,7.43-6.044,13.474-13.474,13.474s-13.474-6.044-13.474-13.474C199.411,65.328,205.454,59.284,212.884,59.284z M334.147,41.499
	v-1.078c0-4.465,3.62-8.084,8.084-8.084s8.084,3.62,8.084,8.084v1.078c0,4.465-3.62,8.084-8.084,8.084
	S334.147,45.964,334.147,41.499z M431.158,223.663v-1.078c0-4.465,3.62-8.084,8.084-8.084c4.465,0,8.084,3.62,8.084,8.084v1.078
	c0,4.465-3.62,8.084-8.084,8.084C434.777,231.747,431.158,228.128,431.158,223.663z M161.684,127.731v-1.078
	c0-4.465,3.62-8.084,8.084-8.084c4.465,0,8.084,3.62,8.084,8.084v1.078c0,4.465-3.62,8.084-8.084,8.084
	C165.304,135.815,161.684,132.195,161.684,127.731z M94.316,150.905c52.006,0,94.316,42.31,94.316,94.316
	c0,4.465-3.62,8.084-8.084,8.084c-4.465,0-8.084-3.62-8.084-8.084c0-43.091-35.056-78.147-78.147-78.147
	c-32.013,0-60.459,19.173-72.469,48.844c-1.675,4.139-6.388,6.136-10.527,4.46c-4.139-1.675-6.135-6.389-4.46-10.527
	C21.354,174.042,55.683,150.905,94.316,150.905z M440.589,375.107v1.078c0,4.465-3.62,8.084-8.084,8.084s-8.084-3.62-8.084-8.084
	v-1.078c0-4.465,3.62-8.084,8.084-8.084S440.589,370.643,440.589,375.107z M414.72,336.842c0,4.465-3.62,8.084-8.084,8.084
	s-8.084-3.62-8.084-8.084v-1.078c0-4.465,3.62-8.084,8.084-8.084s8.084,3.62,8.084,8.084V336.842z M414.72,362.173v1.078
	c0,4.465-3.62,8.084-8.084,8.084s-8.084-3.62-8.084-8.084v-1.078c0-4.465,3.62-8.084,8.084-8.084S414.72,357.708,414.72,362.173z
	 M440.589,346.004c0,4.465-3.62,8.084-8.084,8.084s-8.084-3.62-8.084-8.084v-1.078c0-4.465,3.62-8.084,8.084-8.084
	s8.084,3.62,8.084,8.084V346.004z M440.589,310.973c0,4.465-3.62,8.084-8.084,8.084s-8.084-3.62-8.084-8.084v-1.078
	c0-4.465,3.62-8.084,8.084-8.084s8.084,3.62,8.084,8.084V310.973z M64.674,45.811C64.674,20.55,85.224,0,110.484,0
	s45.811,20.55,45.811,45.811c0,12.412-4.883,24.033-13.749,32.722c-3.188,3.125-8.307,3.073-11.432-0.115
	c-3.125-3.188-3.074-8.307,0.115-11.432c5.738-5.623,8.897-13.143,8.897-21.174c0-16.345-13.297-29.642-29.642-29.642
	S80.842,29.465,80.842,45.811s13.297,29.642,29.642,29.642c4.465,0,8.084,3.62,8.084,8.084s-3.62,8.084-8.084,8.084
	C85.224,91.621,64.674,71.071,64.674,45.811z M53.895,245.221c0,22.289,18.132,40.421,40.421,40.421s40.421-18.132,40.421-40.421
	S116.604,204.8,94.316,204.8S53.895,222.932,53.895,245.221z M118.568,245.221c0,13.373-10.879,24.253-24.253,24.253
	s-24.253-10.879-24.253-24.253c0-13.373,10.879-24.253,24.253-24.253S118.568,231.848,118.568,245.221z M393.432,503.916
	c0,4.465-3.62,8.084-8.084,8.084H8.084C3.62,512,0,508.38,0,503.916s3.62-8.084,8.084-8.084h2.695v-67.368
	c0-4.465,3.62-8.084,8.084-8.084s8.084,3.62,8.084,8.084v67.368h59.284V339.194C37.996,335.08,0,294.505,0,245.221
	c0-4.465,3.62-8.084,8.084-8.084s8.084,3.62,8.084,8.084c0,43.091,35.056,78.147,78.147,78.147c32.013,0,60.459-19.173,72.47-48.844
	c1.676-4.139,6.392-6.133,10.527-4.46c4.139,1.675,6.135,6.389,4.46,10.527c-13.475,33.288-44.093,55.627-79.373,58.606v156.634
	h26.947v-45.811c0-4.465,3.62-8.084,8.084-8.084c4.465,0,8.084,3.62,8.084,8.084v45.811h70.063V392.62
	c-18.427-3.756-32.337-20.089-32.337-39.609c0-4.465,3.62-8.084,8.084-8.084c4.465,0,8.084,3.62,8.084,8.084
	c0,13.373,10.879,24.253,24.253,24.253s24.253-10.879,24.253-24.253c0-13.373-10.879-24.253-24.253-24.253
	c-6.089,0-11.91,2.266-16.392,6.378c-3.289,3.018-8.403,2.799-11.422-0.489c-3.019-3.29-2.8-8.403,0.489-11.422
	c7.472-6.858,17.176-10.635,27.325-10.635c22.289,0,40.421,18.132,40.421,40.421c0,19.52-13.91,35.853-32.337,39.609v103.212h70.063
	v-210.54c-18.519-1.606-36.333-8.687-50.87-20.342c-3.484-2.793-4.043-7.88-1.25-11.364c2.792-3.484,7.879-4.044,11.364-1.25
	c13.986,11.212,30.874,17.139,48.84,17.139c43.091,0,78.147-35.056,78.147-78.147c0-9.113-1.551-18.033-4.611-26.518
	c-1.514-4.199,0.662-8.832,4.862-10.348c4.201-1.516,8.832,0.662,10.348,4.862c3.696,10.249,5.571,21.016,5.571,32.003
	c0,49.282-37.996,89.858-86.232,93.973v210.533h37.726v-67.368c0-4.465,3.62-8.084,8.084-8.084c4.465,0,8.084,3.62,8.084,8.084
	v67.368h13.474C389.812,495.832,393.432,499.451,393.432,503.916z M512,503.916c0,4.465-3.62,8.084-8.084,8.084h-87.309
	c-4.465,0-8.084-3.62-8.084-8.084s3.62-8.084,8.084-8.084h14.552v-81.288c-36.328-4.035-64.674-34.925-64.674-72.312
	c0-40.119,32.639-72.758,72.758-72.758c28.699,0,54.795,16.941,66.483,43.161c1.818,4.078-0.014,8.857-4.092,10.675
	c-4.079,1.818-8.858-0.015-10.675-4.092c-9.093-20.397-29.393-33.576-51.716-33.576c-31.204,0-56.589,25.385-56.589,56.589
	s25.385,56.589,56.589,56.589s56.589-25.385,56.589-56.589c0-4.465,3.62-8.084,8.084-8.084s8.084,3.62,8.084,8.084
	c0,37.387-28.345,68.277-64.674,72.312v81.288h37.726v-45.811c0-4.465,3.62-8.084,8.084-8.084c4.465,0,8.084,3.62,8.084,8.084
	v45.811h2.695C508.38,495.832,512,499.451,512,503.916z M29.642,145.516c16.345,0,29.642-13.297,29.642-29.642
	S45.987,86.232,29.642,86.232S0,99.528,0,115.874S13.297,145.516,29.642,145.516z M29.642,102.4c7.43,0,13.474,6.044,13.474,13.474
	s-6.044,13.474-13.474,13.474s-13.474-6.044-13.474-13.474S22.212,102.4,29.642,102.4z"/>
</svg>