<?xml version="1.0" encoding="UTF-8" standalone="no"?>
<!-- Uploaded to: SVG Repo, www.svgrepo.com, Generator: SVG Repo Mixer Tools -->

<svg
   version="1.1"
   id="Layer_1"
   viewBox="0 0 512 512"
   xml:space="preserve"
   sodipodi:docname="image.svg"
   inkscape:version="1.3.1 (9b9bdc1480, 2023-11-25, custom)"
   xmlns:inkscape="http://www.inkscape.org/namespaces/inkscape"
   xmlns:sodipodi="http://sodipodi.sourceforge.net/DTD/sodipodi-0.dtd"
   xmlns="http://www.w3.org/2000/svg"
   xmlns:svg="http://www.w3.org/2000/svg"><defs
   id="defs30">
	
	
	
	
	
	
	
	
	
	
	
	
	
</defs><sodipodi:namedview
   id="namedview30"
   pagecolor="#ffffff"
   bordercolor="#000000"
   borderopacity="0.25"
   inkscape:showpageshadow="2"
   inkscape:pageopacity="0.0"
   inkscape:pagecheckerboard="0"
   inkscape:deskcolor="#d1d1d1"
   inkscape:zoom="2.1132812"
   inkscape:cx="256"
   inkscape:cy="256"
   inkscape:window-width="2560"
   inkscape:window-height="1324"
   inkscape:window-x="0"
   inkscape:window-y="0"
   inkscape:window-maximized="1"
   inkscape:current-layer="Layer_1" />
<rect
   x="11.584"
   y="171.646"
   style="fill:#E6E2E0;"
   width="488.833"
   height="286.558"
   id="rect1" />
<rect
   x="11.584"
   y="93.178"
   style="fill:#EE3840;"
   width="488.833"
   height="78.468"
   id="rect2" />






<g
   id="g17">
	<path
   style="fill:#181818;"
   d="M118.258,110.29c0,12.298-9.97,22.269-22.269,22.269s-22.269-9.97-22.269-22.269V76.062   c0-12.298,9.97-22.269,22.269-22.269s22.269,9.97,22.269,22.269V110.29z"
   id="path14" />
	<path
   style="fill:#181818;"
   d="M224.931,110.29c0,12.298-9.97,22.269-22.269,22.269s-22.269-9.97-22.269-22.269V76.062   c0-12.298,9.97-22.269,22.269-22.269s22.269,9.97,22.269,22.269V110.29z"
   id="path15" />
	<path
   style="fill:#181818;"
   d="M438.279,110.29c0,12.298-9.97,22.269-22.269,22.269s-22.269-9.97-22.269-22.269V76.062   c0-12.298,9.97-22.269,22.269-22.269s22.269,9.97,22.269,22.269V110.29z"
   id="path16" />
	<path
   style="fill:#181818;"
   d="M331.606,110.29c0,12.298-9.97,22.269-22.269,22.269s-22.269-9.97-22.269-22.269V76.062   c0-12.298,9.97-22.269,22.269-22.269s22.269,9.97,22.269,22.269V110.29z"
   id="path17" />
</g>
<path
   style="fill:#11113f"
   d="m 500.416,81.592 h -50.554 v -5.53 c 0,-18.666 -15.186,-33.852 -33.852,-33.852 -18.666,0 -33.852,15.186 -33.852,33.852 v 5.53 h -38.969 v -5.53 c 0,-18.666 -15.186,-33.852 -33.852,-33.852 -18.666,0 -33.852,15.186 -33.852,33.852 v 5.53 h -38.97 v -5.53 c 0,-18.666 -15.186,-33.852 -33.852,-33.852 -18.666,0 -33.852,15.186 -33.852,33.852 v 5.53 h -38.97 v -5.53 c 0,-18.666 -15.186,-33.852 -33.852,-33.852 -18.666,0 -33.853,15.186 -33.853,33.852 v 5.53 H 11.584 C 5.186,81.592 0,86.778 0,93.176 v 365.031 c 0,6.398 5.186,11.584 11.584,11.584 h 488.833 c 6.398,0 11.584,-5.186 11.584,-11.584 V 93.176 C 512,86.778 506.814,81.592 500.416,81.592 Z M 416.01,65.376 c 5.891,0 10.685,4.793 10.685,10.685 v 34.228 c 0,5.891 -4.793,10.685 -10.685,10.685 -5.891,0 -10.685,-4.793 -10.685,-10.685 V 93.186 c 0,-0.003 0,-0.007 0,-0.012 0,-0.005 0,-0.007 0,-0.012 V 76.061 c 0.001,-5.892 4.794,-10.685 10.685,-10.685 z m -106.673,0 c 5.891,0 10.685,4.793 10.685,10.685 v 34.228 c 0,5.891 -4.793,10.685 -10.685,10.685 -5.892,0 -10.685,-4.793 -10.685,-10.685 V 93.186 c 0,-0.003 0,-0.007 0,-0.012 0,-0.005 0,-0.007 0,-0.012 V 76.061 c 0,-5.892 4.793,-10.685 10.685,-10.685 z M 191.978,76.061 c 0,-5.891 4.793,-10.685 10.685,-10.685 5.891,0 10.685,4.793 10.685,10.685 v 17.103 c 0,0.003 0,0.007 0,0.012 0,0.005 0,0.007 0,0.012 v 17.102 c 0,5.891 -4.793,10.685 -10.685,10.685 -5.891,0 -10.685,-4.793 -10.685,-10.685 z M 95.99,65.376 c 5.891,0 10.685,4.793 10.685,10.685 v 34.228 c 0,5.891 -4.793,10.685 -10.685,10.685 -5.891,0 -10.685,-4.793 -10.685,-10.685 V 93.186 c 0,-0.003 0,-0.007 0,-0.012 0,-0.005 0,-0.007 0,-0.012 V 76.061 c 0,-5.892 4.792,-10.685 10.685,-10.685 z M 62.137,104.76 v 5.53 c 0,18.666 15.186,33.852 33.852,33.852 18.666,0 33.852,-15.186 33.852,-33.852 v -5.53 h 38.97 v 5.53 c 0,18.666 15.186,33.852 33.852,33.852 18.666,0 33.852,-15.186 33.852,-33.852 v -5.53 h 38.97 v 5.53 c 0,18.666 15.186,33.852 33.852,33.852 18.666,0 33.852,-15.186 33.852,-33.852 v -5.53 h 38.969 v 5.53 c 0,18.666 15.186,33.852 33.852,33.852 18.666,0 33.852,-15.186 33.852,-33.852 v -5.53 h 38.969 v 55.298 H 23.167 V 104.76 Z M 23.167,446.622 V 183.224 H 488.832 V 446.621 H 23.167 Z"
   id="path18" />
<text
   xml:space="preserve"
   style="font-size:454.478px;fill:#0000ff;stroke-width:37.8733"
   x="31.92412"
   y="509.38635"
   id="text30"
   transform="scale(1.1676703,0.85640616)"><tspan
     sodipodi:role="line"
     id="tspan30"
     x="31.92412"
     y="509.38635"
     style="stroke-width:37.8733">&gt;</tspan></text></svg>
