<?xml version="1.0" encoding="iso-8859-1"?>
<!-- Uploaded to: SVG Repo, www.svgrepo.com, Generator: SVG Repo Mixer Tools -->
<svg height="800px" width="800px" version="1.1" id="Layer_1" xmlns="http://www.w3.org/2000/svg" xmlns:xlink="http://www.w3.org/1999/xlink" 
	 viewBox="0 0 512 512" xml:space="preserve">
<circle style="fill:#31BAFD;" cx="256" cy="256" r="256"/>
<path style="fill:#2B9ED8;" d="M296.127,508.861c101.681-16.008,183.47-91.867,208.181-190.383L292.905,107.077l-21.773-3.737
	l-72.035,88.538l68.868,68.868l-77.307,142.648L296.127,508.861z"/>
<circle style="fill:#F9B54C;" cx="256" cy="333.576" r="69.818"/>
<path style="fill:#F4A200;" d="M256,263.758c-0.048,0-0.095,0.003-0.143,0.003V403.39c0.048,0,0.095,0.003,0.143,0.003
	c38.56,0,69.818-31.26,69.818-69.818C325.818,295.015,294.56,263.758,256,263.758z"/>
<circle style="fill:#FFD15D;" cx="256" cy="246.088" r="42.667"/>
<path style="fill:#F9B54C;" d="M256,203.421c-0.048,0-0.095,0.003-0.143,0.003v85.326c0.048,0,0.095,0.003,0.143,0.003
	c23.564,0,42.667-19.103,42.667-42.667S279.564,203.421,256,203.421z"/>
<circle style="fill:#324A5E;" cx="235.313" cy="252.552" r="4.31"/>
<circle style="fill:#2B3B4E;" cx="276.687" cy="252.552" r="4.31"/>
<polygon style="fill:#FC6F58;" points="255.857,258.586 246.519,258.586 255.857,277.263 256,277.549 265.481,258.586 "/>
<polygon style="fill:#F1543F;" points="265.481,258.586 255.857,258.586 255.857,277.263 256,277.549 "/>
<g>
	<path style="fill:#FFFFFF;" d="M199.097,191.878l28.441-34.478l28.443,34.478l28.446-34.478l28.438,34.478l17.537-21.256
		C315.158,125.886,285.706,89.121,256,89.121c-27.857,0-57.756,38.26-73.633,82.473L199.097,191.878z"/>
	<path style="fill:#FFFFFF;" d="M312.904,337.27l-28.443-34.478l-28.446,34.478l-28.438-34.478L199.13,337.27l-23.057-27.944
		c-3.301,13.388-5.16,26.86-5.16,39.583c0,46.992,38.093,85.085,85.085,85.085s85.085-38.095,85.085-85.085
		c0-13.214-1.674-26.812-4.682-40.124L312.904,337.27z"/>
</g>
<g>
	<path style="fill:#E6F3FF;" d="M256,89.119c-0.048,0-0.095,0.005-0.143,0.007v102.6l0.124,0.152l28.446-34.478l28.438,34.478
		l17.537-21.256C315.158,125.886,285.706,89.119,256,89.119z"/>
	<path style="fill:#E6F3FF;" d="M336.403,308.784l-23.497,28.486l-28.443-34.478l-28.446,34.478l-0.16-0.195v96.915
		c0.048,0,0.095,0.003,0.143,0.003c46.992,0,85.085-38.095,85.085-85.085C341.085,335.694,339.411,322.096,336.403,308.784z"/>
</g>
</svg>