<?xml version="1.0" encoding="UTF-8" standalone="no"?>
<!-- Uploaded to: SVG Repo, www.svgrepo.com, Generator: SVG Repo Mixer Tools -->

<svg
   width="800px"
   height="800px"
   viewBox="-5 0 32 32"
   version="1.1"
   id="svg1"
   sodipodi:docname="search-svgrepo-com.svg"
   inkscape:version="1.4.2 (2aeb623e1d, 2025-05-12)"
   xmlns:inkscape="http://www.inkscape.org/namespaces/inkscape"
   xmlns:sodipodi="http://sodipodi.sourceforge.net/DTD/sodipodi-0.dtd"
   xmlns="http://www.w3.org/2000/svg"
   xmlns:svg="http://www.w3.org/2000/svg">
  <defs
     id="defs1" />
  <sodipodi:namedview
     id="namedview1"
     pagecolor="#ffffff"
     bordercolor="#000000"
     borderopacity="0.25"
     inkscape:showpageshadow="2"
     inkscape:pageopacity="0.0"
     inkscape:pagecheckerboard="0"
     inkscape:deskcolor="#d1d1d1"
     inkscape:zoom="1.07125"
     inkscape:cx="400"
     inkscape:cy="400"
     inkscape:window-width="1813"
     inkscape:window-height="991"
     inkscape:window-x="26"
     inkscape:window-y="23"
     inkscape:window-maximized="0"
     inkscape:current-layer="svg1" />
  <path
     id="Path_19"
     data-name="Path 19"
     d="M1002,44a10,10,0,0,0-10,10c0,5.523,10,20,10,20s10-14.477,10-20A10,10,0,0,0,1002,44Zm0,13a3,3,0,1,1,3-3A3,3,0,0,1,1002,57Z"
     transform="translate(-991 -43)"
     fill="#cbff94"
     stroke="#333"
     stroke-linecap="round"
     stroke-linejoin="round"
     stroke-width="2" />
  <g
     id="g1"
     transform="matrix(0.76961713,0,0,0.80454036,-13.075636,3.1544502)">
    <path
       d="m 23.631384,31.616569 c -0.24,0.36 -0.72,0.48 -1.12,0.24 l -10.12,-6.4 c -0.36,-0.24 -0.48,-0.72 -0.24,-1.12 l 9.4,-14.12 c 0.24,-0.3600004 1.88,-0.7200004 1.88,-0.7200004 l 7.4,-1.96 0.68,0.44 1.4,7.5200004 c 0,0 0.4,1.64 0.16,2 z"
       fill="#6fb0be"
       id="path1"
       style="stroke-width:0.03125" />
    <path
       d="m 22.951384,32.376569 c -0.24,0 -0.44,-0.08 -0.64,-0.2 l -10.12,-6.4 c -0.28,-0.16 -0.44,-0.44 -0.52,-0.76 -0.08,-0.32 0,-0.64 0.16,-0.92 l 9.4,-14.1600004 c 0.28,-0.44 1.44,-0.76 2.12,-0.88 l 7.36,-1.88 c 0.12,-0.04 0.24,0 0.32,0.04 l 0.68,0.44 c 0.08,0.04 0.16,0.16 0.16,0.28 l 1.4,7.5200004 c 0.16,0.64 0.4,1.84 0.12,2.28 l -9.44,14.12 c -0.16,0.28 -0.44,0.44 -0.76,0.52 z m 7.8,-24.4000004 -7.24,1.92 c -0.76,0.1600004 -1.52,0.4000004 -1.64,0.5600004 l -9.4,14.12 c -0.04,0.08 -0.08,0.2 -0.04,0.28 0.04,0.08 0.08,0.2 0.16,0.24 l 10.12,6.4 c 0.08,0.04 0.2,0.08 0.32,0.04 0.12,-0.04 0.2,-0.08 0.24,-0.16 l 9.44,-14.12 c 0.04,-0.16 -0.04,-0.96 -0.2,-1.68 l -1.4,-7.3600004 z"
       fill="#231c1c"
       id="path2"
       style="stroke-width:0.03125" />
    <path
       d="m 28.831384,11.136569 m -1.6,0 a 1.6,1.6 0 1 0 3.2,0 1.6,1.6 0 1 0 -3.2,0 z"
       fill="#f2e5ca"
       id="path3"
       style="stroke-width:0.03125" />
    <path
       d="m 28.831384,13.136569 c -1.12,0 -2,-0.88 -2,-2 0,-1.12 0.88,-2.0000004 2,-2.0000004 1.12,0 2,0.8800004 2,2.0000004 0,1.12 -0.92,2 -2,2 z m 0,-3.2000004 c -0.68,0 -1.2,0.5200004 -1.2,1.2000004 0,0.68 0.52,1.2 1.2,1.2 0.68,0 1.2,-0.52 1.2,-1.2 0,-0.68 -0.56,-1.2000004 -1.2,-1.2000004 z"
       fill="#231c1c"
       id="path4"
       style="stroke-width:0.03125" />
  </g>
</svg>
