<?xml version="1.0" encoding="iso-8859-1"?>
<!-- Uploaded to: SVG Repo, www.svgrepo.com, Generator: SVG Repo Mixer Tools -->
<svg version="1.1" id="Layer_1" xmlns="http://www.w3.org/2000/svg" xmlns:xlink="http://www.w3.org/1999/xlink" 
	 viewBox="0 0 512 512" xml:space="preserve">
<g>
	<path style="fill:#FFE6B8;" d="M486.39,435.669H135.636c-8.511,0-15.411-6.9-15.411-15.411V219.325
		c0-8.511,6.9-15.411,15.411-15.411H486.39c8.511,0,15.411,6.9,15.411,15.411v200.932
		C501.801,428.769,494.901,435.669,486.39,435.669z"/>
	<path style="fill:#FFE6B8;" d="M376.364,308.086H25.61c-8.511,0-15.411-6.9-15.411-15.411V91.742c0-8.511,6.9-15.411,15.411-15.411
		h350.754c8.511,0,15.411,6.9,15.411,15.411v200.932C391.776,301.186,384.876,308.086,376.364,308.086z"/>
</g>
<circle style="fill:#FFAD61;" cx="267.709" cy="144.216" r="26.921"/>
<circle style="fill:#D35B38;" cx="322.713" cy="144.216" r="26.921"/>
<g>
	<path style="fill:#BCC987;" d="M86.573,162.947H64.919c-5.656,0-10.242-4.586-10.242-10.242v-21.654
		c0-5.656,4.586-10.242,10.242-10.242h21.654c5.656,0,10.242,4.586,10.242,10.242v21.654
		C96.815,158.361,92.229,162.947,86.573,162.947z"/>
	<rect x="120.228" y="345.538" style="fill:#BCC987;" width="381.573" height="51.496"/>
</g>
<g>
	<path style="fill:#4D3D36;" d="M512,219.325c0-14.122-11.489-25.61-25.61-25.61h-84.415V91.743c0-14.122-11.489-25.61-25.61-25.61
		H25.61C11.489,66.131,0,77.621,0,91.742v200.933c0,14.122,11.489,25.61,25.61,25.61h84.415v101.971
		c0,14.122,11.489,25.61,25.61,25.61H486.39c14.122,0,25.61-11.489,25.61-25.61V219.325z M20.398,292.675V91.742
		c0-2.874,2.338-5.212,5.212-5.212h350.754c2.874,0,5.212,2.338,5.212,5.212v200.933c0,2.873-2.338,5.212-5.212,5.212H25.61
		C22.736,297.888,20.398,295.549,20.398,292.675z M376.365,318.286c14.122,0,25.61-11.489,25.61-25.61v-78.562h84.415
		c2.874,0,5.212,2.338,5.212,5.212v116.018H130.423v-17.057H376.365z M491.602,386.844H130.423v-31.102h361.178V386.844z
		 M486.39,425.469H135.635c-2.874,0-5.212-2.338-5.212-5.212v-13.015h361.178v13.015
		C491.602,423.132,489.264,425.469,486.39,425.469z"/>
	<path style="fill:#4D3D36;" d="M267.705,181.339c10.896,0,20.709-4.72,27.506-12.222c6.797,7.502,16.61,12.222,27.506,12.222
		c20.468,0,37.121-16.652,37.121-37.121s-16.652-37.121-37.121-37.121c-10.896,0-20.709,4.72-27.506,12.222
		c-6.797-7.502-16.61-12.222-27.506-12.222c-20.468,0-37.12,16.652-37.12,37.121S247.237,181.339,267.705,181.339z M322.717,127.497
		c9.221,0,16.723,7.502,16.723,16.723s-7.502,16.723-16.723,16.723c-9.22,0-16.722-7.502-16.722-16.723
		S313.497,127.497,322.717,127.497z M267.705,127.497c9.221,0,16.723,7.502,16.723,16.723s-7.502,16.723-16.723,16.723
		c-9.22,0-16.722-7.502-16.722-16.723S258.485,127.497,267.705,127.497z"/>
	<path style="fill:#4D3D36;" d="M101.544,237.022H52.336c-5.633,0-10.199,4.567-10.199,10.199s4.566,10.199,10.199,10.199h49.208
		c5.633,0,10.199-4.567,10.199-10.199S107.177,237.022,101.544,237.022z"/>
	<path style="fill:#4D3D36;" d="M184.632,237.022h-49.207c-5.633,0-10.199,4.567-10.199,10.199s4.566,10.199,10.199,10.199h49.208
		c5.633,0,10.199-4.567,10.199-10.199S190.265,237.022,184.632,237.022z"/>
	<path style="fill:#4D3D36;" d="M267.721,237.022h-49.208c-5.633,0-10.199,4.567-10.199,10.199s4.566,10.199,10.199,10.199h49.208
		c5.633,0,10.199-4.567,10.199-10.199S273.354,237.022,267.721,237.022z"/>
	<path style="fill:#4D3D36;" d="M350.809,237.022h-49.208c-5.633,0-10.199,4.567-10.199,10.199s4.566,10.199,10.199,10.199h49.208
		c5.633,0,10.199-4.567,10.199-10.199S356.442,237.022,350.809,237.022z"/>
	<path style="fill:#4D3D36;" d="M64.919,173.145h21.654c11.271,0,20.441-9.169,20.441-20.44v-21.654
		c0-11.271-9.17-20.44-20.441-20.44H64.919c-11.271,0-20.441,9.169-20.441,20.44v21.654
		C44.478,163.976,53.648,173.145,64.919,173.145z M64.919,131.009l21.696,0.042l-0.022,21.695c0,0-0.006,0.001-0.02,0.001
		l-21.697-0.042L64.919,131.009z"/>
</g>
</svg>