<?xml version="1.0" encoding="UTF-8" standalone="no"?>
<!-- Uploaded to: SVG Repo, www.svgrepo.com, Generator: SVG Repo Mixer Tools -->

<svg
   fill="#000000"
   version="1.1"
   id="Layer_1"
   width="800px"
   height="800px"
   viewBox="0 0 100 100"
   enable-background="new 0 0 100 100"
   xml:space="preserve"
   xmlns="http://www.w3.org/2000/svg"
   xmlns:svg="http://www.w3.org/2000/svg"><defs
   id="defs5">
	
	
	
	
	
</defs>
<g
   id="g6"
   transform="matrix(0.11372306,0,0,0.11486289,21.40435,1.0201284)"><circle
     style="fill:#61a2ef"
     cx="255.99899"
     cy="255.998"
     r="255.998"
     id="circle1" /><path
     style="fill:#528acf"
     d="M 511.999,256.002 C 511.999,114.618 397.384,0.001 256.001,0 V 512 C 397.385,511.999 511.999,397.385 511.999,256.002 Z"
     id="path1-56" /><path
     style="fill:#9ed04d"
     d="m 54.383,185.772 c 12.449,13.108 26.146,25.03 40.845,35.554 4.035,2.888 8.391,5.989 9.995,10.685 4.661,13.654 -3.341,28.394 4.815,43.956 7.711,14.714 24.743,23.894 29.145,39.912 3.434,12.494 -1.844,26.056 1.139,38.666 3.617,15.294 18.386,25.618 23.72,40.401 3.394,9.405 2.668,19.805 5.148,29.492 2.48,9.687 10.287,19.563 20.244,18.653 12.03,-1.099 16.972,-15.93 17.912,-27.974 0.941,-12.044 2.174,-26.568 12.958,-32.013 5.735,-2.896 13.228,-2.446 17.717,-7.043 7.46,-7.64 -0.043,-20.152 0.213,-30.826 0.273,-11.377 9.632,-20.179 18.286,-27.571 10.904,-9.314 21.808,-18.628 32.712,-27.942 7.572,-6.403 9.509,-17.871 6.401,-27.288 -3.106,-9.419 -10.441,-16.935 -18.693,-22.435 -8.875,-5.916 -20.304,-9.893 -30.149,-5.791 -7.495,3.122 -13.292,10.601 -21.397,11.068 -7.475,0.431 -13.924,-5.503 -17.509,-12.076 -3.584,-6.574 -5.275,-14.052 -8.909,-20.599 -10.43,-18.796 -27.314,-17.651 -45.519,-20.467 -18.38,-2.843 -37.072,-11.424 -50.769,-23.981 -2.195,-2.012 -4.371,-4.25 -5.241,-7.097 -4.868,-15.931 23.347,-22.98 33.106,-22.658 8.001,0.263 16.164,2.597 23.871,0.436 7.276,-2.039 12.84,-7.719 19.024,-12.061 17.499,-12.287 43.073,4.468 46.457,-28.77 1.326,-13.018 -3.713,-25.748 -8.656,-37.864 C 204.082,42.571 197.635,25.908 192.931,7.84 120.117,26.288 59.753,75.939 26.879,141.73 c 8.752,9.421 6.188,5.019 9.858,17.356 3.071,10.32 10.231,18.88 17.646,26.686 z"
     id="path2" /><g
     id="g5">
	<path
   style="fill:#86b143"
   d="m 330.002,69.557 c -1.773,2.295 -3.604,4.721 -4.057,7.586 -0.738,4.676 2.336,9.011 5.243,12.746 4.413,5.671 9.348,11.692 16.322,13.431 12.996,3.24 24.625,-9.77 37.976,-10.841 10.721,-0.86 20.671,6.104 31.42,6.495 C 429.1,99.416 435.4,87.798 437.864,75.847 418.279,56.076 395.492,39.49 370.346,26.913 360.547,39.6 339.801,56.873 330.002,69.557 Z"
   id="path3" />
	<path
   style="fill:#86b143"
   d="m 500.255,179.152 c -4.732,14.431 -18.03,10.613 -35.278,11.94 -22.144,1.704 -35.602,-9.186 -56.057,-13.252 -18.983,-3.773 -35.664,9.302 -44.534,25.041 -6.585,11.685 -16.904,37.545 -8.238,49.482 4.142,5.704 10.357,9.481 16.403,13.105 8.705,5.218 17.454,10.457 26.865,14.255 10.821,4.365 23.237,7.352 30.12,16.773 5.669,7.758 6.127,18.135 5.142,27.692 -2.675,25.947 -25.27,48.978 -4.639,72.551 7.752,8.859 18.303,13.757 30.073,13.769 32.556,-42.941 51.884,-96.464 51.884,-154.506 0.003,-26.777 -4.115,-52.59 -11.741,-76.85 z"
   id="path4" />
	<path
   style="fill:#86b143"
   d="m 295.63,262.434 c -3.106,-9.419 -10.441,-16.935 -18.693,-22.435 -6.202,-4.135 -13.651,-7.31 -20.936,-7.455 v 85.565 c 0.173,-0.148 0.345,-0.298 0.516,-0.445 10.904,-9.314 21.808,-18.628 32.712,-27.942 7.573,-6.403 9.509,-17.87 6.401,-27.288 z"
   id="path5-2" />
</g></g><path
   d="m 58.524762,59.458158 c -1.385,-2.83 -2.117,-6.008 -2.117,-9.192 0,-1.743 0.252,-3.534 0.768,-5.468 0.231,-0.87 0.521,-1.702 0.847,-2.509 -1.251,-0.683 -2.626,-1.103 -4.101,-1.103 -5.47,0 -9.898,5.153 -9.898,11.517 0,4.452 2.176,8.305 5.354,10.222 l -13.415,6.244 c -0.836,0.393 -1.387,1.337 -1.387,2.392 v 10.588 c 0,1.419 0.991,2.569 2.21,2.569 h 7.929 v -11.11 c 0,-3.237 1.802,-6.172 4.599,-7.481 l 10.262,-4.779 c -0.38,-0.604 -0.731,-1.235 -1.051,-1.89 z"
   id="path1"
   style="fill:#800080" /><path
   d="m 95.077959,69.72067 -11.551,-5.51 -4.885,-2.33 c 2.134,-1.344 3.866,-3.418 5,-5.917 0.899,-1.984 1.435,-4.231 1.435,-6.631 0,-1.348 -0.213,-2.627 -0.512,-3.863 -1.453,-5.983 -6.126,-10.392 -11.736,-10.392 -5.504,0 -10.106,4.251 -11.648,10.065 -0.356,1.333 -0.602,2.72 -0.602,4.189 0,2.552 0.596,4.93 1.609,7 1.171,2.4 2.906,4.379 5.018,5.651 l -4.678,2.178 -11.926,5.554 c -1.037,0.485 -1.717,1.654 -1.717,2.959 v 11.111 1.994 c 0,1.756 1.224,3.181 2.735,3.181 h 42.417 c 1.511,0 2.735,-1.424 2.735,-3.181 v -1.994 -11.11 c 0.002,-1.301 -0.668,-2.458 -1.694,-2.954 z"
   id="path5"
   style="fill:#aa0000" />
<path
   d="m 42.309997,56.961761 c -1.385,-2.83 -2.117,-6.008 -2.117,-9.192 0,-1.743 0.252,-3.534 0.768,-5.468 0.231,-0.87 0.521,-1.702 0.847,-2.509 -1.251,-0.683 -2.626,-1.103 -4.101,-1.103 -5.47,0 -9.898,5.153 -9.898,11.517 0,4.452 2.176,8.305 5.354,10.222 l -13.415,6.244 c -0.836,0.393 -1.387,1.337 -1.387,2.392 v 10.588 c 0,1.419 0.991,2.569 2.21,2.569 h 7.929 v -11.11 c 0,-3.237 1.802,-6.172 4.599,-7.481 l 10.262,-4.779 c -0.38,-0.604 -0.731,-1.235 -1.051,-1.89 z"
   id="path1-6"
   style="fill:#0000ff" /><path
   d="m 25.912828,54.620746 c -1.385,-2.83 -2.117,-6.008 -2.117,-9.192 0,-1.743 0.252,-3.534 0.768,-5.468 0.231,-0.87 0.521,-1.702 0.847,-2.509 -1.251,-0.683 -2.626,-1.103 -4.101,-1.103 -5.47,0 -9.898,5.153 -9.898,11.517 0,4.452 2.176,8.305 5.354,10.222 l -13.4150006,6.244 c -0.8360001,0.393 -1.3870001,1.337 -1.3870001,2.392 v 10.588 c 0,1.419 0.9910001,2.569 2.2100001,2.569 h 7.9290006 v -11.11 c 0,-3.237 1.802,-6.172 4.599,-7.481 l 10.262,-4.779 c -0.38,-0.604 -0.731,-1.235 -1.051,-1.89 z"
   id="path1-5"
   style="fill:#000080" /></svg>
