<?xml version="1.0" encoding="UTF-8" standalone="no"?>
<!-- Uploaded to: SVG Repo, www.svgrepo.com, Generator: SVG Repo Mixer Tools -->

<svg
   fill="#000000"
   width="800px"
   height="800px"
   viewBox="0 0 32 32"
   version="1.1"
   id="svg1"
   sodipodi:docname="uncertainty-svgrepo-com.svg"
   inkscape:version="1.4.4 (dcaf3e7d9e, 2026-05-05)"
   xmlns:inkscape="http://www.inkscape.org/namespaces/inkscape"
   xmlns:sodipodi="http://sodipodi.sourceforge.net/DTD/sodipodi-0.dtd"
   xmlns="http://www.w3.org/2000/svg"
   xmlns:svg="http://www.w3.org/2000/svg">
  <defs
     id="defs1" />
  <sodipodi:namedview
     id="namedview1"
     pagecolor="#ffffff"
     bordercolor="#000000"
     borderopacity="0.25"
     inkscape:showpageshadow="2"
     inkscape:pageopacity="0.0"
     inkscape:pagecheckerboard="0"
     inkscape:deskcolor="#d1d1d1"
     inkscape:zoom="1.03625"
     inkscape:cx="400"
     inkscape:cy="400"
     inkscape:window-width="1669"
     inkscape:window-height="1036"
     inkscape:window-x="36"
     inkscape:window-y="32"
     inkscape:window-maximized="0"
     inkscape:current-layer="svg1" />
  <title
     id="title1">uncertainty</title>
  <path
     d="M16.086 1.212c-7.983 0-14.463 6.48-14.463 14.463 0 3.478 1.231 6.662 3.279 9.155l-1.299 2.256h8.262l-4.139-7.158-1.396 2.435c-1.304-1.902-2.061-4.21-2.061-6.688 0-6.522 5.295-11.817 11.817-11.817s11.817 5.295 11.817 11.817c0 2.44-0.729 4.721-1.997 6.606l-1.363-2.354-4.139 7.158h8.262l-1.347-2.337c2.011-2.482 3.23-5.632 3.23-9.074 0-7.983-6.48-14.463-14.463-14.463l0-0zM16.341 5.928c-3.139-0.124-7.154 1.665-8.309 6.541l3.79 0.893c1.683-4.757 5.669-4.419 7.070-1.786 1.671 3.141-5.595 6.693-5.248 11.88h4.847c0.405-6.124 7.424-7.705 3.717-14.322-1.12-1.998-3.426-3.111-5.867-3.207v-0h-0zM19.745 27.739c0 1.997-1.619 3.615-3.615 3.615s-3.615-1.619-3.615-3.615 1.619-3.615 3.615-3.615 3.615 1.619 3.615 3.615z"
     id="path1"
     style="fill:#ff0000" />
</svg>
