<svg xmlns="http://www.w3.org/2000/svg" viewBox="0 0 64 64" id="expertise"><path d="M13.9 0c-4 0-7.2 3.2-7.2 7.2 0 3.9 3.2 7.2 7.2 7.2S21 11.1 21 7.2c0-4-3.2-7.2-7.1-7.2zm0 12.4c-2.9 0-5.2-2.3-5.2-5.2C8.7 4.3 11 2 13.9 2s5.2 2.3 5.2 5.2c0 2.8-2.3 5.2-5.2 5.2z"></path><path fill="#e8625c" d="M19.1 7.2c0 2.9-2.3 5.2-5.2 5.2S8.7 10 8.7 7.2C8.7 4.3 11 2 13.9 2s5.2 2.3 5.2 5.2z"></path><path fill="#da5b57" d="M19.1 7.2c0 2.9-2.3 5.2-5.2 5.2 2.2 0 3.9-2.3 3.9-5.2C17.8 4.3 16 2 13.9 2c2.9-.1 5.2 2.3 5.2 5.2z"></path><path fill="#f2776b" d="M13.9 12.4c-2.9 0-5.2-2.3-5.2-5.2C8.7 4.3 11 2 13.9 2 11.7 2 10 4.3 10 7.2c-.1 2.8 1.7 5.2 3.9 5.2z"></path><path d="M20.7 15.1h-2.5c-.2 0-.3 0-.5.1-2.4 1.3-5.4 1.3-7.8 0-.1-.1-.3-.1-.5-.1H7c-3.4 0-6.2 2.8-6.2 6.2v14.6c0 2.2 1.8 4 4 4.1v19.9c0 2.2 1.8 4.1 4.1 4.1 2.2 0 4.1-1.8 4.1-4.1V43.7c0-.5.4-.9.9-.9s.9.4.9.9V60c0 2.2 1.8 4.1 4.1 4.1S23 62.3 23 60V40.1c2.2-.1 4-1.9 4-4.1V21.3c-.1-3.4-2.9-6.2-6.3-6.2zM25 35.9c0 1.2-.9 2.1-2 2.2V24.7c0-.5-.4-1-1-1-.5 0-1 .4-1 1v35.2c0 1.2-1 2.1-2.1 2.1-1.2 0-2.1-1-2.1-2.1V43.7c0-1.6-1.3-2.8-2.8-2.8-1.6 0-2.9 1.3-2.9 2.8V60c0 1.2-1 2.1-2.1 2.1-1.2 0-2.1-1-2.1-2.1V24.7c0-.5-.4-1-1-1s-1 .4-1 1v13.4c-1.1-.1-2-1-2-2.2V21.3c0-2.3 1.9-4.2 4.2-4.2h2.2c2.8 1.5 6.4 1.5 9.2 0h2.3c2.3 0 4.2 1.9 4.2 4.2v14.6z"></path><path fill="#e8625c" d="M25 21.3v14.6c0 1.2-.9 2.1-2 2.2V24.7c0-.5-.4-1-1-1-.5 0-1 .4-1 1v35.2c0 1.2-1 2.1-2.1 2.1-1.2 0-2.1-1-2.1-2.1V43.7c0-1.6-1.3-2.8-2.8-2.8-1.6 0-2.9 1.3-2.9 2.8V60c0 1.2-1 2.1-2.1 2.1-1.2 0-2.1-1-2.1-2.1V24.7c0-.5-.4-1-1-1s-1 .4-1 1v13.4c-1.1-.1-2-1-2-2.2V21.3c0-2.3 1.9-4.2 4.2-4.2h2.2c2.8 1.5 6.4 1.5 9.2 0h2.3c2.3 0 4.2 1.9 4.2 4.2z"></path><path fill="#f2776b" d="M9.5 62c-.2.1-.4.1-.6.1-1.2 0-2.1-1-2.1-2.1V24.7c0-.3-.1-.6-.4-.8.2-.1.4-.2.6-.2.5 0 1 .4 1 1v35.2c-.1 1 .6 1.8 1.5 2.1z"></path><path fill="#f2776b" d="M4 21.3v14.6c0 .7.3 1.3.9 1.7v.5c-1.1-.1-2-1-2-2.2V21.3c0-2.3 1.9-4.2 4.2-4.2h1.2C5.9 17.1 4 19 4 21.3z"></path><path fill="#da5b57" d="M18.3 62c.2.1.4.1.6.1 1.2 0 2.1-1 2.1-2.1V24.7c0-.3.1-.6.4-.8-.2-.1-.4-.2-.6-.2-.5 0-1 .4-1 1v35.2c0 1-.6 1.8-1.5 2.1z"></path><path fill="#da5b57" d="M23.8 21.3v14.6c0 .7-.3 1.3-.9 1.7v.5c1.1-.1 2-1 2-2.2V21.3c0-2.3-1.9-4.2-4.2-4.2h-1.2c2.4 0 4.3 1.9 4.3 4.2z"></path><path d="M62.2 0H30c-.5 0-1 .4-1 1v62c0 .5.4 1 1 1h32.2c.5 0 1-.4 1-1V1c0-.6-.5-1-1-1zm-1 62.1H30.9V1.9h30.3v60.2z"></path><path fill="#edeced" d="M30.9 1.9V62h30.3V1.9H30.9zm14.7 54.8H35.2c-.5 0-1-.4-1-1 0-.5.4-1 1-1h10.4c.5 0 1 .4 1 1s-.5 1-1 1zm0-11.9H35.2c-.5 0-1-.4-1-1 0-.5.4-1 1-1h10.4c.5 0 1 .4 1 1s-.5 1-1 1zm0-11.8H35.2c-.5 0-1-.4-1-1 0-.5.4-1 1-1h10.4c.5 0 1 .4 1 1 0 .5-.5 1-1 1zm0-11.9H35.2c-.5 0-1-.4-1-1 0-.5.4-1 1-1h10.4c.5 0 1 .4 1 1s-.5 1-1 1zm0-11.9H35.2c-.5 0-1-.4-1-1 0-.5.4-1 1-1h10.4c.5 0 1 .4 1 1s-.5 1-1 1zm11.1 48.3c.4.4.4 1 0 1.4-.2.2-.4.3-.7.3-.3 0-.5-.1-.7-.3l-1.7-1.7-1.7 1.7c-.2.2-.4.3-.7.3-.2 0-.5-.1-.7-.3-.4-.4-.4-1 0-1.4l1.7-1.7-1.7-1.8c-.4-.4-.4-1 0-1.4.4-.4 1-.4 1.4 0l1.7 1.7 1.7-1.7c.4-.4 1-.4 1.4 0 .4.4.4 1 0 1.4L55 55.7l1.7 1.8zm1-15.3L52.9 47c-.2.2-.4.3-.7.3-.3 0-.5-.1-.7-.3l-1.9-2c-.4-.4-.4-1 0-1.4.4-.4 1-.4 1.4 0l1.2 1.2 4.1-4.1c.4-.4 1-.4 1.4 0 .3.5.3 1.1 0 1.5zm-7.2-11.9c-.4-.4-.4-1 0-1.4.4-.4 1-.4 1.4 0l1.7 1.7 1.7-1.7c.4-.4 1-.4 1.4 0 .4.4.4 1 0 1.4L55 32l1.7 1.7c.4.4.4 1 0 1.4-.2.2-.4.3-.7.3-.3 0-.5-.1-.7-.3l-1.7-1.7-1.7 1.7c-.2.2-.4.3-.7.3-.2 0-.5-.1-.7-.3-.4-.4-.4-1 0-1.4l1.7-1.7-1.7-1.7zm7.2-11.9-4.8 4.8c-.2.2-.4.3-.7.3-.3 0-.5-.1-.7-.3l-1.9-1.9c-.4-.4-.4-1 0-1.4.4-.4 1-.4 1.4 0l1.2 1.2 4.1-4.1c.4-.4 1-.4 1.4 0 .3.4.3 1 0 1.4zm0-11.8-4.8 4.8c-.2.2-.4.3-.7.3-.3 0-.5-.1-.7-.3l-1.9-1.9c-.4-.4-.4-1 0-1.4.4-.4 1-.4 1.4 0l1.2 1.2 4.1-4.1c.4-.4 1-.4 1.4 0 .3.4.3 1 0 1.4z"></path><path fill="#d5d6d5" d="M56.8 54s-.1 0 0 0l-1.2 1.2-.6.5 1.7 1.7c.4.4.4 1 0 1.4-.2.2-.4.3-.7.3-.3 0-.5-.1-.7-.3l-1.7-1.7-1.7 1.7c-.2.2-.4.3-.7.3-.2 0-.5-.1-.7-.3-.4-.4-.4-1 0-1.4l1.7-1.7-1.7-1.7-.1-.1h-9.1c-1.3 0-2.4-1-2.4-2.4v-6.8H35c-.5 0-1-.4-1-1 0-.5.4-1 1-1h4V33h-3.9c-.5 0-1-.4-1-1 0-.5.4-1 1-1H39v-9.9h-3.9c-.5 0-1-.4-1-1 0-.5.4-1 1-1H39V9.2h-3.9c-.5 0-1-.4-1-1 0-.5.4-1 1-1H39V1.9h-6.1v55.8c0 1.3 1.1 2.4 2.4 2.4h25.9V54h-4.4zm-11.2 2.7H35.2c-.5 0-1-.4-1-1 0-.5.4-1 1-1h10.4c.5 0 1 .4 1 1s-.5 1-1 1z"></path><path fill="#bfbebc" d="M61.2 60.1v2H30.9V1.9h2v55.8c0 1.3 1.1 2.4 2.4 2.4h25.9z"></path><path d="M46.6 8.3c0 .5-.4 1-1 1H35.2c-.5 0-1-.4-1-1 0-.5.4-1 1-1h10.4c.5 0 1 .4 1 1zm11.1-1.7-4.8 4.8c-.2.2-.4.3-.7.3-.3 0-.5-.1-.7-.3l-1.9-1.9c-.4-.4-.4-1 0-1.4.4-.4 1-.4 1.4 0l1.2 1.2 4.1-4.1c.4-.4 1-.4 1.4 0 .3.4.3 1 0 1.4zM46.6 20.1c0 .5-.4 1-1 1H35.2c-.5 0-1-.4-1-1 0-.5.4-1 1-1h10.4c.5.1 1 .5 1 1zm11.1-1.7-4.8 4.8c-.2.2-.4.3-.7.3-.3 0-.5-.1-.7-.3l-1.9-1.9c-.4-.4-.4-1 0-1.4.4-.4 1-.4 1.4 0l1.2 1.2 4.1-4.1c.4-.4 1-.4 1.4 0 .3.4.3 1 0 1.4zM46.6 32c0 .5-.4 1-1 1H35.2c-.5 0-1-.4-1-1 0-.5.4-1 1-1h10.4c.5 0 1 .5 1 1zm10.1 1.7c.4.4.4 1 0 1.4-.2.2-.4.3-.7.3-.3 0-.5-.1-.7-.3l-1.7-1.7-1.7 1.7c-.2.2-.4.3-.7.3-.2 0-.5-.1-.7-.3-.4-.4-.4-1 0-1.4l1.7-1.7-1.7-1.7c-.4-.4-.4-1 0-1.4.4-.4 1-.4 1.4 0l1.7 1.7 1.7-1.7c.4-.4 1-.4 1.4 0 .4.4.4 1 0 1.4L55 32l1.7 1.7zM46.6 43.9c0 .5-.4 1-1 1H35.2c-.5 0-1-.4-1-1 0-.5.4-1 1-1h10.4c.5 0 1 .4 1 1zm11.1-1.7L52.9 47c-.2.2-.4.3-.7.3-.3 0-.5-.1-.7-.3l-1.9-2c-.4-.4-.4-1 0-1.4.4-.4 1-.4 1.4 0l1.2 1.2 4.1-4.1c.4-.4 1-.4 1.4 0 .3.5.3 1.1 0 1.5zM46.6 55.7c0 .5-.4 1-1 1H35.2c-.5 0-1-.4-1-1 0-.5.4-1 1-1h10.4c.5.1 1 .5 1 1zm10.1 1.8c.4.4.4 1 0 1.4-.2.2-.4.3-.7.3-.3 0-.5-.1-.7-.3l-1.7-1.7-1.7 1.7c-.2.2-.4.3-.7.3-.2 0-.5-.1-.7-.3-.4-.4-.4-1 0-1.4l1.7-1.7-1.7-1.8c-.4-.4-.4-1 0-1.4.4-.4 1-.4 1.4 0l1.7 1.7 1.7-1.7c.4-.4 1-.4 1.4 0 .4.4.4 1 0 1.4L55 55.7l1.7 1.8z"></path></svg>