<?xml version="1.0" encoding="UTF-8" standalone="no"?>
<!-- Uploaded to: SVG Repo, www.svgrepo.com, Generator: SVG Repo Mixer Tools -->

<svg
   height="800px"
   width="800px"
   version="1.1"
   id="Capa_1"
   viewBox="0 0 273.881 273.881"
   xml:space="preserve"
   xmlns="http://www.w3.org/2000/svg"
   xmlns:svg="http://www.w3.org/2000/svg"><defs
   id="defs3">
	
	
	
</defs>

<g
   id="g5"
   transform="translate(-3.1659782,5.0966372)"><g
     id="g3"
     transform="matrix(0.98456721,0,0,0.92279588,-4.0224957,-2.9050986)"><path
       style="fill:#ffd4c4"
       d="m 237.37909,146.819 c -3.769,-22.452 -19.598,-26.04 -27.035,-26.462 -2.341,-0.133 -4.516,-1.32 -5.8,-3.282 -5.388,-8.225 -12.609,-10.4 -18.743,-10.4 -4.405,0 -8.248,1.122 -10.448,1.932 -0.275,0.102 -0.559,0.15 -0.837,0.15 -0.87,0 -1.702,-0.471 -2.163,-1.262 -5.473,-9.387 -13.253,-11.809 -19.822,-11.809 -3.824,-0.001 -7.238,0.82 -9.549,1.564 -0.24,0.077 -0.489,0.114 -0.724,0.114 -1.256,0 -2.363,-1.031 -2.363,-2.377 V 46.715 c 0,-11.034 -8.224,-16.551 -16.5,-16.551 -8.276,0 -16.5,5.517 -16.5,16.551 v 84.912 c 0,4.99 -4.086,8.075 -8.193996,8.075 -2.494,0 -5.036,-1.138 -6.689,-3.678 l -8.006,-12.281 c -3.508,-5.788 -8.61,-8.188 -13.659,-8.188 -11.412,-0.001 -22.591,12.258 -14.661,25.344 l 62.482996,119.65 c 0.409,0.782 1.217,1.332 2.099,1.332 h 87.758 c 1.252,0 2.289,-1.034 2.365,-2.284 l 2.196,-35.796 c 0.025,-0.413 0.162,-0.83 0.39,-1.175 21.784,-32.994 28.02,-54.249 24.402,-75.807 z"
       id="path1" /><path
       d="m 249.931,144.833 c -4.948,-29.482 -26.584,-35.193 -35.98,-36.267 -6.672,-8.979 -16.329,-13.892 -27.432,-13.892 -2.663,0 -5.164,0.378 -7.411,0.794 -6.587,-7.586 -15.392,-11.588 -25.698,-11.588 -0.209,0 -0.797,0 -0.797,0 V 46.715 c 0,-16.276 -12.223,-28.551 -28.5,-28.551 -16.277,0 -28.5,12.274 -28.5,28.551 v 71.639 l -0.704,-1.012 c -5.389,-8.764 -14.075,-13.786 -23.826,-13.787 -10.508,-0.001 -20.65,5.932 -25.823,15.112 -4.94,8.771 -4.696,18.985 0.666,28.089 l 62.325,119.351 c 2.486,4.759 7.364,7.774 12.733,7.774 h 87.758 c 7.578,0 13.878,-5.984 14.343,-13.549 l 2.039,-33.243 c 21.77,-33.502 28.965,-57.487 24.807,-82.256 z m -36.627,78.938 -2.196,35.825 c -0.076,1.25 -1.113,2.284 -2.365,2.284 h -87.758 c -0.882,0 -1.691,-0.55 -2.1,-1.332 L 56.4,140.928 c -7.929,-13.086 3.246,-25.36 14.659,-25.359 5.049,10e-4 10.146,2.393 13.653,8.182 l 7.994,12.277 c 1.653,2.54 4.218,3.676 6.712,3.676 4.107,0 8.194,-3.087 8.194,-8.077 V 46.715 c 0,-11.034 8.224,-16.551 16.5,-16.551 8.276,0 16.5,5.517 16.5,16.551 v 48.273 c 0,1.346 1.107,2.377 2.363,2.377 0.235,0 0.481,-0.037 0.721,-0.114 2.31,-0.744 5.726,-1.565 9.55,-1.564 6.569,0 14.351,2.422 19.823,11.809 0.462,0.791 1.294,1.262 2.164,1.262 0.278,0 0.562,-0.049 0.837,-0.15 2.2,-0.81 6.044,-1.932 10.449,-1.932 6.133,0 13.355,2.176 18.743,10.4 1.285,1.962 3.46,3.15 5.8,3.282 7.438,0.422 23.266,4.01 27.035,26.462 3.618,21.558 -2.618,42.797 -24.403,75.792 -0.228,0.344 -0.365,0.746 -0.39,1.159 z"
       id="path2" /></g><g
     id="g4"
     transform="matrix(0.21574337,0,0,0.19767814,62.803818,9.6866926)"><g
       id="g1">
	<polygon
   style="fill:#da4453"
   points="202.655,421.367 255.997,300.183 309.341,421.367 339.011,384.993 387.448,386.993 318.699,230.762 255.997,258.355 193.304,230.762 124.539,386.993 172.976,384.993 "
   id="polygon1" />
	<path
   style="fill:#da4453"
   d="m 398.058,246.387 -141.1,18 -123.661,-14.219 -118.943,54.452 3.438,9.281 c 0.5,1.343 12.703,32.765 61.749,32.765 h 0.008 c 40.812,0 95.451,-21.859 162.395,-64.967 l 14.054,-9.047 14.055,9.047 c 66.943,43.107 121.584,64.967 162.41,64.967 v 0 c 49.047,0 61.249,-31.422 61.749,-32.765 l 3.078,-8.312 z"
   id="path1-0" />
</g><path
       style="fill:#ed5564"
       d="m 484.306,116.249 c -11.578,-17 -28.984,-25.624 -51.703,-25.624 -34.904,0 -82.482,20.796 -141.402,61.827 -12.828,8.937 -24.758,17.828 -35.203,25.937 -10.452,-8.109 -22.374,-17 -35.202,-25.937 C 161.867,111.421 114.298,90.625 79.4,90.625 c -22.734,0 -40.132,8.625 -51.717,25.624 -32.468,47.687 -36.742,124.622 -10.883,195.98 2.273,6.265 7.836,9.999 14.891,9.999 7.039,0 15.757,-3.641 28.968,-9.171 27.929,-11.672 74.678,-31.218 141.802,-31.218 15.523,0 31.491,1.077 47.537,3.187 1.719,0.359 10.273,0.359 12,0 16.047,-2.109 32.016,-3.187 47.531,-3.187 67.123,0 113.871,19.546 141.809,31.218 13.203,5.53 21.938,9.171 28.969,9.171 7.046,0 12.624,-3.734 14.89,-9.999 25.857,-71.358 21.575,-148.294 -10.891,-195.98 z"
       id="path2-6" /><path
       style="fill:#ffce54"
       d="m 320.012,229.34 c 0,35.359 -28.655,64.014 -64.015,64.014 -35.35,0 -64.014,-28.655 -64.014,-64.014 0,-35.358 28.664,-64.014 64.014,-64.014 35.359,0 64.015,28.656 64.015,64.014 z"
       id="path3" /><path
       style="fill:#f6bb42"
       d="m 287.997,229.34 c 0,17.671 -14.328,32 -32,32 -17.679,0 -32.006,-14.328 -32.006,-32 0,-17.672 14.328,-32 32.006,-32 17.672,0.001 32,14.329 32,32 z"
       id="path4" /></g></g></svg>
