<?xml version="1.0" encoding="iso-8859-1"?>
<!-- Uploaded to: SVG Repo, www.svgrepo.com, Generator: SVG Repo Mixer Tools -->
<svg height="800px" width="800px" version="1.1" id="Layer_1" xmlns="http://www.w3.org/2000/svg" xmlns:xlink="http://www.w3.org/1999/xlink" 
	 viewBox="0 0 512 512" xml:space="preserve">
<path style="fill:#0084FF;" d="M501.548,436.956c0,23.091-18.718,41.808-41.808,41.808H52.26c-23.091,0-41.808-18.718-41.808-41.808
	v-28.072c0-23.091,18.718-41.808,41.808-41.808H459.74c23.091,0,41.808,18.718,41.808,41.808V436.956z"/>
<path style="fill:#10BAFC;" d="M55.396,367.075V278.86c0-110.833,89.847-200.68,200.68-200.68l0,0
	c110.833,0,200.68,89.847,200.68,200.68v88.214H55.396z"/>
<path style="fill:#0084FF;" d="M256.076,78.18c15.352,0,30.297,1.731,44.661,4.995c0.182-1.641,0.283-3.306,0.283-4.995
	c0-24.822-20.122-44.944-44.944-44.944s-44.944,20.122-44.944,44.944c0,1.689,0.101,3.354,0.282,4.995
	C225.778,79.911,240.725,78.18,256.076,78.18z"/>
<path d="M255.924,159.429c5.773,0,10.452-4.679,10.452-10.452v-4.679c0-5.772-4.679-10.452-10.452-10.452
	c-5.772,0-10.452,4.68-10.452,10.452v4.679C245.472,154.749,250.153,159.429,255.924,159.429z"/>
<path d="M467.208,357.165V278.86c0-97.287-66.148-179.401-155.827-203.767c-1.608-29.114-25.797-52.308-55.305-52.308
	s-53.698,23.194-55.305,52.308C111.092,99.459,44.944,181.573,44.944,278.86v78.285C19.58,360.716,0,382.551,0,408.883v28.072
	c0,28.816,23.444,52.26,52.26,52.26H459.74c28.816,0,52.26-23.444,52.26-52.26v-28.072C512,382.603,492.499,360.8,467.208,357.165z
	 M256.076,43.689c16.348,0,30.065,11.435,33.599,26.724c-10.945-1.758-22.165-2.684-33.599-2.684
	c-11.434,0-22.654,0.927-33.598,2.684C226.01,55.123,239.728,43.689,256.076,43.689z M65.848,278.86
	c0-104.892,85.336-190.228,190.228-190.228s190.228,85.336,190.228,190.228v77.762h-79.436V193.718
	c0-4.586-0.342-9.198-1.018-13.705c-0.855-5.709-6.182-9.645-11.885-8.788c-5.709,0.855-9.644,6.176-8.788,11.885
	c0.523,3.486,0.787,7.055,0.787,10.608v162.905h-79.587V182.791c0-5.773-4.679-10.452-10.452-10.452
	c-5.772,0-10.452,4.679-10.452,10.452v173.833h-79.284V193.718c0-3.553,0.264-7.122,0.787-10.608
	c0.855-5.709-3.079-11.03-8.788-11.885c-5.705-0.856-11.03,3.079-11.885,8.788c-0.675,4.508-1.018,9.118-1.018,13.705v162.905
	H65.848V278.86z M491.096,436.956c0,17.29-14.066,31.356-31.356,31.356H52.26c-17.29,0-31.356-14.066-31.356-31.356v-28.072
	c0-17.29,14.066-31.356,31.356-31.356H459.74c17.29,0,31.356,14.066,31.356,31.356V436.956z"/>
<path d="M163.373,157.713c1.768,1.161,3.76,1.716,5.728,1.716c3.403,0,6.739-1.659,8.746-4.716c0.449-0.683,0.908-1.357,1.38-2.024
	c3.335-4.711,2.221-11.235-2.491-14.57c-4.712-3.335-11.236-2.22-14.569,2.491c-0.612,0.865-1.21,1.74-1.793,2.628
	C157.204,148.065,158.547,154.544,163.373,157.713z"/>
<path d="M334.305,154.714c2.007,3.057,5.343,4.716,8.746,4.716c1.968,0,3.959-0.555,5.727-1.716
	c4.825-3.169,6.168-9.649,2.999-14.474c-0.582-0.887-1.18-1.762-1.793-2.628c-3.335-4.71-9.859-5.828-14.569-2.491
	c-4.712,3.335-5.826,9.859-2.491,14.57C333.397,153.357,333.856,154.031,334.305,154.714z"/>
</svg>