<?xml version="1.0" encoding="UTF-8" standalone="no"?>
<!-- Uploaded to: SVG Repo, www.svgrepo.com, Generator: SVG Repo Mixer Tools -->

<svg
   fill="#000000"
   version="1.1"
   id="Layer_1"
   viewBox="0 0 128 128"
   xml:space="preserve"
   xmlns="http://www.w3.org/2000/svg"
   xmlns:svg="http://www.w3.org/2000/svg"><defs
   id="defs3" />
<path
   d="m 75.087898,23.173886 c 5.6,0 10.2,-4.3 10.2,-9.7 0,-5.4000007 -4.5,-9.8000007 -10.2,-9.8000007 -5.6,0 -10.2,4.4 -10.2,9.7000007 0,5.3 4.6,9.8 10.2,9.8"
   id="path1"
   style="fill:#d45500" />
<rect
   x="21.557962"
   y="88.091713"
   width="7.5"
   height="7.5"
   id="rect1"
   style="fill:#ff00ff" />
<polygon
   points="36.2,67.8 30.7,73.3 36.2,78.7 41.6,73.3 "
   id="polygon1"
   style="fill:#ff00ff"
   transform="translate(-1.7936306,2.6089172)" />
<polygon
   points="36.8,60.5 31.3,55.1 25.9,60.5 31.3,65.9 "
   id="polygon2"
   style="fill:#ff00ff" />

<path
   d="m 45.9375,46.584713 h -15.4 c -6.1,0 -6.1,7.6 0,7.6 h 17.6 c 1.3,0 2.7,-0.7 3.7,-2.2 l 8.8,-13.2 v 78.699997 c 0,3 2.6,5.5 5.7,5.5 3.2,0 5.7,-2.5 5.7,-5.5 V 71.784713 h 5.3 v 45.699997 c 0,3 2.6,5.5 5.7,5.5 3.2,0 5.7,-2.5 5.7,-5.5 V 38.784713 h 5.3 v 29 c 0,5.8 8,5.8 8,0 v -29.7 c 0,-6.5 -6.7,-12.8 -14.7,-12.8 h -20.2 c -4.6,0 -8.6,2.2 -10.9,5.6 z"
   id="path3"
   style="fill:#ff6600" />
</svg>
