<?xml version="1.0" encoding="UTF-8" standalone="no"?>
<!-- Uploaded to: SVG Repo, www.svgrepo.com, Generator: SVG Repo Mixer Tools -->

<svg
   width="800px"
   height="800px"
   viewBox="0 0 128 128"
   data-name="Слой 1"
   id="Слой_1"
   version="1.1"
   xmlns="http://www.w3.org/2000/svg"
   xmlns:svg="http://www.w3.org/2000/svg">
  <defs
     id="defs1">
    <style
       id="style1">.cls-1{fill:#9e9e9e;}.cls-2{fill:#404040;}</style>
    <radialGradient
       id="paint0_radial"
       cx="0"
       cy="0"
       r="1"
       gradientUnits="userSpaceOnUse"
       gradientTransform="matrix(12.462953,-7.0248057,5.5724508,9.8862791,9.38479,8.34769)">
      <stop
         offset="0.2479"
         stop-color="#FF0000"
         id="stop7" />
      <stop
         offset="0.8639"
         stop-color="#C20000"
         id="stop8" />
    </radialGradient>
    <radialGradient
       id="paint1_radial"
       cx="0"
       cy="0"
       r="1"
       gradientUnits="userSpaceOnUse"
       gradientTransform="matrix(10.730158,-6.0481071,4.7977011,8.5117687,9.7385,7.47018)">
      <stop
         offset="0.2479"
         stop-color="#FF0000"
         id="stop9" />
      <stop
         offset="1"
         stop-color="#C20000"
         id="stop10" />
    </radialGradient>
    <radialGradient
       id="paint2_radial"
       cx="0"
       cy="0"
       r="1"
       gradientUnits="userSpaceOnUse"
       gradientTransform="matrix(12.462953,-7.0248057,5.5724508,9.8862791,9.38479,8.34769)">
      <stop
         stop-color="white"
         stop-opacity="0.25"
         id="stop11" />
      <stop
         offset="1"
         stop-color="white"
         stop-opacity="0"
         id="stop12" />
    </radialGradient>
    <radialGradient
       id="paint3_radial"
       cx="0"
       cy="0"
       r="1"
       gradientUnits="userSpaceOnUse"
       gradientTransform="matrix(9.3624204,-4.6263831,2.2860927,4.6263703,14.5277,13.2044)">
      <stop
         stop-color="#BD2719"
         stop-opacity="0.25"
         id="stop13" />
      <stop
         offset="1"
         stop-color="#BD2719"
         stop-opacity="0"
         id="stop14" />
    </radialGradient>
    <radialGradient
       id="paint4_radial"
       cx="0"
       cy="0"
       r="1"
       gradientUnits="userSpaceOnUse"
       gradientTransform="matrix(3.4496436,-1.3721383,0.85235111,2.1428653,7.34746,7.19453)">
      <stop
         stop-color="white"
         id="stop15" />
      <stop
         offset="1"
         stop-color="white"
         stop-opacity="0"
         id="stop16" />
    </radialGradient>
    <radialGradient
       id="paint5_radial"
       cx="0"
       cy="0"
       r="1"
       gradientUnits="userSpaceOnUse"
       gradientTransform="matrix(2.3281036,-2.0069714,1.246783,1.4462788,14.6004,6.84619)">
      <stop
         stop-color="white"
         id="stop17" />
      <stop
         offset="1"
         stop-color="white"
         stop-opacity="0"
         id="stop18" />
    </radialGradient>
    <linearGradient
       id="paint6_linear"
       x1="13.8868"
       y1="26.8498"
       x2="15.6583"
       y2="2.9640801"
       gradientUnits="userSpaceOnUse">
      <stop
         stop-color="#860805"
         id="stop19" />
      <stop
         offset="1"
         stop-color="#BD2719"
         stop-opacity="0"
         id="stop20" />
    </linearGradient>
  </defs>
  <title
     id="title1" />
  <g
     id="g2"
     transform="matrix(0.63567373,0,0,0.62893088,4.893204,4.0203421)">
    <path
       class="cls-1"
       d="M 64,112.2 A 48.3,48.3 0 0 0 74.76,111 l 11.78,10.78 a 61.91,61.91 0 0 0 16.21,-9.37 L 99.3,96.8 a 48.13,48.13 0 0 0 10.78,-18.63 l 15.22,-4.81 a 62.58,62.58 0 0 0 0,-18.71 L 110.08,49.84 A 48.13,48.13 0 0 0 99.3,31.2 l 3.45,-15.59 A 61.91,61.91 0 0 0 86.54,6.24 L 74.76,17 A 48,48 0 0 0 53.24,17 L 41.46,6.24 A 61.91,61.91 0 0 0 25.25,15.61 L 28.7,31.2 A 48.13,48.13 0 0 0 17.92,49.83 L 2.7,54.64 a 62.57,62.57 0 0 0 0,18.71 l 15.22,4.81 A 48.13,48.13 0 0 0 28.7,96.8 l -3.45,15.59 a 61.91,61.91 0 0 0 16.21,9.37 L 53.24,111 A 48.3,48.3 0 0 0 64,112.2 Z M 42,64 A 22,22 0 1 1 64,86 22,22 0 0 1 42,64 Z"
       id="path1" />
    <path
       class="cls-2"
       d="m 86.54,123.76 a 2,2 0 0 1 -1.35,-0.52 l -11,-10.08 a 50.2,50.2 0 0 1 -20.34,0 l -11,10.08 a 2,2 0 0 1 -2.08,0.39 63.83,63.83 0 0 1 -16.77,-9.69 2,2 0 0 1 -0.7,-2 L 26.52,97.37 A 50.48,50.48 0 0 1 16.33,79.76 L 2.1,75.26 a 2,2 0 0 1 -1.37,-1.6 64.57,64.57 0 0 1 0,-19.31 2,2 0 0 1 1.37,-1.61 l 14.23,-4.5 A 50.5,50.5 0 0 1 26.52,30.62 L 23.3,16 A 2,2 0 0 1 24,14 63.83,63.83 0 0 1 40.73,4.38 2,2 0 0 1 42.81,4.77 l 11,10.08 a 50.2,50.2 0 0 1 20.34,0 l 11,-10.08 a 2,2 0 0 1 2.08,-0.39 63.83,63.83 0 0 1 16.77,9.68 2,2 0 0 1 0.7,2 l -3.22,14.57 a 50.48,50.48 0 0 1 10.19,17.62 l 14.23,4.5 a 2,2 0 0 1 1.38,1.61 64.58,64.58 0 0 1 0,19.31 2,2 0 0 1 -1.37,1.61 l -14.23,4.5 A 50.49,50.49 0 0 1 101.49,97.4 l 3.21,14.6 a 2,2 0 0 1 -0.7,2 63.83,63.83 0 0 1 -16.73,9.67 2,2 0 0 1 -0.73,0.09 z M 27.48,111.59 A 59.83,59.83 0 0 0 41,119.43 l 10.85,-9.93 a 2,2 0 0 1 1.79,-0.47 46.26,46.26 0 0 0 20.63,0 2,2 0 0 1 1.8,0.47 L 87,119.43 a 59.83,59.83 0 0 0 13.56,-7.84 L 97.35,97.23 a 2,2 0 0 1 0.49,-1.79 46.4,46.4 0 0 0 10.33,-17.86 2,2 0 0 1 1.31,-1.32 l 14,-4.43 a 60.56,60.56 0 0 0 0,-15.66 l -14,-4.43 A 2,2 0 0 1 108.17,50.42 46.4,46.4 0 0 0 97.84,32.56 2,2 0 0 1 97.35,30.77 l 3.17,-14.36 A 59.83,59.83 0 0 0 87,8.57 L 76.11,18.5 a 2,2 0 0 1 -1.8,0.47 46.26,46.26 0 0 0 -20.63,0 2,2 0 0 1 -1.79,-0.47 L 41,8.57 a 59.83,59.83 0 0 0 -13.56,7.84 l 3.17,14.36 a 2,2 0 0 1 -0.49,1.79 46.41,46.41 0 0 0 -10.28,17.86 2,2 0 0 1 -1.31,1.32 l -14,4.43 a 60.56,60.56 0 0 0 0,15.66 l 14,4.43 a 2,2 0 0 1 1.31,1.32 46.42,46.42 0 0 0 10.32,17.86 2,2 0 0 1 0.49,1.79 z M 64,88 A 24,24 0 1 1 88,64 24,24 0 0 1 64,88 Z M 64,44 A 20,20 0 1 0 84,64 20,20 0 0 0 64,44 Z"
       id="path2" />
  </g>
  <path
     d="M 97.229617,111.60035 C 83.720376,118.50016 72.576374,118.49418 57.78443,113.8983 42.804133,109.24381 33.131188,93.216811 33.131188,81.727101 c 0,-6.30509 10.141111,-10.04614 13.629791,-11.146396 0.687332,-0.216924 1.162153,-0.810713 1.162153,-1.486997 V 51.853856 c 0,-4.441922 3.863164,-8.042797 8.628635,-8.042797 4.765472,0 8.628636,3.600875 8.628636,8.042797 v -5.744855 c 0,-4.441922 3.863166,-8.042797 8.62863,-8.042797 4.765475,0 8.628641,3.600875 8.628641,8.042797 v 5.744855 c 0,-4.441922 3.863157,-8.042797 8.628632,-8.042797 4.765474,0 8.628629,3.600875 8.628629,8.042797 V 34.619268 c 0,-4.441899 3.863175,-8.042775 8.628645,-8.042775 4.76546,0 8.62864,3.600876 8.62864,8.042775 v 47.640725 c 0,5.680979 -1.46022,11.325181 -5.02435,15.933477 -3.62426,4.68596 -8.88649,10.43863 -14.698253,13.40688 z"
     fill="#2F88FF"
     stroke="#000000"
     stroke-width="9.52068"
     stroke-linecap="round"
     stroke-linejoin="round"
     id="path1-7"
     style="fill:#ffccaa" />
  <g
     id="g20"
     transform="matrix(2.1152468,0,0,2.1824083,52.906677,55.256807)">
    <path
       d="M 16.1315,3.71436 C 14.4172,3.71436 12.9029,4.57721 12,5.8915 11.0972,4.57721 9.58289,3.71436 7.86861,3.71436 5.10289,3.71436 2.85718,5.96007 2.85718,8.72578 2.85718,14.8344 12,20.3258 12,20.3258 c 0,0 9.1429,-5.4914 9.1429,-11.60002 0,-2.76571 -2.2457,-5.01142 -5.0114,-5.01142 z"
       fill="url(#paint0_radial)"
       id="path1-1"
       style="fill:url(#paint0_radial)" />
    <path
       opacity="0.5"
       d="m 18.2056,4.16016 c 2.7429,4.37142 0.2172,10.10854 -2.8171,11.73714 -3.3486,1.8 -5.64003,0.9543 -10.38288,-1.7371 2.70285,3.5828 6.99428,6.16 6.99428,6.16 0,0 9.1429,-5.4915 9.1429,-11.60004 0,-2.02286 -1.2058,-3.77143 -2.9372,-4.56 z"
       fill="url(#paint1_radial)"
       id="path2-2"
       style="fill:url(#paint1_radial)" />
    <path
       opacity="0.5"
       d="M 16.1315,3.71436 C 14.4172,3.71436 12.9029,4.57721 12,5.8915 11.0972,4.57721 9.58289,3.71436 7.86861,3.71436 5.10289,3.71436 2.85718,5.96007 2.85718,8.72578 2.85718,14.8344 12,20.3258 12,20.3258 c 0,0 9.1429,-5.4914 9.1429,-11.60002 0,-2.76571 -2.2457,-5.01142 -5.0114,-5.01142 z"
       fill="url(#paint2_radial)"
       id="path3"
       style="fill:url(#paint2_radial)" />
    <path
       opacity="0.5"
       d="M 16.1315,3.71436 C 14.4172,3.71436 12.9029,4.57721 12,5.8915 11.0972,4.57721 9.58289,3.71436 7.86861,3.71436 5.10289,3.71436 2.85718,5.96007 2.85718,8.72578 2.85718,14.8344 12,20.3258 12,20.3258 c 0,0 9.1429,-5.4914 9.1429,-11.60002 0,-2.76571 -2.2457,-5.01142 -5.0114,-5.01142 z"
       fill="url(#paint3_radial)"
       id="path4"
       style="fill:url(#paint3_radial)" />
    <path
       opacity="0.24"
       d="M 10.7486,5.74883 C 11.2514,6.93169 10.1371,8.5374 8.25714,9.33169 6.37714,10.126 4.45143,9.8174 3.94857,8.64026 3.44571,7.46312 4.56,5.85169 6.44,5.0574 8.32,4.26312 10.2457,4.56597 10.7486,5.74883 Z"
       fill="url(#paint4_radial)"
       id="path5"
       style="fill:url(#paint4_radial)" />
    <path
       opacity="0.24"
       d="m 16.8742,4.78885 c 0.7143,0.78857 0.2743,2.34857 -0.9771,3.48 -1.2515,1.13143 -2.8458,1.41143 -3.56,0.62285 -0.7143,-0.78857 -0.2743,-2.34857 0.9771,-3.47999 1.2514,-1.13143 2.8457,-1.41143 3.56,-0.62286 z"
       fill="url(#paint5_radial)"
       id="path6"
       style="fill:url(#paint5_radial)" />
    <path
       opacity="0.32"
       d="m 16.2229,5.04578 c 2.5143,0.85715 4.9143,4.57143 0.8572,9.20002 -2.4286,2.7714 -5.08,4.1714 -8.45144,3.6228 1.82284,1.52 3.37714,2.4572 3.37714,2.4572 0,0 9.1429,-5.4914 9.1429,-11.60002 -0.0058,-2.76571 -2.2515,-5.01142 -5.0172,-5.01142 -1.7143,0 -3.2286,0.86285 -4.1314,2.17714 0,0 2.3828,-1.47429 4.2228,-0.84572 z"
       fill="url(#paint6_linear)"
       id="path7"
       style="fill:url(#paint6_linear)" />
  </g>
</svg>
