<?xml version="1.0" encoding="UTF-8" standalone="no"?>
<!-- Uploaded to: SVG Repo, www.svgrepo.com, Generator: SVG Repo Mixer Tools -->

<svg
   width="800px"
   height="800px"
   viewBox="0 0 64 64"
   version="1.1"
   id="svg18"
   sodipodi:docname="image.svg"
   inkscape:version="1.4.4 (dcaf3e7d9e, 2026-05-05)"
   xmlns:inkscape="http://www.inkscape.org/namespaces/inkscape"
   xmlns:sodipodi="http://sodipodi.sourceforge.net/DTD/sodipodi-0.dtd"
   xmlns="http://www.w3.org/2000/svg"
   xmlns:svg="http://www.w3.org/2000/svg">
  <defs
     id="defs18" />
  <sodipodi:namedview
     id="namedview18"
     pagecolor="#ffffff"
     bordercolor="#000000"
     borderopacity="0.25"
     inkscape:showpageshadow="2"
     inkscape:pageopacity="0.0"
     inkscape:pagecheckerboard="0"
     inkscape:deskcolor="#d1d1d1"
     inkscape:zoom="1.07125"
     inkscape:cx="399.53326"
     inkscape:cy="400"
     inkscape:window-width="1920"
     inkscape:window-height="1043"
     inkscape:window-x="0"
     inkscape:window-y="0"
     inkscape:window-maximized="1"
     inkscape:current-layer="svg18" />
  <title
     id="title1">football-player-spain</title>
  <circle
     cx="28"
     cy="33"
     r="23"
     style="fill:#e5efef"
     id="circle1" />
  <path
     d="m 26.1,32.424 -6.9,10.05 a 2.378,2.378 0 0 0 0.51,3.029 l 2.747,2.324 a 4.36,4.36 0 0 1 1.354,4.606 l -0.735,2.4 -7.242,-7.483 a 5.4,5.4 0 0 1 -0.965,-6.138 l 6.043,-12.289 z"
     style="fill:#6b4f5b;stroke:#4c241d;stroke-width:2px;stroke-linecap:round;stroke-linejoin:round"
     id="path4" />
  <path
     d="m 32,37 -9,24 v 0 a 3.138,3.138 0 0 1 -3.048,-3.885 l 5.93,-24.194 z"
     style="fill:#6b4f5b;stroke:#4c241d;stroke-width:2px;stroke-linecap:round;stroke-linejoin:round"
     id="path5" />
  <path
     d="m 21.217,19.21 -13.24,0.736 a 1.715,1.715 0 0 1 -1.52,-0.76 v 0 A 1.712,1.712 0 0 1 7.588,16.55 l 14.264,-2.481 z"
     style="fill:#ffe8dc;stroke:#4c241d;stroke-width:2px;stroke-linecap:round;stroke-linejoin:round"
     id="path6" />
  <path
     d="m 42.273,20.93 2.885,1.6 a 1.934,1.934 0 0 0 1.722,0.076 L 54.105,19.4 a 1.425,1.425 0 0 1 1.587,0.294 v 0 a 1.426,1.426 0 0 1 -0.289,2.24 l -9.092,5.3 a 3.014,3.014 0 0 1 -2.706,0.167 L 41.26,26.4 Z"
     style="fill:#ffe8dc;stroke:#4c241d;stroke-width:2px;stroke-linecap:round;stroke-linejoin:round"
     id="path7" />
  <path
     d="M 41.26,26.4 38,25 32,37 20,29 l 5,-10 -3.783,0.21 0.635,-5.141 3.306,-0.575 a 8.167,8.167 0 0 1 5.364,0.907 l 11.751,6.529 z"
     style="fill:#ffb380;stroke:#4c241d;stroke-width:2px;stroke-linecap:round;stroke-linejoin:round"
     id="path8" />
  <line
     x1="6"
     y1="30"
     x2="6"
     y2="32"
     style="fill:none;stroke:#4c241d;stroke-width:2px;stroke-linecap:round;stroke-linejoin:round"
     id="line8" />
  <line
     x1="6"
     y1="36"
     x2="6"
     y2="38"
     style="fill:none;stroke:#4c241d;stroke-width:2px;stroke-linecap:round;stroke-linejoin:round"
     id="line9" />
  <line
     x1="2"
     y1="34"
     x2="4"
     y2="34"
     style="fill:none;stroke:#4c241d;stroke-width:2px;stroke-linecap:round;stroke-linejoin:round"
     id="line10" />
  <line
     x1="8"
     y1="34"
     x2="10"
     y2="34"
     style="fill:none;stroke:#4c241d;stroke-width:2px;stroke-linecap:round;stroke-linejoin:round"
     id="line11" />
  <path
     d="M 6.082,53.667 A 1.069,1.069 0 1 1 5.013,52.6 1.07,1.07 0 0 1 6.082,53.667 Z"
     style="fill:#4c241d"
     id="path11" />
  <path
     d="m 39.218,15.567 -1.9,-0.908 a 5.4,5.4 0 0 1 -2.55,-7.2 L 35.352,6.233 A 3.756,3.756 0 0 1 40.357,4.46 v 0 a 3.755,3.755 0 0 1 1.773,5 z"
     style="fill:#ffe8dc;stroke:#4c241d;stroke-width:2px;stroke-linecap:round;stroke-linejoin:round"
     id="path12" />
  <circle
     cx="42.5"
     cy="54.5"
     r="5.5"
     style="fill:#ffffff;stroke:#4c241d;stroke-width:2px;stroke-linecap:round;stroke-linejoin:round"
     id="circle12" />
  <circle
     cx="42.5"
     cy="54.5"
     r="1.09"
     style="fill:#4c241d"
     id="circle13" />
  <circle
     cx="42.5"
     cy="49.5"
     r="1.09"
     style="fill:#4c241d"
     id="circle14" />
  <circle
     cx="47.5"
     cy="54.5"
     r="1.09"
     style="fill:#4c241d"
     id="circle15" />
  <circle
     cx="45.5"
     cy="58.5"
     r="1.09"
     style="fill:#4c241d"
     id="circle16" />
  <circle
     cx="39.5"
     cy="58.5"
     r="1.09"
     style="fill:#4c241d"
     id="circle17" />
  <circle
     cx="37.5"
     cy="54.5"
     r="1.09"
     style="fill:#4c241d"
     id="circle18" />
</svg>
