<?xml version="1.0" encoding="UTF-8" standalone="no"?>
<!-- Uploaded to: SVG Repo, www.svgrepo.com, Generator: SVG Repo Mixer Tools -->

<svg
   version="1.1"
   id="Layer_1"
   viewBox="0 0 512 512"
   xml:space="preserve"
   sodipodi:docname="news-reporter-live-svgrepo-com.svg"
   inkscape:version="1.4.4 (dcaf3e7d9e, 2026-05-05)"
   xmlns:inkscape="http://www.inkscape.org/namespaces/inkscape"
   xmlns:sodipodi="http://sodipodi.sourceforge.net/DTD/sodipodi-0.dtd"
   xmlns="http://www.w3.org/2000/svg"
   xmlns:svg="http://www.w3.org/2000/svg"><defs
   id="defs23">
	
	
	
	
	
	
	
	
	
	
	
	
	
	
	
	
	
	
	
	
	
	
	
	
	
	
</defs><sodipodi:namedview
   id="namedview23"
   pagecolor="#ffffff"
   bordercolor="#000000"
   borderopacity="0.25"
   inkscape:showpageshadow="2"
   inkscape:pageopacity="0.0"
   inkscape:pagecheckerboard="0"
   inkscape:deskcolor="#d1d1d1"
   inkscape:zoom="1.6191406"
   inkscape:cx="256.30881"
   inkscape:cy="256"
   inkscape:window-width="1714"
   inkscape:window-height="1036"
   inkscape:window-x="36"
   inkscape:window-y="32"
   inkscape:window-maximized="0"
   inkscape:current-layer="Layer_1" />
<g
   id="g24"
   transform="matrix(1.5987478,0,0,1.6480951,-147.72092,-320.82026)"><path
     style="fill:#3db9f9"
     d="m 341.333,384 c 0,46.933 -38.4,85.333 -85.333,85.333 -46.933,0 -85.333,-38.4 -85.333,-85.333 0,-46.933 38.4,-85.333 85.333,-85.333 46.933,0 85.333,38.4 85.333,85.333"
     id="path9" /><path
     style="fill:#63d3fd"
     d="m 315.733,384 c 0,46.933 -32.427,85.333 -72.533,85.333 -40.106,0 -72.533,-38.4 -72.533,-85.333 0,-46.933 32.427,-85.333 72.533,-85.333 40.106,0 72.533,38.4 72.533,85.333"
     id="path10" /><path
     d="m 256,477.867 c -52.053,0 -93.867,-41.813 -93.867,-93.867 0,-52.054 41.813,-93.867 93.867,-93.867 52.054,0 93.867,41.813 93.867,93.867 0,52.054 -41.814,93.867 -93.867,93.867 z M 256,307.2 c -42.667,0 -76.8,34.133 -76.8,76.8 0,42.667 34.133,76.8 76.8,76.8 42.667,0 76.8,-34.133 76.8,-76.8 0,-42.667 -34.133,-76.8 -76.8,-76.8 z"
     id="path11" /><path
     d="m 256,477.867 c -29.013,0 -55.467,-44.373 -55.467,-93.867 0,-49.494 26.453,-93.867 55.467,-93.867 29.014,0 55.467,44.373 55.467,93.867 0,49.494 -26.454,93.867 -55.467,93.867 z M 256,307.2 c -15.36,0 -38.4,33.28 -38.4,76.8 0,43.52 23.04,76.8 38.4,76.8 15.36,0 38.4,-33.28 38.4,-76.8 0,-43.52 -23.04,-76.8 -38.4,-76.8 z"
     id="path12" /><rect
     x="170.66701"
     y="375.46701"
     width="170.66701"
     height="17.066999"
     id="rect12" /><rect
     x="247.467"
     y="298.66699"
     width="17.066999"
     height="170.66701"
     id="rect13" /></g><g
   id="g23"
   transform="matrix(1.3347415,0,0,1.1742394,-187.59955,41.997588)"><path
     style="fill:#00da6c"
     d="m 296.107,106.667 c -11.947,7.68 -25.6,12.8 -40.107,12.8 -14.507,0 -28.16,-5.12 -40.107,-12.8 -17.067,12.8 -28.16,32.427 -28.16,55.467 V 230.4 h 136.533 v -68.267 c 10e-4,-23.04 -11.093,-42.666 -28.159,-55.466"
     id="path3" /><path
     style="fill:#ffe100"
     d="m 298.667,51.2 c 0,23.893 -18.773,42.667 -42.667,42.667 -23.894,0 -42.667,-18.774 -42.667,-42.667 0,-23.893 18.774,-42.667 42.667,-42.667 23.893,0 42.667,18.774 42.667,42.667"
     id="path4" /><path
     d="M 256,102.4 C 227.84,102.4 204.8,79.36 204.8,51.2 204.8,23.04 227.84,0 256,0 c 28.16,0 51.2,23.04 51.2,51.2 0,28.16 -23.04,51.2 -51.2,51.2 z m 0,-85.333 c -18.773,0 -34.133,15.36 -34.133,34.133 0,18.773 15.36,34.133 34.133,34.133 18.773,0 34.133,-15.36 34.133,-34.133 0,-18.773 -15.36,-34.133 -34.133,-34.133 z"
     id="path15" /><path
     d="m 256,196.267 c -3.413,0 -5.973,-1.707 -7.68,-4.267 l -25.6,-42.667 c -1.707,-2.56 -1.707,-5.973 0,-8.533 l 13.653,-26.453 c 1.707,-3.413 5.12,-5.12 9.387,-4.267 7.68,1.707 13.653,1.707 21.333,0 3.413,-0.853 7.68,0.853 9.387,4.267 l 13.653,26.453 c 1.707,2.56 0.853,5.973 0,8.533 L 264.533,192 c -2.56,2.56 -5.12,4.267 -8.533,4.267 z M 239.787,145.067 256,171.52 272.213,145.067 263.68,128 c -5.12,0.853 -9.387,0.853 -14.507,0 z"
     id="path23" /></g>
</svg>
