<?xml version="1.0" encoding="iso-8859-1"?>
<!-- Uploaded to: SVG Repo, www.svgrepo.com, Generator: SVG Repo Mixer Tools -->
<svg height="800px" width="800px" version="1.1" id="Layer_1" xmlns="http://www.w3.org/2000/svg" xmlns:xlink="http://www.w3.org/1999/xlink" 
	 viewBox="0 0 512 512" xml:space="preserve">
<path style="fill:#947859;" d="M512,158.118c0-62.375-114.616-112.941-256-112.941S0,95.743,0,158.118v82.819h81.943v-0.009
	c0.008,0.003,0.015,0.006,0.023,0.009c45.673-18.688,106.83-30.113,174.035-30.113s128.361,11.425,174.035,30.113h81.943v-82.066
	C511.98,158.619,512,158.369,512,158.118z"/>
<path style="fill:#80684C;" d="M256,45.176v165.647c67.204,0,128.361,11.425,174.035,30.113h81.943v-82.066
	c0.005-0.251,0.023-0.501,0.023-0.753C512,95.743,397.384,45.176,256,45.176z"/>
<path style="fill:#A58868;" d="M0,158.118c0,62.375,114.616,112.941,256,112.941s256-50.566,256-112.941v165.647
	c0,62.375-114.616,112.941-256,112.941S0,386.14,0,323.765V158.118z"/>
<path style="fill:#947859;" d="M256,271.059v165.647c141.384,0,256-50.566,256-112.941V158.118
	C512,220.493,397.384,271.059,256,271.059z"/>
<path style="fill:#CFCDD2;" d="M316.235,240.941H195.765c-29.062,0-52.706,23.644-52.706,52.706v120.471
	c0,29.062,23.644,52.706,52.706,52.706h120.471c29.062,0,52.706-23.644,52.706-52.706V293.647
	C368.941,264.585,345.297,240.941,316.235,240.941z M316.235,421.647H195.765c-4.152,0-7.529-3.378-7.529-7.529V293.647
	c0-4.152,3.378-7.529,7.529-7.529h120.471c4.152,0,7.529,3.378,7.529,7.529v37.647h-47.91c-5.307-4.671-12.246-7.529-19.855-7.529
	c-16.607,0-30.118,13.511-30.118,30.118S239.393,384,256,384c7.609,0,14.547-2.858,19.855-7.529h47.91v37.647
	C323.765,418.269,320.387,421.647,316.235,421.647z"/>
<path style="fill:#AEADB3;" d="M316.235,240.941H256v45.176h60.235c4.152,0,7.529,3.378,7.529,7.529v37.647h-47.91
	c-5.307-4.671-12.246-7.529-19.855-7.529V384c7.609,0,14.547-2.858,19.855-7.529h47.91v37.647c0,4.152-3.378,7.529-7.529,7.529H256
	v45.176h60.235c29.062,0,52.706-23.644,52.706-52.706V293.647C368.941,264.585,345.297,240.941,316.235,240.941z"/>
</svg>