<?xml version="1.0" encoding="UTF-8" standalone="no"?>
<!-- Uploaded to: SVG Repo, www.svgrepo.com, Generator: SVG Repo Mixer Tools -->

<svg
   height="800px"
   width="800px"
   version="1.1"
   id="Layer_1"
   viewBox="0 0 512 512"
   xml:space="preserve"
   xmlns="http://www.w3.org/2000/svg"
   xmlns:svg="http://www.w3.org/2000/svg"><defs
   id="defs16" />














<g
   id="g16"
   transform="translate(-5e-4,23.42776)"><path
     style="fill:#efc27b"
     d="m 100.553,14.654 c -32.143,0 -58.293,26.15 -58.293,58.293 0,32.143 26.15,58.293 58.293,58.293 32.143,0 58.293,-26.15 58.293,-58.293 0,-32.143 -26.15,-58.293 -58.293,-58.293 z"
     id="path5" /><path
     style="fill:#5286fa;stroke-width:1.64978"
     d="m 198.35,380.36428 c -1.953,-22.33224 -4.911,-43.60571 -8.744,-63.4584 C 186.4,300.30572 182.604,284.68267 178.264,270.30621 159.807,209.16949 131.827,170.101 100.553,170.101 45.107,170.101 0,292.87252 0,443.77913 0,414.57166 8.7,390.89214 19.431,390.89214 h 2.359 20.207 58.556 58.556 0.149 20.057 19.888 c -0.256,-3.5356 -0.548,-7.03581 -0.853,-10.52786 z"
     id="path6" /><path
     style="fill:#ecb45c"
     d="m 42.26,72.946 c 0,32.143 26.15,58.293 58.293,58.293 V 14.654 c -32.143,0 -58.293,26.15 -58.293,58.292 z"
     id="path7" /><path
     style="fill:#3d6deb;stroke-width:1.65785"
     d="m 0,446.46327 c 0,-29.49392 8.7,-53.40569 19.431,-53.40569 h 2.359 20.207 58.556 V 170.101 C 45.107,170.101 0,294.07662 0,446.46327 Z"
     id="path8" /><path
     style="fill:#efc27b"
     d="m 411.447,14.654 c -32.143,0 -58.293,26.15 -58.293,58.293 0,32.143 26.15,58.293 58.293,58.293 32.143,0 58.293,-26.15 58.293,-58.293 0,-32.143 -26.149,-58.293 -58.293,-58.293 z"
     id="path9" /><path
     style="fill:#5286fa;stroke-width:1.66988"
     d="m 411.447,170.101 c -31.275,0 -59.255,40.03174 -77.711,102.66708 -4.342,14.73166 -8.136,30.73766 -11.342,47.74195 -3.833,20.33654 -6.79,42.13148 -8.745,65.01393 -0.304,3.57207 -0.596,7.15529 -0.851,10.78314 h 19.888 20.057 0.149 58.556 58.556 20.207 2.359 c 10.731,0 19.431,24.25997 19.431,54.18338 C 512,295.88197 466.893,170.101 411.447,170.101 Z"
     id="path10" /><path
     style="fill:#ecb45c"
     d="m 353.155,72.946 c 0,32.143 26.15,58.293 58.293,58.293 V 14.654 c -32.143,0 -58.293,26.15 -58.293,58.292 z"
     id="path11" /><path
     style="fill:#3d6deb;stroke-width:1.67431"
     d="m 333.737,273.31201 c -4.342,14.80997 -8.136,30.90105 -11.342,47.99573 -3.833,20.44465 -6.79,42.35543 -8.745,65.35952 -0.304,3.59106 -0.596,7.19333 -0.851,10.84045 h 19.888 20.057 0.149 58.556 V 170.102 c -31.276,-0.003 -59.257,40.24173 -77.712,103.21001 z"
     id="path12" /><path
     style="fill:#efc27b"
     d="m 256,14.654 c -32.143,0 -58.293,26.15 -58.293,58.293 0,32.143 26.15,58.293 58.293,58.293 32.143,0 58.293,-26.15 58.293,-58.293 0,-32.143 -26.149,-58.293 -58.293,-58.293 z"
     id="path13" /><path
     style="fill:#00e7f0;stroke-width:1.75864"
     d="M 316.59,232.88532 C 299.023,191.81262 278.073,170.101 256,170.101 h -0.001 c -22.07,0 -43.023,21.71162 -60.588,62.78123 -6.357,14.86102 -12.115,32.07567 -17.146,51.08726 4.341,16.33939 8.136,34.0922 11.342,52.95224 3.833,22.55596 6.79,46.72947 8.744,72.10918 0.306,3.96191 0.597,7.93928 0.852,11.96304 h 56.798 56.798 c 0.255,-4.01758 0.547,-7.99804 0.851,-11.95995 1.955,-25.37662 4.912,-49.55013 8.745,-72.10918 3.206,-18.86313 7,-36.61903 11.342,-52.95224 -5.034,-19.01158 -10.79,-36.22315 -17.147,-51.08726 z"
     id="path14" /><path
     style="fill:#00d7df;stroke-width:1.76334"
     d="m 255.999,170.101 c -22.07,0 -43.023,21.82776 -60.588,63.11706 -6.357,14.94051 -12.115,32.24725 -17.146,51.36053 4.341,16.42679 8.136,34.27456 11.342,53.23549 3.833,22.67662 6.79,46.97944 8.744,72.49491 0.306,3.9831 0.597,7.98175 0.852,12.02703 h 56.798 z"
     id="path15" /><path
     style="fill:#ecb45c"
     d="m 197.707,72.946 c 0,32.143 26.15,58.293 58.293,58.293 V 14.654 c -32.143,0 -58.293,26.15 -58.293,58.292 z"
     id="path16" /></g>
</svg>
