<?xml version="1.0" encoding="UTF-8" standalone="no"?>
<!-- Uploaded to: SVG Repo, www.svgrepo.com, Generator: SVG Repo Mixer Tools -->

<svg
   version="1.1"
   id="Layer_1"
   viewBox="0 0 509.287 509.287"
   xml:space="preserve"
   sodipodi:docname="image.svg"
   inkscape:version="1.4.4 (dcaf3e7d9e, 2026-05-05)"
   xmlns:inkscape="http://www.inkscape.org/namespaces/inkscape"
   xmlns:sodipodi="http://sodipodi.sourceforge.net/DTD/sodipodi-0.dtd"
   xmlns="http://www.w3.org/2000/svg"
   xmlns:svg="http://www.w3.org/2000/svg"><defs
   id="defs9" /><sodipodi:namedview
   id="namedview9"
   pagecolor="#ffffff"
   bordercolor="#000000"
   borderopacity="0.25"
   inkscape:showpageshadow="2"
   inkscape:pageopacity="0.0"
   inkscape:pagecheckerboard="0"
   inkscape:deskcolor="#d1d1d1"
   inkscape:zoom="1.6827447"
   inkscape:cx="254.34636"
   inkscape:cy="254.64349"
   inkscape:window-width="1920"
   inkscape:window-height="1043"
   inkscape:window-x="0"
   inkscape:window-y="0"
   inkscape:window-maximized="1"
   inkscape:current-layer="Layer_1" />

<rect
   x="115.285"
   y="161.399"
   style="fill:#646B79;"
   width="279.057"
   height="273.293"
   id="rect1" />
<polygon
   style="fill:#F1F3F7;"
   points="479.449,149.87 254.644,34.246 29.838,149.87 "
   id="polygon1" />
<polygon
   style="fill:#FCFCFD;"
   points="126.474,126.474 254.644,60.694 382.813,126.474 "
   id="polygon2" />
<g
   id="g3">
	<rect
   x="60.016"
   y="149.87"
   style="fill:#DEDEDF;"
   width="389.256"
   height="22.718"
   id="rect2" />
	<rect
   x="60.016"
   y="423.502"
   style="fill:#DEDEDF;"
   width="389.256"
   height="22.718"
   id="rect3" />
</g>
<g
   id="g5">
	<rect
   x="40.011"
   y="445.203"
   style="fill:#BDBDBE;"
   width="429.266"
   height="22.718"
   id="rect4" />
	<path
   style="fill:#BDBDBE;"
   d="M70.188,172.927v13.563c0,9.155,7.46,16.615,16.615,16.615h57.642   c9.155,0,16.615-7.46,16.615-16.615v-13.563H70.188z"
   id="path4" />
	<path
   style="fill:#BDBDBE;"
   d="M161.06,423.502v-13.563c0-9.155-7.46-16.615-16.615-16.615H86.803   c-9.155,0-16.615,7.46-16.615,16.615v13.563H161.06z"
   id="path5" />
</g>
<rect
   x="86.124"
   y="203.105"
   style="fill:#DEDEDF;"
   width="59.338"
   height="190.559"
   id="rect5" />
<g
   id="g7">
	<path
   style="fill:#BDBDBE;"
   d="M209.886,172.927v13.563c0,9.155,7.46,16.615,16.615,16.615h57.981   c9.155,0,16.615-7.46,16.615-16.615v-13.563H209.886z"
   id="path6" />
	<path
   style="fill:#BDBDBE;"
   d="M300.758,423.502v-13.563c0-9.155-7.46-16.615-16.615-16.615h-57.981   c-9.155,0-16.615,7.46-16.615,16.615v13.563H300.758z"
   id="path7" />
</g>
<rect
   x="225.483"
   y="203.105"
   style="fill:#DEDEDF;"
   width="59.338"
   height="190.559"
   id="rect7" />
<g
   id="g9">
	<path
   style="fill:#BDBDBE;"
   d="M349.245,172.927v13.563c0,9.155,7.46,16.615,16.615,16.615h57.981   c9.155,0,16.615-7.46,16.615-16.615v-13.563H349.245z"
   id="path8" />
	<path
   style="fill:#BDBDBE;"
   d="M440.117,423.502v-13.563c0-9.155-7.46-16.615-16.615-16.615H365.86   c-9.155,0-16.615,7.46-16.615,16.615v13.563H440.117z"
   id="path9" />
</g>
<rect
   x="365.181"
   y="203.105"
   style="fill:#DEDEDF;"
   width="59.338"
   height="190.559"
   id="rect9" />
<g
   id="Layer_1-3"
   transform="matrix(7.2056195,0,0,5.8223133,77.918382,179.82383)"><path
     class="cls-3"
     d="M 32,51 H 29 L 27,49 H 10 V 19 h 4 v 24 c 0,0 12.15,-3 18,8 z"
     id="path1"
     style="fill:#274c77" /><path
     class="cls-3"
     d="M 50,43 V 19 h 4 V 49 H 37 c 0,0 -2,2 -2,2 h -3 c 5.85,-11 18,-8 18,-8 z"
     id="path2"
     style="fill:#274c77" /><path
     class="cls-2"
     d="M 32,51 C 26.15,40 14,43 14,43 V 16 l 6,-2 v 25 c 6.63,0 12,5.37 12,12 z"
     id="path3"
     style="fill:#6096ba" /><path
     class="cls-2"
     d="m 44,14 6,2 v 27 c 0,0 -12.15,-3 -18,8 0,-6.63 5.37,-12 12,-12 z"
     id="path4-6"
     style="fill:#6096ba" /><path
     class="cls-1"
     d="M 32,25 C 32,18.37 26.63,13 20,13 v 26 c 6.63,0 12,5.37 12,12 0,-6.63 5.37,-12 12,-12 V 13 c -6.63,0 -12,5.37 -12,12 z"
     id="path5-7"
     style="fill:#a3cef1" /></g></svg>
