<?xml version="1.0" encoding="UTF-8" standalone="no"?>
<!-- Uploaded to: SVG Repo, www.svgrepo.com, Generator: SVG Repo Mixer Tools -->

<svg
   fill="#000000"
   height="800px"
   width="800px"
   version="1.1"
   id="_x31_"
   viewBox="0 0 128 128"
   xml:space="preserve"
   xmlns="http://www.w3.org/2000/svg"
   xmlns:svg="http://www.w3.org/2000/svg"><defs
   id="defs3">
	
	
	
	
	
</defs>
<g
   id="g4"
   transform="translate(-80.326171,-3.8435262)"><circle
     cx="100.1"
     cy="27.200001"
     r="8.8999996"
     id="circle1"
     style="fill:#0000ff" /><path
     d="m 97.3,38.3 c 0.2,0 1.1,0.1 1.1,0.1 7,1.2 12.4,7.3 12.4,14.8 0,0.1 0.1,1.2 0,1.7 0,6.6 -0.8,13 -2.2,19.1 -0.4,1.8 -1.6,3.4 -3,4.6 v 40.9 c 0,3.1 -2.4,5.6 -5.6,5.6 -3.1,0 -5.6,-2.4 -5.6,-5.6 v -37 c 0.6,0.1 1.1,0.2 1.7,0.2 2,0 3.7,-0.9 4.8,-2.2 0.8,-1.1 1.3,-2.4 1.3,-3.9 v -25 c 0,-0.7 -0.4,-1.1 -1.1,-1.1 -0.7,0 -1.1,0.4 -1.1,1.1 v 25 c 0,2.1 -1.8,3.9 -3.9,3.9 -2.1,0 -3.9,-1.8 -3.9,-3.9 0,0 0,-33.2 0,-33.3 0.1,-2.8 2.3,-5 5.1,-5 z"
     id="path1"
     style="fill:#0000ff" /></g><g
   id="g3"
   transform="translate(81.313499,-3.7935261)"><circle
     cx="27.6"
     cy="27.200001"
     r="8.8999996"
     id="circle2"
     style="fill:#ff6600" /><path
     d="m 29.2,38.4 c 0,0 0.9,-0.1 1.1,-0.1 2.8,0 5,2.2 5,5 0,0.1 0,33.3 0,33.3 0,2.1 -1.8,3.9 -3.9,3.9 -2.1,0 -3.9,-1.8 -3.9,-3.9 v -25 c 0,-0.7 -0.4,-1.1 -1.1,-1.1 -0.7,0 -1.1,0.4 -1.1,1.1 v 25 c 0,1.4 0.6,2.8 1.3,3.9 1.1,1.3 2.8,2.2 4.8,2.2 0.6,0 1.1,-0.1 1.7,-0.2 v 36.9 c 0,3.1 -2.4,5.6 -5.6,5.6 -3.1,0 -5.6,-2.4 -5.6,-5.6 V 78.5 c -1.4,-1.1 -2.6,-2.8 -3,-4.6 -1.4,-6.1 -2.2,-12.6 -2.2,-19.1 -0.1,-0.4 0,-1.6 0,-1.7 0.1,-7.4 5.5,-13.5 12.5,-14.7 z"
     id="path2"
     style="fill:#ff6600" /></g>
<g
   id="g9"
   transform="matrix(0.14812352,0,0,0.1231405,26.374043,36.332506)"><path
     style="fill:#c0e3f0"
     d="M 400.463,123.454 V 26.999 H 111.538 v 96.456 c 0,59.34 35.782,110.312 86.941,132.546 -51.16,22.233 -86.941,73.207 -86.941,132.546 v 96.456 h 288.926 v -96.456 c 0,-59.34 -35.782,-110.312 -86.941,-132.546 51.159,-22.234 86.94,-73.207 86.94,-132.547 z"
     id="path1-0" /><path
     style="fill:#5a4146"
     d="M 410.369,0 H 101.631 C 86.72,0 74.632,12.089 74.632,26.999 v 0 c 0,14.912 12.088,26.999 26.999,26.999 h 308.738 c 14.911,0 26.999,-12.088 26.999,-26.999 v 0 C 437.369,12.089 425.28,0 410.369,0 Z"
     id="path2-9" /><path
     style="opacity:0.1;enable-background:new"
     d="M 134.219,26.999 C 134.219,12.089 146.306,0 161.217,0 H 101.631 C 86.72,0 74.632,12.089 74.632,26.999 c 0,14.912 12.088,26.999 26.999,26.999 h 59.586 c -14.911,0 -26.998,-12.087 -26.998,-26.999 z"
     id="path3" /><path
     style="fill:#ffd782"
     d="m 364.712,123.454 c 0,59.944 -48.768,108.712 -108.712,108.712 -59.944,0 -108.712,-48.768 -108.712,-108.712 z"
     id="path4" /><path
     style="opacity:0.1;enable-background:new"
     d="M 206.876,123.454 H 147.29 c 0,59.944 48.768,108.712 108.712,108.712 10.327,0 20.321,-1.448 29.793,-4.151 -45.508,-12.985 -78.919,-54.944 -78.919,-104.561 z"
     id="path5" /><path
     style="fill:#ffd782"
     d="m 147.29,479.043 v -42.828 c 0,-59.944 48.768,-108.712 108.712,-108.712 59.944,0 108.712,48.768 108.712,108.712 v 42.828 z"
     id="path6" /><path
     style="opacity:0.1;enable-background:new"
     d="m 285.793,331.654 c -9.472,-2.703 -19.466,-4.151 -29.793,-4.151 -59.944,0 -108.712,48.768 -108.712,108.712 v 42.828 h 59.586 v -42.828 c 0.002,-49.617 33.413,-91.576 78.919,-104.561 z"
     id="path7" /><path
     style="fill:#5a4146"
     d="M 410.369,512 H 101.631 C 86.72,512 74.632,499.911 74.632,485.001 v 0 c 0,-14.912 12.088,-26.999 26.999,-26.999 h 308.738 c 14.911,0 26.999,12.088 26.999,26.999 v 0 C 437.369,499.911 425.28,512 410.369,512 Z"
     id="path8" /><path
     style="opacity:0.1;enable-background:new"
     d="m 134.219,485 c 0,-14.912 12.088,-26.999 26.999,-26.999 h -59.586 c -14.911,0 -26.999,12.088 -26.999,26.999 0,14.911 12.088,26.999 26.999,26.999 h 59.586 C 146.306,512 134.219,499.911 134.219,485 Z"
     id="path9" /></g></svg>
