<?xml version="1.0" encoding="UTF-8" standalone="no"?>
<!-- Uploaded to: SVG Repo, www.svgrepo.com, Generator: SVG Repo Mixer Tools -->

<svg
   fill="#000000"
   height="800px"
   width="800px"
   version="1.1"
   viewBox="0 0 297 297"
   enable-background="new 0 0 297 297"
   id="svg6"
   sodipodi:docname="image.svg"
   inkscape:version="1.4.4 (dcaf3e7d9e, 2026-05-05)"
   xmlns:inkscape="http://www.inkscape.org/namespaces/inkscape"
   xmlns:sodipodi="http://sodipodi.sourceforge.net/DTD/sodipodi-0.dtd"
   xmlns="http://www.w3.org/2000/svg"
   xmlns:svg="http://www.w3.org/2000/svg">
  <defs
     id="defs6" />
  <sodipodi:namedview
     id="namedview6"
     pagecolor="#ffffff"
     bordercolor="#000000"
     borderopacity="0.25"
     inkscape:showpageshadow="2"
     inkscape:pageopacity="0.0"
     inkscape:pagecheckerboard="0"
     inkscape:deskcolor="#d1d1d1"
     inkscape:zoom="1.03625"
     inkscape:cx="399.51749"
     inkscape:cy="400"
     inkscape:window-width="1782"
     inkscape:window-height="1036"
     inkscape:window-x="36"
     inkscape:window-y="32"
     inkscape:window-maximized="0"
     inkscape:current-layer="svg6" />
  <path
     d="m 112.632,185.074 6.88,-3.972 c 2.804,-1.619 3.765,-5.205 2.146,-8.01 l -13.036,-22.579 c -1.086,-1.881 -3.057,-2.933 -5.083,-2.933 -0.995,0 -2.003,0.253 -2.926,0.787 l -6.88,3.972 c -0.945,0.545 -1.947,0.794 -2.923,0.794 -3.063,0 -5.872,-2.449 -5.872,-5.872 v -7.944 c 0,-3.238 -2.625,-5.864 -5.864,-5.864 H 53.001 c -3.238,0 -5.864,2.625 -5.864,5.864 v 7.944 c 0,3.423 -2.81,5.872 -5.872,5.872 -0.976,0 -1.978,-0.249 -2.923,-0.794 l -6.88,-3.972 c -0.923,-0.533 -1.932,-0.786 -2.926,-0.787 -2.027,0 -3.997,1.052 -5.083,2.933 l -13.036,22.579 c -1.619,2.805 -0.658,6.391 2.146,8.01 l 6.88,3.972 c 3.909,2.257 3.909,7.899 0,10.156 l -6.88,3.972 c -2.805,1.619 -3.765,5.205 -2.146,8.01 l 13.036,22.579 c 1.086,1.881 3.057,2.933 5.083,2.933 0.995,0 2.003,-0.254 2.926,-0.787 l 6.88,-3.972 c 0.945,-0.545 1.947,-0.794 2.923,-0.794 3.063,0 5.872,2.449 5.872,5.872 v 7.944 c 0,3.238 2.625,5.864 5.864,5.864 h 26.072 c 3.238,0 5.864,-2.625 5.864,-5.864 v -7.944 c 0,-3.423 2.81,-5.872 5.872,-5.872 0.976,0 1.978,0.249 2.923,0.794 l 6.88,3.972 c 0.923,0.533 1.932,0.787 2.926,0.787 2.027,0 3.997,-1.052 5.083,-2.933 l 13.036,-22.579 c 1.619,-2.805 0.658,-6.391 -2.146,-8.01 l -6.88,-3.972 c -3.908,-2.257 -3.908,-7.9 0.001,-10.156 z m -46.594,22.474 c -9.608,0 -17.396,-7.789 -17.396,-17.396 0,-9.608 7.789,-17.396 17.396,-17.396 9.607,0 17.396,7.789 17.396,17.396 0,9.607 -7.789,17.396 -17.396,17.396 z"
     id="path1"
     style="fill:#0000ff" />
  <path
     d="m 108.109,23.659 c -3.146,-3.144 -8.243,-3.144 -11.389,0 -3.145,3.146 -3.145,8.244 0,11.389 l 14.39,14.389 C 58.221,52.056 15.409,93.599 10.776,145.943 l 1.19,-2.062 c 3.406,-5.9 9.756,-9.565 16.57,-9.564 0.144,0 0.287,0.013 0.431,0.017 9.074,-37.721 41.965,-66.251 81.815,-68.729 L 96.72,79.666 c -3.145,3.145 -3.145,8.244 0,11.389 1.573,1.572 3.633,2.358 5.694,2.358 2.061,0 4.122,-0.786 5.694,-2.358 l 28.004,-28.004 c 1.51,-1.511 2.358,-3.559 2.358,-5.694 0,-2.136 -0.848,-4.184 -2.358,-5.694 z"
     id="path2"
     style="fill:#ff00ff" />
  <path
     d="m 209.868,64.857 c 17.881,0 32.428,-14.547 32.428,-32.428 C 242.296,14.547 227.749,0 209.868,0 191.987,0 177.44,14.547 177.44,32.428 c 0,17.881 14.547,32.429 32.428,32.429 z"
     id="path3"
     style="fill:#ffccaa" />
  <path
     d="m 273.039,152.276 v -44.58 c 0,-12.34 -7.93,-23.283 -19.657,-27.124 l -0.054,-0.018 -17.152,-2.84 c -1.46,-0.449 -3.02,0.324 -3.545,1.764 l -19.462,53.399 c -1.123,3.081 -5.48,3.081 -6.602,0 L 187.105,79.478 c -0.424,-1.163 -1.522,-1.892 -2.698,-1.892 -0.279,0 -17.999,2.964 -17.999,2.964 -11.823,3.94 -19.723,14.9 -19.723,27.294 v 44.432 c 0,6.659 5.398,12.056 12.056,12.056 h 102.241 c 6.66,0 12.057,-5.398 12.057,-12.056 z"
     id="path4"
     style="fill:#aa0000" />
  <path
     d="m 287.37,162.933 c -0.673,9.215 -8.233,14.858 -17.45,15.526 -7.062,40.425 -41.207,71.64 -82.979,74.237 l 14.061,-14.061 c 3.145,-3.146 3.145,-8.244 0,-11.389 -3.146,-3.144 -8.243,-3.144 -11.389,0 L 161.61,255.25 c -3.145,3.146 -3.145,8.244 0,11.389 l 28.003,28.003 c 1.573,1.572 3.633,2.358 5.694,2.358 2.061,0 4.122,-0.786 5.694,-2.358 3.145,-3.145 3.145,-8.244 0,-11.389 L 186.612,268.864 C 242.64,266.09 287.37,219.637 287.37,162.933 Z"
     id="path5"
     style="fill:#ff00ff" />
  <path
     d="m 216.936,77.105 c -0.747,-0.814 -1.84,-1.224 -2.946,-1.224 h -8.245 c -1.105,0 -2.198,0.41 -2.946,1.224 -1.157,1.261 -1.325,3.082 -0.504,4.505 l 4.407,6.644 -2.063,17.405 4.063,10.808 c 0.396,1.087 1.933,1.087 2.33,0 l 4.063,-10.808 -2.063,-17.405 4.407,-6.644 c 0.822,-1.423 0.654,-3.244 -0.503,-4.505 z"
     id="path6"
     style="fill:#ff0000" />
</svg>
