<?xml version="1.0" encoding="iso-8859-1"?>
<!-- Uploaded to: SVG Repo, www.svgrepo.com, Generator: SVG Repo Mixer Tools -->
<svg version="1.1" id="Layer_1" xmlns="http://www.w3.org/2000/svg" xmlns:xlink="http://www.w3.org/1999/xlink" 
	 viewBox="0 0 512 512" xml:space="preserve">
<g>
	<path style="fill:#875B51;" d="M438.468,236.936c-25.569,0-46.298,20.728-46.298,46.298v187.915h100.766l-21.787-234.213H438.468z"
		/>
	<path style="fill:#875B51;" d="M106.213,471.149V283.317c0-20.83-13.758-38.444-32.681-44.26L51.745,471.149H106.213z"/>
</g>
<path style="fill:#705147;" d="M471.149,8.17h-32.681l-16.34,21.787L405.787,8.17h-98.043l-16.34,21.787L275.064,8.17h-92.596
	l-21.787,21.787L138.894,8.17h-32.681l-16.34,21.787L73.532,8.17H8.17v430.298l65.362,21.787V239.057
	c-4.306-1.324-8.877-2.038-13.617-2.038l-19.064-0.083V73.532h299.574v130.723c0,9.024,7.316,16.34,16.34,16.34
	c9.024,0,16.34-7.316,16.34-16.34V73.532h119.83L471.149,8.17z"/>
<polygon style="fill:#59473C;" points="503.83,8.17 471.149,8.17 471.149,471.149 503.83,438.468 "/>
<g>
	<path style="fill:#875B51;" d="M73.532,8.17v130.723c0,9.024,7.316,16.34,16.34,16.34s16.34-7.316,16.34-16.34V8.17H73.532z"/>
	<path style="fill:#875B51;" d="M405.787,8.17v130.723c0,9.024,7.316,16.34,16.34,16.34c9.024,0,16.34-7.316,16.34-16.34V8.17
		H405.787z"/>
	<path style="fill:#875B51;" d="M275.064,8.17v130.723c0,9.024,7.316,16.34,16.34,16.34c9.024,0,16.34-7.316,16.34-16.34V8.17
		H275.064z"/>
	<path style="fill:#875B51;" d="M138.894,8.17v190.638c0,12.033,9.754,21.787,21.787,21.787s21.787-9.754,21.787-21.787V8.17
		H138.894z"/>
</g>
<path style="fill:#705147;" d="M204.255,329.532c0-12.033-9.754-21.787-21.787-21.787l-10.894,152.511h32.681V329.532z"/>
<path style="fill:#875B51;" d="M182.468,275.064c0-12.033-9.754-21.787-21.787-21.787s-21.787,9.754-21.787,21.787v185.191h43.574
	V275.064z"/>
<path style="fill:#4D392F;" d="M392.17,313.191h-32.681l46.298,147.064h32.681V359.489
	C438.468,333.92,417.74,313.191,392.17,313.191z"/>
<path style="fill:#705147;" d="M359.489,313.191c-25.569,0-46.298,20.728-46.298,46.298h-19.064
	c-25.569,0-46.298,20.728-46.298,46.298v54.468h157.957V359.489C405.787,333.92,385.059,313.191,359.489,313.191z"/>
<polygon style="fill:#D3552B;" points="471.149,438.468 449.362,471.149 471.149,503.83 503.83,503.83 503.83,438.468 "/>
<rect x="8.17" y="438.468" style="fill:#E86C16;" width="462.979" height="65.362"/>
<path d="M503.83,430.298H256v-24.511c0-21.024,17.104-38.128,38.128-38.128h19.064c4.512,0,8.17-3.657,8.17-8.17
	c0-21.024,17.104-38.128,38.128-38.128h32.681c21.024,0,38.128,17.104,38.128,38.128v46.298c0,4.513,3.658,8.17,8.17,8.17
	c4.512,0,8.17-3.657,8.17-8.17v-46.298c0-27.258-20.126-49.9-46.298-53.854v-22.402c0-21.024,17.104-38.128,38.128-38.128h32.681
	c4.512,0,8.17-3.657,8.17-8.17V73.532c0-4.513-3.658-8.17-8.17-8.17h-24.511V8.17c0-4.513-3.658-8.17-8.17-8.17
	c-4.512,0-8.17,3.657-8.17,8.17v130.723c0,4.506-3.665,8.17-8.17,8.17s-8.17-3.665-8.17-8.17V51.745c0-4.513-3.658-8.17-8.17-8.17
	c-4.512,0-8.17,3.657-8.17,8.17v13.617h-24.511c-4.512,0-8.17,3.657-8.17,8.17v130.723c0,4.506-3.665,8.17-8.17,8.17
	s-8.17-3.665-8.17-8.17V73.532c0-4.513-3.658-8.17-8.17-8.17h-32.681c-4.512,0-8.17,3.657-8.17,8.17v65.362
	c0,4.506-3.665,8.17-8.17,8.17s-8.17-3.665-8.17-8.17V8.17c0-4.513-3.658-8.17-8.17-8.17c-4.512,0-8.17,3.657-8.17,8.17v57.191
	h-84.426c-4.512,0-8.17,3.657-8.17,8.17v125.277c0,7.509-6.108,13.617-13.617,13.617s-13.617-6.108-13.617-13.617V73.543
	c0-0.021,0-65.373,0-65.373c0-4.513-3.658-8.17-8.17-8.17s-8.17,3.657-8.17,8.17v57.191h-24.511c-4.512,0-8.17,3.657-8.17,8.17
	v65.362c0,4.506-3.665,8.17-8.17,8.17s-8.17-3.665-8.17-8.17V8.17c0-4.513-3.658-8.17-8.17-8.17c-4.512,0-8.17,3.657-8.17,8.17
	v57.191H40.851c-4.512,0-8.17,3.657-8.17,8.17v163.404c0,4.499,3.636,8.151,8.134,8.17l19.1,0.083
	c21.024,0,38.128,17.104,38.128,38.128v146.981H8.17c-4.512,0-8.17,3.657-8.17,8.17c0,4.513,3.658,8.17,8.17,8.17h495.66
	c4.512,0,8.17-3.657,8.17-8.17C512,433.955,508.342,430.298,503.83,430.298z M59.951,228.849l-10.93-0.048V81.702h16.34v57.191
	c0,13.515,10.995,24.511,24.511,24.511s24.511-10.996,24.511-24.511V81.702h16.34v117.106c0,16.518,13.438,29.957,29.957,29.957
	s29.957-13.439,29.957-29.957V81.702h76.255v57.191c0,13.515,10.995,24.511,24.511,24.511c13.516,0,24.511-10.996,24.511-24.511
	V81.702h16.34v122.553c0,13.515,10.995,24.511,24.511,24.511c13.516,0,24.511-10.996,24.511-24.511V81.702h16.34v57.191
	c0,13.515,10.995,24.511,24.511,24.511c13.516,0,24.511-10.996,24.511-24.511V81.702h16.34v147.064h-24.511
	c-30.034,0-54.468,24.434-54.468,54.468v21.787h-24.511c-27.258,0-49.905,20.125-53.856,46.298h-11.506
	c-30.034,0-54.468,24.434-54.468,54.468v24.511h-27.234V329.532c0-13.687-9.227-25.26-21.787-28.826v-25.642
	c0-16.518-13.438-29.957-29.957-29.957s-29.957,13.439-29.957,29.957v155.234h-16.34V283.317
	C114.383,253.283,89.949,228.849,59.951,228.849z M182.468,315.915c7.509,0,13.617,6.108,13.617,13.617v100.766h-49.021V275.064
	c0-7.509,6.108-13.617,13.617-13.617s13.617,6.108,13.617,13.617v32.681C174.298,312.258,177.956,315.915,182.468,315.915z"/>
<path d="M51.745,462.979H40.851c-4.512,0-8.17,3.657-8.17,8.17c0,4.513,3.658,8.17,8.17,8.17h10.894c4.512,0,8.17-3.657,8.17-8.17
	C59.915,466.636,56.257,462.979,51.745,462.979z"/>
<path d="M160.681,495.66h-10.894c-4.512,0-8.17,3.657-8.17,8.17s3.658,8.17,8.17,8.17h10.894c4.512,0,8.17-3.657,8.17-8.17
	S165.193,495.66,160.681,495.66z"/>
<path d="M427.574,462.979h-10.894c-4.512,0-8.17,3.657-8.17,8.17c0,4.513,3.658,8.17,8.17,8.17h10.894c4.512,0,8.17-3.657,8.17-8.17
	C435.745,466.636,432.087,462.979,427.574,462.979z"/>
<path d="M84.426,495.66H73.532c-4.512,0-8.17,3.657-8.17,8.17s3.658,8.17,8.17,8.17h10.894c4.512,0,8.17-3.657,8.17-8.17
	S88.938,495.66,84.426,495.66z"/>
<path d="M471.149,462.979h-10.894c-4.512,0-8.17,3.657-8.17,8.17c0,4.513,3.658,8.17,8.17,8.17h10.894c4.512,0,8.17-3.657,8.17-8.17
	C479.319,466.636,475.661,462.979,471.149,462.979z"/>
</svg>