<?xml version="1.0" encoding="UTF-8" standalone="no"?>
<!-- Uploaded to: SVG Repo, www.svgrepo.com, Generator: SVG Repo Mixer Tools -->

<svg
   fill="#000000"
   version="1.1"
   id="Capa_1"
   width="800px"
   height="800px"
   viewBox="0 0 87.883 87.883"
   xml:space="preserve"
   xmlns="http://www.w3.org/2000/svg"
   xmlns:svg="http://www.w3.org/2000/svg"><defs
   id="defs1">
	
</defs>

<g
   id="g1"
   transform="matrix(0.81014312,0,0,0.79564302,3.3357667,0.38152363)"><g
     transform="matrix(0.07283499,0,0,0.06663058,-1.2014699,4.777974)"
     id="g5"
     style="stroke:#000000;stroke-opacity:1">
	<polygon
   style="fill:#434c6d;stroke:#000000;stroke-opacity:1"
   points="254.639,503.599 32.773,392.665 32.773,119.599 254.639,230.532 "
   id="polygon1" />
	<polygon
   style="fill:#556080;stroke:#000000;stroke-opacity:1"
   points="254.639,503.599 476.506,392.665 476.506,119.599 254.639,230.532 "
   id="polygon2" />
	<polygon
   style="fill:#25b99a;stroke:#000000;stroke-opacity:1"
   points="32.773,119.599 246.106,8.665 476.506,119.599 254.639,230.532 "
   id="polygon3" />
	<path
   d="m 254.639,512.132 c -1.707,0 -2.56,0 -3.413,-0.853 L 29.359,400.345 c -3.413,-1.707 -5.12,-4.267 -5.12,-7.68 V 119.599 c 0,-2.56 1.707,-5.973 4.267,-7.68 2.56,-1.707 5.973,-1.707 8.533,0 l 221.867,110.933 c 2.56,1.707 5.12,4.267 5.12,7.68 v 273.067 c 0,2.56 -1.707,5.973 -4.267,7.68 -1.706,0 -3.413,0.853 -5.12,0.853 z M 41.306,387.545 l 204.8,102.4 V 235.652 l -204.8,-102.4 z"
   id="path3"
   style="stroke:#000000;stroke-opacity:1" />
	<path
   d="m 254.639,512.132 c -1.707,0 -3.413,0 -4.267,-0.853 -2.56,-1.707 -4.267,-5.12 -4.267,-7.68 V 230.532 c 0,-3.413 1.707,-5.973 5.12,-7.68 L 473.092,111.919 c 2.56,-1.707 5.973,-0.853 8.533,0 2.56,1.707 4.267,4.267 4.267,7.68 v 273.067 c 0,3.413 -1.707,5.973 -5.12,7.68 L 258.906,511.279 c -1.707,0.853 -2.56,0.853 -4.267,0.853 z m 8.534,-276.48 v 254.293 l 204.8,-102.4 V 133.252 Z"
   id="path4"
   style="stroke:#000000;stroke-opacity:1" />
	<path
   d="m 254.639,239.065 c -1.707,0 -2.56,0 -3.413,-0.853 L 29.359,127.279 c -3.413,-1.707 -5.12,-4.267 -5.12,-7.68 0,-3.413 1.707,-5.973 4.267,-7.68 L 241.839,0.985 c 2.56,-0.853 5.12,-1.707 7.68,0 l 230.4,110.933 c 2.56,1.707 5.12,4.267 5.12,7.68 0,3.413 -1.707,5.973 -5.12,7.68 L 258.053,238.212 c -0.854,0.853 -1.707,0.853 -3.414,0.853 z M 51.546,119.599 254.639,221.146 456.879,119.599 246.106,18.052 Z"
   id="path5"
   style="stroke:#000000;stroke-opacity:1" />
</g></g><g
   id="g2"
   transform="matrix(0.09954059,0,0,0.09882241,33.963654,27.072285)"
   style="fill:#f6ffd5">
	<circle
   style="fill:#f6ffd5"
   cx="256"
   cy="256"
   r="245.80099"
   id="circle1" />
	<path
   style="fill:#f6ffd5"
   d="m 11.219,256 c 0,-37.177 109.592,-67.315 244.781,-67.315 135.189,0 244.781,30.138 244.781,67.315"
   id="path1" />
	<path
   style="fill:#f6ffd5"
   d="m 500.781,256 c 0,37.177 -109.592,67.315 -244.781,67.315 C 120.811,323.315 11.219,293.177 11.219,256"
   id="path2" />
</g><g
   id="g9"
   transform="matrix(0.09954059,0,0,0.09882241,33.963654,27.072285)"
   style="fill:#1a1a1a">
	<path
   style="fill:#1a1a1a"
   d="M 437.019,74.98 C 388.667,26.628 324.381,0 256,0 187.62,0 123.333,26.628 74.98,74.98 26.627,123.332 0,187.62 0,256 0,324.38 26.628,388.667 74.98,437.02 123.332,485.373 187.62,512 256,512 324.381,512 388.667,485.372 437.019,437.02 485.372,388.667 512,324.38 512,256 512,187.62 485.372,123.333 437.019,74.98 Z M 256,20.398 c 121.116,0 221.162,91.867 234.156,209.576 -1.273,0.438 -2.479,1.134 -3.538,2.097 -4.167,3.789 -4.474,10.24 -0.684,14.407 3.084,3.391 4.648,6.595 4.648,9.521 0,9.277 -16.813,24.733 -64.199,37.765 -45.379,12.479 -105.887,19.352 -170.383,19.352 -64.496,0 -125.005,-6.872 -170.382,-19.351 -47.387,-13.032 -64.2,-28.487 -64.2,-37.765 0,-2.926 1.564,-6.13 4.648,-9.522 3.789,-4.167 3.483,-10.618 -0.685,-14.407 -1.059,-0.963 -2.265,-1.658 -3.537,-2.096 C 34.838,112.266 134.884,20.398 256,20.398 Z m 0,471.204 c -118.638,0 -217.058,-88.149 -233.25,-202.388 13.289,9.212 32.54,17.366 57.459,24.219 47.089,12.95 109.519,20.081 175.79,20.081 66.271,0 128.702,-7.131 175.79,-20.081 24.92,-6.853 44.17,-15.008 57.458,-24.219 C 473.058,403.453 374.638,491.602 256,491.602 Z"
   id="path3-4" />
	<path
   style="fill:#1a1a1a"
   d="m 274.804,199.082 c 12.638,0.267 25.261,0.81 37.519,1.615 0.228,0.015 0.453,0.022 0.678,0.022 5.328,0 9.814,-4.139 10.168,-9.532 0.368,-5.621 -3.889,-10.476 -9.509,-10.845 -12.558,-0.824 -25.487,-1.381 -38.426,-1.654 -0.073,-0.002 -0.147,-0.002 -0.219,-0.002 -5.533,0 -10.076,4.425 -10.193,9.984 -0.119,5.632 4.35,10.293 9.982,10.412 z"
   id="path4-7" />
	<path
   style="fill:#1a1a1a"
   d="m 349.673,204.056 c 12.835,1.485 25.284,3.291 37.004,5.369 0.602,0.106 1.2,0.158 1.792,0.158 4.853,0 9.155,-3.476 10.031,-8.42 0.983,-5.546 -2.716,-10.84 -8.263,-11.823 -12.121,-2.148 -24.98,-4.014 -38.219,-5.546 -5.594,-0.65 -10.655,3.364 -11.304,8.959 -0.648,5.595 3.362,10.656 8.959,11.303 z"
   id="path5-8" />
	<path
   style="fill:#1a1a1a"
   d="m 422.985,217.32 c 13.175,3.482 24.834,7.362 34.652,11.532 1.3,0.553 2.653,0.814 3.982,0.814 3.97,0 7.743,-2.332 9.392,-6.214 2.202,-5.184 -0.216,-11.172 -5.401,-13.374 -10.712,-4.55 -23.3,-8.748 -37.413,-12.478 -5.442,-1.44 -11.028,1.808 -12.467,7.255 -1.438,5.443 1.81,11.025 7.255,12.465 z"
   id="path6" />
	<path
   style="fill:#1a1a1a"
   d="m 50.419,229.65 c 1.329,0 2.68,-0.261 3.981,-0.813 9.82,-4.168 21.48,-8.046 34.653,-11.526 5.446,-1.439 8.695,-7.02 7.256,-12.466 -1.439,-5.445 -7.018,-8.695 -12.466,-7.256 -14.112,3.728 -26.698,7.924 -37.413,12.472 -5.185,2.201 -7.605,8.188 -5.404,13.373 1.648,3.884 5.422,6.216 9.393,6.216 z"
   id="path7" />
	<path
   style="fill:#1a1a1a"
   d="m 199.032,200.716 c 0.224,0 0.45,-0.007 0.677,-0.022 12.258,-0.804 24.882,-1.346 37.519,-1.614 5.632,-0.118 10.1,-4.78 9.982,-10.412 -0.118,-5.632 -4.795,-10.137 -10.411,-9.981 -12.939,0.273 -25.865,0.829 -38.423,1.652 -5.621,0.368 -9.879,5.224 -9.51,10.845 0.352,5.394 4.836,9.532 10.166,9.532 z"
   id="path8" />
	<path
   style="fill:#1a1a1a"
   d="m 123.566,209.577 c 0.591,0 1.19,-0.051 1.792,-0.158 11.715,-2.077 24.164,-3.882 37.002,-5.367 5.595,-0.647 9.607,-5.707 8.96,-11.304 -0.647,-5.595 -5.705,-9.615 -11.304,-8.96 -13.243,1.531 -26.101,3.396 -38.218,5.544 -5.546,0.983 -9.246,6.277 -8.263,11.823 0.877,4.946 5.179,8.422 10.031,8.422 z"
   id="path9" />
</g><path
   style="fill:#d40000;stroke-width:0.103705"
   d="m 74.415532,27.64157 -6.306383,6.019107 C 67.055413,23.419745 59.108506,14.576497 48.007823,12.468877 39.836731,10.9179 31.410032,13.326232 25.46657,18.912102 c -1.059255,0.995856 -1.072735,2.622518 -0.02941,3.633977 1.042695,1.010851 2.747227,1.024124 3.807225,0.02807 4.671379,-4.390317 11.293448,-6.28375 17.713092,-5.06469 8.770195,1.665062 15.034968,8.681544 15.806561,16.78436 l -6.970127,-6.652753 c -1.051188,-1.003555 -2.755826,-1.003555 -3.807225,0 -1.051401,1.003557 -1.051401,2.630422 0,3.633978 L 63.201159,41.979 c 0.525648,0.501727 1.214657,0.752692 1.90356,0.752692 0.688797,0 1.378019,-0.250763 1.903666,-0.752692 L 78.222333,31.275345 c 1.0514,-1.003354 1.0514,-2.630421 0,-3.633978 -1.050763,-1.003353 -2.755401,-1.003353 -3.806801,2.03e-4 z"
   id="path1-0" /></svg>
