<?xml version="1.0" encoding="UTF-8" standalone="no"?>
<!-- Uploaded to: SVG Repo, www.svgrepo.com, Generator: SVG Repo Mixer Tools -->

<svg
   fill="#000000"
   width="800px"
   height="800px"
   viewBox="0 0 20 20"
   version="1.1"
   id="svg1"
   xmlns="http://www.w3.org/2000/svg"
   xmlns:svg="http://www.w3.org/2000/svg">
  <defs
     id="defs1" />
  <path
     d="m 7.7844782,3.0366576 a 3.5106156,2.7389216 0 1 0 -7.02123108,0 c 0,1.1035572 0.84254768,2.0496263 2.04785898,2.483289 v 8.7291704 a 3.5003761,2.730933 0 0 0 -2.04785898,2.482147 3.5106156,2.7389216 0 1 0 7.02123108,0 c 0,-1.103556 -0.842548,-2.049627 -2.0478587,-2.483289 V 5.5199466 A 3.5047644,2.7343567 0 0 0 7.7844782,3.0366576 Z M 6.2983175,16.731264 a 2.0259177,1.580586 0 1 1 -4.0518353,0 2.0259177,1.580586 0 0 1 4.0518353,0 z M 4.2738624,4.6172436 a 2.025918,1.5805861 0 1 1 0.00147,-3.1611719 2.0266493,1.5811568 0 0 1 -0.00147,3.1623132 z M 17.43867,14.247975 V 5.5199466 a 3.5033016,2.7332155 0 0 0 2.04786,-2.483289 3.5106156,2.7389216 0 1 0 -7.02123,0 c 0,1.1035572 0.842548,2.0496263 2.047858,2.483289 v 8.7291704 a 3.5033016,2.7332155 0 0 0 -2.047858,2.48329 3.5106156,2.7389216 0 1 0 7.02123,0 c 0,-1.104699 -0.841084,-2.05077 -2.04786,-2.484432 z M 13.95146,3.0366576 a 2.0251863,1.5800156 0 1 1 4.050372,0 2.0259176,1.580586 0 0 1 -4.050372,0 z m 2.024453,15.2751934 a 2.0259184,1.5805865 0 1 1 0,-3.161173 2.0259184,1.5805865 0 0 1 0,3.161173 z"
     id="path1"
     style="stroke-width:1.29202;fill:#006680" />
  <path
     fill-rule="evenodd"
     clip-rule="evenodd"
     d="m 9.6603173,5.8950341 h 0.7685717 c 0.535565,-4e-6 0.961506,-4e-6 1.304948,0.029175 0.35175,0.029883 0.65145,0.092409 0.925146,0.2378789 0.423467,0.2250424 0.768725,0.5782791 0.988709,1.011507 0.142199,0.280045 0.203291,0.5866562 0.232503,0.9465186 0.02852,0.3513825 0.02852,0.7871486 0.02852,1.3350781 v 0.7863143 c 0,0.54793 0,0.983704 -0.02852,1.335074 -0.02921,0.359871 -0.0903,0.66649 -0.232503,0.946503 -0.219984,0.433245 -0.565242,0.786474 -0.988709,1.011535 -0.273696,0.145482 -0.573396,0.207984 -0.925146,0.237871 -0.343442,0.02917 -0.769383,0.02917 -1.304948,0.02917 H 9.6603173 c -0.5355656,0 -0.9614987,0 -1.3049523,-0.02917 C 8.0036229,13.742602 7.7039303,13.6801 7.4302045,13.534618 7.0067522,13.309557 6.6614863,12.956328 6.4415219,12.523084 6.2993342,12.24307 6.2382195,11.936451 6.2090107,11.57658 6.1804899,11.22521 6.1804899,10.789436 6.1804936,10.241506 V 9.4551921 c -3.9e-6,-0.5479335 -3.9e-6,-0.9836994 0.028517,-1.335078 C 6.2382195,7.7602517 6.2993342,7.4536405 6.4415219,7.1735955 6.6614863,6.7403675 7.0067522,6.3871309 7.4302045,6.1620885 7.7039303,6.0166182 8.0036229,5.9540926 8.355365,5.9242095 8.6988148,5.8950301 9.1247478,5.8950301 9.6603173,5.8950341 Z M 8.4193238,6.7121606 C 8.1162385,6.7379086 7.9314838,6.7866569 7.7864561,6.8637347 7.5041559,7.013763 7.2739786,7.249254 7.1273356,7.5380714 7.0519971,7.6864472 7.0043487,7.875467 6.9791818,8.1855494 6.9536249,8.5003676 6.9533153,8.9033053 6.9533153,9.4727844 v 0.7511306 c 0,0.569474 3.092e-4,0.972397 0.025867,1.287239 0.025167,0.310097 0.072815,0.499106 0.1481538,0.647474 0.146643,0.288829 0.3768202,0.524328 0.6591204,0.674356 0.1450278,0.07705 0.3297824,0.125795 0.6328678,0.151571 0.3077144,0.02613 0.7015599,0.02644 1.2581887,0.02644 h 0.734181 c 0.556625,0 0.950455,-3.17e-4 1.258194,-0.02644 0.3031,-0.02577 0.487843,-0.07452 0.632863,-0.151571 0.282312,-0.150028 0.512497,-0.385527 0.65914,-0.674356 0.07531,-0.148368 0.122956,-0.337377 0.14815,-0.647474 0.02554,-0.314842 0.02585,-0.717765 0.02585,-1.287239 V 9.4727844 c 0,-0.5694791 -3.09e-4,-0.9724168 -0.02585,-1.287235 C 13.084851,7.875467 13.037201,7.6864472 12.961891,7.5380714 12.815247,7.249254 12.585062,7.013763 12.30275,6.8637347 12.15773,6.7866569 11.972987,6.7379086 11.669886,6.7121606 11.362148,6.6860134 10.968318,6.6856971 10.411693,6.6856971 H 9.6775125 c -0.5566288,0 -0.9504743,3.163e-4 -1.2581887,0.026464 z m 1.5589711,1.0636078 c 0.2134151,0 0.3864111,0.1769939 0.3864111,0.3953316 v 1.963667 l 1.362833,0.530061 c 0.199504,0.07757 0.299738,0.305907 0.223886,0.509977 -0.07581,0.20411 -0.299005,0.306659 -0.49847,0.229056 L 9.8410029,10.776983 C 9.6910369,10.718632 9.5918838,10.571569 9.5918838,10.407427 V 8.1711 c 0,-0.2183377 0.1729963,-0.3953316 0.3864111,-0.3953316 z"
     fill="#0f1729"
     id="path1-5"
     style="stroke-width:0.390845;fill:#ff5555" />
</svg>
