<?xml version="1.0" encoding="iso-8859-1"?>
<!-- Uploaded to: SVG Repo, www.svgrepo.com, Generator: SVG Repo Mixer Tools -->
<svg version="1.1" id="Layer_1" xmlns="http://www.w3.org/2000/svg" xmlns:xlink="http://www.w3.org/1999/xlink" 
	 viewBox="0 0 512 512" xml:space="preserve">
<rect x="13.331" y="312.068" style="fill:#A3875E;" width="485.339" height="71.558"/>
<path style="fill:#DBB67E;" d="M256,171.911c0-12.517-10.145-22.662-22.662-22.662H126.227c-12.517,0-22.662,10.145-22.662,22.662
	v41.938H81.77c-37.792,0-68.439,30.634-68.439,68.426v-158.78c0-25.835,20.956-46.79,46.804-46.79h391.732
	c25.848,0,46.804,20.956,46.804,46.79v158.78c0-37.792-30.647-68.426-68.439-68.426h-21.795v-41.938
	c0-12.517-10.145-22.662-22.662-22.662H278.662C266.145,149.249,256,159.393,256,171.911z"/>
<path style="fill:#FB7B76;" d="M430.23,213.849c37.792,0,68.439,30.634,68.439,68.426v29.794H13.331v-29.794
	c0-37.792,30.647-68.426,68.439-68.426h21.795H256h152.435H430.23z"/>
<g>
	<path style="fill:#F0DF9E;" d="M385.773,149.249c12.517,0,22.662,10.145,22.662,22.662v41.938H256v-41.938
		c0-12.517,10.145-22.662,22.662-22.662H385.773L385.773,149.249z"/>
	<path style="fill:#F0DF9E;" d="M233.338,149.249c12.517,0,22.662,10.145,22.662,22.662v41.938H103.565v-41.938
		c0-12.517,10.145-22.662,22.662-22.662H233.338L233.338,149.249z"/>
</g>
<path d="M451.866,63.373H60.134C26.976,63.373,0,90.344,0,123.494v188.574v71.558v51.669c0,7.362,5.968,13.331,13.331,13.331
	s13.331-5.968,13.331-13.331v-38.339h458.678v38.339c0,7.362,5.968,13.331,13.331,13.331S512,442.658,512,435.296v-51.669v-71.558
	V123.494C512,90.344,485.024,63.373,451.866,63.373z M60.134,90.035h391.732c18.458,0,33.473,15.01,33.473,33.46v98.437
	c-14.546-13.292-33.896-21.413-55.109-21.413h-8.465v-28.607c0-19.847-16.146-35.993-35.993-35.993H278.662
	c-8.582,0-16.47,3.025-22.662,8.057c-6.192-5.032-14.08-8.057-22.662-8.057H126.227c-19.847,0-35.993,16.146-35.993,35.993v28.607
	H81.77c-21.213,0-40.561,8.122-55.109,21.413v-98.437C26.661,105.045,41.677,90.035,60.134,90.035z M116.896,200.518v-28.607
	c0-5.146,4.186-9.331,9.331-9.331h107.111c5.146,0,9.331,4.186,9.331,9.331v28.607L116.896,200.518L116.896,200.518z
	 M269.331,171.911c0-5.146,4.186-9.331,9.331-9.331h107.111c5.146,0,9.331,4.186,9.331,9.331v28.607H269.331V171.911
	L269.331,171.911z M26.661,325.399h25.827c7.362,0,13.331-5.968,13.331-13.331c0-7.362-5.968-13.331-13.331-13.331H26.661v-16.463
	c0-30.38,24.722-55.095,55.109-55.095h21.795H256h152.435h21.795c30.387,0,55.108,24.716,55.108,55.095v16.463H145.356
	c-7.362,0-13.331,5.968-13.331,13.331c0,7.362,5.968,13.331,13.331,13.331h339.982v44.897H26.661V325.399z"/>
<path d="M101.366,298.738h-7.553c-7.362,0-13.331,5.968-13.331,13.331c0,7.362,5.968,13.331,13.331,13.331h7.553
	c7.362,0,13.331-5.968,13.331-13.331C114.696,304.706,108.728,298.738,101.366,298.738z"/>
</svg>