<?xml version="1.0" encoding="iso-8859-1"?>
<!-- Uploaded to: SVG Repo, www.svgrepo.com, Generator: SVG Repo Mixer Tools -->
<svg version="1.1" id="Layer_1" xmlns="http://www.w3.org/2000/svg" xmlns:xlink="http://www.w3.org/1999/xlink" 
	 viewBox="0 0 512 512" xml:space="preserve">
<path style="fill:#53B400;" d="M462.965,184.557c-21.89-63.421-72.101-113.633-135.521-135.522l0,0H256L235.101,256L256,462.964
	h71.443c63.421-21.889,113.633-72.101,135.522-135.522h0.001L462.965,184.557L462.965,184.557z"/>
<path style="fill:#6CD800;" d="M184.558,49.035c-63.422,21.89-113.635,72.101-135.523,135.523h0.001v142.884h-0.001
	c21.89,63.423,72.102,113.635,135.525,135.524v-0.001H256V49.035H184.558z"/>
<path style="fill:#541D00;" d="M446.512,184.558h-56.37c-7.187,17.48-24.375,29.792-44.447,29.792
	c-26.535,0-48.046-21.511-48.046-48.046c0-20.071,12.312-37.26,29.792-44.447v-56.37L256,44.588l0,0L235.1,256L256,467.412l0,0
	l71.443-20.899v-56.37c-17.481-7.186-29.794-24.375-29.794-44.448c0-26.535,21.511-48.045,48.046-48.045
	c20.071,0,37.26,12.312,44.447,29.792h56.37L467.411,256L446.512,184.558z"/>
<path style="fill:#702600;" d="M184.558,65.487v56.37c17.48,7.187,29.792,24.375,29.792,44.447
	c0,26.535-21.511,48.046-48.046,48.046c-20.071,0-37.26-12.312-44.447-29.792h-56.37L44.588,256l20.899,71.442h56.37
	c7.187-17.48,24.375-29.792,44.447-29.792c26.535,0,48.046,21.511,48.046,48.045c0,20.071-12.311,37.259-29.791,44.447v56.371
	L256,467.412V44.588L184.558,65.487z"/>
<polygon style="fill:#983300;" points="271.673,240.327 271.673,44.588 256,44.588 245.55,256.436 256,467.412 271.673,467.412 
	271.673,271.673 467.412,271.673 467.412,240.327 "/>
<polygon style="fill:#D5681E;" points="240.327,44.588 240.327,240.327 44.588,240.327 44.588,271.673 240.327,271.673 
	240.327,467.412 256,467.412 256,44.588 "/>
<rect y="184.56" style="fill:#983300;" width="65.484" height="142.879"/>
<g>
	<rect x="446.516" y="184.56" style="fill:#702600;" width="65.484" height="142.879"/>
	<polygon style="fill:#702600;" points="327.442,0 256.001,0 235.102,32.744 256.001,65.487 327.442,65.487 	"/>
	<polygon style="fill:#702600;" points="327.443,446.513 256.001,446.513 235.102,479.256 256.001,512 327.443,512 	"/>
</g>
<g>
	<rect x="184.56" y="446.516" style="fill:#983300;" width="71.44" height="65.484"/>
	<rect x="184.56" style="fill:#983300;" width="71.44" height="65.484"/>
</g>
</svg>