<?xml version="1.0" encoding="UTF-8" standalone="no"?>
<!-- Uploaded to: SVG Repo, www.svgrepo.com, Generator: SVG Repo Mixer Tools -->

<svg
   width="800px"
   height="800px"
   viewBox="0 0 1024 1024"
   class="icon"
   version="1.1"
   id="svg8"
   xmlns="http://www.w3.org/2000/svg"
   xmlns:svg="http://www.w3.org/2000/svg">
  <defs
     id="defs8" />
  <g
     id="g8"
     transform="matrix(0.5134189,0,0,0.62893816,45.404901,47.794636)">
    <path
       d="m 64,96 h 896 v 928 H 64 Z"
       fill="#eaeaea"
       id="path1" />
    <path
       d="m 416,768 h 192 v 256 H 416 Z"
       fill="#434854"
       id="path2" />
    <path
       d="M 416,576 H 608 V 704 H 416 Z m -256,0 H 352 V 704 H 160 Z m 0,192 H 352 V 896 H 160 Z M 672,576 H 864 V 704 H 672 Z m 0,192 H 864 V 896 H 672 Z M 416,384 H 608 V 512 H 416 Z m -256,0 H 352 V 512 H 160 Z m 512,0 H 864 V 512 H 672 Z M 416,192 H 608 V 320 H 416 Z m -256,0 H 352 V 320 H 160 Z m 512,0 H 864 V 320 H 672 Z"
       fill="#469fcc"
       id="path3" />
    <path
       d="m 160,192 h 192 v 32 H 160 Z m 256,0 h 192 v 32 H 416 Z m 256,0 h 192 v 32 H 672 Z M 160,384 h 192 v 32 H 160 Z m 256,0 h 192 v 32 H 416 Z m 256,0 h 192 v 32 H 672 Z M 160,576 h 192 v 32 H 160 Z m 256,0 h 192 v 32 H 416 Z m 256,0 h 192 v 32 H 672 Z M 160,768 h 192 v 32 H 160 Z m 512,0 h 192 v 32 H 672 Z"
       fill=""
       id="path4" />
    <path
       d="m 64,96 h 896 v 32 H 64 Z"
       fill=""
       id="path5" />
    <path
       d="M 1024,64 A 32,32 0 0 1 992,96 H 32 A 32,32 0 0 1 0,64 V 32 A 32,32 0 0 1 32,0 h 960 a 32,32 0 0 1 32,32 z"
       fill="#ef4d4d"
       id="path6" />
  </g>
  <g
     id="g6"
     transform="matrix(3.4803664,0,0,3.2394445,266.45281,163.45615)">
	<path
   style="fill:#28d2e4"
   d="m 85.352,203.63 c 0,22.326 18.099,40.425 40.425,40.425 v 0 c 22.326,0 40.425,-18.099 40.425,-40.425 v -77.242 h -80.85 z"
   id="path1-4" />

	<g
   id="g5">
		<path
   style="fill:#22313f"
   d="M 186.085,0 H 65.47 c -4.143,0 -7.5,3.358 -7.5,7.5 v 27.742 c 0,4.142 3.357,7.5 7.5,7.5 h 12.383 c 0,6.108 0,155.523 0,160.888 0,26.426 21.499,47.925 47.925,47.925 26.426,0 47.925,-21.499 47.925,-47.925 0,-5.359 0,-154.784 0,-160.888 h 12.383 c 4.143,0 7.5,-3.358 7.5,-7.5 V 7.5 C 193.585,3.358 190.227,0 186.085,0 Z m -27.383,203.63 c 0,18.155 -14.77,32.925 -32.925,32.925 -18.155,0 -32.925,-14.77 -32.925,-32.925 v -69.742 h 65.85 z M 178.585,27.742 c -13.043,0 -21.775,0 -34.625,0 -4.143,0 -7.5,3.358 -7.5,7.5 0,4.142 3.357,7.5 7.5,7.5 h 14.742 v 76.146 H 92.852 V 35.242 c 0,-4.142 -3.357,-7.5 -7.5,-7.5 H 72.97 V 15 h 105.615 z"
   id="path2-8" />

		<path
   style="fill:#22313f"
   d="m 109.293,161.221 h 9.334 c 4.143,0 7.5,-3.358 7.5,-7.5 0,-4.142 -3.357,-7.5 -7.5,-7.5 h -9.334 c -4.143,0 -7.5,3.358 -7.5,7.5 0,4.142 3.357,7.5 7.5,7.5 z"
   id="path3-1" />

		<path
   style="fill:#22313f"
   d="m 109.293,190.555 h 31.167 c 4.143,0 7.5,-3.358 7.5,-7.5 0,-4.142 -3.357,-7.5 -7.5,-7.5 h -31.167 c -4.143,0 -7.5,3.358 -7.5,7.5 0,4.142 3.357,7.5 7.5,7.5 z"
   id="path4-2" />

		<path
   style="fill:#22313f"
   d="m 130.444,204.888 h -9.334 c -4.143,0 -7.5,3.358 -7.5,7.5 0,4.142 3.357,7.5 7.5,7.5 h 9.334 c 4.143,0 7.5,-3.358 7.5,-7.5 0,-4.142 -3.357,-7.5 -7.5,-7.5 z"
   id="path5-9" />

	</g>

</g>
</svg>
