<?xml version="1.0" encoding="UTF-8" standalone="no"?>
<!-- Uploaded to: SVG Repo, www.svgrepo.com, Generator: SVG Repo Mixer Tools -->

<svg
   fill="#000000"
   width="800px"
   height="800px"
   viewBox="0 0 32 32"
   version="1.1"
   id="svg1"
   xmlns="http://www.w3.org/2000/svg"
   xmlns:svg="http://www.w3.org/2000/svg"
   xmlns:rdf="http://www.w3.org/1999/02/22-rdf-syntax-ns#"
   xmlns:cc="http://creativecommons.org/ns#"
   xmlns:dc="http://purl.org/dc/elements/1.1/">
  <defs
     id="defs1" />
  <title
     id="title1">up-out</title>
  <path
     d="m 2.7817972,23.690231 q 0,1.916415 1.4540023,3.243164 1.4540024,1.32675 3.516042,1.351319 H 24.274595 q 2.035603,0 3.489606,-1.351319 1.454002,-1.351318 1.454002,-3.243164 V 8.334338 q 0,-1.9164148 -1.454002,-3.2677335 Q 26.310198,3.715286 24.274595,3.715286 h -4.150516 l 2.06204,3.0711782 h 2.088476 q 0.66091,0 1.163202,0.466819 0.502292,0.46682 0.475855,1.0810548 v 15.355893 q 0,0.638805 -0.475855,1.081055 -0.475855,0.442249 -1.163202,0.442249 H 7.7518415 q -0.6873465,0 -1.1896382,-0.442249 Q 6.0599116,24.329036 6.086348,23.690231 V 8.334338 q 0,-0.6388048 0.4758553,-1.0810548 0.4758553,-0.442249 1.1896382,-0.466819 H 9.8138812 L 11.875921,3.715286 H 7.7518415 q -2.0620396,0 -3.516042,1.3513185 Q 2.7817972,6.4179232 2.7817972,8.334338 Z m 4.9700443,0 H 24.274595 L 20.970044,19.071178 H 11.056392 Z M 11.056392,9.857643 h 3.304551 V 16 h 3.304551 V 9.857643 h 3.30455 L 16,3.715286 Z"
     id="path1"
     style="stroke-width:0.796432;fill:#ff2a2a;stroke:#69bbc4;stroke-opacity:1" />
  <metadata
     id="metadata1">
    <rdf:RDF>
      <cc:Work
         rdf:about="">
        <dc:title>up-out</dc:title>
      </cc:Work>
    </rdf:RDF>
  </metadata>
</svg>
