<?xml version="1.0" encoding="iso-8859-1"?>
<!-- Uploaded to: SVG Repo, www.svgrepo.com, Generator: SVG Repo Mixer Tools -->
<svg version="1.1" id="Layer_1" xmlns="http://www.w3.org/2000/svg" xmlns:xlink="http://www.w3.org/1999/xlink" 
	 viewBox="0 0 512.001 512.001" xml:space="preserve">
<polygon style="fill:#E2804F;" points="193.28,33.868 153.436,9.961 121.561,33.868 153.436,41.837 "/>
<rect x="116.336" y="89.647" style="fill:#D4E4AC;" width="79.692" height="47.813"/>
<g>
	<polygon style="fill:#F2BF7E;" points="191.191,90.907 119.471,90.907 87.596,27.05 151.347,42.934 223.067,27.076 	"/>
	<path style="fill:#F2BF7E;" d="M234.626,504.031H77.737c-22.693,0-41.089-18.396-41.089-41.089V256.997
		c0-66.016,53.516-119.533,119.533-119.533l0,0c66.016,0,119.533,53.516,119.533,119.533v205.946
		C275.715,485.636,257.319,504.031,234.626,504.031z"/>
</g>
<path style="fill:#D4E4AC;" d="M239.152,504.031H73.476c-20.339,0-36.828-16.489-36.828-36.828v-10.985H275.98v10.985
	C275.98,487.543,259.493,504.031,239.152,504.031z"/>
<circle style="fill:#E2804F;" cx="156.176" cy="296.841" r="87.658"/>
<circle style="fill:#FFFFFF;" cx="156.176" cy="296.841" r="63.751"/>
<rect x="116.67" y="105.535" width="79.389" height="15.669"/>
<path d="M190.818,25.978L156.181,0l-34.656,25.993L70.063,14.501L111.5,97.174h89.363l41.436-82.72L190.818,25.978z M156.181,19.922
	l14.179,10.635l-14.181,3.175l-14.186-3.168L156.181,19.922z M191.188,81.505h-70.014L98.861,36.986l57.323,12.8l57.32-12.831
	L191.188,81.505z"/>
<rect x="307.83" y="496.212" width="63.72" height="15.669"/>
<rect x="323.499" y="472.186" width="63.72" height="15.669"/>
<rect x="299.473" y="448.161" width="63.72" height="15.669"/>
<rect x="307.83" y="424.135" width="63.72" height="15.669"/>
<rect x="307.83" y="400.11" width="63.72" height="15.669"/>
<rect x="307.83" y="377.129" width="63.72" height="15.669"/>
<rect x="307.83" y="353.103" width="63.72" height="15.669"/>
<rect x="307.83" y="329.077" width="63.72" height="15.669"/>
<rect x="395.576" y="496.212" width="63.72" height="15.669"/>
<rect x="395.576" y="472.186" width="63.72" height="15.669"/>
<rect x="411.244" y="448.161" width="63.72" height="15.669"/>
<rect x="395.576" y="424.135" width="63.72" height="15.669"/>
<rect x="395.576" y="400.11" width="63.72" height="15.669"/>
<rect x="395.576" y="377.129" width="63.72" height="15.669"/>
<rect x="402.888" y="353.103" width="63.72" height="15.669"/>
<rect x="419.601" y="329.077" width="63.72" height="15.669"/>
<rect x="315.142" y="305.052" width="63.72" height="15.669"/>
<rect x="315.142" y="281.026" width="63.72" height="15.669"/>
<rect x="299.473" y="257.001" width="63.72" height="15.669"/>
<path d="M156.181,392.467c-52.729,0-95.626-42.898-95.626-95.626s42.898-95.626,95.626-95.626c52.729,0,95.627,42.898,95.627,95.626
	S208.91,392.467,156.181,392.467z M156.181,217.153c-43.94,0-79.689,35.748-79.689,79.689s35.748,79.689,79.689,79.689
	s79.689-35.748,79.689-79.689S200.122,217.153,156.181,217.153z"/>
<path d="M156.181,129.495c-70.305,0-127.502,57.197-127.502,127.502v208.508c0,25.638,20.858,46.497,46.497,46.497h162.011
	c25.638,0,46.497-20.858,46.497-46.497V256.997C283.684,186.691,226.487,129.495,156.181,129.495z M237.187,496.062H75.177
	c-16.85,0-30.558-13.708-30.558-30.558v-1.679h15.643v-15.669H44.618v-191.16c0-61.517,50.047-111.564,111.564-111.564
	s111.563,50.047,111.563,111.564v191.16h-16.325v15.669h16.325v1.679C267.746,482.353,254.038,496.062,237.187,496.062z"/>
<rect x="68.619" y="448.161" width="175.491" height="15.669"/>
<path d="M156.181,368.561c-39.546,0-71.72-32.173-71.72-71.721s32.173-71.721,71.72-71.721s71.721,32.173,71.721,71.721
	S195.728,368.561,156.181,368.561z M156.181,241.058c-30.758,0-55.781,25.024-55.781,55.782s25.023,55.782,55.781,55.782
	s55.782-25.024,55.782-55.782S186.939,241.058,156.181,241.058z"/>
<path d="M151.193,332.818v-8.945c-6.309-0.283-12.432-1.977-16.011-4.05l2.826-11.017c3.954,2.164,9.511,4.142,15.633,4.142
	c5.369,0,9.04-2.069,9.04-5.836c0-3.58-3.014-5.839-9.981-8.195c-10.076-3.389-16.953-8.096-16.953-17.232
	c0-8.287,5.839-14.784,15.915-16.762v-8.948h9.228v8.287c6.309,0.283,10.547,1.602,13.656,3.109l-2.734,10.642
	c-2.447-1.036-6.776-3.205-13.56-3.205c-6.119,0-8.096,2.639-8.096,5.273c0,3.109,3.297,5.086,11.3,8.1
	c11.204,3.954,15.725,9.136,15.725,17.61c0,8.383-5.931,15.537-16.762,17.423v9.603h-9.228V332.818z"/>
</svg>