<?xml version="1.0" encoding="iso-8859-1"?>
<!-- Uploaded to: SVG Repo, www.svgrepo.com, Generator: SVG Repo Mixer Tools -->
<svg height="800px" width="800px" version="1.1" id="Layer_1" xmlns="http://www.w3.org/2000/svg" xmlns:xlink="http://www.w3.org/1999/xlink" 
	 viewBox="0 0 512 512" xml:space="preserve">
<g transform="translate(0 1)">
	<g>
		<path style="fill:#FFE100;" d="M384,101.4h-25.6c13.653,0,25.6,11.093,25.6,25.6s-11.093,25.6-25.6,25.6H384
			c14.507,0,25.6-11.093,25.6-25.6S397.653,101.4,384,101.4"/>
		<path style="fill:#FFE100;" d="M270.507,7.533c44.373,0,81.92,40.107,91.307,93.867h19.627c1.707,0,4.267,0,5.973,0.853
			C375.467,48.493,327.68,7.533,270.507,7.533"/>
		<path style="fill:#FFE100;" d="M383.147,152.6h-17.92l-11.093,308.907c-0.853,23.04-15.36,40.96-33.28,40.96H332.8
			c23.04,0,41.813-17.92,42.667-40.96l14.507-309.76C388.267,151.747,385.707,152.6,383.147,152.6"/>
	</g>
	<path style="fill:#FFFFFF;" d="M136.533,102.253c1.707-0.853,3.413-0.853,5.973-0.853h19.627
		c9.387-53.76,46.933-93.867,91.307-93.867C195.413,7.533,147.627,48.493,136.533,102.253"/>
	<path style="fill:#FFE100;" d="M332.8,152.6H162.133c-13.653,0-25.6-11.093-25.6-25.6s11.947-25.6,25.6-25.6H332.8
		c13.653,0,25.6,11.093,25.6,25.6S346.453,152.6,332.8,152.6"/>
	<path style="fill:#FFFFFF;" d="M136.533,127c0-14.507,11.947-25.6,25.6-25.6h-25.6c-14.507,0-25.6,11.093-25.6,25.6
		s11.093,25.6,25.6,25.6h25.6C147.627,152.6,136.533,140.653,136.533,127"/>
	<path style="fill:#FFA800;" d="M358.4,101.4h-25.6c13.653,0,25.6,11.093,25.6,25.6s-11.947,25.6-25.6,25.6h25.6
		c13.653,0,25.6-11.093,25.6-25.6S372.053,101.4,358.4,101.4"/>
	<path style="fill:#FFE100;" d="M160.427,101.4h173.227c1.707,0,3.413,0,4.267,0.853c-8.533-53.76-46.08-94.72-90.453-94.72
		s-82.773,40.96-91.307,94.72C157.867,101.4,159.573,101.4,160.427,101.4"/>
	<path style="fill:#FFA800;" d="M244.907,7.533c44.373,0,81.92,40.107,91.307,93.867h19.627c1.707,0,4.267,0,5.973,0.853
		C349.867,48.493,302.08,7.533,244.907,7.533"/>
	<path style="fill:#FFE100;" d="M334.507,152.6h-174.08c-1.707,0-4.267-0.853-5.973-0.853l11.093,309.76
		c0.853,23.04,15.36,40.96,33.28,40.96h96.427c17.92,0,32.427-17.92,33.28-40.96l11.093-309.76
		C337.92,151.747,336.213,152.6,334.507,152.6"/>
	<path style="fill:#FFA800;" d="M357.547,152.6h-17.92l-11.093,308.907c-0.853,23.04-15.36,40.96-33.28,40.96H307.2
		c23.04,0,41.813-17.92,42.667-40.96l14.507-309.76C362.667,151.747,360.107,152.6,357.547,152.6"/>
	<polygon style="fill:#63D3FD;" points="162.133,417.133 324.267,417.133 332.8,237.933 153.6,237.933 	"/>
	<polygon style="fill:#3DB9F9;" points="331.947,237.933 324.267,417.133 353.28,417.133 361.813,237.933 	"/>
	<path style="fill:#FFFFFF;" d="M164.693,462.36L153.6,153.453h-17.92c-2.56,0-5.12-0.853-7.68-0.853l14.507,309.76
		c0.853,23.04,19.627,40.96,42.667,40.96h13.653C180.053,503.32,165.547,485.4,164.693,462.36"/>
	<path d="M358.4,161.133H136.533c-18.773,0-34.133-15.36-34.133-34.133s15.36-34.133,34.133-34.133H358.4
		c18.773,0,34.133,15.36,34.133,34.133S377.173,161.133,358.4,161.133z M136.533,109.933c-9.387,0-17.067,7.68-17.067,17.067
		s7.68,17.067,17.067,17.067H358.4c9.387,0,17.067-7.68,17.067-17.067s-7.68-17.067-17.067-17.067H136.533z"/>
	<path d="M308.907,511h-35.84c-5.12,0-8.533-3.413-8.533-8.533c0-5.12,3.413-8.533,8.533-8.533h35.84
		c18.773,0,33.28-14.507,34.133-33.28l13.653-299.52H138.24l13.653,299.52c0.853,18.773,16.213,33.28,34.133,33.28H204.8
		c5.12,0,8.533,3.413,8.533,8.533c0,5.12-3.413,8.533-8.533,8.533h-18.773c-27.307,0-50.347-21.333-51.2-49.493l-14.507-309.76
		c0-2.56,0.853-5.12,3.413-6.827c2.56-1.707,5.12-2.56,7.68-1.707c1.707,0.853,3.413,0.853,5.12,0.853H358.4
		c1.707,0,3.413,0,5.12-0.853c2.56-0.853,5.973,0,7.68,1.707c2.56,1.707,3.413,4.267,3.413,6.827l-14.507,309.76
		C359.253,489.667,336.213,511,308.907,511z"/>
	<path d="M247.467,502.467c0-5.12-3.413-8.533-8.533-8.533c-5.12,0-8.533,3.413-8.533,8.533c0,5.12,3.413,8.533,8.533,8.533
		C244.053,511,247.467,507.587,247.467,502.467"/>
	<path d="M130.56,110.787c-2.56,0-4.267-0.853-5.973-2.56c-1.707-1.707-3.413-5.12-2.56-7.68C134.827,41.667,186.88-1,247.467-1
		c59.733,0,112.64,42.667,125.44,101.547c0.853,2.56,0,5.973-2.56,7.68c-1.707,1.707-5.12,2.56-7.68,2.56
		c-1.707-0.853-3.413-0.853-4.267-0.853H136.533c-0.853,0-2.56,0-4.267,0.853C132.267,110.787,131.413,110.787,130.56,110.787z
		 M141.653,92.867h210.773c-14.507-45.227-57.173-76.8-104.96-76.8C198.827,16.067,156.16,47.64,141.653,92.867z"/>
	<path d="M353.28,425.667H140.8c-4.267,0-8.533-3.413-8.533-8.533l-8.533-179.2c0-2.56,0.853-4.267,2.56-5.973
		c1.707-1.707,4.267-2.56,6.827-2.56h228.693c2.56,0,4.267,0.853,5.973,2.56s2.56,4.267,2.56,5.973l-8.533,179.2
		C361.813,422.253,358.4,425.667,353.28,425.667z M149.333,408.6H345.6l7.68-162.133H141.653L149.333,408.6z"/>
	<path d="M230.4,391.533c-1.707,0-4.267-0.853-5.973-1.707c-3.413-3.413-4.267-8.533-0.853-11.947l39.253-45.227h-49.493
		c-3.413,0-6.827-1.707-7.68-5.12c-0.853-3.413-0.853-6.827,1.707-9.387l51.2-51.2c3.413-3.413,8.533-3.413,11.947,0
		s3.413,8.533,0,11.947l-36.693,35.84H281.6c3.413,0,5.973,1.707,7.68,5.12c1.707,3.413,0.853,6.827-0.853,9.387l-51.2,59.733
		C235.52,390.68,232.96,391.533,230.4,391.533z"/>
</g>
</svg>