<?xml version="1.0" encoding="iso-8859-1"?>
<!-- Uploaded to: SVG Repo, www.svgrepo.com, Generator: SVG Repo Mixer Tools -->
<svg height="800px" width="800px" version="1.1" id="Layer_1" xmlns="http://www.w3.org/2000/svg" xmlns:xlink="http://www.w3.org/1999/xlink" 
	 viewBox="0 0 512 512" xml:space="preserve">
<path style="fill:#CEE8FA;" d="M256,157.501c-84.766,0-153.485,68.717-153.485,153.485S171.232,464.471,256,464.471
	s153.485-68.717,153.485-153.485S340.766,157.501,256,157.501z M306.072,388.037L256,361.713l-50.072,26.325l9.563-55.755
	l-40.509-39.486l55.981-8.134L256,233.933l25.035,50.728l55.981,8.134l-40.509,39.486L306.072,388.037z"/>
<g>
	<path style="fill:#2D527C;" d="M496.438,147.084c8.595,0,15.562-6.967,15.562-15.562V53.69c0-8.595-6.967-15.562-15.562-15.562
		h-87.149V22.575c0-8.595-6.967-15.562-15.562-15.562c-8.595,0-15.562,6.967-15.562,15.562v15.553H133.836V22.575
		c0-8.595-6.967-15.562-15.562-15.562s-15.562,6.967-15.562,15.562v15.553H15.562C6.967,38.128,0,45.095,0,53.69v77.832v357.904
		c0,8.595,6.967,15.562,15.562,15.562h480.875c8.595,0,15.562-6.967,15.562-15.562V193.564c0-8.595-6.967-15.562-15.562-15.562
		c-8.595,0-15.562,6.967-15.562,15.562v280.299H301.288c71.291-19.847,123.758-85.347,123.758-162.878
		c0-78.921-54.364-145.375-127.609-163.901h96.29c8.595,0,15.562-6.967,15.562-15.562c0-8.595-6.967-15.562-15.562-15.562H31.125
		V69.252h71.587v7.781c0,8.595,6.967,15.562,15.562,15.562s15.562-6.967,15.562-15.562v-7.781h244.328v7.781
		c0,8.595,6.967,15.562,15.562,15.562c8.595,0,15.562-6.967,15.562-15.562v-7.781h71.587v62.269
		C480.875,140.117,487.843,147.084,496.438,147.084z M393.921,310.985c0,76.051-61.871,137.923-137.921,137.923
		s-137.921-61.871-137.921-137.923c0-76.05,61.871-137.921,137.921-137.921S393.921,234.935,393.921,310.985z M86.954,310.985
		c0,77.531,52.467,143.03,123.758,162.878H31.125V147.084h183.439C141.318,165.609,86.954,232.064,86.954,310.985z"/>
	<path style="fill:#2D527C;" d="M242.045,227.046l-21.415,43.391l-47.885,6.958c-5.862,0.851-10.732,4.958-12.563,10.592
		s-0.303,11.818,3.939,15.953l34.651,33.776l-8.18,47.692c-1.002,5.837,1.398,11.739,6.191,15.221
		c4.793,3.481,11.146,3.943,16.389,1.184L256,379.297l42.829,22.517c2.277,1.198,4.764,1.788,7.24,1.788
		c3.226,0,6.438-1.002,9.149-2.972c4.793-3.481,7.193-9.383,6.191-15.221l-8.18-47.692l34.651-33.776
		c4.242-4.135,5.769-10.319,3.939-15.953c-1.83-5.634-6.701-9.739-12.563-10.592l-47.885-6.958l-21.415-43.391
		c-2.622-5.311-8.032-8.674-13.955-8.674C250.077,218.372,244.666,221.733,242.045,227.046z M278.797,300.062l24.777,3.6
		l-17.929,17.475c-3.668,3.576-5.343,8.727-4.476,13.776l4.233,24.676l-22.161-11.65c-2.267-1.192-4.754-1.788-7.241-1.788
		c-2.487,0-4.975,0.596-7.241,1.788l-22.161,11.65l4.233-24.676c0.867-5.048-0.808-10.2-4.476-13.776l-17.929-17.475l24.777-3.6
		c5.069-0.736,9.451-3.92,11.717-8.513L256,269.097l11.08,22.452C269.348,296.141,273.73,299.325,278.797,300.062z"/>
</g>
</svg>