<?xml version="1.0" encoding="UTF-8" standalone="no"?>
<!-- Uploaded to: SVG Repo, www.svgrepo.com, Generator: SVG Repo Mixer Tools -->

<svg
   height="800px"
   width="800px"
   version="1.1"
   id="Layer_1"
   viewBox="0 0 512 512"
   xml:space="preserve"
   xmlns="http://www.w3.org/2000/svg"
   xmlns:svg="http://www.w3.org/2000/svg"><defs
   id="defs23" />
<path
   style="fill:#b26156"
   d="M 370.6949,90.674084 V 259.52508 c 40.611,0 73.532,-32.921 73.532,-73.532 v -21.787 c 0,-40.612 -32.92,-73.531996 -73.532,-73.531996 z"
   id="path1" />
<path
   style="fill:#cc8073"
   d="m 370.6949,90.674084 c 22.561,0 40.851,32.920996 40.851,73.531996 v 21.787 c 0,40.611 -18.29,73.532 -40.851,73.532 -40.611,0 -73.532,-32.921 -73.532,-73.532 v -21.787 c 0,-40.612 32.921,-73.531996 73.532,-73.531996 z"
   id="path2" />
<path
   style="fill:#2ca05a"
   d="m 504.6869,431.64408 h -32.681 l -60.972,-122.945 h 13.007 c 47.453,20.61 80.646,67.899 80.646,122.945 z"
   id="path3" />
<path
   style="fill:#87deaa"
   d="m 411.0339,308.69808 h -93.685 c -29.849,12.965 -54.055,36.485 -67.908,65.852 l 27.568,57.093 h 194.996 c 10e-4,-55.034 -25.087,-102.323 -60.971,-122.945 z"
   id="path4" />
<path
   style="fill:#ffe29e"
   d="m 424.0409,308.69808 c -0.523,2.527 -1.22,4.978 -2.081,7.364 l -49.958,-18.399 c 18.487,0.175 36.08,4.096 52.039,11.035 z"
   id="path5" />
<path
   style="fill:#d7f4e3"
   d="m 421.9609,316.06308 c -7.538,21.025 -27.648,36.058 -51.265,36.058 -26.297,0 -48.237,-18.639 -53.346,-43.422 16.34,-7.103 34.38,-11.046 53.346,-11.046 0.436,0 0.871,0 1.307,0.011 18.214,0.304 35.273,6.971 49.958,18.399 z"
   id="path6" />
<path
   style="fill:#ffa4a9"
   d="M 143.0189,90.674084 V 259.52508 c 40.611,0 73.532,-32.921 73.532,-73.532 v -21.787 c 0,-40.612 -32.921,-73.531996 -73.532,-73.531996 z"
   id="path7" />
<path
   style="fill:#ffc5bb"
   d="m 143.0189,90.674084 c 22.561,0 40.851,32.920996 40.851,73.531996 v 21.787 c 0,40.611 -18.29,73.532 -40.851,73.532 -40.611,0 -73.531996,-32.921 -73.531996,-73.532 v -21.787 c 0,-40.612 32.919996,-73.531996 73.531996,-73.531996 z"
   id="path8" />
<path
   style="fill:#3e8067"
   d="m 277.0099,431.64408 h -32.681 l -60.972,-122.945 h 13.007 c 47.453,20.61 80.646,67.899 80.646,122.945 z"
   id="path9" />
<path
   style="fill:#4da081"
   d="M 244.3289,431.64408 H 9.0269038 c 0,-55.045 33.1930002,-102.335 80.6450002,-122.945 H 183.3569 c 35.884,20.621 60.972,67.91 60.972,122.945 z"
   id="path10" />
<path
   style="fill:#7bffcd"
   d="m 196.3649,308.69808 c -0.523,2.527 -1.22,4.978 -2.081,7.364 l -49.958,-18.399 c 18.486,0.175 36.08,4.096 52.039,11.035 z"
   id="path11" />
<path
   style="fill:#caffeb"
   d="m 194.2839,316.06308 c -7.538,21.025 -27.648,36.058 -51.265,36.058 -26.297,0 -48.236996,-18.639 -53.345996,-43.422 16.339996,-7.103 34.379996,-11.046 53.345996,-11.046 0.436,0 0.871,0 1.307,0.011 18.214,0.304 35.273,6.971 49.958,18.399 z"
   id="path12" />



<path
   d="m 143.0189,267.90108 c 45.051,0 81.702,-36.652 81.702,-81.702 v -21.787 c 0,-45.051 -36.652,-81.701996 -81.702,-81.701996 -45.049996,0 -81.701996,36.650996 -81.701996,81.700996 v 21.787 c 0,45.051 36.651,81.703 81.701996,81.703 z m -65.361996,-103.49 c 0,-36.04 29.320996,-65.361996 65.361996,-65.361996 36.041,0 65.362,29.320996 65.362,65.361996 v 21.787 c 0,36.04 -29.321,65.362 -65.362,65.362 -36.041,0 -65.361996,-29.321 -65.361996,-65.361 z"
   id="path16" />
<path
   d="m 106.2599,172.43808 h 10.814 c 1.121,3.173 4.148,5.447 7.705,5.447 4.512,0 8.17,-3.658 8.17,-8.17 v -5.447 c 0,-4.512 -3.658,-8.17 -8.17,-8.17 h -18.519 c -4.512,0 -8.169996,3.658 -8.169996,8.17 0,4.512 3.657996,8.17 8.169996,8.17 z"
   id="path17" />
<path
   d="m 161.2579,177.88508 c 3.558,0 6.584,-2.273 7.705,-5.447 h 10.814 c 4.512,0 8.17,-3.658 8.17,-8.17 0,-4.512 -3.658,-8.17 -8.17,-8.17 h -18.519 c -4.512,0 -8.17,3.658 -8.17,8.17 v 5.447 c 0,4.512 3.658,8.17 8.17,8.17 z"
   id="path18" />
<path
   d="m 288.9929,164.41108 v 21.787 c 0,45.051 36.652,81.702 81.702,81.702 45.05,0 81.702,-36.652 81.702,-81.702 v -21.787 c 0,-45.051 -36.652,-81.701996 -81.702,-81.701996 -45.05,0 -81.702,36.651996 -81.702,81.701996 z m 81.702,-65.360996 c 36.04,0 65.362,29.320996 65.362,65.361996 v 21.787 c 0,36.04 -29.321,65.362 -65.362,65.362 -36.041,0 -65.362,-29.321 -65.362,-65.362 v -21.787 c 0.001,-36.041 29.322,-65.361996 65.362,-65.361996 z"
   id="path19" />
<path
   d="m 333.9369,172.43808 h 10.814 c 1.121,3.173 4.148,5.447 7.705,5.447 4.512,0 8.17,-3.658 8.17,-8.17 v -5.447 c 0,-4.512 -3.658,-8.17 -8.17,-8.17 h -18.519 c -4.512,0 -8.17,3.658 -8.17,8.17 0,4.512 3.658,8.17 8.17,8.17 z"
   id="path20" />
<path
   d="m 388.9339,177.88508 c 3.558,0 6.584,-2.273 7.705,-5.447 h 10.814 c 4.512,0 8.17,-3.658 8.17,-8.17 0,-4.512 -3.658,-8.17 -8.17,-8.17 h -18.519 c -4.512,0 -8.17,3.658 -8.17,8.17 v 5.447 c 0,4.512 3.658,8.17 8.17,8.17 z"
   id="path21" />
<path
   d="m 200.8059,301.97508 c -0.709,-0.458 -1.501,-0.809 -2.356,-1.033 -17.042,-7.243 -35.777,-11.254 -55.431,-11.254 -19.862,0 -38.783,4.101 -55.969996,11.491 -0.474,0.16 -0.927,0.356 -1.353,0.593 -49.918,22.083 -84.83900023,72.076 -84.83900023,130.078 0,4.512 3.65800003,8.17 8.17000003,8.17 4.5120002,0 8.1700002,-3.658 8.1700002,-8.17 0,-48.301 27.363,-90.324 67.396,-111.405 9.192,23.709 32.331996,40.051 58.425996,40.051 26.104,0 49.237,-16.338 58.427,-40.051 40.033,21.081 67.394,63.105 67.394,111.405 0,4.512 3.658,8.17 8.17,8.17 4.512,0 8.17,-3.658 8.17,-8.17 0,-57.824 -34.703,-107.687 -84.374,-129.875 z m -57.787,42.181 c -19.576,0 -36.9,-12.438 -43.479996,-30.38 13.556996,-5.008 28.203996,-7.748 43.479996,-7.748 15.276,0 29.923,2.739 43.48,7.748 -6.579,17.945 -23.896,30.38 -43.48,30.38 z"
   id="path22" />
<path
   d="m 428.4829,301.97508 c -0.709,-0.458 -1.501,-0.809 -2.356,-1.033 -17.042,-7.243 -35.777,-11.254 -55.431,-11.254 -36.622,0 -71.403,13.893 -97.937,39.119 -3.27,3.109 -3.401,8.28 -0.292,11.551 3.109,3.27 8.282,3.401 11.551,0.292 8.536,-8.116 18.04,-14.898 28.233,-20.254 9.18,23.736 32.333,40.102 58.445,40.102 26.104,0 49.237,-16.338 58.427,-40.051 40.033,21.081 67.394,63.105 67.394,111.405 0,4.512 3.658,8.17 8.17,8.17 4.512,0 8.17,-3.658 8.17,-8.17 0,-57.826 -34.704,-107.689 -84.374,-129.877 z m -57.788,42.181 c -19.587,0 -36.92,-12.453 -43.491,-30.411 13.77,-5.067 28.454,-7.717 43.491,-7.717 15.276,0 29.923,2.739 43.48,7.748 -6.579,17.945 -23.895,30.38 -43.48,30.38 z"
   id="path23" />
</svg>
