<?xml version="1.0" encoding="UTF-8" standalone="no"?>
<!-- Uploaded to: SVG Repo, www.svgrepo.com, Generator: SVG Repo Mixer Tools -->

<svg
   fill="#000000"
   width="800px"
   height="800px"
   viewBox="0 0 24 24"
   id="Outline"
   version="1.1"
   xmlns="http://www.w3.org/2000/svg"
   xmlns:svg="http://www.w3.org/2000/svg"
   xmlns:rdf="http://www.w3.org/1999/02/22-rdf-syntax-ns#"
   xmlns:cc="http://creativecommons.org/ns#"
   xmlns:dc="http://purl.org/dc/elements/1.1/">
  <defs
     id="defs1" />
  <title
     id="title1">194 restore</title>
  <path
     d="M12,6a1,1,0,0,0-1,1v5a1,1,0,0,0,.293.707l3,3a1,1,0,0,0,1.414-1.414L13,11.586V7A1,1,0,0,0,12,6Z M23.812,10.132A12,12,0,0,0,3.578,3.415V1a1,1,0,0,0-2,0V5a2,2,0,0,0,2,2h4a1,1,0,0,0,0-2H4.827a9.99,9.99,0,1,1-2.835,7.878A.982.982,0,0,0,1,12a1.007,1.007,0,0,0-1,1.1,12,12,0,1,0,23.808-2.969Z"
     id="path1"
     style="fill:#ff00ff" />
  <path
     d="m 16.787257,8.2014144 a 0.57215293,0.53919613 0 0 0 0,-1.0783922 H 7.6328132 a 0.57215293,0.53919613 0 0 0 0,1.0783922 h 0.6001883 c 0.083534,0.9899634 0.4251094,3.1003766 1.8274555,4.3135676 -1.4790146,1.353921 -1.7799669,4.170142 -1.8400429,5.39196 H 7.6328132 a 0.57215274,0.53919594 0 0 0 0,1.078391 h 9.1544438 a 0.57215274,0.53919594 0 0 0 0,-1.078391 h -0.5876 c -0.06008,-1.22074 -0.361029,-4.036961 -1.840045,-5.39196 1.402347,-1.21427 1.743922,-3.3246831 1.827457,-4.3135676 z m -3.673221,3.8423116 a 0.57215272,0.53919592 0 0 0 0.02003,0.952758 c 1.394335,0.662133 1.830888,3.402866 1.919572,4.910458 H 9.366436 c 0.086395,-1.50975 0.5252363,-4.248325 1.919573,-4.910458 a 0.57215272,0.53919592 0 0 0 0.02003,-0.952758 C 9.8533383,11.283998 9.4791501,9.1956911 9.3824563,8.2014144 h 5.6551577 c -0.0967,0.9942767 -0.470881,3.0825836 -1.923578,3.8423116 z m -0.904002,1.549648 c 0,0 1.716459,1.294071 1.716459,1.941106 v 1.833266 H 10.493576 V 15.53448 c 0,-0.647035 1.716458,-1.941106 1.716458,-1.941106 z"
     id="path1-9"
     style="stroke-width:0.55543;fill:#0000ff;stroke:#33b9c9;stroke-opacity:1" />
  <metadata
     id="metadata1">
    <rdf:RDF>
      <cc:Work
         rdf:about="">
        <dc:title>194 restore</dc:title>
      </cc:Work>
    </rdf:RDF>
  </metadata>
</svg>
