<?xml version="1.0" encoding="UTF-8" standalone="no"?>
<!-- Uploaded to: SVG Repo, www.svgrepo.com, Generator: SVG Repo Mixer Tools -->

<svg
   width="800px"
   height="800px"
   viewBox="0 0 512 512"
   version="1.1"
   id="svg1"
   sodipodi:docname="stand-respect-people-svgrepo-com.svg"
   inkscape:version="1.4.2 (2aeb623e1d, 2025-05-12)"
   xmlns:inkscape="http://www.inkscape.org/namespaces/inkscape"
   xmlns:sodipodi="http://sodipodi.sourceforge.net/DTD/sodipodi-0.dtd"
   xmlns="http://www.w3.org/2000/svg"
   xmlns:svg="http://www.w3.org/2000/svg">
  <defs
     id="defs1" />
  <sodipodi:namedview
     id="namedview1"
     pagecolor="#ffffff"
     bordercolor="#000000"
     borderopacity="0.25"
     inkscape:showpageshadow="2"
     inkscape:pageopacity="0.0"
     inkscape:pagecheckerboard="0"
     inkscape:deskcolor="#d1d1d1"
     inkscape:zoom="1.07125"
     inkscape:cx="399.53326"
     inkscape:cy="400"
     inkscape:window-width="1920"
     inkscape:window-height="1043"
     inkscape:window-x="0"
     inkscape:window-y="0"
     inkscape:window-maximized="1"
     inkscape:current-layer="svg1" />
  <path
     fill="#000000"
     d="m 77.631594,192.77011 c 0.547227,0.30508 19.692866,10.89846 35.472326,10.89846 15.77946,0 35.58275,-10.59338 36.14946,-10.89846 h 7.34534 c 11.88717,0.0348 21.45796,9.37304 21.45796,20.88878 v 80.27905 c 0,13.96827 -11.63223,25.29196 -25.98111,25.29196 v 94.84484 c 0,10.4764 -8.72396,18.96897 -19.48582,18.96897 H 93.618093 c -10.761861,0 -19.485829,-8.49257 -19.485829,-18.96897 V 319.2299 c -14.348877,0 -25.981106,-11.32369 -25.981106,-25.29196 v -79.62067 c 0,-11.87773 9.87282,-21.51081 22.134278,-21.54716 z m 142.896076,0 c 0.54722,0.30508 19.69368,10.89846 35.47233,10.89846 15.77865,0 35.58274,-10.59338 36.14946,-10.89846 h 7.34534 c 11.88717,0.0348 21.45796,9.37304 21.45796,20.88878 v 80.27905 c 0,13.96827 -11.63223,25.29196 -25.98111,25.29196 v 94.84484 c 0,10.4764 -8.72396,18.96897 -19.48583,18.96897 h -38.97165 c -10.76186,0 -19.48583,-8.49257 -19.48583,-18.96897 V 319.2299 c -14.34888,0 -25.98111,-11.32369 -25.98111,-25.29196 v -79.62067 c 0,-11.87773 9.87282,-21.51081 22.13428,-21.54716 z m 197.85423,240.2736 h -38.97165 c -10.76187,0 -19.48583,-8.49257 -19.48583,-18.96897 V 319.2299 c -14.34888,0 -25.98111,-11.32369 -25.98111,-25.29196 v -79.62067 c 0,-11.89986 9.91017,-21.54716 22.13428,-21.54716 h 7.34616 c 0,0 19.46796,10.89846 35.47232,10.89846 16.00436,0 36.14946,-10.89846 36.14946,-10.89846 h 7.34535 c 11.85144,0 21.45796,9.3517 21.45796,20.88878 v 80.27905 c 0,13.96827 -11.63223,25.29196 -25.98111,25.29196 v 94.84484 c 0,10.45032 -8.68012,18.92629 -19.48583,18.96897 z M 113.10392,180.12413 c 28.69775,0 51.96221,-22.64737 51.96221,-50.58392 0,-27.93655 -23.26446,-50.583916 -51.96221,-50.583916 -28.697753,0 -51.962209,22.647366 -51.962209,50.583916 0,27.93655 23.264456,50.58392 51.962209,50.58392 z m 142.89608,0 c 28.69775,0 51.96221,-22.64737 51.96221,-50.58392 0,-27.93655 -23.26446,-50.583916 -51.96221,-50.583916 -28.69776,0 -51.96222,22.647366 -51.96222,50.583916 0,27.93655 23.26446,50.58392 51.96222,50.58392 z m 194.85828,-50.58392 c 0,27.93655 -23.26445,50.58392 -51.96221,50.58392 -28.69775,0 -51.96221,-22.64737 -51.96221,-50.58392 0,-27.93655 23.26446,-50.583916 51.96221,-50.583916 28.69776,0 51.96221,22.647366 51.96221,50.583916 z"
     id="path1"
     style="fill:#ff8080;stroke:#ff0202;stroke-width:9.15757;stroke-dasharray:none;stroke-opacity:1" />
</svg>
