<?xml version="1.0" encoding="UTF-8" standalone="no"?>
<!-- Uploaded to: SVG Repo, www.svgrepo.com, Generator: SVG Repo Mixer Tools -->

<svg
   fill="#000000"
   width="800px"
   height="800px"
   viewBox="0 0 100 100"
   version="1.1"
   id="svg2"
   xmlns="http://www.w3.org/2000/svg"
   xmlns:svg="http://www.w3.org/2000/svg">
  <defs
     id="defs2" />
  <path
     d="m 32.263497,20.706906 h 5.499692 a 1.2924274,1.2904249 0 0 0 1.374922,-1.372793 v -4.118377 h 21.72378 v 4.118377 a 1.2924274,1.2904249 0 0 0 1.374922,1.372793 h 5.49969 a 1.2924274,1.2904249 0 0 0 1.374923,-1.372793 V 15.215736 A 8.2495367,8.2367552 0 0 0 60.861891,6.9789809 h -21.72378 a 8.2495367,8.2367552 0 0 0 -8.249537,8.2367551 v 4.118377 a 1.2924274,1.2904249 0 0 0 1.374923,1.372793 z"
     id="path1"
     style="stroke-width:1.37386;fill:#d40000" />
  <path
     d="M 82.860655,28.943661 H 17.139345 A 8.2495367,8.2367552 0 0 0 8.889809,37.180417 V 80.83522 a 8.2495367,8.2367552 0 0 0 8.249536,8.236755 h 65.72131 A 8.2495367,8.2367552 0 0 0 91.110191,80.83522 V 37.180417 A 8.4557751,8.4426741 0 0 0 82.860655,28.943661 Z M 70.898826,51.045622 46.975169,74.932211 a 4.647239,4.6400387 0 0 1 -6.599629,0 L 28.826189,63.400754 a 2.2411241,2.2376518 0 0 1 0,-3.294702 l 3.299815,-3.294702 a 2.2411241,2.2376518 0 0 1 3.299814,0 l 8.249537,8.236755 20.623842,-20.591888 a 2.2411241,2.2376518 0 0 1 3.299815,0 l 3.299814,3.294702 a 2.5023595,2.4984825 0 0 1 0,3.294703 z"
     id="path2"
     style="stroke-width:1.37386;fill:#ff0000" />
</svg>
