<svg xmlns="http://www.w3.org/2000/svg" viewBox="0 0 64 64" id="friendship"><rect width="49" height="36" x="10" y="13" fill="#d9d9d9"></rect><path fill="#e6c59b" d="M18.80914,41.71582A1.98923,1.98923,0,0,0,16,42.34747L13,47H10.88281a1,1,0,0,1-.99231-.876L9.02319,42c-.01532-.1225-.00781-3.06146.0221-3.18121L10,36V26.5994L5.30634,31.288C5.10443,31.48987,2,38.1228,2,38.36267V51.18335a6.00028,6.00028,0,0,0,1.00769,3.32819L6,59l1,4,11-2-2-8,3.5929-9A1.98926,1.98926,0,0,0,18.80914,41.71582Z"></path><path fill="#759acc" d="M26,31H36a3,3,0,0,1,3,3V45a0,0,0,0,1,0,0H23a0,0,0,0,1,0,0V34A3,3,0,0,1,26,31Z"></path><path fill="#adc4e6" d="M41,31H51a3,3,0,0,1,3,3V45a0,0,0,0,1,0,0H38a0,0,0,0,1,0,0V34A3,3,0,0,1,41,31Z"></path><path fill="#ffe38f" d="M61.86125,5.79482c-2.24579-.69269-2.96344-1.41028-3.65607-3.65607a.19955.19955,0,0,0-.38012,0c-.69263,2.24579-1.41028,2.96338-3.65607,3.65607a.19955.19955,0,0,0,0,.38012c2.24579.69263,2.96344,1.41022,3.65607,3.65607a.19955.19955,0,0,0,.38012,0c.69263-2.24585,1.41028-2.96344,3.65607-3.65607A.19955.19955,0,0,0,61.86125,5.79482Z"></path><rect width="3" height="5" x="22" y="31" fill="#e6c59b" rx="1"></rect><rect width="12" height="14" x="40" y="17" fill="#e6c59b" rx="5.881"></rect><path fill="#495766" d="M40.0741,21.99884A22.90733,22.90733,0,0,0,48.1,20.88a6.65282,6.65282,0,0,0,3.82531,1.11481A5.89757,5.89757,0,0,0,46.11884,17h-.23768A5.8976,5.8976,0,0,0,40.0741,21.99884Z"></path><rect width="12" height="14" x="25" y="17" fill="#e6c59b" rx="5.881"></rect><path fill="#495766" d="M25.07391,22H36.92609a5.89767,5.89767,0,0,0-5.80725-5h-.23768A5.89767,5.89767,0,0,0,25.07391,22Z"></path><circle cx="43" cy="25" r="1"></circle><circle cx="49" cy="25" r="1"></circle><circle cx="28" cy="25" r="1"></circle><circle cx="34" cy="25" r="1"></circle><path d="M22,36.72186V45a1,1,0,0,0,1,1H54a1,1,0,0,0,1-1V35a4.99921,4.99921,0,0,0-4.13367-4.91241A6.85633,6.85633,0,0,0,53,25.11865v-2.2373A6.88908,6.88908,0,0,0,46.11865,16h-.2373A6.88908,6.88908,0,0,0,39,22.88135v2.2373A6.85905,6.85905,0,0,0,41.03729,30H36v.10107c-.04315-.00885-.09-.00579-.13367-.01348A6.85633,6.85633,0,0,0,38,25.11865v-2.2373A6.88908,6.88908,0,0,0,31.11865,16h-.2373A6.88908,6.88908,0,0,0,24,22.88135v2.2373a6.85645,6.85645,0,0,0,2.1322,4.96759,5.02285,5.02285,0,0,0-.98486.28034A1.98484,1.98484,0,0,0,24,30H23a2.002,2.002,0,0,0-2,2v3A1.99313,1.99313,0,0,0,22,36.72186ZM45.88135,18h.2373a4.87743,4.87743,0,0,1,4.41461,2.83136,4.85825,4.85825,0,0,1-1.83844-.75568,1.00014,1.00014,0,0,0-1.00927-.10595,19.5346,19.5346,0,0,1-6.297,1.00549A4.88846,4.88846,0,0,1,45.88135,18ZM41,25.11865V22.98553a24.75159,24.75159,0,0,0,6.9873-.98455A7.652,7.652,0,0,0,51,22.94006v2.17859A4.8871,4.8871,0,0,1,46.11865,30h-.2373A4.8871,4.8871,0,0,1,41,25.11865ZM50,32a3.00328,3.00328,0,0,1,3,3v9H40V35a4.95129,4.95129,0,0,0-1.02557-3ZM30.88135,18h.2373A4.88775,4.88775,0,0,1,35.621,21H26.379A4.88775,4.88775,0,0,1,30.88135,18ZM26,25.11865V23H36v2.11865A4.8871,4.8871,0,0,1,31.11865,30h-.2373A4.8871,4.8871,0,0,1,26,25.11865ZM26,35V32.18091A2.98666,2.98666,0,0,1,27,32h8a3.00328,3.00328,0,0,1,3,3v9H24V37A2.002,2.002,0,0,0,26,35Zm-3-3h1l.00146,3H23Z"></path><path d="M5.07178 59.41064l.958 3.832 1.94042-.48536-1-4a1.00455 1.00455 0 0 0-.13818-.312L3.83984 53.957A4.98574 4.98574 0 0 1 3 51.18311V38.51953c.35645-.915 2.65967-5.83887 3.08936-6.6001L9 29.00848v6.82746l-.92383 2.73779c-.09082.35791-.04834 3.52637-.03174 3.63232l.854 4.042A2.0027 2.0027 0 0 0 10.88281 48H13a.99939.99939 0 0 0 .84033-.458l3.01709-4.67969a.99117.99117 0 0 1 1.80664.76709l-3.59277 9a1.00253 1.00253 0 0 0-.0415.61329l2 8 1.94042-.48536L17.04834 53.0708 18.27344 50H59a1 1 0 0 0 1-1V13a1 1 0 0 0-1-1H10a1 1 0 0 0-1 1V26.18018L4.59912 30.58105C4.563 30.61719 1 37.65869 1 38.36279V51.18311a6.97987 6.97987 0 0 0 1.17578 3.8833zm4.9624-20.39453l.91309-2.69531A1.01106 1.01106 0 0 0 11 36V14H58V48H19.07178l1.46972-3.68359a2.99524 2.99524 0 0 0-1.17773-3.43262 2.98834 2.98834 0 0 0-4.2041.92187l-2.69141 4.17383L10.86914 45.918l-.8501-4.04151C10.00977 41.44922 10.01807 39.50342 10.03418 39.01611zM62.15625 4.83936c-1.92578-.59375-2.40186-1.06983-2.99561-2.99561a1.19946 1.19946 0 0 0-2.291 0C56.27588 3.76953 55.7998 4.24512 53.874 4.83936a1.19946 1.19946 0 0 0 0 2.291c1.92578.59424 2.40186 1.06983 2.99561 2.99561a1.19946 1.19946 0 0 0 2.291 0c.59375-1.92578 1.06983-2.40186 2.99561-2.99561a1.19946 1.19946 0 0 0 0-2.291zM58.01514 7.67822a4.40192 4.40192 0 0 0-1.69336-1.69336A4.40178 4.40178 0 0 0 58.01514 4.2915 4.39516 4.39516 0 0 0 59.7085 5.98486 4.39523 4.39523 0 0 0 58.01514 7.67822z"></path></svg>