<?xml version="1.0" encoding="UTF-8" standalone="no"?>
<!-- Uploaded to: SVG Repo, www.svgrepo.com, Generator: SVG Repo Mixer Tools -->

<svg
   fill="#000000"
   version="1.1"
   id="Capa_1"
   width="800px"
   height="800px"
   viewBox="0 0 975.9 975.9"
   xml:space="preserve"
   xmlns="http://www.w3.org/2000/svg"
   xmlns:svg="http://www.w3.org/2000/svg"><defs
   id="defs4">
	
	
	
	
</defs>
<path
   d="m 252.34022,525.1791 c -17.6735,-3.1622 -34.89673,-8.7234 -50.99425,-16.3564 -14.18383,-6.7607 -27.69224,-15.157 -39.84981,-25.19005 -2.58912,-2.07073 -5.06566,-4.25159 -7.5422,-6.43245 l 28.93051,405.6401 c 0.22515,3.1611 0.67655,6.3245 1.35085,9.3777 0.45028,2.0718 1.01313,4.0346 1.57598,5.9973 8.55532,26.4975 33.32075,45.3619 62.25126,45.3619 h 18.79921 90.05608 86.00355 90.05608 86.00355 90.05608 18.79921 c 3.48967,0 6.86677,-0.3271 10.24387,-0.7622 0.90057,-0.1101 1.80225,-0.3282 2.58912,-0.4362 0.90168,-0.218 1.91369,-0.4361 2.81425,-0.6542 0.22514,-0.1101 0.56285,-0.1101 0.78799,-0.2181 15.31066,-4.0346 28.36766,-13.4123 37.26183,-26.0613 0.56285,-0.8723 1.23827,-1.7447 1.80112,-2.6159 1.23827,-1.9639 2.2514,-3.9267 3.26453,-5.9974 0.90056,-1.8537 1.68855,-3.7075 2.36397,-5.6702 0.67542,-1.9628 1.35085,-3.9267 1.9137,-5.8884 0.78799,-3.0532 1.46341,-6.1064 1.80112,-9.2686 0.11369,-1.0904 0.22514,-2.0718 0.33771,-3.1623 l 28.93051,-405.64002 c -2.47654,2.18086 -4.95196,4.36172 -7.54219,6.43354 -12.26902,10.03196 -25.66599,18.42828 -39.84869,25.18898 -16.09753,7.633 -33.32188,13.1953 -50.99426,16.3564 l -12.72267,374.6686 h -90.05608 l 12.49641,-359.951 c -11.033,11.6676 -23.52828,21.9176 -37.26183,30.7501 -19.36093,12.3229 -40.6378,21.1543 -62.81411,26.1703 V 899.9589 H 443.14654 V 596.7103 c -22.28888,-5.016 -43.45206,-13.8485 -62.81411,-26.1704 -13.73356,-8.7234 -26.22884,-19.0825 -37.26071,-30.7501 L 355.567,899.8499 h -90.05607 z"
   id="path1"
   style="fill:#ff0000;stroke-width:1.10793" />
<g
   id="g4"
   transform="translate(-39.526916,-9.9541603)"><path
     d="m 754.58842,448.95355 c 0.15339,1.05679 0.40602,2.0801 0.73083,3.0479 v 0 c 0.84813,2.50291 2.22861,4.661 3.97,6.26287 1.25406,1.1569 2.6977,2.01356 4.25874,2.50291 0.9564,0.30035 1.95784,0.4562 2.99545,0.4562 1.47973,0 2.90532,-0.33372 4.21361,-0.9233 0.25263,-0.11123 0.49626,-0.23371 0.73986,-0.3672 1.4256,3.86006 4.14145,6.84132 7.46182,8.12059 1.13686,0.43385 2.35492,0.67868 3.60908,0.67868 1.25407,0 2.47215,-0.23372 3.6091,-0.66744 3.32929,-1.26815 6.03611,-4.26053 7.46179,-8.12059 0.24353,0.13349 0.48714,0.25585 0.73977,0.36708 1.31741,0.60071 2.73399,0.9233 4.21362,0.9233 1.03762,0 2.03923,-0.15562 2.99555,-0.45608 1.56094,-0.48945 3.00457,-1.34612 4.25873,-2.50292 1.74138,-1.60186 3.12186,-3.75995 3.97001,-6.26286 0.32481,-0.9678 0.57744,-1.99123 0.73083,-3.04801 4.9174,-1.91334 8.49047,-7.58663 8.49047,-14.29447 0,-7.29741 -4.23165,-13.38228 -9.83477,-14.71716 -0.94738,-7.10831 -5.95501,-12.53688 -11.9912,-12.53688 -1.28124,0 -2.50833,0.24474 -3.67226,0.70082 -1.94881,-5.06156 -6.12634,-8.5434 -10.96252,-8.5434 -4.83618,0 -9.01363,3.48184 -10.97165,8.53217 -1.1549,-0.45608 -2.39102,-0.70082 -3.67225,-0.70082 -6.0362,0 -11.04381,5.42857 -11.9912,12.53686 -5.60312,1.3349 -9.83478,7.41977 -9.83478,14.71718 -0.009,6.70794 3.56398,12.38123 8.48137,14.29457 z"
     id="path2-2-93"
     style="fill:#e2e3db;stroke:#000000;stroke-width:2.64946;stroke-dasharray:none;stroke-opacity:1" /><path
     d="m 588.35074,481.29322 c 0.15339,1.05679 0.40602,2.08009 0.73083,3.04789 v 0 c 0.84814,2.50292 2.22862,4.661 3.97,6.26288 1.25406,1.1569 2.69771,2.01355 4.25874,2.5029 0.95641,0.30035 1.95784,0.45621 2.99546,0.45621 1.47972,0 2.90532,-0.33373 4.21361,-0.9233 0.25263,-0.11124 0.49625,-0.23372 0.73985,-0.36721 1.4256,3.86006 4.14146,6.84132 7.46182,8.12059 1.13686,0.43385 2.35493,0.67868 3.60908,0.67868 1.25408,0 2.47215,-0.23372 3.6091,-0.66744 3.32929,-1.26815 6.03611,-4.26053 7.4618,-8.12058 0.24352,0.13349 0.48713,0.25584 0.73976,0.36708 1.31741,0.60071 2.73399,0.9233 4.21363,0.9233 1.03761,0 2.03923,-0.15563 2.99554,-0.45608 1.56094,-0.48945 3.00458,-1.34613 4.25873,-2.50292 1.74138,-1.60187 3.12186,-3.75996 3.97001,-6.26287 0.32481,-0.9678 0.57744,-1.99122 0.73083,-3.048 4.9174,-1.91335 8.49047,-7.58664 8.49047,-14.29447 0,-7.29741 -4.23165,-13.38229 -9.83477,-14.71717 -0.94738,-7.10831 -5.95501,-12.53687 -11.99119,-12.53687 -1.28124,0 -2.50834,0.24473 -3.67227,0.70082 -1.94881,-5.06156 -6.12634,-8.5434 -10.96252,-8.5434 -4.83618,0 -9.01362,3.48184 -10.97165,8.53217 -1.1549,-0.45609 -2.39102,-0.70082 -3.67225,-0.70082 -6.0362,0 -11.04381,5.42856 -11.9912,12.53686 -5.60312,1.33489 -9.83478,7.41977 -9.83478,14.71718 -0.009,6.70793 3.56398,12.38122 8.48137,14.29457 z"
     id="path2-2-93-9"
     style="fill:#e2e3db;stroke:#000000;stroke-width:2.64946;stroke-dasharray:none;stroke-opacity:1" /><path
     d="m 474.99495,494.84928 c 0.15339,1.05679 0.40602,2.08009 0.73083,3.0479 v 0 c 0.84814,2.50291 2.22862,4.661 3.97,6.26287 1.25406,1.1569 2.69771,2.01356 4.25874,2.50291 0.9564,0.30035 1.95784,0.4562 2.99545,0.4562 1.47973,0 2.90533,-0.33372 4.21362,-0.9233 0.25262,-0.11123 0.49625,-0.23371 0.73985,-0.3672 1.4256,3.86006 4.14145,6.84132 7.46182,8.12059 1.13686,0.43385 2.35492,0.67868 3.60908,0.67868 1.25407,0 2.47215,-0.23372 3.6091,-0.66744 3.32929,-1.26815 6.03611,-4.26053 7.4618,-8.12059 0.24352,0.13349 0.48713,0.25585 0.73976,0.36708 1.31741,0.60071 2.73399,0.9233 4.21362,0.9233 1.03762,0 2.03923,-0.15562 2.99555,-0.45608 1.56094,-0.48945 3.00458,-1.34612 4.25873,-2.50292 1.74138,-1.60186 3.12186,-3.75995 3.97001,-6.26286 0.32481,-0.9678 0.57744,-1.99123 0.73083,-3.04801 4.9174,-1.91334 8.49047,-7.58663 8.49047,-14.29447 0,-7.29741 -4.23165,-13.38228 -9.83477,-14.71716 -0.94738,-7.10831 -5.95501,-12.53688 -11.9912,-12.53688 -1.28123,0 -2.50833,0.24474 -3.67226,0.70082 -1.94881,-5.06156 -6.12634,-8.5434 -10.96252,-8.5434 -4.83618,0 -9.01363,3.48184 -10.97165,8.53217 -1.1549,-0.45608 -2.39102,-0.70082 -3.67225,-0.70082 -6.0362,0 -11.04381,5.42857 -11.9912,12.53686 -5.60312,1.3349 -9.83478,7.41977 -9.83478,14.71718 -0.009,6.70794 3.56398,12.38123 8.48137,14.29457 z"
     id="path2-2-93-7"
     style="fill:#e2e3db;stroke:#000000;stroke-width:2.64946;stroke-dasharray:none;stroke-opacity:1" /><path
     d="m 416.21788,425.71336 c 0.15339,1.05679 0.40602,2.0801 0.73083,3.0479 v 0 c 0.84814,2.50292 2.22862,4.661 3.97,6.26287 1.25406,1.15691 2.69771,2.01356 4.25874,2.50291 0.9564,0.30035 1.95784,0.45621 2.99545,0.45621 1.47973,0 2.90533,-0.33373 4.21362,-0.92331 0.25263,-0.11123 0.49625,-0.23371 0.73985,-0.3672 1.4256,3.86006 4.14146,6.84132 7.46182,8.12059 1.13686,0.43385 2.35492,0.67868 3.60908,0.67868 1.25408,0 2.47215,-0.23372 3.6091,-0.66744 3.32929,-1.26815 6.03611,-4.26053 7.4618,-8.12059 0.24352,0.1335 0.48713,0.25585 0.73976,0.36709 1.31741,0.6007 2.73399,0.9233 4.21363,0.9233 1.03761,0 2.03922,-0.15563 2.99554,-0.45609 1.56094,-0.48945 3.00458,-1.34612 4.25873,-2.50292 1.74138,-1.60186 3.12186,-3.75995 3.97001,-6.26286 0.32481,-0.9678 0.57744,-1.99122 0.73083,-3.048 4.9174,-1.91335 8.49047,-7.58664 8.49047,-14.29447 0,-7.29741 -4.23165,-13.38229 -9.83477,-14.71717 -0.94738,-7.10831 -5.95501,-12.53687 -11.99119,-12.53687 -1.28124,0 -2.50834,0.24473 -3.67227,0.70082 -1.94881,-5.06156 -6.12634,-8.54341 -10.96252,-8.54341 -4.83618,0 -9.01363,3.48185 -10.97165,8.53217 -1.1549,-0.45608 -2.39102,-0.70082 -3.67225,-0.70082 -6.0362,0 -11.04381,5.42857 -11.9912,12.53687 -5.60312,1.33489 -9.83478,7.41976 -9.83478,14.71717 -0.009,6.70794 3.56398,12.38123 8.48137,14.29457 z"
     id="path2-2-93-4"
     style="fill:#e2e3db;stroke:#000000;stroke-width:2.64946;stroke-dasharray:none;stroke-opacity:1" /><path
     d="m 393.82661,497.56049 c 0.15339,1.05679 0.40602,2.0801 0.73083,3.0479 v 0 c 0.84813,2.50292 2.22861,4.661 3.96999,6.26287 1.25407,1.15691 2.69771,2.01356 4.25875,2.50291 0.9564,0.30035 1.95784,0.45621 2.99545,0.45621 1.47972,0 2.90532,-0.33373 4.21361,-0.9233 0.25263,-0.11124 0.49626,-0.23372 0.73986,-0.36721 1.4256,3.86006 4.14145,6.84132 7.46182,8.12059 1.13686,0.43385 2.35492,0.67868 3.60908,0.67868 1.25407,0 2.47215,-0.23372 3.60909,-0.66744 3.3293,-1.26815 6.03611,-4.26053 7.4618,-8.12058 0.24353,0.13349 0.48714,0.25584 0.73977,0.36708 1.31741,0.6007 2.73399,0.9233 4.21362,0.9233 1.03762,0 2.03923,-0.15563 2.99555,-0.45609 1.56094,-0.48945 3.00457,-1.34612 4.25873,-2.50291 1.74138,-1.60187 3.12186,-3.75996 3.97001,-6.26287 0.32481,-0.9678 0.57744,-1.99122 0.73083,-3.048 4.91739,-1.91335 8.49047,-7.58664 8.49047,-14.29447 0,-7.29741 -4.23166,-13.38229 -9.83478,-14.71717 -0.94737,-7.10831 -5.955,-12.53687 -11.99119,-12.53687 -1.28124,0 -2.50833,0.24473 -3.67226,0.70082 -1.94881,-5.06156 -6.12635,-8.54341 -10.96253,-8.54341 -4.83618,0 -9.01362,3.48185 -10.97164,8.53217 -1.1549,-0.45608 -2.39102,-0.70082 -3.67225,-0.70082 -6.0362,0 -11.04381,5.42857 -11.9912,12.53687 -5.60312,1.33489 -9.83478,7.41976 -9.83478,14.71717 -0.009,6.70794 3.56398,12.38123 8.48137,14.29457 z"
     id="path2-2-93-0"
     style="fill:#e2e3db;stroke:#000000;stroke-width:2.64946;stroke-dasharray:none;stroke-opacity:1" /><path
     d="m 277.67191,366.06669 c 0.15339,1.05679 0.40602,2.08009 0.73083,3.04789 v 0 c 0.84813,2.50292 2.22861,4.661 3.96999,6.26288 1.25407,1.1569 2.69771,2.01355 4.25874,2.50291 0.95641,0.30034 1.95785,0.4562 2.99546,0.4562 1.47972,0 2.90532,-0.33373 4.21361,-0.9233 0.25263,-0.11124 0.49626,-0.23371 0.73986,-0.3672 1.4256,3.86005 4.14145,6.84131 7.46182,8.12058 1.13686,0.43385 2.35492,0.67869 3.60908,0.67869 1.25407,0 2.47215,-0.23373 3.60909,-0.66744 3.3293,-1.26815 6.03611,-4.26053 7.4618,-8.12059 0.24353,0.13349 0.48714,0.25585 0.73977,0.36708 1.31741,0.60071 2.73399,0.9233 4.21362,0.9233 1.03762,0 2.03923,-0.15563 2.99555,-0.45608 1.56094,-0.48945 3.00457,-1.34613 4.25873,-2.50292 1.74138,-1.60187 3.12186,-3.75996 3.97001,-6.26287 0.32481,-0.9678 0.57744,-1.99122 0.73082,-3.048 4.9174,-1.91334 8.49048,-7.58664 8.49048,-14.29447 0,-7.29741 -4.23166,-13.38228 -9.83478,-14.71717 -0.94737,-7.10831 -5.955,-12.53687 -11.99119,-12.53687 -1.28124,0 -2.50833,0.24474 -3.67226,0.70082 -1.94881,-5.06156 -6.12635,-8.5434 -10.96253,-8.5434 -4.83618,0 -9.01362,3.48184 -10.97164,8.53217 -1.1549,-0.45609 -2.39102,-0.70082 -3.67225,-0.70082 -6.0362,0 -11.04381,5.42856 -11.9912,12.53686 -5.60312,1.33489 -9.83478,7.41977 -9.83478,14.71718 -0.009,6.70793 3.56398,12.38122 8.48137,14.29457 z"
     id="path2-2-93-6"
     style="fill:#e2e3db;stroke:#000000;stroke-width:2.64946;stroke-dasharray:none;stroke-opacity:1" /><path
     d="m 332.25062,450.11427 c 0.15339,1.05679 0.40602,2.08009 0.73083,3.0479 v 0 c 0.84813,2.50291 2.22861,4.661 3.96999,6.26287 1.25407,1.1569 2.69771,2.01356 4.25875,2.50291 0.9564,0.30035 1.95784,0.4562 2.99545,0.4562 1.47972,0 2.90532,-0.33372 4.21361,-0.9233 0.25263,-0.11123 0.49626,-0.23371 0.73986,-0.3672 1.4256,3.86006 4.14145,6.84132 7.46182,8.12059 1.13686,0.43385 2.35492,0.67868 3.60908,0.67868 1.25407,0 2.47215,-0.23372 3.6091,-0.66744 3.32929,-1.26815 6.03611,-4.26053 7.46179,-8.12059 0.24353,0.13349 0.48714,0.25585 0.73977,0.36708 1.31741,0.60071 2.73399,0.9233 4.21362,0.9233 1.03762,0 2.03923,-0.15562 2.99555,-0.45608 1.56094,-0.48945 3.00457,-1.34612 4.25873,-2.50292 1.74138,-1.60186 3.12186,-3.75995 3.97001,-6.26286 0.32481,-0.9678 0.57744,-1.99123 0.73083,-3.04801 4.9174,-1.91334 8.49047,-7.58663 8.49047,-14.29447 0,-7.29741 -4.23165,-13.38228 -9.83478,-14.71716 -0.94737,-7.10831 -5.955,-12.53688 -11.99119,-12.53688 -1.28124,0 -2.50833,0.24474 -3.67226,0.70082 -1.94881,-5.06156 -6.12634,-8.5434 -10.96253,-8.5434 -4.83618,0 -9.01362,3.48184 -10.97164,8.53217 -1.1549,-0.45608 -2.39102,-0.70082 -3.67225,-0.70082 -6.0362,0 -11.04381,5.42857 -11.9912,12.53686 -5.60312,1.3349 -9.83478,7.41977 -9.83478,14.71718 -0.009,6.70793 3.56398,12.38123 8.48137,14.29457 z"
     id="path2-2-93-06"
     style="fill:#e2e3db;stroke:#000000;stroke-width:2.64946;stroke-dasharray:none;stroke-opacity:1" /><path
     d="m 246.88391,448.75867 c 0.15339,1.05679 0.40602,2.08009 0.73083,3.04789 v 0 c 0.84813,2.50292 2.22861,4.661 3.96999,6.26288 1.25407,1.1569 2.69771,2.01355 4.25874,2.50291 0.95641,0.30035 1.95785,0.4562 2.99546,0.4562 1.47972,0 2.90532,-0.33373 4.21361,-0.9233 0.25263,-0.11123 0.49626,-0.23371 0.73986,-0.3672 1.4256,3.86006 4.14145,6.84131 7.46182,8.12059 1.13686,0.43384 2.35492,0.67868 3.60908,0.67868 1.25407,0 2.47215,-0.23372 3.60909,-0.66744 3.3293,-1.26815 6.03611,-4.26053 7.4618,-8.12059 0.24353,0.13349 0.48714,0.25585 0.73977,0.36708 1.31741,0.60071 2.73399,0.9233 4.21362,0.9233 1.03762,0 2.03923,-0.15562 2.99555,-0.45608 1.56094,-0.48945 3.00457,-1.34613 4.25873,-2.50292 1.74138,-1.60186 3.12186,-3.75996 3.97001,-6.26286 0.32481,-0.9678 0.57744,-1.99123 0.73082,-3.04801 4.9174,-1.91334 8.49048,-7.58663 8.49048,-14.29447 0,-7.29741 -4.23166,-13.38228 -9.83478,-14.71717 -0.94738,-7.1083 -5.955,-12.53687 -11.99119,-12.53687 -1.28124,0 -2.50833,0.24474 -3.67226,0.70082 -1.94881,-5.06156 -6.12635,-8.5434 -10.96253,-8.5434 -4.83618,0 -9.01362,3.48184 -10.97164,8.53217 -1.1549,-0.45608 -2.39102,-0.70082 -3.67225,-0.70082 -6.0362,0 -11.04381,5.42857 -11.9912,12.53686 -5.60313,1.3349 -9.83478,7.41977 -9.83478,14.71718 -0.009,6.70793 3.56398,12.38122 8.48137,14.29457 z"
     id="path2-2-93-2"
     style="fill:#e2e3db;stroke:#000000;stroke-width:2.64946;stroke-dasharray:none;stroke-opacity:1" /><path
     d="m 569.43187,305.36094 c 0.15339,1.05679 0.40602,2.08009 0.73083,3.0479 v 0 c 0.84814,2.50291 2.22862,4.661 3.97,6.26287 1.25406,1.1569 2.69771,2.01356 4.25874,2.50291 0.95641,0.30035 1.95784,0.4562 2.99546,0.4562 1.47972,0 2.90532,-0.33372 4.21361,-0.9233 0.25263,-0.11123 0.49625,-0.23371 0.73985,-0.3672 1.4256,3.86006 4.14146,6.84132 7.46183,8.12059 1.13685,0.43385 2.35492,0.67868 3.60907,0.67868 1.25408,0 2.47215,-0.23372 3.6091,-0.66744 3.32929,-1.26815 6.03611,-4.26053 7.4618,-8.12059 0.24352,0.13349 0.48714,0.25585 0.73976,0.36708 1.31741,0.60071 2.73399,0.9233 4.21363,0.9233 1.03761,0 2.03923,-0.15562 2.99554,-0.45608 1.56095,-0.48945 3.00458,-1.34612 4.25873,-2.50292 1.74138,-1.60186 3.12186,-3.75995 3.97001,-6.26285 0.32481,-0.9678 0.57744,-1.99124 0.73083,-3.04802 4.9174,-1.91334 8.49048,-7.58663 8.49048,-14.29446 0,-7.29741 -4.23166,-13.38229 -9.83478,-14.71717 -0.94738,-7.1083 -5.955,-12.53688 -11.99119,-12.53688 -1.28124,0 -2.50833,0.24474 -3.67226,0.70082 -1.94882,-5.06156 -6.12635,-8.5434 -10.96253,-8.5434 -4.83618,0 -9.01362,3.48184 -10.97164,8.53217 -1.15491,-0.45608 -2.39103,-0.70081 -3.67226,-0.70081 -6.0362,0 -11.04381,5.42856 -11.9912,12.53685 -5.60312,1.33491 -9.83477,7.41977 -9.83477,14.71718 -0.009,6.70794 3.56398,12.38123 8.48136,14.29457 z"
     id="path2-2-93-61"
     style="fill:#e2e3db;stroke:#000000;stroke-width:2.64946;stroke-dasharray:none;stroke-opacity:1" /><path
     d="m 643.60295,363.65201 c 0.15339,1.05679 0.40602,2.08009 0.73083,3.04789 v 0 c 0.84813,2.50292 2.22861,4.661 3.96999,6.26288 1.25407,1.1569 2.69771,2.01355 4.25875,2.5029 0.9564,0.30035 1.95784,0.45621 2.99545,0.45621 1.47972,0 2.90532,-0.33373 4.21361,-0.9233 0.25263,-0.11124 0.49626,-0.23372 0.73986,-0.36721 1.4256,3.86006 4.14145,6.84132 7.46182,8.12059 1.13686,0.43385 2.35492,0.67869 3.60908,0.67869 1.25407,0 2.47215,-0.23373 3.6091,-0.66745 3.32929,-1.26815 6.03611,-4.26053 7.46179,-8.12058 0.24353,0.13349 0.48714,0.25584 0.73977,0.36708 1.31741,0.60071 2.73399,0.9233 4.21362,0.9233 1.03762,0 2.03923,-0.15563 2.99555,-0.45608 1.56094,-0.48945 3.00457,-1.34613 4.25873,-2.50292 1.74138,-1.60187 3.12186,-3.75996 3.97001,-6.26286 0.32481,-0.9678 0.57744,-1.99123 0.73083,-3.04801 4.9174,-1.91335 8.49047,-7.58664 8.49047,-14.29446 0,-7.29741 -4.23165,-13.3823 -9.83478,-14.71718 -0.94737,-7.1083 -5.955,-12.53687 -11.99119,-12.53687 -1.28124,0 -2.50833,0.24473 -3.67226,0.70082 -1.94881,-5.06156 -6.12634,-8.5434 -10.96253,-8.5434 -4.83618,0 -9.01362,3.48184 -10.97164,8.53217 -1.1549,-0.45609 -2.39102,-0.70081 -3.67225,-0.70081 -6.0362,0 -11.04381,5.42855 -11.9912,12.53685 -5.60312,1.3349 -9.83478,7.41977 -9.83478,14.71718 -0.009,6.70793 3.56398,12.38122 8.48137,14.29457 z"
     id="path2-2-93-5"
     style="fill:#e2e3db;stroke:#000000;stroke-width:2.64946;stroke-dasharray:none;stroke-opacity:1" /><path
     d="m 484.06516,351.45155 c 0.15339,1.05679 0.40602,2.0801 0.73083,3.0479 v 0 c 0.84814,2.50292 2.22862,4.661 3.97,6.26287 1.25406,1.1569 2.69771,2.01356 4.25874,2.50291 0.95641,0.30035 1.95784,0.4562 2.99546,0.4562 1.47972,0 2.90532,-0.33372 4.21361,-0.9233 0.25263,-0.11123 0.49625,-0.23371 0.73985,-0.3672 1.4256,3.86006 4.14146,6.84132 7.46182,8.12059 1.13686,0.43385 2.35493,0.67868 3.60908,0.67868 1.25408,0 2.47215,-0.23372 3.6091,-0.66744 3.32929,-1.26815 6.03611,-4.26053 7.4618,-8.12059 0.24352,0.13349 0.48713,0.25585 0.73976,0.36709 1.31741,0.6007 2.73399,0.9233 4.21363,0.9233 1.03761,0 2.03923,-0.15563 2.99554,-0.45609 1.56094,-0.48945 3.00458,-1.34612 4.25873,-2.50292 1.74138,-1.60186 3.12186,-3.75995 3.97001,-6.26285 0.32481,-0.9678 0.57744,-1.99123 0.73083,-3.04801 4.9174,-1.91335 8.49047,-7.58664 8.49047,-14.29447 0,-7.29741 -4.23165,-13.38229 -9.83477,-14.71717 -0.94738,-7.1083 -5.955,-12.53688 -11.99119,-12.53688 -1.28124,0 -2.50834,0.24474 -3.67227,0.70082 -1.94881,-5.06156 -6.12634,-8.5434 -10.96252,-8.5434 -4.83618,0 -9.01362,3.48184 -10.97165,8.53217 -1.1549,-0.45608 -2.39102,-0.70081 -3.67225,-0.70081 -6.0362,0 -11.04381,5.42856 -11.9912,12.53685 -5.60312,1.33491 -9.83478,7.41977 -9.83478,14.71718 -0.009,6.70794 3.56398,12.38123 8.48137,14.29457 z"
     id="path2-2-93-76"
     style="fill:#e2e3db;stroke:#000000;stroke-width:2.64946;stroke-dasharray:none;stroke-opacity:1" /><path
     d="m 582.02696,408.38702 c 0.15339,1.05679 0.40602,2.08009 0.73083,3.04789 v 0 c 0.84813,2.50292 2.22861,4.661 3.97,6.26288 1.25406,1.1569 2.6977,2.01355 4.25874,2.5029 0.9564,0.30035 1.95784,0.45621 2.99545,0.45621 1.47973,0 2.90532,-0.33373 4.21361,-0.9233 0.25263,-0.11124 0.49626,-0.23371 0.73986,-0.36721 1.4256,3.86006 4.14145,6.84132 7.46182,8.12059 1.13686,0.43385 2.35492,0.67869 3.60908,0.67869 1.25407,0 2.47215,-0.23373 3.6091,-0.66745 3.32929,-1.26814 6.03611,-4.26053 7.46179,-8.12058 0.24353,0.13349 0.48714,0.25584 0.73977,0.36708 1.31741,0.60071 2.73399,0.9233 4.21362,0.9233 1.03762,0 2.03923,-0.15563 2.99555,-0.45608 1.56094,-0.48945 3.00457,-1.34613 4.25873,-2.50292 1.74138,-1.60187 3.12186,-3.75996 3.97001,-6.26286 0.32481,-0.9678 0.57744,-1.99123 0.73083,-3.04801 4.9174,-1.91335 8.49047,-7.58664 8.49047,-14.29446 0,-7.29741 -4.23165,-13.3823 -9.83477,-14.71718 -0.94738,-7.1083 -5.95501,-12.53687 -11.9912,-12.53687 -1.28124,0 -2.50833,0.24473 -3.67226,0.70082 -1.94881,-5.06156 -6.12634,-8.5434 -10.96252,-8.5434 -4.83618,0 -9.01363,3.48184 -10.97165,8.53217 -1.1549,-0.45609 -2.39102,-0.70081 -3.67225,-0.70081 -6.0362,0 -11.04381,5.42855 -11.9912,12.53685 -5.60312,1.3349 -9.83478,7.41977 -9.83478,14.71718 -0.009,6.70793 3.56398,12.38122 8.48137,14.29457 z"
     id="path2-2-93-69"
     style="fill:#e2e3db;stroke:#000000;stroke-width:2.64946;stroke-dasharray:none;stroke-opacity:1" /><path
     d="m 388.90227,375.85246 c 0.15339,1.05679 0.40602,2.08009 0.73083,3.04789 v 0 c 0.84814,2.50292 2.22862,4.661 3.97,6.26288 1.25407,1.1569 2.69771,2.01355 4.25874,2.50291 0.95641,0.30035 1.95784,0.4562 2.99546,0.4562 1.47972,0 2.90532,-0.33373 4.21361,-0.9233 0.25263,-0.11123 0.49625,-0.23371 0.73985,-0.3672 1.4256,3.86006 4.14146,6.84131 7.46183,8.12058 1.13685,0.43385 2.35492,0.67869 3.60907,0.67869 1.25408,0 2.47215,-0.23372 3.6091,-0.66744 3.3293,-1.26815 6.03611,-4.26053 7.4618,-8.12059 0.24352,0.13349 0.48714,0.25585 0.73977,0.36708 1.3174,0.60071 2.73399,0.9233 4.21362,0.9233 1.03761,0 2.03923,-0.15562 2.99554,-0.45608 1.56095,-0.48945 3.00458,-1.34613 4.25873,-2.50292 1.74138,-1.60186 3.12187,-3.75996 3.97001,-6.26285 0.32481,-0.9678 0.57744,-1.99124 0.73083,-3.04802 4.9174,-1.91334 8.49048,-7.58663 8.49048,-14.29446 0,-7.29741 -4.23166,-13.38229 -9.83478,-14.71718 -0.94738,-7.10829 -5.955,-12.53687 -11.99119,-12.53687 -1.28124,0 -2.50833,0.24474 -3.67226,0.70082 -1.94882,-5.06156 -6.12635,-8.5434 -10.96253,-8.5434 -4.83618,0 -9.01362,3.48184 -10.97164,8.53217 -1.15491,-0.45608 -2.39103,-0.70081 -3.67225,-0.70081 -6.0362,0 -11.04382,5.42855 -11.99121,12.53685 -5.60312,1.33491 -9.83477,7.41977 -9.83477,14.71718 -0.009,6.70793 3.56398,12.38122 8.48136,14.29457 z"
     id="path2-2-93-74"
     style="fill:#e2e3db;stroke:#000000;stroke-width:2.64946;stroke-dasharray:none;stroke-opacity:1" /><path
     d="m 496.66025,408.38702 c 0.15339,1.05679 0.40602,2.08009 0.73083,3.04789 v 0 c 0.84813,2.50292 2.22861,4.661 3.96999,6.26288 1.25407,1.1569 2.69771,2.01355 4.25874,2.5029 0.95641,0.30035 1.95785,0.45621 2.99546,0.45621 1.47972,0 2.90532,-0.33373 4.21361,-0.9233 0.25263,-0.11124 0.49626,-0.23371 0.73986,-0.36721 1.4256,3.86006 4.14145,6.84132 7.46182,8.12059 1.13686,0.43385 2.35492,0.67869 3.60908,0.67869 1.25407,0 2.47215,-0.23373 3.60909,-0.66745 3.3293,-1.26814 6.03611,-4.26053 7.4618,-8.12058 0.24353,0.13349 0.48714,0.25584 0.73977,0.36708 1.31741,0.60071 2.73399,0.9233 4.21362,0.9233 1.03762,0 2.03923,-0.15563 2.99555,-0.45608 1.56094,-0.48945 3.00457,-1.34613 4.25873,-2.50292 1.74138,-1.60187 3.12186,-3.75996 3.97001,-6.26286 0.32481,-0.9678 0.57744,-1.99123 0.73082,-3.04801 4.9174,-1.91335 8.49048,-7.58664 8.49048,-14.29446 0,-7.29741 -4.23166,-13.3823 -9.83478,-14.71718 -0.94737,-7.1083 -5.955,-12.53687 -11.99119,-12.53687 -1.28124,0 -2.50833,0.24473 -3.67226,0.70082 -1.94881,-5.06156 -6.12635,-8.5434 -10.96253,-8.5434 -4.83618,0 -9.01362,3.48184 -10.97164,8.53217 -1.1549,-0.45609 -2.39102,-0.70081 -3.67225,-0.70081 -6.0362,0 -11.04381,5.42855 -11.9912,12.53685 -5.60312,1.3349 -9.83478,7.41977 -9.83478,14.71718 -0.009,6.70793 3.56398,12.38122 8.48137,14.29457 z"
     id="path2-2-93-25"
     style="fill:#e2e3db;stroke:#000000;stroke-width:2.64946;stroke-dasharray:none;stroke-opacity:1" /><path
     d="m 665.99421,440.92156 c 0.15339,1.05679 0.40602,2.0801 0.73083,3.0479 v 0 c 0.84814,2.50292 2.22862,4.661 3.97,6.26287 1.25406,1.1569 2.69771,2.01356 4.25874,2.50291 0.9564,0.30035 1.95784,0.4562 2.99545,0.4562 1.47973,0 2.90533,-0.33372 4.21362,-0.9233 0.25262,-0.11123 0.49625,-0.23371 0.73985,-0.3672 1.4256,3.86006 4.14145,6.84132 7.46182,8.12059 1.13686,0.43385 2.35492,0.67868 3.60908,0.67868 1.25407,0 2.47215,-0.23372 3.6091,-0.66744 3.32929,-1.26815 6.03611,-4.26053 7.4618,-8.12059 0.24352,0.13349 0.48713,0.25585 0.73976,0.36709 1.31741,0.6007 2.73399,0.9233 4.21362,0.9233 1.03762,0 2.03923,-0.15563 2.99555,-0.45609 1.56094,-0.48945 3.00458,-1.34612 4.25873,-2.50292 1.74138,-1.60186 3.12186,-3.75995 3.97001,-6.26285 0.32481,-0.9678 0.57744,-1.99124 0.73083,-3.04801 4.9174,-1.91335 8.49047,-7.58664 8.49047,-14.29447 0,-7.29741 -4.23165,-13.38229 -9.83477,-14.71717 -0.94738,-7.1083 -5.95501,-12.53688 -11.9912,-12.53688 -1.28123,0 -2.50833,0.24474 -3.67226,0.70082 -1.94881,-5.06156 -6.12634,-8.5434 -10.96252,-8.5434 -4.83618,0 -9.01363,3.48184 -10.97165,8.53217 -1.1549,-0.45608 -2.39102,-0.70081 -3.67225,-0.70081 -6.0362,0 -11.04381,5.42856 -11.9912,12.53685 -5.60312,1.33491 -9.83478,7.41977 -9.83478,14.71718 -0.009,6.70794 3.56398,12.38123 8.48137,14.29457 z"
     id="path2-2-93-744"
     style="fill:#e2e3db;stroke:#000000;stroke-width:2.64946;stroke-dasharray:none;stroke-opacity:1" /><path
     d="m 351.27445,289.35631 c 0.15339,1.0568 0.40602,2.0801 0.73083,3.0479 v 0 c 0.84813,2.50292 2.22861,4.661 3.96999,6.26287 1.25407,1.15691 2.69771,2.01356 4.25874,2.50291 0.95641,0.30035 1.95785,0.45621 2.99546,0.45621 1.47972,0 2.90532,-0.33373 4.21362,-0.9233 0.25263,-0.11124 0.49625,-0.23372 0.73986,-0.36721 1.4256,3.86006 4.14144,6.84132 7.46182,8.12059 1.13686,0.43385 2.35491,0.67868 3.60908,0.67868 1.25407,0 2.47215,-0.23372 3.6091,-0.66744 3.32929,-1.26815 6.03611,-4.26053 7.46179,-8.12058 0.24353,0.13349 0.48714,0.25584 0.73977,0.36708 1.31741,0.60071 2.73399,0.9233 4.21362,0.9233 1.03761,0 2.03922,-0.15563 2.99555,-0.45609 1.56094,-0.48945 3.00456,-1.34612 4.25873,-2.50291 1.74138,-1.60187 3.12186,-3.75996 3.97001,-6.26287 0.32481,-0.9678 0.57744,-1.99122 0.73083,-3.048 4.9174,-1.91335 8.49046,-7.58664 8.49046,-14.29447 0,-7.29741 -4.23166,-13.38229 -9.83478,-14.71717 -0.94738,-7.10831 -5.95499,-12.53687 -11.99118,-12.53687 -1.28124,0 -2.50834,0.24473 -3.67227,0.70082 -1.94881,-5.06156 -6.12635,-8.54341 -10.96253,-8.54341 -4.83618,0 -9.01362,3.48185 -10.97164,8.53217 -1.1549,-0.45608 -2.39102,-0.70081 -3.67225,-0.70081 -6.0362,0 -11.04381,5.42856 -11.9912,12.53686 -5.60312,1.33489 -9.83478,7.41976 -9.83478,14.71717 -0.009,6.70794 3.56398,12.38123 8.48137,14.29457 z"
     id="path2-2-93-07"
     style="fill:#e2e3db;stroke:#000000;stroke-width:2.64946;stroke-dasharray:none;stroke-opacity:1" /><path
     d="m 741.72218,357.13663 c 0.15338,1.05679 0.40601,2.08009 0.73082,3.04789 v 0 c 0.84814,2.50292 2.22862,4.66101 3.97,6.26288 1.25407,1.1569 2.69771,2.01356 4.25874,2.50291 0.95641,0.30035 1.95784,0.4562 2.99546,0.4562 1.47972,0 2.90532,-0.33372 4.21362,-0.9233 0.25263,-0.11123 0.49624,-0.23371 0.73986,-0.3672 1.4256,3.86006 4.14144,6.84131 7.46182,8.12059 1.13685,0.43385 2.35491,0.67868 3.60907,0.67868 1.25408,0 2.47216,-0.23372 3.6091,-0.66744 3.3293,-1.26815 6.03611,-4.26053 7.4618,-8.12059 0.24352,0.13349 0.48714,0.25585 0.73977,0.36708 1.31741,0.60071 2.73399,0.9233 4.21362,0.9233 1.0376,0 2.03922,-0.15562 2.99555,-0.45608 1.56094,-0.48945 3.00456,-1.34612 4.25873,-2.50292 1.74138,-1.60186 3.12186,-3.75995 3.97001,-6.26286 0.32481,-0.9678 0.57744,-1.99123 0.73082,-3.04801 4.9174,-1.91334 8.49047,-7.58663 8.49047,-14.29447 0,-7.29741 -4.23166,-13.38228 -9.83478,-14.71716 -0.94738,-7.10831 -5.95499,-12.53688 -11.99118,-12.53688 -1.28124,0 -2.50834,0.24474 -3.67227,0.70082 -1.94882,-5.06156 -6.12635,-8.5434 -10.96253,-8.5434 -4.83618,0 -9.01362,3.48184 -10.97164,8.53217 -1.15491,-0.45608 -2.39103,-0.70082 -3.67225,-0.70082 -6.0362,0 -11.04382,5.42857 -11.99121,12.53686 -5.60312,1.3349 -9.83477,7.41977 -9.83477,14.71718 -0.009,6.70793 3.56398,12.38123 8.48137,14.29457 z"
     id="path2-2-93-68"
     style="fill:#e2e3db;stroke:#000000;stroke-width:2.64946;stroke-dasharray:none;stroke-opacity:1" /><path
     d="m 559.79313,226.99844 c 0.15338,1.05679 0.40601,2.08009 0.73082,3.04789 v 0 c 0.84814,2.50292 2.22862,4.661 3.97,6.26288 1.25407,1.1569 2.69771,2.01355 4.25874,2.5029 0.95641,0.30035 1.95785,0.45621 2.99546,0.45621 1.47972,0 2.90532,-0.33373 4.21362,-0.9233 0.25263,-0.11124 0.49625,-0.23372 0.73986,-0.36721 1.4256,3.86006 4.14144,6.84132 7.46182,8.12059 1.13686,0.43385 2.35491,0.67868 3.60908,0.67868 1.25407,0 2.47215,-0.23372 3.60909,-0.66744 3.3293,-1.26815 6.03611,-4.26053 7.4618,-8.12058 0.24353,0.13349 0.48714,0.25584 0.73977,0.36708 1.31741,0.60071 2.73399,0.9233 4.21362,0.9233 1.03761,0 2.03922,-0.15563 2.99555,-0.45608 1.56094,-0.48945 3.00456,-1.34613 4.25873,-2.50292 1.74138,-1.60187 3.12186,-3.75996 3.97001,-6.26287 0.32481,-0.9678 0.57744,-1.99122 0.73082,-3.048 4.9174,-1.91335 8.49047,-7.58664 8.49047,-14.29447 0,-7.29741 -4.23166,-13.38229 -9.83478,-14.71717 -0.94738,-7.10831 -5.95499,-12.53687 -11.99118,-12.53687 -1.28124,0 -2.50834,0.24473 -3.67227,0.70082 -1.94881,-5.06156 -6.12635,-8.5434 -10.96253,-8.5434 -4.83618,0 -9.01362,3.48184 -10.97164,8.53217 -1.1549,-0.45609 -2.39102,-0.70082 -3.67225,-0.70082 -6.0362,0 -11.04382,5.42856 -11.99121,12.53686 -5.60312,1.33489 -9.83477,7.41977 -9.83477,14.71718 -0.009,6.70793 3.56398,12.38122 8.48137,14.29457 z"
     id="path2-2-93-43"
     style="fill:#e2e3db;stroke:#000000;stroke-width:2.64946;stroke-dasharray:none;stroke-opacity:1" /><path
     d="m 422.64661,231.06525 c 0.15339,1.05679 0.40602,2.08009 0.73083,3.04789 v 0 c 0.84814,2.50292 2.22862,4.661 3.97,6.26288 1.25406,1.1569 2.69771,2.01356 4.25874,2.50291 0.95641,0.30035 1.95784,0.4562 2.99546,0.4562 1.47972,0 2.90532,-0.33373 4.21362,-0.9233 0.25263,-0.11123 0.49624,-0.23371 0.73985,-0.3672 1.4256,3.86006 4.14145,6.84131 7.46183,8.12059 1.13685,0.43384 2.35491,0.67868 3.60907,0.67868 1.25408,0 2.47215,-0.23372 3.6091,-0.66744 3.3293,-1.26815 6.03611,-4.26053 7.4618,-8.12059 0.24352,0.13349 0.48714,0.25585 0.73977,0.36708 1.3174,0.60071 2.73399,0.9233 4.21362,0.9233 1.0376,0 2.03922,-0.15562 2.99554,-0.45608 1.56095,-0.48945 3.00457,-1.34613 4.25873,-2.50292 1.74138,-1.60186 3.12187,-3.75996 3.97001,-6.26286 0.32481,-0.9678 0.57744,-1.99123 0.73083,-3.04801 4.9174,-1.91334 8.49047,-7.58663 8.49047,-14.29447 0,-7.29741 -4.23166,-13.38228 -9.83478,-14.71717 -0.94738,-7.1083 -5.95499,-12.53687 -11.99118,-12.53687 -1.28124,0 -2.50834,0.24474 -3.67227,0.70082 -1.94882,-5.06156 -6.12635,-8.5434 -10.96253,-8.5434 -4.83618,0 -9.01362,3.48184 -10.97165,8.53217 -1.1549,-0.45608 -2.39102,-0.70082 -3.67225,-0.70082 -6.0362,0 -11.04381,5.42857 -11.9912,12.53686 -5.60312,1.3349 -9.83478,7.41977 -9.83478,14.71718 -0.009,6.70793 3.56399,12.38122 8.48137,14.29457 z"
     id="path2-2-93-49"
     style="fill:#e2e3db;stroke:#000000;stroke-width:2.64946;stroke-dasharray:none;stroke-opacity:1" /><path
     d="m 467.42915,277.15586 c 0.15339,1.05679 0.40602,2.0801 0.73083,3.0479 v 0 c 0.84813,2.50291 2.22861,4.661 3.96999,6.26287 1.25407,1.1569 2.69771,2.01356 4.25874,2.50291 0.95641,0.30035 1.95785,0.4562 2.99546,0.4562 1.47972,0 2.90532,-0.33372 4.21362,-0.9233 0.25263,-0.11123 0.49625,-0.23371 0.73986,-0.3672 1.4256,3.86006 4.14144,6.84132 7.46182,8.12059 1.13686,0.43385 2.35491,0.67868 3.60908,0.67868 1.25407,0 2.47215,-0.23372 3.6091,-0.66744 3.32929,-1.26815 6.03611,-4.26053 7.46179,-8.12059 0.24353,0.13349 0.48714,0.25585 0.73977,0.36708 1.31741,0.60071 2.73399,0.9233 4.21362,0.9233 1.03761,0 2.03922,-0.15562 2.99555,-0.45608 1.56094,-0.48945 3.00456,-1.34612 4.25873,-2.50292 1.74138,-1.60186 3.12186,-3.75995 3.97001,-6.26286 0.32481,-0.9678 0.57744,-1.99123 0.73083,-3.04801 4.9174,-1.91334 8.49046,-7.58663 8.49046,-14.29447 0,-7.29741 -4.23166,-13.38228 -9.83478,-14.71716 -0.94737,-7.10831 -5.95499,-12.53688 -11.99118,-12.53688 -1.28124,0 -2.50834,0.24474 -3.67227,0.70082 -1.94881,-5.06156 -6.12635,-8.5434 -10.96253,-8.5434 -4.83618,0 -9.01362,3.48184 -10.97164,8.53217 -1.1549,-0.45608 -2.39102,-0.70082 -3.67225,-0.70082 -6.0362,0 -11.04381,5.42857 -11.9912,12.53686 -5.60312,1.3349 -9.83478,7.41977 -9.83478,14.71718 -0.009,6.70794 3.56398,12.38123 8.48137,14.29457 z"
     id="path2-2-93-068"
     style="fill:#e2e3db;stroke:#000000;stroke-width:2.64946;stroke-dasharray:none;stroke-opacity:1" /><path
     d="m 695.54019,289.35631 c 0.15339,1.0568 0.40602,2.0801 0.73083,3.0479 v 0 c 0.84814,2.50292 2.22862,4.661 3.97,6.26287 1.25406,1.15691 2.69771,2.01356 4.25874,2.50291 0.9564,0.30035 1.95784,0.45621 2.99545,0.45621 1.47973,0 2.90533,-0.33373 4.21363,-0.9233 0.25263,-0.11124 0.49624,-0.23372 0.73985,-0.36721 1.4256,3.86006 4.14145,6.84132 7.46182,8.12059 1.13686,0.43385 2.35491,0.67868 3.60908,0.67868 1.25408,0 2.47215,-0.23372 3.6091,-0.66744 3.32929,-1.26815 6.03611,-4.26053 7.4618,-8.12058 0.24352,0.13349 0.48713,0.25584 0.73976,0.36708 1.31741,0.60071 2.73399,0.9233 4.21363,0.9233 1.0376,0 2.03921,-0.15563 2.99554,-0.45609 1.56094,-0.48945 3.00457,-1.34612 4.25873,-2.50291 1.74138,-1.60187 3.12186,-3.75996 3.97001,-6.26287 0.32481,-0.9678 0.57744,-1.99122 0.73083,-3.048 4.9174,-1.91335 8.49046,-7.58664 8.49046,-14.29447 0,-7.29741 -4.23165,-13.38229 -9.83477,-14.71717 -0.94738,-7.10831 -5.95499,-12.53687 -11.99118,-12.53687 -1.28124,0 -2.50835,0.24473 -3.67228,0.70082 -1.94881,-5.06156 -6.12634,-8.54341 -10.96252,-8.54341 -4.83618,0 -9.01363,3.48185 -10.97165,8.53217 -1.1549,-0.45608 -2.39102,-0.70081 -3.67225,-0.70081 -6.0362,0 -11.04381,5.42856 -11.9912,12.53686 -5.60312,1.33489 -9.83478,7.41976 -9.83478,14.71717 -0.009,6.70794 3.56398,12.38123 8.48137,14.29457 z"
     id="path2-2-93-26"
     style="fill:#e2e3db;stroke:#000000;stroke-width:2.64946;stroke-dasharray:none;stroke-opacity:1" /></g></svg>
