<?xml version="1.0" encoding="UTF-8" standalone="no"?>
<!-- Uploaded to: SVG Repo, www.svgrepo.com, Generator: SVG Repo Mixer Tools -->

<svg
   fill="#000000"
   height="800px"
   width="800px"
   version="1.1"
   id="Layer_1"
   viewBox="0 0 512 512"
   xml:space="preserve"
   sodipodi:docname="world-cup-soccer-svgrepo-com.svg"
   inkscape:version="1.4.4 (dcaf3e7d9e, 2026-05-05)"
   xmlns:inkscape="http://www.inkscape.org/namespaces/inkscape"
   xmlns:sodipodi="http://sodipodi.sourceforge.net/DTD/sodipodi-0.dtd"
   xmlns="http://www.w3.org/2000/svg"
   xmlns:svg="http://www.w3.org/2000/svg"><defs
   id="defs2" /><sodipodi:namedview
   id="namedview2"
   pagecolor="#ffffff"
   bordercolor="#000000"
   borderopacity="0.25"
   inkscape:showpageshadow="2"
   inkscape:pageopacity="0.0"
   inkscape:pagecheckerboard="0"
   inkscape:deskcolor="#d1d1d1"
   inkscape:zoom="1.07125"
   inkscape:cx="399.53326"
   inkscape:cy="400"
   inkscape:window-width="1920"
   inkscape:window-height="1043"
   inkscape:window-x="0"
   inkscape:window-y="0"
   inkscape:window-maximized="1"
   inkscape:current-layer="Layer_1" />
<g
   id="g2"
   style="fill:#b3b3b3;stroke:#000000;stroke-opacity:1;stroke-width:3.6876803;stroke-dasharray:none">
	<g
   id="g1"
   style="fill:#b3b3b3;stroke:#000000;stroke-opacity:1;stroke-width:3.6876803;stroke-dasharray:none">
		<path
   d="M384,449.963v-12.629c0-17.643-14.357-32-32-32h-15.104c-20.011-34.176-27.52-93.995-27.563-127.68    c3.349-6.059,6.549-11.712,9.216-16.32c17.557-30.379,44.096-99.072,44.096-133.333v-4.821c0-5.824-0.043-10.347-0.192-14.293    c0.085-0.619,0.192-1.728,0.192-2.219C362.645,47.851,314.795,0,255.979,0S149.312,47.851,149.312,106.667    c0,13.141,2.645,25.835,7.189,37.696c0.043,0.235-0.021,0.448,0.021,0.661l46.763,185.749    c-9.493,31.296-23.019,62.037-28.779,74.56H160c-17.643,0-32,14.357-32,32v12.629c-12.395,4.416-21.333,16.149-21.333,30.037    v21.333c0,5.888,4.779,10.667,10.667,10.667h277.333c5.888,0,10.667-4.779,10.667-10.667V480    C405.333,466.112,396.395,454.379,384,449.963z M277.333,128.021c2.603,0,5.035,0.64,7.36,1.493    c0.683,0.256,1.344,0.576,2.005,0.896c1.579,0.789,3.029,1.792,4.352,2.944c0.576,0.512,1.216,0.917,1.749,1.472    c3.584,3.819,5.888,8.875,5.888,14.528c0,11.755-9.557,21.333-21.333,21.333c-8.128-0.021-14.955-4.736-18.56-11.413    c-0.469-0.853-0.96-1.685-1.301-2.56c-0.853-2.325-1.493-4.757-1.493-7.36C256,137.6,265.557,128.021,277.333,128.021z     M189.781,189.504c3.84,3.051,7.893,5.845,12.203,8.384c5.717,29.824,11.371,61.077,11.371,79.467c0,1.536-0.149,3.2-0.235,4.821    L189.781,189.504z M197.952,405.333c12.395-27.968,36.715-87.979,36.715-128c0-21.312-6.187-54.741-12.629-88.043    c0-0.021,0-0.021,0-0.043l-1.408-7.296c-1.579-8.128-3.307-17.088-4.949-25.984c-1.387-7.467-2.645-14.741-3.733-21.611    c-0.299-1.899-0.64-3.904-0.917-5.717c3.093,7.765,6.784,16.491,11.328,24.96c0.235,0.427,0.469,0.853,0.704,1.28    c2.155,3.883,4.523,7.637,7.147,11.243c0.235,0.32,0.448,0.661,0.704,0.981c8.832,11.819,20.651,21.077,37.056,23.765    c3.029,0.704,6.144,1.131,9.365,1.131c3.392,0,6.656-0.491,9.835-1.259c34.816-6.123,47.445-43.371,54.165-67.435V128    c0,27.136-23.061,91.2-42.219,124.373C285.141,276.565,256,326.933,256,373.333c0,5.888,4.779,10.667,10.667,10.667    s10.667-4.779,10.667-10.667c0-18.453,5.696-38.144,13.12-56.512c3.157,28.267,9.728,61.973,22.123,88.512H197.952z"
   id="path1"
   style="fill:#b3b3b3;stroke:#000000;stroke-opacity:1;stroke-width:3.6876803;stroke-dasharray:none" />
	</g>
</g>
<path
   style="fill:#ccbf7f;stroke-width:0.67891"
   d="m 442.55976,300.89894 c -37.93132,-36.97892 -99.43348,-36.98026 -137.36617,0 -21.49979,20.95998 -30.79886,49.29965 -27.92745,76.65393 2.19343,20.90835 11.49456,41.24291 27.92745,57.26319 37.93407,36.98094 99.4321,36.98161 137.36617,0 17.03729,-16.61018 26.39824,-37.85504 28.13098,-59.57048 2.12537,-26.63233 -7.23421,-53.97455 -28.13098,-74.34664 z"
   id="path2" /><path
   style="fill:#eae0a7;stroke-width:0.67891"
   d="m 442.55976,300.89894 c -37.93132,-36.97892 -99.43348,-36.98026 -137.36617,0 -21.49979,20.95998 -30.79886,49.29965 -27.92745,76.65393 17.57155,31.14367 53.98465,52.55142 96.0828,52.54941 43.13162,0 80.29282,-22.47023 97.3418,-54.85603 2.12537,-26.633 -7.23421,-53.97522 -28.13098,-74.34731 z"
   id="path3" /><path
   style="fill:#edc92f;stroke-width:0.67891"
   d="m 451.20286,394.39699 c -0.0481,0.0945 -0.0811,0.20311 -0.13065,0.29562 l 0.45726,0.5242 c 0.11139,-0.0992 0.20009,-0.17764 0.23928,-0.21182 z"
   id="path4" /><path
   style="fill:#3a3a39;stroke-width:0.67891"
   d="m 411.43772,455.19218 c -0.38574,0.15618 -0.7653,0.32511 -1.14966,0.47929 l 0.0227,0.0248 1.14828,-0.47929 z"
   id="path5" /><path
   style="fill:#ea4949;stroke-width:0.67891"
   d="m 467.32633,342.49914 -12.86976,12.54729 h -6.9e-4 c -7.30228,-7.07603 -26.15277,-19.56568 -29.8211,-21.97016 -2.23538,-18.92887 -11.62659,-28.93694 -13.77052,-30.99754 l 12.28393,-12.97832 8.76549,2.71887 c 0,0 -7.43499,-5.38277 -15.67103,-9.15943 l 5.98897,5.93178 -12.18835,12.87777 c -14.47736,-7.8677 -34.82956,-4.59447 -38.51852,-3.91006 -9.51429,-9.41281 -20.64855,-12.51444 -24.54723,-13.35571 l 10.00798,-9.83245 c 0,0 -26.07507,2.46549 -49.97046,24.73998 l 2.79233,2.74435 c -2.47191,2.54123 -13.10492,14.65281 -12.92752,34.51343 -12.9619,12.91196 -15.61396,28.65339 -16.01277,31.66788 l -4.15584,-0.21786 -0.055,1.00014 4.20741,0.22188 c 1.31606,11.51766 11.61283,25.22597 13.80351,28.02863 -0.0488,2.33276 -0.11345,19.60724 8.23536,33.47978 l 0.88769,-0.50878 c -7.95688,-13.21628 -8.14116,-29.61263 -8.09921,-32.68946 l 22.36617,-8.91007 c 4.89088,3.59835 29.09294,21.24152 36.29689,23.51194 l 7.7953,30.24408 c 13.08154,5.6623 38.76193,1.87023 38.76193,1.87023 12.91721,-12.59355 17.88166,-26.08333 18.92681,-29.28551 10.06367,-0.86272 29.25796,-17.43536 31.69068,-19.56501 l 10.6777,12.22285 c 0,-10e-4 16.00177,-29.28551 5.11985,-64.94052 z m -169.41714,-6.22471 c -0.14577,-19.42826 10.22732,-31.24557 12.62154,-33.70837 l 0.0942,0.0932 c 0,0 17.22019,-14.51808 34.77799,-17.77388 l -0.005,0.0382 c 0.14302,0.0201 13.8764,1.96407 25.25408,13.19081 -7.94381,12.0861 -11.46844,28.63998 -12.1801,32.33485 -6.98599,1.01489 -32.77365,15.02083 -37.40324,17.55871 z m 56.79899,74.73543 c -6.84229,-2.11021 -30.88276,-19.59451 -35.92835,-23.29139 -1.39995,-12.99173 1.90602,-34.4692 2.59843,-38.73051 3.93512,-2.15445 30.96046,-16.84949 37.42525,-17.56875 4.30367,2.10283 31.06015,18.2478 34.51464,20.33455 l -1.78363,41.63438 z m 96.50087,-16.60683 -0.13134,-0.14211 c -0.21178,0.18769 -21.22613,18.71771 -31.38607,19.53082 l -0.001,-10e-4 h -6.8e-4 l -27.12504,-20.46125 v 0 l -6.8e-4,-6.7e-4 1.78156,-41.54188 c 4.85444,-1.80252 25.93549,-15.38414 29.75166,-17.85432 3.75565,2.46549 23.17478,15.33387 29.98543,22.1773 0.52464,3.95698 3.11826,26.19595 -2.87346,38.29345 z"
   id="path6" /><g
   id="g8"
   transform="matrix(0.68759748,0,0,0.67033303,202.97054,201.58106)"
   style="fill:#c83737">
	<path
   style="fill:#c83737"
   d="m 311.113,328.711 c -19.358,7.8 -40.765,12.195 -63.325,12.195 -7.181,0 -14.233,-0.477 -21.153,-1.327 l 4.725,18.807 c -4.653,2.303 -26.256,12.845 -32.87,13.778 -15.739,-4.535 -46.005,-26.98 -51.905,-31.431 -9.208,-15.739 -11.226,-34.426 -11.638,-43.666 -0.51,-0.487 -1.043,-0.957 -1.551,-1.452 0.262,8.575 1.97,28.229 11.395,44.945 l -1.752,1.373 c 1.815,2.039 3.676,4.051 5.629,6.005 14.932,14.931 32.384,25.787 50.977,32.633 l -0.464,-7.001 c 8.006,-1.519 30.879,-12.858 33.507,-14.174 17.557,7.032 48.63,3.243 54.222,2.477 l 14.602,17.177 c 0.559,-0.23 1.111,-0.482 1.672,-0.715 l -14.838,-17.094 c 11.596,-11.735 18.714,-23.919 22.767,-32.53 z"
   id="path7" />
	<path
   style="fill:#c83737"
   d="m 364.924,292.896 12.016,14.109 c 6.993,-15.258 11.137,-31.505 12.417,-47.933 -6.341,12.352 -14.614,23.718 -24.433,33.824 z"
   id="path8" />
</g></svg>
