<?xml version="1.0" encoding="UTF-8" standalone="no"?>
<!-- Uploaded to: SVG Repo, www.svgrepo.com, Generator: SVG Repo Mixer Tools -->

<svg
   height="800px"
   width="800px"
   version="1.1"
   id="Layer_1"
   viewBox="0 0 297 297"
   xml:space="preserve"
   xmlns="http://www.w3.org/2000/svg"
   xmlns:svg="http://www.w3.org/2000/svg"><defs
   id="defs3" />
<g
   id="XMLID_42_"
   transform="matrix(0.72659486,0,0,0.73202614,59.365369,49.823529)">
	<g
   id="g3">
		<path
   style="fill:#008000"
   d="m 176,142 c 3.59,0 6.5,2.92 6.5,6.5 0,3.58 -2.91,6.5 -6.5,6.5 H 71.5 c -3.68,0 -7.07,2.03 -8.81,5.28 -1.74,3.25 -1.55,7.2 0.49,10.27 L 74.82,188 H 54.85 L 28.52,148.5 54.85,109 h 19.97 l -11.64,17.45 c -2.04,3.07 -2.23,7.02 -0.49,10.27 1.74,3.25 5.13,5.28 8.81,5.28 z"
   id="path1" />
		<path
   style="fill:#00ff00"
   d="M 270.5,20 V 277 H 142 V 175 h 34 c 14.62,0 26.5,-11.89 26.5,-26.5 C 202.5,133.89 190.62,122 176,122 H 142 V 20 Z"
   id="path2" />
		<path
   d="m 290.5,10 v 277 c 0,5.52 -4.47,10 -10,10 H 132 c -5.52,0 -10,-4.48 -10,-10 V 175 H 90.19 l 11.63,17.45 c 2.05,3.07 2.24,7.02 0.5,10.27 -1.74,3.25 -5.13,5.28 -8.82,5.28 h -44 c -3.34,0 -6.46,-1.67 -8.32,-4.45 l -33,-49.5 c -2.24,-3.36 -2.24,-7.74 0,-11.1 l 33,-49.5 C 43.04,90.67 46.16,89 49.5,89 h 44 c 3.69,0 7.08,2.03 8.82,5.28 1.74,3.25 1.55,7.2 -0.5,10.27 L 90.19,122 H 122 V 10 c 0,-5.52 4.48,-10 10,-10 h 148.5 c 5.53,0 10,4.48 10,10 z m -20,267 V 20 H 142 v 102 h 34 c 14.62,0 26.5,11.89 26.5,26.5 0,14.61 -11.88,26.5 -26.5,26.5 h -34 v 102 z m -88,-128.5 c 0,-3.58 -2.91,-6.5 -6.5,-6.5 H 71.5 c -3.68,0 -7.07,-2.03 -8.81,-5.28 -1.74,-3.25 -1.55,-7.2 0.49,-10.27 L 74.82,109 H 54.85 L 28.52,148.5 54.85,188 H 74.82 L 63.18,170.55 c -2.04,-3.07 -2.23,-7.02 -0.49,-10.27 1.74,-3.25 5.13,-5.28 8.81,-5.28 H 176 c 3.59,0 6.5,-2.92 6.5,-6.5 z"
   id="path3" />
	</g>
</g>
<g
   id="g9"
   transform="matrix(7.3149267,0,0,7.315663,-71.770118,5.9478095)"><path
     fill="#292f33"
     d="m 18.011,34.975 -0.052,0.016 c 0.018,-0.068 0.042,-0.19 0.042,-0.383 0,-0.303 -0.156,-0.869 -0.199,-0.95 -0.043,-0.081 -0.09,-0.139 -0.194,-0.11 -0.079,0.022 -0.685,0.326 -1.072,0.341 -0.719,0.027 -1.066,-0.618 -1.066,-0.618 0,0 -0.399,0.228 -0.716,0.413 -0.318,0.185 -0.687,0.462 -0.959,0.627 -0.232,0.141 -0.497,0.208 -0.771,0.243 -0.274,0.035 -0.497,0.023 -0.563,0.029 -0.066,0.006 -0.621,-0.061 -0.641,0.488 l 0.003,0.127 -0.054,-0.026 c 0,0 -0.048,0.17 -0.052,0.202 -0.004,0.033 -0.024,0.052 0.046,0.096 0.07,0.044 0.378,0.176 0.77,0.274 0.392,0.098 1.028,0.243 1.519,0.243 0.491,0 0.909,-0.098 1.151,-0.156 0.243,-0.058 0.763,-0.169 0.813,-0.146 0.05,0.023 0.116,0.191 0.173,0.243 0.058,0.052 1.61,-0.081 1.721,-0.104 a 0.177,0.177 0 0 0 0.146,-0.162 v -0.649 c 0.002,-0.027 -0.021,-0.045 -0.045,-0.038 z m 10.947,-3.752 -0.504,-0.429 a 0.038,0.038 0 0 0 -0.059,0.012 l -0.022,0.051 a 1.523,1.523 0 0 0 -0.269,-0.285 c -0.235,-0.2 -0.777,-0.454 -0.868,-0.473 -0.091,-0.02 -0.167,-0.022 -0.213,0.077 -0.035,0.076 -0.199,0.746 -0.444,1.056 -0.454,0.575 -1.184,0.418 -1.184,0.418 l -0.153,0.828 c -0.067,0.368 -0.096,0.838 -0.148,1.158 a 1.954,1.954 0 0 1 -0.322,0.758 c -0.154,0.236 -0.31,0.4 -0.35,0.456 -0.039,0.055 -0.457,0.441 -0.045,0.82 l 0.101,0.081 -0.055,0.025 c 0,0 0.1,0.149 0.122,0.174 0.022,0.025 0.025,0.053 0.104,0.028 0.079,-0.025 0.386,-0.177 0.721,-0.416 0.336,-0.24 0.868,-0.637 1.192,-1.018 0.325,-0.381 0.524,-0.77 0.64,-0.996 0.116,-0.226 0.373,-0.703 0.424,-0.727 0.051,-0.024 0.224,0.036 0.303,0.026 0.078,-0.01 1.001,-1.302 1.057,-1.403 0.056,-0.101 0.005,-0.193 -0.028,-0.221 z"
     id="path1-8" /><path
     fill="#f9ca55"
     d="m 19.3,12.243 c 0.927,0.96 3.062,2.89 3.109,3.121 0.251,1.223 0.614,2.606 0.52,3.454 -0.068,0.615 0.376,1.298 0.551,1.583 0.218,0.354 0.781,0.898 1.141,0.86 0.224,-0.023 0.567,-0.43 0.384,-0.636 -0.357,-0.4 -0.298,-1.009 -0.522,-1.559 -0.449,-1.105 -0.045,-3.194 -0.661,-4.563 -0.256,-0.567 -0.733,-1.693 -2.824,-3.626 -0.511,0.462 -1.698,1.366 -1.698,1.366 z"
     id="path2-0" /><path
     fill="#ffdc5d"
     d="M 19.005,1.384 C 17.412,0.757 14.928,1.566 14.64,3.427 14.353,5.275 14.879,8.174 16.503,7.999 18.205,7.815 19.951,7.445 20.641,5.692 21.331,3.939 20.598,2.011 19.005,1.384 Z"
     id="path3-2" /><path
     fill="#ffdc5d"
     d="M 20.189,6.143 C 22.507,3.42 16.923,3.685 16.923,3.685 c -1.057,0.038 -0.329,1.799 -0.827,2.761 -0.341,0.665 1.095,1.018 1.095,1.018 0,0 0.659,-0.01 0.694,0.79 v 0.007 c 0.008,0.204 -0.013,0.445 -0.108,0.769 -0.473,1.601 1.677,2.582 2.149,0.978 C 20.113,9.373 20.04,8.815 19.946,8.3 L 19.937,8.254 C 19.793,7.488 19.615,6.817 20.189,6.143 Z"
     id="path4" /><path
     fill="#ffac33"
     d="m 20.825,2.026 c -1.061,-1.242 -2.58,-1.901 -5.019,-0.791 -0.994,0.452 -1.439,0.285 -1.58,0.484 -0.679,0.953 0.246,2.01 0.608,1.799 1.148,-0.669 2.183,-0.47 2.447,0.014 0.264,0.484 0.021,1.354 0.234,1.359 0.579,0.015 0.485,-0.552 0.714,-0.878 0.375,-0.534 0.946,-0.232 1.071,0.362 0.099,0.471 0,1.271 -0.77,1.412 0.523,1.151 1.56,1.502 1.56,1.502 0,0 0.337,0.132 0.912,-1.001 0.576,-1.134 0.877,-3.029 -0.177,-4.262 z"
     id="path5" /><path
     fill="#2a6797"
     d="m 16.062,34.203 c -1.266,0.109 -1.853,-0.233 -1.721,-0.416 0.165,-0.228 0.128,-0.397 0.13,-0.536 C 14.499,30.81 14,27.26 14,27.26 c 0,-0.348 0.003,-0.813 0.312,-1.562 0.778,-1.883 3.951,-7.69 3.951,-7.69 a 2,2 0 0 1 2.729,-0.744 c 0.959,0.548 1.122,1.405 0.744,2.729 -0.715,2.508 -2.965,5.602 -3.903,7.477 0.224,2.121 -0.174,3.853 0.035,5.857 0.03,0.288 -0.54,0.767 -1.806,0.876 z"
     id="path6" /><path
     fill="#4289c1"
     d="m 26.797,31.931 c -0.364,0.553 -0.97,0.942 -1.598,0.838 -1.269,-1.924 -4.955,-5.321 -4.955,-5.321 -0.241,-0.25 -0.562,-0.587 -0.86,-1.341 -0.748,-1.895 -2.498,-8.277 -2.498,-8.277 a 1.999,1.999 0 0 1 1.446,-2.43 c 1.07,-0.272 1.783,0.232 2.43,1.446 1.227,2.301 1.757,6.09 2.384,8.09 1.87,1.568 2.383,3.603 4.275,5.151 -0.065,0.857 -0.26,1.291 -0.624,1.844 z"
     id="path7" /><path
     fill="#77b255"
     d="m 23,20 c 0,0 0,1 -2,1 h -4.898 c -0.415,-2 -0.027,-5.004 0.006,-7.765 0.043,-3.623 2.298,-5.609 3.71,-5.155 1.846,0.594 2.693,2.641 2.932,5.858 C 22.989,17.155 23,20 23,20 Z"
     id="path8" /><path
     fill="#ffdc5d"
     d="m 17.75,11.792 c -0.167,1.399 -0.322,4.433 -0.479,4.625 -0.833,1.021 -1.722,2.24 -2.479,2.729 -0.549,0.354 -0.811,1.174 -0.927,1.507 -0.144,0.414 -0.213,1.238 0.057,1.507 0.169,0.168 0.73,0.177 0.776,-0.11 0.09,-0.559 0.626,-0.917 0.927,-1.467 0.604,-1.104 2.583,-2.167 3.292,-3.584 C 19.211,16.411 19.813,15.27 20,12.27 19.28,12.16 17.75,11.792 17.75,11.792 Z"
     id="path9" /></g></svg>
