<?xml version="1.0" encoding="UTF-8" standalone="no"?>
<!-- Uploaded to: SVG Repo, www.svgrepo.com, Generator: SVG Repo Mixer Tools -->

<svg
   height="800px"
   width="800px"
   version="1.1"
   id="Layer_1"
   viewBox="0 0 512 512"
   xml:space="preserve"
   xmlns="http://www.w3.org/2000/svg"
   xmlns:svg="http://www.w3.org/2000/svg"><defs
   id="defs16">
	
	
	
	
	
	
	
	
	
	
	
	
	
	

		
		
		
	</defs>
<path
   style="fill:#ffaaaa"
   d="M 503.467,256 C 503.467,392.533 392.534,503.467 256,503.467 119.466,503.467 8.533,392.533 8.533,256 8.533,119.467 119.467,8.533 256,8.533 392.533,8.533 503.467,119.467 503.467,256"
   id="path1" /><path
   style="fill:#ff0000"
   d="m 256,8.533 c -4.267,0 -8.533,0 -12.8,0 130.56,6.827 234.667,115.2 234.667,247.467 0,132.267 -104.107,240.64 -234.667,247.467 4.267,0 8.533,0 12.8,0 C 392.533,503.467 503.467,392.534 503.467,256 503.467,119.466 392.533,8.533 256,8.533"
   id="path2" /><path
   style="fill:#ffffff"
   d="m 256,8.533 c 4.267,0 8.533,0 12.8,0 C 138.24,15.36 34.133,123.733 34.133,256 c 0,132.267 104.107,240.64 234.667,247.467 -4.267,0 -8.533,0 -12.8,0 C 119.467,503.467 8.533,392.533 8.533,256 8.533,119.467 119.467,8.533 256,8.533"
   id="path3" /><path
   style="fill:#e6e6e6"
   d="m 358.4,401.067 c -19.627,-16.213 -74.24,-25.6 -102.4,-25.6 -28.16,0 -82.773,9.387 -102.4,25.6 v 0 c 20.48,-35.84 58.027,-59.733 102.4,-59.733 44.373,0 81.92,23.893 102.4,59.733 z"
   id="path4" /><path
   style="fill:#e6e6e6"
   d="m 392.533,230.4 c 0,18.773 -15.36,34.133 -34.133,34.133 -18.773,0 -34.133,-15.36 -34.133,-34.133 0,-18.773 15.36,-34.133 34.133,-34.133 18.773,0 34.133,15.36 34.133,34.133"
   id="path5" /><path
   style="fill:#e6e6e6"
   d="m 187.733,230.4 c 0,18.773 -15.36,34.133 -34.133,34.133 -18.773,0 -34.133,-15.36 -34.133,-34.133 0,-18.773 15.36,-34.133 34.133,-34.133 18.773,0 34.133,15.36 34.133,34.133"
   id="path6" /><path
   d="M 256,512 C 115.2,512 0,396.8 0,256 0,115.2 115.2,0 256,0 396.8,0 512,115.2 512,256 512,396.8 396.8,512 256,512 Z M 256,17.067 C 124.587,17.067 17.067,124.587 17.067,256 17.067,387.413 124.587,494.933 256,494.933 387.413,494.933 494.933,387.413 494.933,256 494.933,124.587 387.413,17.067 256,17.067 Z"
   id="path7" /><path
   d="m 358.4,409.6 v 0 0 c -2.56,0 -4.267,-0.853 -5.12,-1.707 C 335.36,393.387 282.453,384 256,384 c -26.453,0 -78.507,9.387 -96.427,23.893 -1.707,0.853 -4.267,1.707 -5.973,1.707 v 0 c -3.413,0 -6.827,-2.56 -7.68,-5.973 -0.853,-2.56 -0.853,-5.973 0.853,-7.68 23.04,-39.253 64,-63.147 109.227,-63.147 45.227,0 85.333,23.04 109.227,62.293 1.707,1.707 1.707,3.413 1.707,5.973 -0.001,5.121 -3.414,8.534 -8.534,8.534 z M 256,366.933 c 17.067,0 47.787,4.267 73.387,11.947 C 309.76,360.107 284.16,349.867 256,349.867 c -28.16,0 -53.76,10.24 -73.387,29.013 25.6,-7.68 56.32,-11.947 73.387,-11.947 z"
   id="path8" /><path
   d="m 358.4,273.067 c -23.893,0 -42.667,-18.773 -42.667,-42.667 0,-23.894 18.773,-42.667 42.667,-42.667 23.893,0 42.667,18.773 42.667,42.667 0,23.894 -18.774,42.667 -42.667,42.667 z m 0,-68.267 c -14.507,0 -25.6,11.093 -25.6,25.6 0,14.507 11.093,25.6 25.6,25.6 14.507,0 25.6,-11.093 25.6,-25.6 0,-14.507 -11.093,-25.6 -25.6,-25.6 z"
   id="path9" /><path
   d="m 153.6,273.067 c -23.893,0 -42.667,-18.773 -42.667,-42.667 0,-23.894 18.773,-42.667 42.667,-42.667 23.894,0 42.667,18.773 42.667,42.667 0,23.894 -18.774,42.667 -42.667,42.667 z m 0,-68.267 c -14.507,0 -25.6,11.093 -25.6,25.6 0,14.507 11.093,25.6 25.6,25.6 14.507,0 25.6,-11.093 25.6,-25.6 0,-14.507 -11.093,-25.6 -25.6,-25.6 z"
   id="path10" /><path
   d="m 187.733,238.933 c -5.12,0 -8.533,-3.413 -8.533,-8.533 0,-33.28 -26.453,-59.733 -59.733,-59.733 -5.12,0 -8.533,-3.413 -8.533,-8.533 0,-5.12 3.413,-8.533 8.533,-8.533 42.667,0 76.8,34.133 76.8,76.8 0,5.119 -3.414,8.532 -8.534,8.532 z"
   id="path11" /><path
   d="m 324.267,238.933 c -5.12,0 -8.533,-3.413 -8.533,-8.533 0,-42.667 34.133,-76.8 76.8,-76.8 5.12,0 8.533,3.413 8.533,8.533 0,5.12 -3.413,8.533 -8.533,8.533 -33.28,0 -59.733,26.453 -59.733,59.733 -10e-4,5.121 -3.414,8.534 -8.534,8.534 z"
   id="path12" /><path
   d="m 321.707,83.627 c -2.56,0 -4.267,-0.853 -5.973,-2.56 L 291.84,57.173 c -3.413,-3.413 -3.413,-8.533 0,-11.947 3.413,-3.413 8.533,-3.413 11.947,0 l 17.92,17.92 17.92,-17.92 c 3.413,-3.413 8.533,-3.413 11.947,0 3.413,3.413 3.413,8.533 0,11.947 L 327.68,81.067 c -1.707,1.706 -4.267,2.56 -5.973,2.56 z"
   id="path13"
   style="fill:#ff0000" /><path
   d="m 273.067,132.267 c -2.56,0 -4.267,-0.853 -5.973,-2.56 -3.413,-3.413 -3.413,-8.533 0,-11.947 l 17.92,-17.92 -17.92,-17.92 c -3.413,-3.413 -3.413,-8.533 0,-11.947 3.413,-3.413 8.533,-3.413 11.947,0 l 23.893,23.893 c 3.413,3.413 3.413,8.533 0,11.947 l -23.893,23.893 c -1.708,1.707 -3.414,2.561 -5.974,2.561 z"
   id="path14"
   style="fill:#ff0000" /><path
   d="m 345.6,156.16 c -2.56,0 -4.267,-0.853 -5.973,-2.56 l -17.92,-17.92 -18.773,17.92 c -3.413,3.413 -8.533,3.413 -11.947,0 -3.413,-3.413 -3.413,-8.533 0,-11.947 L 314.88,117.76 c 3.413,-3.413 8.533,-3.413 11.947,0 l 23.893,23.893 c 3.413,3.413 3.413,8.533 0,11.947 -0.853,1.707 -3.413,2.56 -5.12,2.56 z"
   id="path15"
   style="fill:#ff0000" /><path
   d="m 369.493,132.267 c -2.56,0 -4.267,-0.853 -5.973,-2.56 l -23.893,-23.893 c -3.413,-3.413 -3.413,-8.533 0,-11.947 L 363.52,69.974 c 3.413,-3.413 8.533,-3.413 11.947,0 3.413,3.413 3.413,8.533 0,11.947 l -17.92,17.92 17.92,17.92 c 3.413,3.413 3.413,8.533 0,11.947 -1.707,1.705 -3.414,2.559 -5.974,2.559 z"
   id="path16"
   style="fill:#ff0000" />
</svg>
