<?xml version="1.0" ?>
<!-- Uploaded to: SVG Repo, www.svgrepo.com, Generator: SVG Repo Mixer Tools -->
<svg width="800px" height="800px" viewBox="0 0 32 32" enable-background="new 0 0 32 32" version="1.1" xml:space="preserve" xmlns="http://www.w3.org/2000/svg" xmlns:xlink="http://www.w3.org/1999/xlink">
<g id="_x36_0"/>
<g id="_x35_9"/>
<g id="_x35_8"/>
<g id="_x35_7"/>
<g id="_x35_6"/>
<g id="_x35_5"/>
<g id="_x35_4"/>
<g id="_x35_3"/>
<g id="_x35_2"/>
<g id="_x35_1"/>
<g id="_x35_0"/>
<g id="_x34_9"/>
<g id="_x34_8"/>
<g id="_x34_7"/>
<g id="_x34_6"/>
<g id="_x34_5"/>
<g id="_x34_4"/>
<g id="_x34_3"/>
<g id="_x34_2"/>
<g id="_x34_1"/>
<g id="_x34_0"/>
<g id="_x33_9"/>
<g id="_x33_8"/>
<g id="_x33_7"/>
<g id="_x33_6"/>
<g id="_x33_5"/>
<g id="_x33_4"/>
<g id="_x33_3"/>
<g id="_x33_2"/>
<g id="_x33_1"/>
<g id="_x33_0"/>
<g id="_x32_9"/>
<g id="_x32_8"/>
<g id="_x32_7"/>
<g id="_x32_6"/>
<g id="_x32_5"/>
<g id="_x32_4_1_"/>
<g id="_x32_3"/>
<g id="_x32_2"/>
<g id="_x32_1"/>
<g id="_x32_0"/>
<g id="_x31_9"/>
<g id="_x31_8"/>
<g id="_x31_7">
<g>
<g>
<circle cx="16" cy="20" fill="#CAEAF0" r="2"/>
<path d="M18,23.9999981V28h-4v-4.0000019C14,22.8954296,14.8954296,22,15.9999981,22h0.0000038     C17.1045704,22,18,22.8954296,18,23.9999981z" fill="#CAEAF0"/>
<circle cx="24" cy="20" fill="#CAEAF0" r="2"/>
<path d="M26,23.9999981V28h-4v-4.0000019C22,22.8954296,22.8954296,22,23.9999981,22h0.0000038     C25.1045704,22,26,22.8954296,26,23.9999981z" fill="#CAEAF0"/>
<circle cx="8" cy="20" fill="#CAEAF0" r="2"/>
<path d="M10,23.9999981V28H6v-4.0000019C6,22.8954296,6.8954296,22,7.9999981,22h0.0000038     C9.1045704,22,10,22.8954296,10,23.9999981z" fill="#CAEAF0"/>
</g>
<circle cx="20" cy="9" fill="#CAEAF0" r="5"/>
<circle cx="12" cy="9" fill="#CAEAF0" r="5"/>
<path d="M12,14v-2c0-1.1045694-0.8954306-2-2-2H8H7l1,3l3,1H12z" fill="#849177"/>
<path d="M16,6c-1.1045694,0-2,0.8954306-2,2s0.8954306,2,2,2h1V8L16,6z" fill="#849177"/>
</g>
<path d="M28.7070313,20.2929688c-0.390625-0.390625-1.0234375-0.390625-1.4140625,0l-0.3734741,0.3734741   C26.9686279,20.451355,27,20.2297974,27,20c0-1.6542969-1.3457031-3-3-3s-3,1.3457031-3,3   c0,0.7711182,0.3005371,1.4680176,0.7802734,2c-0.0147705,0.0163574-0.0276489,0.0343018-0.0420532,0.0509644   c-0.1620483,0.0443115-0.3178711,0.114624-0.4452515,0.2420044L20,23.5859375l-1.2929688-1.2929688   c-0.1273804-0.1273804-0.2832031-0.1976929-0.4452515-0.2420044C18.2473755,22.0343018,18.2344971,22.0163574,18.2197266,22   C18.6994629,21.4680176,19,20.7711182,19,20c0-1.6542969-1.3457031-3-3-3s-3,1.3457031-3,3   c0,0.7711182,0.3005371,1.4680176,0.7802734,2c-0.0147705,0.0163574-0.0276489,0.0343018-0.0420532,0.0509644   c-0.1620483,0.0443115-0.3178711,0.114624-0.4452515,0.2420044L12,23.5859375l-1.2929688-1.2929688   c-0.1273804-0.1273804-0.2832031-0.1976929-0.4452515-0.2420044C10.2473755,22.0343018,10.2344971,22.0163574,10.2197266,22   C10.6994629,21.4680176,11,20.7711182,11,20c0-1.6542969-1.3457031-3-3-3s-3,1.3457031-3,3   c0,0.2297974,0.0313721,0.451355,0.0805054,0.6664429l-0.3734741-0.3734741c-0.390625-0.390625-1.0234375-0.390625-1.4140625,0   s-0.390625,1.0234375,0,1.4140625l1.7608032,1.7608032C5.022522,23.6411743,5,23.817749,5,24v4c0,0.5522461,0.4472656,1,1,1h1   c0.5527344,0,1-0.4477539,1-1s-0.4472656-1-1-1v-3c0-0.5512695,0.4482422-1,1-1s1,0.4487305,1,1v4c0,0.5522461,0.4472656,1,1,1   s1-0.4477539,1-1v-2.5859375l0.2929688,0.2929688C11.4882813,25.9023438,11.7441406,26,12,26   s0.5117188-0.0976563,0.7070313-0.2929688L13,25.4140625V28c0,0.5522461,0.4472656,1,1,1h1c0.5527344,0,1-0.4477539,1-1   s-0.4472656-1-1-1v-3c0-0.5512695,0.4482422-1,1-1s1,0.4487305,1,1v4c0,0.5522461,0.4472656,1,1,1s1-0.4477539,1-1v-2.5859375   l0.2929688,0.2929688C19.4882813,25.9023438,19.7441406,26,20,26s0.5117188-0.0976563,0.7070313-0.2929688L21,25.4140625V28   c0,0.5522461,0.4472656,1,1,1h1c0.5527344,0,1-0.4477539,1-1s-0.4472656-1-1-1v-3c0-0.5512695,0.4482422-1,1-1s1,0.4487305,1,1v4   c0,0.5522461,0.4472656,1,1,1s1-0.4477539,1-1v-4c0-0.182251-0.022522-0.3588257-0.053772-0.5321655l1.7608032-1.7608032   C29.0976563,21.3164063,29.0976563,20.6835938,28.7070313,20.2929688z M8,19c0.5517578,0,1,0.4487305,1,1s-0.4482422,1-1,1   s-1-0.4487305-1-1S7.4482422,19,8,19z M16,19c0.5517578,0,1,0.4487305,1,1s-0.4482422,1-1,1s-1-0.4487305-1-1S15.4482422,19,16,19z    M24,19c0.5517578,0,1,0.4487305,1,1s-0.4482422,1-1,1s-1-0.4487305-1-1S23.4482422,19,24,19z M12,15   c1.536438,0,2.9352417-0.5853882,3.9978027-1.5384521C17.0881348,14.4453125,18.4924316,15,20,15c3.3085938,0,6-2.6914063,6-6   s-2.6914063-6-6-6c-1.5075684,0-2.9118652,0.5546875-4.0021973,1.5384521C14.9352417,3.5853882,13.536438,3,12,3   C8.6914063,3,6,5.6914063,6,9S8.6914063,15,12,15z M8.5563354,11H10c0.5517578,0,1,0.4487305,1,1v0.8580322   C9.9570313,12.5869141,9.0866699,11.9094238,8.5563354,11z M15.5198975,7.1401978C15.8162231,7.6984253,16,8.3251343,16,9   c-0.5517578,0-1-0.4487305-1-1C15,7.6260376,15.2150269,7.3117065,15.5198975,7.1401978z M17.258667,11.8840942   c0.0957031-0.1738281,0.1836548-0.352478,0.262085-0.5361938L19,10.5950317v2.2721558   C18.3431396,12.6992798,17.7532959,12.3566284,17.258667,11.8840942z M21,12.8580322v-2.2398682l1.9997559,0.9998779   C22.4783325,12.2147827,21.7896118,12.652771,21,12.8580322z M24,9c0,0.2871704-0.0333862,0.5661621-0.0911255,0.8363037   L21,8.3818359V5.1419678C22.72052,5.5891724,24,7.1416626,24,9z M19,5.1328125v3.2182617l-1.006897,0.5126953   c-0.0224609-0.9936523-0.2835693-1.9290771-0.734436-2.7478638C17.7532959,5.6433716,18.3431396,5.3007202,19,5.1328125z M12,5   c0.7982788,0,1.5387573,0.2408447,2.1636353,0.6452026C13.4608154,6.1947021,13,7.0406494,13,8   c0,1.4736938,1.0699463,2.6959839,2.4726563,2.9467163C14.9458618,11.8823853,14.0629883,12.5817261,13,12.8580322V12   c0-1.6542969-1.3457031-3-3-3H8C8,6.7944336,9.7939453,5,12,5z" fill="#4D4D4D"/>
</g>
<g id="_x31_6"/>
<g id="_x31_5"/>
<g id="_x31_4"/>
<g id="_x31_3"/>
<g id="_x31_2"/>
<g id="_x31_1"/>
<g id="_x31_0"/>
<g id="_x39_"/>
<g id="_x38_"/>
<g id="_x37_"/>
<g id="_x36_"/>
<g id="_x35_"/>
<g id="_x34_"/>
<g id="_x33_"/>
<g id="_x32_"/>
<g id="_x31_"/>
<g id="Guides"/>
</svg>