<?xml version="1.0" encoding="UTF-8" standalone="no"?>
<!-- Uploaded to: SVG Repo, www.svgrepo.com, Generator: SVG Repo Mixer Tools -->

<svg
   fill="#000000"
   version="1.1"
   id="Capa_1"
   width="800px"
   height="800px"
   viewBox="0 0 31.471 31.471"
   xml:space="preserve"
   xmlns="http://www.w3.org/2000/svg"
   xmlns:svg="http://www.w3.org/2000/svg"><defs
   id="defs6">
	

		
		
		
		
		
	</defs>
<path
   d="m 14.592,6.5 c 1.796,0 3.25,-1.456 3.25,-3.25 C 17.842,1.454 16.389,0 14.592,0 12.793,0 11.34,1.455 11.34,3.25 c 0,1.793 1.453,3.25 3.252,3.25 z"
   id="path1"
   style="fill:#ff6600" /><path
   d="m 11.917,18.025 c -0.176,-0.176 -0.309,-0.176 -0.486,0 l -0.068,0.086 c 0.048,0.498 0.18,0.965 0.386,1.375 v 10.668 c 0,0.729 0.614,1.316 1.34,1.316 0.728,0 1.338,-0.587 1.338,-1.316 v -9.063 c 0,0.007 0.139,0.011 0.209,0.011 0.065,0 0.202,-0.004 0.202,-0.011 v 9.062 c 0,0.73 0.612,1.316 1.339,1.316 0.729,0 1.34,-0.586 1.34,-1.316 V 22.561 C 16.9,22.582 16.25,22.366 15.794,21.905 Z"
   id="path2"
   style="fill:#d45500" /><path
   d="m 13.267,10.377 3.947,3.947 c 0.181,0.176 0.314,0.17 0.493,-0.005 l 0.223,-0.221 v -1.183 l 0.521,0.656 1.852,-1.852 -3.024,-3.717 -2.688,3.504 -2.727,-3.756 c -0.806,0.555 -1.802,1.573 -2.556,3.413 l 0.786,-0.785 c 0.844,-0.848 2.324,-0.85 3.173,-10e-4 z"
   id="path3"
   style="fill:#d45500" /><path
   d="M 16.185,6.852 15.414,7.177 C 15.257,6.904 14.968,6.72 14.63,6.72 c -0.336,0 -0.624,0.181 -0.785,0.45 L 13.075,6.839 C 12.962,6.791 12.836,6.802 12.734,6.87 12.631,6.938 12.573,7.052 12.573,7.174 v 0.96 c 0,0.115 0.051,0.225 0.144,0.293 0.095,0.068 0.212,0.089 0.322,0.055 0.303,-0.091 0.676,-0.207 0.891,-0.271 0.168,0.202 0.416,0.333 0.7,0.333 0.273,0 0.519,-0.124 0.684,-0.315 0.219,0.066 0.602,0.182 0.909,0.273 0.11,0.034 0.23,0.012 0.322,-0.057 0.094,-0.068 0.146,-0.178 0.146,-0.293 V 7.187 c 0,-0.122 -0.062,-0.235 -0.164,-0.303 -0.099,-0.069 -0.23,-0.08 -0.342,-0.032 z"
   id="path4"
   style="fill:#44aa00" /><path
   d="M 30.901,5.937 C 30.632,5.666 30.268,5.495 29.887,5.495 H 23.63 c -0.178,0 -0.337,0.125 -0.402,0.288 -0.067,0.164 -0.031,0.36 0.094,0.485 l 1.211,1.209 c 0.189,0.19 0.297,0.45 0.297,0.718 0,0.27 -0.106,0.528 -0.297,0.718 l -6.124,6.121 c -0.524,0.524 -1.375,0.524 -1.899,-0.001 l -3.95,-3.95 c -0.233,-0.233 -0.549,-0.364 -0.88,-0.365 -0.332,0 -0.647,0.132 -0.882,0.365 L 0.524,21.354 c -0.486,0.485 -0.486,1.272 0,1.762 l 1.324,1.324 c 0.233,0.231 0.55,0.365 0.88,0.365 0.331,0 0.648,-0.134 0.882,-0.365 l 7.118,-7.119 c 0.251,-0.25 0.593,-0.393 0.95,-0.393 0.355,0 0.697,0.143 0.949,0.393 l 3.881,3.883 c 0.251,0.252 0.595,0.395 0.95,0.395 0.355,0 0.697,-0.143 0.949,-0.393 l 9.21,-9.211 c 0.188,-0.19 0.446,-0.296 0.716,-0.296 0.271,0 0.525,0.106 0.717,0.297 l 1.423,1.425 c 0.123,0.124 0.311,0.163 0.473,0.096 0.162,-0.064 0.271,-0.222 0.272,-0.397 L 31.311,6.976 C 31.313,6.593 31.169,6.208 30.901,5.937 Z"
   id="path5"
   style="fill:#ff0000" />
</svg>
