<?xml version="1.0" encoding="UTF-8" standalone="no"?>
<!-- Uploaded to: SVG Repo, www.svgrepo.com, Generator: SVG Repo Mixer Tools -->

<svg
   version="1.1"
   id="Layer_1"
   viewBox="0 0 512 512"
   xml:space="preserve"
   xmlns="http://www.w3.org/2000/svg"
   xmlns:svg="http://www.w3.org/2000/svg"><defs
   id="defs5" />
<path
   style="fill:#47a7dd;stroke-width:0.7414"
   d="M 454.25936,205.07098 H 178.40282 c -14.45696,0 -26.1758,11.12331 -26.1758,24.84399 v 164.37077 c 0,13.7214 11.7196,24.84399 26.1758,24.84399 h 275.8573 c 14.45696,0 26.1758,-11.12259 26.1758,-24.84399 V 229.91497 c 0,-13.72068 -11.72036,-24.84399 -26.17656,-24.84399 z"
   id="path1" />
<path
   style="fill:#3f9ec9;stroke-width:0.7414"
   d="M 175.04295,394.28574 V 229.91497 c 0,-13.72068 11.71884,-24.84399 26.1758,-24.84399 h -22.81593 c -14.45696,0 -26.1758,11.12331 -26.1758,24.84399 v 164.37077 c 0,13.7214 11.71884,24.84399 26.1758,24.84399 h 22.81669 c -14.45696,0 -26.17656,-11.12259 -26.17656,-24.84399 z"
   id="path2" />
<rect
   x="130.79842"
   y="419.12973"
   style="fill:#e6e6e6;stroke-width:0.7414"
   width="371.06915"
   height="30.818075"
   id="rect2" />
<g
   id="g3"
   transform="matrix(0.76101293,0,0,0.72229299,121.51178,142.18599)">
	<circle
   style="fill:#999999"
   cx="84.18"
   cy="464.72101"
   r="38.631001"
   id="circle2" />
	<circle
   style="fill:#999999"
   cx="427.82001"
   cy="464.72101"
   r="38.631001"
   id="circle3" />
	<path
   style="fill:#999999"
   d="M 348.829,26.834 V 87.063 H 319.631 V 52.468 H 192.369 V 87.063 H 163.171 V 26.834 c 0,-10.044 8.141,-18.185 18.185,-18.185 h 149.287 c 10.045,0 18.186,8.141 18.186,18.185 z"
   id="path3" />
</g>
<rect
   x="-161.65651"
   y="-356.81351"
   transform="matrix(-0.95318458,0.30238907,-0.33216914,-0.94321984,0,0)"
   style="fill:#eadac5;stroke-width:0.741565"
   width="73.343979"
   height="49.410358"
   id="rect3" />
<path
   d="m 501.86376,412.88334 h -21.36848 c 4.09501,-5.18967 6.52188,-11.63036 6.52188,-18.5976 V 294.19255 c 0,-3.44967 -2.94588,-6.24711 -6.582,-6.24711 -3.63612,0 -6.582,2.79671 -6.582,6.24711 v 100.09319 c 0,10.25512 -8.79046,18.5976 -19.59456,18.5976 H 178.40282 c -10.80334,0 -19.59456,-8.34248 -19.59456,-18.5976 V 229.91497 c 0,-10.25511 8.79046,-18.5976 19.59456,-18.5976 h 275.8573 c 10.80486,0 19.59456,8.34249 19.59456,18.5976 v 42.62179 c 0,3.44967 2.94588,6.24711 6.582,6.24711 3.63612,0 6.582,-2.79672 6.582,-6.24711 v -42.62179 c 0,-17.14362 -14.69516,-31.0911 -32.7578,-31.0911 H 393.55792 V 161.568 c -0.002,-10.68705 -9.16183,-19.38201 -20.4233,-19.38201 H 259.52604 c -11.26071,0 -20.42102,8.69496 -20.42102,19.38201 v 37.25659 h -60.7022 c -18.06264,0 -32.7578,13.94748 -32.7578,31.0911 v 164.37078 c 0,6.96796 2.42763,13.4072 6.52188,18.5976 h -21.36848 c -3.63612,0 -6.582,2.79671 -6.582,6.24711 v 30.81807 c 0,3.44967 2.94588,6.24712 6.582,6.24712 h 26.97715 c -5.10944,5.89752 -8.18165,13.44259 -8.18165,21.65578 0,18.82802 16.14108,34.14785 35.97993,34.14785 19.83885,0 35.97993,-15.31983 35.97993,-34.14929 0,-8.21319 -3.07221,-15.75827 -8.18165,-21.65579 h 26.61034 c 3.63612,0 6.582,-2.79672 6.582,-6.24711 0,-3.44967 -2.94588,-6.24711 -6.582,-6.24711 H 137.37966 v -18.32385 h 357.9021 V 443.7007 H 266.30971 c -3.63612,0 -6.582,2.79672 -6.582,6.24711 0,3.44967 2.94588,6.24711 6.582,6.24711 h 152.97958 c -5.10944,5.89752 -8.18165,13.4426 -8.18165,21.65579 0,18.82946 16.14109,34.14929 35.97993,34.14929 19.83885,0 35.97993,-15.31983 35.97993,-34.14929 0,-8.21319 -3.07221,-15.75827 -8.18165,-21.65579 H 501.863 c 3.63612,0 6.582,-2.79672 6.582,-6.24711 v -30.81808 c 7.6e-4,-3.44967 -2.94512,-6.24639 -6.58124,-6.24639 z M 358.1731,198.82387 h -83.68402 v -12.4935 H 358.1731 Z M 252.26902,161.568 c 0,-3.79782 3.25562,-6.88851 7.25778,-6.88851 h 113.60934 c 4.00293,0 7.25854,3.08997 7.25854,6.88851 v 37.25659 h -9.05681 v -18.74133 c 0,-3.44968 -2.94588,-6.24712 -6.582,-6.24712 h -96.84879 c -3.63612,0 -6.582,2.79672 -6.582,6.24712 v 18.74061 h -9.05606 z m -43.87848,316.28271 c 0,11.94095 -10.23486,21.65579 -22.81669,21.65579 -12.58183,0 -22.81669,-9.71484 -22.81669,-21.65579 0,-11.94095 10.23486,-21.65579 22.81669,-21.65579 12.58183,0 22.81669,9.71484 22.81669,21.65579 z m 261.51448,0 c 0,11.94095 -10.23486,21.65579 -22.81669,21.65579 -12.58182,0 -22.81669,-9.71484 -22.81669,-21.65579 0,-11.94095 10.23487,-21.65579 22.81669,-21.65579 12.58183,0 22.81669,9.71484 22.81669,21.65579 z"
   id="path4"
   style="stroke-width:0.7414" />
<path
   d="m 230.47513,301.03555 c 1.15218,3.27271 4.8819,5.038 8.32929,3.94372 l 35.89774,-11.38911 c 3.44739,-1.09356 5.30731,-4.63279 4.15513,-7.9055 L 262.443,239.07726 c -0.55401,-1.57099 -1.74195,-2.86967 -3.30431,-3.6093 -1.56236,-0.73963 -3.36825,-0.86025 -5.02573,-0.33514 l -69.91274,22.18017 c -3.44739,1.09355 -5.3073,4.63279 -4.15513,7.9055 l 16.41429,46.6074 c 0.55402,1.57098 1.74196,2.86967 3.30432,3.60929 0.92158,0.43627 1.92764,0.65729 2.93903,0.65729 0.70317,0 1.40787,-0.1069 2.0867,-0.32214 l 11.38094,-3.61074 c 3.44739,-1.09356 5.30807,-4.63279 4.15513,-7.9055 -1.15293,-3.27271 -4.87809,-5.03727 -8.32928,-3.94372 l -5.13836,1.63021 -12.24013,-34.75746 57.42755,-18.21984 12.24014,34.75819 -29.65592,9.40858 c -3.4451,1.09356 -5.30654,4.63279 -4.15437,7.9055 z"
   id="path5"
   style="stroke-width:0.7414" />
<g
   id="g7"
   transform="matrix(-0.80959726,-0.80727172,-0.85748376,0.85995394,796.03279,223.99531)"><path
     style="fill:#ffce76"
     d="m 492.917,383.49 c -4.4,13.16 -8.76,26.029 -12.963,38.167 -4.114,11.876 -8.458,24.14 -13.062,36.771 -2.03,5.594 -6.841,8.984 -11.917,8.987 v 0.065 h -33.106 -31.002 -44.181 c -7.139,0 -12.928,-6.485 -12.928,-14.484 0,-0.207 0.006,-0.416 0.012,-0.621 -0.931,-22.922 -10.151,-33.212 -16.787,-40.619 -2.519,-2.815 -4.781,-5.339 -6.736,-8.211 -13.953,-20.487 -20.403,-37.938 -28.031,-58.587 -3.27,-8.848 -6.776,-18.342 -11.74,-29.999 -2.267,-5.327 -5.574,-17.333 -5.813,-22.409 -0.604,-12.603 4.112,-28.127 17.412,-28.594 5.761,-0.199 12.094,1.463 16.083,4.21 7.759,5.345 13.766,14.249 18.599,23.579 3.802,7.348 5.452,16.528 8.087,22.888 0.998,2.415 1.978,4.477 2.93,6.207 8.6,15.656 26.199,7.141 31.807,-10.704 6.752,-21.481 14.451,-51.511 15.228,-71.492 0.834,-21.28 1.639,-41.825 11.668,-52.419 10.975,-11.602 22.856,-13.523 36.128,-8.309 l 3.556,22.791 c 19.171,-10.626 31.088,2.817 38.215,19.249 7.122,16.41 9.419,22.98 9.61,29.439 h 14.897 c 2.489,0.275 8.262,3.558 8.927,4.785 6.325,11.615 11.255,23.139 13.146,34.956 4.096,26.879 -4.253,53.098 -18.039,94.354 z"
     id="path4-7" /><path
     style="fill:#ffa754"
     d="m 492.015,250.421 c -0.201,2.017 -0.484,4.184 -0.826,6.619 -0.339,2.423 -0.808,5.15 -1.43,8.331 -1.476,7.445 -2.804,14.729 -4.088,21.773 -3.101,17.004 -6.029,33.065 -10.319,47.398 -1.175,3.929 -4.779,6.468 -8.681,6.468 -0.86,0 -1.735,-0.124 -2.602,-0.383 -4.796,-1.436 -7.521,-6.487 -6.085,-11.284 4.003,-13.373 6.844,-28.955 9.853,-45.452 1.297,-7.111 2.638,-14.465 4.136,-22.026 0.555,-2.835 0.969,-5.245 1.264,-7.344 0.302,-2.139 0.557,-3.961 0.732,-5.618 0.008,0.163 0.014,0.326 0.02,0.489 h 14.897 c 0.794,0.09 1.932,0.489 3.129,1.029 z m -51.127,-52.847 v -0.553 c -4.356,-0.408 -9.242,0.642 -14.728,3.684 -2.11,2.847 -3.083,6.379 -2.747,9.906 1.559,16.361 2.249,30.905 -0.48,43.216 -5.886,26.543 -11.117,49.713 -15.506,64.303 -1.438,4.779 1.08,10.01 5.833,11.529 0.919,0.294 1.85,0.433 2.765,0.433 3.891,0 7.49,-2.527 8.674,-6.445 4.589,-15.179 9.932,-38.823 15.934,-65.897 3.699,-16.683 0.075,-60.115 0.255,-60.176 z"
     id="path5-5" /></g></svg>
