<?xml version="1.0" encoding="UTF-8" standalone="no"?>
<!-- Uploaded to: SVG Repo, www.svgrepo.com, Generator: SVG Repo Mixer Tools -->

<svg
   fill="#000000"
   width="800px"
   height="800px"
   viewBox="0 0 14 14"
   role="img"
   focusable="false"
   aria-hidden="true"
   version="1.1"
   id="svg1"
   xmlns="http://www.w3.org/2000/svg"
   xmlns:svg="http://www.w3.org/2000/svg">
  <defs
     id="defs1" />
  <path
     d="M 7.0000001,11.071074 C 4.8040666,10.18804 3.4265071,10.128034 2.6016074,10.88065 c -0.9123989,0.830114 -1.116257,0.734018 -1.116257,-0.526986 0,-2.3424321 1.808897,-2.8344337 5.804077,-1.5789657 2.5910582,0.8143935 2.9888486,0.8511495 3.8155866,0.3533897 0.507716,-0.3055633 1.032526,-0.6197618 1.166349,-0.698367 0.133821,-0.077498 0.243287,0.394797 0.243287,1.0519798 0,0.9279832 -0.213784,1.3280942 -0.957067,1.7908682 -1.207801,0.752394 -2.3065954,0.703902 -4.5575829,-0.201495 z m 0,-5.8610623 C 4.8040666,4.326756 3.4265071,4.2667505 2.6016074,5.0173738 1.6892085,5.8494808 1.4853504,5.7536047 1.4853504,4.4923803 c 0,-2.282205 2.0512658,-2.9046245 5.4606061,-1.6573498 2.671572,0.9775818 3.6005145,1.0305018 4.4524365,0.2544148 0.917086,-0.8356497 1.116257,-0.7349023 1.116257,0.5637425 0,0.8916697 -0.2227,1.3008591 -0.957067,1.7583187 C 10.349782,6.1636799 9.2509876,6.1151882 7.0000001,5.2100117 Z"
     id="path1"
     style="stroke-width:2.01749;fill:#ff00ff" />
</svg>
