<?xml version="1.0" encoding="iso-8859-1"?>
<!-- Uploaded to: SVG Repo, www.svgrepo.com, Generator: SVG Repo Mixer Tools -->
<svg height="800px" width="800px" version="1.1" id="Layer_1" xmlns="http://www.w3.org/2000/svg" xmlns:xlink="http://www.w3.org/1999/xlink" 
	 viewBox="0 0 505.525 505.525" xml:space="preserve">
<path style="fill:#73BADD;" d="M326.725,175.962c0.8-0.8,2-0.8,2.8,0l68.8,69.6l100.8-101.6l-91.2-92.4l-125.2,126.4l91.2,92.4
	l21.6-21.6l-68.8-70C325.925,177.962,325.925,176.762,326.725,175.962z"/>
<path style="fill:#EFDC81;" d="M322.325,302.762l39.2-39.6l-81.6-82.4l-266.8,269.2L322.325,302.762z M113.125,382.362l193.6-92
	c0.8-0.4,2,0,2.8,0.8s0,2-0.8,2.8l-193.6,92c-0.4,0-0.4,0-0.8,0c-0.8,0-1.6-0.4-1.6-1.2
	C111.925,383.962,112.325,382.762,113.125,382.362z"/>
<polygon style="fill:#CCCCCC;" points="280.725,179.562 279.925,180.762 361.525,263.162 362.325,262.362 "/>
<path d="M373.925,276.762c-1.2,0-2-0.4-2.8-1.2l-94-94.8c-1.6-1.6-1.6-4,0-5.6l127.6-129.2c0.8-0.8,1.6-1.2,2.8-1.2l0,0
	c1.2,0,2,0.4,2.8,1.2l94,95.2c1.6,1.6,1.6,4,0,5.6l-127.6,128.8C375.925,276.362,375.125,276.762,373.925,276.762z M285.525,177.962
	l88.4,89.2l122-123.2l-88.4-89.6L285.525,177.962z"/>
<path d="M3.925,460.762c-1.2,0-2.4-0.4-3.2-1.6c-1.2-1.6-0.8-3.6,0.4-5.2l275.2-278.4c1.6-1.6,4-1.6,5.6,0s1.6,4,0,5.6l-259.2,262
	l298.4-142.4l40-40c1.6-1.6,4-1.6,5.6,0s1.6,4,0,5.6l-40.4,40.4c-0.4,0.4-0.8,0.4-1.2,0.8l-319.6,152.4
	C5.125,460.762,4.325,460.762,3.925,460.762z"/>
<path d="M397.925,251.962c-1.2,0-2-0.4-2.8-1.2l-69.6-70.4c-1.6-1.6-1.6-4,0-5.6s4-1.6,5.6,0l69.6,70.4c1.6,1.6,1.6,4,0,5.6
	C399.925,251.562,399.125,251.962,397.925,251.962z"/>
<path d="M113.925,388.362c-1.6,0-2.8-0.8-3.6-2.4c-0.8-2,0-4.4,2-5.2l193.6-92.4c2-0.8,4.4,0,5.2,2s0,4.4-2,5.2l-193.6,92.4
	C115.125,388.362,114.325,388.362,113.925,388.362z"/>
</svg>