<?xml version="1.0" encoding="iso-8859-1"?>
<!-- Uploaded to: SVG Repo, www.svgrepo.com, Generator: SVG Repo Mixer Tools -->
<svg height="800px" width="800px" version="1.1" id="Layer_1" xmlns="http://www.w3.org/2000/svg" xmlns:xlink="http://www.w3.org/1999/xlink" 
	 viewBox="0 0 511.997 511.997" xml:space="preserve">
<g>
	<polygon style="fill:#4482C3;" points="255.997,511.997 97.101,511.997 35.308,158.894 97.101,52.963 255.997,52.963 	"/>
	<polygon style="fill:#285680;" points="97.101,52.966 255.997,52.966 255.997,0 97.101,0 	"/>
	<g>
		<polygon style="fill:#18384C;" points="141.239,52.966 158.894,52.966 158.894,0 141.239,0 		"/>
		<polygon style="fill:#18384C;" points="194.204,52.966 211.859,52.966 211.859,0 194.204,0 		"/>
	</g>
	<g>
		<path style="fill:#D1D4D1;" d="M211.859,123.584h-88.276c-4.882,0-8.828-3.955-8.828-8.828c0-4.873,3.946-8.828,8.828-8.828
			h88.276c4.882,0,8.828,3.955,8.828,8.828C220.687,119.629,216.741,123.584,211.859,123.584"/>
		<path style="fill:#D1D4D1;" d="M203.032,141.239c-4.882,0-8.828-3.955-8.828-8.828v-26.483c0-4.873,3.946-8.828,8.828-8.828
			c4.882,0,8.828,3.955,8.828,8.828v26.483C211.859,137.284,207.913,141.239,203.032,141.239"/>
	</g>
	<polygon style="fill:#285680;" points="255.997,509.595 476.687,288.906 364.329,176.548 255.997,284.88 	"/>
	<polygon style="fill:#18384C;" points="334.689,206.191 447.047,318.549 476.69,288.906 364.332,176.548 	"/>
</g>
</svg>