<?xml version="1.0" encoding="UTF-8" standalone="no"?>
<!-- Uploaded to: SVG Repo, www.svgrepo.com, Generator: SVG Repo Mixer Tools -->

<svg
   width="800px"
   height="800px"
   viewBox="0 -56 1136 1136"
   class="icon"
   version="1.1"
   id="svg4"
   sodipodi:docname="move.svg"
   inkscape:version="1.4.4 (dcaf3e7d9e, 2026-05-05)"
   xmlns:inkscape="http://www.inkscape.org/namespaces/inkscape"
   xmlns:sodipodi="http://sodipodi.sourceforge.net/DTD/sodipodi-0.dtd"
   xmlns="http://www.w3.org/2000/svg"
   xmlns:svg="http://www.w3.org/2000/svg">
  <defs
     id="defs4" />
  <sodipodi:namedview
     id="namedview4"
     pagecolor="#ffffff"
     bordercolor="#000000"
     borderopacity="0.25"
     inkscape:showpageshadow="2"
     inkscape:pageopacity="0.0"
     inkscape:pagecheckerboard="0"
     inkscape:deskcolor="#d1d1d1"
     inkscape:zoom="0.98125"
     inkscape:cx="399.49045"
     inkscape:cy="400"
     inkscape:window-width="1920"
     inkscape:window-height="971"
     inkscape:window-x="0"
     inkscape:window-y="0"
     inkscape:window-maximized="1"
     inkscape:current-layer="svg4" />
  <g
     id="g4"
     transform="matrix(0.75421854,0,0,0.76440729,258.83534,269.62766)">
    <path
       d="m 120.91077,574.81846 h 127.80308 l 337.1323,-327.68 336.1477,327.68 h 127.80305 c 0,0 22.2523,-6.49846 -7.4831,-30.72 -29.5384,-24.22154 -419.64303,-424.96 -419.64303,-424.96 0,0 -28.55385,-41.156921 -79.36,0 -50.21538,41.15692 -422.4,435.39693 -422.4,435.39693 0,0 -18.90462,12.99692 0,20.28307 z"
       fill="#ffa44c"
       id="path1" />
    <path
       d="M 1054.72,529.32923 C 1031.8769,510.62154 771.93846,244.77538 637.44,106.73231 633.30461,101.41539 619.12615,85.858462 595.69231,82.510769 574.81846,79.36 553.35385,86.843077 531.69231,104.36923 482.06769,144.73846 148.28308,498.01846 108.30769,540.16 c -5.31692,4.13538 -16.344613,14.37539 -14.769228,28.94769 0.787692,6.10462 4.332308,17.13231 20.479998,23.23692 l 3.34769,1.18154 h 139.0277 l 329.4523,-320.19692 328.27077,320.19692 h 138.23998 l 2.56,-0.78769 c 8.0739,-2.36307 18.5108,-9.64923 21.0708,-22.05538 4.5292,-20.08616 -14.9662,-36.23385 -21.2677,-41.35385 z m -908.60308,26.38769 c 60.84923,-64.39384 365.48923,-385.96923 409.6,-421.80923 12.99693,-10.43692 24.41847,-15.16308 34.46154,-13.78461 10.24,1.37846 16.73846,9.25538 17.32923,10.04307 l 1.96923,2.36308 c 38.79385,39.97539 371.59385,381.44 417.67388,423.38462 h -97.28003 l -343.82769,-335.55693 -344.81231,335.36 z"
       fill="#493b4e"
       id="path2" />
    <path
       d="m 615.58154,358.99077 c -33.87077,-29.53846 -55.92616,0 -55.92615,0 l -259.93847,261.12 v 290.26462 h 384.78769 l -0.39384,-19.10154 h 0.19692 c 0.19692,11.81538 0.39385,19.10153 0.39385,19.10154 H 872.36923 V 620.11077 c 0,0 -222.91692,-231.58154 -256.78769,-261.12 z M 488.76308,910.37539 c 0,0 -0.19693,-7.08924 -0.19693,-19.10154 h 0.19693 z"
       fill="#ffa44c"
       id="path3" />
    <path
       d="m 891.47077,612.43077 -5.31692,-5.51385 c -9.05847,-9.4523 -223.90154,-232.1723 -257.96923,-262.10461 -15.36,-13.39077 -31.11385,-19.29846 -47.26154,-17.52616 -19.69231,1.96924 -31.90154,14.96616 -35.44616,19.10154 L 280.61539,612.23385 v 317.24307 h 610.85538 z m -384,278.64615 h -37.80923 v 0.19693 H 318.81846 V 627.98769 l 254.22769,-255.60615 1.57539,-1.77231 c 0,0 4.33231,-5.12 10.24,-5.71077 5.12,-0.59077 11.42154,2.36308 18.31384,8.46769 30.12924,26.3877 220.75077,223.70462 250.28923,254.42462 v 263.68 H 704 v -0.19692 H 507.47077 Z"
       fill="#493b4e"
       id="path4" />
  </g>
  <g
     id="g4-2"
     transform="matrix(0.48488915,0,0,0.50832826,-11.346553,-35.657384)">
    <path
       d="m 120.91077,574.81846 h 127.80308 l 337.1323,-327.68 336.1477,327.68 h 127.80305 c 0,0 22.2523,-6.49846 -7.4831,-30.72 -29.5384,-24.22154 -419.64303,-424.96 -419.64303,-424.96 0,0 -28.55385,-41.156921 -79.36,0 -50.21538,41.15692 -422.4,435.39693 -422.4,435.39693 0,0 -18.90462,12.99692 0,20.28307 z"
       fill="#ffa44c"
       id="path1-7" />
    <path
       d="M 1054.72,529.32923 C 1031.8769,510.62154 771.93846,244.77538 637.44,106.73231 633.30461,101.41539 619.12615,85.858462 595.69231,82.510769 574.81846,79.36 553.35385,86.843077 531.69231,104.36923 482.06769,144.73846 148.28308,498.01846 108.30769,540.16 c -5.31692,4.13538 -16.344613,14.37539 -14.769228,28.94769 0.787692,6.10462 4.332308,17.13231 20.479998,23.23692 l 3.34769,1.18154 h 139.0277 l 329.4523,-320.19692 328.27077,320.19692 h 138.23998 l 2.56,-0.78769 c 8.0739,-2.36307 18.5108,-9.64923 21.0708,-22.05538 4.5292,-20.08616 -14.9662,-36.23385 -21.2677,-41.35385 z m -908.60308,26.38769 c 60.84923,-64.39384 365.48923,-385.96923 409.6,-421.80923 12.99693,-10.43692 24.41847,-15.16308 34.46154,-13.78461 10.24,1.37846 16.73846,9.25538 17.32923,10.04307 l 1.96923,2.36308 c 38.79385,39.97539 371.59385,381.44 417.67388,423.38462 h -97.28003 l -343.82769,-335.55693 -344.81231,335.36 z"
       fill="#493b4e"
       id="path2-0" />
    <path
       d="m 615.58154,358.99077 c -33.87077,-29.53846 -55.92616,0 -55.92615,0 l -259.93847,261.12 v 290.26462 h 384.78769 l -0.39384,-19.10154 h 0.19692 c 0.19692,11.81538 0.39385,19.10153 0.39385,19.10154 H 872.36923 V 620.11077 c 0,0 -222.91692,-231.58154 -256.78769,-261.12 z M 488.76308,910.37539 c 0,0 -0.19693,-7.08924 -0.19693,-19.10154 h 0.19693 z"
       fill="#ffa44c"
       id="path3-9" />
    <path
       d="m 891.47077,612.43077 -5.31692,-5.51385 c -9.05847,-9.4523 -223.90154,-232.1723 -257.96923,-262.10461 -15.36,-13.39077 -31.11385,-19.29846 -47.26154,-17.52616 -19.69231,1.96924 -31.90154,14.96616 -35.44616,19.10154 L 280.61539,612.23385 v 317.24307 h 610.85538 z m -384,278.64615 h -37.80923 v 0.19693 H 318.81846 V 627.98769 l 254.22769,-255.60615 1.57539,-1.77231 c 0,0 4.33231,-5.12 10.24,-5.71077 5.12,-0.59077 11.42154,2.36308 18.31384,8.46769 30.12924,26.3877 220.75077,223.70462 250.28923,254.42462 v 263.68 H 704 v -0.19692 H 507.47077 Z"
       fill="#493b4e"
       id="path4-3" />
  </g>
  <g
     opacity="0.4"
     id="g3"
     transform="matrix(44.290781,0,0,41.566164,5.6082865,12.395024)"
     style="fill:none;stroke:#0000ff;stroke-opacity:1">
    <path
       d="m 2,15 c 0,3.87 3.13,7 7,7 L 7.95001,20.25"
       stroke="#292d32"
       stroke-width="1.5"
       stroke-linecap="round"
       stroke-linejoin="round"
       id="path2-6"
       style="fill:none;stroke:#0000ff;stroke-opacity:1" />
    <path
       d="M 22,9 C 22,5.13 18.87,2 15,2 l 1.05,1.75"
       stroke="#292d32"
       stroke-width="1.5"
       stroke-linecap="round"
       stroke-linejoin="round"
       id="path3-0"
       style="fill:none;stroke:#0000ff;stroke-opacity:1" />
  </g>
</svg>
