<?xml version="1.0" encoding="UTF-8" standalone="no"?>
<!-- Uploaded to: SVG Repo, www.svgrepo.com, Generator: SVG Repo Mixer Tools -->

<svg
   width="800px"
   height="800px"
   viewBox="0 0 400 400"
   fill="none"
   version="1.1"
   id="svg4"
   xmlns="http://www.w3.org/2000/svg"
   xmlns:svg="http://www.w3.org/2000/svg">
  <defs
     id="defs4" />
  <g
     id="g4"
     transform="translate(-5.9767917,25.801721)">
    <path
       d="M 141.46974,310.95349 C 147.29532,289.79577 -24.065207,0.98607147 55.963539,41.291804 80.032115,53.412629 90.186188,85.12701 104.18157,107.6797"
       stroke="#000000"
       stroke-opacity="0.9"
       stroke-width="22.0407"
       stroke-linecap="round"
       stroke-linejoin="round"
       id="path1"
       style="fill:#decd87;fill-opacity:1;stroke:#f24040;stroke-opacity:0.9" />
    <path
       d="m 154.80688,193.31588 c -31.00003,9.23657 -52.97635,-117.777648 -19.3899,-110.966357 4.12732,0.840318 10.95326,18.772647 12.46269,18.262357 3.3336,-1.123196 4.72534,-25.246982 8.31211,-29.499878 17.25918,-20.424166 30.43758,-1.40469 44.3098,1.406077 10.67409,2.167354 27.64864,-41.505196 51.23565,-5.615987 4.10953,6.252465 34.59364,65.324328 36.00317,64.608818 12.40248,-6.28714 48.80113,-94.071258 87.59053,-64.608818 8.91423,6.771077 -8.67613,46.060798 -21.56852,76.959828 -27.16558,65.10662 -101.4819,141.92778 -104.79634,160.42032"
       stroke="#000000"
       stroke-opacity="0.9"
       stroke-width="22.0407"
       stroke-linecap="round"
       stroke-linejoin="round"
       id="path2"
       style="fill:#decd87;fill-opacity:1;stroke:#f24040;stroke-opacity:0.9" />
    <path
       d="m 150.86704,103.31726 c 17.28108,132.58722 79.62327,79.2187 46.60611,-19.253821"
       stroke="#000000"
       stroke-opacity="0.9"
       stroke-width="22.0407"
       stroke-linecap="round"
       stroke-linejoin="round"
       id="path3"
       style="fill:#decd87;stroke:#f24040;stroke-opacity:0.9" />
    <path
       d="m 207.45069,123.57087 c 27.1382,84.25229 49.18294,22.67888 35.8417,-23.18363"
       stroke="#000000"
       stroke-opacity="0.9"
       stroke-width="22.0407"
       stroke-linecap="round"
       stroke-linejoin="round"
       id="path4"
       style="fill:#decd87;stroke:#f24040;stroke-opacity:0.9" />
  </g>
</svg>
