<?xml version="1.0" encoding="iso-8859-1"?>
<!-- Uploaded to: SVG Repo, www.svgrepo.com, Generator: SVG Repo Mixer Tools -->
<svg version="1.1" id="Layer_1" xmlns="http://www.w3.org/2000/svg" xmlns:xlink="http://www.w3.org/1999/xlink" 
	 viewBox="0 0 512 512" xml:space="preserve">
<circle style="fill:#324A5E;" cx="256" cy="256" r="256"/>
<path style="fill:#2B3B4E;" d="M437.019,437.019c43.108-43.108,67.61-97.766,73.544-154.012L369.778,142.222L236.182,270.941
	l-115.078,98.837l142.11,142.11C326.306,510.121,388.868,485.171,437.019,437.019z"/>
<rect x="142.222" y="142.222" style="fill:#FFD15D;" width="227.556" height="227.556"/>
<rect x="257.155" y="142.222" style="fill:#F9B54C;" width="112.623" height="227.556"/>
<g>
	<rect x="121.104" y="142.222" style="fill:#C1321F;" width="28.444" height="227.556"/>
	<path style="fill:#C1321F;" d="M179.35,299.479v-0.734c0-1.152,0.488-2.25,1.341-3.022l4.703-4.253
		c10.216-9.138,15.179-14.389,15.324-19.858c0-3.813-2.303-6.835-7.699-6.835c-2.281,0-4.401,0.646-6.254,1.546
		c-2.12,1.029-4.665,0.009-5.529-2.182l-0.064-0.162c-0.781-1.979,0.1-4.201,2-5.161c3.284-1.66,7.451-2.813,12.079-2.813
		c10.576,0,16.405,6.187,16.405,14.676c0,7.842-5.684,14.102-12.447,20.146l-4.318,3.598v0.143h13.55
		c2.251,0,4.075,1.824,4.075,4.075v0.843c0,2.251-1.824,4.075-4.075,4.075h-25.014C181.174,303.554,179.35,301.73,179.35,299.479z"
		/>
	<path style="fill:#C1321F;" d="M253.807,279.955c0,14.462-5.827,24.388-17.77,24.388c-12.086,0-17.411-10.864-17.482-24.1
		c0-13.526,5.754-24.243,17.842-24.243C248.915,256,253.807,267.15,253.807,279.955z M229.564,280.243
		c-0.072,10.719,2.519,15.829,6.763,15.829s6.547-5.325,6.547-15.972c0-10.361-2.231-15.829-6.62-15.829
		C232.226,264.273,229.492,269.381,229.564,280.243z"/>
</g>
<g>
	<path style="fill:#A82116;" d="M273.158,266.504h-0.143l-4.289,2.041c-2.369,1.127-5.17-0.245-5.732-2.807l0,0
		c-0.409-1.865,0.531-3.763,2.262-4.568l8.595-3.996c0.538-0.25,1.124-0.379,1.719-0.379h4.087c2.251,0,4.075,1.824,4.075,4.075
		v38.612c0,2.251-1.824,4.075-4.075,4.075h-2.426c-2.251,0-4.075-1.824-4.075-4.075v-32.978H273.158z"/>
	<path style="fill:#A82116;" d="M332.65,260.867v1.896c0,0.615-0.14,1.222-0.407,1.776l-17.761,36.716
		c-0.681,1.407-2.107,2.301-3.668,2.301h-2.358c-3.048,0-5.017-3.222-3.627-5.934l16.241-31.692v-0.145h-17.363
		c-2.251,0-4.075-1.824-4.075-4.075v-0.841c0-2.251,1.824-4.075,4.075-4.075h24.871C330.826,256.791,332.65,258.615,332.65,260.867z
		"/>
</g>
<g>
	<path style="fill:#C1321F;" d="M256,191.785c-0.953,0-1.724-0.771-1.724-1.724v-10.343c0-0.953,0.771-1.724,1.724-1.724
		s1.724,0.771,1.724,1.724v10.343C257.724,191.014,256.953,191.785,256,191.785z"/>
	<path style="fill:#C1321F;" d="M249.401,195.253c-0.671,0-1.308-0.395-1.588-1.05l-4.041-9.521
		c-0.372-0.877,0.036-1.889,0.914-2.262c0.876-0.369,1.889,0.036,2.262,0.914l4.041,9.521c0.372,0.877-0.036,1.889-0.914,2.262
		C249.854,195.208,249.627,195.253,249.401,195.253z"/>
	<path style="fill:#C1321F;" d="M262.599,195.253c-0.226,0-0.453-0.043-0.674-0.136c-0.877-0.372-1.286-1.384-0.914-2.262
		l4.041-9.521c0.374-0.877,1.388-1.283,2.262-0.914c0.877,0.372,1.286,1.384,0.914,2.262l-4.041,9.521
		C263.908,194.858,263.27,195.253,262.599,195.253z"/>
	<path style="fill:#C1321F;" d="M330.693,225.811c-0.953,0-1.724-0.771-1.724-1.724v-10.343c0-0.953,0.771-1.724,1.724-1.724
		s1.724,0.771,1.724,1.724v10.343C332.417,225.04,331.647,225.811,330.693,225.811z"/>
	<path style="fill:#C1321F;" d="M324.094,229.279c-0.671,0-1.308-0.395-1.588-1.05l-4.043-9.521
		c-0.372-0.876,0.036-1.889,0.914-2.262c0.867-0.369,1.888,0.036,2.262,0.914l4.043,9.521c0.372,0.876-0.036,1.889-0.914,2.262
		C324.549,229.236,324.32,229.279,324.094,229.279z"/>
	<path style="fill:#C1321F;" d="M337.291,229.279c-0.226,0-0.455-0.043-0.674-0.136c-0.877-0.372-1.286-1.386-0.914-2.262
		l4.043-9.521c0.374-0.877,1.391-1.283,2.262-0.914c0.877,0.372,1.286,1.386,0.914,2.262l-4.043,9.521
		C338.599,228.885,337.961,229.279,337.291,229.279z"/>
	<path style="fill:#C1321F;" d="M188.471,225.811c-0.953,0-1.724-0.771-1.724-1.724v-10.343c0-0.953,0.771-1.724,1.724-1.724
		s1.724,0.771,1.724,1.724v10.343C190.195,225.04,189.424,225.811,188.471,225.811z"/>
	<path style="fill:#C1321F;" d="M181.872,229.279c-0.671,0-1.308-0.395-1.588-1.05l-4.043-9.521
		c-0.372-0.876,0.036-1.889,0.914-2.262c0.871-0.369,1.888,0.036,2.262,0.914l4.043,9.521c0.372,0.876-0.036,1.889-0.914,2.262
		C182.327,229.236,182.098,229.279,181.872,229.279z"/>
	<path style="fill:#C1321F;" d="M195.069,229.279c-0.226,0-0.455-0.043-0.674-0.136c-0.877-0.372-1.286-1.386-0.914-2.262
		l4.043-9.521c0.372-0.877,1.393-1.283,2.262-0.914c0.877,0.372,1.286,1.386,0.914,2.262l-4.043,9.521
		C196.377,228.885,195.739,229.279,195.069,229.279z"/>
</g>
</svg>