<?xml version="1.0" encoding="iso-8859-1"?>
<!-- Uploaded to: SVG Repo, www.svgrepo.com, Generator: SVG Repo Mixer Tools -->
<svg height="800px" width="800px" version="1.1" id="Layer_1" xmlns="http://www.w3.org/2000/svg" xmlns:xlink="http://www.w3.org/1999/xlink" 
	 viewBox="0 0 512 512" xml:space="preserve">
<path style="fill:#63A097;" d="M384.838,402.572v0.085h-22.826v-0.043c-79.021,0.108-238.679,0.011-242.614-0.28
	c-56.025-4.136-102.843-47.633-109.05-105.264c-5.851-54.312,26.213-103.975,75.015-122.818
	c-4.635-46.616,29.327-88.323,76.176-93.333c45.53-4.868,86.551,26.709,93.784,71.209c13.321-9.191,29.462-14.586,46.87-14.586
	c45.642,0,82.643,37.001,82.643,82.644v127.58l14.313,54.751C395.659,402.539,390.801,402.556,384.838,402.572z"/>
<g>
	<path style="fill:#458081;" d="M237.779,268.474C216.303,373.912,89.9,380.467,27.136,346.236
		c19.614,31.829,53.764,53.258,92.262,56.099c3.936,0.291,163.594,0.387,242.614,0.28v0.043h22.826v-0.085
		c5.963-0.016,10.821-0.033,14.313-0.052l-14.313-54.751V231.369C317.658,213.328,248.566,215.512,237.779,268.474z"/>
	<path style="fill:#458081;" d="M384.838,402.627c-51.573-0.046-93.986-0.143-95.991-0.291
		c-56.025-4.136-102.843-47.633-109.049-105.264c-5.852-54.312,26.213-103.975,75.015-122.817
		c-0.755-7.597-0.469-15.059,0.715-22.258c13.281-9.107,29.346-14.452,46.667-14.452c45.642,0,82.643,37.001,82.643,82.644v127.58
		l14.313,54.751c-3.491,0.019-8.349,0.038-14.313,0.052v0.055H384.838z"/>
</g>
<path style="fill:#FFCE71;" d="M483.557,351.312c-4.323,12.932-8.607,25.578-12.738,37.506
	c-4.042,11.671-8.311,23.722-12.836,36.134c-1.996,5.498-6.723,8.829-11.711,8.831v0.064h-32.534h-30.466h-43.417
	c-7.017,0-12.704-6.373-12.704-14.233c0-0.204,0.005-0.408,0.013-0.611c-0.915-22.525-9.975-32.638-16.497-39.917
	c-2.475-2.766-4.698-5.247-6.619-8.069c-13.712-20.133-20.051-37.281-27.546-57.574c-3.213-8.695-6.659-18.024-11.538-29.479
	c-2.228-5.235-5.477-17.033-5.713-22.02c-0.594-12.384,4.04-27.64,17.112-28.099c5.661-0.196,11.885,1.437,15.805,4.137
	c7.625,5.252,13.528,14.002,18.277,23.17c3.736,7.221,5.358,16.241,7.947,22.491c0.981,2.373,1.944,4.399,2.879,6.101
	c8.451,15.386,25.746,7.018,31.259-10.519c6.634-21.109,14.2-50.62,14.964-70.255c0.819-20.912,1.612-41.101,11.466-51.512
	c10.785-11.401,22.462-13.289,35.504-8.165l3.494,22.396c18.84-10.442,30.552,2.768,37.555,18.916
	c6.998,16.125,9.256,22.582,9.443,28.93h14.638c2.446,0.27,8.119,3.496,8.772,4.702c6.217,11.414,11.061,22.739,12.919,34.351
	C505.309,285.005,497.105,310.77,483.557,351.312z"/>
<path style="fill:#FFA84D;" d="M482.67,220.546c-0.198,1.981-0.476,4.112-0.812,6.505c-0.333,2.381-0.793,5.061-1.406,8.186
	c-1.451,7.316-2.754,14.475-4.017,21.397c-3.047,16.71-5.925,32.493-10.141,46.577c-1.156,3.862-4.697,6.356-8.531,6.357
	c-0.845,0-1.705-0.121-2.558-0.377c-4.714-1.411-7.391-6.375-5.98-11.089c3.933-13.142,6.725-28.454,9.682-44.666
	c1.274-6.988,2.592-14.215,4.064-21.645c0.546-2.786,0.953-5.154,1.242-7.217c0.296-2.103,0.547-3.892,0.719-5.52
	c0.007,0.16,0.015,0.32,0.019,0.48h14.638C480.377,219.623,481.494,220.014,482.67,220.546z M432.428,168.613v-0.543
	c-4.28-0.402-9.082,0.631-14.473,3.619c-2.073,2.798-3.03,6.268-2.699,9.735c1.533,16.078,2.211,30.37-0.471,42.469
	c-5.783,26.083-10.925,48.853-15.238,63.191c-1.413,4.697,1.06,9.837,5.733,11.33c0.903,0.289,1.818,0.427,2.717,0.427
	c3.824,0,7.359-2.483,8.523-6.333c4.51-14.916,9.76-38.151,15.659-64.757C435.813,211.354,432.252,168.672,432.428,168.613z"/>
<path d="M445.513,443.223H338.738c-12.675,0-22.986-10.983-22.986-24.483c0-0.179,0.002-0.357,0.006-0.537
	c-0.839-18.608-7.788-26.346-13.924-33.176c-2.684-2.991-5.179-5.774-7.481-9.143c-14.476-21.198-21.107-39.102-28.785-59.834
	c-3.257-8.791-6.604-17.825-11.39-29.037c-2.387-5.591-6.214-18.641-6.542-25.572c-0.587-12.216,2.909-23.693,9.352-30.693
	c4.681-5.087,10.797-7.903,17.685-8.144c7.858-0.272,16.29,2.001,22.014,5.932c8.009,5.501,15.082,14.303,21.626,26.909
	c2.682,5.167,4.351,10.742,5.823,15.661c0.861,2.879,1.675,5.598,2.521,7.634c0.815,1.964,1.625,3.68,2.409,5.106
	c1.054,1.915,2.076,2.85,3.054,2.747c2.484-0.247,7.243-4.048,9.567-11.422c6.569-20.847,13.842-49.562,14.551-67.627
	c0.906-23.132,1.761-44.981,14.304-58.196c13.256-13.972,28.934-17.584,46.598-10.731c0.352,0.13,0.694,0.279,1.026,0.445
	c2.013,1.001,3.569,2.597,4.539,4.486c0.198,0.386,0.373,0.785,0.521,1.199c0.377,1.042,0.586,2.147,0.61,3.272
	c0.149,2.764,0.399,5.831,0.708,9.104c5.016-0.879,9.902-0.52,14.611,1.081c10.24,3.482,18.656,12.658,25.017,27.278
	c4.969,11.419,7.786,18.581,9.177,24.462c1.917-1.254,4.264-1.874,6.717-1.604c4.204,0.463,13.725,4.599,16.665,9.967
	c7.772,14.238,12.247,26.204,14.089,37.67c4.342,28.411-3.664,54.317-18.187,97.665c-4.746,14.149-8.937,26.459-12.817,37.638
	c-4.272,12.304-8.625,24.522-12.936,36.318c-3.249,8.929-10.926,14.882-19.815,15.508
	C446.559,443.182,446.041,443.223,445.513,443.223z M275.97,243.061c-0.195,0-0.39,0.003-0.585,0.01
	c-1.397,0.049-2.363,0.497-3.328,1.545c-2.687,2.919-4.28,9.289-3.965,15.849c0.16,3.38,2.965,13.927,4.921,18.507
	c4.982,11.67,8.573,21.36,11.739,29.91c7.527,20.323,13.457,36.331,26.513,55.451c1.537,2.25,3.5,4.438,5.772,6.971
	c7.238,8.058,18.13,20.182,19.197,46.407c0.01,0.261,0.011,0.522,0.001,0.783l-0.006,0.245c0,2.444,1.485,4.004,2.506,4.004H444.37
	c0.373-0.042,0.753-0.064,1.138-0.064c0.659,0,1.607-0.658,2.132-2.1c4.279-11.705,8.593-23.819,12.829-36.016
	c3.855-11.109,8.025-23.354,12.746-37.431c13.517-40.344,20.988-64.323,17.372-87.985c-1.381-8.593-4.863-17.971-10.911-29.321
	c-0.803-0.471-1.85-0.998-2.442-1.211c-1.211-0.205-2.343-0.617-3.359-1.196c-0.142,1.159-0.308,2.376-0.49,3.67
	c-0.324,2.315-0.763,4.862-1.339,7.773c-1.353,6.809-2.574,13.489-3.753,19.949c-2.869,15.704-5.581,30.537-9.571,43.831
	c-1.626,5.416-7.333,8.489-12.751,6.864c-5.417-1.626-8.49-7.334-6.864-12.751c3.662-12.206,6.275-26.496,9.039-41.626
	c1.195-6.535,2.43-13.295,3.811-20.25c0.499-2.525,0.876-4.7,1.148-6.644c1.662-11.762,1.799-12.722-7.713-34.581
	c-3.851-8.853-8.408-14.555-12.829-16.058c-0.753-0.256-2.605-0.886-5.881,0.035c1.944,18.912,3.452,39.04,0.066,54.259
	c-5.743,25.829-10.475,46.702-14.724,60.736c-1.637,5.413-7.353,8.472-12.768,6.833c-5.412-1.638-8.472-7.356-6.833-12.768
	c4.036-13.328,8.879-34.718,14.333-59.248c3.162-14.216,0.674-37.404-1.327-56.035c-0.578-5.385-1.135-10.575-1.547-15.365
	c-6.941-1.161-12.586,1.184-18.485,7.402c-7.236,7.624-7.978,26.575-8.696,44.902c-0.991,25.278-12.101,62.251-15.481,72.983
	c-4.468,14.174-15.348,24.48-27.074,25.645c-9.465,0.939-17.865-3.89-23.024-13.257c-1.145-2.086-2.279-4.476-3.376-7.118
	c-1.252-3.009-2.256-6.37-3.229-9.621c-1.272-4.25-2.586-8.645-4.379-12.096c-4.956-9.548-9.879-15.915-15.047-19.465
	C283.381,244.242,279.673,243.061,275.97,243.061z M197.665,411.981c-37.815,0-75.375-0.1-78.709-0.348
	C57.085,407.048,7.365,358.876,0.736,297.087C-5.19,241.87,25.147,189.188,75.118,166.366
	c-0.933-48.999,36.017-91.719,85.547-97.037c47.02-5.046,89.871,24.998,102.372,69.038c9.078-5.202,19.166-8.475,29.816-9.617
	c15.427-1.655,30.768,1.341,44.371,8.663c4.979,2.679,6.844,8.889,4.163,13.869c-2.679,4.98-8.889,6.844-13.869,4.164
	c-9.949-5.357-21.183-7.544-32.482-6.334c-12.084,1.296-23.17,6.333-32.06,14.566c-2.865,2.654-6.99,3.446-10.635,2.045
	c-3.645-1.402-6.175-4.756-6.523-8.645l-0.057-0.634c-4.478-41.241-41.646-71.186-82.911-66.752
	c-40.949,4.396-70.962,41.31-66.902,82.286c0.453,4.577-2.2,8.895-6.49,10.557C44,200.154,15.889,246.36,21.099,294.902
	c5.574,51.951,47.366,92.454,99.373,96.307c5.31,0.299,102.122,0.405,145.841,0.157c5.607-0.035,10.265,4.527,10.298,10.182
	c0.032,5.656-4.527,10.266-10.182,10.298C251.498,411.93,224.516,411.981,197.665,411.981z M136.604,359.795
	c-34.28,0-65.538-21.992-76.918-54.618c-4.498-12.892-5.691-26.783-3.452-40.169c0.933-5.577,6.213-9.346,11.788-8.41
	c5.577,0.933,9.343,6.211,8.41,11.788c-1.673,10.003-0.777,20.392,2.591,30.045c8.849,25.372,33.761,42.153,60.57,40.809
	c5.636-0.288,10.456,4.066,10.739,9.714c0.283,5.648-4.066,10.456-9.714,10.739C139.278,359.762,137.938,359.795,136.604,359.795z
	 M324.043,216.247c-5.165,0-9.604-3.895-10.169-9.146c-0.431-4.015-2.398-7.621-5.54-10.153c-3.141-2.532-7.08-3.687-11.093-3.257
	c-5.623,0.605-10.671-3.463-11.275-9.086c-0.605-5.623,3.463-10.671,9.086-11.275c9.451-1.017,18.734,1.709,26.135,7.676
	c7.4,5.965,12.034,14.456,13.05,23.909c0.604,5.623-3.464,10.671-9.088,11.275C324.778,216.228,324.408,216.247,324.043,216.247z"/>
</svg>