<?xml version="1.0" encoding="UTF-8" standalone="no"?>
<!-- Uploaded to: SVG Repo, www.svgrepo.com, Generator: SVG Repo Mixer Tools -->

<svg
   height="800px"
   width="800px"
   version="1.1"
   id="Layer_1"
   viewBox="0 0 512 512"
   xml:space="preserve"
   xmlns="http://www.w3.org/2000/svg"
   xmlns:svg="http://www.w3.org/2000/svg"><defs
   id="defs11"><rect
     x="269.46265"
     y="397.37877"
     width="452.94889"
     height="320.83879"
     id="rect11" /></defs>
<g
   id="g2">
	<path
   style="fill:#2D2D2D;"
   d="M395.2,134.112v157.824c2.192-0.128,4.368-0.336,6.6-0.336c3.176,0,6.296,0.208,9.4,0.472v-173.96   h-45.4c-0.392,5.448-1.128,10.8-2.28,16H395.2z"
   id="path1" />
	<path
   style="fill:#2D2D2D;"
   d="M116.8,291.936V134.112h31.68c-1.152-5.2-1.888-10.552-2.28-16h-45.4V292.08   c3.104-0.264,6.224-0.472,9.4-0.472C112.424,291.6,114.6,291.808,116.8,291.936z"
   id="path2" />
</g>






<ellipse
   style="fill:#ff5555;fill-opacity:0.702135;stroke:#1a3358;stroke-width:6.09121"
   id="path11"
   cx="108.70774"
   cy="389.53601"
   rx="92.060837"
   ry="90.383247" /><ellipse
   style="fill:#ff5555;fill-opacity:0.702135;stroke:#1a3358;stroke-width:6.01558"
   id="path11-6"
   cx="400.67413"
   cy="392.27197"
   rx="90.085541"
   ry="90.085548" /><ellipse
   style="fill:#ffff00;fill-opacity:0.702135;stroke:#1a3358;stroke-width:6.92561"
   id="path11-5"
   cx="255.54849"
   cy="125.5186"
   rx="102.3802"
   ry="105.06435" /><text
   xml:space="preserve"
   transform="matrix(12.36681,0,0,10.657021,-3139.4347,-4187.9509)"
   id="text11"
   style="text-align:start;writing-mode:lr-tb;direction:ltr;white-space:pre;shape-inside:url(#rect11);display:inline;fill:#0000ff;fill-opacity:0.702135;stroke:#1a3358;stroke-width:0.0483636;stroke-dasharray:none;stroke-opacity:1"><tspan
     x="269.46289"
     y="407.99609"
     id="tspan1">ly</tspan></text></svg>
