<?xml version="1.0" encoding="iso-8859-1"?>
<!-- Uploaded to: SVG Repo, www.svgrepo.com, Generator: SVG Repo Mixer Tools -->
<svg version="1.1" id="Layer_1" xmlns="http://www.w3.org/2000/svg" xmlns:xlink="http://www.w3.org/1999/xlink" 
	 viewBox="0 0 400 400" xml:space="preserve">
<circle style="fill:#875426;" cx="200" cy="232" r="24"/>
<path style="fill:#996632;" d="M224,232c0-12.8-10.4-24-24-24c-12.8,0-24,11.2-24,24c0,13.6,11.2,24,24,24
	C213.6,256,224,245.6,224,232z M200,200c17.6,0,32,14.4,32,32s-14.4,32-32,32s-32-14.4-32-32S182.4,200,200,200z"/>
<path style="fill:#CC9966;" d="M200,304c-40,0-72-32-72-72s32-72,72-72s72,32,72,72S240,304,200,304z M200,184
	c-26.4,0-48,21.6-48,48s21.6,48,48,48s48-21.6,48-48S226.4,184,200,184z"/>
<rect x="40" y="80" style="fill:#996632;" width="40" height="16"/>
<path style="fill:#875426;" d="M108,168c-12.8,18.4-20,40-20,64s7.2,45.6,20,64H16V168H108z"/>
<path style="fill:#CC9966;" d="M24,288V176h69.6C84.8,193.6,80,212,80,232s4.8,38.4,13.6,56H24z"/>
<path style="fill:#875426;" d="M384,168v128h-92c12.8-18.4,20-40,20-64s-7.2-45.6-20-64H384z"/>
<path style="fill:#CC9966;" d="M306.4,288c8.8-17.6,13.6-36,13.6-56s-4.8-38.4-13.6-56H376v112H306.4z"/>
<g>
	<path style="fill:#E0CBB5;" d="M380,48h-96c-2.4,0-4,1.6-4,4v39.2c0,11.2-8.8,20-20,20h-60H88H32H20c-2.4,0.8-4,2.4-4,4.8v36h105.6
		c20-20,48-32,78.4-32s58.4,12,78.4,32H384V52C384,49.6,382.4,48,380,48z M56,144H32v-24h24V144z M96,144H72v-24h24V144z M376,104
		c0,4-4,8-8,8h-72c-4,0-8-4-8-8V64c0-4,4-8,8-8h72c4,0,8,4,8,8V104z"/>
	<path style="fill:#E0CBB5;" d="M278.4,312c-20,20-48,32-78.4,32s-58.4-12-78.4-32H16v36c0,2.4,1.6,4,4,4h180h180c2.4,0,4-1.6,4-4
		v-36H278.4z"/>
</g>
<g>
	<path style="fill:#996632;" d="M200,144c-48.8,0-88,39.2-88,88s39.2,88,88,88s88-39.2,88-88S248.8,144,200,144z M104,232
		c0-52.8,43.2-96,96-96s96,43.2,96,96s-43.2,96-96,96S104,284.8,104,232z"/>
	<rect x="304" y="72" style="fill:#996632;" width="56" height="24"/>
</g>
<g>
	<path style="fill:#42210B;" d="M360,96V72h-56v24H360z M288,64c0-4.8,4-8,8-8h72c4,0,8,3.2,8,8v40c0,4-4,8-8,8h-72c-4,0-8-4-8-8V64
		z"/>
	<path style="fill:#42210B;" d="M200,280c-26.4,0-48-21.6-48-48s21.6-48,48-48s48,21.6,48,48S226.4,280,200,280z M200,200
		c-17.6,0-32,14.4-32,32s14.4,32,32,32s32-14.4,32-32S217.6,200,200,200z"/>
	<path style="fill:#42210B;" d="M112,232c0-48.8,39.2-88,88-88s88,39.2,88,88s-39.2,88-88,88S112,280.8,112,232z M200,160
		c-40,0-72,32-72,72s32,72,72,72s72-32,72-72S240,160,200,160z"/>
	<rect x="72" y="120" style="fill:#42210B;" width="24" height="24"/>
	<rect x="32" y="120" style="fill:#42210B;" width="24" height="24"/>
	<path style="fill:#42210B;" d="M384,296V168h-92c12.8,18.4,20,40,20,64s-7.2,45.6-20,64H384z M200,136c-52.8,0-96,43.2-96,96
		s43.2,96,96,96s96-43.2,96-96S252.8,136,200,136z M20,352h180h180c2.4,0,4-1.6,4-4v-36H278.4c-20,20-48,32-78.4,32
		s-58.4-12-78.4-32H16v36C16,350.4,17.6,352,20,352z M80,96V80H40v16H80z M200,112H88H32H20c-2.4,0-4,1.6-4,4v36h105.6
		c20-20,48-32,78.4-32s58.4,12,78.4,32H384V52c0-2.4-1.6-4-4-4h-96c-2.4,0-4,1.6-4,4v39.2c0,11.2-8.8,20-20,20h-60V112z M96,72v24
		h164c2.4,0,4-1.6,4-4V52c0-11.2,8.8-20,20-20h95.2c12,0,20.8,8.8,20.8,20v108v144v44c0,11.2-8.8,20-20,20H20c-11.2,0-20-8.8-20-20
		v-44V160v-44c0-11.2,8.8-20,20-20h4V72c0-4.8,3.2-8,8-8h56C92,64,96,67.2,96,72z M108,296c-12.8-18.4-20-40-20-64s7.2-45.6,20-64
		H16v128H108z"/>
</g>
</svg>