<?xml version="1.0" encoding="UTF-8" standalone="no"?>
<!-- Uploaded to: SVG Repo, www.svgrepo.com, Generator: SVG Repo Mixer Tools -->

<svg
   version="1.1"
   id="Uploaded to svgrepo.com"
   width="800px"
   height="800px"
   viewBox="0 0 32 32"
   xml:space="preserve"
   xmlns="http://www.w3.org/2000/svg"
   xmlns:svg="http://www.w3.org/2000/svg"><defs
   id="defs3">
	
	
	
</defs>
<style
   type="text/css"
   id="style1">
	.avocado_een{fill:#231F20;}
	.avocado_drie{fill:#716558;}
	.avocado_vijf{fill:#DBD2C1;}
	.st0{fill:#CC4121;}
	.st1{fill:#FFFAEE;}
	.st2{fill:#3D3935;}
	.st3{fill:#E0A838;}
	.st4{fill:#A3AEB5;}
	.st5{fill:#788287;}
	.st6{fill:#EAD13F;}
	.st7{fill:#D1712A;}
	.st8{fill:#8D3E93;}
	.st9{fill:#248EBC;}
	.st10{fill:#6F9B45;}
	.st11{fill:#AF9480;}
	.st12{fill:#C3CC6A;}
	.st13{fill:#231F20;}
</style>
<g
   id="g2"
   style="fill:#ffccaa">
		<g
   id="g1"
   style="fill:#ffccaa">
			<path
   class="avocado_vijf"
   d="M 5.5,12.793 0.707,8 6,2.707 10.793,7.5 h 5 l 4.439,4.439 c 0.586,0.586 0.586,1.536 0,2.121 l -0.672,0.672 c -0.586,0.586 -1.536,0.586 -2.121,0 L 14.26,11.553 c -0.586,-0.586 -1.536,-0.586 -2.121,0 L 5.5,18.193 Z m 8.268,13.268 3.172,3.172 c 0.586,0.586 1.536,0.586 2.121,0 l 8.172,-8.172 c 0.586,-0.586 0.586,-1.536 0,-2.121 l -3.172,-3.172 c -0.586,-0.586 -1.536,-0.586 -2.121,0 l -8.172,8.172 c -0.586,0.585 -0.586,1.535 0,2.121 z"
   id="path1"
   style="fill:#ffccaa" />
		</g>
	</g><path
   class="avocado_drie"
   d="m 13.768,26.061 c -0.586,-0.586 -0.586,-1.536 0,-2.121 l 8.172,-8.172 c 0.586,-0.586 1.536,-0.586 2.121,0 L 26.293,18 26.5,17.793 v -5 L 31.293,8 26,2.707 21.207,7.5 h -5 L 16,7.707 l 4.232,4.232 c 0.586,0.586 0.586,1.536 0,2.121 l -0.672,0.672 c -0.586,0.586 -1.536,0.586 -2.121,0 L 14.26,11.553 C 13.687,10.98 12.769,10.976 12.181,11.525 l -7.414,7.414 c -0.586,0.586 -0.586,1.536 0,2.121 l 8.172,8.172 c 0.586,0.586 1.536,0.586 2.121,0 L 16,28.293 Z"
   id="path2"
   style="fill:#ffd5d5" /><path
   class="avocado_een"
   d="M 27,18 V 13 L 32,8 26,2 21,7 H 16 11 L 6,2 0,8 5,13 v 5 l -0.586,0.586 c -0.781,0.781 -0.781,2.047 0,2.828 l 8.172,8.172 c 0.781,0.781 2.047,0.781 2.828,0 L 16,29 l 0.586,0.586 c 0.781,0.781 2.047,0.781 2.828,0 l 8.172,-8.172 c 0.781,-0.781 0.781,-2.047 0,-2.828 z M 1.414,8 6,3.414 10.586,8 h 5 l 4.293,4.293 c 0.391,0.391 0.391,1.024 0,1.414 l -0.672,0.672 c -0.391,0.391 -1.024,0.391 -1.414,0 l -3.172,-3.172 c -0.781,-0.781 -2.047,-0.781 -2.828,0 L 6,17 V 12.586 Z M 5.121,19.293 12.5,11.914 c 0.391,-0.391 1.024,-0.391 1.414,0 l 3.172,3.172 c 0.781,0.781 2.047,0.781 2.828,0 l 0.672,-0.672 c 0.781,-0.781 0.781,-2.047 0,-2.828 L 17,8 h 4.414 L 26,3.414 30.586,8 26,12.586 V 17 l -1.586,-1.586 c -0.781,-0.781 -2.047,-0.781 -2.828,0 l -8.172,8.172 c -0.497,0.497 -0.675,1.191 -0.539,1.832 L 11.353,26.94 9.56,25.147 12.353,22.354 11.646,21.647 8.853,24.44 7.06,22.647 9.853,19.854 9.146,19.147 6.353,21.94 5.121,20.708 c -0.39,-0.391 -0.39,-1.025 0,-1.415 z m 12.733,1.268 4.586,4.586 -1.793,1.793 -4.586,-4.586 z m 0.707,-0.707 1.793,-1.793 4.586,4.586 -1.793,1.793 z m -3.854,9.025 c -0.391,0.391 -1.024,0.391 -1.414,0 l -1.232,-1.232 1.299,-1.299 c 0.02,0.021 0.034,0.046 0.055,0.067 l 1.879,1.879 z m 4,0 c -0.391,0.391 -1.024,0.391 -1.414,0 l -3.172,-3.172 c -0.391,-0.391 -0.391,-1.024 0,-1.414 l 1.232,-1.232 4.586,4.586 z m 8.172,-8.172 -1.232,1.232 -4.586,-4.586 1.232,-1.232 c 0.391,-0.391 1.024,-0.391 1.414,0 l 3.172,3.172 c 0.39,0.39 0.39,1.024 0,1.414 z"
   id="path3" />
</svg>
