<?xml version="1.0" encoding="UTF-8" standalone="no"?>
<!-- Uploaded to: SVG Repo, www.svgrepo.com, Generator: SVG Repo Mixer Tools -->

<svg
   width="800px"
   height="800px"
   viewBox="0 0 1024 1024"
   class="icon"
   version="1.1"
   id="svg4"
   xmlns="http://www.w3.org/2000/svg"
   xmlns:svg="http://www.w3.org/2000/svg">
  <defs
     id="defs4">
    <linearGradient
       id="IconifyId17ecdb2904d178eab5755"
       x1="1609.9"
       x2="1726.5"
       y1="-1536.9"
       y2="-1536.9"
       gradientTransform="matrix(0.01112092,-5.7118569,-5.2956762,-0.0119949,-7441.6846,10022.717)"
       gradientUnits="userSpaceOnUse">
      <stop
         stop-color="#FFB300"
         offset=".128"
         id="stop1" />
      <stop
         stop-color="#FFCA28"
         offset=".647"
         id="stop2" />
    </linearGradient>
  </defs>
  <path
     d="M597.678 480.76L390.797 333.998c-22.209-15.766-53-10.532-68.762 11.687l-2.04 2.871c-15.753 22.214-10.526 53 11.691 68.762l206.876 146.771c22.218 15.757 53 10.527 68.766-11.687l2.035-2.876c15.768-22.218 10.529-53.005-11.685-68.766z"
     fill="#F39A2B"
     id="path1"
     style="fill:#918a6f" />
  <path
     d="M585.066 423.392l-2.871-2.034c-22.218-15.763-53.004-10.527-68.766 11.687L279.007 763.472c-15.762 22.214-10.527 53.005 11.69 68.763l2.871 2.04c22.218 15.762 53.004 10.53 68.762-11.688l234.423-330.428c15.767-22.22 10.531-53.001-11.687-68.767z"
     fill="#E5594F"
     id="path2"
     style="fill:#918a6f" />
  <path
     d="M891.662 525.126c-0.363 50.106-8.104 91.767-27.502 142.522-13.232 34.625-44.231 82.177-70.529 111.108-62.993 69.31-152.478 113.292-240.772 121.615-100.773 9.501-189.621-17.478-271.287-78.551 7.65 5.723-7.536-6.408-7.061-6.009-4.562-3.821-8.967-7.82-13.369-11.824-8.803-8.003-17.105-16.535-25.225-25.224-18.148-19.432-26.188-30.526-41.439-54.866-27.11-43.264-40.704-80.283-51.007-132.536-4.015-20.354-5.395-39.803-5.586-66.233-0.531-73.33-114.29-73.381-113.758 0 1.607 222.487 154.098 420.146 370.093 475.715 216.482 55.697 449.039-49.258 553.91-245.54 37.754-70.664 56.715-150.224 57.293-230.179 0.526-73.379-113.231-73.328-113.761 0.002z"
     fill="#4A5699"
     id="path3" />
  <path
     d="M137.884 501.467c0.362-50.104 8.103-91.762 27.502-142.52 13.233-34.621 44.233-82.173 70.53-111.108 62.993-69.309 152.472-113.29 240.768-121.615 100.773-9.5 189.626 17.479 271.292 78.554-7.652-5.721 7.532 6.408 7.057 6.01 4.563 3.819 8.968 7.821 13.371 11.823 8.803 8 17.108 16.535 25.228 25.225 18.147 19.43 26.187 30.526 41.438 54.866 27.111 43.264 40.709 80.28 51.009 132.533 4.014 20.352 5.396 39.804 5.586 66.232 0.529 73.33 114.287 73.384 113.76 0-1.608-222.489-154.107-420.144-370.099-475.715-216.482-55.7-449.036 49.26-553.905 245.541-37.753 70.664-56.715 150.219-57.292 230.174-0.534 73.384 113.225 73.33 113.755 0z"
     fill="#C45FA0"
     id="path4" />
  <path
     d="m 781.33525,845.81914 c -34.84554,0 -46.54899,-32.72893 -46.54899,-47.63688 l 0.21182,-111.83816 c 0,-2.68457 -1.16504,-5.25491 -3.17741,-6.91134 -1.37687,-1.14238 -3.07149,-1.71356 -4.76611,-1.71356 -0.74139,0 -1.53574,0.1142 -2.27714,0.34271 -7.51985,2.45611 -14.77493,3.65559 -21.50044,3.65559 -20.12356,0 -33.15094,-11.13812 -40.51192,-20.50557 a 30.635488,33.043091 0 0 0 -23.40689,-11.53795 c -3.28333,0 -6.51368,0.57119 -9.5852,1.65644 -3.86583,1.37084 -7.99646,2.05627 -12.28597,2.05627 -6.83141,0 -14.19241,-1.77068 -21.71227,-5.2549 -9.95587,-4.62661 -17.42277,-12.79456 -21.9241,-18.90625 -4.7661,-6.4544 -14.56311,-17.30693 -26.47838,-17.30693 -1.80053,0 -3.5481,0.22848 -5.24272,0.74254 -2.54192,0.74254 -5.56045,1.14238 -8.73786,1.14238 -14.45719,0 -33.41572,-7.76814 -43.05385,-29.58742 -8.73787,-19.64879 -8.52604,-128.40254 -8.42013,-164.10164 0.15888,-93.96006 60.21184,-227.78886 60.84732,-229.15971 0.21184,-0.45695 0.37069,-0.9139 0.52957,-1.42797 1.58871,-6.11169 6.83143,-10.39558 12.70963,-10.39558 l 210.39723,1.94204 c 6.03708,0.1142 11.2798,4.68372 12.70963,11.08099 l 1.5887,7.36831 c 7.8376,36.38454 27.53752,68.77076 56.92852,93.78869 6.30185,5.36915 11.70345,11.76643 16.09886,19.02049 23.5128,39.12621 36.4872,73.5116 48.98501,106.7546 11.80934,31.47233 22.98323,61.17398 41.99471,91.84665 4.23653,6.85423 7.30802,25.70336 2.64784,40.78267 -2.96559,9.71015 -8.579,16.22166 -16.62843,19.24894 -6.46073,2.45611 -12.33893,3.6556 -17.95234,3.6556 -19.9647,0 -37.44043,-16.05033 -56.7167,-52.09214 -20.60018,-38.44079 -21.87114,-48.55078 -21.92409,-48.95061 -0.15888,-4.6266 -3.65403,-8.16795 -7.94352,-8.16795 h -0.10587 c -4.34246,0.0571 -7.78465,3.99829 -7.8376,8.68202 l -0.63548,325.97567 c 0,11.93777 -6.67256,45.75196 -36.27539,45.75196 z"
     fill="url(#IconifyId17ecdb2904d178eab5755)"
     id="path2-3"
     style="fill:url(#IconifyId17ecdb2904d178eab5755);stroke-width:5.49984" />
</svg>
