<?xml version="1.0" encoding="UTF-8" standalone="no"?>
<!-- Uploaded to: SVG Repo, www.svgrepo.com, Generator: SVG Repo Mixer Tools -->

<svg
   width="800px"
   height="800px"
   viewBox="0 0 18 18"
   version="1.1"
   id="svg3"
   xmlns="http://www.w3.org/2000/svg"
   xmlns:svg="http://www.w3.org/2000/svg">
  <defs
     id="defs3" />
  <path
     fill="#494c4e"
     d="M 8.9939784,13.211194 A 1.3284714,1.2917153 0 1 1 10.328471,11.919479 1.3315712,1.2947293 0 0 1 8.9939784,13.211194 Z"
     id="path1"
     style="fill:#ff2a2a;stroke-width:0.87331" />
  <path
     fill="#494c4e"
     d="M 9.0000005,2.9719953 A 6.1995333,6.0280047 0 1 1 2.8004672,9 6.2065299,6.0348077 0 0 1 9.0000005,2.9719953 m 0,-1.722287 A 7.9708285,7.7502917 0 1 0 16.970828,9 7.9708285,7.7502917 0 0 0 9.0000005,1.2497083 Z"
     id="path2"
     style="fill:#d40000;stroke-width:0.87331" />
  <path
     fill="#494c4e"
     d="M 9.8856475,4.7155459 H 8.1143523 A 0.88564761,0.86114352 0 0 0 7.2552741,5.7855167 l 0.8856476,3.4445748 a 0.88564761,0.86114352 0 0 0 1.7181564,0 L 10.744726,5.7855167 A 0.88564761,0.86114352 0 0 0 9.8856475,4.7155459 Z m 0,1.7222868 z"
     id="path3"
     style="fill:#ff2a2a;stroke-width:0.87331" />
</svg>
