<?xml version="1.0" encoding="UTF-8" standalone="no"?>
<!-- Uploaded to: SVG Repo, www.svgrepo.com, Generator: SVG Repo Mixer Tools -->

<svg
   fill="#000000"
   version="1.1"
   id="Capa_1"
   width="800px"
   height="800px"
   viewBox="0 0 40.167 40.167"
   xml:space="preserve"
   sodipodi:docname="benefit-graphic-arrow-svgrepo-com.svg"
   inkscape:version="1.4.4 (dcaf3e7d9e, 2026-05-05)"
   xmlns:inkscape="http://www.inkscape.org/namespaces/inkscape"
   xmlns:sodipodi="http://sodipodi.sourceforge.net/DTD/sodipodi-0.dtd"
   xmlns="http://www.w3.org/2000/svg"
   xmlns:svg="http://www.w3.org/2000/svg"><defs
   id="defs3">
	
</defs><sodipodi:namedview
   id="namedview3"
   pagecolor="#ffffff"
   bordercolor="#000000"
   borderopacity="0.25"
   inkscape:showpageshadow="2"
   inkscape:pageopacity="0.0"
   inkscape:pagecheckerboard="0"
   inkscape:deskcolor="#d1d1d1"
   inkscape:zoom="1.03625"
   inkscape:cx="399.51749"
   inkscape:cy="400"
   inkscape:window-width="1670"
   inkscape:window-height="1036"
   inkscape:window-x="36"
   inkscape:window-y="32"
   inkscape:window-maximized="0"
   inkscape:current-layer="Capa_1" />
<g
   id="g2">
		<path
   d="m 1.5,36.5 c 0,0 0.329,0 0.735,0 0.406,0 0.735,0.448 0.735,1 v 1.167 c 0,0.829 0.671,1.5 1.5,1.5 0.829,0 1.5,-0.671 1.5,-1.5 V 37.5 c 0,-0.552 0.448,-1 1,-1 h 31.697 c 0.829,0 1.5,-0.671 1.5,-1.5 0,-0.829 -0.671,-1.5 -1.5,-1.5 H 6.97 c -0.552,0 -1,-0.448 -1,-1 V 1.5 C 5.97,0.671 5.299,0 4.47,0 3.641,0 2.97,0.671 2.97,1.5 v 31 c 0,0.552 -0.329,1 -0.735,1 H 1.5 C 0.671,33.5 0,34.171 0,35 c 0,0.829 0.672,1.5 1.5,1.5 z"
   id="path1"
   style="fill:#0000ff" />
		<path
   d="m 14.657,20.875 c -2.382,0.891 -3.601,3.559 -2.716,5.957 0.673,1.799 2.415,3.008 4.335,3.008 0.554,0 1.096,-0.098 1.6,-0.285 0.088,-0.033 8.655,-3.252 11.277,-13.093 l 2.308,-0.004 c 0.682,0 1.279,-0.331 1.6,-0.886 0.32,-0.555 0.309,-1.239 -0.033,-1.833 L 26.73,2.873 c -0.342,-0.59 -0.928,-0.942 -1.568,-0.942 -0.643,0 -1.23,0.354 -1.57,0.946 l -6.263,10.889 c -0.34,0.591 -0.352,1.274 -0.031,1.829 0.321,0.555 0.92,0.886 1.604,0.886 h 0.334 c -1.732,3.2 -4.48,4.353 -4.579,4.394 z m 8.072,-4.881 c 0.214,-0.597 0.136,-1.226 -0.217,-1.727 -0.347,-0.493 -0.926,-0.788 -1.557,-0.79 l 4.211,-7.32 4.233,7.305 -0.9,0.002 c -0.997,0.003 -1.884,0.713 -2.11,1.687 -2.01,8.606 -9.479,11.562 -9.55,11.589 -0.8,0.3 -1.782,-0.145 -2.085,-0.953 -0.312,-0.846 0.116,-1.788 0.992,-2.116 0.201,-0.082 4.966,-2.066 6.983,-7.677 z"
   id="path2"
   style="fill:#008000" />
	</g>
</svg>
