<?xml version="1.0" encoding="UTF-8" standalone="no"?>
<!-- Uploaded to: SVG Repo, www.svgrepo.com, Generator: SVG Repo Mixer Tools -->

<svg
   width="800px"
   height="800px"
   viewBox="0 0 64 64"
   version="1.1"
   id="svg15"
   sodipodi:docname="image.svg"
   inkscape:version="1.4.4 (dcaf3e7d9e, 2026-05-05)"
   xmlns:inkscape="http://www.inkscape.org/namespaces/inkscape"
   xmlns:sodipodi="http://sodipodi.sourceforge.net/DTD/sodipodi-0.dtd"
   xmlns="http://www.w3.org/2000/svg"
   xmlns:svg="http://www.w3.org/2000/svg">
  <defs
     id="defs15" />
  <sodipodi:namedview
     id="namedview15"
     pagecolor="#ffffff"
     bordercolor="#000000"
     borderopacity="0.25"
     inkscape:showpageshadow="2"
     inkscape:pageopacity="0.0"
     inkscape:pagecheckerboard="0"
     inkscape:deskcolor="#d1d1d1"
     inkscape:zoom="1.07125"
     inkscape:cx="399.53326"
     inkscape:cy="400"
     inkscape:window-width="1920"
     inkscape:window-height="1043"
     inkscape:window-x="0"
     inkscape:window-y="0"
     inkscape:window-maximized="1"
     inkscape:current-layer="svg15" />
  <title
     id="title1">divorce</title>
  <g
     id="divorce">
    <circle
       cx="15"
       cy="13"
       r="1"
       style="fill:#4c241d"
       id="circle2" />
    <circle
       cx="48"
       cy="13"
       r="1"
       style="fill:#4c241d"
       id="circle3" />
    <path
       d="M3,59V49.079c0-3.072,1.409-5.687,3.378-6.666a34.908,34.908,0,0,0,5.1-2.862L15,37l3.522,2.551a34.908,34.908,0,0,0,5.1,2.862C25.591,43.392,27,46.007,27,49.079V59"
       style="fill:#f4aeab;stroke:#4c241d;stroke-linecap:round;stroke-linejoin:round;stroke-width:2px"
       id="path3" />
    <path
       d="M24,47l-9,6L6,47V25.959A7.959,7.959,0,0,1,13.959,18h2.082A7.959,7.959,0,0,1,24,25.959Z"
       style="fill:#ffffff;stroke:#4c241d;stroke-linecap:round;stroke-linejoin:round;stroke-width:2px"
       id="path4" />
    <path
       d="M37,59V46.247a4.374,4.374,0,0,1,3.378-4,45.373,45.373,0,0,0,5.1-1.717L49,39l3.522,1.531a45.373,45.373,0,0,0,5.1,1.717,4.374,4.374,0,0,1,3.378,4V59"
       style="fill:#6b4f5b;stroke:#4c241d;stroke-linecap:round;stroke-linejoin:round;stroke-width:2px"
       id="path5" />
    <polyline
       points="9 25 9 34 21 34 21 25"
       style="fill:#e7d1c4;stroke:#4c241d;stroke-linecap:round;stroke-linejoin:round;stroke-width:2px"
       id="polyline5" />
    <path
       d="M47,37h4a0,0,0,0,1,0,0v3a2,2,0,0,1-2,2h0a2,2,0,0,1-2-2V37a0,0,0,0,1,0,0Z"
       style="fill:#e7d1c4;stroke:#4c241d;stroke-linecap:round;stroke-linejoin:round;stroke-width:2px"
       id="path6" />
    <rect
       x="53"
       y="27"
       width="4"
       height="27"
       style="fill:#ffffff;stroke:#4c241d;stroke-linecap:round;stroke-linejoin:round;stroke-width:2px"
       id="rect6" />
    <path
       d="M42,21h9.5A4.5,4.5,0,0,1,56,25.5v8A4.5,4.5,0,0,1,51.5,38h-5A4.5,4.5,0,0,1,42,33.5V21A0,0,0,0,1,42,21Z"
       style="fill:#e7d1c4;stroke:#4c241d;stroke-linecap:round;stroke-linejoin:round;stroke-width:2px"
       id="path7" />
    <path
       d="M43.847,19H54.153A2.847,2.847,0,0,1,57,21.847V27a0,0,0,0,1,0,0H41a0,0,0,0,1,0,0V21.847A2.847,2.847,0,0,1,43.847,19Z"
       style="fill:#6b4f5b;stroke:#4c241d;stroke-linecap:round;stroke-linejoin:round;stroke-width:2px"
       id="path8" />
    <path
       d="M43,21V18.847A2.847,2.847,0,0,1,45.847,16h6.306A2.847,2.847,0,0,1,55,18.847V21"
       style="fill:#6b4f5b;stroke:#4c241d;stroke-linecap:round;stroke-linejoin:round;stroke-width:2px"
       id="path9" />
    <line
       x1="49"
       y1="52"
       x2="49"
       y2="42"
       style="fill:none;stroke:#4c241d;stroke-linecap:round;stroke-linejoin:round;stroke-width:2px"
       id="line9" />
    <path
       d="M9,34H21a0,0,0,0,1,0,0v0a5,5,0,0,1-5,5H14a5,5,0,0,1-5-5v0a0,0,0,0,1,0,0Z"
       style="fill:#f4aeab;stroke:#4c241d;stroke-linecap:round;stroke-linejoin:round;stroke-width:2px"
       id="path10" />
    <path
       d="M8,25h4a3.972,3.972,0,0,0,3-1.38A3.972,3.972,0,0,0,18,25h4"
       style="fill:#ffce56;stroke:#4c241d;stroke-linecap:round;stroke-linejoin:round;stroke-width:2px"
       id="path11" />
    <polyline
       points="46 34 48 33 50 33 52 34"
       style="fill:none;stroke:#4c241d;stroke-linecap:round;stroke-linejoin:round;stroke-width:2px"
       id="polyline11" />
    <line
       x1="32"
       y1="63"
       x2="32"
       y2="10"
       style="fill:#ff0000;stroke:#ff1b00;stroke-linecap:round;stroke-linejoin:round;stroke-width:2px;stroke-opacity:1"
       id="line11" />
    <line
       x1="23.837"
       y1="4.663"
       x2="20.163"
       y2="8.337"
       style="fill:#ff0000;stroke:#ff2600;stroke-linecap:round;stroke-linejoin:round;stroke-width:2px;stroke-opacity:1"
       id="line12" />
    <line
       x1="20.163"
       y1="4.663"
       x2="23.837"
       y2="8.337"
       style="fill:none;stroke:#ff2600;stroke-linecap:round;stroke-linejoin:round;stroke-width:2px;stroke-opacity:1"
       id="line13" />
    <line
       x1="40.837"
       y1="6.663"
       x2="37.163"
       y2="10.337"
       style="fill:none;stroke:#ff2600;stroke-linecap:round;stroke-linejoin:round;stroke-width:2px;stroke-opacity:1"
       id="line14" />
    <line
       x1="37.163"
       y1="6.663"
       x2="40.837"
       y2="10.337"
       style="fill:none;stroke:#ff2600;stroke-linecap:round;stroke-linejoin:round;stroke-width:2px;stroke-opacity:1"
       id="line15" />
  </g>
  <path
     d="m 32.133116,36.49923 c -7.385096,0 -13.346558,5.711287 -13.346558,12.786464 0,7.075178 5.961462,12.786465 13.346558,12.786465 7.385095,0 13.346557,-5.711287 13.346557,-12.786465 0,-7.075177 -5.961462,-12.786464 -13.346557,-12.786464 m 9.787475,12.786464 c 0,1.960592 -0.622839,3.793318 -1.735053,5.327694 L 26.57205,41.571194 c 1.601587,-1.065539 3.514593,-1.66224 5.561066,-1.66224 5.427599,0 9.787475,4.219533 9.787475,9.37674 m -19.574951,0 c 0,-1.960591 0.622839,-3.793317 1.735052,-5.327693 l 13.613489,13.042194 c -1.601587,1.065538 -3.514593,1.66224 -5.561065,1.66224 -5.383112,0 -9.787476,-4.219533 -9.787476,-9.376741"
     fill="#ff5a79"
     id="path1"
     style="stroke-width:0.435451;fill:#d40000" />
</svg>
