<?xml version="1.0" encoding="UTF-8" standalone="no"?>
<!-- Uploaded to: SVG Repo, www.svgrepo.com, Generator: SVG Repo Mixer Tools -->

<svg
   width="800px"
   height="800px"
   viewBox="0 0 64 64"
   aria-hidden="true"
   role="img"
   class="iconify iconify--emojione"
   preserveAspectRatio="xMidYMid meet"
   version="1.1"
   id="svg33"
   xmlns="http://www.w3.org/2000/svg"
   xmlns:svg="http://www.w3.org/2000/svg">
  <defs
     id="defs37" />
  <circle
     cx="32"
     cy="32"
     r="30"
     fill="#ffdd67"
     id="circle25" />
  <g
     fill="#664e27"
     id="g31">
    <circle
       cx="20.5"
       cy="28.5"
       r="5"
       id="circle27" />
    <circle
       cx="43.5"
       cy="28.5"
       r="5"
       id="circle29" />
  </g>
  <path
     d="m 42.043191,42.481333 c 0,7.268473 -4.308721,10.245382 -9.617847,10.245382 -5.309126,0 -9.617847,-2.976909 -9.617847,-10.245382 0,-7.268473 9.617847,-18.993397 9.617847,-18.993397 0,0 9.617847,11.724924 9.617847,18.993397 z"
     fill="#44c0c6"
     id="path159"
     style="stroke-width:0.0455369" />
  <path
     d="m 45.384078,21.041344 m -4.518107,0 a 4.5181081,4.3272146 0 1 0 9.036215,0 4.5181081,4.3272146 0 1 0 -9.036215,0 z"
     fill="#80f9e7"
     id="path163"
     style="stroke-width:0.0455369" />
  <path
     d="m 41.456907,38.729001 m -3.927171,0 a 3.9271712,3.7612452 0 1 0 7.854342,0 3.9271712,3.7612452 0 1 0 -7.854342,0 z"
     fill="#80f9e7"
     id="path167"
     style="stroke-width:0.0455369" />
  <path
     d="m 21.104482,61.278646 c -2.433543,0 -4.411087,-1.893992 -4.411087,-4.224716 0,-2.330724 1.977544,-4.224716 4.411087,-4.224716 2.433544,0 4.411088,1.893992 4.411088,4.224716 0,2.330724 -1.977544,4.224716 -4.411088,4.224716 z m 0,-7.526947 c -1.903096,0 -3.447907,1.479542 -3.447907,3.302231 0,1.822689 1.544811,3.302231 3.447907,3.302231 1.903096,0 3.447908,-1.479542 3.447908,-3.302231 0,-1.818232 -1.544812,-3.302231 -3.447908,-3.302231 z"
     fill=""
     id="path173"
     style="stroke-width:0.0455369" />
  <path
     d="m 53.247726,43.631097 m -2.973296,0 a 2.9732967,2.8476726 0 1 0 5.946593,0 2.9732967,2.8476726 0 1 0 -5.946593,0 z"
     fill="#80f9e7"
     id="path175"
     style="stroke-width:0.0455369" />
  <path
     d="m 22.686518,25.849855 m -2.973296,0 a 2.9732967,2.8476726 0 1 0 5.946593,0 2.9732967,2.8476726 0 1 0 -5.946593,0 z"
     fill="#80f9e7"
     id="path179"
     style="stroke-width:0.0455369" />
  <path
     d="m 43.992818,60.222467 c -1.665791,0 -3.019827,-1.296827 -3.019827,-2.892237 0,-1.59541 1.354036,-2.892237 3.019827,-2.892237 1.66579,0 3.019826,1.296827 3.019826,2.892237 0,1.59541 -1.354036,2.892237 -3.019826,2.892237 z m 0,-4.861989 c -1.135344,0 -2.056647,0.882378 -2.056647,1.969752 0,1.087374 0.921303,1.969751 2.056647,1.969751 1.135342,0 2.056646,-0.882377 2.056646,-1.969751 0,-1.087374 -0.921304,-1.969752 -2.056646,-1.969752 z"
     fill=""
     id="path185"
     style="stroke-width:0.0455369" />
  <path
     d="m 16.679435,37.877818 m -3.038439,0 a 3.0384394,2.9100629 0 1 0 6.076879,0 3.0384394,2.9100629 0 1 0 -6.076879,0 z"
     fill="#80f9e7"
     id="path187"
     style="stroke-width:0.0455369" />
</svg>
