<?xml version="1.0" encoding="UTF-8" standalone="no"?>
<!-- Uploaded to: SVG Repo, www.svgrepo.com, Generator: SVG Repo Mixer Tools -->

<svg
   fill="#000000"
   width="800px"
   height="800px"
   viewBox="0 0 32 32"
   version="1.1"
   id="svg1"
   sodipodi:docname="image.svg"
   inkscape:version="1.4.4 (dcaf3e7d9e, 2026-05-05)"
   xmlns:inkscape="http://www.inkscape.org/namespaces/inkscape"
   xmlns:sodipodi="http://sodipodi.sourceforge.net/DTD/sodipodi-0.dtd"
   xmlns="http://www.w3.org/2000/svg"
   xmlns:svg="http://www.w3.org/2000/svg">
  <defs
     id="defs1" />
  <sodipodi:namedview
     id="namedview1"
     pagecolor="#ffffff"
     bordercolor="#000000"
     borderopacity="0.25"
     inkscape:showpageshadow="2"
     inkscape:pageopacity="0.0"
     inkscape:pagecheckerboard="0"
     inkscape:deskcolor="#d1d1d1"
     inkscape:zoom="1.03625"
     inkscape:cx="400"
     inkscape:cy="400"
     inkscape:window-width="1488"
     inkscape:window-height="1036"
     inkscape:window-x="36"
     inkscape:window-y="32"
     inkscape:window-maximized="0"
     inkscape:current-layer="svg1" />
  <title
     id="title1">etc</title>
  <path
     d="m 10.297,16 c 0,-1.5 -1.25,-2.75 -2.75,-2.75 -1.531,0 -2.75,1.25 -2.75,2.75 0,1.5 1.219,2.75 2.75,2.75 1.5,0 2.75,-1.25 2.75,-2.75 z m 8.438,0 c 0,-1.5 -1.25,-2.75 -2.75,-2.75 -1.5,0 -2.75,1.25 -2.75,2.75 0,1.5 1.25,2.75 2.75,2.75 1.5,0 2.75,-1.25 2.75,-2.75 z m 8.468,0 c 0,-1.5 -1.219,-2.75 -2.75,-2.75 -1.5,0 -2.75,1.25 -2.75,2.75 0,1.5 1.25,2.75 2.75,2.75 1.531,0 2.75,-1.25 2.75,-2.75 z"
     id="path1"
     style="fill:#ff0000" />
</svg>
