<?xml version="1.0" encoding="UTF-8" standalone="no"?>
<!-- Uploaded to: SVG Repo, www.svgrepo.com, Generator: SVG Repo Mixer Tools -->

<svg
   width="800px"
   height="800px"
   viewBox="0 0 128 128"
   aria-hidden="true"
   role="img"
   class="iconify iconify--noto"
   preserveAspectRatio="xMidYMid meet"
   version="1.1"
   id="svg8"
   sodipodi:docname="image.svg"
   inkscape:version="1.4.4 (dcaf3e7d9e, 2026-05-05)"
   xmlns:inkscape="http://www.inkscape.org/namespaces/inkscape"
   xmlns:sodipodi="http://sodipodi.sourceforge.net/DTD/sodipodi-0.dtd"
   xmlns:xlink="http://www.w3.org/1999/xlink"
   xmlns="http://www.w3.org/2000/svg"
   xmlns:svg="http://www.w3.org/2000/svg">
  <sodipodi:namedview
     id="namedview1"
     pagecolor="#ffffff"
     bordercolor="#000000"
     borderopacity="0.25"
     inkscape:showpageshadow="2"
     inkscape:pageopacity="0.0"
     inkscape:pagecheckerboard="0"
     inkscape:deskcolor="#d1d1d1"
     inkscape:zoom="0.98125"
     inkscape:cx="399.49045"
     inkscape:cy="400"
     inkscape:window-width="1920"
     inkscape:window-height="971"
     inkscape:window-x="0"
     inkscape:window-y="0"
     inkscape:window-maximized="1"
     inkscape:current-layer="svg8" />
  <linearGradient
     id="IconifyId17ecdb2904d178eab14438"
     x1="-68.674"
     x2="-68.674"
     y1="-1671.9"
     y2="-1640.7"
     gradientTransform="matrix(0.1599,-1.1147,1.1712,0.168,1977.5,297.59)"
     gradientUnits="userSpaceOnUse">
    <stop
       stop-color="#FFCA28"
       offset=".599"
       id="stop1" />
    <stop
       stop-color="#FFB300"
       offset="1"
       id="stop2" />
  </linearGradient>
  <defs
     id="defs2">
    <path
       id="IconifyId17ecdb2904d178eab14439"
       d="M47.69 78.75c17.75-2.84 23.5 22.64 23.5 22.64s5.93 22.1-17.1 19.19c-7.36-.93-22.52-4.24-32.15-9.08c-4.7-2.36-4.04-11.3-3.25-16.5c2.25-14.75 20.28-14.85 29-16.25z" />
  </defs>
  <clipPath
     id="IconifyId17ecdb2904d178eab14440">
    <use
       xlink:href="#IconifyId17ecdb2904d178eab14439"
       id="use2" />
  </clipPath>
  <linearGradient
     id="IconifyId17ecdb2904d178eab14441"
     x1="-60.461"
     x2="-60.461"
     y1="-1617.4"
     y2="-1586.2"
     gradientTransform="matrix(-0.1599,-1.1147,-1.1712,0.168,-1784.3,297.59)"
     gradientUnits="userSpaceOnUse">
    <stop
       stop-color="#FFCA28"
       offset=".599"
       id="stop3" />
    <stop
       stop-color="#FFB300"
       offset="1"
       id="stop4" />
  </linearGradient>
  <defs
     id="defs4">
    <path
       id="IconifyId17ecdb2904d178eab14442"
       d="M80.31 78.75c-17.75-2.84-23.5 22.64-23.5 22.64s-5.93 22.1 17.1 19.19c7.36-.93 22.52-4.24 32.15-9.08c4.7-2.36 4.04-11.3 3.25-16.5c-2.25-14.75-20.28-14.85-29-16.25z" />
  </defs>
  <clipPath
     id="IconifyId17ecdb2904d178eab14443">
    <use
       xlink:href="#IconifyId17ecdb2904d178eab14442"
       id="use4" />
  </clipPath>
  <radialGradient
     id="IconifyId17ecdb2904d178eab14444"
     cx="63.833"
     cy="35.43"
     r="86.355"
     gradientTransform="matrix(0,1,-0.5694,0,84.006,-28.404)"
     gradientUnits="userSpaceOnUse">
    <stop
       stop-color="#FFCA28"
       offset=".786"
       id="stop5" />
    <stop
       stop-color="#F5AC00"
       offset="1"
       id="stop6" />
  </radialGradient>
  <linearGradient
     id="IconifyId17ecdb2904d178eab14445"
     x1="18.271"
     x2="109.73"
     y1="65.392"
     y2="65.392"
     gradientUnits="userSpaceOnUse">
    <stop
       stop-color="#E6A100"
       offset="0"
       id="stop7" />
    <stop
       stop-color="#E6A100"
       offset="1"
       id="stop8" />
  </linearGradient>
  <g
     id="g8"
     transform="translate(0,-1.375)">
    <path
       d="m 47.69,78.75 c 17.75,-2.84 23.5,22.64 23.5,22.64 0,0 5.93,22.1 -17.1,19.19 -7.36,-0.93 -22.52,-4.24 -32.15,-9.08 -4.7,-2.36 -3.72,-11.26 -3.25,-16.5 1.5,-16.75 20.28,-14.85 29,-16.25 z"
       fill="url(#IconifyId17ecdb2904d178eab14438)"
       id="path2"
       style="fill:url(#IconifyId17ecdb2904d178eab14438)" />
    <path
       d="M 42.44,123.33 C 40.76,126.8 33.39,122.97 28.22,119.6 18.1,113 20.8,97.59 34.44,107.33 c 7,5 9.68,12.54 8,16 z"
       clip-path="url(#IconifyId17ecdb2904d178eab14440)"
       fill="#a15700"
       id="path3" />
    <path
       d="m 80.31,78.75 c -17.75,-2.84 -23.5,22.64 -23.5,22.64 0,0 -5.93,22.1 17.1,19.19 7.36,-0.93 22.52,-4.24 32.15,-9.08 4.7,-2.36 3.72,-11.26 3.25,-16.5 -1.5,-16.75 -20.28,-14.85 -29,-16.25 z"
       fill="url(#IconifyId17ecdb2904d178eab14441)"
       id="path4"
       style="fill:url(#IconifyId17ecdb2904d178eab14441)" />
    <path
       d="m 85.56,123.33 c 1.68,3.47 9.05,-0.36 14.22,-3.73 10.12,-6.6 7.42,-22.01 -6.22,-12.27 -7,5 -9.68,12.54 -8,16 z"
       clip-path="url(#IconifyId17ecdb2904d178eab14443)"
       fill="#a15700"
       id="path5" />
    <path
       d="M 87.39,81.88 C 86.72,57.21 76.64,7 76.64,7 H 51.25 c 0,0 -10.08,50.21 -10.75,74.88 -0.31,11.41 -0.08,22.93 2.25,28.81 1.79,4.5 4.5,8.76 9.09,10.75 3.82,1.65 7.94,2.35 12.04,2.3 3.23,-0.04 6.62,-0.62 9.77,-1.45 5.87,-1.56 9.33,-6.14 11.5,-11.6 2.32,-5.89 2.55,-17.41 2.24,-28.81 z"
       fill="url(#IconifyId17ecdb2904d178eab14444)"
       id="path6"
       style="fill:url(#IconifyId17ecdb2904d178eab14444)" />
    <path
       d="m 74.16,10.03 c 1.92,9.9 9.09,47.92 10.14,69.55 0.07,1.5 1.24,2.72 2.74,2.84 11.58,0.99 18.44,3.41 19.29,12.85 l 0.05,0.56 c 0.34,3.77 1.06,11.62 -1.66,12.99 -7.41,3.72 -18.56,6.6 -26.52,8.05 -0.46,0.08 -0.89,0.27 -1.27,0.55 -1.23,0.92 -2.55,1.57 -4.06,1.97 -3.22,0.86 -6.35,1.33 -9.03,1.36 h -0.39 c -3.79,0 -7.3,-0.69 -10.42,-2.04 -0.75,-0.32 -1.47,-0.76 -2.21,-1.32 a 3.08,3.08 0 0 0 -1.28,-0.57 c -7.89,-1.46 -18.93,-4.32 -26.25,-8 -2.72,-1.36 -2,-9.22 -1.66,-12.99 l 0.05,-0.56 c 0.43,-4.78 2.44,-7.94 6.33,-9.96 3.61,-1.87 8.31,-2.49 12.84,-2.88 1.5,-0.13 2.67,-1.34 2.74,-2.84 1.05,-21.62 8.2,-59.65 10.12,-69.56 h 20.45 m 2.46,-3 H 51.25 c 0,0 -9.42,47.01 -10.65,72.41 -9.2,0.8 -20.75,2.57 -21.91,15.56 -0.47,5.24 -1.45,14.14 3.25,16.5 7.76,3.9 19.09,6.8 27.06,8.27 0.86,0.66 1.8,1.24 2.84,1.7 3.69,1.6 7.65,2.28 11.61,2.28 h 0.42 c 3.23,-0.04 6.62,-0.63 9.77,-1.46 1.95,-0.52 3.63,-1.37 5.09,-2.47 7.98,-1.45 19.48,-4.38 27.33,-8.32 4.7,-2.36 3.72,-11.26 3.25,-16.5 C 108.14,81.96 96.51,80.22 87.29,79.43 86.06,54.03 76.62,7.03 76.62,7.03 Z"
       fill="url(#IconifyId17ecdb2904d178eab14445)"
       id="path8"
       style="fill:url(#IconifyId17ecdb2904d178eab14445)" />
  </g>
  <path
     d="m 107.63496,107.36104 11.41401,10.44307"
     stroke="#000000"
     stroke-width="5.47114"
     stroke-linecap="round"
     stroke-linejoin="round"
     id="path2-5" />
  <path
     d="m 91.616669,115.63071 7.79806,-15.723097 18.103051,-4.877074 -13.93408,-11.644186 0.52447,-17.259376 -16.409931,8.526434 -17.778822,-5.789772 3.792234,16.913914 -11.5124,13.681086 18.753588,1.926891 z"
     fill="#2f88ff"
     stroke="#000000"
     stroke-width="5.47114"
     stroke-linecap="round"
     stroke-linejoin="round"
     id="path1-1" />
</svg>
