<?xml version="1.0" encoding="UTF-8" standalone="no"?>
<!-- Uploaded to: SVG Repo, www.svgrepo.com, Generator: SVG Repo Mixer Tools -->

<svg
   version="1.1"
   id="Capa_1"
   viewBox="0 0 201.341 201.341"
   xml:space="preserve"
   xmlns="http://www.w3.org/2000/svg"
   xmlns:svg="http://www.w3.org/2000/svg"><defs
   id="defs21">
	
	
	
	
	
	
	
	
	
	
	
	
	
	
</defs>
<g
   id="g16"
   transform="translate(45.648508,-2.253107)">
		<path
   style="fill:#351f10"
   d="m 79.254,141.812 -5.534,-35.924 31.188,26.119 -30.6,-49.957 -39.4,1.29 -32.667,56 32.501,-34.27 -6.237,35.681 6.814,0.127 7.23,51.336 -12.309,9.127 18.667,-1 v -9.655 c 0,0 6.03,-46.813 6.03,-45.576 0,1.236 0,54.931 0,54.931 l 21.019,-0.237 -12.382,-7.462 10.904,-50.743 z"
   id="path8" />
		<polygon
   style="fill:#e2d4bf"
   points="41.248,78.554 56.453,124.88 65.976,77.73 "
   id="polygon8" />
		<g
   id="g11">
			<path
   style="fill:#eabb98"
   d="m 86.278,58.478 c 0.459,-4.072 -1.555,-7.642 -4.494,-7.972 -1.185,-0.133 -2.336,0.285 -3.323,1.092 C 74.231,45.174 64.397,40.949 53.144,41.466 41.07,42.024 31.121,47.872 28.169,55.4 26.648,54.171 24.856,53.694 23.28,54.296 c -2.765,1.054 -3.825,5.012 -2.364,8.839 1.46,3.829 4.885,6.078 7.65,5.023 0.425,-0.161 0.803,-0.399 1.144,-0.687 4.352,6.228 14.038,10.29 25.083,9.78 11.19,-0.516 20.549,-5.571 24.216,-12.3 0.352,0.15 0.723,0.254 1.111,0.299 2.942,0.331 5.697,-2.701 6.158,-6.772 z"
   id="path9" />
			<g
   id="g10">
				
					<ellipse
   transform="matrix(0.9667,0.2557,-0.2557,0.9667,15.7937,-9.6987)"
   style="fill:#351f10"
   cx="45.188999"
   cy="55.880001"
   rx="2.138"
   ry="2.3180001"
   id="ellipse9" />
				
					<ellipse
   transform="matrix(0.9667,0.2558,-0.2558,0.9667,16.3922,-14.3883)"
   style="fill:#351f10"
   cx="63.509998"
   cy="55.823002"
   rx="2.138"
   ry="2.3169999"
   id="ellipse10" />
			</g>
			<path
   style="fill:#351f10"
   d="m 26.987,43.242 c -1.7,4.554 -1.9,9.708 0.471,15.407 0,0 5.263,-12.54 21.699,-15.407 z"
   id="path10" />
			<path
   style="fill:#351f10"
   d="m 59.398,43.242 c 13.808,2.754 22.033,16.042 22.033,16.042 0,0 1.196,-7.299 -2.029,-16.042 z"
   id="path11" />
		</g>
		<path
   style="fill:#665e5a"
   d="m 42.1,78.341 -10.285,5.243 c 0,0 8.55,32.627 24.212,40.87 z"
   id="path12" />
		<path
   style="fill:#665e5a"
   d="m 63.291,74.859 -6.838,50.021 c 0,0 15.734,-23.458 19.855,-42.829 z"
   id="path13" />
		<polygon
   style="fill:#ffffff"
   points="53.944,80.471 67.098,87.996 66.884,70.427 53.734,77.119 39.882,70.335 41.333,87.978 "
   id="polygon13" />
		<g
   id="g15">
			<rect
   x="17.896999"
   y="37.242001"
   style="fill:#351f10"
   width="71.834"
   height="6.6659999"
   id="rect13" />
			<rect
   x="34.147999"
   y="8.9090004"
   style="fill:#351f10"
   width="37.083"
   height="29.333"
   id="rect14" />
			<rect
   x="34.147999"
   y="29.115999"
   style="fill:#665e5a"
   width="37.083"
   height="8.1479998"
   id="rect15" />
		</g>
	</g>
</svg>
