<?xml version="1.0" encoding="iso-8859-1"?>
<!-- Uploaded to: SVG Repo, www.svgrepo.com, Generator: SVG Repo Mixer Tools -->
<svg height="800px" width="800px" version="1.1" id="Layer_1" xmlns="http://www.w3.org/2000/svg" xmlns:xlink="http://www.w3.org/1999/xlink" 
	 viewBox="0 0 512 512" xml:space="preserve">
<g transform="translate(1 1)">
	<path style="fill:#FFA800;" d="M476.867,58.733h-85.333c-14.507,0-25.6-11.093-25.6-25.6l0,0c0-14.507,11.093-25.6,25.6-25.6
		h85.333c14.507,0,25.6,11.093,25.6,25.6l0,0C502.467,47.64,491.373,58.733,476.867,58.733"/>
	<path style="fill:#FFFFFF;" d="M391.533,58.733H306.2c-14.507,0-25.6-11.093-25.6-25.6l0,0c0-14.507,11.093-25.6,25.6-25.6h85.333
		c14.507,0,25.6,11.093,25.6,25.6l0,0C417.133,47.64,406.04,58.733,391.533,58.733"/>
	<path style="fill:#FDCC00;" d="M451.267,58.733H331.8c-14.507,0-25.6-11.093-25.6-25.6l0,0c0-14.507,11.093-25.6,25.6-25.6h119.467
		c14.507,0,25.6,11.093,25.6,25.6l0,0C476.867,47.64,465.773,58.733,451.267,58.733"/>
	<path style="fill:#FFE100;" d="M313.027,417.133c0-24.747,6.827-47.787,18.773-68.267h-128H101.4
		c-37.547,0-68.267,30.72-68.267,68.267S63.853,485.4,101.4,485.4h102.4h128C319.853,464.92,313.027,441.88,313.027,417.133"/>
	<path style="fill:#FFFFFF;" d="M33.133,417.133c0-37.547,30.72-68.267,68.267-68.267H75.8c-37.547,0-68.267,30.72-68.267,68.267
		S38.253,485.4,75.8,485.4h25.6C63.853,485.4,33.133,454.68,33.133,417.133"/>
	<polygon style="fill:#FFE100;" points="7.533,348.867 357.4,348.867 357.4,263.533 7.533,263.533 	"/>
	<polygon style="fill:#FFFFFF;" points="7.533,348.867 33.133,348.867 33.133,263.533 7.533,263.533 	"/>
	<g>
		<polygon style="fill:#FFE100;" points="50.2,263.533 331.8,263.533 331.8,178.2 50.2,178.2 		"/>
		<polygon style="fill:#FFE100;" points="24.6,178.2 314.733,178.2 314.733,109.933 24.6,109.933 		"/>
	</g>
	<g>
		<polygon style="fill:#FFFFFF;" points="24.6,178.2 50.2,178.2 50.2,109.933 24.6,109.933 		"/>
		<polygon style="fill:#FFFFFF;" points="50.2,263.533 75.8,263.533 75.8,178.2 50.2,178.2 		"/>
	</g>
	<g>
		<polygon style="fill:#FDCC00;" points="75.8,348.867 127,348.867 127,263.533 75.8,263.533 		"/>
		<polygon style="fill:#FDCC00;" points="92.867,178.2 144.067,178.2 144.067,109.933 92.867,109.933 		"/>
		<polygon style="fill:#FDCC00;" points="101.4,263.533 135.533,263.533 135.533,178.2 101.4,178.2 		"/>
	</g>
	<path style="fill:#FFA800;" d="M391.533,502.467L391.533,502.467c46.933,0,85.333-38.4,85.333-85.333v-358.4H306.2v358.4
		C306.2,464.067,344.6,502.467,391.533,502.467"/>
	<path style="fill:#FDCC00;" d="M391.533,502.467L391.533,502.467c46.933,0,59.733-38.4,59.733-85.333v-358.4H306.2v358.4
		C306.2,464.067,344.6,502.467,391.533,502.467"/>
	<path d="M476.867,67.267H306.2c-18.773,0-34.133-15.36-34.133-34.133S287.427-1,306.2-1h170.667C495.64-1,511,14.36,511,33.133
		S495.64,67.267,476.867,67.267z M306.2,16.067c-9.387,0-17.067,7.68-17.067,17.067S296.813,50.2,306.2,50.2h170.667
		c9.387,0,17.067-7.68,17.067-17.067s-7.68-17.067-17.067-17.067H306.2z"/>
	<path d="M391.533,511c-52.053,0-93.867-41.813-93.867-93.867v-358.4c0-5.12,3.413-8.533,8.533-8.533h170.667
		c5.12,0,8.533,3.413,8.533,8.533v358.4C485.4,469.187,443.587,511,391.533,511z M314.733,67.267v349.867
		c0,42.667,34.133,76.8,76.8,76.8s76.8-34.133,76.8-76.8V67.267H314.733z"/>
	<path d="M391.533,118.467h-51.2c-5.12,0-8.533-3.413-8.533-8.533s3.413-8.533,8.533-8.533h51.2c5.12,0,8.533,3.413,8.533,8.533
		S396.653,118.467,391.533,118.467z"/>
	<path d="M365.933,152.6h-25.6c-5.12,0-8.533-3.413-8.533-8.533c0-5.12,3.413-8.533,8.533-8.533h25.6
		c5.12,0,8.533,3.413,8.533,8.533C374.467,149.187,371.053,152.6,365.933,152.6z"/>
	<path d="M391.533,186.733h-51.2c-5.12,0-8.533-3.413-8.533-8.533c0-5.12,3.413-8.533,8.533-8.533h51.2
		c5.12,0,8.533,3.413,8.533,8.533C400.067,183.32,396.653,186.733,391.533,186.733z"/>
	<path d="M365.933,220.867h-25.6c-5.12,0-8.533-3.413-8.533-8.533c0-5.12,3.413-8.533,8.533-8.533h25.6
		c5.12,0,8.533,3.413,8.533,8.533C374.467,217.453,371.053,220.867,365.933,220.867z"/>
	<path d="M391.533,255h-51.2c-5.12,0-8.533-3.413-8.533-8.533c0-5.12,3.413-8.533,8.533-8.533h51.2c5.12,0,8.533,3.413,8.533,8.533
		C400.067,251.587,396.653,255,391.533,255z"/>
	<path d="M365.933,289.133h-25.6c-5.12,0-8.533-3.413-8.533-8.533c0-5.12,3.413-8.533,8.533-8.533h25.6
		c5.12,0,8.533,3.413,8.533,8.533S371.053,289.133,365.933,289.133z"/>
	<path d="M391.533,323.267h-51.2c-5.12,0-8.533-3.413-8.533-8.533c0-5.12,3.413-8.533,8.533-8.533h51.2
		c5.12,0,8.533,3.413,8.533,8.533C400.067,319.853,396.653,323.267,391.533,323.267z"/>
	<path d="M365.933,357.4h-25.6c-5.12,0-8.533-3.413-8.533-8.533c0-5.12,3.413-8.533,8.533-8.533h25.6
		c5.12,0,8.533,3.413,8.533,8.533C374.467,353.987,371.053,357.4,365.933,357.4z"/>
	<path d="M306.2,425.667h-128c-5.12,0-8.533-3.413-8.533-8.533s3.413-8.533,8.533-8.533h128c5.12,0,8.533,3.413,8.533,8.533
		S311.32,425.667,306.2,425.667z"/>
	<path d="M186.733,459.8H75.8c-23.893,0-42.667-18.773-42.667-42.667c0-23.893,18.773-42.667,42.667-42.667h196.267
		c5.12,0,8.533,3.413,8.533,8.533c0,5.12-3.413,8.533-8.533,8.533H75.8c-14.507,0-25.6,11.093-25.6,25.6
		c0,14.507,11.093,25.6,25.6,25.6h110.933c5.12,0,8.533,3.413,8.533,8.533S191.853,459.8,186.733,459.8z"/>
	<path d="M306.2,459.8h-76.8c-5.12,0-8.533-3.413-8.533-8.533s3.413-8.533,8.533-8.533h76.8c5.12,0,8.533,3.413,8.533,8.533
		S311.32,459.8,306.2,459.8z"/>
	<path d="M135.533,425.667h-51.2c-5.12,0-8.533-3.413-8.533-8.533s3.413-8.533,8.533-8.533h51.2c5.12,0,8.533,3.413,8.533,8.533
		S140.653,425.667,135.533,425.667z"/>
	<path d="M127,357.4H75.8c-5.12,0-8.533-3.413-8.533-8.533v-85.333c0-5.12,3.413-8.533,8.533-8.533H127
		c5.12,0,8.533,3.413,8.533,8.533v85.333C135.533,353.987,132.12,357.4,127,357.4z M84.333,340.333h34.133v-68.267H84.333V340.333z"
		/>
	<path d="M306.2,314.733H186.733c-5.12,0-8.533-3.413-8.533-8.533s3.413-8.533,8.533-8.533H306.2c5.12,0,8.533,3.413,8.533,8.533
		S311.32,314.733,306.2,314.733z"/>
	<path d="M144.067,186.733h-51.2c-5.12,0-8.533-3.413-8.533-8.533v-68.267c0-5.12,3.413-8.533,8.533-8.533h51.2
		c5.12,0,8.533,3.413,8.533,8.533V178.2C152.6,183.32,149.187,186.733,144.067,186.733z M101.4,169.667h34.133v-51.2H101.4V169.667z
		"/>
	<path d="M306.2,152.6H203.8c-5.12,0-8.533-3.413-8.533-8.533c0-5.12,3.413-8.533,8.533-8.533h102.4c5.12,0,8.533,3.413,8.533,8.533
		C314.733,149.187,311.32,152.6,306.2,152.6z"/>
	<path d="M135.533,272.067H101.4c-5.12,0-8.533-3.413-8.533-8.533V178.2c0-5.12,3.413-8.533,8.533-8.533h34.133
		c5.12,0,8.533,3.413,8.533,8.533v85.333C144.067,268.653,140.653,272.067,135.533,272.067z M109.933,255H127v-68.267h-17.067V255z"
		/>
	<path d="M306.2,229.4H186.733c-5.12,0-8.533-3.413-8.533-8.533c0-5.12,3.413-8.533,8.533-8.533H306.2
		c5.12,0,8.533,3.413,8.533,8.533C314.733,225.987,311.32,229.4,306.2,229.4z"/>
	<path d="M340.333,493.933H75.8c-42.667,0-76.8-34.133-76.8-76.8s34.133-76.8,76.8-76.8h230.4c5.12,0,8.533,3.413,8.533,8.533
		v68.267c0,24.747,11.093,46.933,30.72,61.44c2.56,2.56,4.267,5.973,2.56,9.387C347.16,491.373,343.747,493.933,340.333,493.933z
		 M75.8,357.4c-33.28,0-59.733,26.453-59.733,59.733S42.52,476.867,75.8,476.867H319c-13.653-16.213-21.333-37.547-21.333-59.733
		V357.4H75.8z"/>
	<path d="M306.2,357.4H7.533c-5.12,0-8.533-3.413-8.533-8.533v-85.333c0-5.12,3.413-8.533,8.533-8.533H306.2
		c5.12,0,8.533,3.413,8.533,8.533v85.333C314.733,353.987,311.32,357.4,306.2,357.4z M16.067,340.333h281.6v-68.267h-281.6V340.333z
		"/>
	<path d="M306.2,272.067h-256c-5.12,0-8.533-3.413-8.533-8.533V178.2c0-5.12,3.413-8.533,8.533-8.533h256
		c5.12,0,8.533,3.413,8.533,8.533v85.333C314.733,268.653,311.32,272.067,306.2,272.067z M58.733,255h238.933v-68.267H58.733V255z"
		/>
	<path d="M306.2,186.733H24.6c-5.12,0-8.533-3.413-8.533-8.533v-68.267c0-5.12,3.413-8.533,8.533-8.533h281.6
		c5.12,0,8.533,3.413,8.533,8.533V178.2C314.733,183.32,311.32,186.733,306.2,186.733z M33.133,169.667h264.533v-51.2H33.133
		V169.667z"/>
</g>
</svg>