<?xml version="1.0" encoding="iso-8859-1"?>
<!-- Uploaded to: SVG Repo, www.svgrepo.com, Generator: SVG Repo Mixer Tools -->
<svg version="1.1" id="Layer_1" xmlns="http://www.w3.org/2000/svg" xmlns:xlink="http://www.w3.org/1999/xlink" 
	 viewBox="0 0 512 512" xml:space="preserve">
<g>
	<rect x="30.771" y="214.073" style="fill:#B4E1FA;" width="66.583" height="120.216"/>
	<rect x="104.213" y="214.073" style="fill:#B4E1FA;" width="67.441" height="120.216"/>
</g>
<g>
	<rect x="342.347" y="341.147" style="fill:#D2B493;" width="138.882" height="39.241"/>
	<rect x="30.771" y="341.147" style="fill:#D2B493;" width="140.882" height="39.241"/>
</g>
<path style="fill:#EBD2AF;" d="M368.988,176.637l-0.065,5.65c-0.022,1.863-1.559,3.38-3.429,3.38H146.506
	c-1.87,0-3.409-1.517-3.43-3.38l-0.064-5.65H30.771v30.577h450.458v-30.577H368.988z"/>
<path style="fill:#DEC3A1;" d="M178.512,380.388h28.714V273.729c0-1.891,1.539-3.429,3.429-3.429h92.314
	c1.891,0,3.429,1.539,3.429,3.429v106.659h29.091V214.073H178.512V380.388z"/>
<g>
	<rect x="342.347" y="214.073" style="fill:#B4E1FA;" width="66.058" height="120.216"/>
	<rect x="415.263" y="214.073" style="fill:#B4E1FA;" width="65.966" height="120.216"/>
</g>
<path style="fill:#FF6464;" d="M362.065,148.475l-3.971-1.273c-33.017-10.587-67.367-15.956-102.094-15.956
	c-34.727,0-69.077,5.368-102.095,15.956l-3.97,1.273v30.335h212.129V148.475z"/>
<path d="M502.856,374.673h-9.053v-36.955V210.643v-37.435c0-5.041-4.092-9.145-9.144-9.145h-110.02v-18.026
	c0-3.909-2.48-7.384-6.184-8.653C332.185,124.971,294.35,118.673,256,118.673c-38.338,0-76.174,6.298-112.454,18.712
	c-3.704,1.269-6.184,4.744-6.184,8.653v18.026H27.342c-5.052,0-9.144,4.104-9.144,9.145v37.435v127.074v36.955H9.144
	c-5.041,0-9.144,4.104-9.144,9.145c0,5.052,4.104,9.145,9.144,9.145h18.198h147.741h33.023c0.812,0.24,1.669,0.366,2.549,0.366
	h92.314c0.88,0,1.737-0.126,2.549-0.366h33.4h145.74h18.198c5.052,0,9.144-4.092,9.144-9.145
	C512,378.776,507.908,374.673,502.856,374.673z M348.062,328.573V219.788h54.627v108.785H348.062z M420.978,219.788h54.535v108.785
	h-54.535V219.788z M155.651,152.644c32.474-10.413,66.195-15.683,100.349-15.683s67.875,5.27,100.349,15.683v20.449H155.651V152.644
	z M36.487,182.353h100.875c0.057,4.995,4.126,9.03,9.144,9.03h218.988c5.018,0,9.087-4.035,9.145-9.03h100.875v19.146h-63.68
	h-72.916H175.083h-74.299H36.487V182.353z M165.938,328.573h-56.01V219.788h56.01V328.573z M36.487,328.573V219.788h55.153v108.785
	H36.487z M36.487,346.862h64.297h65.154v27.811H36.487V346.862z M293.824,374.673h-74.025v-91.799h74.025V374.673z M302.968,264.584
	h-92.314c-5.041,0-9.144,4.092-9.144,9.145v100.944h-17.283v-36.955v-117.93h145.546v117.93v36.955h-17.66V273.729
	C312.113,268.677,308.009,264.584,302.968,264.584z M348.062,346.862h63.771h63.68v27.811H348.062V346.862z"/>
</svg>