<?xml version="1.0" encoding="UTF-8" standalone="no"?>
<!-- Uploaded to: SVG Repo, www.svgrepo.com, Generator: SVG Repo Mixer Tools -->

<svg
   height="800px"
   width="800px"
   version="1.1"
   id="_x32_"
   viewBox="0 0 512 512"
   xml:space="preserve"
   sodipodi:docname="image.svg"
   inkscape:version="1.3.1 (9b9bdc1480, 2023-11-25, custom)"
   xmlns:inkscape="http://www.inkscape.org/namespaces/inkscape"
   xmlns:sodipodi="http://sodipodi.sourceforge.net/DTD/sodipodi-0.dtd"
   xmlns="http://www.w3.org/2000/svg"
   xmlns:svg="http://www.w3.org/2000/svg"><defs
   id="defs3">
	
	
	
</defs><sodipodi:namedview
   id="namedview3"
   pagecolor="#ffffff"
   bordercolor="#000000"
   borderopacity="0.25"
   inkscape:showpageshadow="2"
   inkscape:pageopacity="0.0"
   inkscape:pagecheckerboard="0"
   inkscape:deskcolor="#d1d1d1"
   showgrid="false"
   inkscape:zoom="1.3525"
   inkscape:cx="399.63031"
   inkscape:cy="400"
   inkscape:window-width="2560"
   inkscape:window-height="1324"
   inkscape:window-x="0"
   inkscape:window-y="0"
   inkscape:window-maximized="1"
   inkscape:current-layer="_x32_" />
<style
   type="text/css"
   id="style1">
	.st0{fill:#000000;}
</style>
<path
   class="st0"
   d="m 208.853,100.63 c 27.796,0 50.324,-22.528 50.324,-50.306 C 259.177,22.519 236.649,0 208.853,0 c -27.787,0 -50.315,22.519 -50.315,50.324 0,27.778 22.528,50.306 50.315,50.306 z"
   id="path1"
   style="fill:#d4aa00" /><path
   class="st0"
   d="m 465.652,293.514 c -0.915,-6.094 -6.6,-10.287 -12.712,-9.381 l -25.77,3.873 -2.212,-14.657 c -0.914,-5.961 -6.458,-10.047 -12.409,-9.167 l -3.314,0.498 c -0.222,-1.76 -0.604,-3.51 -1.341,-5.215 l -23.923,-55.299 c -5.864,-13.112 -21.996,-29.981 -34.521,-37.007 0,0 -73.794,-45.27 -79.826,-47.473 -3.491,-1.261 -7.214,-1.829 -10.998,-1.945 L 221.733,191.517 176.989,131.5 c -2.798,1.829 -5.232,3.766 -6.921,5.827 l -66.304,78.92 -54.579,20.121 c -10.34,3.81 -15.893,15.039 -12.624,25.566 l 0.258,0.809 c 3.206,10.349 16.905,15.457 27.458,13.022 l 41.45,-9.256 c 11.095,-2.558 21.631,-7.133 31.065,-13.494 l 35.284,-30.247 8.822,74.353 c 0.8,6.094 1.048,7.524 -2.008,12.862 l -25.496,41.122 c -9.833,15.874 -17.002,33.259 -21.222,51.461 l -18.824,81.078 c -2.283,13.032 6.405,25.459 19.428,27.814 l 0.906,0.16 c 12.33,2.211 24.296,-5.383 27.512,-17.483 l 29.457,-87.119 45.048,-63.613 37.417,62.61 c 2.327,4.628 5.392,8.83 9.097,12.445 l 69.591,68.038 c 8.777,8.582 22.67,8.964 31.9,0.88 l 1.111,-0.968 c 4.726,-4.14 7.595,-10.002 7.977,-16.274 0.373,-6.271 -1.777,-12.437 -5.978,-17.092 l -58.764,-65.452 -31.918,-93.56 -6.342,-96.206 42.214,17.979 38.269,57.103 c -2.318,2.354 -3.678,5.596 -3.154,9.123 l 2.212,14.684 -25.78,3.872 c -6.112,0.907 -10.305,6.6 -9.38,12.712 l 10.58,70.436 c 0.924,6.094 6.609,10.304 12.712,9.38 l 109.399,-16.434 c 6.112,-0.933 10.304,-6.627 9.389,-12.722 z M 218.98,224.917 c 0,-3.962 3.206,-7.169 7.16,-7.169 3.962,0 7.169,3.206 7.169,7.169 0,3.962 -3.207,7.169 -7.169,7.169 -3.954,0 -7.16,-3.207 -7.16,-7.169 z m 10.314,49.782 c -3.953,0 -7.169,-3.216 -7.169,-7.177 0,-3.953 3.216,-7.16 7.169,-7.16 3.962,0 7.169,3.206 7.169,7.16 0,3.961 -3.208,7.177 -7.169,7.177 z m 148.494,7.675 c 5.508,4.353 13.112,5.508 19.801,2.47 l 0.586,-0.25 c 4.202,-1.901 7.32,-5.169 9.23,-9.007 l 6.707,-1.012 0.461,0.338 2.203,14.657 -37.061,5.579 z"
   id="path2"
   style="fill:#999999" /><path
   class="st0"
   d="m 204.74,151.949 14.471,19.41 10.171,-20.343 -4.032,-31.972 c -8.972,0.818 -17.074,2.185 -24.26,3.971 z"
   id="path3"
   style="fill:#0000ff" />
</svg>
