<?xml version="1.0" encoding="UTF-8" standalone="no"?>
<!-- Uploaded to: SVG Repo, www.svgrepo.com, Generator: SVG Repo Mixer Tools -->

<svg
   version="1.1"
   id="Layer_1"
   viewBox="0 0 512 512"
   xml:space="preserve"
   sodipodi:docname="image.svg"
   inkscape:version="1.4.4 (dcaf3e7d9e, 2026-05-05)"
   xmlns:inkscape="http://www.inkscape.org/namespaces/inkscape"
   xmlns:sodipodi="http://sodipodi.sourceforge.net/DTD/sodipodi-0.dtd"
   xmlns="http://www.w3.org/2000/svg"
   xmlns:svg="http://www.w3.org/2000/svg"><defs
   id="defs28" /><sodipodi:namedview
   id="namedview28"
   pagecolor="#ffffff"
   bordercolor="#000000"
   borderopacity="0.25"
   inkscape:showpageshadow="2"
   inkscape:pageopacity="0.0"
   inkscape:pagecheckerboard="0"
   inkscape:deskcolor="#d1d1d1"
   inkscape:zoom="1.5332031"
   inkscape:cx="255.67389"
   inkscape:cy="256"
   inkscape:window-width="1920"
   inkscape:window-height="971"
   inkscape:window-x="0"
   inkscape:window-y="0"
   inkscape:window-maximized="1"
   inkscape:current-layer="Layer_1" />
<g
   id="g3">
	<circle
   style="fill:#D4E4AC;"
   cx="220.244"
   cy="399.886"
   r="23.981"
   id="circle1" />
	<circle
   style="fill:#D4E4AC;"
   cx="476.033"
   cy="287.971"
   r="23.981"
   id="circle2" />
	<circle
   style="fill:#ff0000"
   cx="348.138"
   cy="59.947"
   r="23.981"
   id="circle3" />
</g>
<g
   id="g6">
	<circle
   style="fill:#F2BF7E;"
   cx="476.033"
   cy="404.091"
   r="23.981"
   id="circle4" />
	<circle
   style="fill:#F2BF7E;"
   cx="220.244"
   cy="287.971"
   r="23.981"
   id="circle5" />
	<circle
   style="fill:#F2BF7E;"
   cx="476.033"
   cy="176.067"
   r="23.981"
   id="circle6" />
</g>
<g
   id="g9">
	<circle
   style="fill:#E2804F;"
   cx="348.138"
   cy="404.091"
   r="23.981"
   id="circle7" />
	<circle
   style="fill:#E2804F;"
   cx="348.138"
   cy="287.971"
   r="23.981"
   id="circle8" />
	<circle
   style="fill:#E2804F;"
   cx="348.138"
   cy="171.862"
   r="23.981"
   id="circle9" />
</g>
<g
   id="g10"
   style="fill:#ff5555">
	<path
   style="fill:#ff5555"
   d="M172.792,170.182c0-0.006,0-0.013,0-0.019c0-0.003-0.001-0.006-0.002-0.009L172.792,170.182z"
   id="path9" />
	<path
   style="fill:#ff5555"
   d="M172.792,170.163c2.968,19.811,19.488,38.002,39.457,38.002h63.947l-15.987-56.246l15.987-56.246   H172.313v-35.72c0.001-13.245-10.769-20.001-24.012-20.001H44.051v111.441h104.249c11.755,0,21.931,4.374,24.071,14.617   c0.071,1.386,0.212,2.769,0.418,4.144"
   id="path10" />
</g>
<path
   d="M286.157,88.246h-98.382v15.77h77.475l-13.735,48.07l13.735,48.069h-53.495c-17.69,0-32.083-14.392-32.083-32.083V59.95  c0.001-16.619-12.313-27.359-31.372-27.359H36.692v127.212h111.609c5.828,0,15.603,1.051,15.603,11.565l0,0  c1.7,24.854,22.575,44.557,47.853,44.557h74.402l-18.24-63.839L286.157,88.246z M148.301,144.033H52.462V48.361h95.839  c12.897,0,15.603,6.302,15.603,11.589v87.189C159.436,145.127,154.169,144.033,148.301,144.033z"
   id="path11" />
<rect
   x="36.692"
   width="15.77"
   height="24.181"
   id="rect11" />
<rect
   x="36.692"
   y="168.214"
   width="15.77"
   height="335.376"
   id="rect12" />
<rect
   x="340.527"
   y="108.287"
   width="15.77"
   height="16.821"
   id="rect13" />
<rect
   x="467.738"
   y="223.934"
   width="15.77"
   height="15.77"
   id="rect14" />
<rect
   x="212.264"
   y="335.376"
   width="15.77"
   height="16.821"
   id="rect15" />
<polygon
   points="483.509,512 92.413,512 92.413,496.23 467.739,496.23 467.739,458.382 483.509,458.382 "
   id="polygon15" />
<rect
   x="396.248"
   y="168.214"
   width="31.54"
   height="15.77"
   id="rect16" />
<path
   d="M356.298,141.059v-8.59h-15.77v8.452c-13.907,3.422-24.255,15.992-24.255,30.94c0,17.571,14.295,31.866,31.866,31.866  c13.279,0,24.683-8.168,29.463-19.741h10.237v-15.77h-8.049C378.285,155.093,368.788,144.37,356.298,141.059z M348.137,187.954  c-8.875,0-16.096-7.221-16.096-16.096c0-8.875,7.221-16.095,16.096-16.095c8.875,0,16.096,7.22,16.096,16.095  C364.233,180.734,357.013,187.954,348.137,187.954z"
   id="path16" />
<path
   d="M507.898,176.065c0-17.57-14.295-31.865-31.865-31.865c-14.862,0-27.378,10.228-30.884,24.014h-8.95v15.77h8.966  c2.847,11.094,11.534,19.868,22.574,22.848v8.692h15.77v-8.487C497.484,203.662,507.898,191.06,507.898,176.065z M476.033,192.16  c-8.875,0-16.096-7.221-16.096-16.096s7.221-16.095,16.096-16.095c8.874,0,16.095,7.22,16.095,16.095S484.908,192.16,476.033,192.16  z"
   id="path17" />
<path
   d="M340.528,90.891v10.037h15.77V90.752c13.629-3.614,23.706-16.052,23.706-30.802c0-17.571-14.295-31.866-31.866-31.866  c-17.571,0-31.866,14.295-31.866,31.866C316.272,74.899,326.621,87.469,340.528,90.891z M348.137,43.855  c8.875,0,16.096,7.221,16.096,16.096s-7.221,16.096-16.096,16.096c-8.875,0-16.096-7.221-16.096-16.096  S339.262,43.855,348.137,43.855z"
   id="path18" />
<path
   d="M228.035,368.985v-9.428h-15.77v9.473c-13.723,3.55-23.888,16.037-23.888,30.855c0,17.571,14.295,31.866,31.866,31.866  c13.235,0,24.609-8.113,29.417-19.625h10.968v-15.77h-8.719C250.434,383.051,240.743,372.192,228.035,368.985z M220.242,415.978  c-8.875,0-16.096-7.221-16.096-16.096c0-8.875,7.221-16.096,16.096-16.096c8.875,0,16.096,7.221,16.096,16.096  C236.337,408.758,229.117,415.978,220.242,415.978z"
   id="path19" />
<path
   d="M348.137,372.223c-14.904,0-27.445,10.286-30.911,24.13h-9.29v15.77h9.363c3.57,13.694,16.041,23.831,30.838,23.831  c14.414,0,26.617-9.623,30.538-22.779h9.161v-15.77h-8.545C376.211,383.033,363.415,372.223,348.137,372.223z M348.137,420.184  c-8.875,0-16.096-7.221-16.096-16.096s7.221-16.096,16.096-16.096c8.875,0,16.096,7.221,16.096,16.096  S357.013,420.184,348.137,420.184z"
   id="path20" />
<path
   d="M507.898,404.088c0-17.571-14.295-31.866-31.865-31.866c-15.278,0-28.074,10.81-31.154,25.182h-8.68v15.77h9.296  c3.141,10.538,11.595,18.803,22.244,21.677v14.069h15.77v-13.861C497.484,431.685,507.898,419.084,507.898,404.088z   M476.033,420.184c-8.875,0-16.096-7.221-16.096-16.096s7.221-16.096,16.096-16.096c8.874,0,16.095,7.221,16.095,16.096  S484.908,420.184,476.033,420.184z"
   id="path21" />
<path
   d="M220.242,256.109c-17.571,0-31.866,14.295-31.866,31.866c0,14.818,10.165,27.304,23.888,30.855v9.187h15.77v-9.145  c11.433-2.885,20.422-11.965,23.184-23.447h9.407v-15.77h-9.628C247.33,266.107,234.935,256.109,220.242,256.109z M220.242,304.07  c-8.875,0-16.096-7.221-16.096-16.096c0-8.875,7.221-16.096,16.096-16.096c8.875,0,16.096,7.221,16.096,16.096  C236.337,296.85,229.117,304.07,220.242,304.07z"
   id="path22" />
<path
   d="M348.137,256.109c-14.692,0-27.088,9.998-30.757,23.546h-9.444v15.77h9.224c3.364,13.987,15.972,24.415,30.978,24.415  s27.612-10.427,30.978-24.415h8.723v-15.77h-8.944C375.226,266.107,362.831,256.109,348.137,256.109z M348.137,304.07  c-8.875,0-16.096-7.221-16.096-16.096c0-8.875,7.221-16.096,16.096-16.096c8.875,0,16.096,7.221,16.096,16.096  C364.233,296.85,357.013,304.07,348.137,304.07z"
   id="path23" />
<path
   d="M483.509,257.003v-8.888h-15.77v9.095c-10.907,2.944-19.511,11.543-22.463,22.445h-9.077v15.77h8.857  c3.364,13.987,15.972,24.415,30.978,24.415c17.57,0,31.865-14.295,31.865-31.866C507.898,272.978,497.484,260.377,483.509,257.003z   M476.033,304.07c-8.875,0-16.096-7.221-16.096-16.096c0-8.875,7.221-16.096,16.096-16.096c8.874,0,16.095,7.221,16.095,16.096  C492.128,296.85,484.908,304.07,476.033,304.07z"
   id="path24" />
<rect
   x="267.985"
   y="279.655"
   width="32.591"
   height="15.77"
   id="rect24" />
<rect
   x="267.985"
   y="396.353"
   width="32.591"
   height="15.77"
   id="rect25" />
<rect
   x="396.248"
   y="279.655"
   width="31.54"
   height="15.77"
   id="rect26" />
<rect
   x="396.248"
   y="397.405"
   width="31.54"
   height="15.77"
   id="rect27" />
<rect
   x="4.101"
   y="496.23"
   style="fill:#D4E4AC;"
   width="79.901"
   height="15.77"
   id="rect28" />
</svg>
