<?xml version="1.0" encoding="UTF-8" standalone="no"?>
<!-- Uploaded to: SVG Repo, www.svgrepo.com, Generator: SVG Repo Mixer Tools -->

<svg
   fill="#000000"
   width="800px"
   height="800px"
   viewBox="0 0 32 32"
   version="1.1"
   id="svg1"
   xmlns="http://www.w3.org/2000/svg"
   xmlns:svg="http://www.w3.org/2000/svg"
   xmlns:rdf="http://www.w3.org/1999/02/22-rdf-syntax-ns#"
   xmlns:cc="http://creativecommons.org/ns#"
   xmlns:dc="http://purl.org/dc/elements/1.1/">
  <defs
     id="defs1" />
  <title
     id="title1">etc</title>
  <path
     d="m 8.7487847,16 c 0,-1.870248 -1.5893427,-3.428787 -3.4965537,-3.428787 -1.9466265,0 -3.4965533,1.55854 -3.4965533,3.428788 0,1.870248 1.5499268,3.428787 3.4965533,3.428787 1.907211,0 3.4965537,-1.558539 3.4965537,-3.428788 z m 10.7286963,0 c 0,-1.870248 -1.589342,-3.428787 -3.496552,-3.428787 -1.907212,0 -3.496554,1.55854 -3.496554,3.428788 0,1.870248 1.589342,3.428787 3.496554,3.428787 1.90721,0 3.496552,-1.558539 3.496552,-3.428788 z m 10.766841,0 c 0,-1.870248 -1.549926,-3.428787 -3.496553,-3.428787 -1.907212,0 -3.496553,1.55854 -3.496553,3.428788 0,1.870248 1.589341,3.428787 3.496553,3.428787 1.946627,0 3.496553,-1.558539 3.496553,-3.428788 z"
     id="path1"
     style="stroke-width:1.25909;fill:#0066ff" />
  <metadata
     id="metadata1">
    <rdf:RDF>
      <cc:Work
         rdf:about="">
        <dc:title>etc</dc:title>
      </cc:Work>
    </rdf:RDF>
  </metadata>
</svg>
