<?xml version="1.0" encoding="UTF-8" standalone="no"?>
<!-- Uploaded to: SVG Repo, www.svgrepo.com, Generator: SVG Repo Mixer Tools -->

<svg
   height="800px"
   width="800px"
   version="1.1"
   id="Capa_1"
   viewBox="0 0 297 297"
   xml:space="preserve"
   xmlns="http://www.w3.org/2000/svg"
   xmlns:svg="http://www.w3.org/2000/svg"><defs
   id="defs13">
	
	
	
	
	
	
	
	
	
	
</defs>
<g
   id="g1"
   style="fill:#00aad4">
		<path
   style="fill:#00aad4"
   d="M 215.134,55.071 C 208.997,23.79 181.364,0 148.313,0 114.634,0 86.967,24.758 81.172,56.856 76.588,82.245 61.616,158.185 61.616,158.185 c -0.857,4.406 2.021,8.673 6.428,9.529 0.524,0.102 1.045,0.152 1.56,0.152 3.812,0 7.215,-2.697 7.97,-6.579 l 11.584,-59.593 c 11.729,20.557 33.843,34.455 59.157,34.455 25.514,0 47.783,-14.117 59.437,-34.942 l 11.678,60.08 c 0.754,3.884 4.156,6.579 7.97,6.579 0.514,0 1.036,-0.05 1.56,-0.152 4.406,-0.856 7.285,-5.123 6.428,-9.529 -0.003,0 -15.196,-77.334 -20.254,-103.114 z m -66.821,64.821 c -28.572,0 -51.818,-23.246 -51.818,-51.818 0,-28.572 23.246,-51.818 51.818,-51.818 28.572,0 51.818,23.246 51.818,51.818 0,28.572 -23.246,51.818 -51.818,51.818 z"
   id="path1" />
	</g><g
   id="g2"
   style="fill:#008066">
		<path
   style="fill:#008066"
   d="M 93.362,170.678 C 95.352,160.442 88.667,150.53 78.43,148.541 L 66.129,146.15 c -10.236,-1.99 -20.148,4.695 -22.137,14.932 l -1.535,7.896 49.37,9.597 z"
   id="path2" />
	</g><g
   id="g3"
   style="fill:#00aa88">
		<path
   style="fill:#00aa88"
   d="m 42.458,168.977 -20.05,103.144 c -1.99,10.236 4.695,20.148 14.932,22.137 l 12.301,2.391 c 10.236,1.99 20.148,-4.695 22.137,-14.932 L 91.827,178.573 Z"
   id="path3" />
	</g><g
   style="opacity:0.63;fill:#00aa88"
   id="g4">
		<path
   style="fill:#00aa88"
   d="m 52.375,163.113 c 1.99,-10.237 11.901,-16.922 22.137,-14.932 l 7.623,1.482 c -1.172,-0.49 -2.409,-0.871 -3.705,-1.123 l -12.3,-2.391 c -10.236,-1.99 -20.148,4.695 -22.137,14.932 l -1.535,7.896 8.458,1.644 z"
   id="path4" />
	</g><g
   style="opacity:0.63"
   id="g5">
		<path
   style="fill:#e04332"
   d="M 30.908,273.549 50.915,170.621 42.457,168.977 22.408,272.121 c -1.99,10.236 4.695,20.148 14.932,22.137 l 5.208,1.012 C 34.172,291.791 29.11,282.799 30.908,273.549 Z"
   id="path5" />
	</g><g
   id="g6"
   style="fill:#005544">
		<path
   style="fill:#005544"
   d="m 203.638,170.678 c -1.99,-10.236 4.695,-20.148 14.932,-22.137 l 12.301,-2.391 c 10.236,-1.99 20.148,4.695 22.137,14.932 l 1.535,7.896 -49.37,9.597 z"
   id="path6" />
	</g><g
   id="g7"
   style="fill:#00aa88">
		<path
   style="fill:#00aa88"
   d="m 254.542,168.977 20.049,103.144 c 1.99,10.236 -4.695,20.148 -14.932,22.137 l -12.301,2.391 c -10.236,1.99 -20.148,-4.695 -22.137,-14.932 L 205.172,178.573 Z"
   id="path7" />
	</g><g
   style="opacity:0.63;fill:#008066"
   id="g8">
		<path
   style="fill:#008066"
   d="m 220.67,148.786 c 10.237,-1.99 20.148,4.695 22.138,14.932 l 1.412,7.265 10.322,-2.007 -1.535,-7.896 c -1.99,-10.237 -11.901,-16.922 -22.137,-14.932 l -12.3,2.391 c -1.635,0.318 -3.167,0.857 -4.6,1.548 z"
   id="path8" />
	</g><g
   style="opacity:0.63"
   id="g9">
		<path
   style="fill:#e04332"
   d="m 274.592,272.121 -20.049,-103.145 -10.322,2.007 20.102,103.419 c 1.707,8.783 -2.752,17.289 -10.308,20.954 l 5.645,-1.097 c 10.236,-1.99 16.921,-11.901 14.932,-22.138 z"
   id="path9" />
	</g><g
   style="opacity:0.26"
   id="g12">
		<g
   id="g10">
			<path
   style="fill:#345065"
   d="m 145.582,16.329 c -0.904,-0.047 -1.815,-0.073 -2.731,-0.073 -28.572,0 -51.818,23.246 -51.818,51.818 0,28.572 23.246,51.818 51.818,51.818 0.916,0 1.826,-0.026 2.731,-0.073 -27.308,-1.425 -49.087,-24.089 -49.087,-51.745 0,-27.656 21.779,-50.32 49.087,-51.745 z"
   id="path10" />
		</g>
		<g
   id="g11">
			<path
   style="fill:#345065"
   d="m 148.313,0 c -0.916,0 -1.823,0.033 -2.731,0.069 36.274,1.44 65.344,31.384 65.344,68.005 0,36.621 -29.07,66.565 -65.344,68.005 0.907,0.036 1.815,0.069 2.731,0.069 37.537,0 68.074,-30.538 68.074,-68.074 C 216.387,30.538 185.849,0 148.313,0 Z"
   id="path11" />
		</g>
	</g>
</svg>
