<?xml version="1.0" encoding="UTF-8" standalone="no"?>
<!-- Uploaded to: SVG Repo, www.svgrepo.com, Generator: SVG Repo Mixer Tools -->

<svg
   fill="#000000"
   version="1.1"
   id="Capa_1"
   width="800px"
   height="800px"
   viewBox="0 0 438.082 438.083"
   xml:space="preserve"
   xmlns="http://www.w3.org/2000/svg"
   xmlns:svg="http://www.w3.org/2000/svg"><defs
   id="defs1">
	
</defs>
<path
   d="m 342.54747,280.95336 12.91837,-37.84913 H 182.87377 c -1.44324,0 -2.61846,-1.3601 -2.61846,-3.03407 v -30.33461 c 0,-1.67275 1.17522,-3.02918 2.61846,-3.02918 h 172.59154 l -12.91837,-37.8528 c -0.43086,-1.27139 -0.0793,-2.71592 0.86436,-3.537 0.93732,-0.82291 2.2373,-0.81924 3.17144,0.0177 l 64.24927,57.1671 c 0.6455,0.57329 1.02032,1.46656 1.02032,2.40328 0,0.94405 -0.37482,1.82998 -1.02032,2.40327 l -64.24874,57.16832 c -0.46998,0.41972 -1.03406,0.62896 -1.59655,0.62896 -0.55616,0 -1.11072,-0.20251 -1.57489,-0.61489 -0.94683,-0.8174 -1.29575,-2.26806 -0.86436,-3.53699 z m -22.27356,53.09229 v -79.83178 h -55.99634 v 79.83117 c 0,4.09071 2.86588,7.40622 6.39945,7.40622 h 43.19692 c 3.53304,6.2e-4 6.39997,-3.31551 6.39997,-7.40561 z m -6.39944,-225.6955 h -43.19692 c -3.5341,0 -6.39945,3.31797 -6.39945,7.40623 v 79.83729 h 55.99581 v -79.83729 c 0,-4.08826 -2.86693,-7.40623 -6.39944,-7.40623 z"
   id="path1"
   style="stroke-width:0.568728;fill:#0000ff" />
<circle
   cx="147.55721"
   cy="71.259407"
   r="45.633644"
   stroke="#1c274c"
   stroke-width="27.3802"
   id="circle1"
   style="fill:#ff6600" /><path
   d="m 47.163179,390.69493 9.294113,-7.43464 c 23.471939,-18.77733 39.571307,-45.23024 45.466258,-74.70593"
   stroke="#1c274c"
   stroke-width="27.3802"
   stroke-linecap="round"
   id="path1-6"
   style="fill:#ff6600" /><path
   d="m 123.06471,234.03827 13.62255,1.36171 z m 14.84188,51.86355 10.84073,-8.36191 z m 70.00749,113.15502 c 4.61812,5.98713 13.2155,7.09511 19.20081,2.47699 5.98714,-4.61813 7.09512,-13.2155 2.477,-19.20081 z m -88.28832,-227.10953 -0.74109,-13.6702 z m 38.64987,2.10645 -1.94765,13.55137 v 0 z m 75.01623,57.84521 -2.25065,-13.50391 z m 35.16346,8.01874 c 7.45837,-1.24306 12.49632,-8.29619 11.25326,-15.75456 -1.24306,-7.45836 -8.2962,-12.49631 -15.75456,-11.25325 z m -64.01487,-25.39056 12.98733,-4.32789 v 0 z M 33.473086,253.79399 c 0,7.56058 6.129329,13.69009 13.690093,13.69009 7.560765,0 13.690093,-6.12951 13.690093,-13.69009 z m 82.208094,-83.50282 -6.2372,62.3854 27.24328,2.72341 6.23903,-62.38484 z m 11.38651,123.97439 80.84639,104.79128 21.67781,-16.72382 -80.84457,-104.79311 z m 2.23605,-136.30222 c -3.25459,0 -6.77203,0.11609 -10.41907,0.31377 l 1.48218,27.34022 c 3.30022,-0.17889 6.30474,-0.27381 8.93689,-0.27381 z m 0,27.38018 c 8.29254,0 17.81537,0.93823 27.02424,2.26161 l 3.89346,-27.10237 c -9.85504,-1.41556 -20.80346,-2.53942 -30.9177,-2.53942 z m 106.23877,60.05936 32.91281,-5.48517 -4.5013,-27.00781 -32.91281,5.48516 z m -79.21453,-57.79775 c 16.0886,2.31088 29.51584,14.4257 35.12513,31.25174 l 25.97467,-8.65761 c -8.40389,-25.21168 -29.4337,-45.70739 -57.20634,-49.6965 z m -37.44331,-29.32802 c -50.478117,2.73565 -85.411584,47.31497 -85.411584,95.51688 h 27.380186 c 0,-36.06336 25.848175,-66.35314 59.513578,-68.17666 z m 72.56844,60.57976 c 6.16237,18.49076 24.86304,29.75131 44.0894,26.54601 l -4.5013,-27.00782 c -5.93602,0.98934 -11.70959,-2.48612 -13.61343,-8.1958 z m -82.00913,13.8197 c -1.32155,13.2009 -2.56826,23.41918 0.24277,33.24684 l 26.32331,-7.5332 c -1.03497,-3.61601 -0.85609,-7.6628 0.6772,-22.99023 z m 39.30334,44.86334 c -9.40966,-12.19513 -11.70229,-15.53551 -12.73726,-19.1497 l -26.32331,7.5332 c 2.81286,9.82584 9.27641,17.83728 17.38094,28.34215 z"
   fill="#1c274c"
   id="path2"
   style="stroke-width:18.2535;fill:#ff6600" /></svg>
