<?xml version="1.0" encoding="iso-8859-1"?>
<!-- Uploaded to: SVG Repo, www.svgrepo.com, Generator: SVG Repo Mixer Tools -->
<svg height="800px" width="800px" version="1.1" id="Capa_1" xmlns="http://www.w3.org/2000/svg" xmlns:xlink="http://www.w3.org/1999/xlink" 
	 viewBox="0 0 465 465" xml:space="preserve">
<g>
	<path style="fill:#FF9926;" d="M258.655,217.232c-1.144-3.087-0.141-6.558,2.473-8.56c11.748-8.997,22.578-20.953,31.319-34.576
		c13.575-21.153,21.052-44.866,21.052-66.769c0-23.681-7.794-46.171-21.945-63.328c-15.201-18.43-36.726-29-59.054-29
		c-22.328,0-43.852,10.57-59.054,29C159.294,61.156,151.5,83.646,151.5,107.328c0,21.904,7.476,45.616,21.051,66.77
		c8.742,13.623,19.572,25.579,31.319,34.576c2.613,2.001,3.616,5.472,2.473,8.559c-1.144,3.087-4.172,5.063-7.452,4.883
		l-81.028-4.526v22.833l92.85-5.188c2.2-0.125,4.33,0.723,5.846,2.312s2.259,3.763,2.033,5.948l-20.73,200.359
		c6.562,2.387,19.325,6.146,34.638,6.146c15.309,0,28.07-3.757,34.638-6.146l-20.73-200.358c-0.227-2.185,0.517-4.359,2.032-5.948
		c1.517-1.59,3.657-2.436,5.846-2.312l92.851,5.188v-22.833l-81.029,4.526C262.823,222.303,259.798,220.318,258.655,217.232z
		 M235.85,211.843c-1.055,0.526-2.202,0.79-3.35,0.79s-2.295-0.263-3.349-0.79c-27.653-13.802-57.5-53.503-57.5-93.577
		c0-39.799,27.297-72.178,60.85-72.178c28.468,0,52.839,22.919,59.268,55.735c0.796,4.065-1.854,8.006-5.919,8.802
		c-0.126,0.025-0.251,0.036-0.376,0.054c0.24,2.49,0.377,5.018,0.377,7.586c0,1.998-0.096,4.004-0.258,6.011
		c0.116,0.015,0.232,0.022,0.349,0.043c4.08,0.712,6.812,4.597,6.1,8.677C286.414,165.242,262.782,198.401,235.85,211.843z"/>
	<path d="M359.789,204.209c-1.498-1.417-3.512-2.158-5.571-2.039l-67.758,3.785c6.814-7.158,13.099-15.166,18.611-23.757
		c15.107-23.541,23.428-50.13,23.428-74.871c0-27.155-9.011-53.035-25.373-72.873C285.064,12.559,259.322,0,232.5,0
		c-26.822,0-52.564,12.558-70.625,34.455C145.512,54.292,136.5,80.172,136.5,107.328c0,24.741,8.32,51.33,23.427,74.871
		c5.513,8.591,11.798,16.599,18.611,23.756l-67.756-3.785c-2.066-0.121-4.075,0.623-5.572,2.039
		c-1.498,1.417-2.347,3.388-2.347,5.449v38.695c0,2.062,0.849,4.033,2.347,5.449c1.499,1.417,3.515,2.155,5.572,2.039l91.984-5.139
		l-20.404,197.202c-0.325,3.136,1.347,6.141,4.183,7.519c0.805,0.391,20.017,9.577,45.954,9.577s45.148-9.187,45.953-9.577
		c2.837-1.378,4.509-4.382,4.184-7.519l-20.404-197.202l91.985,5.139c2.061,0.114,4.073-0.623,5.571-2.039
		c1.498-1.417,2.347-3.388,2.347-5.449v-38.695C362.136,207.597,361.287,205.625,359.789,204.209z M347.136,240.422l-92.851-5.188
		c-2.188-0.124-4.329,0.722-5.846,2.312c-1.516,1.589-2.259,3.763-2.032,5.948l20.73,200.358C260.57,446.243,247.809,450,232.5,450
		c-15.313,0-28.076-3.759-34.638-6.146l20.73-200.359c0.226-2.185-0.517-4.359-2.033-5.948s-3.646-2.437-5.846-2.312l-92.85,5.188
		v-22.833l81.028,4.526c3.28,0.18,6.308-1.796,7.452-4.883c1.143-3.087,0.14-6.558-2.473-8.559
		c-11.747-8.997-22.577-20.953-31.319-34.576c-13.575-21.153-21.051-44.866-21.051-66.77c0-23.681,7.793-46.171,21.945-63.328
		c15.202-18.43,36.727-29,59.054-29c22.328,0,43.853,10.57,59.054,29c14.151,17.157,21.945,39.647,21.945,63.328
		c0,21.903-7.477,45.616-21.052,66.769c-8.741,13.623-19.571,25.579-31.319,34.576c-2.613,2.001-3.616,5.473-2.473,8.56
		c1.143,3.086,4.168,5.071,7.451,4.883l81.029-4.526V240.422z"/>
	<path d="M292.04,132.998c0.712-4.081-2.02-7.965-6.1-8.677c-0.117-0.021-0.232-0.028-0.349-0.043
		c-3.956-0.505-7.637,2.178-8.329,6.142c-4.555,26.106-23.462,53.806-44.755,66.189c-22.742-13.318-45.857-46.638-45.857-78.342
		c0-31.528,20.568-57.178,45.85-57.178c21.198,0,39.517,17.937,44.547,43.619c0.772,3.939,4.497,6.54,8.425,5.973
		c0.125-0.018,0.25-0.03,0.376-0.054c4.065-0.796,6.715-4.737,5.919-8.802c-6.429-32.816-30.8-55.735-59.268-55.735
		c-33.553,0-60.85,32.379-60.85,72.178c0,40.074,29.847,79.775,57.5,93.577c1.054,0.526,2.202,0.79,3.349,0.79
		s2.295-0.263,3.35-0.79C262.782,198.401,286.414,165.242,292.04,132.998z"/>
</g>
</svg>