<?xml version="1.0" encoding="utf-8"?><!-- Uploaded to: SVG Repo, www.svgrepo.com, Generator: SVG Repo Mixer Tools -->
<svg fill="#000000" width="800px" height="800px" viewBox="0 0 24 24" id="down-direction-circle" data-name="Flat Line" xmlns="http://www.w3.org/2000/svg" class="icon flat-line"><path id="secondary" d="M12,3a9,9,0,1,0,9,9A9,9,0,0,0,12,3Zm.82,13.61a1,1,0,0,1-1.64,0L8,12h2V7h4v5h2Z" style="fill: rgb(44, 169, 188); stroke-width: 2;"></path><path id="primary" d="M10,12V7h4v5h2l-3.18,4.61a1,1,0,0,1-1.64,0L8,12Zm2,9a9,9,0,1,0-9-9A9,9,0,0,0,12,21Z" style="fill: none; stroke: rgb(0, 0, 0); stroke-linecap: round; stroke-linejoin: round; stroke-width: 2;"></path></svg>