<?xml version="1.0" encoding="UTF-8" standalone="no"?>
<!-- Uploaded to: SVG Repo, www.svgrepo.com, Generator: SVG Repo Mixer Tools -->

<svg
   fill="#000000"
   height="800px"
   width="800px"
   version="1.1"
   id="Layer_1"
   viewBox="0 0 512 512"
   xml:space="preserve"
   xmlns="http://www.w3.org/2000/svg"
   xmlns:svg="http://www.w3.org/2000/svg"><defs
   id="defs4">
	
</defs>

<g
   id="g6"><path
     style="fill:#ffd5d5;stroke:none;stroke-width:29.8669"
     d="m 15.001274,155.8828 3.261146,322.85351 476.12739,1.30445 1.95669,-326.11465 z"
     id="path6" /><path
     style="fill:#ff0000;stroke:none;stroke-width:29.8669"
     d="m 306.54777,127.83694 47.61274,89.35542 61.96178,-73.04968 2.60892,-78.267518 -55.43949,-30.002551 -54.78726,26.741402 z"
     id="path5" /><path
     style="fill:#66ff00;stroke:none;stroke-width:29.8669"
     d="M 170.88408,151.96943 102.4,226.9758 221.10573,352.20382 362.63949,219.14904 301.98216,146.09936 Z"
     id="path4" /><g
     id="g2">
	<g
   id="g1">
		<path
   d="M360.439,57.731c-22.739,0-41.239,18.5-41.239,41.239s18.5,41.239,41.239,41.239s41.239-18.5,41.239-41.239    S383.178,57.731,360.439,57.731z M360.439,109.792c-5.967,0-10.821-4.855-10.821-10.821s4.855-10.821,10.821-10.821    s10.821,4.855,10.821,10.821C371.26,104.937,366.406,109.792,360.439,109.792z"
   id="path1" />
	</g>
</g><g
     id="g3">
		<path
   d="m 436.999,131.423 c 3.01,-10.952 4.55,-21.82 4.55,-32.453 0,-44.724 -36.386,-81.111 -81.111,-81.111 -44.725,0 -81.111,36.386 -81.111,81.111 0,10.633 1.54,21.501 4.55,32.453 H 0 V 494.14 H 512 V 131.423 Z m -23.901,50.217 c 0.323,-0.477 0.649,-0.954 0.967,-1.431 0.423,-0.632 0.842,-1.27 1.26,-1.911 0.213,-0.327 0.427,-0.655 0.638,-0.982 0.504,-0.781 1.004,-1.569 1.501,-2.363 0.064,-0.102 0.127,-0.204 0.19,-0.306 2.552,-4.096 5.018,-8.363 7.324,-12.806 h 56.603 v 151.212 l -97.046,-97.046 c 4.656,-4.663 10.055,-10.452 15.638,-17.197 0.156,-0.189 0.311,-0.374 0.468,-0.565 0.37,-0.45 0.741,-0.906 1.113,-1.366 0.32,-0.395 0.642,-0.795 0.963,-1.196 0.306,-0.382 0.611,-0.763 0.919,-1.152 0.6,-0.76 1.201,-1.528 1.803,-2.309 0.02,-0.025 0.039,-0.052 0.058,-0.077 0.336,-0.436 0.669,-0.884 1.005,-1.326 0.421,-0.555 0.844,-1.109 1.256,-1.665 0.252,-0.339 0.503,-0.687 0.754,-1.03 0.481,-0.654 0.961,-1.308 1.432,-1.963 0.285,-0.396 0.567,-0.801 0.851,-1.201 0.421,-0.595 0.843,-1.19 1.255,-1.785 0.351,-0.508 0.7,-1.022 1.048,-1.535 z m 68.484,174.429 v 27.963 L 348.493,250.941 362.474,236.96 Z M 360.439,48.277 c 27.952,0 50.693,22.741 50.693,50.693 0,14.642 -3.855,28.691 -9.603,41.518 -1.341,2.996 -2.79,5.921 -4.313,8.775 -0.16,0.299 -0.321,0.597 -0.483,0.894 -0.613,1.132 -1.24,2.25 -1.877,3.356 -0.159,0.277 -0.316,0.558 -0.477,0.833 -0.767,1.315 -1.546,2.613 -2.339,3.889 -0.169,0.273 -0.343,0.537 -0.513,0.808 -0.611,0.972 -1.228,1.934 -1.851,2.883 -0.317,0.484 -0.638,0.963 -0.958,1.441 -0.49,0.731 -0.982,1.452 -1.478,2.168 -0.349,0.504 -0.696,1.011 -1.046,1.507 -0.559,0.791 -1.12,1.565 -1.682,2.336 -0.623,0.854 -1.246,1.693 -1.873,2.523 -0.355,0.47 -0.71,0.943 -1.065,1.406 -0.497,0.647 -0.993,1.283 -1.489,1.913 -0.288,0.366 -0.575,0.727 -0.862,1.087 -0.534,0.67 -1.07,1.339 -1.602,1.99 -0.046,0.056 -0.091,0.109 -0.137,0.165 -1.303,1.591 -2.597,3.122 -3.872,4.593 -0.07,0.08 -0.14,0.163 -0.21,0.244 -0.618,0.712 -1.232,1.406 -1.84,2.089 -0.109,0.123 -0.218,0.244 -0.328,0.366 -2.603,2.907 -5.097,5.54 -7.39,7.866 -0.029,0.029 -0.059,0.059 -0.087,0.089 -1.161,1.176 -2.27,2.275 -3.315,3.29 -8.915,-8.656 -22.454,-23.318 -33.3,-41.568 -0.134,-0.226 -0.272,-0.446 -0.405,-0.674 -0.365,-0.622 -0.721,-1.256 -1.079,-1.886 -0.444,-0.782 -0.886,-1.568 -1.319,-2.362 -0.259,-0.474 -0.516,-0.949 -0.771,-1.427 -0.659,-1.241 -1.308,-2.491 -1.937,-3.76 -0.042,-0.084 -0.085,-0.167 -0.128,-0.252 -0.741,-1.505 -1.458,-3.031 -2.149,-4.573 -5.752,-12.831 -9.609,-26.885 -9.609,-41.531 10e-4,-27.948 22.742,-50.689 50.694,-50.689 z M 295.9,161.84 c 2.308,4.443 4.773,8.709 7.324,12.806 0.064,0.102 0.127,0.204 0.19,0.306 0.497,0.795 0.997,1.583 1.501,2.363 0.211,0.328 0.424,0.655 0.638,0.982 0.419,0.641 0.837,1.28 1.26,1.911 0.318,0.478 0.644,0.954 0.967,1.431 0.349,0.513 0.698,1.028 1.048,1.534 0.413,0.596 0.834,1.191 1.255,1.786 0.284,0.401 0.566,0.805 0.851,1.201 0.47,0.655 0.951,1.309 1.432,1.963 0.251,0.343 0.503,0.69 0.754,1.03 0.413,0.556 0.835,1.11 1.256,1.665 0.335,0.442 0.669,0.89 1.005,1.326 0.019,0.025 0.039,0.052 0.058,0.077 0.601,0.781 1.203,1.549 1.803,2.309 0.306,0.388 0.612,0.769 0.919,1.152 0.321,0.401 0.642,0.801 0.963,1.196 0.372,0.458 0.742,0.916 1.113,1.366 0.156,0.191 0.312,0.376 0.468,0.565 6.42,7.756 12.599,14.25 17.683,19.223 L 223.251,333.167 118.413,228.328 184.901,161.84 Z m -154.014,0 -44.98,44.98 -44.981,-44.98 z M 30.417,463.724 v -91.047 c 47.038,6.702 84.344,44.008 91.046,91.047 H 30.417 Z m 121.702,-10e-4 C 145.076,399.891 94.249,349.064 30.418,342.021 v -20.386 c 75.023,7.198 134.891,67.065 142.088,142.088 z m 50.923,0 C 195.675,371.915 122.225,298.465 30.417,291.098 v -107.75 l 280.374,280.375 z m 278.541,0 H 353.807 L 244.759,354.675 326.985,272.449 481.583,427.047 Z"
   id="path2" />
	</g></g>
</svg>
