<?xml version="1.0" encoding="UTF-8" standalone="no"?>
<!-- Uploaded to: SVG Repo, www.svgrepo.com, Generator: SVG Repo Mixer Tools -->

<svg
   height="800px"
   width="800px"
   version="1.1"
   id="Layer_1"
   viewBox="0 0 512 512"
   xml:space="preserve"
   sodipodi:docname="image.svg"
   inkscape:version="1.4.4 (dcaf3e7d9e, 2026-05-05)"
   xmlns:inkscape="http://www.inkscape.org/namespaces/inkscape"
   xmlns:sodipodi="http://sodipodi.sourceforge.net/DTD/sodipodi-0.dtd"
   xmlns="http://www.w3.org/2000/svg"
   xmlns:svg="http://www.w3.org/2000/svg"><defs
   id="defs10" /><sodipodi:namedview
   id="namedview10"
   pagecolor="#ffffff"
   bordercolor="#000000"
   borderopacity="0.25"
   inkscape:showpageshadow="2"
   inkscape:pageopacity="0.0"
   inkscape:pagecheckerboard="0"
   inkscape:deskcolor="#d1d1d1"
   inkscape:zoom="0.98125"
   inkscape:cx="399.49045"
   inkscape:cy="400"
   inkscape:window-width="1920"
   inkscape:window-height="971"
   inkscape:window-x="0"
   inkscape:window-y="0"
   inkscape:window-maximized="1"
   inkscape:current-layer="Layer_1" />

<path
   d="M 260.26061,41.415246 C 139.01098,42.017255 41.633353,137.90315 42.250989,256.08516 42.868624,374.26717 141.2434,469.18116 262.49302,468.57915 383.74264,467.97713 481.12028,372.09124 480.50264,253.90923 479.885,135.72722 381.51023,40.813236 260.26061,41.415246 M 422.06909,254.19935 c 0.17115,32.74923 -9.89474,63.41342 -28.02127,89.13391 L 169.40094,126.58941 c 26.20208,-17.92906 57.55803,-28.052156 91.15732,-28.218978 89.11117,-0.44244 161.06062,69.684198 161.51083,155.828918 m -321.38455,1.59569 c -0.17115,-32.74923 9.89473,-63.41342 28.02127,-89.13392 l 224.64687,216.74387 c -26.20208,17.92905 -57.55802,28.05214 -91.15731,28.21897 -88.38076,0.43881 -161.06062,-69.6842 -161.51083,-155.82892"
   fill="#ff5a79"
   id="path1"
   style="stroke-width:7.2113" /><polygon
   style="fill:#EDDCC7;"
   points="34.712,157.071 34.712,157.071 19.959,210.007 53.803,176.163 "
   id="polygon2" />
<path
   style="fill:#D75A4A;"
   d="M173.559,56.407l-8.678-8.678c-5.207-5.207-14.753-5.207-19.959,0l-26.034,26.034l19.092,19.092  L173.559,56.407z"
   id="path3" />
<polygon
   style="fill:#F29C21;"
   points="137.112,92.854 118.02,73.763 34.712,157.071 53.803,176.163 "
   id="polygon3" />
<polygon
   style="fill:#D6C4B1;"
   points="75.498,197.858 75.498,197.858 53.803,176.163 19.959,210.007 19.092,213.478 "
   id="polygon4" />
<path
   style="fill:#A34740;"
   d="M158.807,114.549l26.034-26.034c5.207-5.207,5.207-14.753,0-19.959l-11.281-12.149l-35.58,35.58  L158.807,114.549z"
   id="path4" />
<polygon
   style="fill:#E18C25;"
   points="53.803,176.163 75.498,197.858 158.807,114.549 137.112,92.854 "
   id="polygon5" />
<path
   style="fill:#5E5E5E;"
   d="M17.356,225.627c-2.603,0-4.339-0.868-6.075-2.603c-3.471-3.471-3.471-8.678,0-12.149l19.092-19.092  c3.471-3.471,8.678-3.471,12.149,0c3.471,3.471,3.471,8.678,0,12.149l-19.092,19.092C21.695,224.759,19.959,225.627,17.356,225.627"
   id="path5" />
<path
   style="fill:#FDC794;"
   d="M295.051,512L295.051,512c-66.82,0-121.492-54.671-121.492-121.492V199.593  c0-66.82,54.671-121.492,121.492-121.492s121.492,54.671,121.492,121.492v190.915C416.542,457.329,361.871,512,295.051,512"
   id="path6" />
<path
   style="fill:#FFE9EC;"
   d="M208.271,286.373v-86.78c0-47.729,39.051-86.78,86.78-86.78s86.78,39.051,86.78,86.78v86.78H208.271z  "
   id="path7" />
<g
   id="g9">
	<path
   style="fill:#F9A671;"
   d="M381.831,373.153H208.271c-5.207,0-8.678-3.471-8.678-8.678s3.471-8.678,8.678-8.678h173.559   c5.207,0,8.678,3.471,8.678,8.678S387.037,373.153,381.831,373.153"
   id="path8" />
	<path
   style="fill:#F9A671;"
   d="M381.831,407.864H208.271c-5.207,0-8.678-3.471-8.678-8.678c0-5.207,3.471-8.678,8.678-8.678   h173.559c5.207,0,8.678,3.471,8.678,8.678C390.508,404.393,387.037,407.864,381.831,407.864"
   id="path9" />
</g>
<path
   style="fill:#FFFFFF;"
   d="M295.051,234.305c-47.729,0-86.78,23.431-86.78,52.068h173.559  C381.831,257.736,342.78,234.305,295.051,234.305"
   id="path10" />
</svg>
