<?xml version="1.0" encoding="iso-8859-1"?>
<!-- Uploaded to: SVG Repo, www.svgrepo.com, Generator: SVG Repo Mixer Tools -->
<svg height="800px" width="800px" version="1.1" id="Layer_1" xmlns="http://www.w3.org/2000/svg" xmlns:xlink="http://www.w3.org/1999/xlink" 
	 viewBox="0 0 512.001 512.001" xml:space="preserve">
<path style="fill:#F4AB53;" d="M388.247,326.147l39.079,18.426c16.182,7.63,23.183,27.075,15.639,43.434l-0.006,0.014
	c-7.547,16.365-26.79,23.444-42.978,15.813l-39.079-18.426c-16.182-7.63-23.183-27.075-15.639-43.434l0.007-0.014
	C352.816,325.594,372.06,318.514,388.247,326.147z"/>
<path style="fill:#F4C064;" d="M503.916,333.972L503.916,333.972c0,18.058-14.477,32.697-32.337,32.697H309.895
	c-15.043,0-27.686-10.386-31.3-24.452c-1.243-4.835-5.506-8.245-10.447-8.245H29.642c-11.906,0-21.558-9.759-21.558-21.798v-76.292
	v-76.292c0-12.039,9.651-21.798,21.558-21.798h238.506c4.941,0,9.205-3.409,10.447-8.245c3.614-14.067,16.258-24.452,31.3-24.452
	h161.684c17.86,0,32.337,14.639,32.337,32.697l0,0c0,18.058-14.477,32.697-32.337,32.697c17.86,0,32.337,14.639,32.337,32.697l0,0
	c0,18.058-14.477,32.697-32.337,32.697c17.86,0,32.337,14.639,32.337,32.697l0,0c0,18.058-14.477,32.697-32.337,32.697
	C489.439,301.275,503.916,315.914,503.916,333.972z"/>
<path style="fill:#FFFFA6;" d="M288.945,220.545l-1.262,33.152c-0.454,11.904-10.477,21.185-22.381,20.721l-21.543-0.839
	c-11.89-0.463-21.156-10.472-20.703-22.362l1.262-33.152c0.454-11.904,10.477-21.185,22.381-20.721l21.543,0.839
	C280.132,198.647,289.397,208.655,288.945,220.545z"/>
<path style="fill:#64AF8F;" d="M245.221,126.772V344.99c0,5.953-4.826,10.779-10.779,10.779h-86.232
	c-5.953,0-10.779-4.826-10.779-10.779V126.772c0-5.953,4.826-10.779,10.779-10.779h86.232
	C240.395,115.993,245.221,120.819,245.221,126.772z"/>
<path style="fill:#D7F3FF;" d="M256,181.147v109.469c0,11.906-9.651,21.558-21.558,21.558h-86.232
	c-11.906,0-21.558-9.651-21.558-21.558V181.147c0-11.906,9.651-21.558,21.558-21.558h86.232
	C246.349,159.589,256,169.241,256,181.147z"/>
<path style="fill:#F4FFF9;" d="M191.326,312.174h-43.116V159.589h43.116V312.174z"/>
<path d="M512,204.104c0-13.12-6.367-24.791-16.193-32.122C505.633,164.65,512,152.979,512,139.86
	c0-22.141-18.132-40.154-40.421-40.154H309.895c-18.411,0-34.5,12.351-39.124,30.034c-0.321,1.23-1.4,2.088-2.623,2.088h-14.843
	v-2.676c0-10.333-8.463-18.738-18.863-18.738h-86.232c-10.401,0-18.863,8.406-18.863,18.738v2.676H29.642
	C13.297,131.828,0,145.038,0,161.274v42.83c0,4.436,3.62,8.03,8.084,8.03s8.084-3.595,8.084-8.03v-42.83
	c0-7.38,6.044-13.384,13.474-13.384h99.705v12.102c-6.579,5.406-10.779,13.574-10.779,22.698v107.076
	c0,9.124,4.199,17.293,10.779,22.698v12.102H29.642c-7.43,0-13.474-6.004-13.474-13.384v-42.83c0-4.436-3.62-8.03-8.084-8.03
	S0,263.916,0,268.351v42.83c0,16.236,13.297,29.446,29.642,29.446h99.705v2.676c0,10.333,8.463,18.738,18.863,18.738h86.232
	c10.401,0,18.863-8.407,18.863-18.738v-2.676h14.843c1.222,0,2.301,0.858,2.623,2.089c4.624,17.683,20.713,30.033,39.124,30.033
	h28.918c4.082,7.737,10.561,13.899,18.682,17.661l39.076,18.1c5.435,2.518,11.235,3.784,17.059,3.784
	c4.662-0.001,9.338-0.813,13.849-2.444c10.146-3.668,18.247-11.041,22.809-20.761c2.41-5.134,3.683-10.723,3.777-16.341h17.516
	c22.289,0,40.421-18.013,40.421-40.154c0-13.12-6.367-24.79-16.193-32.122c9.826-7.332,16.193-19.003,16.193-32.122
	c0-13.119-6.367-24.79-16.193-32.122C505.633,228.895,512,217.223,512,204.104z M145.516,139.858v-10.708
	c0-1.477,1.209-2.676,2.695-2.676h86.232c1.485,0,2.695,1.201,2.695,2.676v10.618c0,0.029,0,0.059,0,0.088c0,0.029,0,0.059,0,0.088
	v13.415c-0.887-0.08-1.787-0.121-2.695-0.121h-86.232c-0.908,0-1.808,0.041-2.695,0.121V139.858z M237.137,332.506
	c0,0.029,0,0.059,0,0.088s0,0.059,0,0.088v10.618c0,1.477-1.209,2.676-2.695,2.676h-86.232c-1.485,0-2.695-1.201-2.695-2.676
	v-10.708v-13.505c0.887,0.08,1.787,0.121,2.695,0.121h86.232c0.908,0,1.808-0.041,2.695-0.121V332.506z M247.916,289.764
	c0,7.38-6.044,13.384-13.474,13.384h-86.232c-7.43,0-13.474-6.004-13.474-13.384V182.689c0-7.38,6.044-13.384,13.474-13.384h86.232
	c7.43,0,13.474,6.004,13.474,13.384V289.764z M471.579,228.196h-43.116c-4.465,0-8.084,3.595-8.084,8.03
	c0,4.436,3.62,8.03,8.084,8.03h43.116c13.373,0,24.253,10.808,24.253,24.092s-10.879,24.092-24.253,24.092h-43.116
	c-4.465,0-8.084,3.595-8.084,8.03c0,4.436,3.62,8.03,8.084,8.03h43.116c13.373,0,24.253,10.808,24.253,24.092
	c0,13.284-10.879,24.092-24.253,24.092h-26.28c-0.114-0.002-0.229-0.002-0.343,0h-38.051c-4.465,0-8.084,3.595-8.084,8.03
	s3.62,8.03,8.084,8.03h31.007c-0.082,3.27-0.846,6.5-2.28,9.552c-2.738,5.832-7.598,10.257-13.685,12.458
	c-6.086,2.2-12.673,1.914-18.545-0.804l-39.076-18.1c-1.819-0.843-3.501-1.886-5.022-3.105h15.264c4.465,0,8.084-3.595,8.084-8.03
	c0-4.436-3.62-8.03-8.084-8.03h-30.347c-0.089-0.002-0.18-0.002-0.269,0h-34.057c-11.048,0-20.703-7.406-23.475-18.011
	c-2.173-8.308-9.686-14.112-18.272-14.112h-14.842v-12.102c6.579-5.406,10.779-13.574,10.779-22.698v-8.03h2.695
	c16.345,0,29.642-13.21,29.642-29.446v-32.122c0-16.236-13.297-29.446-29.642-29.446h-2.695v-8.03
	c0-9.124-4.199-17.292-10.779-22.698V147.89h14.843c8.585,0,16.099-5.802,18.272-14.111c2.772-10.605,12.426-18.012,23.475-18.012
	H471.58c13.373,0,24.253,10.808,24.253,24.092s-10.879,24.092-24.253,24.092h-43.116c-4.465,0-8.084,3.595-8.084,8.03
	c0,4.436,3.62,8.03,8.084,8.03h43.116c13.373,0,24.253,10.808,24.253,24.092C495.832,217.388,484.952,228.196,471.579,228.196z
	 M264.084,265.672v-58.892h2.695c7.43,0,13.474,6.004,13.474,13.384v32.122c0,7.38-6.044,13.384-13.474,13.384h-2.695V265.672z
	 M220.968,236.227c0,4.436-3.62,8.03-8.084,8.03h-21.558c-4.465,0-8.084-3.595-8.084-8.03v-42.83c0-4.436,3.62-8.03,8.084-8.03
	c4.465,0,8.084,3.595,8.084,8.03v34.8h13.474C217.349,228.196,220.968,231.791,220.968,236.227z"/>
</svg>