<?xml version="1.0" encoding="UTF-8" standalone="no"?>
<!-- Uploaded to: SVG Repo, www.svgrepo.com, Generator: SVG Repo Mixer Tools -->

<svg
   width="800px"
   height="800px"
   viewBox="0 0 24 24"
   fill="none"
   version="1.1"
   id="svg5"
   sodipodi:docname="image.svg"
   inkscape:version="1.3.1 (9b9bdc1480, 2023-11-25, custom)"
   xmlns:inkscape="http://www.inkscape.org/namespaces/inkscape"
   xmlns:sodipodi="http://sodipodi.sourceforge.net/DTD/sodipodi-0.dtd"
   xmlns="http://www.w3.org/2000/svg"
   xmlns:svg="http://www.w3.org/2000/svg">
  <sodipodi:namedview
     id="namedview1"
     pagecolor="#ffffff"
     bordercolor="#000000"
     borderopacity="0.25"
     inkscape:showpageshadow="2"
     inkscape:pageopacity="0.0"
     inkscape:pagecheckerboard="0"
     inkscape:deskcolor="#d1d1d1"
     inkscape:zoom="1.3525"
     inkscape:cx="400"
     inkscape:cy="400"
     inkscape:window-width="2560"
     inkscape:window-height="1324"
     inkscape:window-x="0"
     inkscape:window-y="0"
     inkscape:window-maximized="1"
     inkscape:current-layer="svg5" />
  <defs
     id="defs5" />
  <circle
     cx="9"
     cy="9"
     r="2"
     stroke="#1C274C"
     stroke-width="1.5"
     id="circle1"
     style="fill:none;stroke:#7c89b9;stroke-opacity:1" />
  <path
     d="M13 15C13 16.1046 13 17 9 17C5 17 5 16.1046 5 15C5 13.8954 6.79086 13 9 13C11.2091 13 13 13.8954 13 15Z"
     stroke="#1C274C"
     stroke-width="1.5"
     id="path1"
     style="stroke:#7c89b9;stroke-opacity:1" />
  <path
     d="M2 12C2 8.22876 2 6.34315 3.17157 5.17157C4.34315 4 6.22876 4 10 4H14C17.7712 4 19.6569 4 20.8284 5.17157C22 6.34315 22 8.22876 22 12C22 15.7712 22 17.6569 20.8284 18.8284C19.6569 20 17.7712 20 14 20H10C6.22876 20 4.34315 20 3.17157 18.8284C2 17.6569 2 15.7712 2 12Z"
     stroke="#1C274C"
     stroke-width="1.5"
     id="path2"
     style="stroke:#7c89b9;stroke-opacity:1" />
  <path
     d="M19 12H15"
     stroke="#1C274C"
     stroke-width="1.5"
     stroke-linecap="round"
     id="path3"
     style="stroke:#7c89b9;stroke-opacity:1" />
  <path
     d="M19 9H14"
     stroke="#1C274C"
     stroke-width="1.5"
     stroke-linecap="round"
     id="path4"
     style="fill:#ff0000;fill-opacity:1;stroke:#ff0000;stroke-opacity:1" />
  <path
     d="M19 15H16"
     stroke="#1C274C"
     stroke-width="1.5"
     stroke-linecap="round"
     id="path5"
     style="stroke:#7c89b9;stroke-opacity:1" />
</svg>
