<?xml version="1.0" encoding="UTF-8" standalone="no"?>
<!-- Uploaded to: SVG Repo, www.svgrepo.com, Generator: SVG Repo Mixer Tools -->

<svg
   height="800px"
   width="800px"
   version="1.1"
   id="Capa_1"
   viewBox="0 0 337.222 337.222"
   xml:space="preserve"
   sodipodi:docname="image.svg"
   inkscape:version="1.3.1 (9b9bdc1480, 2023-11-25, custom)"
   xmlns:inkscape="http://www.inkscape.org/namespaces/inkscape"
   xmlns:sodipodi="http://sodipodi.sourceforge.net/DTD/sodipodi-0.dtd"
   xmlns="http://www.w3.org/2000/svg"
   xmlns:svg="http://www.w3.org/2000/svg"><defs
   id="defs3">
	
	
	
</defs><sodipodi:namedview
   id="namedview3"
   pagecolor="#ffffff"
   bordercolor="#000000"
   borderopacity="0.25"
   inkscape:showpageshadow="2"
   inkscape:pageopacity="0.0"
   inkscape:pagecheckerboard="0"
   inkscape:deskcolor="#d1d1d1"
   showgrid="false"
   inkscape:zoom="1.3525"
   inkscape:cx="399.63031"
   inkscape:cy="400"
   inkscape:window-width="2560"
   inkscape:window-height="1324"
   inkscape:window-x="0"
   inkscape:window-y="0"
   inkscape:window-maximized="1"
   inkscape:current-layer="Capa_1" />
<path
   style="fill:#008080"
   d="M 168.611,0 C 75.489,0 0,75.489 0,168.611 c 0,93.122 75.489,168.611 168.611,168.611 93.122,0 168.611,-75.489 168.611,-168.611 C 337.222,75.489 261.733,0 168.611,0 Z m 0,304.588 c -74.978,0 -135.977,-60.999 -135.977,-135.977 0,-74.978 60.999,-135.977 135.977,-135.977 74.978,0 135.977,60.999 135.977,135.977 0,74.978 -61,135.977 -135.977,135.977 z"
   id="path1" /><path
   style="fill:#0000ff"
   d="m 166.299,249.751 h 21.783 v 36.132 H 166.299 Z M 53.194,151.483 h 36.279 v 27.195 H 53.194 c 0,0.001 0,-27.195 0,-27.195 z m 199.717,65.188 19.847,11.46 c 1.773,-3.155 3.399,-6.407 4.884,-9.73 l -19.287,-11.145 z m -36.061,31.965 13.745,23.616 c 3.095,-1.925 6.108,-3.971 9.007,-6.162 l -13.353,-22.931 z m -98.534,23.676 -9.399,-5.472 13.788,-23.682 9.399,5.477 z m -46.042,-41.902 -5.439,-9.415 23.774,-13.728 5.439,9.415 z m 18.341,-107.503 -23.774,-13.734 5.439,-9.42 23.774,13.734 z m 32.096,-35.898 -13.788,-23.676 9.399,-5.472 13.788,23.676 z"
   id="path2" /><path
   style="fill:#ff8080"
   d="M 166.299,46.64 V 168.611 H 288.27 C 288.27,101.248 233.662,46.64 166.299,46.64 Z m 33.978,97.903 c 0,3.432 -2.382,6.217 -5.325,6.217 -2.932,0 -5.319,-2.785 -5.319,-6.217 v -23.997 c 0,-3.432 -2.779,-6.217 -6.211,-6.217 -3.437,0 -6.217,-1.583 -6.217,-3.535 0,-1.953 1.539,-3.584 3.443,-3.742 1.496,-0.125 2.638,-0.272 3.432,-0.446 2.083,-0.462 3.775,-1.387 5.091,-2.768 0.892,-0.946 1.572,-2.208 2.029,-3.791 0.114,-0.392 0.201,-0.745 0.267,-1.05 0.114,-0.582 2.078,-1.061 4.471,-1.061 2.388,0 4.335,2.785 4.335,6.217 v 40.391 h 0.004 z m 47.043,1.844 c -3.133,3.84 -7.821,5.755 -14.055,5.755 -5.02,0 -9.148,-1.349 -12.374,-4.047 -1.757,-1.474 -3.095,-3.285 -4.003,-5.434 -1.338,-3.166 0.941,-6.037 3.796,-6.037 2.85,0 5.347,1.305 5.978,2.785 0.408,0.968 0.93,1.779 1.556,2.442 1.164,1.224 2.861,1.838 5.086,1.838 2.573,0 4.525,-0.903 5.874,-2.714 1.349,-1.811 2.018,-4.085 2.018,-6.831 0,-2.698 -0.626,-4.971 -1.887,-6.831 -1.256,-1.86 -3.225,-2.785 -5.891,-2.785 -1.262,0 -2.35,0.158 -3.274,0.473 -0.81,0.294 -1.528,0.713 -2.148,1.262 -1.039,0.919 -3.606,1.882 -6.173,1.762 -2.573,-0.12 -4.302,-2.981 -3.867,-6.385 l 2.138,-16.845 c 0.435,-3.405 3.568,-6.168 7,-6.168 h 16.627 c 3.432,0 6.222,1.974 6.222,4.406 0,2.431 -2.79,4.406 -6.222,4.406 h -9.138 c -3.432,0 -6.641,2.584 -7.158,5.776 -0.528,3.187 -0.152,5.238 0.881,4.65 0.756,-0.435 1.403,-0.756 1.925,-0.952 1.496,-0.56 3.334,-0.838 5.493,-0.838 4.368,0 8.175,1.469 11.422,4.406 3.258,2.937 4.873,7.212 4.873,12.825 -0.011,4.884 -1.577,9.246 -4.699,13.081 z"
   id="path3" />
</svg>
