<?xml version="1.0" encoding="UTF-8" standalone="no"?>
<!-- Uploaded to: SVG Repo, www.svgrepo.com, Generator: SVG Repo Mixer Tools -->

<svg
   version="1.1"
   id="designs"
   width="800"
   height="800"
   viewBox="0 0 32 32"
   xml:space="preserve"
   xmlns="http://www.w3.org/2000/svg"
   xmlns:svg="http://www.w3.org/2000/svg"><defs
   id="defs1" />
<style
   type="text/css"
   id="style1">
	.sketchy_een{fill:#111918;}
</style>
<path
   class="sketchy_een"
   d="m 25.684794,26.297 c 0.203,-0.274 0.437,-0.521 0.73,-0.701 0.167,-0.102 0.359,-0.135 0.544,-0.109 0.05,-0.011 0.101,-0.018 0.155,-0.025 0.164,-0.018 0.328,-0.031 0.491,-0.031 0.225,0 0.449,0.023 0.672,0.084 0.623,0.172 1.171,0.585 1.447,1.179 0.191,0.416 0.304,0.86 0.27,1.319 -0.021,0.274 -0.088,0.498 -0.224,0.735 -0.073,0.124 -0.172,0.241 -0.26,0.35 -0.121,0.155 -0.281,0.295 -0.442,0.402 -0.479,0.318 -1.097,0.45 -1.66,0.387 -0.138,-0.015 -0.27,-0.034 -0.402,-0.069 -0.142,-0.036 -0.293,-0.124 -0.417,-0.201 -0.147,-0.09 -0.283,-0.213 -0.41,-0.329 -0.159,-0.147 -0.299,-0.32 -0.417,-0.502 -0.121,-0.182 -0.201,-0.394 -0.28,-0.597 -0.052,-0.134 -0.1,-0.274 -0.124,-0.416 -0.05,-0.28 -0.048,-0.458 -0.006,-0.737 0.042,-0.271 0.173,-0.52 0.333,-0.739 z m 1.336,1.243 c 0.025,0.119 0.059,0.235 0.1,0.349 0.023,0.047 0.048,0.092 0.076,0.137 0.063,0.069 0.13,0.132 0.199,0.194 0.036,0.024 0.073,0.047 0.111,0.068 0.003,0.001 0.007,0.002 0.01,0.002 0.094,0.007 0.188,0.009 0.283,0.004 0.089,-0.02 0.175,-0.042 0.26,-0.071 0.034,-0.019 0.067,-0.039 0.099,-0.06 0.038,-0.036 0.073,-0.073 0.108,-0.112 0.031,-0.047 0.061,-0.094 0.089,-0.143 v 0 c 0.003,-0.076 0.002,-0.151 -0.002,-0.227 -0.022,-0.107 -0.05,-0.211 -0.085,-0.314 -0.023,-0.045 -0.048,-0.089 -0.074,-0.132 -0.042,-0.044 -0.086,-0.085 -0.131,-0.126 -0.057,-0.036 -0.114,-0.069 -0.174,-0.099 -0.076,-0.027 -0.152,-0.049 -0.23,-0.067 -0.064,-0.003 -0.129,-0.001 -0.193,0.002 -0.052,0.055 -0.112,0.103 -0.179,0.143 -0.005,0.003 -0.01,0.006 -0.015,0.009 -0.048,0.044 -0.092,0.09 -0.136,0.138 -0.035,0.051 -0.068,0.102 -0.097,0.156 -0.007,0.025 -0.014,0.05 -0.021,0.075 0,0.024 0.001,0.049 0.002,0.074 z m -5.288,-5.635 c 0.289,-0.251 0.609,-0.419 0.967,-0.546 0.149,-0.052 0.305,-0.044 0.448,0.006 0.125,-0.104 0.282,-0.17 0.451,-0.17 0.01,0 0.02,0 0.03,0.001 0.352,0.015 0.655,0.149 0.969,0.295 0.262,0.123 0.488,0.287 0.697,0.488 0.197,0.192 0.341,0.437 0.452,0.686 0.08,0.186 0.155,0.368 0.195,0.567 0.029,0.147 0.048,0.299 0.067,0.448 0.013,0.109 0.023,0.216 0.015,0.326 -0.015,0.23 -0.086,0.433 -0.182,0.638 -0.163,0.349 -0.469,0.607 -0.781,0.816 -0.27,0.178 -0.58,0.285 -0.888,0.375 -0.291,0.086 -0.594,0.157 -0.898,0.13 -0.431,-0.038 -0.875,-0.18 -1.233,-0.421 -0.45,-0.303 -0.768,-0.839 -0.919,-1.354 -0.061,-0.209 -0.078,-0.442 -0.102,-0.657 -0.021,-0.19 -0.019,-0.372 0.021,-0.561 0.09,-0.401 0.385,-0.801 0.691,-1.067 z m 2.734,2.045 c 0.002,-10e-4 0.003,-0.003 0.005,-0.004 -0.002,0.002 -0.004,0.003 -0.005,0.004 z m -0.003,0.002 v 0 c -0.012,0.009 -0.024,0.018 -0.035,0.027 0.012,-0.009 0.024,-0.018 0.035,-0.027 z m -1.851,-0.417 c 0.017,0.102 0.038,0.204 0.07,0.302 0.058,0.117 0.123,0.228 0.194,0.337 0.015,0.016 0.03,0.032 0.046,0.047 0.066,0.04 0.135,0.076 0.205,0.109 0.066,0.023 0.132,0.042 0.201,0.057 0.043,0.002 0.086,0.003 0.13,0.001 0.197,-0.043 0.394,-0.097 0.585,-0.166 0.103,-0.054 0.2,-0.113 0.294,-0.178 0.027,-0.026 0.053,-0.053 0.078,-0.08 0.018,-0.028 0.035,-0.057 0.051,-0.087 0.001,-0.081 -0.005,-0.161 -0.013,-0.242 -0.024,-0.123 -0.056,-0.241 -0.098,-0.357 -0.039,-0.075 -0.079,-0.147 -0.124,-0.218 -0.041,-0.043 -0.083,-0.084 -0.127,-0.123 -0.05,-0.031 -0.1,-0.059 -0.153,-0.084 -0.112,-0.045 -0.224,-0.086 -0.34,-0.118 -0.067,-0.004 -0.132,-0.016 -0.194,-0.035 -0.065,0.053 -0.139,0.094 -0.22,0.131 0.002,-0.001 0.004,-0.002 0.006,-0.003 -0.114,0.054 -0.22,0.114 -0.323,0.184 -0.074,0.065 -0.142,0.134 -0.206,0.208 -0.024,0.037 -0.046,0.075 -0.068,0.114 -0.002,0.067 0,0.134 0.006,0.201 z m -20.54,-5.194 c 0.042,0.272 0.13,0.53 0.224,0.787 0.075,0.205 0.161,0.419 0.278,0.605 0.228,0.364 0.498,0.71 0.797,1.021 0.599,0.624 1.352,1.159 2.189,1.415 0.419,0.128 0.841,0.226 1.281,0.257 0.2,0.012 0.402,0.009 0.603,0.015 0.132,0.205 0.256,0.414 0.404,0.608 0.251,0.331 0.509,0.659 0.783,0.973 0.316,0.362 0.641,0.722 1.053,0.979 0.299,0.186 0.597,0.381 0.906,0.555 0.364,0.207 0.766,0.331 1.18,0.393 0.406,0.059 0.812,0.115 1.224,0.098 0.402,-0.017 0.8,-0.054 1.18,-0.191 0.205,-0.075 0.414,-0.151 0.605,-0.253 0.103,-0.055 0.206,-0.108 0.312,-0.156 0.104,-0.042 0.209,-0.085 0.306,-0.139 0.086,-0.052 0.172,-0.103 0.26,-0.151 0.201,-0.109 0.406,-0.211 0.601,-0.327 0.172,-0.103 0.337,-0.225 0.508,-0.336 0.088,0.059 0.18,0.112 0.279,0.156 0.266,0.121 0.54,0.226 0.821,0.306 0.678,0.193 1.392,0.419 2.106,0.324 0.138,0 0.264,-0.034 0.383,-0.103 0.113,-0.067 0.205,-0.157 0.272,-0.272 0.102,-0.174 0.13,-0.387 0.077,-0.582 -0.113,-0.41 -0.53,-0.622 -0.933,-0.53 -0.04,0.01 -0.08,0.019 -0.12,0.027 -0.121,0.005 -0.241,-0.003 -0.362,-0.013 -0.459,-0.081 -0.911,-0.22 -1.344,-0.392 -0.113,-0.05 -0.223,-0.105 -0.326,-0.173 -0.05,-0.045 -0.098,-0.093 -0.146,-0.141 -0.239,-0.241 -0.596,-0.371 -0.929,-0.257 -0.308,0.109 -0.563,0.331 -0.839,0.498 -0.32,0.195 -0.659,0.349 -0.986,0.527 -0.236,0.125 -0.48,0.248 -0.725,0.357 -0.219,0.084 -0.442,0.158 -0.672,0.203 -0.385,0.032 -0.772,0.026 -1.156,-0.018 -0.252,-0.038 -0.5,-0.086 -0.739,-0.172 -0.176,-0.085 -0.343,-0.182 -0.51,-0.284 -0.197,-0.121 -0.401,-0.228 -0.592,-0.354 -0.411,-0.36 -0.763,-0.797 -1.103,-1.227 -0.134,-0.185 -0.26,-0.374 -0.378,-0.57 -0.201,-0.339 -0.379,-0.751 -0.804,-0.854 -0.178,-0.042 -0.36,-0.036 -0.542,-0.031 -0.067,0.002 -0.136,0.004 -0.205,0.002 -0.205,-0.002 -0.41,-0.008 -0.614,-0.025 -0.313,-0.058 -0.614,-0.148 -0.914,-0.254 -0.311,-0.146 -0.6,-0.323 -0.878,-0.526 -0.288,-0.25 -0.544,-0.517 -0.783,-0.812 -0.13,-0.186 -0.247,-0.373 -0.346,-0.576 -0.089,-0.25 -0.165,-0.498 -0.212,-0.759 -0.025,-0.336 -0.025,-0.673 0,-1.009 0.075,-0.441 0.214,-0.865 0.38,-1.281 0.112,-0.249 0.231,-0.498 0.388,-0.723 0.153,-0.223 0.308,-0.446 0.466,-0.666 0.038,-0.044 0.077,-0.086 0.12,-0.125 0.078,-0.056 0.158,-0.111 0.235,-0.168 0.082,-0.063 0.186,-0.13 0.257,-0.213 0.209,-0.243 0.308,-0.548 0.228,-0.867 -0.065,-0.249 -0.234,-0.473 -0.354,-0.699 -0.124,-0.233 -0.242,-0.469 -0.353,-0.71 -0.12,-0.301 -0.218,-0.602 -0.279,-0.919 -0.043,-0.511 0.005,-1.033 0.064,-1.542 0.027,-0.16 0.063,-0.314 0.117,-0.467 0.045,-0.086 0.095,-0.167 0.15,-0.246 0.126,-0.146 0.261,-0.28 0.407,-0.405 0.321,-0.23 0.666,-0.408 1.027,-0.567 0.478,-0.19 0.969,-0.309 1.473,-0.394 0.471,-0.051 0.944,-0.042 1.415,0.009 0.123,0.022 0.237,0.052 0.354,0.094 0.228,0.108 0.455,0.211 0.717,0.133 0.297,-0.088 0.507,-0.314 0.596,-0.609 0.049,-0.167 0.086,-0.329 0.145,-0.491 0.165,-0.365 0.349,-0.712 0.582,-1.038 0.223,-0.265 0.464,-0.504 0.731,-0.726 0.204,-0.146 0.417,-0.262 0.643,-0.367 0.254,-0.089 0.513,-0.156 0.771,-0.229 0.231,-0.064 0.455,-0.125 0.688,-0.165 0.454,-0.038 0.901,-0.044 1.355,-0.006 0.184,0.029 0.366,0.063 0.547,0.104 0.194,0.043 0.382,0.119 0.565,0.192 0.189,0.085 0.376,0.174 0.557,0.275 0.195,0.111 0.378,0.237 0.56,0.365 0.33,0.263 0.644,0.539 0.923,0.855 0.076,0.109 0.146,0.221 0.21,0.34 0.086,0.163 0.142,0.341 0.237,0.502 0.075,0.123 0.155,0.237 0.243,0.35 0.151,0.19 0.379,0.304 0.622,0.31 0.152,0.004 0.276,-0.043 0.403,-0.1 0.147,-0.05 0.302,-0.077 0.453,-0.109 0.155,-0.031 0.311,-0.06 0.467,-0.086 0.499,-0.049 0.998,-0.047 1.492,-10e-4 0.26,0.043 0.512,0.104 0.761,0.194 0.205,0.102 0.401,0.212 0.59,0.341 0.146,0.123 0.274,0.257 0.399,0.4 0.174,0.248 0.321,0.503 0.449,0.778 0.148,0.408 0.248,0.823 0.316,1.252 0.036,0.338 0.046,0.669 0.021,1.01 -0.037,0.227 -0.091,0.444 -0.172,0.661 -0.099,0.207 -0.205,0.411 -0.319,0.609 -0.121,0.213 -0.27,0.385 -0.349,0.622 -0.109,0.329 -0.019,0.697 0.228,0.942 0.103,0.103 0.218,0.161 0.345,0.222 0.222,0.109 0.447,0.224 0.66,0.353 0.156,0.136 0.299,0.283 0.436,0.439 0.099,0.141 0.186,0.287 0.263,0.442 0.044,0.134 0.069,0.271 0.092,0.41 0.041,0.449 0.012,0.89 -0.042,1.335 -0.086,0.538 -0.205,1.058 -0.391,1.571 -0.066,0.15 -0.139,0.295 -0.23,0.432 -0.184,0.211 -0.392,0.386 -0.611,0.56 -0.166,0.118 -0.335,0.219 -0.521,0.307 -0.072,0.029 -0.144,0.058 -0.217,0.087 -0.207,0.078 -0.371,0.176 -0.486,0.373 -0.111,0.188 -0.142,0.417 -0.082,0.628 0.055,0.203 0.191,0.381 0.373,0.486 0.17,0.1 0.437,0.159 0.628,0.082 0.344,-0.136 0.677,-0.276 0.978,-0.496 0.23,-0.165 0.44,-0.354 0.649,-0.544 0.13,-0.119 0.255,-0.241 0.366,-0.377 0.111,-0.138 0.236,-0.274 0.324,-0.427 0.088,-0.153 0.157,-0.312 0.224,-0.475 0.281,-0.68 0.425,-1.396 0.529,-2.122 0.057,-0.398 0.1,-0.8 0.092,-1.204 -0.006,-0.239 -0.042,-0.479 -0.077,-0.714 -0.057,-0.381 -0.213,-0.762 -0.442,-1.074 -0.172,-0.234 -0.352,-0.454 -0.557,-0.659 -0.169,-0.169 -0.36,-0.349 -0.567,-0.465 -0.058,-0.033 -0.118,-0.066 -0.177,-0.099 0.127,-0.249 0.261,-0.492 0.365,-0.753 0.119,-0.289 0.176,-0.584 0.216,-0.894 0.034,-0.278 0.056,-0.551 0.044,-0.831 -0.018,-0.432 -0.085,-0.878 -0.187,-1.298 -0.103,-0.436 -0.253,-0.844 -0.435,-1.254 -0.172,-0.385 -0.433,-0.735 -0.714,-1.046 -0.346,-0.384 -0.777,-0.685 -1.25,-0.894 -0.387,-0.17 -0.772,-0.289 -1.191,-0.346 -0.433,-0.059 -0.86,-0.084 -1.294,-0.065 -0.425,0.017 -0.843,0.075 -1.26,0.155 -0.088,0.017 -0.177,0.034 -0.265,0.051 -0.006,-0.012 -0.011,-0.023 -0.016,-0.035 -0.038,-0.086 -0.075,-0.178 -0.121,-0.262 -0.086,-0.157 -0.182,-0.301 -0.291,-0.444 -0.259,-0.335 -0.571,-0.611 -0.885,-0.892 -0.301,-0.268 -0.634,-0.521 -0.986,-0.718 -0.364,-0.203 -0.743,-0.368 -1.132,-0.519 -0.597,-0.229 -1.244,-0.306 -1.886,-0.306 -0.194,0 -0.388,0.007 -0.579,0.019 -0.423,0.025 -0.841,0.096 -1.249,0.209 -0.389,0.107 -0.77,0.214 -1.143,0.373 -0.163,0.069 -0.333,0.138 -0.481,0.237 -0.188,0.123 -0.366,0.257 -0.538,0.4 -0.278,0.232 -0.519,0.492 -0.745,0.777 -0.258,0.326 -0.461,0.674 -0.647,1.047 -0.068,0.135 -0.136,0.269 -0.199,0.407 -0.115,-0.019 -0.23,-0.033 -0.345,-0.041 -0.167,-0.011 -0.333,-0.021 -0.5,-0.021 -0.368,-0.004 -0.733,0.006 -1.101,0.048 -0.431,0.048 -0.858,0.132 -1.275,0.253 -0.182,0.052 -0.366,0.113 -0.54,0.186 -0.218,0.09 -0.442,0.172 -0.649,0.283 -0.461,0.243 -0.906,0.529 -1.271,0.906 -0.308,0.316 -0.559,0.668 -0.699,1.091 -0.077,0.234 -0.111,0.467 -0.142,0.71 -0.042,0.352 -0.063,0.707 -0.08,1.061 -0.021,0.419 0.015,0.839 0.126,1.245 0.115,0.419 0.293,0.823 0.479,1.214 0.077,0.162 0.164,0.32 0.248,0.478 -0.087,0.062 -0.172,0.128 -0.239,0.21 -0.132,0.161 -0.255,0.326 -0.373,0.498 -0.136,0.195 -0.276,0.389 -0.402,0.592 -0.289,0.461 -0.502,0.969 -0.687,1.482 -0.147,0.404 -0.257,0.806 -0.295,1.235 -0.038,0.446 -0.013,0.898 0.055,1.343 z m 17.934,-6.944 c 0,-0.4 -0.345,-0.774 -0.756,-0.756 -0.634,0.025 -1.268,0.065 -1.901,0.038 -0.268,-0.012 -0.534,-0.036 -0.802,-0.046 -0.27,-0.01 -0.54,-0.006 -0.81,-0.004 -0.53,0 -1.061,-0.031 -1.593,-0.044 -0.291,-0.008 -0.588,-0.023 -0.883,-0.023 -0.115,0 -0.229,0.002 -0.342,0.008 -0.26,0.013 -0.494,0.13 -0.63,0.362 -0.098,0.169 -0.125,0.373 -0.073,0.563 0.05,0.182 0.172,0.341 0.335,0.435 0.164,0.097 0.327,0.108 0.505,0.084 0.169,-0.01 0.341,0.001 0.508,0.003 0.226,0.002 0.45,0.017 0.674,0.029 0.272,0.013 0.544,0.038 0.816,0.042 0.257,0.002 0.511,0 0.768,0.002 0.53,0.006 1.061,0.008 1.591,0.033 0.613,0.029 1.225,0.044 1.838,0.033 0.411,-0.01 0.755,-0.341 0.755,-0.759 z m 0.203,2.738 c 0,-0.404 -0.352,-0.791 -0.772,-0.77 -0.624,0.029 -1.247,0.077 -1.871,0.069 -0.58,-0.008 -1.159,-0.025 -1.739,-0.027 -0.557,-0.002 -1.114,-0.01 -1.67,-0.023 -0.281,-0.006 -0.563,-0.021 -0.844,-0.025 -0.226,-0.004 -0.452,0 -0.676,-0.025 -0.015,-0.002 -0.03,-0.003 -0.046,-0.003 -0.175,0 -0.368,0.105 -0.484,0.223 -0.14,0.14 -0.22,0.331 -0.22,0.53 0,0.197 0.08,0.391 0.22,0.53 0.126,0.126 0.347,0.243 0.53,0.22 0.236,-0.031 0.475,-0.013 0.712,-0.01 0.268,0.006 0.538,0.01 0.808,0.008 0.555,-0.006 1.113,0.004 1.67,0.011 0.58,0.008 1.159,0.057 1.739,0.056 0.624,0 1.247,0.025 1.871,0.006 0.42,-0.012 0.772,-0.339 0.772,-0.77 z m -7.584,2.151 c -0.413,0 -0.752,0.411 -0.752,0.806 0,0.446 0.368,0.793 0.804,0.804 0.207,0.004 0.414,0.021 0.619,0.042 0.213,0.021 0.421,0.021 0.636,0.019 0.536,-0.008 1.076,-0.004 1.61,-0.036 0.735,-0.044 1.471,-0.036 2.208,-0.029 0.511,0.004 1.024,0.01 1.536,-0.004 0.431,-0.012 0.791,-0.352 0.791,-0.791 0,-0.419 -0.36,-0.808 -0.791,-0.791 -0.68,0.027 -1.358,0.061 -2.037,0.077 -0.586,0.012 -1.164,0.002 -1.75,-0.031 -0.53,-0.029 -1.067,-0.027 -1.599,-0.033 -0.406,-0.006 -0.816,0 -1.222,-0.033 -0.019,10e-4 -0.036,0 -0.053,0 z"
   id="path1"
   style="fill:#ffaaaa;stroke:#4803b8;stroke-width:0.528;stroke-dasharray:none;stroke-opacity:1" />
</svg>
