<?xml version="1.0" encoding="iso-8859-1"?>
<!-- Uploaded to: SVG Repo, www.svgrepo.com, Generator: SVG Repo Mixer Tools -->
<svg height="800px" width="800px" version="1.1" id="Layer_1" xmlns="http://www.w3.org/2000/svg" xmlns:xlink="http://www.w3.org/1999/xlink" 
	 viewBox="0 0 512 512" xml:space="preserve">
<g transform="translate(1 1)">
	<g>
		<polygon style="fill:#FFE100;" points="33.133,161.133 476.867,161.133 476.867,127 33.133,127 		"/>
		<polygon style="fill:#FFE100;" points="33.133,127 476.867,127 476.867,92.867 33.133,92.867 		"/>
		<path style="fill:#FFE100;" d="M476.867,161.133H255H33.133l-25.6,256H203.8l38.4-101.547c4.267-11.947,21.333-11.947,25.6,0
			l38.4,101.547h196.267L476.867,161.133z"/>
	</g>
	<g>
		<polygon style="fill:#FFA800;" points="451.267,161.133 476.867,161.133 476.867,127 451.267,127 		"/>
		<polygon style="fill:#FFA800;" points="451.267,127 476.867,127 476.867,92.867 451.267,92.867 		"/>
	</g>
	<g>
		<polygon style="fill:#FDCC00;" points="293.4,383 306.2,417.133 502.467,417.133 499.053,383 		"/>
		<polygon style="fill:#FDCC00;" points="10.947,383 7.533,417.133 203.8,417.133 216.6,383 		"/>
		<path style="fill:#FDCC00;" d="M255,255L255,255v-93.867h34.133v59.733C289.133,239.639,273.773,255,255,255"/>
		<path style="fill:#FDCC00;" d="M109.933,161.133h-76.8l-11.093,115.2C72.387,262.68,109.933,216.6,109.933,161.133"/>
		<path style="fill:#FDCC00;" d="M397.507,161.133h76.8l11.093,115.2C435.053,262.68,397.507,216.6,397.507,161.133"/>
	</g>
	<polygon style="fill:#FFA800;" points="476.867,161.133 451.267,161.133 476.867,417.133 502.467,417.133 	"/>
	<g>
		<polygon style="fill:#FFFFFF;" points="33.133,161.133 58.733,161.133 58.733,127 33.133,127 		"/>
		<polygon style="fill:#FFFFFF;" points="33.133,127 58.733,127 58.733,92.867 33.133,92.867 		"/>
		<polygon style="fill:#FFFFFF;" points="33.133,161.133 58.733,161.133 33.133,417.133 7.533,417.133 		"/>
	</g>
	<path d="M255,263.533c-5.12,0-8.533-3.413-8.533-8.533v-93.867c0-5.12,3.413-8.533,8.533-8.533h34.133
		c5.12,0,8.533,3.413,8.533,8.533v59.733C297.667,244.759,278.893,263.533,255,263.533z M263.533,169.667v75.093
		c10.24-3.413,17.067-12.8,17.067-23.893v-51.2H263.533z"/>
	<path d="M476.867,169.667H33.133c-5.12,0-8.533-3.413-8.533-8.533V127c0-5.12,3.413-8.533,8.533-8.533h443.733
		c5.12,0,8.533,3.413,8.533,8.533v34.133C485.4,166.253,481.987,169.667,476.867,169.667z M41.667,152.6h426.667v-17.067H41.667
		V152.6z"/>
	<path d="M476.867,135.533H33.133c-5.12,0-8.533-3.413-8.533-8.533V92.867c0-5.12,3.413-8.533,8.533-8.533h443.733
		c5.12,0,8.533,3.413,8.533,8.533V127C485.4,132.12,481.987,135.533,476.867,135.533z M41.667,118.467h426.667V101.4H41.667V118.467
		z"/>
	<path d="M502.467,425.667H306.2c-3.413,0-6.827-2.56-7.68-5.12L260.12,319c-0.853-4.267-4.267-4.267-5.12-4.267
		s-3.413,0-5.12,3.413l-38.4,101.547c-0.853,3.413-4.267,5.973-7.68,5.973H7.533c-2.56,0-5.12-0.853-5.973-2.56
		C-0.147,421.4-1,418.84-1,416.28l25.6-256c0.853-4.267,4.267-7.68,8.533-7.68h443.733c4.267,0,7.68,3.413,8.533,7.68l25.6,256
		c0,2.56-0.853,5.12-2.56,6.827C507.587,424.813,505.027,425.667,502.467,425.667z M312.173,408.6H493.08l-23.893-238.933H40.813
		L16.92,408.6h180.907l35.84-96.427c3.413-8.533,11.947-14.507,21.333-14.507c9.386,0,17.92,5.973,21.333,14.507L312.173,408.6z"/>
	<path d="M22.04,284.867c-1.707,0-4.267-0.853-5.12-1.707c-2.56-1.707-3.413-4.267-3.413-7.68L24.6,160.28
		c0.853-4.267,4.267-7.68,8.533-7.68h76.8c5.12,0,8.533,3.413,8.533,8.533c0,57.173-38.4,108.373-93.867,123.733
		C23.747,284.867,22.893,284.867,22.04,284.867z M40.813,169.667l-9.387,94.72c39.253-16.213,66.56-52.907,69.973-94.72
		L40.813,169.667L40.813,169.667z"/>
	<path d="M485.4,284.867c-0.853,0-1.707,0-2.56,0c-55.467-15.36-93.867-65.707-93.867-123.733c0-5.12,3.413-8.533,8.533-8.533h76.8
		c4.267,0,7.68,3.413,8.533,7.68l11.093,113.493c0,0.853,0,1.707,0,2.56C493.933,280.6,490.52,284.867,485.4,284.867L485.4,284.867z
		 M406.04,169.667c3.413,41.813,30.72,78.507,69.12,94.72l-8.533-94.72L406.04,169.667L406.04,169.667z"/>
	<path d="M502.467,425.667H306.2c-3.413,0-6.827-2.56-7.68-5.12l-12.8-34.133c-0.853-2.56-0.853-5.973,0.853-7.68
		c1.707-2.56,4.267-3.413,6.827-3.413h205.653c4.267,0,7.68,3.413,8.533,7.68L511,417.133c0,2.56-0.853,5.12-2.56,6.827
		C507.587,424.813,505.027,425.667,502.467,425.667z M312.173,408.6H493.08l-1.707-17.067H305.347L312.173,408.6z"/>
	<path d="M203.8,425.667H7.533c-2.56,0-5.12-0.853-5.973-2.56C-0.147,421.4-1,418.84-1,416.28l3.413-34.133
		c0.853-4.267,4.267-7.68,8.533-7.68H216.6c2.56,0,5.12,1.707,6.827,3.413c1.707,2.56,1.707,5.12,0.853,7.68l-12.8,34.133
		C210.627,423.107,207.213,425.667,203.8,425.667z M16.92,408.6h180.907l6.827-17.067H18.627L16.92,408.6z"/>
</g>
</svg>