<?xml version="1.0" encoding="UTF-8" standalone="no"?>
<!-- Uploaded to: SVG Repo, www.svgrepo.com, Generator: SVG Repo Mixer Tools -->

<svg
   fill="#000000"
   version="1.1"
   id="Capa_1"
   width="800px"
   height="800px"
   viewBox="0 0 886.558 886.559"
   xml:space="preserve"
   sodipodi:docname="returning-down-curved-arrow-from-one-point-svgrepo-com.svg"
   inkscape:version="1.4.2 (2aeb623e1d, 2025-05-12)"
   xmlns:inkscape="http://www.inkscape.org/namespaces/inkscape"
   xmlns:sodipodi="http://sodipodi.sourceforge.net/DTD/sodipodi-0.dtd"
   xmlns="http://www.w3.org/2000/svg"
   xmlns:svg="http://www.w3.org/2000/svg"><defs
   id="defs1">
	
	
</defs><sodipodi:namedview
   id="namedview1"
   pagecolor="#ffffff"
   bordercolor="#000000"
   borderopacity="0.25"
   inkscape:showpageshadow="2"
   inkscape:pageopacity="0.0"
   inkscape:pagecheckerboard="0"
   inkscape:deskcolor="#d1d1d1"
   showgrid="false"
   inkscape:zoom="1.40125"
   inkscape:cx="399.64318"
   inkscape:cy="400"
   inkscape:window-width="2560"
   inkscape:window-height="1329"
   inkscape:window-x="0"
   inkscape:window-y="0"
   inkscape:window-maximized="1"
   inkscape:current-layer="Capa_1" />
<circle
   cx="198.601"
   cy="768.21802"
   r="64.100998"
   id="circle1"
   style="fill:#ff2a2a" /><path
   d="M 551.539,68.929 C 507.091,24.48 447.992,0 385.131,0 h -3.692 c -62.862,0 -121.96,24.479 -166.409,68.929 -44.449,44.45 -68.929,103.547 -68.929,166.408 v 283.021 c 0,28.996 23.505,52.5 52.5,52.5 28.995,0 52.5,-23.504 52.5,-52.5 V 235.337 C 251.101,163.469 309.57,105 381.438,105 h 3.692 c 71.869,0 130.337,58.469 130.337,130.337 v 471.384 l -42.191,-41.689 c -20.625,-20.381 -53.867,-20.182 -74.245,0.445 -20.38,20.625 -20.18,53.865 0.445,74.244 l 133.27,131.682 c 10.232,10.111 23.566,15.156 36.898,15.156 13.541,0 27.078,-5.207 37.346,-15.602 L 736.902,739.478 c 20.381,-20.625 20.18,-53.865 -0.445,-74.244 -20.625,-20.379 -53.865,-20.18 -74.242,0.445 l -41.748,42.25 V 235.337 C 620.468,172.476 595.988,113.378 551.539,68.929 Z"
   id="path1"
   style="fill:#aa0000" />
</svg>
