<?xml version="1.0" encoding="UTF-8" standalone="no"?>
<!-- Uploaded to: SVG Repo, www.svgrepo.com, Generator: SVG Repo Mixer Tools -->

<svg
   height="800px"
   width="800px"
   version="1.1"
   id="Layer_1"
   viewBox="0 0 512 512"
   xml:space="preserve"
   sodipodi:docname="image.svg"
   inkscape:version="1.4.4 (dcaf3e7d9e, 2026-05-05)"
   xmlns:inkscape="http://www.inkscape.org/namespaces/inkscape"
   xmlns:sodipodi="http://sodipodi.sourceforge.net/DTD/sodipodi-0.dtd"
   xmlns="http://www.w3.org/2000/svg"
   xmlns:svg="http://www.w3.org/2000/svg"><defs
   id="defs26" /><sodipodi:namedview
   id="namedview26"
   pagecolor="#ffffff"
   bordercolor="#000000"
   borderopacity="0.25"
   inkscape:showpageshadow="2"
   inkscape:pageopacity="0.0"
   inkscape:pagecheckerboard="0"
   inkscape:deskcolor="#d1d1d1"
   inkscape:zoom="1.03625"
   inkscape:cx="399.51749"
   inkscape:cy="400"
   inkscape:window-width="1706"
   inkscape:window-height="1036"
   inkscape:window-x="36"
   inkscape:window-y="32"
   inkscape:window-maximized="0"
   inkscape:current-layer="Layer_1" />

<g
   id="g10"
   transform="matrix(0.48419364,0,0,0.49162876,17.476705,35.602991)"><g
     id="g1">
	<path
   style="fill:#ff1d25"
   d="m 487.856,399.586 v 0 c -8.831,0 -15.99,-7.159 -15.99,-15.99 v -47.97 c 0,-8.831 7.159,-15.99 15.99,-15.99 v 0 c 8.831,0 15.99,7.159 15.99,15.99 v 47.97 c -10e-4,8.832 -7.159,15.99 -15.99,15.99 z"
   id="path1-5" />
	<rect
   x="383.91501"
   y="135.74699"
   style="fill:#ff1d25"
   width="31.979"
   height="87.946999"
   id="rect1" />
	<polyline
   style="fill:#ff1d25"
   points="95.592,383.572 95.592,415.94 177.034,415.94 177.034,383.572  "
   id="polyline1" />
</g><path
     style="fill:#bdccd4"
     d="m 217.762,7.831 c 25.534,0 46.233,20.699 46.233,46.233 v 209.607 c 0,70.649 -57.271,127.92 -127.92,127.92 v 0 C 65.426,391.591 8.155,334.32 8.155,263.671 V 54.064 c 0,-25.534 20.7,-46.233 46.233,-46.233 z"
     id="path2-9" /><circle
     style="fill:#e6e6e6"
     cx="96.100998"
     cy="143.745"
     r="15.99"
     id="circle2" /><path
     style="fill:#8e999f"
     d="M 72.621,263.671 V 54.064 C 72.621,28.53 92.813,7.687 118.347,7.687 H 54.387 C 28.853,7.687 7.885,28.53 7.885,54.064 v 209.607 c 0,70.649 57.406,127.92 128.055,127.92 11.064,0 22.061,-1.552 32.301,-4.193 -55.143,-14.221 -95.62,-64.143 -95.62,-123.727 z"
     id="path3-2" /><path
     style="fill:#ffffff"
     d="m 48.13,208.488 v 52.267 c 0,48.422 37.883,89.961 86.298,90.846 49.325,0.902 89.592,-38.811 89.592,-87.93 v -79.95 c 0,0 -43.231,-33.035 -103.935,0 -27.823,15.141 -45.257,16.403 -55.981,13.327 -7.957,-2.282 -15.974,3.161 -15.974,11.44 z"
     id="path4-2" /><path
     style="fill:#e6e6e6"
     d="m 72.621,260.755 v -52.267 c 0,-4.604 2.267,-8.266 5.836,-10.275 -5.629,0.418 -10.198,-0.077 -13.988,-1.164 -7.958,-2.282 -15.862,3.161 -15.862,11.439 v 52.267 c 0,48.423 37.645,89.961 86.06,90.846 4.616,0.085 9.251,-0.298 13.683,-0.898 -43.305,-6.171 -75.729,-45.073 -75.729,-89.948 z"
     id="path5-8" /><path
     d="m 136.094,359.447 c -0.602,0 -1.205,-0.005 -1.809,-0.017 C 82.462,358.482 40.3,314.216 40.3,260.755 v -52.267 c 0,-6.243 2.844,-11.966 7.802,-15.702 5.102,-3.843 11.892,-5.065 18.163,-3.266 8,2.295 23.183,1.959 50.079,-12.679 33.495,-18.227 62.096,-17.211 80.19,-13.151 19.844,4.454 31.747,13.426 32.244,13.806 l 3.076,2.35 v 83.821 c 0,25.914 -10.185,50.186 -28.679,68.344 -18.06,17.735 -41.821,27.436 -67.081,27.436 z M 60.41,204.355 c -1.058,0 -2.062,0.321 -2.885,0.94 -0.714,0.538 -1.564,1.529 -1.564,3.193 v 52.267 c 0,44.983 35.263,82.224 78.609,83.016 21.688,0.403 42.166,-7.746 57.63,-22.931 15.47,-15.189 23.99,-35.492 23.99,-57.169 v -75.757 c -10.319,-6.236 -45.328,-22.912 -92.361,2.686 -25.334,13.787 -46.156,18.487 -61.883,13.977 -0.516,-0.148 -1.032,-0.222 -1.536,-0.222 z"
     id="path6-9" /><g
     id="g7">
	<rect
   x="40.252998"
   y="142.377"
   style="fill:#ffffff"
   width="15.662"
   height="25.059"
   id="rect6" />
	<rect
   x="40.252998"
   y="48.405998"
   style="fill:#ffffff"
   width="15.662"
   height="78.308998"
   id="rect7" />
</g><path
     d="M 217.762,0 H 54.388 C 24.577,0 0.324,24.253 0.324,54.064 v 209.608 c 0,58.434 37.112,108.362 89.003,127.454 v 31.079 h 37.589 v 16.706 h 15.662 v -16.706 h 40.721 v -31.26 c 51.64,-19.222 88.527,-69.019 88.527,-127.273 V 54.064 C 271.826,24.253 247.573,0 217.762,0 Z m -50.125,406.543 h -62.648 v -10.717 c 9.987,2.348 20.393,3.596 31.086,3.596 10.863,0 21.43,-1.291 31.562,-3.713 z m 88.527,-142.872 c 0,66.217 -53.872,120.089 -120.089,120.089 -66.217,0 -120.09,-53.872 -120.09,-120.089 V 54.064 C 15.986,32.889 33.213,15.662 54.388,15.662 h 163.374 c 21.175,0 38.402,17.227 38.402,38.402 z"
     id="path7-7"
     style="fill:#666666" /><rect
     x="351.401"
     y="126.715"
     width="15.662"
     height="33.411999"
     id="rect8" /><path
     d="M 495.686,313.135 V 51.803 C 495.686,23.239 472.447,0 443.882,0 415.318,0 392.079,23.239 392.079,51.803 v 67.958 h 15.662 V 51.803 c 0,-19.928 16.213,-36.141 36.141,-36.141 19.928,0 36.141,16.213 36.141,36.141 v 261.33 c -9.299,3.247 -15.99,12.1 -15.99,22.493 v 47.969 c 0,10.392 6.692,19.245 15.99,22.493 v 33.473 h 15.662 v -33.473 c 9.299,-3.247 15.991,-12.1 15.991,-22.493 v -47.969 c 0,-10.392 -6.691,-19.245 -15.99,-22.491 z m 0.328,70.461 c 0,4.499 -3.661,8.159 -8.16,8.159 -4.499,0 -8.159,-3.66 -8.159,-8.159 v -47.969 c 0,-4.499 3.661,-8.16 8.159,-8.16 4.499,0 8.16,3.66 8.16,8.16 z"
     id="path8-3"
     style="fill:#999999" /><path
     d="m 327.955,366.866 h 39.975 c 21.977,0 39.855,-17.601 39.855,-39.235 V 231.526 H 423.73 V 127.92 h -47.641 v 103.607 h 16.034 v 96.105 c 0,13.219 -10.627,23.573 -24.193,23.573 h -39.975 c -21.951,0 -39.81,18.033 -39.81,40.199 0,22.166 17.859,40.199 39.81,40.199 h 47.97 c 17.724,0 32.143,14.521 32.143,32.368 0,17.847 -14.42,32.368 -32.143,32.368 h -207.87 c -13.572,0 -25.477,-11.588 -25.477,-24.796 v -24.278 h -15.662 v 24.278 c 0,21.931 18.839,40.458 41.139,40.458 h 207.871 c 26.36,0 47.805,-21.547 47.805,-48.03 0,-26.483 -21.445,-48.03 -47.805,-48.03 h -47.97 c -13.316,0 -24.149,-11.007 -24.149,-24.537 -0.001,-13.53 10.832,-24.538 24.148,-24.538 z m 63.797,-223.284 h 16.318 v 72.283 h -16.318 z"
     id="path9-6"
     style="fill:#6c6753" /><path
     d="m 96.099,167.567 c -13.135,0 -23.821,-10.686 -23.821,-23.821 0,-13.135 10.686,-23.821 23.821,-23.821 13.135,0 23.821,10.686 23.821,23.821 0.001,13.135 -10.686,23.821 -23.821,23.821 z m 0,-31.98 c -4.499,0 -8.159,3.66 -8.159,8.159 0,4.499 3.661,8.159 8.159,8.159 4.498,0 8.159,-3.66 8.159,-8.159 0.001,-4.499 -3.66,-8.159 -8.159,-8.159 z"
     id="path10-1" /><rect
     x="112.296"
     y="40.053001"
     width="48.029999"
     height="15.662"
     id="rect10" /></g><path
   style="fill:#B3B3B3;"
   d="M220.316,249.432c23.787,0,47.569,0,71.356,0l0.388,4.877l-34.872,52.862l-37.458-53.389l0.582-4.35  H220.316z"
   id="path1" />
<path
   style="fill:#F0BA7D;"
   d="M220.777,236.167l-0.619,29.819l-50.589,27.666v101.405h85.166h85.152V293.652l-47.019-29.223  l-2.582-29.814l-69.508,1.557V236.167z"
   id="path2" />
<path
   style="fill:#FED298;"
   d="M197.401,149.214c0,0-2.9-6.374-10.688-3.215c-7.787,3.155,0.351,34.65,3.326,39.047  c2.974,4.392,7.764,1.603,9.51,1.427c2.48,18.775,2.702,31.717,10.217,39.634c7.117,7.496,23.417,22.776,32.003,28.1  c5.815,1.229,10.152,1.949,14.235,2.166c4.078-0.217,8.42-0.937,14.235-2.166c8.586-5.326,24.886-20.605,32.003-28.1  c7.514-7.917,7.737-20.853,10.217-39.634c1.746,0.176,6.531,2.965,9.51-1.427c2.974-4.392,11.117-35.888,3.326-39.047  c-7.787-3.159-10.688,3.215-10.688,3.215s7.7-24.734-5.986-49.079c-9.376-16.687-30.766-25.339-52.612-25.976  c-21.846,0.633-43.237,9.288-52.612,25.976c-13.685,24.345-5.986,49.079-5.986,49.079L197.401,149.214L197.401,149.214z"
   id="path3" />
<path
   style="fill:#21D0C3;"
   d="M195.35,274.761c5.445,44.982,121.031,43.708,121.298,0.005l38.013,64.612l-30.105,163.324  C302.733,508.753,279.75,512,256,512c-19.371,0-38.229-2.166-56.368-6.24l-53.956-161.223l49.68-69.776L195.35,274.761  L195.35,274.761z"
   id="path4" />
<path
   style="fill:#b3b3b3;stroke:#000000;stroke-opacity:1"
   d="M206.385,271.279c-134.374,43.699-95.863,22.387-126.24,170.746  c18.267,17.274,39.08,31.879,61.813,43.209l13.487-44.008c0.157-0.503,0.638-0.817,1.16-0.758s0.919,0.48,0.951,1.007l1.949,51.689  c29.782,12.133,62.353,18.83,96.5,18.83V405.006l-49.615-133.732L206.385,271.279z"
   id="path5" />
<path
   style="fill:#cccccc;stroke:#000000;stroke-opacity:1"
   d="M305.587,271.584c134.484,43.277,95.891,22.096,126.268,170.442  c-18.267,17.274-39.084,31.879-61.817,43.214l-13.487-44.008c-0.153-0.503-0.638-0.822-1.164-0.758  c-0.522,0.065-0.919,0.485-0.947,1.007l-1.94,51.689C322.718,505.303,290.142,512,256.005,512V405.011l49.587-133.427H305.587z"
   id="path6" />
<path
   style="fill:#FEFEFE;"
   d="M346.394,409.066c-9.991-1.723-16.692-11.224-14.965-21.21c1.723-9.99,11.224-16.692,21.21-14.97  c9.991,1.723,16.692,11.224,14.965,21.214c-1.723,9.99-11.224,16.692-21.214,14.965h0.004V409.066z"
   id="path7" />
<path
   style="fill:#21D0C3;"
   d="M346.574,408.013c-9.409-1.626-15.717-10.567-14.096-19.976c1.626-9.409,10.567-15.722,19.976-14.096  s15.717,10.572,14.096,19.981C364.924,403.329,355.983,409.639,346.574,408.013z"
   id="path8" />
<path
   style="fill:#EBECEC;"
   d="M347.891,400.406c-5.201-0.896-8.697-5.852-7.797-11.052c0.896-5.206,5.848-8.697,11.052-7.797  c5.205,0.9,8.697,5.848,7.797,11.052C358.047,397.815,353.095,401.306,347.891,400.406z"
   id="path9" />
<path
   style="fill:#FEFEFE;"
   d="M349.012,382.578l4.203,0.726l2.259-13.089l-4.203-0.726L349.012,382.578z"
   id="path10" />
<path
   style="fill:#21D0C3;"
   d="M208.237,412.701l7.875-1.561c3.348-0.665,6.12-2.637,7.885-5.28  c1.765-2.643,2.531-5.958,1.866-9.302l-9.261-46.668c-3.496-17.612-17.274-26.59-33.015-28.581  c-6.032-0.763-12.355-0.485-18.484,0.73c-6.129,1.21-12.073,3.371-17.357,6.379c-13.755,7.834-23.025,21.375-19.524,39.015  l9.261,46.668c0.665,3.348,2.637,6.115,5.28,7.885l0.005-0.005c2.642,1.769,5.953,2.531,9.298,1.87l7.871-1.561l-0.642-3.247  l-7.875,1.561c-2.452,0.485-4.886-0.074-6.822-1.367l0,0c-1.94-1.297-3.385-3.331-3.875-5.783l-9.261-46.668  c-3.178-16.004,5.317-28.341,17.902-35.505c4.974-2.835,10.581-4.868,16.374-6.018c5.788-1.146,11.75-1.404,17.436-0.689  c14.406,1.819,27.01,9.982,30.179,25.957l9.265,46.668c0.485,2.452-0.079,4.882-1.371,6.822c-1.297,1.935-3.331,3.385-5.783,3.87  l-7.875,1.561l0.642,3.247h0.006V412.701z"
   id="path11" />
<path
   style="fill:#4D4D4D;"
   d="M219.101,356.8l-1.418-7.131c-3.603-18.157-17.777-27.412-33.962-29.458  c-6.148-0.776-12.59-0.499-18.831,0.739c-6.245,1.234-12.3,3.436-17.68,6.498c-14.147,8.055-23.671,22.004-20.064,40.188  l1.418,7.131l5.404-1.076l-1.418-7.127c-3.067-15.459,5.168-27.393,17.362-34.336c4.872-2.776,10.369-4.767,16.046-5.893  c5.677-1.127,11.52-1.381,17.09-0.675c13.963,1.765,26.165,9.653,29.232,25.08l1.413,7.131L219.101,356.8z"
   id="path12" />
<g
   id="g14">
	<path
   style="fill:#076673;"
   d="M153.704,424.234l4.213-0.836c1.058,1.187,2.693,1.796,4.364,1.464   c2.508-0.499,4.138-2.933,3.64-5.441c-0.494-2.503-2.933-4.134-5.441-3.635c-1.672,0.332-2.951,1.52-3.473,3.021l-4.213,0.836   L153.704,424.234z"
   id="path13" />
	<path
   style="fill:#076673;"
   d="M211.586,412.747l-4.208,0.836c-0.522,1.496-1.801,2.688-3.473,3.021   c-2.508,0.494-4.942-1.132-5.441-3.64c-0.494-2.503,1.132-4.942,3.635-5.436c1.668-0.332,3.308,0.281,4.36,1.464l4.213-0.836   l0.91,4.591L211.586,412.747L211.586,412.747z"
   id="path14" />
</g>
<path
   style="fill:#666666;"
   d="M167.458,320.534l-1.607-8.097l-3.196,0.638l-3.192,0.633l1.626,8.175  c1.215-0.355,2.448-0.656,3.695-0.9c0.887-0.176,1.779-0.323,2.674-0.443V320.534z"
   id="path15" />
<g
   id="g17">
	<path
   style="fill:#0F7986;"
   d="M160.562,419.731c0.758-0.153,1.252-0.891,1.099-1.644c-0.148-0.758-0.887-1.252-1.644-1.104   c-0.758,0.153-1.252,0.887-1.099,1.644c0.153,0.758,0.887,1.252,1.645,1.099L160.562,419.731L160.562,419.731z"
   id="path16" />
	<path
   style="fill:#0F7986;"
   d="M202.219,411.449c0.758-0.148,1.247-0.887,1.099-1.644c-0.153-0.763-0.887-1.252-1.644-1.104   c-0.758,0.153-1.252,0.887-1.099,1.649c0.148,0.758,0.887,1.247,1.649,1.099L202.219,411.449L202.219,411.449z"
   id="path17" />
</g>
<path
   style="fill:#FEFEFE;"
   d="M347.378,400.318c-4.923-0.85-8.226-5.528-7.377-10.453c0.85-4.919,5.528-8.221,10.453-7.372  c4.923,0.85,8.226,5.528,7.377,10.453c-0.85,4.923-5.533,8.226-10.453,7.377V400.318z"
   id="path18" />
<g
   id="g20">
	<path
   style="fill:#4D4D4D;"
   d="M206.432,268.715c-0.143,0-49.86,0.416-41.463,43.91l-4.623,0.882   c-9.469-49.037,45.873-49.49,46.031-49.49L206.432,268.715z"
   id="path19" />
	<path
   style="fill:#4D4D4D;"
   d="M305.643,264.245c8.11,0.217,23.792,2.429,35.86,17.113c11.81,14.364,20.092,40.751,13.898,89.129   l-4.66-0.591c5.99-46.821-1.751-72.029-12.868-85.554c-10.859-13.21-25.02-15.2-32.345-15.399l0.111-4.697h0.004V264.245z"
   id="path20" />
</g>
<path
   style="fill:#FEFEFE;"
   d="M256,256.369c0,0-9.847-0.522-14.281-1.833c-4.434-1.311-32.003-28.1-32.003-28.1l0.863-39.477  l38.498-1.756c0,0,4.582-2.73,6.923-2.153c2.346-0.577,6.923,2.153,6.923,2.153l38.498,1.756l0.863,39.477  c0,0-27.569,26.789-32.004,28.1C265.847,255.847,256,256.369,256,256.369z"
   id="path21" />
<path
   style="fill:#EEF3F7;"
   d="M256,183.051l3.118,10.887l-1.658,7.602l3.413,18.327l-3.589,17.524l-1.288,18.979  c0,0,9.847-0.522,14.281-1.833c4.434-1.311,32.004-28.1,32.004-28.1l-0.863-39.477l-38.498-1.756c0,0-4.582-2.73-6.923-2.153H256z"
   id="path22" />
<g
   id="g25">
	<path
   style="fill:#21D0C3;"
   d="M194.751,141.427l18.679,46.525l-2.194,0.836l-18.679-46.525L194.751,141.427z"
   id="path23" />
	<path
   style="fill:#21D0C3;"
   d="M318.723,142.928l-17.579,46.543l-2.268-0.638l17.579-46.543L318.723,142.928z"
   id="path24" />
	<path
   style="fill:#21D0C3;"
   d="M255.829,63.263c0,0-57.697,8.655-62.376,20.756s-8.577,9.353-7.409,23.653   c1.169,14.3,0.665,38.331,0.665,38.331c49.485-18.041,89.207-18.696,138.235,0c0,0-0.503-24.031,0.665-38.331   c1.169-14.3-2.73-11.551-7.409-23.653c-4.679-12.101-62.376-20.756-62.376-20.756S255.829,63.263,255.829,63.263z"
   id="path25" />
</g>
<path
   style="fill:#15BDB2;"
   d="M255.829,63.263l-0.281,0.042c0,0,56.964,14.485,57.55,18.881c0.587,4.397-2.171,8.554,4.485,10.817  c6.656,2.264,4.872,12.651,4.872,12.651l-1.035,39.518l0.323,0.378l3.206,0.443c0,0-0.503-24.031,0.665-38.331  s-2.73-11.551-7.409-23.653c-4.679-12.101-62.376-20.756-62.376-20.756L255.829,63.263L255.829,63.263z"
   id="path26" />
<g
   id="g23"
   transform="matrix(0.29415456,0,0,0.31588071,336.26759,118.08343)"><path
     style="fill:#bcaaa4"
     d="m 256.125,113.953 v 0 c 0.4,-0.4 0.4,-0.4 0.4,-0.4 0,0 0.4,0 0.4,-0.4 v 0 0 0 c 10,-2 19.2,-7.2 26.4,-14 10.4,-10 16,-23.6 16.4,-38 0,-14.4 -5.2,-28 -15.2,-38.4 -20.8,-21.2 -54.8,-21.6 -76.4,-0.8 -16.4,16 -20.8,40.4 -11.2,61.2 0,0.4 0,0.8 0,0.8 l 85.2,216.8 67.2,64 c 0.4,-0.4 -93.2,-250.8 -93.2,-250.8 z"
     id="path1-9" /><path
     style="fill:#e0e0e0"
     d="m 117.325,134.353 c -20.8,-21.2 -54.8,-21.6 -76.4,-0.8 -21.2,20.8 -21.6,54.8 -0.8,76.4 10,10.4 23.6,16 38,16.4 14.4,0 28,-5.2 38.4,-15.2 2,-2 3.6,-4 5.2,-6 0.4,-0.4 0.8,-0.8 185.6,188.4 l 24.8,-40.4 z"
     id="path2-3" /><path
     style="fill:#bcaaa4"
     d="m 341.325,417.153 c -1.2,0 -2.4,0.4 -3.6,0.4 v 0 c -0.8,0 -1.6,0 -2,0 l 116,79.6 -62.4,-79.6 h -46.8 c -0.4,0 -0.8,-0.4 -1.2,-0.4 z"
     id="path3-1" /><path
     style="fill:#e0e0e0"
     d="m 354.925,411.953 14.8,1.6 h 114 c 0,-5.2 -1.2,-20 -10.8,-30.8 -7.6,-8.4 -19.2,-12.8 -34.4,-13.2 h -76.4 c 0.4,0.8 0.8,1.2 1.6,2 8,13.2 4.4,31.2 -8.8,40.4 z"
     id="path4-9" /><path
     style="fill:#ffcdd2"
     d="m 354.125,412.753 c -0.4,0.4 -0.8,0.4 -1.6,0.8 h 17.2 l -14.8,-1.6 c -0.4,0.4 -0.8,0.4 -0.8,0.8 z"
     id="path5-4" /><path
     style="fill:#eeeeee"
     d="m 343.725,410.753 12.8,-41.2 c -4.8,-5.2 -11.6,-8 -18.8,-8 -4.8,0 -9.6,1.6 -14,4 -6,3.6 -10,9.6 -11.2,16.4 -1.2,5.6 -0.4,11.6 2,16.8 v 0 c 0.4,0.8 0.8,1.6 1.6,2.4 1.6,2.4 3.2,4 5.2,6 l 2.4,1.6 z"
     id="path6-7" /><g
     id="g9">
	<path
   style="fill:#ffcdd2"
   d="m 337.725,413.153 c 2,0 3.6,-0.4 5.6,-0.8 l 0.4,-1.6 -20,-2 2,1.2 c 3.6,2.4 7.6,3.2 12,3.2 z"
   id="path7-8" />
	<path
   style="fill:#ffcdd2"
   d="m 321.325,407.153 c 0.8,0.8 1.6,1.2 2.4,1.6 h 0.4 z"
   id="path8-4" />
	<path
   style="fill:#ffcdd2"
   d="m 323.325,408.753 c 0.8,0.4 1.6,0.8 2,1.2 z"
   id="path9-5" />
</g><path
     style="fill:#eeeeee"
     d="m 347.725,411.153 c 1.2,-0.4 2.8,-1.2 4,-2 12,-7.6 15.6,-23.6 8,-35.6 -0.8,-1.6 -2,-2.8 -3.2,-4 l -12.8,41.2 z"
     id="path10-0" /><g
     id="g12">
	<path
   style="fill:#ffcdd2"
   d="m 343.325,412.753 c 1.6,-0.4 3.2,-0.8 4.4,-1.6 l -4,-0.4 z"
   id="path11-3" />
	<path
   style="fill:#ffcdd2"
   d="M 314.525,398.753 Z"
   id="path12-6" />
</g><path
     d="m 282.525,304.353 c -1.6,0 -3.2,-0.8 -3.6,-2.4 l -88.8,-219.6 c -0.8,-2 0,-4.4 2.4,-5.2 2,-0.8 4.4,0 5.2,2.4 l 88.4,219.6 c 0.8,2 0,4.4 -2.4,5.2 -0.4,0 -0.8,0 -1.2,0 z"
     id="path13-1" /><path
     d="m 459.725,508.353 c -0.8,0 -1.6,-0.4 -2.4,-0.8 l -140,-95.6 c -2,-1.2 -2.4,-3.6 -1.2,-5.6 1.2,-2 3.6,-2.4 5.6,-1.2 l 6,4 112.8,77.2 -53.6,-68.8 c -1.2,-1.6 -1.2,-4.4 0.8,-5.6 1.6,-1.2 4.4,-1.2 5.6,0.8 l 69.2,88.8 c 1.2,1.6 1.2,3.6 -0.4,5.2 -0.4,1.2 -1.6,1.6 -2.4,1.6 z"
     id="path14-0" /><path
     d="m 353.725,368.353 c -1.6,0 -3.2,-0.8 -3.6,-2.4 l -95.6,-249.6 c -0.8,-2 0.4,-4.4 2.4,-5.2 2,-0.8 4.4,0.4 5.2,2.4 l 95.6,249.6 c 0.8,2 -0.4,4.4 -2.4,5.2 -0.8,0 -1.2,0 -1.6,0 z"
     id="path15-6" /><path
     d="m 340.125,363.553 c -1.2,0 -2,-0.4 -2.8,-1.2 l -223.6,-228.8 c -1.6,-1.6 -1.6,-4 0,-5.6 1.6,-1.6 4,-1.6 5.6,0 l 223.6,228.8 c 1.6,1.6 1.6,4 0,5.6 -0.8,0.8 -1.6,1.2 -2.8,1.2 z"
     id="path16-3" /><path
     d="m 342.525,419.553 c -2.4,0 -4,-1.6 -4,-4 0,-2.4 1.6,-4 4,-4 h 139.2 c -0.4,-6 -2,-18.4 -10.4,-27.6 -7.2,-8 -18.4,-12 -32.8,-12.4 h -80.8 c -2.4,0 -4,-2 -4,-4 0,-2 1.6,-4 4,-4 v 0 h 80.8 c 16.8,0 30,5.2 38.8,15.2 14,15.2 12.4,36 12.4,37.2 0,2 -2,3.6 -4,3.6 z"
     id="path17-2" /><path
     d="m 312.525,403.553 c -1.2,0 -2,-0.4 -2.8,-1.2 l -189.2,-193.6 c -1.6,-1.6 -1.6,-4 0,-5.6 1.6,-1.6 4,-1.6 5.6,0 l 189.2,193.6 c 1.6,1.6 1.6,4 0,5.6 -0.4,0.8 -1.6,1.2 -2.8,1.2 z"
     id="path18-0" /><path
     d="m 78.525,231.953 c -15.6,0 -31.2,-6 -42.8,-18 -23.2,-23.6 -22.8,-61.6 0.8,-84.8 23.6,-23.2 61.6,-22.8 84.8,0.8 1.6,1.6 1.6,4 0,5.6 -1.6,1.6 -4,1.6 -5.6,0 -20,-20.4 -52.8,-20.8 -73.6,-0.8 -20.4,20 -20.8,52.8 -0.8,73.6 20,20.4 52.8,20.8 73.6,0.8 2,-2 3.6,-3.6 5.2,-6 1.2,-1.6 4,-2 5.6,-0.8 1.6,1.2 2,4 0.8,5.6 -1.6,2.4 -3.6,4.4 -6,6.8 -11.6,11.6 -26.8,17.2 -42,17.2 z"
     id="path19-6" /><path
     d="m 337.725,419.153 c -10.4,0 -20.8,-5.2 -26.8,-14.8 -4.4,-7.2 -6,-15.6 -4.4,-24 2,-8.4 6.8,-15.6 14,-20 7.2,-4.4 15.6,-6 24,-4.4 8.4,2 15.6,6.8 20,14 v 0 c 9.6,14.8 5.2,34.4 -9.6,44 -5.2,3.6 -11.2,5.2 -17.2,5.2 z m 0,-55.6 c -4.4,0 -8.8,1.2 -12.8,3.6 -5.2,3.6 -9.2,8.8 -10.4,15.2 -1.2,6.4 -0.4,12.8 3.2,18 7.2,11.2 22,14.4 33.2,7.2 11.2,-7.2 14.4,-22 7.2,-33.2 v 0 c -3.6,-5.2 -8.8,-9.2 -14.8,-10.4 -2,-0.4 -4,-0.4 -5.6,-0.4 z"
     id="path20-1" /><path
     d="m 78.525,211.153 c -10.4,0 -20.8,-4 -28.4,-12 -15.2,-15.6 -15.2,-40.8 0.8,-56.4 15.6,-15.2 40.8,-15.2 56.4,0.8 7.6,7.6 11.6,17.6 11.2,28.4 -0.4,10.8 -4.4,20.4 -12,28 -8,7.6 -18,11.2 -28,11.2 z m 0,-71.2 c -8,0 -16,3.2 -22,9.2 -12.4,12.4 -12.8,32.4 -0.4,44.8 12.4,12.4 32.4,12.8 44.8,0.4 6,-6 9.6,-14 9.6,-22.4 0,-8.4 -3.2,-16.4 -9.2,-22.4 v 0 c -6.4,-6.4 -14.4,-9.6 -22.8,-9.6 z"
     id="path21-5" /><path
     d="m 257.725,118.753 c -2,0 -3.6,-1.2 -4,-3.2 -0.4,-2 0.8,-4.4 3.2,-4.8 9.6,-2 18.4,-6.8 25.2,-13.6 10,-9.6 15.6,-22.8 15.6,-36.4 0,-14 -5.2,-26.8 -14.8,-36.8 -20,-20.4 -52.8,-20.8 -73.6,-0.8 -15.6,15.2 -20,39.2 -10.8,58.8 0.8,2 0,4.4 -2,5.2 -2,0.8 -4.4,0 -5.2,-2 -10.8,-22.8 -5.6,-50.4 12.4,-68 23.6,-23.2 61.6,-22.8 84.8,0.8 11.2,11.6 17.2,26.4 17.2,42.4 0,16 -6.4,30.8 -18,42 -8,8 -18.4,13.2 -29.2,15.6 0,0.8 -0.4,0.8 -0.8,0.8 z"
     id="path22-5" /><path
     d="m 246.125,99.553 c -10.4,0 -20.8,-4 -28.4,-12 -15.2,-15.6 -15.2,-40.8 0.8,-56.4 7.6,-7.6 17.6,-11.6 28.4,-11.2 10.8,0 20.4,4.4 28,12 7.6,7.6 11.6,17.6 11.2,28.4 0,10.8 -4.4,20.4 -12,28 -8,7.6 -18,11.2 -28,11.2 z m 0,-71.6 c -8.4,0 -16,3.2 -22,9.2 -12.4,12.4 -12.8,32.4 -0.4,44.8 12.4,12.4 32.4,12.8 44.8,0.4 6,-6 9.6,-14 9.6,-22.4 0,-8.4 -3.2,-16.4 -9.2,-22.4 v 0 c -6,-6 -14,-9.2 -22.8,-9.6 0.4,0 0,0 0,0 z"
     id="path23-4" /></g></svg>
