<svg xmlns="http://www.w3.org/2000/svg" enable-background="new 0 0 64 64" viewBox="0 0 64 64" id="chinese-language"><path d="M31.82,0.11c-17.65,0-32,14.36-32,32c0,17.65,14.35,32,32,32c17.64,0,32-14.35,32-32C63.82,14.47,49.46,0.11,31.82,0.11z
		 M31.82,61.25c-16.07,0-29.14-13.07-29.14-29.14c0-16.06,13.07-29.13,29.14-29.13c16.06,0,29.13,13.07,29.13,29.13
		C60.95,48.18,47.88,61.25,31.82,61.25z"></path><path fill="#b2b0d5" d="M31.82,2.98c-16.07,0-29.14,13.07-29.14,29.13c0,16.07,13.07,29.14,29.14,29.14
		c16.06,0,29.13-13.07,29.13-29.14C60.95,16.05,47.88,2.98,31.82,2.98z M48.84,39.05H32.63v10.22c0,0.79-0.64,1.43-1.44,1.43H25.2
		c-0.79,0-1.44-0.64-1.44-1.43c0-0.79,0.65-1.43,1.44-1.43h4.56v-8.79H15.43c-0.79,0-1.43-0.64-1.43-1.43
		c0-0.79,0.64-1.43,1.43-1.43h14.33v-4.08c0-0.56,0.32-1.06,0.83-1.3l5.61-2.61l-15.51-0.63c-0.79-0.03-1.41-0.69-1.38-1.48
		c0.03-0.79,0.68-1.43,1.49-1.38l21.42,0.86c0.66,0.02,1.21,0.5,1.34,1.15c0.13,0.65-0.2,1.3-0.8,1.58l-10.13,4.72v3.17h16.21
		c0.79,0,1.43,0.64,1.43,1.43C50.27,38.41,49.63,39.05,48.84,39.05z M50.27,27c0,0.79-0.64,1.43-1.43,1.43
		c-0.79,0-1.43-0.64-1.43-1.43v-6.11H16.86V27c0,0.79-0.64,1.43-1.43,1.43S14,27.79,14,27v-7.54c0-0.79,0.64-1.43,1.43-1.43h13.82
		v-4.22c0-0.79,0.64-1.44,1.43-1.44c0.79,0,1.43,0.65,1.43,1.44v4.22h16.73c0.79,0,1.43,0.64,1.43,1.43V27z"></path><path d="M50.27,19.46V27c0,0.79-0.64,1.43-1.43,1.43c-0.79,0-1.43-0.64-1.43-1.43v-6.11H16.86V27c0,0.79-0.64,1.43-1.43,1.43
		S14,27.79,14,27v-7.54c0-0.79,0.64-1.43,1.43-1.43h13.82v-4.22c0-0.79,0.64-1.44,1.43-1.44c0.79,0,1.43,0.65,1.43,1.44v4.22h16.73
		C49.63,18.03,50.27,18.67,50.27,19.46z"></path><path d="M50.27,37.62c0,0.79-0.64,1.43-1.43,1.43H32.63v10.22c0,0.79-0.64,1.43-1.44,1.43H25.2c-0.79,0-1.44-0.64-1.44-1.43
		c0-0.79,0.65-1.43,1.44-1.43h4.56v-8.79H15.43c-0.79,0-1.43-0.64-1.43-1.43c0-0.79,0.64-1.43,1.43-1.43h14.33v-4.08
		c0-0.56,0.32-1.06,0.83-1.3l5.61-2.61l-15.51-0.63c-0.79-0.03-1.41-0.69-1.38-1.48c0.03-0.79,0.68-1.43,1.49-1.38l21.42,0.86
		c0.66,0.02,1.21,0.5,1.34,1.15c0.13,0.65-0.2,1.3-0.8,1.58l-10.13,4.72v3.17h16.21C49.63,36.19,50.27,36.83,50.27,37.62z"></path></svg>