<?xml version="1.0" encoding="UTF-8" standalone="no"?>
<!-- Uploaded to: SVG Repo, www.svgrepo.com, Generator: SVG Repo Mixer Tools -->

<svg
   height="800px"
   width="800px"
   version="1.1"
   id="Capa_1"
   viewBox="0 0 496.468 496.468"
   xml:space="preserve"
   sodipodi:docname="image.svg"
   inkscape:version="1.4.3 (fcd0343856, 2026-01-01)"
   xmlns:inkscape="http://www.inkscape.org/namespaces/inkscape"
   xmlns:sodipodi="http://sodipodi.sourceforge.net/DTD/sodipodi-0.dtd"
   xmlns="http://www.w3.org/2000/svg"
   xmlns:svg="http://www.w3.org/2000/svg"><defs
   id="defs5">
	

		
		
		
		
		
		
	</defs><sodipodi:namedview
   id="namedview5"
   pagecolor="#ffffff"
   bordercolor="#000000"
   borderopacity="0.25"
   inkscape:showpageshadow="2"
   inkscape:pageopacity="0.0"
   inkscape:pagecheckerboard="0"
   inkscape:deskcolor="#d1d1d1"
   inkscape:zoom="1.49375"
   inkscape:cx="400"
   inkscape:cy="400"
   inkscape:window-width="2560"
   inkscape:window-height="1403"
   inkscape:window-x="0"
   inkscape:window-y="0"
   inkscape:window-maximized="1"
   inkscape:current-layer="Capa_1" />
<g
   id="g5"
   transform="translate(-5.6085885,2.8683887)"><ellipse
     style="fill:#ff6600;stroke-width:1.18898"
     cx="319.09058"
     cy="98.459084"
     id="circle1"
     rx="44.74329"
     ry="44.359329" /><path
     style="fill:#ff6600;stroke-width:1.18898"
     d="m 407.47978,271.13726 c 0,-12.48147 -21.29456,-103.99167 -21.29456,-103.99167 -3.85578,-17.83489 -22.10058,-26.39777 -37.58579,-26.84645 l -0.14807,0.008 c 0,0 -5.46186,0.0272 -10.16188,0.92934 -4.91614,0.92341 -9.23405,3.28048 -9.23405,3.28048 -8.13188,3.90675 -15.90792,10.81814 -20.26643,19.40943 -30.07484,3.11 -56.51959,-3.35389 -73.58223,-18.41735 -6.10787,-5.37 -14.91085,-5.66715 -21.36381,-1.29397 L 149.14609,91.27539 c -2.01565,-1.652672 -5.02839,-1.376832 -6.69895,0.635734 -1.67534,2.003096 -1.38875,4.986429 0.64123,6.641469 l 64.70881,52.957727 c -2.91363,6.64146 -1.44965,14.63372 4.30238,19.71012 20.70705,18.28831 49.80273,27.95928 82.51775,27.95928 4.7442,0 9.56124,-0.22375 14.43201,-0.64047 l 14.54426,65.70201 c -43.81308,10.65713 -51.14014,22.86393 -53.90092,27.91311 -9.23524,16.94462 -22.07192,87.49691 -27.16719,117.0473 -2.18641,12.77033 6.48879,24.91202 19.37921,27.0998 1.3374,0.23559 2.68555,0.34687 4.0134,0.32793 11.32016,0 21.33277,-8.07868 23.32693,-19.52189 6.7921,-39.44867 21.1859,-101.49727 21.1859,-101.49727 32.42127,2.45414 97.04887,-3.1621 97.04887,-44.47298 z"
     id="path1" /><path
     style="fill:#800080;stroke-width:1.18898"
     d="m 442.87439,213.74952 v -37.04779 h -19.04605 v 37.04779 c 0,60.31188 -7.39871,106.46002 -100.64793,106.46002 v 18.87195 c 14.60516,0 27.37855,-1.15426 38.67483,-3.26746 v 56.7674 h -21.0223 c -21.64921,0 -39.25516,17.44539 -39.25516,38.92895 h 19.04605 c 0,-11.07149 9.0609,-20.06292 20.22583,-20.06292 h 61.07871 c 11.15656,0 20.21866,8.99499 20.21866,20.06292 h 19.04605 c 0,-21.48237 -17.60715,-38.92895 -39.25516,-38.92895 h -21.02111 v -61.68161 c 56.19003,-19.25434 61.95758,-69.44419 61.95758,-117.1503 z"
     id="path2" /><path
     style="fill:#d45500;stroke-width:0.585433"
     d="m 113.89618,269.93322 c 13.70901,0 24.82315,-9.82719 24.82315,-21.95169 0,-12.12282 -11.11352,-21.95223 -24.82315,-21.95223 -13.71211,0 -24.825622,9.82941 -24.825002,21.95223 0,12.1245 11.113512,21.95169 24.825002,21.95169 z"
     id="path3" /><path
     style="fill:#d45500;stroke-width:0.585433"
     d="m 169.37285,296.93915 c -2.13356,-4.31382 -7.81327,-6.28355 -12.69671,-4.38372 -15.52317,6.02204 -26.60806,3.04598 -35.88374,-9.53598 -3.84561,-6.16299 -7.02197,-9.9318 -12.42527,-12.25441 0,0 -2.39565,-1.16379 -5.12376,-1.62511 -2.6123,-0.43821 -5.645459,-0.45308 -5.645459,-0.45308 l -0.0697,-0.005 c -8.597713,0.2191 -18.720083,4.4586 -20.858613,13.28387 l -11.4746,47.38424 c -1.53215,6.31988 1.67409,11.96924 6.84392,15.87568 l -0.0504,70.11049 c -0.005,6.41568 5.87645,11.62297 13.13438,11.62297 h 0.005 c 7.25731,0 13.138743,-5.19573 13.143723,-11.61581 l 0.0504,-66.17103 c 5.429439,-1.91083 10.019039,-5.60422 11.414209,-11.38129 l 7.93591,-32.75989 c 7.38494,4.97994 15.74171,7.55799 24.83497,7.55799 6.92798,0 14.26747,-1.46327 21.90952,-4.42668 4.87722,-1.8877 7.09544,-6.91498 4.95628,-11.22384 z"
     id="path4" /></g>
</svg>
