<?xml version="1.0" encoding="iso-8859-1"?>
<!-- Uploaded to: SVG Repo, www.svgrepo.com, Generator: SVG Repo Mixer Tools -->
<svg version="1.1" id="Layer_1" xmlns="http://www.w3.org/2000/svg" xmlns:xlink="http://www.w3.org/1999/xlink" 
	 viewBox="0 0 512 512" xml:space="preserve">
<rect x="152.313" y="448.135" style="fill:#6B6B6B;" width="207.37" height="63.864"/>
<rect x="216.006" y="339.895" style="fill:#999999;" width="79.996" height="108.23"/>
<polygon style="fill:#515151;" points="216.001,394.017 256.001,415.497 296.001,397.498 296.001,356.497 216.001,356.497 "/>
<g>
	<rect x="64.499" y="0.002" style="fill:#333333;" width="385.469" height="32"/>
	<path style="fill:#333333;" d="M132.513,292.497C-1.735,250.682,0.001,99.874,0.001,98.354l0.344-15.656h94.904v32H32.753
		c3.28,35.328,20.504,119.592,109.263,147.2L132.513,292.497z"/>
	<path style="fill:#333333;" d="M379.488,292.497l-9.496-30.559c88.799-27.64,105.984-111.903,109.263-147.2h-62.503v-32h94.904
		l0.344,15.616C511.999,99.874,513.735,250.682,379.488,292.497z"/>
</g>
<path style="fill:#6B6B6B;" d="M256.129,382.257V32.003H82.984v119.839C82.984,201.906,104.153,321.306,256.129,382.257z"/>
<path d="M256.129,382.257V32.003H429.28v119.839C429.28,201.906,408.111,321.306,256.129,382.257z"/>
<path style="fill:#E21B1B;" d="M256.001,73.603c-62.952,0-113.983,51.032-113.983,113.983s51.032,113.983,113.983,113.983
	c62.946,0,113.975-51.022,113.983-113.968c0.009-62.952-51.016-113.991-113.968-113.999
	C256.011,73.603,256.006,73.603,256.001,73.603z"/>
<path style="fill:#FFFFFF;" d="M248.456,148.65h-0.36l-21.264,10.728l-3.76-16.616l28.24-13.944h18.4v116.16h-21.256L248.456,148.65
	L248.456,148.65z"/>
</svg>