<?xml version="1.0" encoding="iso-8859-1"?>
<!-- Uploaded to: SVG Repo, www.svgrepo.com, Generator: SVG Repo Mixer Tools -->
<svg height="800px" width="800px" version="1.1" id="Layer_1" xmlns="http://www.w3.org/2000/svg" xmlns:xlink="http://www.w3.org/1999/xlink" 
	 viewBox="0 0 442.678 442.678" xml:space="preserve">
<g transform="translate(0 -1004.36)" shape-rendering="auto" image-rendering="auto" color-rendering="auto" color-interpolation="sRGB">
	<path style="fill:#3B322E;" d="M263.876,1004.382L263.876,1004.382c-0.813,0.002-1.621,0.128-2.396,0.373l-256,85.333
		c-3.41,1.137-5.643,4.41-5.458,8v85.062c-0.003,1.578,0.461,3.124,1.333,4.439l170.625,255.896
		c2.001,2.991,5.752,4.277,9.167,3.146l255.917-85.292c4.207-1.358,6.517-5.87,5.159-10.077c-1.358-4.207-5.87-6.517-10.077-5.159
		c-0.048,0.016-0.096,0.031-0.144,0.048l-10.646,3.542v-68.457l15.854-5.292c4.189-1.406,6.445-5.943,5.038-10.132
		c-0.222-0.66-0.528-1.288-0.913-1.869l-170.667-256c-1.505-2.274-4.065-3.625-6.793-3.584V1004.382z"/>
	<path style="fill:#B89166;" d="M260.752,1021.925l161.458,242.186l-240.25,80.104L20.481,1102.007l240.271-80.083L260.752,1021.925
		z"/>
	<path style="fill:#A1764C;" d="M16.022,1124.153l154.667,232v56.583L16.022,1180.757L16.022,1124.153L16.022,1124.153z"/>
	<path style="fill:#DDB16D;" d="M405.356,1286.592v66.979c-0.001,0.482,0.042,0.962,0.128,1.436l-218.791,72.938v-68.479
		l26.667-8.896v35.167c0.014,4.419,3.608,7.99,8.026,7.975c1.562-0.005,3.088-0.467,4.391-1.329l30-19.938h29.583
		c4.418,0,8-3.582,8-8v-40.521l112-37.333L405.356,1286.592z"/>
	<path style="fill:#F29F4A;" d="M277.356,1329.259v27.188h-24c-1.578-0.003-3.122,0.461-4.437,1.333l-19.563,13.021v-25.563
		L277.356,1329.259z"/>
	<g>
		<path style="fill:#3B322E;" d="M178.501,1111.082c-4.417,0.106-7.913,3.773-7.806,8.191c0.039,1.617,0.567,3.185,1.515,4.496
			l74.5,106.417c2.537,3.618,7.528,4.495,11.146,1.957c3.619-2.536,4.495-7.527,1.958-11.146l0,0l-74.479-106.416
			c-1.533-2.255-4.109-3.574-6.834-3.5L178.501,1111.082z"/>
		<path style="fill:#3B322E;" d="M242.627,1121.728c-0.992,0.007-1.974,0.199-2.896,0.565l-85.042,31.875
			c-4.142,1.547-6.246,6.16-4.698,10.303c1.548,4.142,6.16,6.245,10.302,4.698l0,0l85.062-31.896
			c4.164-1.477,6.343-6.051,4.865-10.215c-1.139-3.211-4.187-5.348-7.594-5.326V1121.728z"/>
	</g>
	<path style="fill:#8D6A49;" d="M16.022,1124.153l-0.107,12.834l145.75,219.083l0.501,43.585l8.5,13.082v-56.583L16.022,1124.153z"
		/>
	<path style="fill:#BD9A63;" d="M405.356,1286.592l-8,2.313v64.542c-0.002,0.48,0,0.96,0.128,1.436l-210.791,70.625v2.438
		l218.791-72.938c-0.107-0.469-0.128-0.96-0.128-1.436V1286.592z"/>
	<path style="fill:#CE8B47;" d="M277.356,1329.259l-7.333,2.438v24.75h7.333V1329.259z"/>
	<path style="fill:#BD9A63;" d="M213.356,1350.57l-7.333,2.438v32.729c0,5.994,6.369,9.844,11.687,7.082
		c-2.66-1.362-4.339-4.094-4.354-7.082V1350.57z"/>
	<path style="fill:#CE8B47;" d="M246.022,1356.446c-1.579-0.003-3.122,0.458-4.437,1.333l-12.229,8.146v4.875l19.563-13.021
		c1.315-0.875,2.859-1.336,4.437-1.333H246.022z"/>
</g>
</svg>