<?xml version="1.0" encoding="UTF-8" standalone="no"?>
<!-- Uploaded to: SVG Repo, www.svgrepo.com, Generator: SVG Repo Mixer Tools -->

<svg
   fill="#000000"
   height="800px"
   width="800px"
   version="1.1"
   id="Layer_1"
   viewBox="0 0 511.998 511.998"
   xml:space="preserve"
   sodipodi:docname="image.svg"
   inkscape:version="1.2.2 (b0a8486541, 2022-12-01)"
   xmlns:inkscape="http://www.inkscape.org/namespaces/inkscape"
   xmlns:sodipodi="http://sodipodi.sourceforge.net/DTD/sodipodi-0.dtd"
   xmlns="http://www.w3.org/2000/svg"
   xmlns:svg="http://www.w3.org/2000/svg"><defs
   id="defs897" /><sodipodi:namedview
   id="namedview895"
   pagecolor="#ffffff"
   bordercolor="#000000"
   borderopacity="0.25"
   inkscape:showpageshadow="2"
   inkscape:pageopacity="0.0"
   inkscape:pagecheckerboard="0"
   inkscape:deskcolor="#d1d1d1"
   showgrid="false"
   inkscape:zoom="0.96375"
   inkscape:cx="399.48119"
   inkscape:cy="400"
   inkscape:window-width="1920"
   inkscape:window-height="977"
   inkscape:window-x="0"
   inkscape:window-y="32"
   inkscape:window-maximized="1"
   inkscape:current-layer="Layer_1" />
<g
   id="g856"
   style="fill:#c87137">
	<g
   id="g854"
   style="fill:#c87137">
		<path
   d="M202.862,426.687c-8.621-8.765-11.592-20.967-8.969-32.11h-85.573c13.576-3.75,22.553-8.541,22.553-8.541    s-23.782-33.819-60.944-42.664c-26.868-6.396-53.374,2.014-65.996,7.165c-1.888,0.77-3.289,2.406-3.761,4.39    c-0.472,1.984,0.041,4.075,1.381,5.613c8.121,9.333,25.243,26.215,48.423,34.036H18.362c-7.669,0-13.886,6.217-13.886,13.886    v35.382c0,7.669,6.217,13.886,13.886,13.886h15.152v27.671c0,4.89,3.963,8.853,8.853,8.853h25.417c4.89,0,8.853-3.963,8.853-8.853    v-27.671h156.759C214.507,438.528,215.553,439.59,202.862,426.687z"
   id="path852"
   style="fill:#c87137" />
	</g>
</g>
<g
   id="g862"
   style="fill:#ff2a2a">
	<g
   id="g860"
   style="fill:#ff2a2a">
		<path
   d="M79.563,42.974c-4.728,0-8.561,3.833-8.561,8.561v32.298l-10.384,21.711c-2.039,4.265-0.235,9.376,4.029,11.416    c4.265,2.041,9.376,0.236,11.416-4.028l11.223-23.462c0.552-1.153,0.838-2.416,0.838-3.693V51.535    C88.123,46.807,84.292,42.974,79.563,42.974z"
   id="path858"
   style="fill:#ff2a2a" />
	</g>
</g>
<g
   id="g868"
   style="fill:#c87137">
	<g
   id="g866"
   style="fill:#c87137">
		<path
   d="M300.907,412.434c36.74,37.355,33.966,34.474,35.375,36.114c1.414-1.644-1.379,1.255,35.376-36.114H300.907z"
   id="path864"
   style="fill:#c87137" />
	</g>
</g>
<g
   id="g874"
   style="fill:#c87137">
	<g
   id="g872"
   style="fill:#c87137">
		<path
   d="M498.112,394.576h-19.433c0.943,3.988,1.195,8.209,0.618,12.513c-1.031,7.694-4.526,14.455-9.583,19.592    c-8.129,8.262-2.546,2.586-29.876,30.373v0.679v27.671c0,4.89,3.963,8.853,8.853,8.853h25.417c4.89,0,8.853-3.963,8.853-8.853    v-27.671h15.152c7.669,0,13.886-6.217,13.886-13.886v-35.382C511.999,400.793,505.782,394.576,498.112,394.576z"
   id="path870"
   style="fill:#c87137" />
	</g>
</g>
<g
   id="g880"
   style="fill:#ff0000">
	<g
   id="g878"
   style="fill:#ff0000">
		<path
   d="M79.564,16.342c-38.285,0-69.433,31.147-69.433,69.433c0,38.286,31.148,69.433,69.433,69.433s69.433-31.147,69.433-69.433    S117.849,16.342,79.564,16.342z M79.564,138.087c-28.845,0-52.311-23.468-52.311-52.312s23.466-52.313,52.311-52.313    c28.845,0,52.311,23.468,52.311,52.313S108.409,138.087,79.564,138.087z"
   id="path876"
   style="fill:#ff0000" />
	</g>
</g>
<g
   id="g886"
   style="fill:#0000ff">
	<g
   id="g884"
   style="fill:#0000ff">
		<path
   d="M443.508,217.118c3.133-2.368,5.302-5.791,6.104-9.634l18.198-87.192c1.833-8.777-3.797-17.377-12.574-19.208    c-8.772-1.832-17.377,3.797-19.208,12.575l-16.954,81.228l-33.066,24.989c-3.301,24.85-24.627,43.992-50.239,43.992    c-17.27,0-32.739-8.737-41.929-22.235c-23.162,5.091-26.063,5.729-45.53,10.009l-21.094-58.14    c-3.057-8.428-12.367-12.78-20.797-9.723c-8.429,3.058-12.782,12.369-9.723,20.798l25.945,71.512    c2.776,7.652,10.791,12.067,18.746,10.319c35.409-7.784,27.809-6.114,47.604-10.464l0.272-0.06c0,4.338,0,81.711,0,85.809    l-59.307,24.097c-6.526,2.652-11.299,8.385-12.726,15.282c-1.427,6.898,0.682,14.053,5.622,19.076l68.065,69.202    c8.173,8.309,21.536,8.426,29.851,0.247c3.363-3.308,5.359-7.468,6.031-11.797c-0.177-2.183-0.183-4.376-0.003-6.558    c-0.662-4.196-2.575-8.236-5.781-11.496l-45.948-46.716l36.504-14.831c10.116,0,15.798,0,18.82,0c2.215,0,3.003,0,3.048,0    c3.8,0,11.809,0,27.558,0l36.506,14.831l-45.947,46.716c-8.175,8.312-8.065,21.676,0.247,29.851    c8.309,8.173,21.674,8.067,29.851-0.247l68.064-69.202c4.94-5.024,7.049-12.179,5.622-19.078    c-1.427-6.898-6.199-12.631-12.726-15.282l-60.176-24.449c0-8.188,0-72.892,0-98.068    C394.536,254.127,386.48,260.214,443.508,217.118z"
   id="path882"
   style="fill:#0000ff" />
	</g>
</g>
<g
   id="g892"
   style="fill:#0000ff">
	<g
   id="g890"
   style="fill:#0000ff">
		<circle
   cx="335.769"
   cy="213.172"
   r="36.458"
   id="circle888"
   style="fill:#0000ff" />
	</g>
</g>
</svg>
