<?xml version="1.0" encoding="iso-8859-1"?>
<!-- Uploaded to: SVG Repo, www.svgrepo.com, Generator: SVG Repo Mixer Tools -->
<svg height="800px" width="800px" version="1.1" id="Layer_1" xmlns="http://www.w3.org/2000/svg" xmlns:xlink="http://www.w3.org/1999/xlink" 
	 viewBox="0 0 512 512" xml:space="preserve">
<path style="fill:#FFBD8D;" d="M250.887,354.896l11.378,114.47c0,9.763,7.914,17.678,17.678,17.678s17.678-7.914,17.678-17.678
	l11.378-114.47H250.887z"/>
<path style="fill:#FFAF74;" d="M297.62,354.896v89.514c0,9.763,7.914,17.678,17.678,17.678c9.763,0,17.678-7.914,17.678-17.678
	v-66.758L297.62,354.896z"/>
<path style="fill:#FFBD8D;" d="M191.556,377.651v91.715c0,9.763,7.914,17.678,17.678,17.678c9.763,0,17.678-7.914,17.678-17.678
	l11.378-114.47L191.556,377.651z"/>
<path style="fill:#FFAF74;" d="M226.911,354.896v139.427c0,9.763,7.914,17.678,17.678,17.678c9.763,0,17.678-7.914,17.678-17.678
	V354.896H226.911z"/>
<path style="fill:#FFCCA6;" d="M303.859,238.536v-90.894h-94.834v105.333l-17.469,62.496v62.18h141.42c0,0,0-67.198,0-81.946
	C332.976,272.205,321.501,251.394,303.859,238.536z"/>
<path style="fill:#FFAF74;" d="M209.025,230.218c-31.175,10.948-42.425,40.875-42.425,64.375c0,24.609-9.584,47.746-26.985,65.147
	c-6.904,6.903-6.903,18.096,0,24.999c6.903,6.903,18.096,6.904,24.999,0c19.084-19.083,31.369-43.151,35.645-69.268
	c34.706,0,62.837-28.136,62.837-62.842v-22.412H209.025z"/>
<path style="fill:#71A8FF;" d="M362.886,86.196C352.262,36.927,308.446,0,255.999,0s-96.263,36.927-106.886,86.196
	c-46.223,0.338-83.594,37.899-83.594,84.202H446.48C446.479,124.095,409.109,86.535,362.886,86.196z"/>
</svg>