<?xml version="1.0" encoding="iso-8859-1"?>
<!-- Uploaded to: SVG Repo, www.svgrepo.com, Generator: SVG Repo Mixer Tools -->
<svg version="1.1" id="Layer_1" xmlns="http://www.w3.org/2000/svg" xmlns:xlink="http://www.w3.org/1999/xlink" 
	 viewBox="0 0 393.309 393.309" xml:space="preserve">
<circle style="fill:#FBD303;" cx="196.655" cy="196.655" r="196.655"/>
<path style="fill:#F0582F;" d="M268.671,65.616c-35.232-25.665-50.941-0.517-50.941-0.517l-20.881-10.731v-0.259l-0.259,0.129
	l-0.259-0.129v0.259l-20.881,10.731c0,0-15.709-25.018-50.941,0.517S20.364,62.319,20.364,62.319l21.01,26.505v2.457l155.216-2.457
	l155.216,2.457v-2.457l20.881-26.505C372.816,62.255,303.903,91.152,268.671,65.616z"/>
<path style="fill:#333842;" d="M41.051,88.695v205.059c0,14.739,11.96,26.634,26.634,26.634h257.939
	c14.739,0,26.634-11.96,26.634-26.634V88.695H41.051z"/>
<rect x="86.174" y="127.483" style="fill:#646B79;" width="221.026" height="154.311"/>
<path style="fill:#BDBDBE;" d="M145.713,210.877c0,0-22.497,15.838-5.172,38.723l-6.594,28.25l18.941,3.491l4.655-21.333v19.911
	l19.071-0.323V254.19h4.008l4.655,27.152h17.648l-2.844-23.402l9.826,20.493l17.907-6.659l-17.907-35.556l-22.109-35.556
	L145.713,210.877z"/>
<g>
	<path style="fill:#F1F3F7;" d="M171.636,164.719c0,0-32.582-14.739-43.055-8.986c-10.343,5.818,6.659,39.564,6.659,39.564
		l5.172,21.333c0,0,2.844,9.503,10.99,11.313c8.145,1.681,21.915-23.661,21.915-23.661L171.636,164.719z"/>
	<path style="fill:#F1F3F7;" d="M221.673,164.719c0,0,32.582-14.739,43.055-8.986c10.343,5.818-6.659,39.564-6.659,39.564
		l-5.172,21.333c0,0-2.844,9.503-10.99,11.313c-8.145,1.681-21.915-23.661-21.915-23.661L221.673,164.719z"/>
</g>
<circle style="fill:#D6D6D8;" cx="196.655" cy="184.372" r="37.107"/>
<path style="fill:#DDDEE6;" d="M181.98,206.804c0,0,3.297,42.861,30.836,45.188c17.907,1.552,12.347-27.345,32.776-24.113
	l3.879-7.887c0,0-15.063-9.568-27.022,8.339c-9.05,13.576-15.063-3.62-12.671-21.527c0,0,1.745-15.063-13.123-15.063
	S181.98,206.804,181.98,206.804z"/>
<g>
	<circle style="fill:#4F5565;" cx="180.687" cy="187.216" r="2.844"/>
	<circle style="fill:#4F5565;" cx="212.622" cy="187.216" r="2.844"/>
</g>
<g>
	<path style="fill:#FCFCFD;" d="M216.178,276.17c0-0.129-0.065-0.259-0.129-0.388c-0.646-1.552-2.392-2.392-3.943-1.745
		s-2.392,2.392-1.745,3.943c0.065,0.129,0.065,0.259,0.129,0.388L216.178,276.17z"/>
	<path style="fill:#FCFCFD;" d="M221.737,274.036c0-0.129-0.065-0.259-0.129-0.388c-0.646-1.552-2.392-2.392-3.943-1.745
		c-1.551,0.646-2.392,2.392-1.745,3.943c0.065,0.129,0.065,0.259,0.129,0.388L221.737,274.036z"/>
	<path style="fill:#FCFCFD;" d="M227.232,271.903c0-0.129-0.065-0.259-0.129-0.388c-0.646-1.552-2.392-2.392-3.943-1.745
		c-1.551,0.646-2.392,2.392-1.745,3.943c0.065,0.129,0.065,0.259,0.129,0.388L227.232,271.903z"/>
	<path style="fill:#FCFCFD;" d="M191.03,281.729c0-0.129,0-0.323,0-0.388c0-1.681-1.293-3.103-3.038-3.103
		c-1.681,0-3.103,1.293-3.103,3.038c0,0.129,0,0.323,0,0.388L191.03,281.729z"/>
	<path style="fill:#FCFCFD;" d="M196.978,281.729c0-0.129,0-0.323,0-0.388c0-1.681-1.293-3.103-3.038-3.103
		s-3.103,1.293-3.103,3.038c0,0.129,0,0.323,0,0.388L196.978,281.729z"/>
	<path style="fill:#FCFCFD;" d="M202.925,281.794c0-0.129,0-0.323,0-0.388c0-1.681-1.293-3.103-3.038-3.103
		c-1.681,0-3.103,1.293-3.103,3.038c0,0.129,0,0.323,0,0.388L202.925,281.794z"/>
	<path style="fill:#FCFCFD;" d="M163.814,279.984c0-0.129,0-0.323,0-0.453c0-1.745-1.487-3.232-3.232-3.168
		c-1.745,0.065-3.232,1.487-3.168,3.232c0,0.129,0,0.323,0,0.453L163.814,279.984z"/>
	<path style="fill:#FCFCFD;" d="M170.085,279.984c0-0.129,0-0.323,0-0.453c0-1.745-1.487-3.232-3.232-3.168
		c-1.745,0-3.232,1.487-3.168,3.232c0,0.129,0,0.323,0,0.453L170.085,279.984z"/>
	<path style="fill:#FCFCFD;" d="M176.42,279.855c0-0.129,0-0.323,0-0.453c0-1.745-1.487-3.232-3.232-3.168
		c-1.745,0-3.232,1.487-3.168,3.232c0,0.129,0,0.323,0,0.453L176.42,279.855z"/>
	<path style="fill:#FCFCFD;" d="M140.218,279.337c0.065-0.129,0.065-0.323,0.065-0.453c0.323-1.745-0.84-3.426-2.521-3.814
		c-1.745-0.323-3.426,0.84-3.814,2.521c0,0.129-0.065,0.323-0.065,0.453L140.218,279.337z"/>
	<path style="fill:#FCFCFD;" d="M146.424,280.501c0.065-0.129,0.065-0.323,0.065-0.453c0.323-1.745-0.84-3.426-2.521-3.814
		c-1.745-0.323-3.426,0.84-3.814,2.521c0,0.129-0.065,0.323-0.065,0.453L146.424,280.501z"/>
	<path style="fill:#FCFCFD;" d="M152.63,281.665c0.065-0.129,0.065-0.323,0.065-0.453c0.323-1.745-0.84-3.426-2.521-3.814
		c-1.745-0.323-3.426,0.84-3.814,2.521c0,0.129-0.065,0.323-0.065,0.453L152.63,281.665z"/>
</g>
<path style="fill:#F0582F;" d="M214.432,151.79c-5.236-2.844-11.313-4.461-17.778-4.461s-12.412,1.616-17.778,4.461l17.778,26.57
	L214.432,151.79z"/>
<g>
	<ellipse style="fill:#FBD303;" cx="196.655" cy="154.053" rx="7.046" ry="4.461"/>
	<circle style="fill:#FBD303;" cx="196.655" cy="164.655" r="2.844"/>
</g>
<path style="fill:#29B36F;" d="M194.521,189.156c0-0.259-0.453-10.796,2.133-10.796c2.651,0,2.069,10.796,2.069,10.796H194.521z"/>
<g>
	<rect x="119.531" y="122.117" style="fill:#333842;" width="7.176" height="165.107"/>
	<rect x="156.315" y="122.117" style="fill:#333842;" width="7.176" height="165.107"/>
	<rect x="193.034" y="122.117" style="fill:#333842;" width="7.176" height="165.107"/>
	<rect x="229.818" y="122.117" style="fill:#333842;" width="7.176" height="165.107"/>
	<rect x="266.602" y="122.117" style="fill:#333842;" width="7.176" height="165.107"/>
</g>
<circle style="fill:#414753;" cx="109.382" cy="324.331" r="37.107"/>
<circle style="fill:#646B79;" cx="109.382" cy="324.331" r="21.01"/>
<circle style="fill:#414753;" cx="283.927" cy="324.331" r="37.107"/>
<circle style="fill:#646B79;" cx="283.927" cy="324.331" r="21.01"/>
<g>
	<circle style="fill:#FFFFFC;" cx="150.432" cy="71.887" r="9.115"/>
	<circle style="fill:#FFFFFC;" cx="44.089" cy="77.317" r="3.685"/>
	<circle style="fill:#FFFFFC;" cx="349.22" cy="77.317" r="3.685"/>
	<circle style="fill:#FFFFFC;" cx="242.295" cy="71.887" r="9.115"/>
	<circle style="fill:#FFFFFC;" cx="198.271" cy="71.887" r="9.115"/>
</g>
</svg>