<?xml version="1.0" encoding="UTF-8" standalone="no"?>
<!-- Uploaded to: SVG Repo, www.svgrepo.com, Generator: SVG Repo Mixer Tools -->

<svg
   width="800px"
   height="800px"
   viewBox="-1 0 20 20"
   version="1.1"
   id="svg1"
   xmlns="http://www.w3.org/2000/svg"
   xmlns:svg="http://www.w3.org/2000/svg">
  <defs
     id="defs1" />
  <g
     id="autumn"
     transform="translate(-3 -2)">
    <path
       id="secondary"
       fill="#2ca9bc"
       d="M19,16c-2,2-5,1.41-7,.64C10,17.41,7,18,5,16a5,5,0,0,1,2-3A7.44,7.44,0,0,1,4,7.56C6,6.1,9,8,9,8a6,6,0,0,1,3-5,6,6,0,0,1,3,5s3-1.88,5-.42A7.44,7.44,0,0,1,17,13,5,5,0,0,1,19,16Z"
       style="fill:#d4aa00" />
    <path
       id="primary"
       d="M19,16c-2,2-5,1.41-7,.64C10,17.41,7,18,5,16a5,5,0,0,1,2-3A7.44,7.44,0,0,1,4,7.56C6,6.1,9,8,9,8a6,6,0,0,1,3-5,6,6,0,0,1,3,5s3-1.88,5-.42A7.44,7.44,0,0,1,17,13,5,5,0,0,1,19,16Zm-7,5V12"
       fill="none"
       stroke="#000000"
       stroke-linecap="round"
       stroke-linejoin="round"
       stroke-width="2" />
  </g>
</svg>
