<?xml version="1.0" encoding="UTF-8" standalone="no"?>
<!-- Uploaded to: SVG Repo, www.svgrepo.com, Generator: SVG Repo Mixer Tools -->

<svg
   fill="#000000"
   height="800px"
   width="800px"
   version="1.1"
   id="_x31__1_"
   viewBox="0 0 203 256"
   xml:space="preserve"
   xmlns="http://www.w3.org/2000/svg"
   xmlns:svg="http://www.w3.org/2000/svg"><defs
   id="defs3">
	
	
	
	
	
</defs>
<style
   type="text/css"
   id="style1">
	.st0{fill:none;}
</style>
<path
   class="st0"
   d="m 101.7,152.3 c -1.4,0 -2.3,1 -2.3,2.3 v 61.1 h 4.6 v -61.1 c 0,-1.4 -1,-2.3 -2.3,-2.3 z"
   id="path1" /><path
   class="st0"
   d="m 152.5,104.9 v 39.4 c 0,4.9 -4.1,8.9 -8.9,8.9 -4.9,0 -8.9,-4.1 -8.9,-8.9 v -43.6 l -8,-11.7 v 35.9 h -16.1 c -1.5,-3.2 -4.8,-5.5 -8.6,-5.5 -3.8,0 -7.1,2.2 -8.6,5.5 H 76.8 L 76.7,89 l -8,11.7 v 43.6 c 0,4.9 -4,8.9 -8.9,8.9 -4.9,0 -8.9,-4.1 -8.9,-8.9 V 104.9 C 21.3,142.3 8,174.4 5.2,216 c 2.8,-2.4 7.7,-4.4 15.3,-4 9.6,0.4 15.3,4.4 20.1,8 6.4,4.8 10.4,7.6 20.5,1.2 4.8,-2.8 9.7,-4.8 14.1,-5.6 h 1.4 l -0.1,-83.2 v 0.1 H 73.2 V 125 h 3.3 v 7.4 H 93 c 1.4,3.5 4.8,6 8.9,6 4.1,0 7.5,-2.5 8.9,-6 h 15.8 V 125 h 3.4 v 7.5 h -3.4 v 83.4 c 4.1,0.9 8.5,2.5 12.9,5.4 10.4,6.4 14.5,3.2 20.5,-1.2 4.8,-3.2 10.4,-7.6 20.1,-8 7.6,-0.4 12.5,1.7 16.2,3.9 -1,-41.2 -14.3,-73.7 -43.8,-111.1 z"
   id="path2" /><path
   d="m 151.6,97.2 v -3.6 l -16.9,-25 C 129.5,61.4 123.4,58.1 115,58.1 H 87.5 C 79,58.1 73,61.7 67.8,68.6 l -16.9,25 v 3.6 c -34.3,42.3 -50,78.6 -50,125.7 l 6,0.4 c 0,-0.4 1.6,-8 14.9,-7.2 8.5,0.4 13.3,4 17.7,7.2 4,2.8 7.6,5.6 12.9,5.6 3.2,0 7.2,-1.2 12.5,-4.4 4,-2.4 8,-4 11.7,-5.2 h 0.2 v 18.5 c 0,6.3 5,11.3 11.3,11.3 6.3,0 11.3,-5 11.3,-11.3 v -18.5 h 4.6 v 18.5 c 0,6.3 5,11.3 11.3,11.3 6.3,0 11.3,-5 11.3,-11.3 v -18.3 c 3.4,0.9 7.1,2.4 10.9,5 4.8,3.2 8.9,4.4 12.5,4.4 5.2,0 8.9,-2.8 12.9,-5.6 4.4,-3.2 9.7,-6.8 17.7,-7.2 13.3,-0.8 14.9,6.8 14.9,7.2 l 6,-0.4 c 0,-47.1 -16,-83.4 -49.9,-125.7 z M 104,215.8 h -4.6 v -61.1 c 0,-1.3 0.9,-2.3 2.3,-2.3 1.3,0 2.3,0.9 2.3,2.3 z m 76.3,-3.7 c -9.7,0.4 -15.3,4.8 -20.1,8 -6,4.4 -10.1,7.6 -20.5,1.2 -4.4,-2.9 -8.8,-4.5 -12.9,-5.4 v -83.4 h 3.4 V 125 h -3.4 v 7.4 H 111 c -1.4,3.5 -4.8,6 -8.9,6 -4.1,0 -7.5,-2.5 -8.9,-6 H 76.7 l 0.1,83.2 h -1.4 c -4.4,0.8 -9.3,2.8 -14.1,5.6 C 51.2,227.6 47.2,224.8 40.8,220 36,216.4 30.3,212.4 20.7,212 13.1,211.6 8.2,213.6 5.4,216 8.2,174.4 21.5,142.4 51,104.9 v 39.4 c 0,4.8 4,8.9 8.9,8.9 4.9,0 8.9,-4 8.9,-8.9 v -43.6 l 8,-11.7 0.1,35.9 h 16.5 c 1.5,-3.3 4.8,-5.5 8.6,-5.5 3.8,0 7.1,2.3 8.6,5.5 h 16.1 v -36 l 8,11.7 v 43.6 c 0,4.8 4,8.9 8.9,8.9 4.8,0 8.9,-4 8.9,-8.9 v -39.4 c 29.5,37.5 42.8,69.9 44,111.1 -3.7,-2.1 -8.6,-4.2 -16.2,-3.8 z"
   id="path3"
   style="fill:#0055d4" /><polygon
   points="76.7,132.5 76.7,132.4 76.7,125 73.3,125 73.3,132.5 "
   id="polygon3"
   style="fill:#0055d4" /><circle
   cx="101.5"
   cy="29.4"
   r="20.700001"
   id="circle3"
   style="fill:#aa8800" />
</svg>
