<?xml version="1.0" encoding="utf-8"?><!-- Uploaded to: SVG Repo, www.svgrepo.com, Generator: SVG Repo Mixer Tools -->
<svg width="800px" height="800px" viewBox="0 0 24 24" id="sign-in-alt-2" xmlns="http://www.w3.org/2000/svg" class="icon multi-color"><path id="tertiary-fill" d="M21,5.78V18.22a1,1,0,0,1-.76,1l-4.1,1a.92.92,0,0,1-.14-.5V4.28a.92.92,0,0,1,.14-.5l4.1,1A1,1,0,0,1,21,5.78Z" style="fill: #b7b7b7; stroke-width: 2;"></path><path id="primary-stroke" d="M20.24,19.19l-6,1.5a1,1,0,0,1-1.24-1V4.28a1,1,0,0,1,1.24-1l6,1.5a1,1,0,0,1,.76,1V18.22A1,1,0,0,1,20.24,19.19ZM10,6h3m0,12H10" style="fill: none; stroke: rgb(0, 0, 0); stroke-linecap: round; stroke-linejoin: round; stroke-width: 2;"></path><path id="secondary-stroke" d="M6,9l3,3L6,15m3-3H3" style="fill: none; stroke: rgb(44, 169, 188); stroke-linecap: round; stroke-linejoin: round; stroke-width: 2;"></path></svg>