<?xml version="1.0" encoding="UTF-8" standalone="no"?>
<!-- Uploaded to: SVG Repo, www.svgrepo.com, Generator: SVG Repo Mixer Tools -->

<svg
   height="800px"
   width="800px"
   version="1.2"
   id="Layer_1"
   viewBox="0 0 256 256"
   xml:space="preserve"
   xmlns="http://www.w3.org/2000/svg"
   xmlns:svg="http://www.w3.org/2000/svg"><defs
   id="defs1">
	
	
	
	
	
	
	
	
</defs>
<g
   id="XMLID_1_"
   style="fill:#ff6600">
	<path
   id="XMLID_3_"
   fill="none"
   d="M121.1,101.1c-2.9,0-5.2-2.3-5.2-5.2c0-2.8,2.3-5.1,5.2-5.1c2.8,0,5.1,2.3,5.1,5.1   C126.2,98.8,123.9,101.1,121.1,101.1z"
   style="fill:#ff6600" />
	<path
   id="XMLID_23_"
   fill="none"
   d="M79.5,95.9c-24.9,0-23.1,21.1-23.1,21.1c-6.2-7-10.1-16.3-10.1-26.4c0-22,17.8-39.7,39.7-39.7   c11.5,0,21.7,4.8,29,12.5C115,63.4,115.4,95.1,79.5,95.9z"
   style="fill:#ff6600" />
	<path
   id="XMLID_29_"
   fill="none"
   d="M130.5,78.1c0.9,3.8,1.9,13.8,1.9,13.8l9.5,24.1c0.2,0.4,0.3,0.8,0.3,1.4   c0,2.1-1.6,3.6-3.7,3.6H132v13.1c0,10-7.7,17.9-17.7,17.9H107v8H58v-32.7c-11-8.4-17.5-21.4-17.5-36.1c0-25.4,20.6-46,45.9-46   C107.3,45.2,126.5,60.9,130.5,78.1z"
   style="fill:#ff6600" />
	<circle
   id="XMLID_33_"
   cx="212.6"
   cy="53.4"
   r="12.9"
   style="fill:#ff6600" />
</g>
<circle
   id="XMLID_11_"
   cx="131.7"
   cy="219.3"
   r="15.7"
   style="fill:#ff0000" /><circle
   id="XMLID_16_"
   cx="206.39999"
   cy="219.3"
   r="15.7"
   style="fill:#ff0000" /><circle
   id="XMLID_17_"
   cx="58.099998"
   cy="219.3"
   r="15.7"
   style="fill:#ff0000" /><path
   id="XMLID_18_"
   d="m 149.9,237 h -18 -18 c -8.6,0 -14,6 -16,14 h 69 c -2.4,-8 -8.6,-14 -17,-14 z"
   style="fill:#ff0000" /><path
   id="XMLID_19_"
   d="m 224.6,237 h -18 -18 c -8.6,0 -13.8,6 -15.7,14 h 69 c -2.5,-8 -8.9,-14 -17.3,-14 z"
   style="fill:#ff0000" /><path
   id="XMLID_20_"
   d="m 76.2,237 h -18 -18 c -8.5,0 -14.2,6 -16.3,14 H 92 c -1.9,-8 -7.3,-14 -15.8,-14 z"
   style="fill:#ff0000" /><g
   id="XMLID_4_"
   style="fill:#0000ff">
		<path
   id="XMLID_9_"
   d="m 107,160 v -8 h 7.3 c 10,0 17.7,-7.9 17.7,-17.9 V 121 h 6.5 c 2.1,0 3.7,-1.5 3.7,-3.6 0,-0.5 -0.1,-0.9 -0.3,-1.3 l -9.6,-24.2 c 0,0 -1,-10 -1.9,-13.8 -4,-17.2 -23.2,-32.9 -44.1,-32.9 -25.3,0 -45.9,20.5 -45.9,46 0,14.7 6.5,27.7 17.5,36.1 V 160 Z m 14.1,-69.2 c 2.8,0 5.1,2.3 5.1,5.1 0,2.8 -2.3,5.2 -5.1,5.2 -2.9,0 -5.2,-2.3 -5.2,-5.2 0,-2.8 2.3,-5.1 5.2,-5.1 z M 56.4,117 c -6.2,-7 -10.1,-16.3 -10.1,-26.4 0,-22 17.8,-39.7 39.7,-39.7 11.5,0 21.7,4.8 29,12.5 0,0 0.5,31.7 -35.5,32.5 -24.9,0 -23.1,21.1 -23.1,21.1 z"
   style="fill:#0000ff" />
		<polygon
   id="XMLID_21_"
   points="19,23 19,182 177,182 177,103 170,103 170,174 26,174 26,23 170,23 170,83 173.8,82.9 177,79.7 177,23 186,23 186,4 11,4 11,23 "
   style="fill:#0000ff" />
	</g><path
   id="XMLID_22_"
   d="m 228.6,69 h -29 c -4.1,0 -8.4,1.5 -11.6,4.6 0,0.1 -9.7,9.5 -13.7,13.4 h -23 c -1.1,0 -2.1,0.5 -2.9,1.1 L 134,68.4 c -0.5,-0.6 -1.3,-0.8 -1.9,-0.3 -0.6,0.5 -0.7,1.3 -0.3,1.9 l 14.7,20.4 c -0.4,0.8 -0.7,1.8 -0.7,2.8 0,3.1 2.5,5.8 5.6,5.8 h 17.6 1 7 v 0 c 2,-0.1 2.8,-0.8 3.7,-1.6 l 11.5,-11.5 c 0.3,-0.3 0.8,-0.5 1.2,-0.5 0.9,0 1.6,0.7 1.6,1.6 v 99 c 0,4.4 3.6,8 8,8 4.4,0 8,-3.6 8,-8 v -55.9 c 0,-0.9 0.6,-1.6 1.5,-1.6 0.9,0 1.5,0.7 1.5,1.6 v 56 c 0,4.4 3.6,8 8,8 4.4,0 8,-3.6 8,-8 V 88.5 c 0,-0.9 0.6,-1.6 1.5,-1.6 0.9,0 1.5,0.7 1.5,1.6 v 36 c 0,3.1 2.8,5.6 6,5.6 3.1,0 5,-2.6 6,-5.7 V 85.3 C 245,76.4 237.4,69 228.6,69 Z"
   style="fill:#ff7f2a" />
</svg>
