<?xml version="1.0" encoding="UTF-8" standalone="no"?>
<!-- Uploaded to: SVG Repo, www.svgrepo.com, Generator: SVG Repo Mixer Tools -->

<svg
   width="800px"
   height="800px"
   viewBox="0 0 36 36"
   aria-hidden="true"
   role="img"
   class="iconify iconify--twemoji"
   preserveAspectRatio="xMidYMid meet"
   version="1.1"
   id="svg17"
   sodipodi:docname="image.svg"
   inkscape:version="1.4.4 (dcaf3e7d9e, 2026-05-05)"
   xmlns:inkscape="http://www.inkscape.org/namespaces/inkscape"
   xmlns:sodipodi="http://sodipodi.sourceforge.net/DTD/sodipodi-0.dtd"
   xmlns="http://www.w3.org/2000/svg"
   xmlns:svg="http://www.w3.org/2000/svg">
  <defs
     id="defs17" />
  <sodipodi:namedview
     id="namedview17"
     pagecolor="#ffffff"
     bordercolor="#000000"
     borderopacity="0.25"
     inkscape:showpageshadow="2"
     inkscape:pageopacity="0.0"
     inkscape:pagecheckerboard="0"
     inkscape:deskcolor="#d1d1d1"
     inkscape:zoom="0.98125"
     inkscape:cx="389.29936"
     inkscape:cy="406.11465"
     inkscape:window-width="1920"
     inkscape:window-height="971"
     inkscape:window-x="0"
     inkscape:window-y="0"
     inkscape:window-maximized="1"
     inkscape:current-layer="svg17" />
  <g
     id="g17"
     transform="translate(-1.788535,1.0547771)">
    <path
       fill="#f7dece"
       d="m 13.63198,24.161469 h 10.902303 v 6.427066 H 13.63198 Z"
       id="path1"
       style="stroke-width:0.661767" />
    <path
       fill="#292f33"
       d="m 24.534283,24.161469 v 6.427066 h 4.088364 v -2.570826 c 0,-2.12993 -1.829543,-3.85624 -4.088364,-3.85624 z m -10.902303,0 a 4.0883636,3.8562393 0 0 0 -4.0883638,3.85624 v 2.570826 H 13.63198 Z"
       id="path2"
       style="stroke-width:0.661767" />
    <path
       fill="#ff7862"
       d="m 19.207826,30.588535 h 6.133228 l 3.463525,-4.450743 c 0,0 -2.271086,-2.396653 -6.6579,-3.181397 0,0.838089 0.673217,2.144711 0.673217,2.144711 l -3.61207,4.502802 z"
       id="path3"
       style="stroke-width:0.661767" />
    <path
       fill="#ff7862"
       d="M 19.207826,30.588535 H 13.0746 L 9.6110752,26.137792 c 0,0 2.2710848,-2.396653 6.6578998,-3.181397 0,0.838089 -0.673218,2.144711 -0.673218,2.144711 l 3.612069,4.502802 z"
       id="path4"
       style="stroke-width:0.661767" />
    <path
       fill="#de2f33"
       d="m 27.214887,24.864591 c 0,0 -1.671459,-1.070107 -3.17257,-1.572703 -2.083703,-0.697979 -1.618311,1.246208 -1.618311,1.246208 0,0 -2.602924,4.13196 -3.21618,5.066456 0,-6.44e-4 4.792926,-3.557381 8.007061,-4.739961 z m -16.01412,0 c 0,0 1.671459,-1.070107 3.172569,-1.572703 2.083703,-0.697979 1.618311,1.246208 1.618311,1.246208 0,0 2.602925,4.13196 3.216179,5.066456 0,-6.44e-4 -4.793605,-3.557381 -8.007059,-4.739961 z"
       id="path5"
       style="stroke-width:0.661767" />
    <path
       fill="#ff5540"
       d="m 19.208508,29.664966 c 0,0 4.996662,-4.806803 8.261902,-5.369171 -2.782131,-2.196128 -6.899114,-1.955113 -6.899114,-1.955113 0,0.786673 1.354611,0.879223 1.354611,1.852281 0,1.597125 -2.105507,4.308061 -2.718081,5.184713 z"
       id="path6"
       style="stroke-width:0.661767" />
    <path
       fill="#ff5540"
       d="m 19.207146,29.664966 c 0,0 -4.996662,-4.806803 -8.261902,-5.369171 2.782131,-2.196128 6.899114,-1.955113 6.899114,-1.955113 0,0.786673 -1.354612,0.879223 -1.354612,1.852281 0,1.597125 2.105508,4.308061 2.71808,5.184713 z"
       id="path7"
       style="stroke-width:0.661767" />
    <path
       fill="#f7dece"
       d="m 16.48157,24.161469 c 0,0 0.340697,2.249473 2.725576,2.249473 2.384878,0 2.725575,-2.249473 2.725575,-2.249473 V 21.590644 H 16.48157 Z"
       id="path8"
       style="stroke-width:0.661767" />
    <path
       fill="#eec2ad"
       d="m 16.48157,22.876057 c 0.828575,0.883079 1.604682,1.104812 2.72285,1.104812 1.116805,0 1.899044,-0.222377 2.728301,-1.104812 V 21.831658 H 16.48157 Z"
       id="path9"
       style="stroke-width:0.661767" />
    <path
       fill="#ff605e"
       d="m 27.329361,15.12373 c 0.14173,-1.236567 -0.08722,-2.544475 -1.541313,-3.483469 l -0.0027,-0.0051 a 3.0349286,2.8626149 0 0 1 1.522234,0.875366 c -0.886494,-2.435215 -3.558239,-3.8993004 -6.349229,-4.3209154 -1.396857,-0.274436 -3.670669,-0.109903 -4.37046,0.74811 -2.006025,0.03663 -3.677484,1.7732274 -4.089046,3.9924924 -0.310715,1.673609 0.131509,4.380689 0.914431,5.608258 1.050028,1.645328 1.653743,-0.936424 2.560679,-0.681269 1.304188,1.625405 1.568568,4.354979 3.896892,4.354979 4.433148,0 6.223171,-2.730217 6.48687,-7.384055 0.09267,0.339349 0.167623,0.698622 0.290273,1.081033 0.295726,0.923569 1.238775,1.019332 1.238775,1.019332 0,0 -0.703199,-0.531518 -0.55738,-1.80472 z"
       id="path10"
       style="stroke-width:0.661767" />
    <path
       fill="#f7dece"
       d="m 24.358484,14.677049 c -0.440181,-0.57458 -1.003012,-1.037328 -2.237698,-1.200576 0.463348,0.199882 0.906936,0.891435 0.964853,1.273845 0.05792,0.38241 0.115837,0.691552 -0.250752,0.309141 -1.468404,-1.530927 -3.067636,-0.928068 -4.651877,-1.863206 -1.106583,-0.65299 -1.443873,-1.376035 -1.443873,-1.376035 0,0 -0.134917,0.96406 -1.81319,1.946758 -0.486515,0.28472 -1.067063,0.919071 -1.388681,1.856137 -0.231673,0.673556 -0.159446,1.273845 -0.159446,2.299604 0,2.995012 2.617234,5.513137 5.844997,5.513137 3.227764,0 5.844998,-2.540619 5.844998,-5.513137 -0.0013,-1.862563 -0.207826,-2.590107 -0.709331,-3.245668 z"
       id="path11"
       style="stroke-width:0.661767" />
    <path
       fill="#dd2f45"
       d="m 14.726299,21.426111 4.799057,-5.427657 -1.905859,0.394622 1.982857,-2.67366 c -0.472206,-0.102832 -0.947137,-0.243585 -1.420025,-0.523163 -0.819717,-0.483958 -1.216288,-1.003907 -1.366876,-1.242351 l -3.095573,7.218237 c 0.02998,0.09769 0.06541,0.191527 0.09948,0.287289 l 1.337576,-0.517378 -0.842203,1.949329 c 0.12674,0.1851 0.263018,0.365057 0.411562,0.534732 z"
       id="path12"
       style="stroke-width:0.661767" />
    <path
       fill="#c1694f"
       d="m 19.870823,19.454929 h -1.298737 a 0.32502491,0.30657102 0 1 1 0,-0.613141 h 1.298737 a 0.32502491,0.30657102 0 1 1 0,0.613141 z"
       id="path13"
       style="stroke-width:0.661767" />
    <path
       fill="#662113"
       d="m 16.623299,17.310861 a 0.64936843,0.61249933 0 0 1 -0.649368,-0.6125 v -0.612499 a 0.6493685,0.6124994 0 0 1 1.298737,0 v 0.612499 a 0.64868703,0.61185663 0 0 1 -0.649369,0.6125 z m 5.19631,0 a 0.64936843,0.61249933 0 0 1 -0.649367,-0.6125 v -0.612499 a 0.64936843,0.61249933 0 0 1 1.298736,0 v 0.612499 a 0.64936843,0.61249933 0 0 1 -0.649369,0.6125 z"
       id="path14"
       style="stroke-width:0.661767" />
    <path
       fill="#c1694f"
       d="m 19.307311,22.012902 c -1.876559,0 -2.453019,-0.453109 -2.549095,-0.545015 a 0.44631374,0.42097345 0 0 1 0.614617,-0.610572 c 0.03543,0.02378 0.491285,0.312999 1.934478,0.312999 1.499066,0 1.932433,-0.311714 1.936521,-0.314926 a 0.43472934,0.41004677 0 0 1 0.622113,0.0096 0.45653394,0.43061338 0 0 1 -0.0095,0.603501 c -0.09676,0.09126 -0.672535,0.544373 -2.549094,0.544373"
       id="path15"
       style="stroke-width:0.661767" />
  </g>
  <g
     id="g4"
     transform="matrix(0.06273488,0,0,0.06549508,3.5223256,-0.89967498)">
    <path
       style="fill:#00b4d7"
       d="M 82.278,255.888 H 7.962 c 0,-117.312 95.017,-212.329 212.329,-212.329 117.312,0 212.329,95.017 212.329,212.329 v 69.007 h 63.699 L 395.463,462.909 294.607,324.895 h 63.699 v -69.007 c 0,-76.226 -61.788,-138.014 -138.014,-138.014 -76.226,0 -138.014,61.788 -138.014,138.014 z"
       id="path1-5" />
    <g
       id="g3">
	<path
   style="fill:#0093c4"
   d="m 390.155,255.888 c 0,-76.226 -61.788,-138.014 -138.014,-138.014 -5.394,0 -10.692,0.387 -15.925,0.989 68.713,7.906 122.089,66.193 122.089,137.025 v 76.969 l 31.849,0.123 v -77.092 z"
   id="path2-6" />

	<polygon
   style="fill:#0093c4"
   points="294.607,324.895 395.463,462.909 411.388,441.118 326.456,324.895 "
   id="polygon2" />

	<path
   style="fill:#0093c4"
   d="M 39.812,255.888 C 39.812,143.952 126.378,52.527 236.217,44.362 230.942,43.97 225.668,43.558 220.292,43.558 102.98,43.558 7.963,138.575 7.963,255.887 h 31.849 z"
   id="path3-9" />

</g>
    <path
       d="M 395.463,476.404 278.926,316.933 h 71.417 v -61.045 c 0,-71.711 -58.341,-130.052 -130.052,-130.052 -71.711,0 -130.051,58.341 -130.051,130.052 v 7.962 H 0 v -7.962 C 0,197.024 22.908,141.697 64.505,100.101 106.102,58.505 161.428,35.596 220.292,35.596 c 58.864,0 114.191,22.908 155.787,64.505 41.596,41.597 64.505,96.923 64.505,155.787 v 61.045 H 512 Z m -85.176,-143.547 85.176,116.557 85.176,-116.557 h -55.981 v -76.969 c 0,-54.61 -21.252,-105.937 -59.841,-144.526 -38.589,-38.589 -89.916,-59.841 -144.526,-59.841 -54.61,0 -105.937,21.252 -144.526,59.841 -36.707,36.707 -57.727,84.942 -59.69,136.564 H 74.53 c 4.15,-76.802 67.942,-138.014 145.762,-138.014 80.491,0 145.976,65.484 145.976,145.976 v 76.969 z"
       id="path4-3" />
    <rect
       x="406.082"
       y="343.479"
       transform="rotate(-143.1301,414.04402,383.29088)"
       style="fill:#ffffff"
       width="15.925"
       height="79.623001"
       id="rect4" />
  </g>
</svg>
