<?xml version="1.0" encoding="UTF-8" standalone="no"?>
<svg
   viewBox="0 0 640 640"
   version="1.1"
   id="svg1"
   sodipodi:docname="x.svg"
   inkscape:version="1.4.2 (2aeb623e1d, 2025-05-12)"
   xmlns:inkscape="http://www.inkscape.org/namespaces/inkscape"
   xmlns:sodipodi="http://sodipodi.sourceforge.net/DTD/sodipodi-0.dtd"
   xmlns="http://www.w3.org/2000/svg"
   xmlns:svg="http://www.w3.org/2000/svg">
  <defs
     id="defs1" />
  <sodipodi:namedview
     id="namedview1"
     pagecolor="#ffffff"
     bordercolor="#000000"
     borderopacity="0.25"
     inkscape:showpageshadow="2"
     inkscape:pageopacity="0.0"
     inkscape:pagecheckerboard="0"
     inkscape:deskcolor="#d1d1d1"
     inkscape:zoom="1.1921875"
     inkscape:cx="320"
     inkscape:cy="320"
     inkscape:window-width="1681"
     inkscape:window-height="991"
     inkscape:window-x="26"
     inkscape:window-y="23"
     inkscape:window-maximized="0"
     inkscape:current-layer="svg1" />
  <!--!Font Awesome Free 7.1.0 by @fontawesome - https://fontawesome.com License - https://fontawesome.com/license/free Copyright 2025 Fonticons, Inc.-->
  <g
     id="g2"
     transform="matrix(1.2861522,0,0,1.2242327,-106.09228,-160.06608)">
    <path
       d="m 397.24154,557.08518 c -4.11678,0 -7.82996,3.17871 -7.82996,7.56016 v 6.18558 c 0,22.76639 -17.35507,41.23723 -38.74621,41.23723 H 221.51135 c -21.39113,0 -38.7462,-18.47084 -38.7462,-41.23723 v -54.63931 c 0,-10.82477 -4.11679,-21.04817 -10.57449,-29.38152 -25.66936,-33.24751 -41.08712,-75.7734 -41.08712,-122.16527 0,-106.27176 80.96343,-192.44037 180.81563,-192.44037 90.97286,0 166.28579,71.56376 178.95903,164.69115 0.32289,2.57733 1.37226,5.06875 2.90597,7.13061 l 28.89821,36.85576 c 5.65049,7.21652 8.79862,16.40898 8.79862,25.85918 0,22.25091 -16.95147,40.37811 -37.939,40.37811 h -0.80721 c -7.10347,0 -12.9154,6.18558 -12.9154,13.74574 v 41.23722 c 0,30.32654 -23.167,54.98296 -51.66161,54.98296 z M 311.91917,227.18741 c -10.73593,0 -19.37311,9.19247 -19.37311,20.61861 0,19.67359 -22.35979,29.55334 -35.43663,15.63578 -7.5878,-8.07562 -19.85743,-8.07562 -27.36451,0 -7.50708,8.07563 -7.5878,21.13408 0,29.12379 13.07685,13.91756 3.7939,37.71488 -14.69127,37.71488 -10.73593,0 -19.3731,9.19246 -19.3731,20.61861 0,11.42614 8.63717,20.61861 19.3731,20.61861 18.48517,0 27.76812,23.79731 14.69127,37.71487 -7.5878,8.07563 -7.5878,21.13408 0,29.12379 7.5878,7.98971 19.85743,8.07562 27.36451,0 13.07684,-13.91756 35.43663,-4.03781 35.43663,15.63578 0,11.42615 8.63718,20.61861 19.37311,20.61861 10.73592,0 19.3731,-9.19246 19.3731,-20.61861 0,-19.67359 22.35979,-29.55334 35.43663,-15.63578 7.5878,8.07562 19.85743,8.07562 27.36451,0 7.50708,-8.07562 7.5878,-21.13408 0,-29.12379 -13.07684,-13.91756 -3.7939,-37.71487 14.69127,-37.71487 10.73593,0 19.3731,-9.19247 19.3731,-20.61861 0,-11.42615 -8.63717,-20.61861 -19.3731,-20.61861 -18.48517,0 -27.76811,-23.79732 -14.69127,-37.71488 7.5878,-8.07562 7.5878,-21.13408 0,-29.12379 -7.5878,-7.98971 -19.85743,-8.07562 -27.36451,0 -13.07684,13.91756 -35.43663,4.03781 -35.43663,-15.63578 0,-11.42614 -8.63718,-20.61861 -19.3731,-20.61861 z m -25.83081,75.60157 c 10.73593,0 19.37311,9.19247 19.37311,20.61862 0,11.42614 -8.63718,20.61861 -19.37311,20.61861 -10.73593,0 -19.3731,-9.19247 -19.3731,-20.61861 0,-11.42615 8.63717,-20.61862 19.3731,-20.61862 z m 32.28851,75.60158 c 0,-11.42615 8.63717,-20.61861 19.3731,-20.61861 10.73593,0 19.3731,9.19246 19.3731,20.61861 0,11.42614 -8.63717,20.61861 -19.3731,20.61861 -10.73593,0 -19.3731,-9.19247 -19.3731,-20.61861 z"
       id="path1"
       style="fill:#decd87;stroke:#000000;stroke-width:11.233;stroke-dasharray:none;stroke-opacity:1" />
    <rect
       style="fill:#decd87;stroke:none;stroke-width:8.33739"
       id="rect1"
       width="205.50459"
       height="230.66843"
       x="186.21233"
       y="240.73396" />
    <rect
       style="fill:#decd87;stroke:none;stroke-width:8.33739"
       id="rect1-2"
       width="205.50459"
       height="230.66843"
       x="240.74968"
       y="277.88205" />
    <rect
       style="fill:#decd87;stroke:none;stroke-width:8.33739"
       id="rect1-7"
       width="205.50459"
       height="230.66843"
       x="208.80997"
       y="220.16907" />
  </g>
</svg>
