<?xml version="1.0" encoding="iso-8859-1"?>
<!-- Uploaded to: SVG Repo, www.svgrepo.com, Generator: SVG Repo Mixer Tools -->
<svg version="1.1" id="Layer_1" xmlns="http://www.w3.org/2000/svg" xmlns:xlink="http://www.w3.org/1999/xlink" 
	 viewBox="0 0 512 512" xml:space="preserve">
<path style="fill:#2F91ED;" d="M382.824,382.823v-10.449c0-70.043-56.782-126.823-126.824-126.823l0,0l-20.898,158.17
	L382.824,382.823z"/>
<path style="fill:#63C1FF;" d="M256,245.551L256,245.551c-70.043,0-126.824,56.781-126.824,126.823v10.449L256,403.721V245.551z"/>
<rect x="66.476" y="23.535" style="fill:#983300;" width="31.347" height="464.927"/>
<rect x="414.166" y="23.535" style="fill:#663300;" width="31.347" height="464.927"/>
<polygon style="fill:#FDE09C;" points="129.176,382.823 129.176,464.929 256,485.827 256,382.823 "/>
<polygon style="fill:#FFBA00;" points="256,382.823 256,485.827 382.824,464.929 382.824,382.823 "/>
<path style="fill:#2F91ED;" d="M382.824,47.071L256,26.173l-20.898,171.062l146.652-41.099c0.703-5.404,1.069-10.915,1.069-16.51
	V47.071H382.824z"/>
<polygon style="fill:#63C1FF;" points="129.176,47.071 256,26.173 256,197.235 129.176,133.673 "/>
<path style="fill:#FDE09C;" d="M209.918,156.822c-41.928,0-45.737-19.592-80.741-23.15v5.953
	C129.176,209.668,185.957,266.449,256,266.449l0,0V144.99C244.482,150.909,232.953,156.822,209.918,156.822z"/>
<path style="fill:#FFBA00;" d="M256,144.99v121.459l0,0c64.447,0,117.662-48.072,125.755-110.313
	c-33.933-3.869-38.14-23.015-79.6-23.015C279.071,133.121,267.542,139.058,256,144.99z"/>
<polygon style="fill:#983300;" points="465.151,464.929 256,464.929 235.102,488.465 256,512 465.151,512 "/>
<rect x="46.849" y="464.927" style="fill:#D5681E;" width="209.147" height="47.073"/>
<polygon style="fill:#983300;" points="465.151,0 256,0 235.102,23.535 256,47.071 465.151,47.071 "/>
<rect x="46.849" style="fill:#D5681E;" width="209.147" height="47.073"/>
</svg>