<?xml version="1.0" encoding="iso-8859-1"?>
<!-- Uploaded to: SVG Repo, www.svgrepo.com, Generator: SVG Repo Mixer Tools -->
<svg version="1.1" id="Layer_1" xmlns="http://www.w3.org/2000/svg" xmlns:xlink="http://www.w3.org/1999/xlink" 
	 viewBox="0 0 512 512" xml:space="preserve">
<path style="fill:#2BA5F7;" d="M270.299,181.799c3.155,9.717,16.18,18.294,16.18,29.073c0,10.768-13.025,19.346-16.18,29.062
	c-0.416,1.293-0.701,2.662-0.865,4.075l-53.753,14.778v-12.389h-36.347v58.573c-10.385,0.8-21.887,9.41-31.154,6.397
	c-10.067-3.275-14.23-18.316-22.621-24.417c-8.468-6.156-24.034-5.51-30.19-13.978c-6.102-8.38-0.723-22.961-3.987-33.039
	c-3.155-9.717-16.191-18.294-16.191-29.062c0-10.779,13.036-19.357,16.191-29.073c3.264-10.067-2.125-24.648,3.976-33.039
	c6.167-8.468,21.734-7.821,30.201-13.978c8.391-6.102,12.554-21.142,22.621-24.417c9.717-3.155,21.887,6.463,32.655,6.463
	c10.768,0,22.939-9.618,32.655-6.463c10.067,3.275,14.23,18.316,22.621,24.417c8.468,6.156,24.034,5.51,30.201,13.978
	C272.413,157.152,267.023,171.721,270.299,181.799z"/>
<path style="fill:#2197D8;" d="M148.942,286.951c-4.886-6.156-13.866-5.51-17.419-13.978c-3.521-8.38-0.417-22.961-2.3-33.039
	c-1.821-9.717-9.341-18.294-9.341-29.062c0-10.779,7.521-19.357,9.341-29.073c1.883-10.067-1.226-24.648,2.294-33.039
	c3.558-8.468,12.54-7.821,17.424-13.978c4.485-5.652,6.878-18.97,11.824-23.505c-4.423-1.391-8.702-2.174-12.588-0.913
	c-10.067,3.275-14.23,18.316-22.621,24.417c-8.468,6.156-24.034,5.51-30.201,13.978c-6.102,8.391-0.712,22.971-3.976,33.039
	c-3.155,9.717-16.191,18.294-16.191,29.073c0,10.768,13.036,19.346,16.191,29.062c3.264,10.078-2.114,24.658,3.987,33.039
	c6.156,8.468,21.723,7.822,30.19,13.978c8.391,6.102,12.554,21.142,22.621,24.417c3.886,1.263,8.165,0.481,12.59-0.91
	C155.822,305.925,153.428,292.605,148.942,286.951z"/>
<path style="fill:#F95428;" d="M353.454,210.873c0,3.812-1.227,7.427-3.199,10.911l-80.822,22.227
	c0.164-1.413,0.449-2.782,0.865-4.075c3.155-9.717,16.18-18.294,16.18-29.062c0-10.779-13.025-19.357-16.18-29.073
	c-3.275-10.078,2.114-24.648-3.987-33.039c-6.167-8.468-21.734-7.821-30.201-13.978c-8.391-6.102-12.554-21.142-22.621-24.417
	c-9.717-3.155-21.887,6.463-32.655,6.463c-10.768,0-22.939-9.618-32.655-6.463c-10.067,3.275-14.23,18.316-22.621,24.417
	c-8.468,6.156-24.034,5.51-30.201,13.978c-6.102,8.391-0.712,22.971-3.976,33.039c-3.155,9.717-16.191,18.294-16.191,29.073
	c0,10.768,13.036,19.346,16.191,29.062c3.264,10.078-2.114,24.658,3.987,33.039c6.156,8.468,21.723,7.821,30.19,13.978
	c8.391,6.102,12.554,21.142,22.621,24.417c9.267,3.012,20.77-5.598,31.154-6.397v36.314h36.347v-12.389l44.65,12.269
	c0,0.011,0,0.011,0,0.011c-8.041,12.389-13.715,29.873-26.137,33.904c-15.676,5.094-35.985-14.81-53.359-14.81
	s-37.683,19.904-53.359,14.81c-16.234-5.269-20.934-33.488-34.452-43.325c-13.66-9.936-41.912-5.751-51.847-19.411
	c-9.837-13.518,2.804-39.053-2.476-55.287c-5.083-15.676-30.486-28.821-30.486-46.184c0-17.374,25.403-30.519,30.486-46.184
	c5.28-16.245-7.361-41.78,2.476-55.298c9.936-13.66,38.187-9.465,51.847-19.411c13.518-9.837,18.217-38.056,34.463-43.325
	c15.665-5.094,35.974,14.81,53.348,14.81s37.683-19.904,53.359-14.81c16.245,5.269,20.934,33.488,34.452,43.325
	c13.66,9.947,41.912,5.751,51.847,19.411c9.837,13.518-2.804,39.053,2.476,55.298C328.051,180.353,353.454,193.499,353.454,210.873z
	"/>
<path style="fill:#E54728;" d="M87.414,109.391c-6.573,13.518,1.884,39.053-1.654,55.298c-3.396,15.665-20.386,28.81-20.386,46.184
	c0,17.363,16.99,30.508,20.386,46.184c3.538,16.234-4.919,41.769,1.654,55.287c6.649,13.66,25.546,9.476,34.682,19.411
	c8.512,9.246,11.798,34.758,21.186,42.142c-5.565,1.928-10.911,2.771-15.807,1.183c-16.234-5.269-20.934-33.488-34.452-43.325
	c-13.66-9.936-41.912-5.751-51.847-19.411c-9.837-13.518,2.804-39.053-2.476-55.287c-5.083-15.676-30.486-28.821-30.486-46.184
	c0-17.374,25.403-30.519,30.486-46.184c5.28-16.245-7.361-41.78,2.476-55.298c9.936-13.66,38.187-9.465,51.847-19.411
	c13.518-9.837,18.217-38.056,34.463-43.325c4.897-1.588,10.242-0.745,15.807,1.172c-9.399,7.372-12.685,32.896-21.197,42.153
	C112.96,99.926,94.064,95.73,87.414,109.391z"/>
<polygon style="fill:#F7B239;" points="503.782,170.056 503.782,417.627 462.155,417.627 462.155,396.66 462.155,191.023 
	462.155,170.056 "/>
<rect x="462.157" y="376.153" style="fill:#E09B2D;" width="41.627" height="41.474"/>
<g>
	<polygon style="fill:#F7B239;" points="215.68,328.896 215.68,341.285 179.333,341.285 179.333,304.971 179.333,246.398 
		215.68,246.398 215.68,258.787 	"/>
	<path style="fill:#F7B239;" d="M462.155,191.023V396.66l-20.813-5.729l-24.078-6.616l-118.308-32.524l-38.625-10.615
		c0,0,0,0,0-0.011l-44.65-12.269v-70.108l53.753-14.778l80.822-22.227l91.086-25.042L462.155,191.023z"/>
</g>
<g>
	<rect x="178.229" y="318.095" style="fill:#E09B2D;" width="37.453" height="20.737"/>
	<path style="fill:#E09B2D;" d="M441.342,196.741v151.614l-24.078-3.715L298.956,326.38l-38.625-5.96c0,0,0,0,0-0.007l-44.65-6.889
		v15.372l44.65,12.269c0,0.011,0,0.011,0,0.011l38.625,10.615l118.308,32.524l24.078,6.616l20.813,5.729v-45.089V191.023
		L441.342,196.741z"/>
</g>
<path style="fill:#FFFFFF;" d="M253.532,282.65c-3.606,0-6.914-2.394-7.917-6.04c-1.203-4.375,1.368-8.897,5.743-10.1
	l145.832-40.097c4.374-1.205,8.897,1.369,10.1,5.743c1.203,4.375-1.368,8.897-5.743,10.1l-145.832,40.097
	C254.987,282.555,254.253,282.65,253.532,282.65z"/>
<path style="fill:#F7B239;" d="M201.373,366.371v99.828h-41.079v-99.828c6.463-3.012,12.915-5.674,19.039-6.047
	c0.504-0.044,1.008-0.055,1.501-0.055C187.396,360.269,194.385,363.107,201.373,366.371z"/>
<path style="fill:#E09B2D;" d="M201.373,374.149v25.086c-6.989-3.264-13.978-6.102-20.54-6.102s-13.551,2.837-20.54,6.102v-32.863
	c6.463-3.012,12.915-5.674,19.039-6.047l22.04,6.047V374.149z"/>
<g>
	<circle style="fill:#FFFFFF;" cx="483.858" cy="192.119" r="8.216"/>
	<circle style="fill:#FFFFFF;" cx="424.299" cy="227.479" r="8.216"/>
	<circle style="fill:#FFFFFF;" cx="197.947" cy="265.513" r="8.216"/>
</g>
<path style="fill:#333333;" d="M503.784,161.84h-41.627c-4.537,0-8.216,3.679-8.216,8.216v14.702l-92.303,25.378
	c-0.359-12.745-9.87-22.72-18.299-31.531c-5.368-5.612-10.919-11.415-12.555-16.456c-1.77-5.448-0.686-13.693,0.364-21.666
	c1.666-12.664,3.389-25.759-4.008-35.925c-7.473-10.274-21.127-12.782-33.171-14.993c-7.844-1.441-15.955-2.929-20.486-6.229
	c-4.424-3.218-8.289-10.401-12.028-17.346c-5.847-10.864-12.476-23.177-24.719-27.148c-11.771-3.825-23.575,1.81-34.992,7.258
	c-7.365,3.514-14.98,7.149-20.905,7.149c-5.926,0-13.542-3.635-20.908-7.151c-11.415-5.449-23.218-11.08-34.975-7.258
	c-12.247,3.972-18.878,16.286-24.73,27.151c-3.741,6.945-7.609,14.127-12.035,17.349c-4.527,3.297-12.639,4.787-20.484,6.228
	c-12.048,2.21-25.7,4.716-33.173,14.989c-7.398,10.167-5.676,23.262-4.009,35.926c1.049,7.974,2.134,16.219,0.363,21.67
	c-1.634,5.038-7.186,10.841-12.554,16.452C9.741,187.588,0,197.77,0,210.871c0,13.093,9.735,23.271,18.325,32.25
	c5.372,5.615,10.927,11.423,12.565,16.475c1.77,5.441,0.685,13.683-0.364,21.655c-1.666,12.664-3.389,25.758,4.008,35.924
	c7.475,10.277,21.133,12.786,33.183,15c7.841,1.441,15.949,2.93,20.474,6.222c4.426,3.22,8.294,10.405,12.035,17.352
	c5.849,10.861,12.477,23.172,24.712,27.143c9.092,2.956,18.203,0.26,27.141-3.628v86.934c0,4.537,3.679,8.216,8.216,8.216h41.079
	c4.537,0,8.216-3.678,8.216-8.216v-86.933c6.291,2.738,12.669,4.883,19.063,4.883c2.691,0,5.386-0.38,8.079-1.255
	c12.234-3.97,18.866-16.28,24.717-27.142c0.927-1.721,1.829-3.393,2.732-5.002l26.32,7.236v22.273
	c0,17.824,11.409,33.444,28.391,38.871l53.116,16.967c4.144,1.325,8.369,1.978,12.554,1.978c8.487,0,16.806-2.685,23.932-7.887
	c10.642-7.77,16.746-19.784,16.746-32.961v-2.194l28.703,7.892v14.702c0,4.537,3.678,8.216,8.216,8.216h41.627
	c4.537,0,8.216-3.679,8.216-8.216V170.056C512,165.518,508.322,161.84,503.784,161.84z M168.51,457.983v-86.276
	c4.444-1.86,8.702-3.223,12.326-3.223c3.623,0,7.878,1.362,12.322,3.221v86.278L168.51,457.983L168.51,457.983z M246.98,347.959
	c-4.6,8.539-9.356,17.369-15.324,19.306c-5.53,1.797-14.33-2.4-22.837-6.461c-9.014-4.303-18.338-8.752-27.983-8.752
	s-18.968,4.45-27.983,8.752c-8.508,4.061-17.307,8.255-22.84,6.46c-5.968-1.937-10.722-10.766-15.32-19.305
	c-4.613-8.567-9.384-17.426-16.836-22.849c-7.549-5.491-17.525-7.324-27.173-9.097c-9.465-1.738-19.25-3.537-22.865-8.506
	c-3.537-4.862-2.25-14.648-1.005-24.113c1.287-9.785,2.619-19.901-0.299-28.874c-2.794-8.619-9.669-15.806-16.318-22.757
	c-6.768-7.075-13.766-14.393-13.766-20.892c0-6.508,7.003-13.829,13.775-20.909c6.645-6.946,13.516-14.129,16.309-22.736
	c2.919-8.984,1.588-19.102,0.3-28.889c-1.246-9.466-2.533-19.254,1.005-24.116c3.612-4.965,13.393-6.76,22.851-8.497
	c9.654-1.772,19.636-3.605,27.187-9.103c7.449-5.42,12.219-14.277,16.832-22.842c4.6-8.541,9.357-17.373,15.337-19.313
	c5.524-1.795,14.317,2.401,22.821,6.46c9.016,4.304,18.339,8.754,27.985,8.754c9.645,0,18.968-4.45,27.983-8.752
	c8.507-4.061,17.304-8.26,22.841-6.459c5.975,1.938,10.727,10.768,15.324,19.307c4.611,8.566,9.379,17.424,16.826,22.844
	c7.553,5.5,17.535,7.333,27.189,9.105c9.459,1.736,19.239,3.533,22.851,8.498c3.537,4.862,2.25,14.649,1.005,24.115
	c-1.288,9.786-2.619,19.904,0.299,28.885c2.793,8.61,9.665,15.793,16.31,22.739c6.772,7.08,13.775,14.401,13.775,20.909
	c0,1.26-0.26,2.58-0.779,3.987l-58.478,16.078c4.38-5.633,8.713-12.024,8.713-20.065c0-9.093-5.533-16.077-10.414-22.238
	c-2.602-3.284-5.293-6.68-6.167-9.375c-0.957-2.946-0.789-7.446-0.624-11.799c0.29-7.711,0.618-16.451-4.535-23.538
	c-5.202-7.142-13.665-9.528-21.131-11.634c-4.152-1.171-8.444-2.38-10.88-4.153c-2.379-1.731-4.824-5.405-7.189-8.96
	c-4.323-6.497-9.223-13.861-17.726-16.628c-8.2-2.663-16.342,0.323-23.525,2.96c-4.156,1.525-8.454,3.102-11.668,3.102
	c-3.214,0-7.511-1.576-11.668-3.102c-7.182-2.635-15.322-5.623-23.53-2.958c-8.497,2.765-13.397,10.13-17.721,16.626
	c-2.365,3.555-4.81,7.229-7.189,8.96c-2.436,1.771-6.729,2.982-10.88,4.153c-7.467,2.105-15.929,4.491-21.134,11.638
	c-5.153,7.085-4.821,15.834-4.529,23.552c0.164,4.349,0.335,8.846-0.617,11.782c-0.874,2.692-3.567,6.087-6.171,9.372
	c-4.885,6.162-10.422,13.144-10.422,22.239c0,9.087,5.535,16.067,10.419,22.225c2.605,3.285,5.299,6.682,6.171,9.368
	c0.954,2.946,0.787,7.446,0.623,11.798c-0.289,7.719-0.617,16.467,4.535,23.541c5.196,7.147,13.659,9.534,21.127,11.64
	c4.151,1.17,8.441,2.38,10.878,4.152c2.379,1.731,4.824,5.405,7.189,8.96c4.323,6.497,9.223,13.861,17.723,16.627
	c2.266,0.736,4.529,1.042,6.768,1.042c5.862,0,11.562-2.091,16.76-3.997c0.658-0.241,1.307-0.478,1.951-0.71v25.766
	c0,4.537,3.679,8.216,8.216,8.216h36.347c4.537,0,8.216-3.678,8.216-8.216v-1.608l23.995,6.597
	C247.588,346.836,247.281,347.4,246.98,347.959z M207.466,258.787v70.108v4.173h-19.915v-78.452h19.915L207.466,258.787
	L207.466,258.787z M215.682,238.183h-36.347c-4.537,0-8.216,3.678-8.216,8.216v51.824c-2.596,0.742-5.124,1.665-7.608,2.576
	c-4.912,1.802-9.993,3.663-12.788,2.756c-3.066-0.998-6.147-5.627-9.125-10.103c-3.168-4.761-6.442-9.683-11.206-13.146
	c-4.812-3.499-10.54-5.115-16.08-6.677c-5.137-1.449-10.449-2.947-12.301-5.493c-1.805-2.479-1.599-7.96-1.402-13.259
	c0.216-5.782,0.439-11.76-1.413-17.48c-1.788-5.508-5.417-10.085-8.927-14.509c-3.374-4.255-6.862-8.653-6.862-12.016
	c0-3.371,3.49-7.772,6.866-12.03c3.508-4.424,7.136-8.999,8.924-14.509c1.852-5.714,1.627-11.693,1.408-17.475
	c-0.202-5.301-0.409-10.781,1.395-13.261c1.852-2.545,7.167-4.043,12.307-5.493c5.542-1.562,11.271-3.178,16.084-6.678
	c4.764-3.464,8.038-8.386,11.206-13.146c2.979-4.476,6.059-9.105,9.12-10.102c2.8-0.906,7.878,0.955,12.792,2.758
	c5.247,1.925,11.194,4.107,17.327,4.107s12.079-2.182,17.327-4.107c4.912-1.803,9.993-3.663,12.786-2.759
	c3.066,0.998,6.147,5.627,9.125,10.103c3.168,4.761,6.442,9.683,11.206,13.146c4.813,3.499,10.543,5.115,16.084,6.678
	c5.14,1.449,10.455,2.948,12.304,5.487c1.805,2.483,1.6,7.958,1.401,13.253c-0.218,5.787-0.443,11.771,1.416,17.491
	c1.787,5.505,5.41,10.079,8.916,14.503c3.374,4.258,6.862,8.662,6.862,12.033c0,3.364-3.487,7.765-6.859,12.019
	c-3.502,4.419-7.123,8.989-8.918,14.506l-38.589,10.61v-1.608C223.898,241.862,220.219,238.183,215.682,238.183z M408.807,397.227
	c0,7.872-3.647,15.048-10.004,19.691c-6.354,4.64-14.297,5.927-21.795,3.528l-53.118-16.968
	c-10.144-3.241-16.96-12.572-16.96-23.219v-17.755l101.876,28.011L408.807,397.227L408.807,397.227z M223.898,322.633v-57.584
	l230.043-63.25v184.085L223.898,322.633z M495.568,409.411h-25.195V178.272h25.195V409.411z"/>
</svg>