<?xml version="1.0" encoding="UTF-8" standalone="no"?>
<!-- Uploaded to: SVG Repo, www.svgrepo.com, Generator: SVG Repo Mixer Tools -->

<svg
   version="1.1"
   id="_x32_"
   width="800px"
   height="800px"
   viewBox="0 0 512 512"
   xml:space="preserve"
   xmlns="http://www.w3.org/2000/svg"
   xmlns:svg="http://www.w3.org/2000/svg"><defs
   id="defs1">
	
</defs>
<style
   type="text/css"
   id="style1">
<![CDATA[
	.st0{fill:#000000;}
]]>
</style>
<path
   class="st0"
   d="m 487.212,381.438 c -71,8.859 -161.718,-62.219 -161.718,-194.875 0,-101.594 -58.031,-124.406 -58.031,-124.406 V 16.531 h -22.922 v 45.625 c 0,0 -58.047,26.969 -58.047,124.406 0,132.656 -90.703,203.734 -161.703,194.875 -33.188,-4.125 -24.891,8.297 -20.75,24.875 4.156,16.594 42.391,48.813 103.656,37.313 47.031,-8.813 81.469,-40.531 102.031,-74.5 -5.547,49.063 -6,126.344 46.281,126.344 52.266,0 51.813,-77.313 46.266,-126.344 20.547,33.969 55,65.688 102.016,74.5 61.281,11.5 99.5,-20.719 103.656,-37.313 4.156,-16.578 12.452,-28.999 -20.735,-24.874 z"
   id="path1"
   style="fill:#ffd42a;stroke:#000000;stroke-opacity:1;stroke-width:9.63968;stroke-dasharray:none" />
</svg>
