<?xml version="1.0" encoding="iso-8859-1"?>
<!-- Uploaded to: SVG Repo, www.svgrepo.com, Generator: SVG Repo Mixer Tools -->
<svg height="800px" width="800px" version="1.1" id="Layer_1" xmlns="http://www.w3.org/2000/svg" xmlns:xlink="http://www.w3.org/1999/xlink" 
	 viewBox="0 0 512.001 512.001" xml:space="preserve">
<g>
	<polygon style="fill:#F4B2B0;" points="187.086,138.459 92.791,138.459 105.819,203.995 181.635,203.995 	"/>
	<polygon style="fill:#F4B2B0;" points="324.915,138.459 330.366,203.995 406.181,203.995 419.21,138.459 	"/>
	<polygon style="fill:#F4B2B0;" points="331.026,211.85 167.369,375.509 177.551,253.01 292.108,138.453 324.92,138.453 	"/>
</g>
<path style="fill:#B3404A;" d="M444.301,124.237H419.21h-94.175c-0.038,0-0.077-0.006-0.117-0.006h-32.812h-77.875V69.974
	c0-22.901,18.632-41.532,41.532-41.532h0.472c22.901,0,41.532,18.632,41.532,41.532v14.269c0,7.853,6.368,14.221,14.221,14.221
	s14.221-6.368,14.221-14.221V69.974C326.211,31.39,294.821,0,256.237,0h-0.472c-38.584,0-69.974,31.39-69.974,69.974v54.263H92.791
	H67.699c-7.853,0-14.221,6.368-14.221,14.221s6.368,14.221,14.221,14.221h13.42l10.754,54.089
	c1.323,6.655,7.162,11.448,13.948,11.448h60.358l-2.787,33.522c-0.003,0.031-0.01,0.063-0.013,0.095l-9.222,110.949l-0.95,11.428
	l-5.262,52.273h-27.728c-7.853,0-14.221,6.368-14.221,14.221v57.077c0,7.853,6.368,14.221,14.221,14.221h271.57
	c7.853,0,14.221-6.368,14.221-14.221v-57.077c0-7.853-6.368-14.221-14.221-14.221h-58.023c-7.853,0-14.221,6.368-14.221,14.221
	c0,7.853,6.368,14.221,14.221,14.221h43.802v28.635H134.437v-28.635h26.357c0.01,0,0.018,0.001,0.028,0.001s0.02-0.001,0.03-0.001
	h109.379c7.853,0,14.221-6.368,14.221-14.221c0-7.853-6.368-14.221-14.221-14.221h-93.7l4.481-44.503l138.525-138.525
	l12.587,142.819c0.687,7.823,7.56,13.601,15.414,12.917c7.824-0.688,13.607-7.59,12.917-15.414l-14.591-165.56h60.318
	c6.785,0,12.625-4.792,13.948-11.448l10.754-54.089h13.419c7.853,0,14.221-6.368,14.221-14.221
	C458.524,130.606,452.156,124.237,444.301,124.237z M195.795,205.276c0.003-0.034,0.01-0.067,0.013-0.101l4.366-52.495h57.595
	l-62.825,62.827L195.795,205.276z M117.493,189.774l-7.376-37.095h61.511l-3.085,37.095H117.493z M184.757,338.01l6.539-78.632
	L297.992,152.68h13.836l4.366,52.495c0.004,0.048,0.014,0.097,0.018,0.145l0.095,1.139L184.757,338.01z M394.51,189.774h-51.049
	l-3.086-37.095h61.511L394.51,189.774z"/>
</svg>