<?xml version="1.0" encoding="UTF-8" standalone="no"?>
<!-- Uploaded to: SVG Repo, www.svgrepo.com, Generator: SVG Repo Mixer Tools -->

<svg
   width="800px"
   height="800px"
   viewBox="0 0 73 73"
   version="1.1"
   id="svg8"
   sodipodi:docname="image.svg"
   inkscape:version="1.4.4 (dcaf3e7d9e, 2026-05-05)"
   xmlns:inkscape="http://www.inkscape.org/namespaces/inkscape"
   xmlns:sodipodi="http://sodipodi.sourceforge.net/DTD/sodipodi-0.dtd"
   xmlns="http://www.w3.org/2000/svg"
   xmlns:svg="http://www.w3.org/2000/svg">
  <sodipodi:namedview
     id="namedview8"
     pagecolor="#ffffff"
     bordercolor="#000000"
     borderopacity="0.25"
     inkscape:showpageshadow="2"
     inkscape:pageopacity="0.0"
     inkscape:pagecheckerboard="0"
     inkscape:deskcolor="#d1d1d1"
     inkscape:zoom="1.07125"
     inkscape:cx="399.53326"
     inkscape:cy="400"
     inkscape:window-width="1920"
     inkscape:window-height="1043"
     inkscape:window-x="0"
     inkscape:window-y="0"
     inkscape:window-maximized="1"
     inkscape:current-layer="svg8" />
  <title
     id="title1">fundamentals/css/box-model</title>
  <desc
     id="desc1">Created with Sketch.</desc>
  <defs
     id="defs1" />
  <g
     id="g8"
     transform="matrix(1.4421293,0,0,1.4117075,-16.858784,-15.733177)">
    <g
       id="box"
       transform="translate(16,16)"
       fill-rule="nonzero"
       style="fill:none;stroke:none;stroke-width:1">
      <polygon
         id="Shape"
         fill="#a98258"
         points="0,11.586207 0,42 42,42 42,11.586207 34.758621,0 7.2413793,0 " />
      <polygon
         id="polygon1"
         fill="#daae86"
         points="7.2413793,0 0,12 42,12 34.758621,0 " />
      <polygon
         id="polygon2"
         fill="#d8b18b"
         points="20.5,37 17.5,39.5 16,38.25 16,42 25,42 25,38.25 23.5,39.5 " />
      <rect
         id="Rectangle-path"
         fill="#e8d5b2"
         x="14"
         y="23"
         width="13"
         height="12" />
      <g
         id="Group"
         transform="translate(16,25)"
         fill="#d4c3a5">
        <path
           d="M 5.25,6.4 H 0.75 C 0.336,6.4 0,6.7576 0,7.2 0,7.6424 0.336,8 0.75,8 h 4.5 C 5.664,8 6,7.6424 6,7.2 6,6.7576 5.664,6.4 5.25,6.4 Z"
           id="path2" />
        <path
           d="M 8.25,6.4 H 7.5 C 7.086,6.4 6.75,6.7576 6.75,7.2 6.75,7.6424 7.086,8 7.5,8 H 8.25 C 8.664,8 9,7.6424 9,7.2 9,6.7576 8.664,6.4 8.25,6.4 Z"
           id="path3" />
        <path
           d="m 3.75,1.6 h 4.5 C 8.664,1.6 9,1.2424 9,0.8 9,0.3576 8.664,0 8.25,0 H 3.75 C 3.336,0 3,0.3576 3,0.8 3,1.2424 3.336,1.6 3.75,1.6 Z"
           id="path4" />
        <path
           d="M 8.25,3.2 H 6.75 C 6.336,3.2 6,3.5576 6,4 6,4.4424 6.336,4.8 6.75,4.8 h 1.5 C 8.664,4.8 9,4.4424 9,4 9,3.5576 8.664,3.2 8.25,3.2 Z"
           id="path5" />
        <path
           d="m 0.75,4.8 h 1.5 C 2.664,4.8 3,4.4424 3,4 3,3.5576 2.664,3.2 2.25,3.2 H 0.75 C 0.336,3.2 0,3.5576 0,4 0,4.4424 0.336,4.8 0.75,4.8 Z"
           id="path6" />
        <path
           d="M 0.75,1.6 H 1.5 C 1.914,1.6 2.25,1.2424 2.25,0.8 2.25,0.3576 1.914,0 1.5,0 H 0.75 C 0.336,0 0,0.3576 0,0.8 0,1.2424 0.336,1.6 0.75,1.6 Z"
           id="path7" />
        <path
           d="M 3.9675,3.432 C 3.8325,3.5832 3.75,3.7832 3.75,4 3.75,4.216 3.8325,4.416 3.9675,4.568 4.11,4.712 4.305,4.8 4.5,4.8 4.695,4.8 4.89,4.712 5.0325,4.568 5.1675,4.416 5.25,4.208 5.25,4 5.25,3.792 5.1675,3.5832 5.0325,3.432 4.7475,3.136 4.245,3.136 3.9675,3.432 Z"
           id="path8" />
      </g>
      <rect
         id="rect8"
         fill="#f4d5bd"
         x="16"
         y="0"
         width="9"
         height="12" />
      <polygon
         id="polygon8"
         fill="#d8b18b"
         points="20.5,20 23.5,16.444444 25,18.222222 25,12 16,12 16,18.222222 17.5,16.444444 " />
    </g>
  </g>
</svg>
