<?xml version="1.0" encoding="iso-8859-1"?>
<!-- Uploaded to: SVG Repo, www.svgrepo.com, Generator: SVG Repo Mixer Tools -->
<svg height="800px" width="800px" version="1.1" id="Layer_1" xmlns="http://www.w3.org/2000/svg" xmlns:xlink="http://www.w3.org/1999/xlink" 
	 viewBox="0 0 512 512" xml:space="preserve">
<g transform="translate(1 1)">
	<path style="fill:#FFE100;" d="M395.8,201.2c-16.2,0-31.6-3.4-45.2-9.4c-24.7,15.4-61.4,20.5-61.4,20.5
		c11.9-11.9,16.2-36.7,17.9-54.6c-11.1-15.4-17.9-33.3-17.9-52.9c0-30.7,16.2-58,41-75.9c-23.9-8.5-48.6-12.8-75.1-12.8
		c-132.4,0-239,106.6-239,238.9c0,28.2,5.1,55.5,13.7,80.2c19.6-23,50.3-37.5,84.5-37.5c58.9,0,106.7,43.5,106.7,96.4
		c0,19.6-6.8,38.4-17.9,52.9c0.9,12.8,3.4,29.9,9.4,42.7c13.7,2.6,28.2,3.4,41.8,3.4c132.3,0,238.9-106.7,238.9-238.9
		c0-30.7-6-60.6-17.1-87.9C457.2,187.6,428.2,201.2,395.8,201.2"/>
	<g>
		<path style="fill:#00DA6C;" d="M395.8,7.5c-58.9,0-106.7,43.5-106.7,96.4c0,19.6,6.8,38.4,17.9,52.9c-1.7,17.9-6,42.7-17.9,54.6
			c0,0,36.7-5.1,61.4-20.5c13.7,6,29,9.4,45.2,9.4c58.9,0,106.7-43.5,106.7-96.4S454.7,7.5,395.8,7.5"/>
		<path style="fill:#00DA6C;" d="M114.2,297.7c58.9,0,106.7,43.5,106.7,96.4c0,19.6-6.8,38.4-17.9,52.9c1.7,17.9,6,42.7,17.9,54.6
			c0,0-36.7-5.1-61.4-20.5c-13.7,6-29,9.4-45.2,9.4c-59,0.9-106.8-42.6-106.8-96.4C7.5,341.2,55.3,297.7,114.2,297.7"/>
	</g>
	<path style="fill:#FFFFFF;" d="M41.7,263.5c0-127.1,99-231.3,224.4-238.1c-3.4-0.9-7.7-0.9-11.1-0.9
		c-132.3,0-238.9,106.7-238.9,238.9c0,28.2,5.1,55.5,13.7,80.2c6-6.8,12.8-12.8,20.5-17.9C44.2,306.2,41.7,284.9,41.7,263.5"/>
	<path style="fill:#FFA800;" d="M476.6,168.2c-6.1,5.8-13.1,11.7-20,15.8c6.3,23.2,10.1,47.2,9.5,71.9
		c-2.8,128-104.8,229.9-231.2,234c4.3,0.1,8.5,0.2,12.8,0.3c132.2,2.9,241.2-101.5,244-233.7C492.4,225.8,487.1,195.8,476.6,168.2"
		/>
	<path d="M255,502.5c-5.1,0-8.5-3.4-8.5-8.5V16.1c0-5.1,3.4-8.5,8.5-8.5s8.5,3.4,8.5,8.5V494C263.5,499.1,260.1,502.5,255,502.5z"/>
	<path d="M255,152.6c-64,0-125.4-18.8-178.3-54.6c-4.3-2.6-5.1-7.7-2.6-11.9c2.6-4.3,7.7-5.1,11.9-2.6
		c49.5,34.1,108.4,52.1,168.1,52.1c5.1,0,8.5,3.4,8.5,8.5C262.7,149.2,260.1,152.6,255,152.6z"/>
	<path d="M493.9,263.5H16.1c-5.1,0-8.5-3.4-8.5-8.5s3.4-8.5,8.5-8.5H494c5.1,0,8.5,3.4,8.5,8.5S499.1,263.5,493.9,263.5z"/>
	<path d="M433.3,423.1c-1.7,0-3.4-0.9-5.1-1.7C377,385.6,317.3,365.9,255,365.9c-5.1,0-8.5-3.4-8.5-8.5s3.4-8.5,8.5-8.5
		c65.7,0,128.9,20.5,182.6,58.9c4.3,2.6,5.1,7.7,1.7,11.9C438.5,421.4,435.9,423.1,433.3,423.1z"/>
	<path d="M260.1,502.5c-2.6,0-5.1-0.9-6.8-3.4c-2.6-3.4-2.6-9.4,0.9-11.9C325,429.9,365.1,345.5,365.1,255c0-5.1,3.4-8.5,8.5-8.5
		s8.5,3.4,8.5,8.5c0,95.6-42.7,185.2-116.9,245.8C264.4,501.6,262.7,502.5,260.1,502.5z"/>
	<path d="M135.5,263.5c-5.1,0-8.5-3.4-8.5-8.5c0-95.6,42.7-185.2,116.9-245.8c3.4-2.6,9.4-2.6,11.9,0.9c2.6,3.4,2.6,9.4-0.9,11.9
		C184.1,80,144,164.5,144,255C144.1,260.1,140.7,263.5,135.5,263.5z"/>
	<path d="M289.1,220.9c-3.4,0-6-1.7-7.7-5.1s-0.9-6.8,1.7-10.2c7.7-7.7,12.8-23.9,15.4-46.1c-11.1-17.1-17.1-35.8-17.1-55.5
		C280.5,46,332.6-1,395.7-1S511,45.9,511,104s-52.1,105-115.2,105c-15.4,0-30.7-2.6-44.4-8.5c-25.6,14.5-59.7,18.8-60.6,19.6
		C290,220.9,289.1,220.9,289.1,220.9z M395.8,16.1c-53.8,0-98.1,39.3-98.1,87.9c0,17.1,5.1,34.1,16.2,48.6c0.9,1.7,1.7,3.4,1.7,6
		c-0.9,12.8-3.4,28.2-8.5,41.8c11.9-3.4,27.3-7.7,39.3-15.4c2.6-1.7,5.1-1.7,7.7-0.9c12.8,6,27.3,8.5,41.8,8.5
		c53.8,0,98.1-40.1,98.1-88.7S449.6,16.1,395.8,16.1z"/>
	<path d="M220.9,511H220c-1.7,0-35-5.1-60.6-19.6c-14.5,5.1-29,8.5-44.4,8.5C51.1,499.9-1,453-1,394.1c0-58,52.1-105,115.2-105
		s115.2,46.9,115.2,105c0,19.6-6,39.3-17.1,55.5c2.6,22.2,7.7,38.4,14.5,46.1c2.6,2.6,3.4,6.8,1.7,10.2
		C226.8,509.3,224.3,511,220.9,511z M159.4,473.5c1.7,0,3.4,0,4.3,0.9c11.9,7.7,27.3,11.9,39.3,15.4c-5.1-12.8-7.7-29-8.5-41.8
		c0-1.7,0-4.3,1.7-6c10.2-14.5,16.2-30.7,16.2-48.6c0-47.8-44.4-87-98.1-87s-98.1,39.3-98.1,87.9S60.6,483,114.3,483
		c14.5,0,29-2.6,41.8-8.5C156.9,473.5,158.6,473.5,159.4,473.5z"/>
	<path d="M255,502.5c-14.5,0-29-1.7-43.5-4.3c-2.6-0.9-5.1-2.6-6-5.1c-6.8-14.5-9.4-32.4-10.2-45.2c0-1.7,0-4.3,1.7-6
		c10.2-14.5,16.2-30.7,16.2-48.6c-0.9-47.8-45.2-87-99-87c-30.7,0-58.9,12.8-77.7,35c-1.7,2.6-5.1,3.4-7.7,2.6
		c-3.4-0.9-5.1-2.6-6.8-5.1C12.7,311.3,7.5,283.2,7.5,255C7.5,118.5,118.5,7.5,255,7.5c26.5,0,52.9,4.3,77.7,12.8
		c3.4,0.9,5.1,3.4,6,6.8s-0.9,6-3.4,8.5c-23.9,17.1-37.5,41.8-37.5,69.1c0,17.1,5.1,34.1,16.2,48.6c0.9,1.7,1.7,3.4,1.7,6
		c-0.9,12.8-3.4,28.2-8.5,41.8c11.9-3.4,27.3-7.7,39.3-15.4c2.6-1.7,5.1-1.7,7.7-0.9c12.8,6,27.3,8.5,41.8,8.5
		c29,0,56.3-11.1,75.1-31.6c1.7-2.6,5.1-3.4,7.7-2.6c2.6,0.9,5.1,2.6,6,5.1c11.9,29,17.1,59.7,17.1,91.3
		C502.5,391.5,391.5,502.5,255,502.5z M219.2,482.8c11.9,1.7,23.9,2.6,35.8,2.6c127.1,0,230.4-103.3,230.4-230.4
		c0-24.7-4.3-49.5-11.9-73.4c-21.3,17.9-48.6,27.3-77.7,27.3c-15.4,0-30.7-2.6-44.4-8.5c-25.6,14.5-59.7,18.8-60.6,19.6
		c-3.4,0.9-6.8-1.7-8.5-4.3c-1.7-3.4-0.9-6.8,1.7-10.2c7.7-7.7,12.8-23.9,15.4-46.1c-11.1-17.1-17.1-35.8-17.1-55.5
		c0-27.3,11.1-52.9,31.6-72.5c-20.5-4.3-39.3-6.8-58.9-6.8C127.9,24.6,24.6,127.9,24.6,255c0,22.2,3.4,43.5,9.4,64
		c21.3-19.6,50.3-29.9,80.2-29.9c63.1,0,115.2,46.9,115.2,105c0,19.6-6,39.3-17.1,55.5C213.2,459.8,214.9,472.6,219.2,482.8z"/>
	<path d="M417.1,75.8h-59.7c-5.1,0-8.5-3.4-8.5-8.5s3.4-8.5,8.5-8.5h59.7c5.1,0,8.5,3.4,8.5,8.5S422.3,75.8,417.1,75.8z"/>
	<path d="M442.7,144.1h-85.3c-5.1,0-8.5-3.4-8.5-8.5s3.4-8.5,8.5-8.5h85.3c5.1,0,8.5,3.4,8.5,8.5S447.9,144.1,442.7,144.1z"/>
	<path d="M459.8,109.9H357.4c-5.1,0-8.5-3.4-8.5-8.5s3.4-8.5,8.5-8.5h102.4c5.1,0,8.5,3.4,8.5,8.5S464.9,109.9,459.8,109.9z"/>
	<path d="M127,365.9H67.3c-5.1,0-8.5-3.4-8.5-8.5s3.4-8.5,8.5-8.5H127c5.1,0,8.5,3.4,8.5,8.5S132.1,365.9,127,365.9z"/>
	<path d="M152.6,434.2H67.3c-5.1,0-8.5-3.4-8.5-8.5s3.4-8.5,8.5-8.5h85.3c5.1,0,8.5,3.4,8.5,8.5S157.7,434.2,152.6,434.2z"/>
	<path d="M169.7,400.1H67.3c-5.1,0-8.5-3.4-8.5-8.5s3.4-8.5,8.5-8.5h102.4c5.1,0,8.5,3.4,8.5,8.5S174.8,400.1,169.7,400.1z"/>
</g>
</svg>