<?xml version="1.0" encoding="iso-8859-1"?>
<!-- Uploaded to: SVG Repo, www.svgrepo.com, Generator: SVG Repo Mixer Tools -->
<svg height="800px" width="800px" version="1.1" id="Layer_1" xmlns="http://www.w3.org/2000/svg" xmlns:xlink="http://www.w3.org/1999/xlink" 
	 viewBox="0 0 392.523 392.523" xml:space="preserve">
<path style="fill:#FFFFFF;" d="M244.041,163.868v-37.301c0-6.012-4.848-10.925-10.925-10.925H85.981
	c-6.012,0-10.925,4.848-10.925,10.925v233.244c0,6.012,4.848,10.925,10.925,10.925h147.135c6.012,0,10.925-4.848,10.925-10.925
	V187.4c-20.299,7.499-40.986,9.438-59.41,4.655c-6.659,5.947-15.451,9.632-25.083,9.632c-20.816,0-37.624-16.937-37.624-37.624
	c0-20.816,16.937-37.624,37.624-37.624s37.624,16.937,37.624,37.624c0,2.844-0.323,5.624-0.905,8.275
	C210.942,174.212,227.686,171.173,244.041,163.868z"/>
<path style="fill:#56ACE0;" d="M96.906,347.335V219.981c0-0.84,0.711-1.551,1.552-1.551h122.246c0.84,0,1.552,0.711,1.552,1.551
	v127.354c0,0.84-0.711,1.552-1.552,1.552H98.458C97.617,348.887,96.906,348.175,96.906,347.335z"/>
<g>
	<path style="fill:#194F82;" d="M170.474,272.733v-34.974c0-6.012-4.848-10.925-10.925-10.925s-10.925,4.848-10.925,10.925v34.974
		H113.65c-6.012,0-10.925,4.848-10.925,10.925c0,6.012,4.848,10.925,10.925,10.925h34.974v34.974
		c0,6.012,4.848,10.925,10.925,10.925s10.925-4.848,10.925-10.925v-35.038h34.974c6.012,0,10.925-4.848,10.925-10.925
		s-4.848-10.925-10.925-10.925h-34.974V272.733z"/>
	<path style="fill:#194F82;" d="M324.138,22.68c-29.543-34.457-92.574-29.026-140.606,12.024
		C163.88,51.448,149.14,72.2,141.189,93.727H86.045c-18.101,0-32.776,14.675-32.776,32.776v233.309
		c0.065,18.036,14.739,32.711,32.776,32.711h147.071c18.101,0,32.776-14.675,32.776-32.776V177.121
		c8.598-4.848,16.937-10.667,24.76-17.39C331.961,126.373,356.979,60.434,324.138,22.68z M244.106,359.747h-0.065
		c0,6.012-4.848,10.925-10.925,10.925H85.981c-6.012,0-10.925-4.848-10.925-10.925V126.503c0-6.012,4.848-10.925,10.925-10.925
		h147.135c6.012,0,10.925,4.848,10.925,10.925v37.301c-16.291,7.24-33.164,10.408-47.774,8.469c0.646-2.715,0.905-5.43,0.905-8.275
		c0-20.816-16.937-37.624-37.624-37.624s-37.624,16.937-37.624,37.689c0,20.816,16.937,37.624,37.624,37.624
		c9.632,0,18.36-3.62,25.083-9.632c18.489,4.719,39.111,2.78,59.41-4.655v172.347H244.106z M150.045,171.82
		c2.844,3.038,5.947,5.56,9.115,7.952c-8.469-0.259-15.386-7.176-15.386-15.774c0-8.727,7.111-15.838,15.838-15.838
		s15.838,7.111,15.838,15.838c0,0.323-0.065,0.646-0.065,0.84c-3.232-2.004-6.271-4.396-8.792-7.24
		c-3.943-4.59-10.796-5.107-15.386-1.164C146.684,160.377,146.102,167.295,150.045,171.82z M276.429,143.181
		c-3.426,2.909-6.982,5.624-10.602,8.21v-24.889c0-18.101-14.675-32.776-32.776-32.776H164.72
		c7.111-15.386,18.489-30.061,32.905-42.473c38.917-33.228,88.242-39.628,109.964-14.352
		C327.953,61.727,317.48,107.173,276.429,143.181z"/>
</g>
<path style="fill:#FFC10D;" d="M166.595,157.598c2.65,2.844,5.56,5.236,8.727,7.24c0-0.323,0.065-0.646,0.065-0.84
	c0-8.727-7.111-15.838-15.838-15.838c-8.727,0-15.838,7.111-15.838,15.838c0,8.598,6.853,15.515,15.386,15.774
	c-3.168-2.392-6.271-4.913-9.115-7.952c-3.943-4.59-3.426-11.442,1.164-15.386C155.799,152.491,162.652,153.072,166.595,157.598z"/>
</svg>