<?xml version="1.0" encoding="UTF-8" standalone="no"?>
<svg
   viewBox="0 0 640 640"
   version="1.1"
   id="svg1"
   sodipodi:docname="x.svg"
   inkscape:version="1.4.2 (2aeb623e1d, 2025-05-12)"
   xmlns:inkscape="http://www.inkscape.org/namespaces/inkscape"
   xmlns:sodipodi="http://sodipodi.sourceforge.net/DTD/sodipodi-0.dtd"
   xmlns="http://www.w3.org/2000/svg"
   xmlns:svg="http://www.w3.org/2000/svg">
  <defs
     id="defs1" />
  <sodipodi:namedview
     id="namedview1"
     pagecolor="#ffffff"
     bordercolor="#000000"
     borderopacity="0.25"
     inkscape:showpageshadow="2"
     inkscape:pageopacity="0.0"
     inkscape:pagecheckerboard="0"
     inkscape:deskcolor="#d1d1d1"
     inkscape:zoom="1.1921875"
     inkscape:cx="319.5806"
     inkscape:cy="320"
     inkscape:window-width="1920"
     inkscape:window-height="971"
     inkscape:window-x="0"
     inkscape:window-y="0"
     inkscape:window-maximized="1"
     inkscape:current-layer="svg1" />
  <!--!Font Awesome Free 7.1.0 by @fontawesome - https://fontawesome.com License - https://fontawesome.com/license/free Copyright 2025 Fonticons, Inc.-->
  <path
     d="m 199.95281,117.85059 c 0,-42.993382 -34.68371,-77.82962 -77.48885,-77.82962 -42.805146,0 -77.488861,34.836238 -77.488861,77.82962 0,42.99338 34.683715,77.82962 77.488861,77.82962 42.80514,0 77.48885,-34.83624 77.48885,-77.82962 z m -172.859756,0 c 0,-52.909172 42.69338,-95.790302 95.370906,-95.790302 52.67752,0 95.3709,42.88113 95.3709,95.790302 0,52.90918 -42.69338,95.79031 -95.3709,95.79031 -52.677526,0 -95.370906,-42.88113 -95.370906,-95.79031 z M 122.46396,87.916118 c -6.59401,0 -11.92137,5.35079 -11.92137,11.97379 0,4.976602 -3.9862,8.980342 -8.94102,8.980342 -4.954816,0 -8.941016,-4.00374 -8.941016,-8.980342 0,-16.53879 13.337016,-29.93447 29.803406,-29.93447 16.46638,0 29.8034,13.39568 29.8034,29.93447 0,17.661342 -13.41153,25.144952 -20.86238,27.876472 v 1.42189 c 0,4.97661 -3.98621,8.98035 -8.94102,8.98035 -4.95482,0 -8.94103,-4.00374 -8.94103,-8.98035 v -3.03086 c 0,-7.67071 5.51363,-13.17117 11.21353,-15.04207 2.38427,-0.78579 4.91757,-2.058 6.78028,-3.85407 1.60193,-1.57156 2.86858,-3.74181 2.86858,-7.333942 0,-6.62301 -5.32736,-11.97379 -11.92136,-11.97379 z m -11.92137,71.842732 c 0,-6.623 5.32736,-11.97379 11.92137,-11.97379 6.594,0 11.92136,5.35079 11.92136,11.97379 0,6.623 -5.32736,11.97379 -11.92136,11.97379 -6.59401,0 -11.92137,-5.35079 -11.92137,-11.97379 z"
     id="path1"
     style="stroke-width:0.373361;fill:#ff0000" />
  <path
     d="m 291.7903,108.67235 -197.999999,198 c -10.9,10.9 -17,25.6 -17,41 0,15.4 6.1,30.1 17,41 l 197.999999,198 c 10.9,10.9 25.6,17 41,17 15.4,0 30.1,-6.1 41,-17 l 198,-198 c 10.9,-10.9 17,-25.6 17,-41 0,-15.4 -6.1,-30.1 -17,-41 l -198,-198 c -10.9,-10.900004 -25.6,-17.000004 -41,-17.000004 -15.4,0 -30.1,6.1 -41,17.000004 z m 170,240 -72,72 c -9.4,9.4 -24.6,9.4 -33.9,0 -9.3,-9.4 -9.4,-24.6 0,-33.9 l 31,-31 h -78.1 c -13.3,0 -24,10.7 -24,24 v 40 c 0,13.3 -10.7,24 -24,24 -13.3,0 -24,-10.7 -24,-24 v -40 c 0,-39.8 32.2,-72 72,-72 h 78.1 l -31,-31 c -9.4,-9.4 -9.4,-24.6 0,-33.9 9.4,-9.3 24.6,-9.4 33.9,0 l 72,72 c 9.4,9.4 9.4,24.6 0,33.9 z"
     id="path1-6"
     style="fill:#ff6600;stroke:#0c0c0c;stroke-opacity:1;stroke-width:13.2;stroke-dasharray:none" />
</svg>
