<?xml version="1.0" encoding="UTF-8" standalone="no"?>
<!-- Uploaded to: SVG Repo, www.svgrepo.com, Generator: SVG Repo Mixer Tools -->

<svg
   version="1.1"
   id="Uploaded to svgrepo.com"
   width="800px"
   height="800px"
   viewBox="0 0 32 32"
   xml:space="preserve"
   xmlns="http://www.w3.org/2000/svg"
   xmlns:svg="http://www.w3.org/2000/svg"><defs
   id="defs2">
	
	
</defs>
<style
   type="text/css"
   id="style1">
	.duotone_twee{fill:#555D5E;}
	.duotone_een{fill:#0B1719;}
</style>
<path
   class="duotone_een"
   d="m 25.416,10 c -0.275,0 -0.477,0.224 -0.448,0.497 0,0 0.032,0.304 0.032,0.503 0,1.105 -0.895,2 -2,2 -1.105,0 -2,-0.895 -2,-2 0,-0.198 0.032,-0.503 0.032,-0.503 C 21.06,10.224 20.859,10 20.584,10 H 16.5 C 16.224,10 16,10.224 16,10.5 v 4.084 c 0,0.275 -0.224,0.477 -0.497,0.448 0,0 -0.304,-0.032 -0.503,-0.032 -1.105,0 -2,0.895 -2,2 0,1.105 0.895,2 2,2 0.198,0 0.503,-0.032 0.503,-0.032 C 15.776,18.94 16,19.141 16,19.416 V 22.5 c 0,0.276 0.224,0.5 0.5,0.5 h 4.084 c 0.275,0 0.477,-0.224 0.448,-0.497 0,0 -0.032,-0.304 -0.032,-0.503 0,-1.105 0.895,-2 2,-2 1.105,0 2,0.895 2,2 0,0.198 -0.032,0.503 -0.032,0.503 C 24.94,22.776 25.141,23 25.416,23 H 27.5 c 0.276,0 0.5,-0.224 0.5,-0.5 v -12 C 28,10.224 27.776,10 27.5,10 Z"
   id="path1"
   style="fill:#41c3ff;stroke:#7f7f7f;stroke-opacity:1;fill-opacity:1" /><path
   class="duotone_twee"
   d="m 12,17 c 0,-1.654 1.346,-3 3,-3 V 10.5 C 15,10.224 14.776,10 14.5,10 H 10.416 C 10.141,10 9.939,9.776 9.968,9.503 9.968,9.503 10,9.198 10,9 10,7.895 9.105,7 8,7 6.895,7 6,7.895 6,9 6,9.198 6.032,9.503 6.032,9.503 6.06,9.776 5.859,10 5.584,10 H 4.5 C 4.224,10 4,10.224 4,10.5 v 12 C 4,22.776 4.224,23 4.5,23 h 1.084 c 0.275,0 0.477,0.224 0.448,0.497 0,0 -0.032,0.305 -0.032,0.503 0,1.105 0.895,2 2,2 1.105,0 2,-0.895 2,-2 C 10,23.802 9.968,23.497 9.968,23.497 9.94,23.224 10.141,23 10.416,23 H 14.5 C 14.776,23 15,22.776 15,22.5 V 20 c -1.654,0 -3,-1.346 -3,-3 z"
   id="path2"
   style="fill:#ff0014;stroke:#b2b2b2;stroke-opacity:1;fill-opacity:1" />
</svg>
