<?xml version="1.0" encoding="UTF-8" standalone="no"?>
<!-- Uploaded to: SVG Repo, www.svgrepo.com, Generator: SVG Repo Mixer Tools -->

<svg
   height="800px"
   width="800px"
   version="1.1"
   id="Layer_1"
   viewBox="0 0 512 512"
   xml:space="preserve"
   xmlns="http://www.w3.org/2000/svg"
   xmlns:svg="http://www.w3.org/2000/svg"><defs
   id="defs10" />
<circle
   style="fill:#f89756;fill-opacity:1"
   cx="112.75163"
   cy="333.62778"
   r="41.383999"
   id="circle1" />
<g
   id="g2"
   transform="translate(29.991632,-38.132218)">
	<path
   style="fill:#333333"
   d="M 80.92,512 41.384,425.56 c 0,0 -41.384,0.92 -41.384,38.624 V 512 Z"
   id="path1" />
	<path
   style="fill:#333333"
   d="m 84.6,512 39.544,-86.44 c 0,0 41.384,0.92 41.384,38.624 V 512 Z"
   id="path2" />
</g>
<polygon
   style="fill:#800000"
   points="82.76,489.928 111.68,425.56 53.84,425.56 "
   id="polygon2"
   transform="translate(29.991632,-38.132218)" />
<circle
   style="fill:#f89756;fill-opacity:1"
   cx="411.24503"
   cy="337.48386"
   r="41.383999"
   id="circle2" />
<g
   id="g4"
   transform="translate(-17.994979,-34.276151)">
	<path
   style="fill:#333333"
   d="m 427.4,512 -39.544,-86.44 c 0,0 -41.384,0.92 -41.384,38.624 V 512 Z"
   id="path3" />
	<path
   style="fill:#333333"
   d="m 431.08,512 39.544,-86.44 c 0,0 41.376,0.92 41.376,38.624 V 512 Z"
   id="path4" />
</g>
<polygon
   style="fill:#800000"
   points="429.24,489.928 458.16,425.56 400.32,425.56 "
   id="polygon4"
   transform="translate(-17.994979,-34.276151)" />
<circle
   style="fill:#f89756;fill-opacity:1"
   cx="413.38727"
   cy="69.661819"
   r="41.383999"
   id="circle4" />
<g
   id="g6"
   transform="translate(-15.85272,28.277824)">
	<path
   style="fill:#333333"
   d="M 427.4,181.664 387.856,95.2 c 0,0 -41.384,0.92 -41.384,38.624 v 47.816 z"
   id="path5" />
	<path
   style="fill:#333333"
   d="M 431.08,181.664 470.616,95.2 c 0,0 41.384,0.944 41.384,38.648 v 47.816 h -80.92 z"
   id="path6" />
</g>
<polygon
   style="fill:#800000"
   points="429.24,159.592 458.16,95.224 400.32,95.224 "
   id="polygon6"
   transform="translate(-15.85272,28.277824)" />
<circle
   style="fill:#f89756;fill-opacity:1"
   cx="108.89557"
   cy="73.517891"
   r="41.383999"
   id="circle6" />
<g
   id="g8"
   transform="translate(26.135565,32.133891)">
	<path
   style="fill:#333333"
   d="M 80.92,181.664 41.384,95.2 C 41.384,95.2 0,96.144 0,133.848 v 47.816 h 80.92 z"
   id="path7" />
	<path
   style="fill:#333333"
   d="M 84.6,181.664 124.144,95.2 c 0,0 41.384,0.92 41.384,38.624 v 47.816 z"
   id="path8" />
</g>
<polygon
   style="fill:#800000"
   points="82.76,159.592 111.68,95.224 53.84,95.224 "
   id="polygon8"
   transform="translate(26.135565,32.133891)" />
<circle
   style="fill:#f89756;fill-opacity:1"
   cx="256"
   cy="206.552"
   r="41.384"
   id="circle8" />
<g
   id="g10">
	<path
   style="fill:#333333;"
   d="M254.16,346.832l-39.544-86.44c0,0-41.384,0.92-41.384,38.624v47.816H254.16z"
   id="path9" />
	<path
   style="fill:#333333;"
   d="M257.84,346.832l39.544-86.44c0,0,41.384,0.92,41.384,38.624v47.816H257.84z"
   id="path10" />
</g>
<polygon
   style="fill:#800000"
   points="227.08,260.392 256,324.76 284.92,260.392 "
   id="polygon10" />
</svg>
