<?xml version="1.0" encoding="UTF-8" standalone="no"?>
<!-- Uploaded to: SVG Repo, www.svgrepo.com, Generator: SVG Repo Mixer Tools -->

<svg
   width="800px"
   height="800px"
   viewBox="0 0 64 64"
   version="1.1"
   id="svg6"
   sodipodi:docname="skill.svg"
   inkscape:version="1.4.4 (dcaf3e7d9e, 2026-05-05)"
   xmlns:inkscape="http://www.inkscape.org/namespaces/inkscape"
   xmlns:sodipodi="http://sodipodi.sourceforge.net/DTD/sodipodi-0.dtd"
   xmlns="http://www.w3.org/2000/svg"
   xmlns:svg="http://www.w3.org/2000/svg">
  <defs
     id="defs6" />
  <sodipodi:namedview
     id="namedview6"
     pagecolor="#ffffff"
     bordercolor="#000000"
     borderopacity="0.25"
     inkscape:showpageshadow="2"
     inkscape:pageopacity="0.0"
     inkscape:pagecheckerboard="0"
     inkscape:deskcolor="#d1d1d1"
     inkscape:zoom="1.03625"
     inkscape:cx="399.51749"
     inkscape:cy="400"
     inkscape:window-width="1640"
     inkscape:window-height="1036"
     inkscape:window-x="36"
     inkscape:window-y="32"
     inkscape:window-maximized="0"
     inkscape:current-layer="svg6" />
  <path
     fill="#595959"
     d="m 8,43.913885 c 0,-2.209726 1.7750001,-4.214451 3.969272,-4.478244 L 31.875,37.042594 51.780729,39.435641 C 53.972897,39.699181 55.75,41.699205 55.75,43.913885 V 60.042594 H 8 Z"
     id="path1"
     style="fill-rule:evenodd" />
  <polygon
     fill="#d8d8d8"
     points="40,47.875 32,59.899 24,47.875 "
     id="polygon1"
     style="fill-rule:evenodd" />
  <path
     fill="#ffdd95"
     d="m 23.965909,32.360442 h 15.818182 v 10.545454 c 0,0 -5.361602,1.909585 -7.909091,1.909585 -2.547489,0 -7.909091,-1.909585 -7.909091,-1.909585 z"
     id="path2"
     style="fill-rule:evenodd" />
  <polygon
     fill="#d8d8d8"
     points="40,41 32,47.899 24,41 "
     transform="matrix(1,0,0,-1,0,88.9)"
     id="polygon2"
     style="fill-rule:evenodd" />
  <polygon
     fill="#4796e7"
     points="35.992,44 33.98,46 30.042,46 28.001,44 29.001,41 34.992,41 "
     id="polygon3"
     style="fill-rule:evenodd" />
  <polygon
     fill="#ffffff"
     points="24,47.922 24,38 31.998,41.105 "
     id="polygon4"
     style="fill-rule:evenodd" />
  <polygon
     fill="#ffffff"
     points="32,47.922 32,38 40.081,41.061 "
     transform="matrix(-1,0,0,1,72.081,0)"
     id="polygon5"
     style="fill-rule:evenodd" />
  <polygon
     fill="#4796e7"
     points="35,60 29,60 30,46 34,46 "
     id="polygon6"
     style="fill-rule:evenodd" />
  <g
     id="g4"
     transform="matrix(0.09616615,0,0,0.09553145,11.130519,-1.3230292)">
    <path
       style="fill:#800080"
       d="m 370.898,143.68 c -0.204,-0.108 -0.413,-0.212 -0.617,-0.32 0.009,-0.231 0.023,-0.464 0.031,-0.694 1.709,-48.474 -13.321,-84.39 -42.321,-101.133 -29.001,-16.744 -67.62,-11.802 -108.745,13.916 -0.196,0.122 -0.39,0.251 -0.586,0.375 -0.195,-0.123 -0.39,-0.252 -0.586,-0.375 C 176.949,29.732 138.33,24.79 109.329,41.533 c -29,16.743 -44.03,52.66 -42.321,101.133 0.008,0.23 0.023,0.464 0.031,0.694 -0.204,0.108 -0.413,0.212 -0.617,0.32 C 23.59,166.437 0,197.411 0,230.898 c 0,33.487 23.59,64.461 66.424,87.218 0.204,0.108 0.413,0.212 0.617,0.32 -0.009,0.231 -0.023,0.464 -0.031,0.694 -1.709,48.474 13.321,84.391 42.321,101.134 11.29,6.518 24.031,9.75 37.816,9.749 21.626,-10e-4 45.813,-7.958 70.929,-23.665 0.196,-0.122 0.39,-0.251 0.586,-0.375 0.195,0.123 0.39,0.252 0.586,0.375 25.118,15.708 49.3,23.665 70.928,23.665 13.783,0 26.529,-3.232 37.816,-9.749 29,-16.743 44.031,-52.66 42.321,-101.134 -0.008,-0.23 -0.023,-0.464 -0.031,-0.694 0.204,-0.108 0.413,-0.212 0.617,-0.32 42.834,-22.756 66.424,-53.731 66.424,-87.218 0,-33.487 -23.591,-64.461 -66.425,-87.218 z m -64.893,137.646 c -9.593,16.616 -20.186,32.157 -31.485,46.323 -17.917,2.702 -36.673,4.105 -55.859,4.105 -19.186,0 -37.942,-1.403 -55.859,-4.105 -11.299,-14.166 -21.892,-29.707 -31.485,-46.323 -9.593,-16.616 -17.756,-33.561 -24.374,-50.428 6.619,-16.868 14.781,-33.812 24.374,-50.428 9.593,-16.616 20.187,-32.157 31.485,-46.323 17.917,-2.702 36.672,-4.105 55.859,-4.105 19.187,0 37.942,1.404 55.859,4.105 11.299,14.166 21.892,29.707 31.485,46.323 9.593,16.616 17.755,33.56 24.374,50.428 -6.618,16.868 -14.78,33.812 -24.374,50.428 z m 34.028,-22.178 c 4.692,16.156 7.854,32.022 9.37,47.233 -13.931,6.292 -29.253,11.488 -45.59,15.502 6.856,-9.736 13.385,-19.943 19.513,-30.558 6.128,-10.615 11.703,-21.371 16.707,-32.177 z M 218.661,381.865 c -12.415,-8.918 -24.575,-19.59 -36.22,-31.731 11.859,1.07 23.964,1.62 36.22,1.62 12.256,0 24.361,-0.55 36.22,-1.62 -11.645,12.141 -23.805,22.813 -36.22,31.731 z M 133.51,321.884 c -16.337,-4.015 -31.659,-9.209 -45.59,-15.502 1.516,-15.211 4.678,-31.078 9.37,-47.233 5.003,10.806 10.579,21.564 16.707,32.178 6.128,10.613 12.657,20.821 19.513,30.557 z M 113.997,170.47 c -6.128,10.614 -11.704,21.372 -16.707,32.178 -4.692,-16.156 -7.854,-32.023 -9.37,-47.233 13.931,-6.292 29.253,-11.487 45.59,-15.502 -6.856,9.735 -13.385,19.943 -19.513,30.557 z M 218.661,79.931 c 12.415,8.918 24.575,19.59 36.22,31.731 -11.86,-1.07 -23.964,-1.62 -36.22,-1.62 -12.256,0 -24.36,0.55 -36.22,1.62 11.646,-12.141 23.806,-22.812 36.22,-31.731 z m 104.665,90.539 c -6.128,-10.614 -12.657,-20.822 -19.513,-30.558 16.337,4.015 31.659,9.209 45.59,15.502 -1.516,15.211 -4.678,31.078 -9.37,47.233 -5.004,-10.805 -10.579,-21.563 -16.707,-32.177 z M 290.073,51.786 c 10.331,0 19.734,2.341 27.918,7.067 20.821,12.021 32.21,38.575 32.447,75.224 C 330.678,125.9 308.65,119.691 285.209,115.633 269.977,97.365 253.589,81.395 236.631,68.372 255.961,57.38 274.127,51.786 290.073,51.786 Z m -170.742,7.067 c 8.186,-4.726 17.585,-7.067 27.918,-7.067 15.946,0 34.114,5.595 53.442,16.586 -16.958,13.023 -33.347,28.993 -48.578,47.261 -23.44,4.058 -45.469,10.267 -65.229,18.444 C 87.122,97.428 98.51,70.874 119.331,58.853 Z M 20,230.898 c 0,-24.042 17.303,-47.182 48.922,-65.711 2.799,21.201 8.436,43.383 16.642,65.711 -8.206,22.329 -13.843,44.51 -16.642,65.711 C 37.303,278.08 20,254.94 20,230.898 Z m 99.331,172.046 C 98.51,390.923 87.122,364.369 86.885,327.72 c 19.76,8.177 41.788,14.386 65.229,18.444 15.234,18.271 31.625,34.243 48.587,47.268 -31.859,18.118 -60.551,21.533 -81.37,9.512 z m 198.661,0 c -20.821,12.021 -49.512,8.607 -81.369,-9.512 16.961,-13.024 33.353,-28.997 48.587,-47.268 23.44,-4.058 45.469,-10.267 65.229,-18.444 -0.238,36.648 -11.626,63.203 -32.447,75.224 z M 368.4,296.609 c -2.799,-21.201 -8.436,-43.382 -16.642,-65.711 8.206,-22.329 13.843,-44.51 16.642,-65.712 31.619,18.53 48.922,41.669 48.922,65.711 0,24.042 -17.302,47.183 -48.922,65.712 z"
       id="path1-7" />
    <circle
       style="fill:#abcb57"
       cx="427.32199"
       cy="230.89799"
       r="32.678001"
       id="circle1" />
    <circle
       style="fill:#e5c400"
       cx="115.368"
       cy="409.80801"
       r="32.678001"
       id="circle2" />
    <circle
       style="fill:#c8523b"
       cx="114.331"
       cy="50.192001"
       r="32.678001"
       id="circle3" />
    <circle
       style="fill:#808083"
       cx="218"
       cy="231"
       r="32.678001"
       id="circle4" />
  </g>
</svg>
