<svg xmlns="http://www.w3.org/2000/svg" viewBox="0 0 512 512" id="ask-questions"><g><path fill="#24b361" d="M186.555,230.081a9.094,9.094,0,0,1,2.649,6.6,8.7,8.7,0,0,1-2.805,6.856,9.382,9.382,0,0,1-6.441,2.493,9.661,9.661,0,0,1-6.648-2.441,8.607,8.607,0,0,1-2.857-6.908,8.983,8.983,0,0,1,2.753-6.6,9.283,9.283,0,0,1,6.752-2.649A9.094,9.094,0,0,1,186.555,230.081Z"></path><path fill="#77f7aa" d="M179.958,227.432a9.283,9.283,0,0,0-6.752,2.649,8.983,8.983,0,0,0-2.753,6.6,8.607,8.607,0,0,0,2.857,6.908,9.661,9.661,0,0,0,6.648,2.441,9.382,9.382,0,0,0,6.441-2.493,8.7,8.7,0,0,0,2.805-6.856,9.052,9.052,0,0,0-9.246-9.246Zm-.727-5.713c4.155,0,6.649-2.13,7.428-6.441.467-2.077.831-3.48,1.039-4.311a11.61,11.61,0,0,1,.986-2.389,14.2,14.2,0,0,1,1.87-2.7,35.443,35.443,0,0,1,3.428-3.376c5.091-4.571,8.623-7.843,10.6-9.765a29.215,29.215,0,0,0,5.143-6.908,19.653,19.653,0,0,0,2.129-9.3,22.114,22.114,0,0,0-3.792-12.466,26.127,26.127,0,0,0-10.647-9.037,36.4,36.4,0,0,0-16-3.325,34.915,34.915,0,0,0-16.985,3.948,29.622,29.622,0,0,0-11.115,10.077,22.423,22.423,0,0,0-3.792,12,7.537,7.537,0,0,0,2.389,5.35,8.075,8.075,0,0,0,5.921,2.441c3.948,0,6.6-2.337,8-7.012,1.507-4.519,3.325-7.895,5.506-10.232,2.182-2.286,5.506-3.428,10.077-3.428a13.605,13.605,0,0,1,9.609,3.428,11.1,11.1,0,0,1,3.688,8.414,9.831,9.831,0,0,1-1.2,4.727,18.467,18.467,0,0,1-3.013,3.947q-1.791,1.792-5.765,5.3a98.847,98.847,0,0,0-7.22,6.856A22.078,22.078,0,0,0,171.6,213.3c0,2.805.727,4.883,2.181,6.337A7.7,7.7,0,0,0,179.231,221.719Zm76.613-113.491a87.651,87.651,0,1,1,0,175.3h-47.37l-65.342,68.3v-68.3H105.527a87.651,87.651,0,1,1,0-175.3Z"></path><path fill="#24b361" d="M181.413,151.7a36.4,36.4,0,0,1,16,3.325,26.127,26.127,0,0,1,10.647,9.037,22.114,22.114,0,0,1,3.792,12.466,19.653,19.653,0,0,1-2.129,9.3,29.215,29.215,0,0,1-5.143,6.908c-1.973,1.922-5.5,5.194-10.6,9.765a35.443,35.443,0,0,0-3.428,3.376,14.2,14.2,0,0,0-1.87,2.7,11.61,11.61,0,0,0-.986,2.389c-.208.831-.572,2.234-1.039,4.311-.779,4.311-3.273,6.441-7.428,6.441a7.7,7.7,0,0,1-5.454-2.078c-1.454-1.454-2.181-3.532-2.181-6.337a22.078,22.078,0,0,1,5.921-15.79,98.847,98.847,0,0,1,7.22-6.856q3.974-3.505,5.765-5.3a18.467,18.467,0,0,0,3.013-3.947,9.831,9.831,0,0,0,1.2-4.727,11.1,11.1,0,0,0-3.688-8.414,13.605,13.605,0,0,0-9.609-3.428c-4.571,0-7.9,1.142-10.077,3.428-2.181,2.337-4,5.713-5.506,10.232-1.4,4.675-4.051,7.012-8,7.012a8.075,8.075,0,0,1-5.921-2.441,7.537,7.537,0,0,1-2.389-5.35,22.423,22.423,0,0,1,3.792-12,29.622,29.622,0,0,1,11.115-10.077A34.915,34.915,0,0,1,181.413,151.7Z"></path></g><g><path fill="#24b361" d="M255.844,292c52.756,0,95.677-43.27,95.677-96.025,0-52.728-42.921-95.975-95.677-95.975H105.527A95.889,95.889,0,0,0,9.851,196.031c0,52.756,42.92,95.969,95.676,95.969H135v59.831a8.063,8.063,0,0,0,5.087,7.425,8.146,8.146,0,0,0,3.01.575,7.814,7.814,0,0,0,5.8-2.234l63-65.6Zm-53.217-13.766L151,331.9V283.528c0-4.418-3.449-7.528-7.868-7.528H105.527c-43.934,0-79.676-35.978-79.676-79.912A80.09,80.09,0,0,1,105.527,116H255.844c43.934,0,79.677,36.069,79.677,79.975,0,43.933-35.743,80.025-79.677,80.025h-47.37A7.941,7.941,0,0,0,202.627,278.234Z"></path><path fill="#24b361" d="M406.473,152H370.426a8,8,0,1,0,0,16h36.047a79.5,79.5,0,1,1,0,159H368.868c-4.419,0-7.868,4.052-7.868,8.47v48.367l-51.627-54.132a8.388,8.388,0,0,0-5.847-2.7h-47.37a78.884,78.884,0,0,1-43.551-12.737,8.031,8.031,0,0,0-11.078,2.414,7.794,7.794,0,0,0,2.3,10.9A94.9,94.9,0,0,0,256.156,343h43.952l62.979,66.068a8.12,8.12,0,0,0,5.783,2.587,8.265,8.265,0,0,0,3.043-.516A7.985,7.985,0,0,0,377,403.772V343h29.473c52.756,0,95.676-42.686,95.676-95.442A95.636,95.636,0,0,0,406.473,152Z"></path></g></svg>