<?xml version="1.0" encoding="UTF-8" standalone="no"?>
<!-- Uploaded to: SVG Repo, www.svgrepo.com, Generator: SVG Repo Mixer Tools -->

<svg
   fill="#000000"
   height="800px"
   width="800px"
   version="1.1"
   id="Capa_1"
   viewBox="0 0 319.253 319.253"
   xml:space="preserve"
   sodipodi:docname="no-way-svgrepo-com.svg"
   inkscape:version="1.4.4 (dcaf3e7d9e, 2026-05-05)"
   xmlns:inkscape="http://www.inkscape.org/namespaces/inkscape"
   xmlns:sodipodi="http://sodipodi.sourceforge.net/DTD/sodipodi-0.dtd"
   xmlns="http://www.w3.org/2000/svg"
   xmlns:svg="http://www.w3.org/2000/svg"><defs
   id="defs1" /><sodipodi:namedview
   id="namedview1"
   pagecolor="#ffffff"
   bordercolor="#000000"
   borderopacity="0.25"
   inkscape:showpageshadow="2"
   inkscape:pageopacity="0.0"
   inkscape:pagecheckerboard="0"
   inkscape:deskcolor="#d1d1d1"
   inkscape:zoom="1.03625"
   inkscape:cx="399.51749"
   inkscape:cy="400"
   inkscape:window-width="1760"
   inkscape:window-height="1036"
   inkscape:window-x="36"
   inkscape:window-y="32"
   inkscape:window-maximized="0"
   inkscape:current-layer="Capa_1" />
<g
   id="g1"
   style="fill:#ff0000;fill-opacity:1;stroke:#000000;stroke-opacity:1">
	<path
   d="M317.361,282.335L172.735,22.335c-2.646-4.758-7.664-7.708-13.108-7.708c-5.444,0-10.462,2.95-13.108,7.708L1.891,282.335   c-2.584,4.647-2.517,10.313,0.179,14.896c2.694,4.583,7.613,7.397,12.93,7.397h289.254c5.316,0,10.235-2.814,12.93-7.397   C319.879,292.647,319.945,286.981,317.361,282.335z M40.508,274.627L159.627,60.483l119.118,214.143H40.508z"
   id="path1"
   style="fill:#ff0000;fill-opacity:1;stroke:#000000;stroke-opacity:1" />
	<polygon
   points="132.405,164.598 116.849,180.155 144.07,207.377 116.849,234.598 132.405,250.155 159.627,222.933    186.849,250.155 202.405,234.598 175.183,207.377 202.405,180.155 186.849,164.598 159.627,191.82  "
   id="polygon1"
   style="fill:#ff0000;fill-opacity:1;stroke:#000000;stroke-opacity:1" />
</g>
</svg>
