<?xml version="1.0" encoding="iso-8859-1"?>
<!-- Uploaded to: SVG Repo, www.svgrepo.com, Generator: SVG Repo Mixer Tools -->
<svg version="1.1" id="Layer_1" xmlns="http://www.w3.org/2000/svg" xmlns:xlink="http://www.w3.org/1999/xlink" 
	 viewBox="0 0 511.998 511.998" xml:space="preserve">
<rect x="59.636" y="16.364" style="fill:#E7AD7C;" width="392.727" height="479.274"/>
<rect x="59.636" y="363.174" style="fill:#FF4444;" width="392.727" height="132.454"/>
<path d="M380.117,197.908c-1.064,0-2.144-0.115-3.207-0.327c-1.031-0.196-2.062-0.524-3.06-0.933
	c-0.982-0.409-1.931-0.916-2.815-1.505c-0.9-0.589-1.735-1.276-2.487-2.029c-0.753-0.753-1.44-1.587-2.045-2.487
	c-0.589-0.884-1.096-1.833-1.505-2.831c-0.409-0.982-0.72-2.013-0.933-3.06s-0.311-2.127-0.311-3.191
	c0-1.064,0.098-2.144,0.311-3.191s0.524-2.078,0.933-3.06c0.409-0.998,0.916-1.947,1.505-2.831c0.605-0.9,1.293-1.735,2.045-2.487
	c0.753-0.753,1.587-1.44,2.487-2.029c0.884-0.589,1.833-1.096,2.815-1.505c0.998-0.409,2.029-0.736,3.06-0.933
	c2.111-0.425,4.287-0.425,6.398,0c1.047,0.196,2.078,0.524,3.06,0.933c0.982,0.409,1.947,0.916,2.831,1.505
	c0.9,0.589,1.735,1.276,2.487,2.029s1.44,1.587,2.029,2.487c0.589,0.884,1.096,1.833,1.505,2.831c0.409,0.982,0.72,2.013,0.933,3.06
	s0.327,2.127,0.327,3.191s-0.115,2.144-0.327,3.191c-0.213,1.047-0.524,2.078-0.933,3.06c-0.409,0.998-0.916,1.947-1.505,2.831
	c-0.589,0.9-1.276,1.735-2.029,2.487c-0.753,0.753-1.587,1.44-2.487,2.029c-0.884,0.589-1.849,1.096-2.831,1.505
	c-0.982,0.409-2.013,0.736-3.06,0.933C382.261,197.794,381.181,197.908,380.117,197.908z"/>
<path d="M131.881,444.181c-4.304,0-8.525-1.751-11.569-4.795c-0.753-0.753-1.44-1.587-2.029-2.487
	c-0.589-0.884-1.096-1.833-1.505-2.815c-0.409-0.998-0.72-2.029-0.933-3.076c-0.213-1.047-0.327-2.127-0.327-3.191
	c0-1.064,0.115-2.144,0.327-3.191s0.524-2.078,0.933-3.06c0.409-0.998,0.916-1.947,1.505-2.831c0.589-0.9,1.276-1.735,2.029-2.487
	c3.044-3.044,7.265-4.795,11.569-4.795c4.32,0,8.525,1.751,11.569,4.795c0.753,0.753,1.44,1.587,2.045,2.487
	c0.589,0.884,1.096,1.833,1.505,2.831c0.409,0.982,0.72,2.013,0.933,3.06c0.213,1.047,0.311,2.127,0.311,3.191
	c0,1.064-0.098,2.144-0.311,3.191c-0.213,1.047-0.524,2.078-0.933,3.076c-0.409,0.982-0.916,1.931-1.505,2.815
	c-0.605,0.9-1.293,1.735-2.045,2.487C140.406,442.43,136.201,444.181,131.881,444.181z"/>
<g>
	<rect x="59.809" y="95.073" style="fill:#E0315B;" width="58.795" height="86.276"/>
	<rect x="118.604" y="70.089" style="fill:#E0315B;" width="58.795" height="111.266"/>
</g>
<g>
	<rect x="177.398" y="70.089" style="fill:#F4D15A;" width="58.795" height="111.266"/>
	<rect x="206.902" y="276.905" style="fill:#F4D15A;" width="58.795" height="86.276"/>
</g>
<rect x="265.696" y="251.918" style="fill:#E0315B;" width="58.795" height="111.266"/>
<rect x="324.491" y="276.905" style="fill:#F4D15A;" width="58.795" height="86.276"/>
<path d="M452.363,0H59.636c-9.038,0-16.364,7.326-16.364,16.364v346.817v132.454c0,9.038,7.326,16.364,16.364,16.364h392.727
	c9.038,0,16.364-7.326,16.364-16.364V363.181V16.364C468.726,7.326,461.4,0,452.363,0z M435.999,32.727v314.09h-36.345v-69.915
	c0-9.038-7.326-16.364-16.364-16.364h-42.431v-8.627c0-9.038-7.326-16.364-16.364-16.364h-58.793
	c-9.038,0-16.364,7.326-16.364,16.364v8.627h-42.431c-9.038,0-16.364,7.326-16.364,16.364v69.915H75.999V197.908h255.022
	c9.038,0,16.364-7.326,16.364-16.364c0-9.038-7.326-16.364-16.364-16.364h-78.469V70.09c0-9.038-7.326-16.364-16.364-16.364h-58.795
	H118.6c-9.038,0-16.364,7.326-16.364,16.364v8.625H75.999V32.727H435.999z M366.927,346.814h-26.067v-53.548h26.067V346.814z
	 M308.132,276.902v69.912h-26.066v-69.912v-8.627h26.066V276.902z M249.339,346.814h-26.067v-53.548h26.067V346.814z
	 M219.827,164.991H193.76V86.454h26.067V164.991z M161.033,164.991h-26.067V95.079v-8.625h26.067V164.991z M102.238,164.991H76.173
	v-53.548h26.067v53.548H102.238z M75.999,479.273v-99.727h360v31.909H180.977c-9.038,0-16.364,7.326-16.364,16.364
	c0,9.038,7.326,16.364,16.364,16.364h255.022v35.09H75.999z"/>
</svg>