<?xml version="1.0" encoding="UTF-8" standalone="no"?>
<!-- Uploaded to: SVG Repo, www.svgrepo.com, Generator: SVG Repo Mixer Tools -->

<svg
   fill="#000000"
   width="800px"
   height="800px"
   viewBox="0 0 14 14"
   role="img"
   focusable="false"
   aria-hidden="true"
   version="1.1"
   id="svg1"
   sodipodi:docname="image.svg"
   inkscape:version="1.4.4 (dcaf3e7d9e, 2026-05-05)"
   xmlns:inkscape="http://www.inkscape.org/namespaces/inkscape"
   xmlns:sodipodi="http://sodipodi.sourceforge.net/DTD/sodipodi-0.dtd"
   xmlns="http://www.w3.org/2000/svg"
   xmlns:svg="http://www.w3.org/2000/svg">
  <defs
     id="defs1" />
  <sodipodi:namedview
     id="namedview1"
     pagecolor="#ffffff"
     bordercolor="#000000"
     borderopacity="0.25"
     inkscape:showpageshadow="2"
     inkscape:pageopacity="0.0"
     inkscape:pagecheckerboard="0"
     inkscape:deskcolor="#d1d1d1"
     inkscape:zoom="1.03625"
     inkscape:cx="399.51749"
     inkscape:cy="400"
     inkscape:window-width="1413"
     inkscape:window-height="1036"
     inkscape:window-x="36"
     inkscape:window-y="32"
     inkscape:window-maximized="0"
     inkscape:current-layer="svg1" />
  <g
     id="g1"
     transform="matrix(1.8352638,0,0,2.2008491,-6.0368817,-8.5900661)">
    <path
       d="m 7,8.8385971 c -1.1946,-0.3988 -1.944,-0.4259 -2.39275,-0.086 C 4.1109,9.1274971 4,9.0840971 4,8.5145971 c 0,-1.0579 0.98405,-1.2801 3.15745,-0.7131 1.40955,0.3678 1.62595,0.3844 2.0757,0.1596 0.2762,-0.138 0.5617,-0.2799 0.6345,-0.3154 0.0728,-0.035 0.13235,0.1783 0.13235,0.4751 0,0.4191 -0.1163,0.5998 -0.52065,0.8088 -0.65705,0.3398 -1.2548,0.3179 -2.47935,-0.091 z m 0,-2.647 c -1.1946,-0.3989 -1.944,-0.426 -2.39275,-0.087 C 4.1109,6.4803971 4,6.4370971 4,5.8674971 c 0,-1.0307 1.1159,-1.3118 2.9706,-0.7485 1.45335,0.4415 1.9587,0.4654 2.42215,0.1149 0.4989,-0.3774 0.60725,-0.3319 0.60725,0.2546 0,0.4027 -0.12115,0.5875 -0.52065,0.7941 -0.65705,0.3397 -1.2548,0.3178 -2.47935,-0.091 z"
       id="path1"
       style="fill:#f4d7d7" />
    <path
       d="m 7.2070929,9.0059165 c -1.1946,-0.3988 -1.944,-0.4259 -2.39275,-0.086 -0.49635,0.3749 -0.60725,0.3315 -0.60725,-0.238 0,-1.0579 0.98405,-1.2801 3.15745,-0.7131 1.40955,0.3678 1.62595,0.3844 2.0757,0.1596 0.2762,-0.138 0.5617001,-0.2799 0.6345001,-0.3154 0.0728,-0.035 0.13235,0.1783 0.13235,0.4751 0,0.4191 -0.1163,0.5998 -0.5206501,0.8088 -0.65705,0.3398 -1.2548,0.3179 -2.47935,-0.091 z m 0,-2.647 c -1.1946,-0.3989 -1.944,-0.426 -2.39275,-0.087 -0.49635,0.3758 -0.60725,0.3325 -0.60725,-0.2371 0,-1.0307 1.1159,-1.3118 2.9706,-0.7485 1.45335,0.4415 1.9587,0.4654 2.42215,0.1149 0.4989001,-0.3774 0.6072501,-0.3319 0.6072501,0.2546 0,0.4027 -0.12115,0.5875 -0.5206501,0.7941 -0.65705,0.3397 -1.2548,0.3178 -2.47935,-0.091 z"
       id="path1-5"
       style="fill:#ff0000" />
  </g>
</svg>
