<?xml version="1.0" encoding="UTF-8" standalone="no"?>
<!-- Uploaded to: SVG Repo, www.svgrepo.com, Generator: SVG Repo Mixer Tools -->

<svg
   width="800px"
   height="800px"
   viewBox="0 0 48 48"
   fill="none"
   version="1.1"
   id="svg3"
   xmlns="http://www.w3.org/2000/svg"
   xmlns:svg="http://www.w3.org/2000/svg">
  <defs
     id="defs3" />
  <rect
     width="48"
     height="48"
     fill="white"
     fill-opacity="0.01"
     id="rect1" />
  <path
     d="M36 8L13 8C10 8 4 10 4 16C4 22 10 24 13 24H35C38 24 44 26 44 32C44 38 38 40 35 40H12"
     stroke="#000000"
     stroke-width="4"
     stroke-linecap="round"
     stroke-linejoin="round"
     id="path1"
     style="stroke:#db2ba9;stroke-opacity:1" />
  <path
     d="M40 12C42.2091 12 44 10.2091 44 8C44 5.79086 42.2091 4 40 4C37.7909 4 36 5.79086 36 8C36 10.2091 37.7909 12 40 12Z"
     fill="#2F88FF"
     stroke="#000000"
     stroke-width="4"
     stroke-linejoin="round"
     id="path2"
     style="fill:#0b70f8;fill-opacity:1;stroke:#8a8a8a;stroke-opacity:1" />
  <path
     d="M8 44C10.2091 44 12 42.2091 12 40C12 37.7909 10.2091 36 8 36C5.79086 36 4 37.7909 4 40C4 42.2091 5.79086 44 8 44Z"
     fill="#2F88FF"
     stroke="#000000"
     stroke-width="4"
     stroke-linejoin="round"
     id="path3"
     style="fill:#ff6600;stroke:#878787;stroke-opacity:1" />
</svg>
