<?xml version="1.0" encoding="utf-8"?>
<!-- Uploaded to: SVG Repo, www.svgrepo.com, Generator: SVG Repo Mixer Tools -->
<svg width="800px" height="800px" viewBox="0 0 1024 1024" class="icon"  version="1.1" xmlns="http://www.w3.org/2000/svg"><path d="M542.591667 255.5875c-146.3375 230.666667-120.470833 435.1125 5.195833 624.320833 241.058333 4.254167 399.441667-98.7375 471.4875-314.05C949.354167 353.616667 787.308333 254.166667 542.591667 255.5875z" fill="#2EA86B" /><path d="M539.195833 821.095833h-0.0375c-3.7375 0-7.5375-0.025-11.3125-0.079166l-8.329166-0.1125-4.6375-6.916667C372.020833 600.966667 369.3875 391.095833 506.825 172.375l4.616667-7.341667 8.670833-0.0875c2.920833-0.025 5.7875-0.041667 8.683333-0.041666 250.7125 0 413.6875 107.379167 484.395834 319.154166l1.666666 4.995834-1.65 5c-71.541667 217.008333-231.025 327.041667-474.0125 327.041666z m-2.5625-31.754166l2.525 0.004166c229.0875 0.0125 373.8-98.216667 442.225-300.225-67.6-196.695833-215.583333-292.383333-452.2625-292.4625-123.929167 201.925-121.4625 395.970833 7.5125 592.683334zM34.720833 218.925h354.5625v31.75H34.720833zM19.254167 357.583333h308.379166v31.75H19.254167zM19.254167 511.829167H281.333333v31.75H19.254167zM19.254167 650.495833h308.379166v31.745834H19.254167zM19.254167 804.745833h370.033333v31.745834H19.254167z" fill="#332C2B" /></svg>