<?xml version="1.0" encoding="UTF-8" standalone="no"?>
<!-- Uploaded to: SVG Repo, www.svgrepo.com, Generator: SVG Repo Mixer Tools -->

<svg
   width="800"
   height="800"
   viewBox="0 0 128 128"
   id="Layer_1"
   version="1.1"
   xml:space="preserve"
   xmlns="http://www.w3.org/2000/svg"
   xmlns:svg="http://www.w3.org/2000/svg"><defs
   id="defs44">







</defs>

<style
   type="text/css"
   id="style1">
	.st0{fill:#581166;}
	.st1{fill:#E83A3A;}
	.st2{fill:#FF5855;}
	.st3{opacity:0.5;}
	.st4{fill:#FFDA8E;}
	.st5{fill:#FFFFFF;}
	.st6{fill:#EABA65;}
	.st7{fill:#E6E6E6;}
	.st8{fill:#460A54;}
	.st9{fill:none;}
	.st10{fill:none;stroke:#581166;stroke-width:2;stroke-linecap:round;stroke-linejoin:round;stroke-miterlimit:10;}
	.st11{fill:#F2F2F2;}
</style>















<g
   id="g24"
   transform="matrix(0.67283156,0,0,0.67500253,-2.4689105,6.2476658)"
   style="fill:#0000ff">

<g
   id="g23"
   style="fill:#0000ff">

<g
   id="g22"
   style="fill:#0000ff">

<path
   class="st0"
   d="m 18.2,104.4 c -0.4,0 -0.7,-0.1 -1,-0.3 -0.5,-0.3 -0.9,-0.9 -0.9,-1.6 V 36.6 c 0,-0.7 0.4,-1.4 1.1,-1.7 L 43.1,23.2 c 0.6,-0.3 1.3,-0.2 1.8,0.1 0.5,0.3 0.9,0.9 0.9,1.6 v 66 c 0,0.7 -0.4,1.4 -1.1,1.7 L 19,104.2 c -0.2,0.1 -0.5,0.2 -0.8,0.2 z M 20.1,37.8 V 99.6 L 42,89.7 V 27.8 Z m 23.8,53.1 z"
   id="path21"
   style="fill:#0000ff" />

</g>

</g>

</g>

<g
   id="g27"
   transform="matrix(0.67283156,0,0,0.67500253,-2.4689105,6.2476658)"
   style="fill:#0000ff">

<g
   id="g26"
   style="fill:#0000ff">

<g
   id="g25"
   style="fill:#0000ff">

<path
   class="st0"
   d="m 69.6,104.4 c -0.3,0 -0.5,-0.1 -0.8,-0.2 L 43.2,92.6 c -0.7,-0.3 -1.1,-1 -1.1,-1.7 v -66 c 0,-0.6 0.3,-1.2 0.9,-1.6 0.5,-0.3 1.2,-0.4 1.8,-0.1 l 25.7,11.7 c 0.7,0.3 1.1,1 1.1,1.7 v 65.9 c 0,0.6 -0.3,1.2 -0.9,1.6 -0.4,0.2 -0.7,0.3 -1.1,0.3 z M 45.8,89.7 67.7,99.6 V 37.8 l -21.9,-10 z"
   id="path24"
   style="fill:#0000ff" />

</g>

</g>

</g>

<g
   id="g30"
   transform="matrix(0.67283156,0,0,0.67500253,-2.4689105,6.2476658)"
   style="fill:#0000ff">

<g
   id="g29"
   style="fill:#0000ff">

<g
   id="g28"
   style="fill:#0000ff">

<path
   class="st0"
   d="m 69.6,104.4 c -0.4,0 -0.7,-0.1 -1,-0.3 -0.5,-0.3 -0.9,-0.9 -0.9,-1.6 V 36.6 c 0,-0.7 0.4,-1.4 1.1,-1.7 L 94.5,23.2 c 0.6,-0.3 1.3,-0.2 1.8,0.1 0.5,0.3 0.9,0.9 0.9,1.6 v 66 c 0,0.7 -0.4,1.4 -1.1,1.7 l -25.7,11.6 c -0.3,0.1 -0.5,0.2 -0.8,0.2 z M 71.5,37.8 V 99.6 L 93.4,89.7 V 27.8 Z m 23.8,53.1 z"
   id="path27"
   style="fill:#0000ff" />

</g>

</g>

</g>

<g
   id="g33"
   transform="matrix(0.67283156,0,0,0.67500253,-2.4689105,6.2476658)"
   style="fill:#0000ff">

<g
   id="g32"
   style="fill:#0000ff">

<g
   id="g31"
   style="fill:#0000ff">

<path
   class="st0"
   d="m 121,104.4 c -0.3,0 -0.5,-0.1 -0.8,-0.2 L 94.5,92.6 c -0.7,-0.3 -1.1,-1 -1.1,-1.7 v -66 c 0,-0.6 0.3,-1.2 0.9,-1.6 0.5,-0.3 1.2,-0.4 1.8,-0.1 l 25.7,11.7 c 0.7,0.3 1.1,1 1.1,1.7 v 65.9 c 0,0.6 -0.3,1.2 -0.9,1.6 -0.3,0.2 -0.6,0.3 -1,0.3 z M 97.2,89.7 119.1,99.6 V 37.8 l -21.9,-10 z"
   id="path30"
   style="fill:#0000ff" />

</g>

</g>

</g>

<g
   id="g36"
   transform="matrix(0.67283156,0,0,0.67500253,-2.4689105,6.2476658)">

<g
   id="g35">

<g
   id="g34">

<path
   class="st4"
   d="m 69.6,20.4 c -9.8,0 -17.8,8 -17.8,17.8 0,9.8 14.8,29.6 17.8,29.6 3,0 17.8,-19.8 17.8,-29.6 0,-9.8 -8,-17.8 -17.8,-17.8 z m 0,26.6 c -5.7,0 -10.2,-4.6 -10.2,-10.2 0,-5.7 4.6,-10.2 10.2,-10.2 5.6,0 10.2,4.6 10.2,10.2 0,5.6 -4.5,10.2 -10.2,10.2 z"
   id="path33" />

</g>

</g>

</g><g
   id="g39"
   transform="matrix(0.67283156,0,0,0.67500253,-2.4689105,6.2476658)">

<g
   id="g38">

<g
   id="g37">

<circle
   class="st5"
   cx="69.599998"
   cy="36.799999"
   r="10.2"
   id="circle36" />

</g>

</g>

</g><g
   id="g43"
   transform="matrix(0.67283156,0,0,0.67500253,-2.4689105,6.2476658)"
   style="fill:#0000ff">

<g
   id="g42"
   style="fill:#0000ff">

<g
   id="g41"
   style="fill:#0000ff">

<g
   id="g40"
   style="fill:#0000ff">

<path
   class="st0"
   d="m 69.6,69.7 c -5,0 -19.7,-21.9 -19.7,-31.5 0,-5.2 2,-10.2 5.8,-13.9 3.7,-3.7 8.6,-5.8 13.9,-5.8 0,0 0,0 0,0 10.8,0 19.7,8.8 19.7,19.7 0,9.6 -14.7,31.5 -19.7,31.5 z M 69.3,66 Z m 0.6,0 z M 69.6,22.3 c -4.2,0 -8.2,1.7 -11.2,4.7 -3,3 -4.7,7 -4.7,11.2 0,8.3 12.5,25.6 15.9,27.6 3.4,-2 15.9,-19.3 15.9,-27.6 0,-8.8 -7.1,-15.9 -15.9,-15.9 z m 0,26.6 c -6.7,0 -12.1,-5.4 -12.1,-12.1 0,-6.7 5.4,-12.1 12.1,-12.1 6.7,0 12.1,5.4 12.1,12.1 0,6.7 -5.4,12.1 -12.1,12.1 z m 0,-20.5 c -4.6,0 -8.4,3.7 -8.4,8.4 0,4.6 3.7,8.4 8.4,8.4 4.6,0 8.4,-3.7 8.4,-8.4 0,-4.6 -3.8,-8.4 -8.4,-8.4 z"
   id="path39"
   style="fill:#0000ff" />

</g>

</g>

</g>

</g>

<path
   fill="#5c913b"
   d="m 110.29298,105.48554 a 2.5633665,2.6469734 0 0 1 -2.56337,2.64698 H 51.335549 a 2.5633682,2.6469752 0 0 1 0,-5.29395 h 56.394061 a 2.5633665,2.6469734 0 0 1 2.56337,2.64697 z"
   id="path1"
   style="stroke-width:1.73656" /><path
   fill="#a0041e"
   d="M 69.866979,72.313679 H 66.449156 A 0.85445552,0.88232453 0 0 1 65.594702,71.431354 V 59.078812 a 0.85445552,0.88232453 0 0 1 0.854454,-0.882325 h 3.417823 a 0.85445552,0.88232453 0 0 1 0.854455,0.882325 v 12.352542 a 0.85445552,0.88232453 0 0 1 -0.854455,0.882325 z"
   id="path2"
   style="stroke-width:1.73656" /><path
   fill="#ffcc4d"
   d="m 58.926531,102.83857 c -0.234104,-8.217965 -0.86471,-14.117185 -1.609795,-14.117185 -0.743376,0 -1.373964,5.89922 -1.608084,14.117185 z"
   id="path3"
   style="stroke-width:1.73656" /><path
   fill="#77b255"
   d="m 65.861291,79.423449 c 0,9.837918 -3.824541,12.827236 -8.544555,12.827236 -4.718302,0 -8.544554,-2.989318 -8.544554,-12.827236 0,-9.841447 6.835644,-24.230396 8.544554,-24.230396 1.708912,0 8.544555,14.388949 8.544555,24.230396 z"
   id="path4"
   style="stroke-width:1.73656" /><path
   fill="#ffe8b6"
   d="M 62.443468,74.604192 84.659311,51.663754 106.87516,74.604192 V 102.83857 H 62.443468 Z"
   id="path5"
   style="stroke-width:1.73656" /><path
   fill="#ffcc4d"
   d="m 84.659311,74.604192 h 1.708913 v 28.234378 h -1.708913 z"
   id="path6"
   style="stroke-width:1.73656" /><path
   fill="#66757f"
   d="m 106.87516,76.36884 a 1.7037842,1.759355 0 0 1 -1.20821,-0.517042 L 84.659311,54.15897 63.651669,75.851798 a 1.7086529,1.7643825 0 1 1 -2.4164,-2.495212 L 83.45111,50.416149 a 1.7072021,1.7628843 0 0 1 2.416402,0 l 22.215838,22.940437 a 1.7072021,1.7628843 0 0 1 -1.20819,3.012254 z"
   id="path7"
   style="stroke-width:1.73656" /><path
   fill="#66757f"
   d="M 84.659311,76.36884 A 1.7072021,1.7628843 0 0 1 83.45111,73.356586 L 94.559032,61.886367 a 1.7086547,1.7643844 0 1 1 2.416403,2.495216 L 85.867512,75.851798 a 1.7037842,1.759355 0 0 1 -1.208201,0.517042 z"
   id="path8"
   style="stroke-width:1.73656" /><path
   fill="#c1694f"
   d="m 70.988026,92.250685 h 6.835641 v 10.587885 h -6.835641 z"
   id="path9"
   style="stroke-width:1.73656" /><path
   fill="#55acee"
   d="m 70.988026,76.36884 h 6.835641 v 7.058597 h -6.835641 z m 21.361385,0 h 6.835642 v 7.058597 h -6.835642 z m 0,15.881845 h 6.835642 v 7.05859 h -6.835642 z"
   id="path10"
   style="stroke-width:1.73656" /><path
   fill="#77b255"
   d="m 66.929362,99.293395 c 0,2.846375 -1.466249,3.711055 -3.275984,3.711055 -1.808027,0 -3.275981,-0.86468 -3.275981,-3.711055 0,-2.84638 2.61976,-7.01095 3.275981,-7.01095 0.65622,0 3.275984,4.16281 3.275984,7.01095 z m 43.149998,0 c 0,2.846375 -1.46624,3.711055 -3.27598,3.711055 -1.80803,0 -3.27598,-0.86468 -3.27598,-3.711055 0,-2.84638 2.61976,-7.01095 3.27598,-7.01095 0.65622,0 3.27598,4.16281 3.27598,7.01095 z"
   id="path11"
   style="stroke-width:1.73656" /></svg>
