<?xml version="1.0" encoding="iso-8859-1"?>
<!-- Uploaded to: SVG Repo, www.svgrepo.com, Generator: SVG Repo Mixer Tools -->
<svg height="800px" width="800px" version="1.1" id="Layer_1" xmlns="http://www.w3.org/2000/svg" xmlns:xlink="http://www.w3.org/1999/xlink" 
	 viewBox="0 0 512.001 512.001" xml:space="preserve">
<g>
	<path style="fill:#CC9475;" d="M219.711,294.568c-1.757,0-3.542-0.217-5.324-0.671l-77.486-19.763
		c-11.495-2.932-18.438-14.628-15.506-26.123c2.931-11.495,14.625-18.439,26.122-15.505l77.486,19.763
		c11.495,2.932,18.438,14.628,15.505,26.123C238.031,288.105,229.295,294.568,219.711,294.568z"/>
	<path style="fill:#CC9475;" d="M292.29,294.568c1.757,0,3.542-0.217,5.324-0.671l77.486-19.763
		c11.495-2.932,18.438-14.628,15.506-26.123c-2.931-11.495-14.625-18.439-26.122-15.505l-77.486,19.763
		c-11.495,2.932-18.438,14.628-15.505,26.123C273.969,288.105,282.706,294.568,292.29,294.568z"/>
	<path style="fill:#CC9475;" d="M167.527,493.164v-72.301c0-6.651,2.742-13.009,7.58-17.575l49.308-46.531
		c9.706-9.158,25-8.718,34.16,0.99c9.16,9.706,8.717,25-0.989,34.161l-41.729,39.379v61.879h-48.33V493.164z"/>
	<path style="fill:#CC9475;" d="M344.473,493.164v-72.301c0-6.651-2.742-13.009-7.58-17.575l-49.308-46.531
		c-9.706-9.158-25-8.718-34.16,0.99c-9.16,9.706-8.717,25,0.989,34.161l41.729,39.379v61.879h48.33V493.164z"/>
</g>
<path style="fill:#E0A381;" d="M256.001,244.194L256.001,244.194c-35.599,0-64.459,28.859-64.459,64.458v26.301v21.48v35.794
	h128.917v-35.794v-21.48v-26.301C320.458,273.053,291.6,244.194,256.001,244.194z"/>
<circle style="fill:#F7B48E;" cx="256.002" cy="229.689" r="56.584"/>
<path style="fill:#FFC6A6;" d="M256.001,187.07c28.884,0,52.697,21.649,56.14,49.603c0.281-2.289,0.445-4.615,0.445-6.981
	c0-31.25-25.334-56.584-56.584-56.584s-56.584,25.334-56.584,56.584c0,2.366,0.162,4.692,0.444,6.981
	C203.303,208.717,227.115,187.07,256.001,187.07z"/>
<g>
	<path style="fill:#E0A381;" d="M109.978,317.783c-4.483,0-9.002-1.397-12.866-4.293c-9.493-7.115-11.421-20.578-4.306-30.071
		l32.215-42.982c7.115-9.492,20.578-11.422,30.071-4.306c9.493,7.115,11.421,20.578,4.306,30.071l-32.215,42.983
		C122.964,314.813,116.51,317.783,109.978,317.783z"/>
	<path style="fill:#E0A381;" d="M177.431,473.831c-21.081,0-38.169,17.089-38.169,38.169h76.596v-38.169H177.431z"/>
</g>
<g>
	<circle style="fill:#5A4146;" cx="235.338" cy="217.144" r="7.792"/>
	<circle style="fill:#5A4146;" cx="276.666" cy="217.144" r="7.792"/>
</g>
<g>
	<path style="fill:#E0A381;" d="M402.022,317.783c4.483,0,9.002-1.397,12.866-4.293c9.493-7.115,11.421-20.578,4.306-30.071
		l-32.215-42.982c-7.115-9.492-20.578-11.422-30.071-4.306c-9.493,7.115-11.421,20.578-4.306,30.071l32.215,42.983
		C389.037,314.813,395.49,317.783,402.022,317.783z"/>
	<path style="fill:#E0A381;" d="M334.57,473.831c21.081,0,38.169,17.089,38.169,38.169h-76.596v-38.169H334.57z"/>
</g>
<path style="fill:#5A4146;" d="M256.001,258.748c-9.934,0-18.899-4.028-23.398-10.511c-2.537-3.655-1.629-8.674,2.026-11.211
	c3.655-2.537,8.675-1.629,11.211,2.026c0.962,1.387,4.572,3.586,10.163,3.586c5.591,0,9.201-2.2,10.163-3.586
	c2.537-3.654,7.557-4.56,11.21-2.025c3.655,2.537,4.561,7.556,2.025,11.211C274.898,254.72,265.933,258.748,256.001,258.748z"/>
<path style="fill:#E0A381;" d="M87.027,24.151L90,11.566c1.906-8.07,9.995-13.066,18.065-11.16l304.676,71.991
	c8.07,1.906,13.066,9.995,11.159,18.065l-2.974,12.585c-1.906,8.07-9.995,13.066-18.065,11.159L98.187,42.215
	C90.117,40.308,85.12,32.221,87.027,24.151z"/>
<polygon style="opacity:0.1;enable-background:new    ;" points="104.209,43.638 314.383,93.299 407.793,71.228 197.619,21.567 "/>
<path style="fill:#F7B48E;" d="M424.974,24.151l-2.973-12.585c-1.906-8.07-9.995-13.066-18.065-11.16L99.26,72.396
	c-8.07,1.906-13.066,9.995-11.159,18.065l2.974,12.585c1.906,8.07,9.995,13.066,18.065,11.159l304.676-71.991
	C421.885,40.308,426.881,32.221,424.974,24.151z"/>
<g>
	<path style="fill:#464754;" d="M400.522,302.622c-4.449,0-8.055-3.607-8.055-8.055V27.758c0-4.449,3.607-8.055,8.055-8.055
		s8.055,3.607,8.055,8.055v266.81C408.577,299.017,404.97,302.622,400.522,302.622z"/>
	<path style="fill:#464754;" d="M146.047,506.895c-4.449,0-8.055-3.607-8.055-8.055V86.292c0-4.449,3.607-8.055,8.055-8.055
		s8.055,3.607,8.055,8.055v412.549C154.102,503.288,150.495,506.895,146.047,506.895z"/>
	<path style="fill:#464754;" d="M111.48,302.622c-4.449,0-8.055-3.607-8.055-8.055V27.758c0-4.449,3.607-8.055,8.055-8.055
		s8.055,3.607,8.055,8.055v266.81C119.535,299.017,115.928,302.622,111.48,302.622z"/>
	<path style="fill:#464754;" d="M365.954,506.895c-4.449,0-8.055-3.607-8.055-8.055V86.292c0-4.449,3.607-8.055,8.055-8.055
		s8.055,3.607,8.055,8.055v412.549C374.009,503.288,370.402,506.895,365.954,506.895z"/>
</g>
</svg>