<?xml version="1.0" encoding="UTF-8" standalone="no"?>
<!-- Uploaded to: SVG Repo, www.svgrepo.com, Generator: SVG Repo Mixer Tools -->

<svg
   width="800px"
   height="800px"
   viewBox="0 0 60.601004 60.601004"
   version="1.1"
   id="svg5"
   xmlns="http://www.w3.org/2000/svg"
   xmlns:svg="http://www.w3.org/2000/svg"
   xmlns:rdf="http://www.w3.org/1999/02/22-rdf-syntax-ns#"
   xmlns:cc="http://creativecommons.org/ns#"
   xmlns:dc="http://purl.org/dc/elements/1.1/">
  <defs
     id="defs1" />
  <metadata
     id="metadata1">
    <rdf:RDF>
      <cc:Work
         rdf:about="">
        <dc:format>image/svg+xml</dc:format>
        <dc:type
           rdf:resource="http://purl.org/dc/dcmitype/StillImage" />
        <dc:source>http://www.ecomo.or.jp/barrierfree/pictogram/data/zukigo_panfu_jis110.pdf</dc:source>
      </cc:Work>
    </rdf:RDF>
  </metadata>
  <g
     id="g5"
     transform="matrix(1.3288453,0,0,1.234527,-10.817965,-7.8802409)">
    <path
       d="m 47.076756,29.796177 v 1.61125 h -11.74875 l -0.36875,2.63 h 12.1175 v 18.8375 h 1.98625 v -23.07875 h -1.98625"
       style="fill:#c92ada;fill-opacity:1;fill-rule:nonzero;stroke:none"
       id="path2" />
    <path
       d="m 29.594255,15.422426 c 1.78,0 3.22125,-1.44125 3.22125,-3.22125 0,-1.77875 -1.44125,-3.2212503 -3.22125,-3.2212503 -1.78,0 -3.22125,1.4425003 -3.22125,3.2212503 0,1.78 1.44125,3.22125 3.22125,3.22125"
       style="fill:#a48a14;fill-opacity:1;fill-rule:nonzero;stroke:none"
       id="path3" />
    <path
       d="m 19.346754,9.8299247 -1.61,-0.05625 v 3.5425003 l 1.61,-0.055 V 9.8299247"
       style="fill:#eb2b7b;fill-opacity:1;fill-rule:nonzero;stroke:none"
       id="path4" />
    <path
       d="m 33.331755,17.411176 c -0.0975,-0.7975 -0.775,-1.41375 -1.59875,-1.41375 -0.2625,0 -0.51125,0.0625 -0.73,0.1725 -3.02375,1.535 -5.9225,1.915 -7.11625,0.95375 -0.08875,-0.0725 -0.17,-0.15375 -0.24,-0.24375 -0.72375,-0.9275 -0.2425,-2.58875 1.06625,-4.18875 l 0.88875,-0.03125 v -2.23 l -5.6375,-0.1975 v 2.62625 l 1.4425,-0.05125 c -1.54875,2.40875 -1.8125,5.11 -0.4275,6.94875 1.01,1.3425 2.705,1.965 4.61125,1.88375 l 1.565,8.0575 v 1.71 h -12.345 v -1.61125 h -1.9875 v 23.07875 h 1.9875 v -18.8375 h 12.345 l 0.0012,18.8375 h 4.18875 l 3.29625,-23.455 c 0.05625,-0.41 0.0625,-0.83125 0.0087,-1.26125 l -1.31875,-10.7475"
       style="fill:#aa10a5;fill-opacity:1;fill-rule:nonzero;stroke:none"
       id="path5" />
  </g>
</svg>
