<?xml version="1.0" encoding="UTF-8" standalone="no"?>
<svg
   viewBox="0 0 640 640"
   version="1.1"
   id="svg1"
   sodipodi:docname="image.svg"
   inkscape:version="1.4.4 (dcaf3e7d9e, 2026-05-05)"
   xmlns:inkscape="http://www.inkscape.org/namespaces/inkscape"
   xmlns:sodipodi="http://sodipodi.sourceforge.net/DTD/sodipodi-0.dtd"
   xmlns="http://www.w3.org/2000/svg"
   xmlns:svg="http://www.w3.org/2000/svg">
  <defs
     id="defs1" />
  <sodipodi:namedview
     id="namedview1"
     pagecolor="#ffffff"
     bordercolor="#000000"
     borderopacity="0.25"
     inkscape:showpageshadow="2"
     inkscape:pageopacity="0.0"
     inkscape:pagecheckerboard="0"
     inkscape:deskcolor="#d1d1d1"
     inkscape:zoom="1.1921875"
     inkscape:cx="319.5806"
     inkscape:cy="320"
     inkscape:window-width="1033"
     inkscape:window-height="991"
     inkscape:window-x="26"
     inkscape:window-y="23"
     inkscape:window-maximized="0"
     inkscape:current-layer="svg1" />
  <!--!Font Awesome Free 7.1.0 by @fontawesome - https://fontawesome.com License - https://fontawesome.com/license/free Copyright 2025 Fonticons, Inc.-->
  <path
     d="m 291.7903,108.67235 -197.999999,198 c -10.9,10.9 -17,25.6 -17,41 0,15.4 6.1,30.1 17,41 l 197.999999,198 c 10.9,10.9 25.6,17 41,17 15.4,0 30.1,-6.1 41,-17 l 198,-198 c 10.9,-10.9 17,-25.6 17,-41 0,-15.4 -6.1,-30.1 -17,-41 l -198,-198 c -10.9,-10.900004 -25.6,-17.000004 -41,-17.000004 -15.4,0 -30.1,6.1 -41,17.000004 z m 170,240 -72,72 c -9.4,9.4 -24.6,9.4 -33.9,0 -9.3,-9.4 -9.4,-24.6 0,-33.9 l 31,-31 h -78.1 c -13.3,0 -24,10.7 -24,24 v 40 c 0,13.3 -10.7,24 -24,24 -13.3,0 -24,-10.7 -24,-24 v -40 c 0,-39.8 32.2,-72 72,-72 h 78.1 l -31,-31 c -9.4,-9.4 -9.4,-24.6 0,-33.9 9.4,-9.3 24.6,-9.4 33.9,0 l 72,72 c 9.4,9.4 9.4,24.6 0,33.9 z"
     id="path1-6"
     style="fill:#ff6600;stroke:#0c0c0c;stroke-opacity:1;stroke-width:13.2;stroke-dasharray:none" />
  <path
     d="M 22.783748,187.62942 41.634338,38.801375 C 42.957186,28.357301 51.952556,20.524246 62.667627,20.524246 H 174.18375 c 9.92136,0 17.92459,7.89833 17.92459,17.68965 0,2.088813 -0.39685,4.242904 -1.12441,6.201168 l -30.62395,80.549916 h 92.13639 c 13.36077,0 24.27428,10.70518 24.27428,23.95609 0,4.83039 -1.45514,9.53022 -4.23313,13.51202 L 145.41179,345.85713 c -3.9024,5.6137 -10.31822,8.94275 -17.13088,8.94275 h -1.91813 c -10.38436,0 -18.85059,-8.35527 -18.85059,-18.60352 0,-1.50133 0.19843,-3.00266 0.59528,-4.504 L 139.19441,208.51757 H 43.949323 c -11.707209,0 -21.165575,-9.3344 -21.165575,-20.88815 z"
     id="path1"
     style="fill:#0000ff;stroke-width:0.657075" />
</svg>
