<?xml version="1.0" encoding="iso-8859-1"?>
<!-- Uploaded to: SVG Repo, www.svgrepo.com, Generator: SVG Repo Mixer Tools -->
<svg version="1.1" id="Layer_1" xmlns="http://www.w3.org/2000/svg" xmlns:xlink="http://www.w3.org/1999/xlink" 
	 viewBox="0 0 512 512" xml:space="preserve">
<path style="fill:#8ED7E0;" d="M397.492,224.697L287.77,114.975L107.991,294.754c-17.356,17.356-22.999,43.238-14.443,66.244
	l6.026,16.204l-35.05,35.05l35.693,35.693l35.05-35.05l16.204,6.026c23.006,8.556,48.888,2.913,66.244-14.443L397.492,224.697z"/>
<path style="fill:#7CC3D1;" d="M106.855,374.301l0.915,11.095l-35.047,35.047l-8.199-8.199l35.047-35.047l-6.022-16.202
	c-8.563-23.012-2.914-48.886,14.441-66.241l179.776-179.776l25.215,25.215L133.204,319.969
	C115.85,337.323,105.559,358.557,106.855,374.301z"/>
<rect x="358.391" y="43.759" transform="matrix(-0.7071 -0.7071 0.7071 -0.7071 590.879 479.9667)" style="fill:#CCCCCC;" width="72.906" height="147.698"/>
<rect x="365.42" y="26.79" transform="matrix(-0.7071 -0.7071 0.7071 -0.7071 573.9054 438.9976)" style="fill:#B3B3B3;" width="24.904" height="147.698"/>
<path style="fill:#F7A872;" d="M143.81,317.104l45.419-45.419l100.658,2.448l-94.525,94.525
	c-10.083,10.083-25.119,13.361-38.482,8.391l0,0c-9.933-3.694-17.767-11.527-21.461-21.461l0,0
	C130.449,342.222,133.727,327.187,143.81,317.104z"/>
<path d="M289.873,264.917l-100.658-2.447c-2.451-0.069-4.832,0.891-6.57,2.628l-45.419,45.419
	c-12.53,12.529-16.636,31.358-10.458,47.967c4.609,12.391,14.358,22.14,26.749,26.749c5.133,1.908,10.476,2.835,15.781,2.835
	c11.862,0,23.528-4.637,32.186-13.294l94.525-94.525c2.542-2.542,3.323-6.352,1.988-9.689
	C296.662,267.223,293.466,265.005,289.873,264.917z M188.778,362.07c-7.576,7.576-18.956,10.058-29,6.322
	c-7.491-2.786-13.385-8.68-16.171-16.171c-3.735-10.041-1.253-21.425,6.323-29l42.696-42.696l75.852,1.845L188.778,362.07z"/>
<path d="M509.368,114.997L397.003,2.632c-3.508-3.508-9.197-3.508-12.704,0c-3.508,3.508-3.508,9.197,0,12.704l24.054,24.054
	l-64.199,64.199c-3.508,3.508-3.508,9.197,0,12.704c3.508,3.508,9.197,3.508,12.704,0l64.199-64.199l38.849,38.849l-91.73,91.73
	l-38.849-38.849l6.358-6.358c3.508-3.508,3.508-9.197,0-12.704c-3.508-3.51-9.197-3.508-12.704,0l-6.358,6.358l-50.494-50.494
	c-3.508-3.508-9.197-3.508-12.704,0c-3.508,3.508-3.508,9.197,0,12.704l21.409,21.409L101.407,288.166
	c-19.783,19.781-26.263,49.507-16.511,75.727l4.016,10.798l-30.972,30.971c-1.685,1.684-2.632,3.969-2.632,6.352
	s0.946,4.668,2.632,6.352l11.494,11.494L2.631,496.664c-3.508,3.508-3.508,9.197,0,12.704c1.754,1.754,4.053,2.632,6.352,2.632
	s4.598-0.877,6.352-2.632l66.802-66.802l11.494,11.494c1.754,1.754,4.053,2.632,6.352,2.632s4.598-0.877,6.352-2.632l30.971-30.971
	l10.798,4.016c26.22,9.751,55.946,3.27,75.728-16.511L357.88,276.545c3.508-3.508,3.508-9.197,0-12.704
	c-3.508-3.508-9.197-3.508-12.704,0L211.129,397.889c-14.827,14.826-37.106,19.686-56.761,12.376l-14.367-5.343l-13.456-13.456
	c-3.508-3.508-9.197-3.508-12.704,0c-3.508,3.508-3.508,9.197,0,12.704l8.49,8.49l-22.346,22.346l-11.492-11.492
	c-0.001-0.001-0.002-0.002-0.002-0.002s-0.002-0.001-0.004-0.002l-11.492-11.492l28.698-28.698c2.485-2.484,3.293-6.19,2.069-9.483
	l-6.026-16.204c-7.31-19.653-2.452-41.932,12.376-56.76l173.428-173.428l97.018,97.018l-18.205,18.205
	c-3.508,3.508-3.508,9.197,0,12.704c3.508,3.508,9.197,3.508,12.704,0l18.205-18.205l21.409,21.409
	c1.754,1.754,4.053,2.632,6.352,2.632c2.299,0,4.598-0.877,6.352-2.632c3.508-3.508,3.508-9.197,0-12.704L380.88,195.38l91.73-91.73
	l24.055,24.055c1.754,1.754,4.053,2.632,6.352,2.632c2.299,0,4.598-0.877,6.352-2.632
	C512.877,124.194,512.877,118.506,509.368,114.997z"/>
</svg>