<?xml version="1.0" encoding="UTF-8" standalone="no"?>
<!-- Generator: Adobe Illustrator 22.1.0, SVG Export Plug-In . SVG Version: 6.00 Build 0)  -->

<svg
   version="1.1"
   id="Icon_Set"
   x="0px"
   y="0px"
   viewBox="0 0 512 512"
   style="enable-background:new 0 0 512 512;"
   xml:space="preserve"
   sodipodi:docname="image.svg"
   inkscape:version="1.3.1 (9b9bdc1480, 2023-11-25, custom)"
   xmlns:inkscape="http://www.inkscape.org/namespaces/inkscape"
   xmlns:sodipodi="http://sodipodi.sourceforge.net/DTD/sodipodi-0.dtd"
   xmlns="http://www.w3.org/2000/svg"
   xmlns:svg="http://www.w3.org/2000/svg"><defs
   id="defs29">
	
	
</defs><sodipodi:namedview
   id="namedview29"
   pagecolor="#ffffff"
   bordercolor="#000000"
   borderopacity="0.25"
   inkscape:showpageshadow="2"
   inkscape:pageopacity="0.0"
   inkscape:pagecheckerboard="0"
   inkscape:deskcolor="#d1d1d1"
   inkscape:zoom="2.1953125"
   inkscape:cx="255.77224"
   inkscape:cy="219.55872"
   inkscape:window-width="2560"
   inkscape:window-height="1324"
   inkscape:window-x="0"
   inkscape:window-y="0"
   inkscape:window-maximized="1"
   inkscape:current-layer="Icon_Set" />
<style
   type="text/css"
   id="style1">
	.st0{fill:#F0C48A;}
	.st1{fill:#FD919E;}
	.st2{fill:#4C4372;}
	.st3{fill:#D3E6F8;}
	.st4{fill:#A4CFF2;}
	.st5{fill:#7BABF1;}
	.st6{fill:#FFFFFF;}
	.st7{fill:#E8677D;}
	.st8{fill:none;stroke:#4C4372;stroke-width:12;stroke-linecap:round;stroke-linejoin:round;stroke-miterlimit:10;}
</style>

<g
   id="g14"
   transform="matrix(0.36453337,0,0,0.37084274,20.462087,7.5561831)"><path
     d="m 511.3,512.1 m -483.5,0 a 483.5,483.5 0 1 0 967,0 483.5,483.5 0 1 0 -967,0 z"
     fill="#89b7f5"
     id="path1" /><path
     d="M 511.3,1010.7 C 444,1010.7 378.7,997.5 317.2,971.5 257.8,946.4 204.5,910.4 158.7,864.7 113,818.9 77.1,765.6 52,706.2 26,644.7 12.8,579.4 12.8,512.1 12.8,444.8 26,379.5 52,318.1 77.1,258.7 113.1,205.4 158.8,159.6 204.5,113.8 257.9,77.9 317.3,52.8 c 61.5,-26 126.8,-39.2 194.1,-39.2 67.3,0 132.6,13.2 194.1,39.2 59.4,25.1 112.7,61.1 158.5,106.8 45.8,45.8 81.7,99.1 106.8,158.5 26,61.5 39.2,126.8 39.2,194.1 0,67.3 -13.2,132.6 -39.2,194.1 -25.1,59.4 -61.1,112.7 -106.8,158.5 -45.8,45.8 -99.1,81.7 -158.5,106.8 -61.6,25.9 -126.9,39.1 -194.2,39.1 z m 0,-967.1 C 448.1,43.6 386.7,56 329,80.4 273.2,104 223.1,137.8 180,180.8 c -43.1,43 -76.8,93.2 -100.4,149 -24.4,57.8 -36.8,119.1 -36.8,182.4 0,63.3 12.4,124.6 36.8,182.4 23.6,55.7 57.4,105.8 100.4,148.8 43,43 93.1,76.8 148.9,100.4 57.8,24.4 119.1,36.8 182.4,36.8 63.3,0 124.6,-12.4 182.4,-36.8 55.8,-23.6 105.9,-57.4 148.9,-100.4 43,-43 76.8,-93.1 100.4,-148.9 24.4,-57.8 36.8,-119.1 36.8,-182.4 C 979.8,448.8 967.4,387.5 943,329.7 919.4,273.9 885.6,223.8 842.6,180.8 799.6,137.8 749.5,104 693.7,80.4 635.9,56 574.6,43.6 511.3,43.6 Z"
     fill="#0f53a8"
     id="path2" /><path
     d="m 511.3,512.1 m -396.3,0 a 396.3,396.3 0 1 0 792.6,0 396.3,396.3 0 1 0 -792.6,0 z"
     fill="#b6cdef"
     id="path3" /><path
     d="m 511.3,923.4 c -55.5,0 -109.4,-10.9 -160.1,-32.3 -49,-20.7 -93,-50.4 -130.7,-88.1 C 182.8,765.3 153.1,721.2 132.4,672.3 110.9,621.5 100,567.6 100,512.1 c 0,-55.5 10.9,-109.4 32.3,-160.1 20.7,-49 50.4,-93 88.1,-130.7 37.8,-37.8 81.8,-67.4 130.7,-88.1 50.7,-21.5 104.6,-32.3 160.1,-32.3 55.5,0 109.4,10.9 160.1,32.3 49,20.7 93,50.4 130.7,88.1 37.8,37.8 67.4,81.8 88.1,130.7 21.5,50.7 32.3,104.6 32.3,160.1 0,55.5 -10.9,109.4 -32.3,160.1 -20.7,49 -50.4,93 -88.1,130.7 -37.7,37.7 -81.8,67.4 -130.7,88.1 -50.6,21.6 -104.4,32.4 -160,32.4 z m 0,-792.6 c -51.5,0 -101.4,10.1 -148.4,30 -45.4,19.2 -86.2,46.7 -121.2,81.7 -35,35 -62.5,75.8 -81.7,121.2 -19.9,47 -30,96.9 -30,148.4 0,51.5 10.1,101.4 30,148.4 19.2,45.4 46.7,86.2 81.7,121.2 35,35 75.8,62.5 121.2,81.7 47,19.9 96.9,30 148.4,30 51.5,0 101.4,-10.1 148.4,-30 45.4,-19.2 86.2,-46.7 121.2,-81.7 35,-35 62.5,-75.8 81.7,-121.2 19.9,-47 30,-96.9 30,-148.4 0,-51.5 -10.1,-101.4 -30,-148.4 -19.2,-45.4 -46.7,-86.2 -81.7,-121.2 -35,-35 -75.8,-62.5 -121.2,-81.7 -47,-19.9 -96.9,-30 -148.4,-30 z"
     fill="#0f53a8"
     id="path4" /><path
     d="m 511.3,246.7 c -8.3,0 -15,-6.7 -15,-15 v -47.2 c 0,-8.3 6.7,-15 15,-15 8.3,0 15,6.7 15,15 v 47.2 c 0,8.3 -6.7,15 -15,15 z m 0,608 c -8.3,0 -15,-6.7 -15,-15 v -47.2 c 0,-8.3 6.7,-15 15,-15 8.3,0 15,6.7 15,15 v 47.2 c 0,8.3 -6.7,15 -15,15 z M 709.6,328.8 c -3.8,0 -7.7,-1.5 -10.6,-4.4 -5.9,-5.9 -5.9,-15.4 0,-21.2 l 33.4,-33.4 c 5.9,-5.9 15.4,-5.9 21.2,0 5.9,5.9 5.9,15.4 0,21.2 l -33.4,33.4 c -2.9,3 -6.7,4.4 -10.6,4.4 z m -429.9,430 c -3.8,0 -7.7,-1.5 -10.6,-4.4 -5.9,-5.9 -5.9,-15.4 0,-21.2 l 33.4,-33.4 c 5.9,-5.9 15.4,-5.9 21.2,0 5.9,5.9 5.9,15.4 0,21.2 l -33.4,33.4 c -2.9,2.9 -6.8,4.4 -10.6,4.4 z M 838.9,527.1 h -47.2 c -8.3,0 -15,-6.7 -15,-15 0,-8.3 6.7,-15 15,-15 h 47.2 c 8.3,0 15,6.7 15,15 0,8.3 -6.7,15 -15,15 z m -608,0 h -47.2 c -8.3,0 -15,-6.7 -15,-15 0,-8.3 6.7,-15 15,-15 h 47.2 c 8.3,0 15,6.7 15,15 0,8.3 -6.7,15 -15,15 z"
     fill="#0f53a8"
     id="path5" /><path
     d="m 743,758.8 c -3.8,0 -7.7,-1.5 -10.6,-4.4 L 699,721 c -5.9,-5.9 -5.9,-15.4 0,-21.2 5.9,-5.9 15.4,-5.9 21.2,0 l 33.4,33.4 c 5.9,5.9 5.9,15.4 0,21.2 -2.9,2.9 -6.8,4.4 -10.6,4.4 z m -430,-430 c -3.8,0 -7.7,-1.5 -10.6,-4.4 L 269,291 c -5.9,-5.9 -5.9,-15.4 0,-21.2 5.9,-5.9 15.4,-5.9 21.2,0 l 33.4,33.4 c 5.9,5.9 5.9,15.4 0,21.2 -2.9,3 -6.7,4.4 -10.6,4.4 z"
     fill="#0f53a8"
     id="path6" /><path
     d="m 493,512.1 18.3,-239.4 18.4,239.4 z"
     fill="#b6cdef"
     id="path7" /><path
     d="M 529.7,527.1 H 493 c -4.2,0 -8.2,-1.7 -11,-4.8 -2.8,-3.1 -4.3,-7.2 -4,-11.3 l 18.3,-239.5 c 0.6,-7.8 7.1,-13.9 15,-13.9 7.8,0 14.4,6 15,13.9 L 544.6,511 c 0.3,4.2 -1.1,8.3 -4,11.3 -2.9,3 -6.8,4.8 -10.9,4.8 z m -20.5,-30 h 4.3 l -2.1,-27.9 z"
     fill="#0f53a8"
     id="path8" /><path
     d="m 517.5,499.7 138.9,162 -162,-138.9 z"
     fill="#b6cdef"
     id="path9" /><path
     d="m 656.4,676.7 c -3.5,0 -6.9,-1.2 -9.8,-3.6 l -162,-138.9 c -3.2,-2.7 -5.1,-6.6 -5.2,-10.8 -0.2,-4.2 1.4,-8.2 4.4,-11.2 l 23,-23 c 3,-3 7,-4.5 11.2,-4.4 4.2,0.2 8.1,2.1 10.8,5.2 l 138.9,162 c 5.1,6 4.8,14.8 -0.8,20.4 -2.8,2.8 -6.6,4.3 -10.5,4.3 z m -139.9,-154.8 0.9,0.8 -0.8,-0.9 z"
     fill="#0f53a8"
     id="path10" /><path
     d="M 242,616.5 508,512.1"
     fill="#b6cdef"
     id="path11" /><path
     d="m 242,631.5 c -6,0 -11.6,-3.6 -14,-9.5 -3,-7.7 0.8,-16.4 8.5,-19.4 l 266,-104.3 c 7.7,-3 16.4,0.8 19.4,8.5 3,7.7 -0.8,16.4 -8.5,19.4 l -266,104.3 c -1.7,0.6 -3.6,1 -5.4,1 z"
     fill="#0f53a8"
     id="path12" /><path
     d="m 511.3,512.1 m -30.1,0 a 30.1,30.1 0 1 0 60.2,0 30.1,30.1 0 1 0 -60.2,0 z"
     fill="#b6cdef"
     id="path13" /><path
     d="m 511.3,557.3 c -24.9,0 -45.1,-20.2 -45.1,-45.1 0,-24.9 20.2,-45.1 45.1,-45.1 24.9,0 45.1,20.2 45.1,45.1 0.1,24.8 -20.2,45.1 -45.1,45.1 z m 0,-60.3 c -8.3,0 -15.1,6.8 -15.1,15.1 0,8.3 6.8,15.1 15.1,15.1 8.3,0 15.1,-6.8 15.1,-15.1 0.1,-8.3 -6.7,-15.1 -15.1,-15.1 z"
     fill="#0f53a8"
     id="path14" /></g><g
   id="g13"
   transform="matrix(8.0708772,0,0,8.1095485,180.75623,178.23664)"><path
     fill="#292f33"
     d="M 21.906,1.262 C 19.886,0.608 15.134,0.787 13.946,2.331 10.857,2.39 7.233,5.182 6.758,8.866 c -0.47,3.645 0.578,5.338 0.951,8.079 0.422,3.106 2.168,4.099 3.564,4.515 C 13.281,24.114 15.415,24 19,24 26,24 29.334,19.316 29.629,11.361 29.807,6.549 26.984,2.905 21.906,1.262 Z"
     id="path1-3" /><path
     fill="#fa743e"
     d="M 27,21 H 9 A 4,4 0 0 0 5,25 V 36 H 31 V 25 a 4,4 0 0 0 -4,-4 z"
     id="path2-5" /><path
     fill="#f7dece"
     d="m 25.904,11.734 c -0.677,-0.938 -1.545,-1.693 -3.446,-1.96 0.713,0.327 1.396,1.455 1.485,2.079 0.089,0.624 0.178,1.129 -0.386,0.505 C 21.296,9.859 18.834,10.843 16.394,9.317 14.691,8.25 14.172,7.07 14.172,7.07 c 0,0 -0.208,1.574 -2.792,3.178 -0.749,0.465 -1.643,1.501 -2.139,3.03 -0.356,1.099 -0.246,2.079 -0.246,3.754 0,4.889 4.029,9 9,9 4.971,0 9,-4.147 9,-9 0,-3.041 -0.318,-4.229 -1.091,-5.298 z"
     id="path3-6" /><path
     fill="#dd551f"
     d="m 10,27 h 1 v 9 h -1 z"
     id="path4-2" /><path
     fill="#e0aa94"
     d="M 4.702,26.495 4.419,26.436 H 3.908 c 0,-0.058 0.023,-0.112 0.035,-0.169 A 0.994,0.994 0 0 1 3.485,25.219 c 0.112,-0.542 0.643,-0.89 1.186,-0.779 l 2.091,0.433 h 1.676 c 0.863,0 1.562,0.7 1.562,1.564 V 28 H 6.253 c 0,0 -1.481,-0.669 -1.551,-1.505 z"
     id="path5-9" /><path
     fill="#f7dece"
     d="m 0,25.655 c 0,-0.432 0.35,-0.782 0.781,-0.782 l 4.69,0.782 h 3.747 c 0.432,0 0.781,0.351 0.781,0.781 V 28 H 5 L 0.781,26.437 c 0,0 -0.781,-0.35 -0.781,-0.782 z"
     id="path6-1" /><path
     fill="#fa743e"
     d="m 4,36 h 6 V 28 H 5 Z"
     id="path7-2" /><path
     fill="#dd551f"
     d="m 25,27 h 1 v 9 h -1 z"
     id="path8-7" /><path
     fill="#e0aa94"
     d="m 31.298,26.495 0.283,-0.059 h 0.511 c 0,-0.058 -0.023,-0.112 -0.035,-0.169 A 0.994,0.994 0 0 0 32.515,25.219 1.003,1.003 0 0 0 31.33,24.44 l -2.091,0.433 h -1.676 c -0.863,0 -1.562,0.7 -1.562,1.564 V 28 h 3.747 c -0.001,0 1.48,-0.669 1.55,-1.505 z"
     id="path9-0" /><path
     fill="#f7dece"
     d="m 36,25.655 a 0.782,0.782 0 0 0 -0.781,-0.782 l -4.691,0.782 H 26.781 A 0.781,0.781 0 0 0 26,26.436 V 28 h 5 l 4.219,-1.563 c 0,0 0.781,-0.35 0.781,-0.782 z"
     id="path10-9" /><path
     fill="#fa743e"
     d="m 32,36 h -6 v -8 h 5 z"
     id="path11-3" /><path
     fill="#c1694f"
     d="m 19,19.5 h -2 a 0.5,0.5 0 0 1 0,-1 h 2 a 0.5,0.5 0 0 1 0,1 z M 20.5,23 H 20 a 0.5,0.5 0 0 1 0,-1 h 0.5 a 0.5,0.5 0 0 1 0,1 z"
     id="path12-6" /><path
     fill="#662113"
     d="m 14,16 a 1,1 0 0 1 -1,-1 v -1 a 1,1 0 0 1 2,0 v 1 a 1,1 0 0 1 -1,1 z m 8,0 a 1,1 0 0 1 -1,-1 v -1 a 1,1 0 1 1 2,0 v 1 a 1,1 0 0 1 -1,1 z"
     id="path13-0" /></g></svg>
