<?xml version="1.0" encoding="UTF-8" standalone="no"?>
<!-- Generator: Adobe Illustrator 22.1.0, SVG Export Plug-In . SVG Version: 6.00 Build 0)  -->

<svg
   version="1.1"
   id="Icon_Set"
   x="0px"
   y="0px"
   viewBox="0 0 512 512"
   style="enable-background:new 0 0 512 512;"
   xml:space="preserve"
   xmlns="http://www.w3.org/2000/svg"
   xmlns:svg="http://www.w3.org/2000/svg"><defs
   id="defs497">
	
	

		
		
		
		
		
		
		
		
		
		
		
		
		
		
	</defs>
<style
   type="text/css"
   id="style385">
	.st0{fill:#F0C48A;}
	.st1{fill:#FD919E;}
	.st2{fill:#4C4372;}
	.st3{fill:#D3E6F8;}
	.st4{fill:#A4CFF2;}
	.st5{fill:#7BABF1;}
	.st6{fill:#FFFFFF;}
	.st7{fill:#E8677D;}
	.st8{fill:none;stroke:#4C4372;stroke-width:12;stroke-linecap:round;stroke-linejoin:round;stroke-miterlimit:10;}
</style>
<g
   id="g425"
   transform="matrix(1.2911583,0,0,1.4927386,-71.796251,-133.10985)">
			<g
   id="g395">
				<circle
   class="st4"
   cx="223.569"
   cy="256"
   r="132.715"
   id="circle393" />
			</g>
			<g
   id="g399">
				<circle
   class="st6"
   cx="223.569"
   cy="256"
   r="108.063"
   id="circle397" />
			</g>
			<g
   id="g403">
				<path
   class="st3"
   d="m 126.977,275.174 c 0,-59.682 48.382,-108.063 108.063,-108.063 35.406,0 66.834,17.028 86.544,43.341 -17.186,-36.919 -54.608,-62.516 -98.015,-62.516 -59.682,0 -108.063,48.382 -108.063,108.063 0,24.276 8.005,46.681 21.519,64.722 -6.444,-13.841 -10.048,-29.272 -10.048,-45.547 z"
   id="path401" />
			</g>
			<g
   id="g407">
				<path
   class="st2"
   d="M 223.569,394.715 C 147.081,394.715 84.854,332.488 84.854,256 c 0,-76.488 62.228,-138.715 138.715,-138.715 76.487,0 138.715,62.227 138.715,138.715 0,76.488 -62.227,138.715 -138.715,138.715 z m 0,-265.43 c -69.871,0 -126.715,56.844 -126.715,126.715 0,69.871 56.844,126.715 126.715,126.715 69.871,0 126.715,-56.844 126.715,-126.715 0,-69.871 -56.844,-126.715 -126.715,-126.715 z"
   id="path405" />
			</g>
			<g
   id="g411">
				<path
   class="st2"
   d="m 223.569,370.063 c -62.895,0 -114.063,-51.169 -114.063,-114.063 0,-62.894 51.168,-114.063 114.063,-114.063 62.895,0 114.063,51.169 114.063,114.063 0,62.894 -51.168,114.063 -114.063,114.063 z m 0,-216.126 c -56.278,0 -102.063,45.785 -102.063,102.063 0,56.278 45.785,102.063 102.063,102.063 56.278,0 102.063,-45.785 102.063,-102.063 0,-56.278 -45.785,-102.063 -102.063,-102.063 z"
   id="path409" />
			</g>
			<g
   id="g415">
				<path
   class="st2"
   d="m 223.569,262 h -54.675 c -3.313,0 -6,-2.686 -6,-6 0,-3.314 2.687,-6 6,-6 h 48.675 v -70.226 c 0,-3.314 2.687,-6 6,-6 3.313,0 6,2.686 6,6 V 256 c 0,3.314 -2.687,6 -6,6 z"
   id="path413" />
			</g>
			<g
   id="g419">
				<circle
   class="st5"
   cx="223.569"
   cy="256"
   r="19.174"
   id="circle417" />
			</g>
			<g
   id="g423">
				<path
   class="st2"
   d="m 223.569,281.174 c -13.881,0 -25.174,-11.293 -25.174,-25.174 0,-13.881 11.293,-25.174 25.174,-25.174 13.881,0 25.174,11.293 25.174,25.174 0,13.881 -11.293,25.174 -25.174,25.174 z m 0,-38.348 c -7.264,0 -13.174,5.91 -13.174,13.174 0,7.264 5.91,13.174 13.174,13.174 7.264,0 13.174,-5.91 13.174,-13.174 0,-7.264 -5.91,-13.174 -13.174,-13.174 z"
   id="path421" />
			</g>
		</g><g
   id="g429"
   transform="matrix(1.2911583,0,0,1.4927386,-71.796251,-133.10985)"
   style="fill:#ffb380">
			<path
   class="st5"
   d="m 379.877,224.75 v -44 c 0,-31.737 -25.728,-57.465 -57.465,-57.465 v 0 c -31.737,0 -57.465,25.728 -57.465,57.465 v 44 h 17.945 80.359 z"
   id="path427"
   style="fill:#ffb380" />
		</g><g
   id="g433"
   transform="matrix(1.2911583,0,0,1.4927386,-71.796251,-133.10985)">
			<path
   class="st2"
   d="M 379.877,230.75 H 264.946 c -3.313,0 -6,-2.686 -6,-6 v -44 c 0,-34.995 28.47,-63.465 63.465,-63.465 34.995,0 63.466,28.47 63.466,63.465 v 44 c 0,3.314 -2.686,6 -6,6 z m -108.931,-12 h 102.931 v -38 c 0,-28.378 -23.087,-51.465 -51.465,-51.465 -28.378,0 -51.466,23.087 -51.466,51.465 z"
   id="path431" />
		</g><g
   id="g437"
   transform="matrix(1.2911583,0,0,1.4927386,-71.796251,-133.10985)">
			<path
   class="st3"
   d="M 373.266,240.419 H 271.45 c -9.741,0 -17.638,-7.897 -17.638,-17.638 v 0 c 0,-9.741 7.897,-17.638 17.638,-17.638 h 101.816 c 9.741,0 17.638,7.897 17.638,17.638 v 0 c 0,9.741 -7.897,17.638 -17.638,17.638 z"
   id="path435" />
		</g><g
   id="g441"
   transform="matrix(1.2911583,0,0,1.4927386,-71.796251,-133.10985)">
			<path
   class="st2"
   d="M 373.266,246.419 H 271.45 c -13.034,0 -23.638,-10.604 -23.638,-23.638 0,-13.034 10.604,-23.638 23.638,-23.638 h 101.816 c 13.034,0 23.637,10.604 23.637,23.638 0,13.034 -10.603,23.638 -23.637,23.638 z M 271.45,211.144 c -6.417,0 -11.638,5.221 -11.638,11.638 0,6.417 5.221,11.638 11.638,11.638 h 101.816 c 6.417,0 11.637,-5.221 11.637,-11.638 0,-6.417 -5.22,-11.638 -11.637,-11.638 z"
   id="path439" />
		</g><g
   id="g445"
   transform="matrix(1.2911583,0,0,1.4927386,-71.796251,-133.10985)"
   style="fill:#ff2a2a">
			<path
   class="st1"
   d="M 421.146,388.715 H 223.569 v -65.559 c 0,-18.493 14.992,-33.485 33.485,-33.485 h 130.607 c 18.493,0 33.485,14.992 33.485,33.485 z"
   id="path443"
   style="fill:#ff2a2a" />
		</g><g
   id="g449"
   transform="matrix(1.2911583,0,0,1.4927386,-71.796251,-133.10985)">
			<path
   class="st7"
   d="M 387.661,289.672 H 367.34 c 18.493,0 33.485,14.992 33.485,33.485 v 65.559 h 20.321 v -65.559 c 10e-4,-18.493 -14.991,-33.485 -33.485,-33.485 z"
   id="path447" />
		</g><g
   id="g453"
   transform="matrix(1.2911583,0,0,1.4927386,-71.796251,-133.10985)">
			<path
   class="st2"
   d="M 421.146,394.715 H 223.569 c -3.313,0 -6,-2.686 -6,-6 v -65.559 c 0,-21.772 17.713,-39.485 39.485,-39.485 h 130.607 c 21.772,0 39.485,17.713 39.485,39.485 v 65.559 c 0,3.314 -2.686,6 -6,6 z m -191.577,-12 h 185.578 v -59.559 c 0,-15.155 -12.33,-27.485 -27.485,-27.485 H 257.054 c -15.155,0 -27.485,12.33 -27.485,27.485 z"
   id="path451" />
		</g><g
   id="g463"
   transform="matrix(1.2911583,0,0,1.4927386,-71.796251,-133.10985)">
			<g
   id="g457">
				<path
   class="st2"
   d="m 263.69,394.715 c -3.313,0 -6,-2.686 -6,-6 v -33.593 c 0,-3.314 2.687,-6 6,-6 3.313,0 6,2.686 6,6 v 33.593 c 0,3.314 -2.687,6 -6,6 z"
   id="path455" />
			</g>
			<g
   id="g461">
				<path
   class="st2"
   d="m 381.025,394.715 c -3.313,0 -6,-2.686 -6,-6 v -33.593 c 0,-3.314 2.687,-6 6,-6 3.313,0 6,2.686 6,6 v 33.593 c 0,3.314 -2.686,6 -6,6 z"
   id="path459" />
			</g>
		</g><g
   id="g467"
   transform="matrix(1.2911583,0,0,1.4927386,-71.796251,-133.10985)">
			<path
   class="st3"
   d="m 322.339,321.924 v 0 c -12.152,0 -22.002,-9.851 -22.002,-22.002 v -39.209 h 44.005 v 39.209 c 0,12.151 -9.851,22.002 -22.003,22.002 z"
   id="path465" />
		</g><g
   id="g471"
   transform="matrix(1.2911583,0,0,1.4927386,-71.796251,-133.10985)">
			<path
   class="st2"
   d="m 322.339,327.924 c -15.44,0 -28.002,-12.562 -28.002,-28.002 v -39.209 c 0,-3.314 2.687,-6 6,-6 h 44.005 c 3.313,0 6,2.686 6,6 v 39.209 c 0,15.44 -12.562,28.002 -28.003,28.002 z m -16.002,-61.211 v 33.209 c 0,8.824 7.179,16.002 16.002,16.002 8.823,0 16.002,-7.179 16.002,-16.002 v -33.209 z"
   id="path469" />
		</g><g
   id="g475"
   transform="matrix(1.2911583,0,0,1.4927386,-71.796251,-133.10985)"
   style="fill:#f4e3d7">
			<path
   class="st6"
   d="m 342.411,173.716 c -18.318,20.005 -53.43,27.799 -68.847,30.35 -0.38,2.469 -0.578,4.997 -0.578,7.572 v 22.967 c 0,27.268 22.105,49.372 49.372,49.372 v 0 c 27.268,0 49.372,-22.105 49.372,-49.372 v -22.967 c 0,-2.373 -0.178,-4.703 -0.501,-6.986 -4.367,-2.229 -22.074,-12.231 -28.818,-30.936 z"
   id="path473"
   style="fill:#f4e3d7" />
		</g><g
   id="g485"
   transform="matrix(1.2911583,0,0,1.4927386,-71.796251,-133.10985)">
			<g
   id="g479">
				<path
   class="st2"
   d="m 300.194,229.122 c -3.313,0 -6,-2.686 -6,-6 v -9.576 c 0,-3.314 2.687,-6 6,-6 3.313,0 6,2.686 6,6 v 9.576 c 0,3.313 -2.686,6 -6,6 z"
   id="path477" />
			</g>
			<g
   id="g483">
				<path
   class="st2"
   d="m 344.521,229.122 c -3.313,0 -6,-2.686 -6,-6 v -9.576 c 0,-3.314 2.687,-6 6,-6 3.313,0 6,2.686 6,6 v 9.576 c 0,3.313 -2.687,6 -6,6 z"
   id="path481" />
			</g>
		</g><g
   id="g489"
   transform="matrix(1.2911583,0,0,1.4927386,-71.796251,-133.10985)">
			<path
   class="st2"
   d="m 322.358,289.977 c -30.533,0 -55.373,-24.84 -55.373,-55.372 v -22.967 c 0,-2.836 0.218,-5.691 0.648,-8.485 0.395,-2.564 2.392,-4.583 4.951,-5.007 13.934,-2.306 48.2,-9.697 65.402,-28.483 1.418,-1.549 3.542,-2.244 5.604,-1.831 2.06,0.413 3.754,1.872 4.466,3.848 6.058,16.804 22.639,25.962 25.901,27.627 1.74,0.888 2.938,2.568 3.212,4.502 0.372,2.623 0.561,5.257 0.561,7.829 v 22.967 c 0,30.532 -24.84,55.372 -55.372,55.372 z m -43.304,-80.788 c -0.045,0.816 -0.068,1.634 -0.068,2.449 v 22.967 c 0,23.916 19.457,43.372 43.373,43.372 23.916,0 43.372,-19.457 43.372,-43.372 v -22.967 c 0,-1.062 -0.042,-2.139 -0.124,-3.224 -6.292,-3.649 -17.795,-11.644 -25.126,-24.597 -17.966,15.01 -44.17,22.133 -61.427,25.372 z"
   id="path487" />
		</g>
</svg>
