<?xml version="1.0" encoding="UTF-8" standalone="no"?>
<svg
   viewBox="0 0 640 640"
   version="1.1"
   id="svg1"
   xmlns="http://www.w3.org/2000/svg"
   xmlns:svg="http://www.w3.org/2000/svg">
  <defs
     id="defs1" />
  <!--!Font Awesome Free 7.1.0 by @fontawesome - https://fontawesome.com License - https://fontawesome.com/license/free Copyright 2025 Fonticons, Inc.-->
  <path
     d="m 227.97568,43.571015 93.28252,28.736998 93.2825,-28.736998 c 13.34294,-4.152116 27.15821,-6.228175 41.20962,-6.228175 71.79212,0 130.00513,53.868216 130.00513,120.30206 v 74.84731 c 0,32.12424 -11.21752,63.48365 -32.11753,89.1612 l -1.29886,1.63898 c -15.23222,18.79378 -25.15086,40.86554 -28.69323,64.13924 l -25.62318,165.53824 c -3.89661,25.13121 -27.15818,43.81573 -54.55255,43.81573 -26.92205,0 -49.94748,-18.02893 -54.31641,-42.61381 L 365.30172,421.52266 c -3.54239,-19.88643 -22.19889,-34.52811 -44.04352,-34.52811 -21.84464,0 -40.38306,14.64168 -44.04353,34.52811 l -23.85198,132.64913 c -4.48702,24.58488 -27.39435,42.61381 -54.31641,42.61381 -27.39436,0 -50.65595,-18.68452 -54.55255,-43.81573 L 118.87054,387.5409 c -3.54235,-23.2737 -13.46101,-45.34546 -28.693223,-64.13925 l -1.298864,-1.63899 C 67.978455,295.97586 56.760926,264.72573 56.760926,232.60147 v -74.84732 c 0,-66.543094 58.213014,-120.41131 130.005134,-120.41131 14.05141,0 27.86668,2.076059 41.20962,6.228175 z"
     id="path1"
     style="fill:#e6e6e6;fill-opacity:1;stroke:#000000;stroke-width:13.7923;stroke-dasharray:none;stroke-opacity:1" />
  <path
     d="m 49.113167,97.093054 c -16.818545,0 -30.406418,7.847466 -30.406418,17.560766 0,9.7133 13.587873,17.56075 30.406418,17.56075 H 596.42864 c 16.81855,0 30.40641,-7.84745 30.40641,-17.56075 0,-9.7133 -13.58786,-17.560766 -30.40641,-17.560766 z m 0,210.729096 c -16.818545,0 -30.406418,7.84744 -30.406418,17.56074 0,9.71329 13.587873,17.56076 30.406418,17.56076 H 596.42864 c 16.81855,0 30.40641,-7.84747 30.40641,-17.56076 0,-9.7133 -13.58786,-17.56074 -30.40641,-17.56074 z M 25.358153,171.17751 c -8.931884,5.15846 -8.931884,13.49982 0,18.60342 l 52.261027,30.18255 -52.261027,30.18255 c -8.931884,5.15847 -8.931884,13.49983 0,18.60343 8.931874,5.1036 23.374933,5.15847 32.211799,0 l 52.261018,-30.18255 52.26103,30.18255 c 8.93189,5.15847 23.37494,5.15847 32.21181,0 8.83685,-5.15848 8.93189,-13.49984 0,-18.60343 l -52.26104,-30.18255 52.26104,-30.18255 c 8.93189,-5.15848 8.93189,-13.49983 0,-18.60342 -8.93188,-5.10361 -23.37494,-5.15848 -32.21181,0 l -52.26103,30.18254 -52.261018,-30.18254 c -8.931892,-5.15848 -23.374939,-5.15848 -32.211799,0 z m 245.151737,0 c -8.9319,-5.15848 -23.37494,-5.15848 -32.21181,0 -8.83686,5.15846 -8.93188,13.49982 0,18.60342 l 52.26102,30.18255 -52.26102,30.18255 c -8.93188,5.15847 -8.93188,13.49983 0,18.60343 8.93188,5.1036 23.37494,5.15847 32.21181,0 l 52.26102,-30.18255 52.26102,30.18255 c 8.93189,5.15847 23.37494,5.15847 32.2118,0 8.83687,-5.15848 8.93188,-13.49984 0,-18.60343 l -52.26102,-30.18255 52.26102,-30.18255 c 8.93188,-5.15848 8.93188,-13.49983 0,-18.60342 -8.93189,-5.10361 -23.37494,-5.15848 -32.2118,0 l -52.26102,30.18254 z m 180.53808,0 c -8.93189,5.15846 -8.93189,13.49982 0,18.60342 l 52.26103,30.18255 -52.26103,30.18255 c -8.93189,5.15847 -8.93189,13.49983 0,18.60343 8.93188,5.1036 23.37494,5.15847 32.2118,0 l 52.26102,-30.18255 52.26103,30.18255 c 8.93188,5.15847 23.37493,5.15847 32.2118,0 8.83686,-5.15848 8.93188,-13.49984 0,-18.60343 l -52.26102,-30.18255 52.26102,-30.18255 c 8.93188,-5.15848 8.93188,-13.49983 0,-18.60342 -8.93189,-5.10361 -23.37494,-5.15848 -32.2118,0 l -52.26103,30.18254 -52.26102,-30.18254 c -8.93189,-5.15848 -23.37494,-5.15848 -32.2118,0 z"
     id="path1-2"
     style="stroke-width:0.722111;fill:#0000ff" />
</svg>
