<?xml version="1.0" encoding="iso-8859-1"?>
<!-- Uploaded to: SVG Repo, www.svgrepo.com, Generator: SVG Repo Mixer Tools -->
<svg version="1.1" id="Layer_1" xmlns="http://www.w3.org/2000/svg" xmlns:xlink="http://www.w3.org/1999/xlink" 
	 viewBox="0 0 511.999 511.999" xml:space="preserve">
<polygon style="fill:#52A2E7;" points="297.156,395.578 466.898,395.578 466.898,504.396 45.861,504.396 45.861,395.578 
	214.329,395.578 "/>
<g>
	<path style="fill:#FFBCAB;" d="M33.374,57.142c0-6.867-5.619-12.486-12.486-12.486l0,0c-6.867,0-12.486,5.619-12.486,12.486v55.82
		v87.463h73.141l0.345-30.157l39.891-38.015c4.856-4.856,4.856-12.802,0-17.657l0,0c-4.856-4.856-12.802-4.856-17.657,0
		l-20.114,20.114v-21.746V57.142c0-6.867-5.619-12.486-12.486-12.486l0,0c-6.867,0-12.486,5.619-12.486,12.486h-0.688
		c0-6.867-5.619-12.486-12.486-12.486l0,0C38.993,44.656,33.374,50.275,33.374,57.142z"/>
	<rect x="8.402" y="241.471" style="fill:#FFBCAB;" width="73.394" height="262.926"/>
	<rect x="430.201" y="241.471" style="fill:#FFBCAB;" width="73.394" height="262.926"/>
	<rect x="221.203" y="343.061" style="fill:#FFBCAB;" width="68.537" height="66.682"/>
	<path style="fill:#FFBCAB;" d="M323.711,395.578c0,37.956-30.77,68.726-68.726,68.726s-68.726-30.77-68.726-68.726H323.711z"/>
</g>
<path style="fill:#FF9478;" d="M33.757,107.743V57.142c0-6.867,5.619-12.486,12.486-12.486l0,0c6.867,0,12.486,5.619,12.486,12.486
	v50.601c0,2.882-2.337,5.219-5.219,5.219H38.977C36.094,112.961,33.757,110.625,33.757,107.743z"/>
<path style="fill:#FFBCAB;" d="M478.728,57.142c0-6.867,5.619-12.486,12.486-12.486l0,0c6.867,0,12.486,5.619,12.486,12.486v55.82
	v87.463h-73.142l-0.345-30.157l-39.891-38.015c-4.855-4.856-4.855-12.802,0-17.657l0,0c4.856-4.856,12.802-4.856,17.658,0
	l20.114,20.114v-21.746V57.142c0-6.867,5.619-12.486,12.486-12.486l0,0c6.867,0,12.486,5.619,12.486,12.486h0.688
	c0-6.867,5.619-12.486,12.486-12.486l0,0C473.109,44.656,478.728,50.275,478.728,57.142z"/>
<path style="fill:#FF9478;" d="M479.323,107.743V57.142c0-6.867-5.619-12.486-12.486-12.486l0,0
	c-6.867,0-12.486,5.619-12.486,12.486v50.601c0,2.882,2.337,5.219,5.219,5.219h14.534
	C476.986,112.961,479.323,110.625,479.323,107.743z"/>
<g>
	<rect x="8.402" y="194.357" style="fill:#52A2E7;" width="73.394" height="49.74"/>
	<rect x="430.201" y="194.357" style="fill:#52A2E7;" width="73.394" height="49.74"/>
</g>
<rect x="221.203" y="330.519" style="fill:#FF9478;" width="68.537" height="42.416"/>
<path style="fill:#FFBCAB;" d="M350.222,137.494v143.567c0,42.38-34.674,77.054-77.054,77.054h-35.234
	c-42.38,0-77.054-34.674-77.054-77.054V137.494H350.222z"/>
<rect x="160.878" y="114.535" style="fill:#FF3F62;" width="189.339" height="63.387"/>
<g>
	<circle style="fill:#781900;" cx="227.002" cy="228.565" r="8.584"/>
	<circle style="fill:#781900;" cx="284.103" cy="228.565" r="8.584"/>
	<path style="fill:#781900;" d="M336.74,124.678c17.964,0,32.527-14.563,32.527-32.527s-14.563-32.527-32.527-32.527l0,0
		c0-8.714,1.253-20.311-12.799-34.364s-36.837-14.052-50.889,0l-12.633-17.66l-20.63,17.66c-14.052-14.052-36.837-14.052-50.889,0
		c-14.052,14.052-11.755,26.958-11.755,34.364l0,0c-17.964,0-32.527,14.563-32.527,32.527s14.563,32.527,32.527,32.527H336.74z"/>
</g>
<path style="fill:#F8F6F8;" d="M336.74,220.271c0,6.963-5.645,12.608-12.608,12.608c-6.963,0-12.608-5.645-12.608-12.608
	s12.608-19.846,12.608-19.846S336.74,213.308,336.74,220.271z"/>
<g>
	<path style="fill:#FF9478;" d="M146.521,253.711c-13.888,0-25.147-11.259-25.147-25.147s11.259-25.147,25.147-25.147h14.358v50.294
		L146.521,253.711L146.521,253.711z"/>
	<path style="fill:#FF9478;" d="M364.581,203.417c13.888,0,25.147,11.259,25.147,25.147s-11.259,25.147-25.147,25.147h-14.358
		v-50.294L364.581,203.417L364.581,203.417z"/>
</g>
<circle style="fill:#F8F6F8;" cx="257.012" cy="278.609" r="20.701"/>
<g>
	<rect x="81.796" y="395.579" style="fill:#315591;" width="32.474" height="107.652"/>
	<rect x="398.092" y="395.995" style="fill:#315591;" width="32.474" height="107.652"/>
</g>
<circle cx="227.002" cy="228.565" r="8.584"/>
<circle cx="284.103" cy="228.565" r="8.584"/>
<path d="M287.224,278.606c0-16.659-13.552-30.212-30.211-30.212c-16.659,0-30.211,13.553-30.211,30.212
	c0,16.659,13.552,30.211,30.211,30.211C273.671,308.817,287.224,295.265,287.224,278.606z M242.009,278.606
	c0-8.273,6.731-15.004,15.003-15.004s15.003,6.731,15.003,15.004c0,8.272-6.731,15.003-15.003,15.003
	C248.739,293.609,242.009,286.878,242.009,278.606z"/>
<path d="M491.107,37.051c-4.719,0-9.054,1.647-12.487,4.38c-3.432-2.733-7.767-4.38-12.486-4.38c-4.875,0-9.347,1.748-12.83,4.647
	c-3.483-2.899-7.956-4.647-12.83-4.647c-11.079,0-20.09,9.012-20.09,20.09v59.209l-7.133-7.134c-7.834-7.832-20.578-7.832-28.412,0
	c-7.833,7.834-7.833,20.579,0,28.413c0.044,0.043,0.087,0.085,0.132,0.128l37.569,35.803l0.287,25.044
	c-0.144,0.584-0.229,1.192-0.229,1.821v41.045v146.504H297.345v-25.791c34.935-10.431,60.481-42.841,60.481-81.121v-19.748h6.754
	c18.06,0,32.752-14.692,32.752-32.751c0-18.06-14.692-32.752-32.752-32.752h-6.754v-17.887V137.49v-11.214
	c11.419-7.083,19.043-19.728,19.043-34.124c0-20.335-15.208-37.175-34.847-39.772c0.446-11.713-3.784-23.573-12.707-32.495
	c-14.86-14.858-37.864-16.727-54.771-5.603l-7.944-11.104c-1.24-1.734-3.15-2.867-5.266-3.125c-2.121-0.251-4.243,0.385-5.862,1.772
	L239.75,15.284c-17.023-12.222-40.938-10.69-56.228,4.601c-8.234,8.233-12.769,19.179-12.769,30.822
	c0,0.609,0.019,1.216,0.045,1.821c-19.123,3.052-33.785,19.656-33.785,39.625c0,13.201,6.409,24.93,16.277,32.249
	c-0.003,0.093-0.014,0.185-0.014,0.278v12.815v40.432v17.887h-6.754c-18.059,0-32.751,14.692-32.751,32.752
	c0,18.059,14.692,32.751,32.751,32.751h6.754v19.748c0,38.222,25.468,70.594,60.321,81.076v25.836h-124.2V241.472v-41.045
	c0-0.628-0.084-1.234-0.228-1.818l0.286-25.047l37.569-35.803c0.045-0.043,0.088-0.085,0.132-0.128
	c7.833-7.834,7.833-20.579,0-28.413c-7.834-7.832-20.578-7.832-28.412,0l-7.133,7.134V57.142c0-11.079-9.013-20.09-20.09-20.09
	c-4.875,0-9.348,1.748-12.83,4.647c-3.483-2.899-7.956-4.647-12.83-4.647c-4.719,0-9.054,1.647-12.486,4.38
	c-3.432-2.733-7.767-4.38-12.486-4.38c-11.079,0-20.09,9.012-20.09,20.09v143.284v41.045v262.925c0,4.2,3.404,7.604,7.604,7.604
	h73.392h348.409h73.392c4.2,0,7.604-3.404,7.604-7.604V241.47v-41.045V57.142C511.198,46.063,502.184,37.051,491.107,37.051z
	 M437.806,208.029h58.184v25.837h-58.184V208.029z M395.543,126.824c-0.881-0.907-1.366-2.112-1.366-3.401
	c0-1.314,0.503-2.541,1.415-3.452c1.872-1.872,5.034-1.872,6.903,0l20.114,20.114c2.176,2.174,5.444,2.825,8.287,1.648
	c2.842-1.176,4.694-3.95,4.694-7.025V57.142c0-2.646,2.236-4.882,4.882-4.882c2.646,0,4.882,2.236,4.882,4.882v55.82
	c0,4.2,3.404,7.604,7.604,7.604c0.117,0,0.229-0.012,0.344-0.017c0.115,0.005,0.228,0.017,0.344,0.017
	c4.2,0,7.604-3.404,7.604-7.604v-55.82c0-2.646,2.236-4.882,4.882-4.882s4.882,2.236,4.882,4.882v55.82
	c0,4.2,3.404,7.604,7.604,7.604c4.2,0,7.604-3.404,7.604-7.604v-55.82c0-2.646,2.236-4.882,4.882-4.882
	c2.646,0,4.882,2.236,4.882,4.882v135.68h-58.02l-0.26-22.641c-0.023-2.049-0.874-4.003-2.358-5.418L395.543,126.824z
	 M364.58,211.02c9.673,0,17.544,7.871,17.544,17.544s-7.871,17.543-17.544,17.543h-6.754v-35.086h6.754V211.02z M174.064,67.426
	c2.163,5.209,5.349,9.994,9.458,14.102c2.969,2.969,7.783,2.97,10.753-0.001c2.97-2.97,2.97-7.784-0.001-10.753
	c-5.36-5.36-8.313-12.487-8.313-20.067s2.952-14.707,8.314-20.067c11.062-11.063,29.07-11.065,40.134,0
	c2.808,2.806,7.305,2.983,10.322,0.399l14.329-12.266l7.806,10.913c1.299,1.818,3.333,2.972,5.559,3.154
	c2.224,0.175,4.421-0.622,6.002-2.201c11.065-11.065,29.07-11.065,40.135,0c11.065,11.065,11.065,29.07,0,40.135
	c-2.97,2.971-2.97,7.784,0,10.754c1.485,1.484,3.432,2.226,5.378,2.226s3.892-0.742,5.378-2.226
	c4.193-4.193,7.348-9.038,9.472-14.208c12.787,1.046,22.874,11.78,22.874,24.832c0,13.743-11.18,24.923-24.923,24.923H177.143
	c-13.742,0-24.922-11.18-24.922-24.923C152.221,79.453,161.771,68.949,174.064,67.426z M342.618,132.283v5.211v32.828H168.484
	v-32.828v-5.211H342.618z M146.521,246.107c-9.673,0-17.543-7.87-17.543-17.543s7.87-17.544,17.543-17.544h6.754v35.086h-6.754
	V246.107z M168.484,281.062V253.71v-50.294v-17.887h174.134v17.887v9.639c-3.131-7.261-9.734-14.557-13.053-17.948
	c-1.431-1.461-3.389-2.285-5.434-2.285c-2.045,0-4.004,0.824-5.434,2.285c-4.443,4.541-14.777,16.081-14.777,25.165
	c0,11.144,9.067,20.212,20.212,20.212c8.249,0,15.349-4.974,18.487-12.075v25.302v27.352c0,38.295-31.155,69.45-69.45,69.45h-35.235
	C199.639,350.512,168.484,319.358,168.484,281.062z M329.134,220.351c-0.043,2.723-2.27,4.924-5.003,4.924s-4.961-2.202-5.003-4.924
	c0.219-1.513,2.251-4.807,5.003-8.351C326.885,215.545,328.916,218.838,329.134,220.351z M273.168,365.72h8.969v29.858
	c0,4.2,3.404,7.604,7.604,7.604h25.876c-3.757,30.125-29.506,53.518-60.632,53.518s-56.875-23.393-60.632-53.518h26.849
	c4.2,0,7.604-3.404,7.604-7.604V365.72h9.129H273.168z M16.006,208.029H74.19v25.837H16.006V208.029z M16.006,57.142
	c0-2.646,2.236-4.882,4.882-4.882s4.882,2.236,4.882,4.882v55.82c0,4.2,3.404,7.604,7.604,7.604s7.604-3.404,7.604-7.604v-55.82
	c0-2.646,2.236-4.882,4.882-4.882c2.646,0,4.882,2.236,4.882,4.882v55.82c0,4.2,3.404,7.604,7.604,7.604
	c0.117,0,0.229-0.012,0.344-0.017c0.115,0.005,0.228,0.017,0.344,0.017c4.2,0,7.604-3.404,7.604-7.604v-55.82
	c0-2.646,2.236-4.882,4.882-4.882c2.646,0,4.882,2.236,4.882,4.882v77.567c0,3.075,1.852,5.849,4.694,7.025
	c2.842,1.178,6.112,0.527,8.287-1.648l20.114-20.114c0.911-0.912,2.137-1.415,3.451-1.415s2.54,0.502,3.451,1.415
	c1.855,1.854,1.872,4.977,0.05,6.855l-39.805,37.936c-1.484,1.415-2.335,3.368-2.358,5.418l-0.259,22.641H16.006V57.142z
	 M16.006,249.074H74.19v146.504v101.213H16.006V249.074z M89.397,403.182h89.637c3.828,38.531,36.427,68.726,75.95,68.726
	s72.121-30.195,75.95-68.726h91.664v93.609h-333.2V403.182z M495.99,496.791h-58.184V395.578V249.074h58.184V496.791z"/>
</svg>