<?xml version="1.0" encoding="UTF-8" standalone="no"?>
<!-- Uploaded to: SVG Repo, www.svgrepo.com, Generator: SVG Repo Mixer Tools -->

<svg
   height="800px"
   width="800px"
   version="1.1"
   id="Capa_1"
   viewBox="0 0 28.054 28.054"
   xml:space="preserve"
   xmlns="http://www.w3.org/2000/svg"
   xmlns:svg="http://www.w3.org/2000/svg"><defs
   id="defs1">
	
</defs>
<path
   style="fill:#aca793;stroke-width:0.899374"
   d="m 26.379976,3.1297327 v 9.9558483 c 0,0.283462 -0.234853,0.513609 -0.526143,0.513609 H 11.982047 c -0.29038,0 -0.526143,-0.230147 -0.526143,-0.513609 v -0.786409 l 1.052286,-0.688664 v 0.961463 H 25.326779 V 3.6424535 H 12.50728 v 3.7578794 c -0.04642,0.034655 -0.09649,0.064868 -0.140183,0.103966 l -0.147466,0.099523 C 12.042126,7.150637 11.771772,6.7934208 11.455904,6.5001835 V 3.1297327 c 0,-0.2834627 0.236674,-0.5136095 0.526143,-0.5136095 h 13.871786 c 0.29129,0 0.526143,0.2292582 0.526143,0.5136095 z M 13.95918,9.8777431 14.589095,9.4654341 h -9.11e-4 c 9.11e-4,-0.0036 0.0027,-0.0036 0.0046,-0.0062 0.320419,-0.310121 0.369574,-0.771303 0.171133,-1.1347396 L 19.860585,4.948712 19.629373,4.6154879 14.489922,8.0188169 C 14.328802,7.9050764 14.148566,7.8331 13.959228,7.8268798 c -0.269444,-0.00889 -0.543439,0.079974 -0.749162,0.2816855 0,0 -0.0046,0.00533 -0.0064,0.00533 l -0.125619,0.085305 -1.141494,0.7606398 v -0.32345 C 11.724438,6.1758454 8.8033426,6.2122779 8.8033426,6.2122779 H 7.5380508 L 6.4748416,7.9201626 5.4061707,6.2131665 H 4.192765 C 0.89663437,6.2735911 1.0131505,8.6363721 1.0131505,8.6363721 v 5.5146369 h 0.00182 c 9.102e-4,0.01422 -0.00182,0.0311 -0.00182,0.04265 0,0.525161 0.4342044,0.947245 0.9703604,0.947245 0.5343354,0 0.9685399,-0.423861 0.9685399,-0.947245 0,-0.01155 0,-0.02843 -0.00182,-0.04265 h 0.00182 V 9.0504591 H 3.5582985 L 3.5510185,25.11897 c 0,0.706435 0.588042,1.280469 1.3089853,1.280469 0.7236741,0 1.3098956,-0.574034 1.3098956,-1.280469 V 14.749035 h 0.5834907 v 10.381487 l 0.010923,0.01155 c 0.0091,0.693995 0.5880421,1.257366 1.3035237,1.257366 0.7182123,0 1.3026133,-0.571368 1.3026133,-1.272472 L 9.3668101,9.0238001 h 0.6308253 v 1.6776719 c 0,0.0018 0,0.0062 0,0.008 0,0.521607 0.4342046,0.946357 0.9676306,0.946357 0.157478,0 0.298572,-0.04354 0.432383,-0.111075 l 0.0046,0.0062 1.674918,-1.096529 z M 6.4557257,5.8017458 c 1.2252394,0 2.2183569,-0.96946 2.2183569,-2.1655125 0,-1.1960524 -0.9931175,-2.1655124 -2.2183569,-2.1655124 -1.2252394,0 -2.2183569,0.9703486 -2.2183569,2.1655124 0,1.1951639 0.9931175,2.1655125 2.2183569,2.1655125 z"
   id="path1" />
<path
   style="fill:#008080;stroke-width:0.899374"
   d="m 26.641116,2.9110089 v 9.9558481 c 0,0.283462 -0.234853,0.513609 -0.526143,0.513609 H 12.243187 c -0.29038,0 -0.526143,-0.230147 -0.526143,-0.513609 v -0.786409 l 1.052286,-0.688664 v 0.961463 H 25.587919 V 3.4237297 H 12.76842 v 3.7578794 c -0.04642,0.034655 -0.09649,0.064868 -0.140183,0.103966 l -0.147466,0.099523 C 12.303266,6.9319132 12.032912,6.574697 11.717044,6.2814597 V 2.9110089 c 0,-0.2834627 0.236674,-0.5136095 0.526143,-0.5136095 h 13.871786 c 0.29129,0 0.526143,0.2292582 0.526143,0.5136095 z M 14.22032,9.6590195 14.850235,9.2467105 h -9.11e-4 c 9.11e-4,-0.0036 0.0027,-0.0036 0.0046,-0.0062 0.320419,-0.3101209 0.369574,-0.7713029 0.171133,-1.1347399 L 20.121725,4.7299882 19.890513,4.3967641 14.751062,7.8000936 c -0.16112,-0.113741 -0.341356,-0.185717 -0.530694,-0.191938 -0.269444,-0.0089 -0.543439,0.07997 -0.749162,0.281686 0,0 -0.0046,0.0053 -0.0064,0.0053 l -0.125619,0.0853 -1.141494,0.76064 v -0.32345 C 11.985578,5.9571216 9.0644821,5.9935541 9.0644821,5.9935541 H 7.7991906 L 6.7359816,7.7014386 5.6673106,5.9944427 h -1.213406 c -3.296131,0.060425 -3.179615,2.4232059 -3.179615,2.4232059 v 5.5146364 h 0.0018 c 9.11e-4,0.01422 -0.0018,0.0311 -0.0018,0.04265 0,0.525161 0.434205,0.947245 0.970361,0.947245 0.534335,0 0.96854,-0.423861 0.96854,-0.947245 0,-0.01155 0,-0.02843 -0.0018,-0.04265 h 0.0018 V 8.8317356 h 0.606247 l -0.0073,16.0685104 c 0,0.706435 0.588041,1.280469 1.308985,1.280469 0.723674,0 1.309895,-0.574034 1.309895,-1.280469 V 14.530311 h 0.583491 v 10.381487 l 0.01092,0.01155 c 0.0091,0.693995 0.588042,1.257366 1.303524,1.257366 0.7182115,0 1.3026125,-0.571368 1.3026125,-1.272472 l -0.0036,-16.1031654 h 0.6308259 v 1.6776714 c 0,0.0018 0,0.0062 0,0.008 0,0.521607 0.434205,0.946357 0.967631,0.946357 0.157478,0 0.298572,-0.04354 0.432383,-0.111075 l 0.0046,0.0062 1.674918,-1.096529 z M 6.7168656,5.583022 c 1.225239,0 2.2183565,-0.96946 2.2183565,-2.1655125 0,-1.1960524 -0.9931175,-2.1655124 -2.2183565,-2.1655124 -1.22524,0 -2.218357,0.9703486 -2.218357,2.1655124 0,1.1951639 0.993117,2.1655125 2.218357,2.1655125 z"
   id="path1-9" /></svg>
