<?xml version="1.0" encoding="UTF-8" standalone="no"?>
<!-- Uploaded to: SVG Repo, www.svgrepo.com, Generator: SVG Repo Mixer Tools -->

<svg
   fill="#000000"
   height="800px"
   width="800px"
   version="1.1"
   id="Layer_1"
   viewBox="0 0 256 256"
   xml:space="preserve"
   sodipodi:docname="image.svg"
   inkscape:version="1.3.1 (9b9bdc1480, 2023-11-25, custom)"
   xmlns:inkscape="http://www.inkscape.org/namespaces/inkscape"
   xmlns:sodipodi="http://sodipodi.sourceforge.net/DTD/sodipodi-0.dtd"
   xmlns="http://www.w3.org/2000/svg"
   xmlns:svg="http://www.w3.org/2000/svg"><defs
   id="defs1" /><sodipodi:namedview
   id="namedview1"
   pagecolor="#ffffff"
   bordercolor="#000000"
   borderopacity="0.25"
   inkscape:showpageshadow="2"
   inkscape:pageopacity="0.0"
   inkscape:pagecheckerboard="0"
   inkscape:deskcolor="#d1d1d1"
   inkscape:zoom="1.3525"
   inkscape:cx="400"
   inkscape:cy="400"
   inkscape:window-width="2560"
   inkscape:window-height="1324"
   inkscape:window-x="0"
   inkscape:window-y="0"
   inkscape:window-maximized="1"
   inkscape:current-layer="Layer_1" />
<g
   id="g1"
   style="fill:#0000ff">
	<circle
   cx="128"
   cy="22.3"
   r="21.1"
   id="circle1"
   style="fill:#d4aa00" />
	<path
   d="M232.4,48.7H128H23.6c-5.1,0-9.3,4.1-9.3,9.3s4.1,9.3,9.3,9.3h75.3v7.9h0v71.4v95.2c0,7.3,5.9,13.2,13.2,13.2   s13.2-5.9,13.2-13.2v-92.5c0-1.5,1.2-2.6,2.6-2.6s2.6,1.2,2.6,2.6v92.5c0,7.3,5.9,13.2,13.2,13.2s13.2-5.9,13.2-13.2v-95.2h0V69.8   h0v-2.6h75.3c5.1,0,9.3-4.1,9.3-9.3S237.5,48.7,232.4,48.7z"
   id="path1"
   style="fill:#aa8800" />
</g>
</svg>
