<?xml version="1.0" encoding="iso-8859-1"?>
<!-- Uploaded to: SVG Repo, www.svgrepo.com, Generator: SVG Repo Mixer Tools -->
<svg height="800px" width="800px" version="1.1" id="Layer_1" xmlns="http://www.w3.org/2000/svg" xmlns:xlink="http://www.w3.org/1999/xlink" 
	 viewBox="0 0 496.159 496.159" xml:space="preserve">
<path style="fill:#D61E1E;" d="M248.083,0.003C111.071,0.003,0,111.063,0,248.085c0,137.001,111.07,248.07,248.083,248.07
	c137.006,0,248.076-111.069,248.076-248.07C496.159,111.062,385.089,0.003,248.083,0.003z"/>
<polygon style="fill:#FFFFFF;" points="320.331,194.947 242.748,202.751 163.006,195.129 95.218,227.426 240.78,291.67 
	388.27,227.426 "/>
<path style="fill:#CE8C78;" d="M313.508,239.165c-28.15,4.862-52.041,20.064-70.76,20.064c-20.354,0-43.78-14.524-78.178-21.587
	c-37.943-7.792-69.353-10.217-69.353-10.217s25.118,61.939,88.67,86.098c15.286,5.81,42.396-0.683,58.863-0.683
	c18.132,0,41.875,6.211,56.634,0.847c63.954-23.241,88.886-86.262,88.886-86.262S352.737,232.391,313.508,239.165z"/>
<path style="fill:#DB9A83;" d="M313.794,149.399c-35.529,0-71.043,14.014-71.043,14.014s-35.526-14.014-71.048-14.014
	c-35.523,0-76.485,78.027-76.485,78.027s33.99-14.781,73.066-19.475c25.307-3.04,52.746,3.268,74.467,3.268
	c21.436,0,48.135-6.373,72.792-3.388c38.91,4.711,72.728,19.595,72.728,19.595S349.317,149.399,313.794,149.399z"/>
<path style="fill:#E8B1A0;" d="M123.15,199.355l89.608-27.781C153.446,130.856,123.15,199.355,123.15,199.355z"/>
<polygon style="fill:#E0DFDC;" points="358.374,246.8 320.257,243.516 326.022,279.151 404.354,357.482 436.705,325.131 "/>
<polygon style="fill:#EFEEE4;" points="339.309,250.72 322.309,257.386 326.022,279.151 404.354,357.482 421.2,340.636 
	436.705,325.131 "/>
<path style="fill:#9E9D86;" d="M373.352,261.777c0,0-12.955-1.433-22.793,7.859c-9.84,9.293-9.558,24.492-9.558,24.492l2.495,2.495
	c0,0,1.394-16.804,9.832-24.765s22.52-7.586,22.52-7.586L373.352,261.777z"/>
<path style="fill:#9FA09F;" d="M431.148,319.574c0,0-11.677-4.176-24.25,6.757c-12.572,10.933-8.102,25.595-8.102,25.595
	l10.933,10.933l5.74,1.044l5.642-0.4l3.324-5.767l5.296-9.313l6.685-2.413l5.49-7.329l4.966-3.384L431.148,319.574z"/>
<polygon style="fill:#888988;" points="446.872,335.297 415.917,334.257 410.179,339.996 409.729,362.858 415.469,363.902 
	424.601,347.987 429.732,348.422 429.384,340.768 441.907,338.681 "/>
<path style="fill:#CE8320;" d="M319.983,207.984c-18.585-2.733-47.283,0.547-62.316,2.46l68.354,68.707
	c0,0-2.211-14.043,7.628-23.883c9.839-9.839,24.724-8.47,24.724-8.47L319.983,207.984z"/>
<path style="fill:#E79E2F;" d="M339.476,250.803l-49.01-43.639c-16.217,0.911-27.036,2.546-32.798,3.28l68.354,68.707
	c0,0-2.211-14.043,7.628-23.883C334.109,254.808,338.392,251.47,339.476,250.803z"/>
</svg>