<?xml version="1.0" encoding="UTF-8" standalone="no"?>
<!-- Uploaded to: SVG Repo, www.svgrepo.com, Generator: SVG Repo Mixer Tools -->

<svg
   fill="#000000"
   height="800px"
   width="800px"
   version="1.1"
   id="Capa_1"
   viewBox="0 0 297.85 297.85"
   xml:space="preserve"
   xmlns="http://www.w3.org/2000/svg"
   xmlns:svg="http://www.w3.org/2000/svg"><defs
   id="defs2">
	
	
</defs>
<path
   d="m 65.895,258.206 52.825,-14.154 c -15.725,-6.68 -24.787,-23.788 -21.085,-40.771 l -17.299,-12.834 14.666,-33.637 12.545,9.308 31.211,-116.493 c 0.301,-1.12 0.657,-2.214 1.058,-3.284 -3.772,-4.604 -9.487,-7.376 -15.528,-7.376 -1.702,0 -3.429,0.22 -5.146,0.68 L 14.821,67.596 C 4.196,70.443 -2.168,81.466 0.68,92.091 L 41.4,244.065 c 2.388,8.908 10.522,14.821 19.35,14.821 1.701,0 3.428,-0.22 5.145,-0.68 z M 75.59,84.364 104.481,105.801 89.817,139.439 60.926,118.001 Z"
   id="path1"
   style="fill:#0000ff" /><path
   d="M 283.028,67.596 178.708,39.644 c -1.717,-0.46 -3.443,-0.68 -5.145,-0.68 -8.827,0 -16.962,5.913 -19.35,14.821 l -40.72,151.974 c -2.848,10.625 3.517,21.647 14.142,24.495 l 104.32,27.952 c 1.717,0.46 3.443,0.68 5.145,0.68 8.827,0 16.962,-5.913 19.35,-14.821 L 297.17,92.091 c 2.848,-10.625 -3.517,-21.648 -14.142,-24.495 z m -95.242,145.325 c -26.355,-28.895 -12.649,-44.61 -3.493,-45.032 7.716,-0.353 11.137,5.019 12.766,10.645 3.896,-4.74 9.893,-6.969 16.384,-2.781 7.702,4.965 11.651,25.44 -25.657,37.168 z m 23,-86 c -26.355,-28.895 -12.649,-44.61 -3.493,-45.032 7.716,-0.353 11.137,5.019 12.766,10.645 3.896,-4.74 9.893,-6.969 16.384,-2.781 7.702,4.965 11.651,25.44 -25.657,37.168 z"
   id="path2"
   style="fill:#c83737" />
</svg>
