<?xml version="1.0" encoding="UTF-8" standalone="no"?>
<svg
   viewBox="0 0 640 640"
   version="1.1"
   id="svg1"
   xmlns="http://www.w3.org/2000/svg"
   xmlns:svg="http://www.w3.org/2000/svg">
  <defs
     id="defs1" />
  <!--!Font Awesome Free 7.1.0 by @fontawesome - https://fontawesome.com License - https://fontawesome.com/license/free Copyright 2025 Fonticons, Inc.-->
  <path
     d="m 511.92618,58.588439 c 10.25335,-10.05847 26.83323,-10.05847 36.97751,0 l 34.90502,34.241598 c 10.25336,10.058473 10.25336,26.323233 0,36.274703 l -94.89804,93.09435 42.54051,41.73195 c 7.52639,7.38334 9.70796,18.40486 5.67206,28.03531 -4.03589,9.63045 -13.5257,15.94374 -24.10628,15.94374 H 355.94434 c -14.5074,0 -26.17877,-11.44953 -26.17877,-25.6812 v -154.0872 c 0,-10.37949 6.32654,-19.79593 16.14358,-23.75511 9.81703,-3.95919 21.05209,-1.81909 28.57849,5.56426 l 42.5405,41.73195 z M 111.60916,342.15169 h 157.07262 c 14.5074,0 26.17877,11.44954 26.17877,25.6812 V 521.9201 c 0,10.37948 -6.32654,19.79592 -16.14358,23.75511 -9.81704,3.95918 -21.05209,1.81908 -28.57849,-5.56426 l -42.5405,-41.73195 -94.89804,93.09435 c -10.25335,10.05847 -26.833242,10.05847 -36.977511,0 l -34.905026,-34.2416 c -10.253352,-10.05847 -10.253352,-26.32323 0,-36.2747 L 135.71544,427.8627 93.174938,386.13075 c -7.52639,-7.38335 -9.70796,-18.40486 -5.67206,-28.03531 4.03589,-9.63045 13.525692,-15.94375 24.106282,-15.94375 z"
     id="path1-5"
     style="stroke-width:1.08037;fill:#b3b3b3" />
  <path
     d="m 251.92357,230.5223 c 0,-7.77898 5.49533,-14.0637 12.29724,-14.0637 h 122.9724 c 6.80191,0 12.29724,6.28472 12.29724,14.0637 0,7.77898 -5.49533,14.06369 -12.29724,14.06369 v 4.8344 c 0,18.63439 -6.49448,36.52165 -18.02314,49.70636 l -26.09321,29.84141 26.09321,29.8414 c 11.52866,13.18471 18.02314,31.07197 18.02314,49.70637 v 4.83439 c 6.80191,0 12.29724,6.28471 12.29724,14.0637 0,7.77898 -5.49533,14.06369 -12.29724,14.06369 h -122.9724 c -6.80191,0 -12.29724,-6.28471 -12.29724,-14.06369 0,-7.77899 5.49533,-14.0637 12.29724,-14.0637 v -4.83439 c 0,-18.6344 6.49448,-36.52166 18.02314,-49.70637 l 26.09321,-29.8414 -26.09321,-29.84141 c -11.52866,-13.18471 -18.02314,-31.07197 -18.02314,-49.70636 v -4.8344 c -6.80191,0 -12.29724,-6.28471 -12.29724,-14.06369 z m 36.89172,14.06369 v 4.8344 c 0,11.207 3.88132,21.93057 10.79851,29.8414 l 26.09321,29.8414 26.09321,-29.8414 c 6.91719,-7.91083 10.79851,-18.6344 10.79851,-29.8414 v -4.8344 z m 0,168.76433 h 73.78344 v -4.83439 c 0,-11.20701 -3.88132,-21.93058 -10.79851,-29.8414 l -26.09321,-29.84141 -26.09321,29.84141 c -6.91719,7.91082 -10.79851,18.63439 -10.79851,29.8414 z"
     id="path1"
     style="stroke-width:0.410964;fill:#ff00ff" />
</svg>
