<?xml version="1.0" encoding="iso-8859-1"?>
<!-- Uploaded to: SVG Repo, www.svgrepo.com, Generator: SVG Repo Mixer Tools -->
<svg height="800px" width="800px" version="1.1" id="Layer_1" xmlns="http://www.w3.org/2000/svg" xmlns:xlink="http://www.w3.org/1999/xlink" 
	 viewBox="0 0 512 512" xml:space="preserve">
<path style="fill:#7BD36A;" d="M362.564,165.082c4.19-11.812,6.491-24.516,6.491-37.764c0-62.44-50.617-113.056-113.055-113.056
	S142.945,64.879,142.945,127.317c0,13.178,2.276,25.818,6.425,37.577c0.338,0.96-1.01,3.039-2.035,3.149
	c-56.708,6.076-100.88,54.05-100.88,112.37c0,62.438,50.617,113.055,113.055,113.055c40.844,0,76.623-21.665,96.49-54.124
	c19.867,32.46,55.645,54.124,96.49,54.124c62.438,0,113.055-50.617,113.055-113.055c0-58.766-44.848-107.027-102.179-112.503
	C362.771,167.855,362.246,165.978,362.564,165.082z"/>
<path style="fill:#FFF476;" d="M256.357,339.907h-0.713c-9.022,14.547-21.253,26.891-35.703,36.053l-11.004,121.779h94.128
	L292.06,375.959C277.61,366.797,265.379,354.455,256.357,339.907z"/>
<path d="M257.298,227.476c-0.927,0-1.868-0.086-2.781-0.271c-0.913-0.185-1.811-0.471-2.681-0.827
	c-0.856-0.357-1.683-0.799-2.453-1.312c-0.784-0.513-1.512-1.112-2.168-1.768c-2.653-2.653-4.179-6.332-4.179-10.083
	c0-0.927,0.1-1.868,0.285-2.781c0.171-0.913,0.456-1.811,0.813-2.667c0.357-0.87,0.784-1.697,1.312-2.467
	c0.513-0.784,1.112-1.512,1.768-2.168s1.383-1.255,2.168-1.768c0.77-0.513,1.597-0.956,2.453-1.312
	c0.87-0.357,1.768-0.642,2.681-0.813c1.84-0.371,3.722-0.371,5.562,0c0.913,0.171,1.811,0.456,2.667,0.813
	c0.87,0.357,1.697,0.799,2.467,1.312c0.784,0.513,1.512,1.112,2.168,1.768c0.656,0.656,1.255,1.383,1.768,2.168
	c0.513,0.77,0.956,1.597,1.312,2.467c0.357,0.856,0.642,1.754,0.813,2.667c0.185,0.913,0.285,1.854,0.285,2.781
	c0,3.751-1.526,7.43-4.179,10.083c-0.656,0.656-1.383,1.255-2.168,1.768c-0.77,0.513-1.597,0.956-2.467,1.312
	c-0.856,0.357-1.754,0.642-2.667,0.827C259.166,227.391,258.225,227.476,257.298,227.476z"/>
<path d="M358.429,260.535c-0.927,0-1.868-0.086-2.781-0.271c-0.913-0.185-1.811-0.471-2.667-0.827
	c-0.87-0.357-1.697-0.784-2.467-1.298c-0.784-0.528-1.512-1.127-2.168-1.783c-0.656-0.656-1.255-1.383-1.768-2.168
	c-0.513-0.77-0.956-1.597-1.312-2.453c-0.357-0.87-0.642-1.768-0.813-2.681c-0.185-0.913-0.285-1.854-0.285-2.781
	c0-0.927,0.1-1.868,0.285-2.781c0.171-0.913,0.456-1.811,0.813-2.667c0.357-0.87,0.799-1.697,1.312-2.467
	c0.513-0.784,1.112-1.512,1.768-2.168c0.656-0.656,1.383-1.255,2.168-1.768c0.77-0.513,1.597-0.956,2.467-1.312
	c0.856-0.357,1.754-0.642,2.667-0.813c1.84-0.371,3.722-0.371,5.562,0c0.913,0.171,1.811,0.456,2.681,0.813
	c0.856,0.357,1.683,0.799,2.453,1.312c0.784,0.513,1.512,1.112,2.168,1.768c0.656,0.656,1.255,1.383,1.768,2.168
	c0.528,0.77,0.956,1.597,1.312,2.467c0.357,0.856,0.642,1.754,0.813,2.667c0.185,0.913,0.285,1.854,0.285,2.781
	c0,0.927-0.1,1.868-0.285,2.781c-0.171,0.913-0.456,1.811-0.813,2.681c-0.357,0.856-0.784,1.683-1.312,2.453
	c-0.513,0.784-1.112,1.512-1.768,2.168c-0.656,0.656-1.383,1.255-2.168,1.783c-0.77,0.513-1.597,0.941-2.453,1.298
	c-0.87,0.357-1.768,0.642-2.681,0.827C360.297,260.45,359.356,260.535,358.429,260.535z"/>
<path d="M446.48,194.554c-17.827-19.493-41.018-32.822-66.456-38.433c2.189-9.416,3.293-19.057,3.293-28.805
	C383.317,57.114,326.202,0,256,0S128.683,57.114,128.683,127.317c0,9.744,1.104,19.382,3.29,28.793
	c-57.769,12.647-99.78,63.83-99.78,124.305c0,70.202,57.114,127.317,127.317,127.317c15.299,0,30.121-2.671,43.936-7.716
	l-8.714,96.439c-0.361,3.989,0.974,7.947,3.675,10.905c2.703,2.956,6.523,4.641,10.528,4.641h94.128
	c4.006,0,7.827-1.684,10.528-4.641c2.703-2.958,4.036-6.914,3.675-10.905l-8.714-96.439c13.815,5.044,28.638,7.716,43.936,7.716
	c70.202,0,127.317-57.114,127.317-127.317C479.807,248.545,467.971,218.054,446.48,194.554z M287.456,483.476h-62.91l8.976-99.338
	c8.223-5.887,15.775-12.789,22.48-20.613c6.704,7.824,14.256,14.727,22.479,20.613L287.456,483.476z M352.49,379.208
	c-18.71,0-36.499-5.159-51.766-14.556c-0.334-0.255-0.669-0.511-1.027-0.737c-7.75-4.913-14.815-10.943-20.938-17.8l59.5-59.5
	c5.569-5.569,5.569-14.6,0-20.171c-5.569-5.569-14.6-5.569-20.171,0l-46.529,46.529V256c0-7.877-6.385-14.262-14.262-14.262
	s-14.262,6.385-14.262,14.262v56.972l-46.529-46.529c-5.569-5.569-14.6-5.569-20.171,0c-5.569,5.569-5.569,14.6,0,20.171
	l58.103,58.103c-6.394,7.433-13.868,13.957-22.136,19.198c-0.358,0.227-0.693,0.482-1.027,0.737
	c-15.267,9.397-33.056,14.556-51.766,14.556c-54.475,0-98.793-44.319-98.793-98.793c0-50.594,37.891-92.807,88.14-98.191
	c4.865-0.522,9.274-3.393,12.101-7.877c2.798-4.441,3.477-9.614,1.861-14.198c-3.724-10.555-5.612-21.602-5.612-32.832
	c0-54.473,44.319-98.792,98.793-98.792s98.793,44.319,98.793,98.793c0,11.29-1.907,22.391-5.671,32.996
	c-2.034,5.73-0.411,11.458,1.786,14.908c2.509,3.941,6.553,6.451,11.101,6.887c50.893,4.862,89.272,47.124,89.272,98.305
	C451.283,334.889,406.966,379.208,352.49,379.208z"/>
<path d="M156.167,260.535c-0.927,0-1.868-0.1-2.781-0.285c-0.913-0.171-1.811-0.456-2.667-0.813
	c-0.87-0.357-1.697-0.799-2.467-1.312c-0.784-0.513-1.512-1.112-2.168-1.768c-0.656-0.656-1.255-1.383-1.768-2.168
	c-0.513-0.77-0.956-1.597-1.312-2.453c-0.357-0.87-0.642-1.768-0.813-2.681c-0.185-0.913-0.285-1.854-0.285-2.781
	c0-0.927,0.1-1.868,0.285-2.781c0.171-0.913,0.456-1.811,0.813-2.667c0.357-0.87,0.799-1.697,1.312-2.467
	c0.513-0.784,1.112-1.512,1.768-2.168c3.309-3.309,8.229-4.835,12.864-3.893c0.913,0.171,1.811,0.456,2.681,0.813
	c0.856,0.357,1.683,0.799,2.453,1.312c0.784,0.513,1.512,1.112,2.168,1.768c0.656,0.656,1.255,1.383,1.768,2.168
	c0.513,0.77,0.956,1.597,1.312,2.467c0.357,0.856,0.642,1.754,0.813,2.667c0.185,0.913,0.285,1.854,0.285,2.781
	c0,0.927-0.1,1.868-0.285,2.781c-0.171,0.913-0.456,1.811-0.813,2.681c-0.357,0.856-0.799,1.683-1.312,2.453
	c-0.513,0.784-1.112,1.512-1.768,2.168c-0.656,0.656-1.383,1.255-2.168,1.768c-0.77,0.513-1.597,0.956-2.453,1.312
	c-0.87,0.357-1.768,0.642-2.681,0.813C158.035,260.435,157.094,260.535,156.167,260.535z"/>
</svg>