<?xml version="1.0" encoding="iso-8859-1"?>
<!-- Uploaded to: SVG Repo, www.svgrepo.com, Generator: SVG Repo Mixer Tools -->
<svg height="800px" width="800px" version="1.1" id="Layer_1" xmlns="http://www.w3.org/2000/svg" xmlns:xlink="http://www.w3.org/1999/xlink" 
	 viewBox="0 0 512 512" xml:space="preserve">
<g>
	<path style="fill:#FBD971;" d="M512,256c0,141.383-114.617,256-256,256S0,397.383,0,256S114.617,0,256,0S512,114.617,512,256"/>
	<g>
		<path style="fill:#E57E25;" d="M132.414,220.69c-2.26,0-4.52-0.865-6.241-2.586c-3.452-3.452-3.452-9.031,0-12.482l52.966-52.966
			c3.452-3.452,9.031-3.452,12.482,0c3.452,3.452,3.452,9.031,0,12.482l-52.966,52.966
			C136.934,219.825,134.674,220.69,132.414,220.69"/>
		<path style="fill:#E57E25;" d="M185.379,220.69c-2.26,0-4.52-0.865-6.241-2.586l-52.966-52.966c-3.452-3.452-3.452-9.031,0-12.482
			c3.452-3.452,9.031-3.452,12.482,0l52.966,52.966c3.452,3.452,3.452,9.031,0,12.482
			C189.899,219.825,187.639,220.69,185.379,220.69"/>
		<path style="fill:#E57E25;" d="M326.621,220.69c-2.26,0-4.52-0.865-6.241-2.586c-3.452-3.452-3.452-9.031,0-12.482l52.966-52.966
			c3.452-3.452,9.031-3.452,12.482,0c3.452,3.452,3.452,9.031,0,12.482l-52.966,52.966
			C331.14,219.825,328.881,220.69,326.621,220.69"/>
		<path style="fill:#E57E25;" d="M379.586,220.69c-2.26,0-4.52-0.865-6.241-2.586l-52.966-52.966c-3.452-3.452-3.452-9.031,0-12.482
			c3.452-3.452,9.031-3.452,12.482,0l52.966,52.966c3.452,3.452,3.452,9.031,0,12.482
			C384.106,219.825,381.846,220.69,379.586,220.69"/>
	</g>
	<path style="fill:#FB7B76;" d="M300.138,406.069L300.138,406.069c-14.627,0-26.483-11.855-26.483-26.483v-44.138h52.966v44.138
		C326.621,394.214,314.765,406.069,300.138,406.069"/>
	<path style="fill:#E57E25;" d="M344.276,344.276H167.724c-4.882,0-8.828-3.946-8.828-8.828c0-4.882,3.946-8.828,8.828-8.828
		h176.552c4.882,0,8.828,3.946,8.828,8.828C353.103,340.33,349.158,344.276,344.276,344.276"/>
</g>
</svg>