<?xml version="1.0" encoding="UTF-8" standalone="no"?>
<!-- Uploaded to: SVG Repo, www.svgrepo.com, Generator: SVG Repo Mixer Tools -->

<svg
   fill="#000000"
   width="800px"
   height="800px"
   viewBox="0 0 512 512"
   id="_02_Out"
   data-name="02 Out"
   version="1.1"
   xmlns="http://www.w3.org/2000/svg"
   xmlns:svg="http://www.w3.org/2000/svg">
  <defs
     id="defs1" />
  <g
     id="Group_7"
     data-name="Group 7"
     style="fill:#d45500">
    <path
       id="Path_2"
       data-name="Path 2"
       d="M480,224a31.991,31.991,0,0,0-32,32V448H64V256a32,32,0,0,0-64,0V480a31.991,31.991,0,0,0,32,32H480a31.991,31.991,0,0,0,32-32V256A31.991,31.991,0,0,0,480,224Z"
       fill-rule="evenodd"
       style="fill:#d45500" />
    <path
       id="Path_3"
       data-name="Path 3"
       d="M224,320a32,32,0,0,0,64,0V128h96L256,0,128,128h96Z"
       fill-rule="evenodd"
       style="fill:#d45500" />
  </g>
</svg>
