<?xml version="1.0" encoding="utf-8"?><!-- Uploaded to: SVG Repo, www.svgrepo.com, Generator: SVG Repo Mixer Tools -->
<svg fill="#000000" width="800px" height="800px" viewBox="0 0 24 24" id="note-question" data-name="Line Color" xmlns="http://www.w3.org/2000/svg" class="icon line-color"><rect id="secondary" x="9" y="3" width="6" height="3" rx="1" style="fill: none; stroke: rgb(44, 169, 188); stroke-linecap: round; stroke-linejoin: round; stroke-width: 2;"></rect><path id="secondary-2" data-name="secondary" d="M12,14v-.5a.5.5,0,0,1,.5-.5h0A1.5,1.5,0,0,0,14,11.5h0A1.5,1.5,0,0,0,12.5,10H11" style="fill: none; stroke: rgb(44, 169, 188); stroke-linecap: round; stroke-linejoin: round; stroke-width: 2;"></path><line id="secondary-upstroke" x1="11.95" y1="17" x2="12.05" y2="17" style="fill: none; stroke: rgb(44, 169, 188); stroke-linecap: round; stroke-linejoin: round; stroke-width: 2;"></line><path id="primary" d="M18,4a1,1,0,0,1,1,1V20a1,1,0,0,1-1,1H6a1,1,0,0,1-1-1V5A1,1,0,0,1,6,4" style="fill: none; stroke: rgb(0, 0, 0); stroke-linecap: round; stroke-linejoin: round; stroke-width: 2;"></path></svg>