<?xml version="1.0" encoding="UTF-8" standalone="no"?>
<!-- Uploaded to: SVG Repo, www.svgrepo.com, Generator: SVG Repo Mixer Tools -->

<svg
   height="800px"
   width="800px"
   version="1.1"
   id="Capa_1"
   viewBox="0 0 393.957 393.957"
   xml:space="preserve"
   sodipodi:docname="image.svg"
   inkscape:version="1.4.4 (dcaf3e7d9e, 2026-05-05)"
   xmlns:inkscape="http://www.inkscape.org/namespaces/inkscape"
   xmlns:sodipodi="http://sodipodi.sourceforge.net/DTD/sodipodi-0.dtd"
   xmlns="http://www.w3.org/2000/svg"
   xmlns:svg="http://www.w3.org/2000/svg"><defs
   id="defs4">
	

		
		
		
	</defs><sodipodi:namedview
   id="namedview4"
   pagecolor="#ffffff"
   bordercolor="#000000"
   borderopacity="0.25"
   inkscape:showpageshadow="2"
   inkscape:pageopacity="0.0"
   inkscape:pagecheckerboard="0"
   inkscape:deskcolor="#d1d1d1"
   inkscape:zoom="1.07125"
   inkscape:cx="399.53326"
   inkscape:cy="325.32089"
   inkscape:window-width="1788"
   inkscape:window-height="991"
   inkscape:window-x="26"
   inkscape:window-y="23"
   inkscape:window-maximized="0"
   inkscape:current-layer="Capa_1" />

<g
   id="g4"><path
     style="fill:#ff0000;stroke:#ee2849;stroke-width:0.64432;stroke-opacity:1"
     d="M 263.60826,159.29383 H 134.946 c -3.84897,7.92894 -5.9636,16.67997 -5.9636,25.83776 0,35.14095 31.53337,63.73151 70.29303,63.73151 38.76102,0 70.29575,-28.59056 70.29575,-63.73151 0,-9.1584 -2.11599,-17.90882 -5.96292,-25.83776 z m -32.98689,51.40129 c -5.71593,8.08599 -15.46286,15.47198 -28.96943,21.95427 -0.74299,0.35583 -1.5584,0.53436 -2.37447,0.53436 -0.81608,0 -1.63148,-0.17853 -2.37448,-0.53436 -13.50725,-6.48229 -23.25417,-13.86828 -28.97078,-21.95427 -6.46299,-9.13939 -6.22683,-16.87139 -4.89106,-21.74814 2.6032,-9.50196 11.49615,-16.13947 21.62811,-16.13947 5.47368,0 10.49872,1.93131 14.60753,5.5381 4.10881,-3.60679 9.13385,-5.5381 14.60753,-5.5381 10.1306,0 19.02288,6.63689 21.62608,16.13947 1.33644,4.87675 1.57328,12.60937 -4.88903,21.74814 z"
     id="path1" /><path
     style="fill:#666666;stroke:#000000;stroke-width:0.64432;stroke-opacity:1"
     d="M 261.99302,139.45308 C 251.58633,127.72471 237.3124,119.15098 221.47263,115.02454 V 72.491472 h 8.63581 c 2.8035,0 5.07512,-2.059536 5.07512,-4.601287 V 49.051289 c 0,-2.541751 -2.27162,-4.601287 -5.07512,-4.601287 h -15.31398 l 2.59575,-23.010116 c 0.14684,-1.293882 -0.32007,-2.584696 -1.28231,-3.55158 -0.96157,-0.966271 -2.32982,-1.517198 -3.76641,-1.517198 h -26.13008 c -1.43524,0 -2.80484,0.550927 -3.76641,1.517198 -0.96224,0.966884 -1.42712,2.257698 -1.28231,3.55158 l 2.59575,23.010116 h -15.31263 c -2.80349,0 -5.07512,2.059536 -5.07512,4.601287 v 18.838896 c 0,2.541751 2.27163,4.601287 5.07512,4.601287 h 8.63581 v 42.533068 c -15.83977,4.12705 -30.11505,12.70017 -40.52038,24.42854 -11.43255,12.88729 -17.72839,29.10897 -17.72839,45.67851 0,40.21587 36.08609,72.93408 80.44326,72.93408 44.35853,0 80.44597,-32.71821 80.44597,-72.93408 -6.7e-4,-16.56954 -6.29652,-32.79122 -17.72906,-45.67851 z M 206.72164,25.573682 204.5928,44.450002 h -10.63135 l -2.12884,-18.87632 z m -33.20072,37.715216 v -9.636322 h 51.51241 v 9.636322 z m 9.78415,59.763972 c 2.17688,-0.4589 3.694,-2.1258 3.90039,-4.03686 0.008,0.001 0.0169,0.007 0.0264,0.009 V 72.491472 h 24.09123 v 46.197538 l 0.004,-0.002 c 0.0582,2.04666 1.62133,3.88104 3.92272,4.36632 18.17906,3.82827 33.23388,13.73208 42.85021,27.03839 H 140.45486 c 9.61633,-13.30692 24.67115,-23.21012 42.85021,-27.03839 z m 15.97104,125.81023 c -38.75966,0 -70.29304,-28.59056 -70.29304,-63.73151 0,-9.1584 2.11464,-17.90882 5.9636,-25.83776 h 128.66226 c 3.84694,7.92894 5.9636,16.67997 5.9636,25.83776 -10e-4,35.14095 -31.5354,63.73151 -70.29642,63.73151 z"
     id="path2" /><path
     style="fill:#999999;stroke:#000000;stroke-width:0.64432;stroke-opacity:1"
     d="m 213.885,172.80751 c -5.47368,0 -10.49872,1.93131 -14.60753,5.5381 -4.10882,-3.60679 -9.13386,-5.5381 -14.60754,-5.5381 -10.13195,0 -19.02491,6.63689 -21.6281,16.13947 -1.33645,4.87675 -1.57193,12.60937 4.89105,21.74814 5.71594,8.08599 15.46354,15.47198 28.97079,21.95427 0.74299,0.35583 1.55839,0.53436 2.37447,0.53436 0.81608,0 1.63148,-0.17853 2.37448,-0.53436 13.50657,-6.48229 23.25282,-13.86828 28.96943,-21.95427 6.46231,-9.13939 6.22547,-16.87139 4.89038,-21.74814 -2.60388,-9.50196 -11.49683,-16.13947 -21.62743,-16.13947 z m -40.99204,18.35729 c 1.45284,-5.30436 6.40615,-9.15472 11.77697,-9.15472 4.0019,0 7.56328,2.10555 10.29978,6.08842 0.92638,1.3491 2.55515,2.16874 4.30776,2.16874 1.7526,0 3.38137,-0.81964 4.30775,-2.16874 2.7365,-3.98287 6.29788,-6.08842 10.29978,-6.08842 5.37014,0 10.3221,3.84974 11.77494,9.15472 1.08134,3.94729 2.25335,17.69226 -26.38247,32.1814 -28.63786,-14.49037 -27.46517,-28.23411 -26.38451,-32.1814 z"
     id="path3" /><path
     style="fill:#aab1ba;stroke:#4f0d18;stroke-width:0.840628;stroke-opacity:1"
     d="m 312.76628,321.60384 h -53.4101 -13.35273 v 30.82975 h 106.82021 v -30.82975 z m -160.22953,0 v 30.82975 H 45.717319 v -30.82975 h 40.057386 53.410105 z"
     id="path1-9" /><path
     style="fill:#ffd0a1;stroke:#4f0d18;stroke-width:0.840628;stroke-opacity:1"
     d="M 352.82366,173.61961 V 67.255936 c 0,-13.103072 8.67884,-23.122537 20.0287,-23.122537 11.34984,0 20.02868,10.019465 20.02868,23.122537 V 182.86863 c 0,25.43479 -13.35272,38.53785 -13.35272,38.53785 l -53.40932,61.6595 c 0,0 -13.35272,15.41533 -13.35272,38.53786 h -53.4101 v -69.36761 c 0,-25.43479 13.35271,-38.53786 13.35271,-38.53786 l 46.73336,-53.95228 c 8.01147,-9.24902 19.36133,-10.01946 27.37281,-0.77045 4.00574,3.85315 5.34123,9.2481 6.0086,14.64397 z m -306.438971,0 c 0,-5.39497 2.00287,-10.79082 5.341238,-15.41533 8.011477,-9.24901 20.028693,-7.70721 27.37281,0.77045 l 46.733353,53.95228 c 0,0 13.35272,13.10308 13.35272,38.53787 v 69.3676 H 85.774705 c 0,-23.12252 -13.352715,-38.53785 -13.352715,-38.53785 l -53.410111,-61.6595 c 0,0 -13.352725,-13.10307 -13.352725,-38.53786 V 66.484577 c 0,-13.103066 8.678847,-23.122531 20.028693,-23.122531 11.349856,0 20.028693,10.019465 20.028693,23.122531 z"
     id="path2-4" /></g></svg>
