<?xml version="1.0" encoding="iso-8859-1"?>
<!-- Uploaded to: SVG Repo, www.svgrepo.com, Generator: SVG Repo Mixer Tools -->
<svg height="800px" width="800px" version="1.1" id="Layer_1" xmlns="http://www.w3.org/2000/svg" xmlns:xlink="http://www.w3.org/1999/xlink" 
	 viewBox="0 0 512 512" xml:space="preserve">
<path style="fill:#D5D2BD;" d="M87.922,184.725l43.369,271.078c4.354,27.212,53.286,48.661,113.009,48.661
	s108.654-21.449,113.009-48.661l43.37-271.078L87.922,184.725z"/>
<g>
	<path style="fill:#AB5034;" d="M127.685,433.26l3.607,22.544c4.354,27.212,53.286,48.661,113.009,48.661
		c47.704,0,88.496-13.691,105.213-33.068c-22.595,6.34-46.062,9.683-70.136,9.683C224.635,481.08,173.033,463.801,127.685,433.26z"
		/>
	<path style="fill:#AB5034;" d="M329.393,381.697c13.772,0,27.277-1.455,40.445-4.208l13.376-83.603
		c-59.648-2.436-111.238-45.892-138.271-109.16H98.776C136.631,300.443,225.629,381.697,329.393,381.697z"/>
</g>
<path style="opacity:0.2;fill:#493023;enable-background:new    ;" d="M87.922,184.725c4.064,25.4,21.861,46.446,46.223,54.703
	c25.949,8.796,55.8,14.278,88.037,15.996c12.404,0.66,22.119,10.921,22.119,23.343v187.876c0,13.95-12.143,24.81-26.004,23.243
	c-30.354-3.429-51.77-12.44-65.298-20.261c-10.712-6.196-17.941-12.427-22.151-16.598l0.444,2.777
	c4.354,27.212,53.286,48.661,113.009,48.661s108.654-21.449,113.009-48.661l43.37-271.078L87.922,184.725z"/>
<path style="opacity:0.1;fill:#FEFBE1;enable-background:new    ;" d="M87.922,184.725l43.369,271.078
	c2.342,14.636,17.591,27.598,40.466,36.458l-30.754-307.536L87.922,184.725L87.922,184.725z"/>
<g style="opacity:0.2;">
	<path style="fill:#493023;" d="M160.119,367.083h-11.692c-4.844,0-8.769-3.926-8.769-8.769c0-4.843,3.925-8.769,8.769-8.769h11.692
		c4.844,0,8.769,3.926,8.769,8.769S164.964,367.083,160.119,367.083z"/>
	<path style="fill:#493023;" d="M340.178,367.083h-11.692c-4.844,0-8.769-3.926-8.769-8.769c0-4.843,3.925-8.769,8.769-8.769h11.692
		c4.844,0,8.769,3.926,8.769,8.769S345.021,367.083,340.178,367.083z"/>
</g>
<circle cx="185.837" cy="334.93" r="17.538"/>
<circle cx="302.766" cy="334.93" r="17.538"/>
<path style="fill:#D5D2BD;" d="M424.801,127.387H63.799c-0.532,3.032-0.727,6.811-0.727,8.776c0,2.825,0.227,5.678,0.676,8.482
	c2.364,14.776,10.85,28.334,24.173,40.08C119.039,212.159,176.567,229.7,244.3,229.7s125.26-17.54,156.378-44.975
	c13.325-11.747,21.81-25.306,24.174-40.082c0.448-2.801,0.674-5.654,0.674-8.48C425.528,133.204,425.273,130.278,424.801,127.387z"
	/>
<path style="fill:#E7E4CD;" d="M87.922,167.188c31.118,27.434,88.646,44.975,156.378,44.975s125.26-17.54,156.378-44.975
	c13.239-11.672,21.696-25.137,24.122-39.803c-3.924-23.975-23.937-45.345-57.369-60.867c-33.182-15.406-76.91-23.89-123.131-23.89
	s-89.951,8.485-123.132,23.89C87.739,82.04,67.725,103.409,63.8,127.383C66.226,142.05,74.682,155.516,87.922,167.188z"/>
<path style="fill:#C1BDAB;" d="M135.941,98.332c-23.664,10.987-37.792,25.13-37.792,37.832c0,0.977,0.079,1.966,0.235,2.941
	c3.724,23.276,56.503,55.52,145.916,55.52l46.768-56.122l-46.768-60.798C203.076,77.703,164.593,85.03,135.941,98.332z"/>
<path style="fill:#D5D2BD;" d="M352.661,98.333c-28.653-13.304-67.136-20.63-108.361-20.63v116.921
	c89.413,0,142.192-32.246,145.916-55.516c0.156-0.977,0.235-1.967,0.235-2.944C390.452,123.462,376.324,109.319,352.661,98.333z"/>
<path style="fill:#684C77;" d="M114.38,161.152c22.339,17.547,67.083,33.472,129.922,33.472s107.582-15.927,129.922-33.472
	c-27.262-19.937-75.258-33.172-129.922-33.172C189.635,127.979,141.642,141.216,114.38,161.152z"/>
<path style="fill:#796093;" d="M147.496,178.979c24.217,9.202,56.846,15.645,96.804,15.645s72.587-6.445,96.803-15.647
	c-26.43-9.953-60.108-15.922-96.803-15.922C207.605,163.056,173.927,169.026,147.496,178.979z"/>
<path style="fill:#BD7155;" d="M447.564,18.343c-3.725-8.94-13.997-13.174-22.934-9.442L306.009,58.324
	c-18.671,7.78-32.746,24.139-37.653,43.763l-12.075,48.3c-1.199,4.793-0.295,9.868,2.481,13.955l0.295,0.435
	c5.211,7.667,15.529,9.88,23.426,5.025l0,0c3.863-2.374,6.641-6.167,7.741-10.567l12.16-48.64c2.23-8.92,8.629-16.356,17.115-19.894
	l118.619-49.424C447.06,37.553,451.288,27.285,447.564,18.343z"/>
<path style="fill:#AB5034;" d="M438.66,20.593L320.04,70.017c-18.671,7.78-32.746,24.139-37.653,43.763l-12.075,48.3
	c-0.843,3.371-0.624,6.876,0.534,10.084c3.907,0.585,8.025-0.141,11.64-2.363c3.863-2.374,6.641-6.167,7.741-10.567l12.16-48.64
	c2.23-8.92,8.629-16.356,17.115-19.894l118.619-49.422c8.576-3.573,12.796-13.163,9.839-21.831
	C444.911,18.994,441.71,19.32,438.66,20.593z"/>
<path d="M244.3,202.161c-52.562,0-87.817-10.698-108.137-19.674c-26.308-11.621-42.789-26.999-45.22-42.192
	c-0.219-1.371-0.33-2.759-0.33-4.131c0-15.948,15.364-32.229,42.153-44.667c3.776-1.753,8.256-0.114,10.009,3.661
	c1.752,3.775,0.114,8.255-3.661,10.009c-24.674,11.456-33.429,23.858-33.429,30.997c0,0.578,0.047,1.168,0.141,1.752
	c1.167,7.293,11.406,19.732,36.426,30.783c18.993,8.389,52.113,18.389,102.046,18.389c49.933,0,83.054-10,102.047-18.389
	c25.021-11.052,35.261-23.488,36.428-30.782c0.093-0.582,0.141-1.175,0.141-1.753c0-7.139-8.755-19.541-33.428-30.995
	c-3.775-1.752-5.415-6.234-3.663-10.009c1.752-3.775,6.233-5.415,10.009-3.662c26.788,12.436,42.152,28.717,42.152,44.666
	c0,1.369-0.11,2.756-0.328,4.126c-2.433,15.2-18.914,30.576-45.223,42.197C332.116,191.462,296.861,202.161,244.3,202.161z"/>
<path d="M114.386,168.69c-2.322,0-4.613-1.069-6.089-3.088c-2.457-3.359-1.725-8.075,1.634-10.531
	c10.785-7.888,24.355-14.679,40.336-20.185c3.935-1.356,8.224,0.735,9.58,4.669s-0.735,8.224-4.669,9.58
	c-14.553,5.015-26.782,11.105-36.349,18.101C117.487,168.217,115.929,168.69,114.386,168.69z"/>
<path d="M374.217,168.689c-1.543,0-3.102-0.472-4.443-1.454c-10.317-7.545-24.262-14.262-40.33-19.426
	c-3.962-1.273-6.141-5.517-4.869-9.48c1.274-3.963,5.514-6.144,9.481-4.869c17.835,5.731,32.845,13.001,44.615,21.609
	c3.359,2.457,4.091,7.172,1.634,10.531C378.829,167.619,376.538,168.689,374.217,168.689z"/>
<path d="M244.301,512c-29.792,0-58.298-5.237-80.261-14.746c-23.382-10.122-37.654-24.421-40.189-40.26L80.482,185.917l14.883-2.381
	l43.369,271.078c3.257,20.35,44.544,42.315,105.567,42.315s102.311-21.965,105.568-42.316l43.369-271.077l14.884,2.381
	l-43.371,271.076c-2.535,15.841-16.808,30.138-40.189,40.26C302.598,506.764,274.094,512,244.301,512z"/>
<path d="M136.273,219.701c-0.873,0-1.76-0.153-2.627-0.475c-20.65-7.683-37.71-17.388-50.707-28.847
	c-15.067-13.283-24.028-28.27-26.631-44.543c-0.511-3.192-0.771-6.447-0.771-9.672c0-30.619,22.181-57.781,62.458-76.482
	c34.157-15.858,79.013-24.59,126.305-24.59c14.79,0,29.507,0.858,43.741,2.548c4.133,0.491,7.086,4.239,6.594,8.373
	c-0.49,4.134-4.248,7.081-8.372,6.595c-13.646-1.622-27.765-2.444-41.962-2.444c-45.146,0-87.748,8.235-119.958,23.19
	c-34.65,16.088-53.733,38.394-53.733,62.811c0,2.43,0.195,4.882,0.581,7.29c2.037,12.727,9.343,24.71,21.716,35.618
	c11.607,10.234,27.082,18.99,45.996,26.026c3.901,1.451,5.886,5.79,4.435,9.691C142.209,217.825,139.331,219.701,136.273,219.701z"
	/>
<path d="M352.329,219.7c-3.059,0-5.934-1.876-7.064-4.91c-1.451-3.901,0.535-8.239,4.435-9.691
	c18.912-7.036,34.388-15.792,45.995-26.026c12.374-10.909,19.681-22.894,21.716-35.621c0.386-2.406,0.581-4.858,0.581-7.289
	c0-17.594-9.989-34.299-28.888-48.308c-3.344-2.479-4.045-7.198-1.568-10.542s7.198-4.046,10.541-1.566
	c22.887,16.965,34.985,37.857,34.985,60.416c0,3.225-0.259,6.48-0.771,9.67c-2.603,16.273-11.563,31.26-26.631,44.545
	c-12.998,11.459-30.058,21.164-50.707,28.847C354.089,219.548,353.201,219.7,352.329,219.7z"/>
<path d="M290.231,166.774c-0.606,0-1.22-0.073-1.834-0.227c-4.038-1.009-6.492-5.101-5.483-9.139l12.161-48.64
	c2.804-11.218,10.851-20.571,21.526-25.022l118.622-49.424c2.467-1.028,4.384-2.954,5.402-5.424c1.018-2.471,1.012-5.19-0.016-7.656
	c-1.028-2.467-2.954-4.385-5.426-5.403c-2.469-1.017-5.185-1.011-7.648,0.017L308.907,65.281
	c-16.482,6.868-28.908,21.311-33.24,38.636l-12.076,48.3c-1.009,4.038-5.104,6.494-9.139,5.483c-4.038-1.009-6.493-5.1-5.483-9.139
	l12.075-48.3c5.482-21.924,21.207-40.201,42.065-48.892L421.731,1.945c6.176-2.577,12.992-2.595,19.191-0.042
	c6.194,2.551,11.023,7.361,13.598,13.544c2.575,6.183,2.59,12.997,0.04,19.191c-2.55,6.194-7.359,11.023-13.543,13.598
	l-118.62,49.423c-6.299,2.626-11.047,8.145-12.702,14.765l-12.161,48.64C296.68,164.488,293.607,166.774,290.231,166.774z"/>
</svg>