<?xml version="1.0" encoding="iso-8859-1"?>
<!-- Uploaded to: SVG Repo, www.svgrepo.com, Generator: SVG Repo Mixer Tools -->
<svg height="800px" width="800px" version="1.1" id="Layer_1" xmlns="http://www.w3.org/2000/svg" xmlns:xlink="http://www.w3.org/1999/xlink" 
	 viewBox="0 0 512 512" xml:space="preserve">
<g transform="translate(1 1)">
	<path style="fill:#FFE100;" d="M212.507,263.533h-34.133c-5.12,0-8.533-3.413-8.533-8.533s3.413-8.533,8.533-8.533h34.133
		c5.12,0,8.533,3.413,8.533,8.533S217.627,263.533,212.507,263.533z"/>
	<path style="fill:#63D3FD;" d="M203.974,203.8v-93.867c0-37.547,30.72-68.267,68.267-68.267c37.547,0,68.267,30.72,68.267,68.267
		v102.4h-34.133l51.2,59.733l51.2-59.733H374.64v-102.4c0-56.32-46.08-102.4-102.4-102.4s-102.4,46.08-102.4,102.4V203.8H203.974z"
		/>
	<polygon style="fill:#00DA6C;" points="7.707,502.467 50.374,502.467 50.374,246.467 7.707,246.467 	"/>
	<polygon style="fill:#FFFFFF;" points="24.774,494.787 24.774,247.32 7.707,247.32 7.707,503.32 50.374,503.32 50.374,494.787 	"/>
	<path style="fill:#FFE100;" d="M496.667,342.04c6.827-5.12,7.68-15.36,2.56-22.187c-11.093-14.507-19.627-18.773-56.32,0.853
		l-74.24,45.227c-22.187,11.947-81.92,8.533-107.52,8.533c0,0,60.587,4.267,36.693-31.573c-11.947-17.92-32.427-28.16-54.613-28.16
		h-33.28c-19.627,0-38.4-5.973-53.76-17.067c-36.693-27.307-105.813-25.6-105.813-25.6v204.8H169.84
		c17.067,0,34.133-1.707,51.2-4.267l110.933-17.067c3.413,0,7.68-0.853,11.093-0.853l0,0c9.387-0.853,17.067-5.973,23.893-11.947
		L496.667,342.04z"/>
	<path style="fill:#FFA800;" d="M499.227,319.853c-7.68-11.093-15.36-16.213-34.133-9.387c3.413,2.56,5.973,5.12,8.533,9.387
		c5.12,6.827,3.413,17.067-2.56,22.187L341.36,443.587c-6.827,5.973-14.507,11.093-23.893,11.947l0,0
		c-3.413,0.853-6.827,0.853-11.093,0.853L195.44,473.453c-17.067,2.56-34.133,4.267-51.2,4.267h25.6
		c17.067,0,34.133-1.707,51.2-4.267l110.933-17.067c3.413,0,7.68-0.853,11.093-0.853l0,0c9.387-0.853,17.067-5.973,23.893-11.947
		l129.707-100.693C503.494,336.92,504.347,326.68,499.227,319.853"/>
	<path d="M261.147,383h-82.773c-5.12,0-8.533-3.413-8.533-8.533c0-5.12,3.413-8.533,8.533-8.533h82.773
		c5.12,0,8.533,3.413,8.533,8.533C269.68,379.587,266.267,383,261.147,383z"/>
	<path d="M169.84,485.4h-128V263.533h8.533c0,0,1.707,0,4.267,0c17.067,0,74.24,1.707,106.667,26.453
		c13.653,10.24,30.72,15.36,48.64,15.36h33.28c24.747,0,47.787,11.947,61.44,31.573c7.68,11.093,9.387,20.48,5.12,28.16
		c16.213,0,42.667-1.707,54.613-7.68l73.387-45.227c19.627-10.24,32.427-14.507,41.813-14.507c12.8,0,20.48,7.68,26.453,16.213
		c7.68,10.24,5.973,25.6-4.267,34.133L372.934,449.56c-8.533,7.68-17.92,12.8-28.16,14.507c-3.413,0.853-7.68,1.707-11.947,1.707
		L221.894,482.84C204.827,483.693,186.907,485.4,169.84,485.4z M58.907,468.333H169.84c16.213,0,33.28-0.853,49.493-3.413
		l112.64-17.067c3.413,0,5.973,0,9.387-0.853c7.68-0.853,14.507-4.267,19.627-10.24l0.853-0.853l129.707-100.693
		c3.413-2.56,3.413-6.827,0.853-10.24c-5.12-7.68-8.533-8.533-11.947-8.533c-6.827,0-17.067,4.267-33.28,12.8l-73.387,45.227
		c-13.653,6.827-35.84,10.24-73.387,10.24c-8.533,0-16.213,0-23.893,0h-5.973c-0.853,0-2.56,0-3.413,0c-3.413,0-5.973,0-5.973,0
		L262,367.64c2.56,0,5.973,0,8.533,0c14.507-0.853,23.04-3.413,23.893-6.827c0.853-1.707,0-6.827-4.267-11.947
		c-10.24-17.067-27.307-25.6-46.933-25.6h-33.28c-22.187,0-42.667-6.827-58.88-18.773c-22.187-17.067-61.44-23.04-92.16-23.893
		V468.333z"/>
	<path d="M58.907,511H-0.826V237.933h59.733V511z M16.24,493.933h25.6V255h-25.6V493.933z"/>
	<path d="M144.24,408.6c-5.12,0-8.533-3.413-8.533-8.533c0-21.333,16.213-34.133,42.667-34.133c5.12,0,8.533,3.413,8.533,8.533
		c0,5.12-3.413,8.533-8.533,8.533c-25.6,0-25.6,12.8-25.6,17.067C152.774,405.187,149.36,408.6,144.24,408.6z"/>
	<path d="M357.574,280.6c-2.56,0-5.12-0.853-6.827-2.56l-51.2-59.733c-2.56-2.56-2.56-5.973-0.853-9.387s4.267-5.12,7.68-5.12h25.6
		v-93.867c0-33.28-26.453-59.733-59.733-59.733s-59.733,26.453-59.733,59.733V203.8c0,5.12-3.413,8.533-8.533,8.533H169.84
		c-5.12,0-8.533-3.413-8.533-8.533v-93.867C161.307,48.493,210.8-1,272.24-1s110.933,49.493,110.933,110.933V203.8h25.6
		c3.413,0,5.973,1.707,7.68,5.12c1.707,3.413,0.853,6.827-0.853,9.387l-51.2,59.733C362.694,279.747,360.134,280.6,357.574,280.6z
		 M325.147,220.867l32.427,38.4l32.427-38.4h-15.36c-5.12,0-8.533-3.413-8.533-8.533v-102.4c0-52.053-41.813-93.867-93.867-93.867
		s-93.867,41.813-93.867,93.867v85.333h17.067v-85.333c0-42.667,34.133-76.8,76.8-76.8s76.8,34.133,76.8,76.8v102.4
		c0,5.12-3.413,8.533-8.533,8.533H325.147z"/>
	<path d="M203.974,255H169.84c-5.12,0-8.533-3.413-8.533-8.533c0-5.12,3.413-8.533,8.533-8.533h34.133
		c5.12,0,8.533,3.413,8.533,8.533C212.507,251.587,209.094,255,203.974,255z"/>
</g>
</svg>