<?xml version="1.0" encoding="UTF-8" standalone="no"?>
<!-- Uploaded to: SVG Repo, www.svgrepo.com, Generator: SVG Repo Mixer Tools -->

<svg
   height="800px"
   width="800px"
   version="1.1"
   id="Layer_1"
   viewBox="0 0 512 512"
   xml:space="preserve"
   xmlns="http://www.w3.org/2000/svg"
   xmlns:svg="http://www.w3.org/2000/svg"><defs
   id="defs23" />
<path
   style="fill:#B26156;"
   d="M369.838,162.654v168.851c40.611,0,73.532-32.921,73.532-73.532v-21.787  C443.37,195.574,410.45,162.654,369.838,162.654z"
   id="path1" />
<path
   style="fill:#CC8073;"
   d="M369.838,162.654c22.561,0,40.851,32.921,40.851,73.532v21.787c0,40.611-18.29,73.532-40.851,73.532  c-40.611,0-73.532-32.921-73.532-73.532v-21.787C296.306,195.574,329.227,162.654,369.838,162.654z"
   id="path2" />
<path
   style="fill:#FFB751;"
   d="M503.83,503.624h-32.681l-60.972-122.945h13.007C470.637,401.289,503.83,448.578,503.83,503.624z"
   id="path3" />
<path
   style="fill:#FFD764;"
   d="M410.177,380.678h-93.685c-29.849,12.965-54.055,36.485-67.908,65.852l27.568,57.093h194.996  C471.149,448.589,446.061,401.3,410.177,380.678z"
   id="path4" />
<path
   style="fill:#FFE29E;"
   d="M423.184,380.678c-0.523,2.527-1.22,4.978-2.081,7.364l-49.958-18.399  C389.632,369.818,407.225,373.739,423.184,380.678z"
   id="path5" />
<path
   style="fill:#FFF1CF;"
   d="M421.104,388.043c-7.538,21.025-27.648,36.058-51.265,36.058c-26.297,0-48.237-18.639-53.346-43.422  c16.34-7.103,34.38-11.046,53.346-11.046c0.436,0,0.871,0,1.307,0.011C389.36,369.948,406.419,376.615,421.104,388.043z"
   id="path6" />
<path
   style="fill:#FFA4A9;"
   d="M142.162,162.654v168.851c40.611,0,73.532-32.921,73.532-73.532v-21.787  C215.694,195.574,182.773,162.654,142.162,162.654z"
   id="path7" />
<path
   style="fill:#FFC5BB;"
   d="M142.162,162.654c22.561,0,40.851,32.921,40.851,73.532v21.787c0,40.611-18.29,73.532-40.851,73.532  c-40.611,0-73.532-32.921-73.532-73.532v-21.787C68.63,195.574,101.55,162.654,142.162,162.654z"
   id="path8" />
<path
   style="fill:#3E8067;"
   d="M276.153,503.624h-32.681l-60.972-122.945h13.007C242.96,401.289,276.153,448.578,276.153,503.624z"
   id="path9" />
<path
   style="fill:#4DA081;"
   d="M243.472,503.624H8.17c0-55.045,33.193-102.335,80.645-122.945h93.685  C218.384,401.3,243.472,448.589,243.472,503.624z"
   id="path10" />
<path
   style="fill:#7BFFCD;"
   d="M195.508,380.678c-0.523,2.527-1.22,4.978-2.081,7.364l-49.958-18.399  C161.955,369.818,179.549,373.739,195.508,380.678z"
   id="path11" />
<path
   style="fill:#CAFFEB;"
   d="M193.427,388.043c-7.538,21.025-27.648,36.058-51.265,36.058c-26.297,0-48.237-18.639-53.346-43.422  c16.34-7.103,34.38-11.046,53.346-11.046c0.436,0,0.871,0,1.307,0.011C161.683,369.948,178.742,376.615,193.427,388.043z"
   id="path12" />



<path
   d="M142.162,339.881c45.051,0,81.702-36.652,81.702-81.702v-21.787c0-45.051-36.652-81.702-81.702-81.702  S60.46,191.341,60.46,236.391v21.787C60.46,303.229,97.111,339.881,142.162,339.881z M76.8,236.391  c0-36.04,29.321-65.362,65.362-65.362s65.362,29.321,65.362,65.362v21.787c0,36.04-29.321,65.362-65.362,65.362  S76.8,294.219,76.8,258.179V236.391z"
   id="path16" />
<path
   d="M105.403,244.418h10.814c1.121,3.173,4.148,5.447,7.705,5.447c4.512,0,8.17-3.658,8.17-8.17v-5.447  c0-4.512-3.658-8.17-8.17-8.17h-18.519c-4.512,0-8.17,3.658-8.17,8.17S100.891,244.418,105.403,244.418z"
   id="path17" />
<path
   d="M160.401,249.865c3.558,0,6.584-2.273,7.705-5.447h10.814c4.512,0,8.17-3.658,8.17-8.17s-3.658-8.17-8.17-8.17h-18.519  c-4.512,0-8.17,3.658-8.17,8.17v5.447C152.231,246.207,155.889,249.865,160.401,249.865z"
   id="path18" />
<path
   d="M288.136,236.391v21.787c0,45.051,36.652,81.702,81.702,81.702s81.702-36.652,81.702-81.702v-21.787  c0-45.051-36.652-81.702-81.702-81.702S288.136,191.341,288.136,236.391z M369.838,171.03c36.04,0,65.362,29.321,65.362,65.362  v21.787c0,36.04-29.321,65.362-65.362,65.362s-65.362-29.321-65.362-65.362v-21.787C304.477,200.351,333.798,171.03,369.838,171.03z  "
   id="path19" />
<path
   d="M333.08,244.418h10.814c1.121,3.173,4.148,5.447,7.705,5.447c4.512,0,8.17-3.658,8.17-8.17v-5.447  c0-4.512-3.658-8.17-8.17-8.17H333.08c-4.512,0-8.17,3.658-8.17,8.17S328.568,244.418,333.08,244.418z"
   id="path20" />
<path
   d="M388.077,249.865c3.558,0,6.584-2.273,7.705-5.447h10.814c4.512,0,8.17-3.658,8.17-8.17s-3.658-8.17-8.17-8.17h-18.519  c-4.512,0-8.17,3.658-8.17,8.17v5.447C379.907,246.207,383.565,249.865,388.077,249.865z"
   id="path21" />
<path
   d="M199.949,373.955c-0.709-0.458-1.501-0.809-2.356-1.033c-17.042-7.243-35.777-11.254-55.431-11.254  c-19.862,0-38.783,4.101-55.97,11.491c-0.474,0.16-0.927,0.356-1.353,0.593C34.921,395.835,0,445.828,0,503.83  c0,4.512,3.658,8.17,8.17,8.17s8.17-3.658,8.17-8.17c0-48.301,27.363-90.324,67.396-111.405  c9.192,23.709,32.332,40.051,58.426,40.051c26.104,0,49.237-16.338,58.427-40.051c40.033,21.081,67.394,63.105,67.394,111.405  c0,4.512,3.658,8.17,8.17,8.17c4.512,0,8.17-3.658,8.17-8.17C284.323,446.006,249.62,396.143,199.949,373.955z M142.162,416.136  c-19.576,0-36.9-12.438-43.48-30.38c13.557-5.008,28.204-7.748,43.48-7.748s29.923,2.739,43.48,7.748  C179.063,403.701,161.746,416.136,142.162,416.136z"
   id="path22" />
<path
   d="M427.626,373.955c-0.709-0.458-1.501-0.809-2.356-1.033c-17.042-7.243-35.777-11.254-55.431-11.254  c-36.622,0-71.403,13.893-97.937,39.119c-3.27,3.109-3.401,8.28-0.292,11.551c3.109,3.27,8.282,3.401,11.551,0.292  c8.536-8.116,18.04-14.898,28.233-20.254c9.18,23.736,32.333,40.102,58.445,40.102c26.104,0,49.237-16.338,58.427-40.051  c40.033,21.081,67.394,63.105,67.394,111.405c0,4.512,3.658,8.17,8.17,8.17s8.17-3.658,8.17-8.17  C512,446.006,477.296,396.143,427.626,373.955z M369.838,416.136c-19.587,0-36.92-12.453-43.491-30.411  c13.77-5.067,28.454-7.717,43.491-7.717c15.276,0,29.923,2.739,43.48,7.748C406.739,403.701,389.423,416.136,369.838,416.136z"
   id="path23" />
</svg>
