<?xml version="1.0" encoding="UTF-8" standalone="no"?>
<!-- Uploaded to: SVG Repo, www.svgrepo.com, Generator: SVG Repo Mixer Tools -->

<svg
   fill="#000000"
   height="800px"
   width="800px"
   version="1.1"
   id="Capa_1"
   viewBox="0 0 59.998 59.998"
   xml:space="preserve"
   sodipodi:docname="image.svg"
   inkscape:version="1.4.3 (fcd0343856, 2026-01-01)"
   xmlns:inkscape="http://www.inkscape.org/namespaces/inkscape"
   xmlns:sodipodi="http://sodipodi.sourceforge.net/DTD/sodipodi-0.dtd"
   xmlns="http://www.w3.org/2000/svg"
   xmlns:svg="http://www.w3.org/2000/svg"><sodipodi:namedview
   id="namedview1"
   pagecolor="#ffffff"
   bordercolor="#000000"
   borderopacity="0.25"
   inkscape:showpageshadow="2"
   inkscape:pageopacity="0.0"
   inkscape:pagecheckerboard="0"
   inkscape:deskcolor="#d1d1d1"
   inkscape:zoom="0.746875"
   inkscape:cx="426.44351"
   inkscape:cy="366.86192"
   inkscape:window-width="1479"
   inkscape:window-height="1094"
   inkscape:window-x="26"
   inkscape:window-y="23"
   inkscape:window-maximized="0"
   inkscape:current-layer="Capa_1" /><defs
   id="defs2">
	
	
</defs>

<g
   id="g1"
   transform="matrix(0.58610788,0,0,0.64222469,0.64479926,-4.3571204)"><g
     id="g4"
     transform="translate(-1.0704371,-0.90987154)"><rect
       x="18.651533"
       y="16.575985"
       style="fill:#2c9984;stroke-width:0.11013"
       width="26.978859"
       height="13.424441"
       id="rect3" /><g
       id="g3"><rect
         x="14.946178"
         y="19.2616"
         style="fill:#804000;stroke-width:0.11013"
         width="17.065456"
         height="8.0547533"
         id="rect2" /><rect
         x="19.633625"
         y="17.430174"
         style="fill:#90dfaa;stroke-width:0.11013"
         width="25.01667"
         height="11.715954"
         id="rect5" /><rect
         x="32.009647"
         y="17.430174"
         style="fill:#74c48a;stroke-width:0.11013"
         width="12.640645"
         height="11.715954"
         id="rect6" /><rect
         x="14.946178"
         y="23.248327"
         style="fill:#935635;stroke-width:0.11013"
         width="33.382866"
         height="18.793581"
         id="rect7" /></g></g><path
     d="M 54.727826,10.586617 A 1.0670062,1.1402169 0 0 0 54.550028,8.3141121 l -17.012737,1.519979 a 1.0670058,1.1402165 0 0 0 0.177798,2.2725039 l 1.115398,-0.09965 c 0.31846,2.072289 1.301198,6.462866 4.10736,8.786592 -2.525395,3.0987 -2.620369,9.083315 -2.53057,11.668037 l -1.092006,0.09756 a 1.067006,1.1402166 0 0 0 0.177798,2.272504 L 56.505806,33.31166 a 1.0670058,1.1402165 0 0 0 -0.177798,-2.272504 l -1.092005,0.09756 c -0.312914,-2.5625 -1.336527,-8.447175 -4.30855,-11.057005 2.405938,-2.791682 2.692775,-7.295687 2.684976,-9.393443 z m -6.192866,8.706824 a 1.0670058,1.1402165 0 0 0 0.194301,2.004432 c 2.70042,1.163806 3.963589,6.866891 4.376961,10.029128 l -10.569163,0.944286 c -0.08836,-3.195851 0.27567,-9.039739 2.757755,-10.666569 a 1.0670058,1.1402165 0 0 0 -0.119868,-2.011082 c -2.824969,-1.359777 -3.86467,-5.698353 -4.208297,-7.777547 l 10.509618,-0.938967 c -0.01577,2.111304 -0.366857,6.574138 -2.941307,8.416319 z m -1.424512,3.415686 c 0,0 3.403246,2.442009 3.509924,3.805512 l 0.302257,3.863257 -6.379776,0.569992 -0.302257,-3.863257 c -0.106679,-1.363503 2.869852,-4.375504 2.869852,-4.375504 z"
     id="path1-3"
     style="fill:#ff00ff;stroke-width:1.10301" /><g
     id="g2"
     transform="matrix(1.5226918,0,0,1.6604268,-1.0858423,-34.703906)"><polygon
       style="fill:#f7c02d"
       points="296.127,286.802 275.093,378.432 296.127,461.43 326.876,470.062 512,368.031 501.153,326.642 366.952,359.187 366.952,304.539 "
       id="polygon3"
       transform="matrix(0.0749975,0,0,0.0749975,1.2582314,18.77764)" /><polygon
       style="fill:#fbe27b"
       points="232.644,270.905 80.254,294.546 48.706,449.343 176.969,427.98 296.127,461.43 296.127,286.802 "
       id="polygon4"
       transform="matrix(0.0749975,0,0,0.0749975,1.2582314,18.77764)" /><polygon
       style="fill:#288fd9"
       points="19.094,388.587 40.127,482.693 80.254,482.693 80.254,294.481 40.127,294.481 "
       id="polygon5"
       transform="matrix(0.0749975,0,0,0.0749975,1.2582314,18.77764)" /><rect
       y="40.863281"
       style="fill:#8bcbf1;stroke-width:0.0749975"
       width="3.0095749"
       height="14.115654"
       id="rect5-6"
       x="1.2582319" /></g></g><g
   fill="none"
   fill-rule="evenodd"
   id="g10"
   transform="matrix(0.48103608,0,0,0.49851127,28.85282,25.023107)"><path
     fill="#80d25b"
     d="m 49.504465,56.529591 c 2.761424,0 5,-2.341895 5,-5.230769 0,-2.888874 -5,-11.769231 -5,-11.769231 0,0 -5,8.880357 -5,11.769231 0,2.888874 2.238576,5.230769 5,5.230769 z"
     transform="rotate(75,49.504,48.03)"
     id="path1" /><path
     fill="#80d25b"
     d="m 19.504465,56.529591 c 2.761423,0 5,-2.341895 5,-5.230769 0,-2.888874 -5,-11.769231 -5,-11.769231 0,0 -5,8.880357 -5,11.769231 0,2.888874 2.238576,5.230769 5,5.230769 z"
     transform="matrix(-0.25881905,0.96592583,0.96592583,0.25881905,-21.839583,16.758101)"
     id="path2" /><path
     stroke="#22ba8e"
     stroke-linecap="square"
     stroke-width="2"
     d="M 34,64 V 17.954569"
     id="path3" /><path
     stroke="#22ba8e"
     stroke-linecap="round"
     stroke-width="2"
     d="M 46,49 C 39.372583,49 34,54.372583 34,61"
     id="path4" /><path
     stroke="#22ba8e"
     stroke-linecap="round"
     stroke-width="2"
     d="M 34,49 C 27.372583,49 22,54.372583 22,61"
     transform="matrix(-1,0,0,1,56,0)"
     id="path5" /><path
     fill="#80d25b"
     d="m 49.504465,42.529591 c 2.761424,0 5,-2.341895 5,-5.230769 0,-2.888874 -5,-11.769231 -5,-11.769231 0,0 -5,8.880357 -5,11.769231 0,2.888874 2.238576,5.230769 5,5.230769 z"
     transform="rotate(75,49.504,34.03)"
     id="path6" /><path
     fill="#80d25b"
     d="m 19.504465,42.529591 c 2.761423,0 5,-2.341895 5,-5.230769 0,-2.888874 -5,-11.769231 -5,-11.769231 0,0 -5,8.880357 -5,11.769231 0,2.888874 2.238576,5.230769 5,5.230769 z"
     transform="matrix(-0.25881905,0.96592583,0.96592583,0.25881905,-8.3166214,6.381568)"
     id="path7" /><path
     stroke="#22ba8e"
     stroke-linecap="round"
     stroke-width="2"
     d="M 46,35 C 39.372583,35 34,40.372583 34,47"
     id="path8" /><path
     stroke="#22ba8e"
     stroke-linecap="round"
     stroke-width="2"
     d="M 34,35 C 27.372583,35 22,40.372583 22,47"
     transform="matrix(-1,0,0,1,56,0)"
     id="path9" /><path
     fill="#d650c7"
     d="m 36.930463,24.208155 c -1.61845,-1.495673 -4.247506,-1.491025 -5.860926,0 l -0.64733,0.598223 c -1.61845,1.495673 -2.800035,0.919581 -2.640256,-1.27148 l 0.06411,-0.879089 c 0.160277,-2.197892 -1.482547,-4.250473 -3.654228,-4.582257 L 23.32052,17.940435 c -2.178451,-0.332818 -2.464751,-1.615806 -0.65209,-2.85699 l 0.727269,-0.497983 C 25.214011,13.340408 25.7945,10.776234 24.699878,8.8714818 L 24.260694,8.1072642 C 23.16266,6.1965737 23.987235,5.1728062 26.087808,5.816136 l 0.842784,0.2581144 c 2.107121,0.6453354 4.473801,-0.499557 5.280511,-2.5429603 l 0.323666,-0.8198467 c 0.809225,-2.04977358 2.123752,-2.04340328 2.930462,0 l 0.323666,0.8198467 c 0.809225,2.0497736 3.179939,3.1862901 5.280511,2.5429603 L 41.912192,5.816136 c 2.107121,-0.6453353 2.921735,0.3863757 1.827114,2.2911282 l -0.43918,0.7642176 c -1.098034,1.9106902 -0.508483,4.4727962 1.304178,5.7139802 l 0.72727,0.497983 c 1.818312,1.245054 1.519591,2.525206 -0.65209,2.85699 l -0.871313,0.133117 c -2.178451,0.332819 -3.814007,2.391195 -3.654228,4.582257 l 0.06411,0.879089 c 0.160277,2.197892 -1.026836,2.762504 -2.640256,1.27148 z"
     id="path10" /><circle
     cx="34"
     cy="14"
     r="3"
     fill="#fcc24c"
     id="circle10" /></g></svg>
