<?xml version="1.0" encoding="UTF-8" standalone="no"?>
<!-- Uploaded to: SVG Repo, www.svgrepo.com, Generator: SVG Repo Mixer Tools -->

<svg
   fill="#000000"
   height="800px"
   width="800px"
   version="1.1"
   id="Capa_1"
   viewBox="0 0 59.998 59.998"
   xml:space="preserve"
   xmlns="http://www.w3.org/2000/svg"
   xmlns:svg="http://www.w3.org/2000/svg"><defs
   id="defs2">
	
	
</defs>

<g
   id="g4"
   transform="translate(-1.0704371,-0.90987154)"><rect
     x="18.651533"
     y="16.575985"
     style="fill:#2c9984;stroke-width:0.11013"
     width="26.978859"
     height="13.424441"
     id="rect3" /><g
     id="g3"><rect
       x="14.946178"
       y="19.2616"
       style="fill:#804000;stroke-width:0.11013"
       width="17.065456"
       height="8.0547533"
       id="rect2" /><rect
       x="19.633625"
       y="17.430174"
       style="fill:#90dfaa;stroke-width:0.11013"
       width="25.01667"
       height="11.715954"
       id="rect5" /><rect
       x="32.009647"
       y="17.430174"
       style="fill:#74c48a;stroke-width:0.11013"
       width="12.640645"
       height="11.715954"
       id="rect6" /><rect
       x="14.946178"
       y="23.248327"
       style="fill:#935635;stroke-width:0.11013"
       width="33.382866"
       height="18.793581"
       id="rect7" /></g></g><path
   d="M 54.727826,10.586617 A 1.0670062,1.1402169 0 0 0 54.550028,8.3141121 l -17.012737,1.519979 a 1.0670058,1.1402165 0 0 0 0.177798,2.2725039 l 1.115398,-0.09965 c 0.31846,2.072289 1.301198,6.462866 4.10736,8.786592 -2.525395,3.0987 -2.620369,9.083315 -2.53057,11.668037 l -1.092006,0.09756 a 1.067006,1.1402166 0 0 0 0.177798,2.272504 L 56.505806,33.31166 a 1.0670058,1.1402165 0 0 0 -0.177798,-2.272504 l -1.092005,0.09756 c -0.312914,-2.5625 -1.336527,-8.447175 -4.30855,-11.057005 2.405938,-2.791682 2.692775,-7.295687 2.684976,-9.393443 z m -6.192866,8.706824 a 1.0670058,1.1402165 0 0 0 0.194301,2.004432 c 2.70042,1.163806 3.963589,6.866891 4.376961,10.029128 l -10.569163,0.944286 c -0.08836,-3.195851 0.27567,-9.039739 2.757755,-10.666569 a 1.0670058,1.1402165 0 0 0 -0.119868,-2.011082 c -2.824969,-1.359777 -3.86467,-5.698353 -4.208297,-7.777547 l 10.509618,-0.938967 c -0.01577,2.111304 -0.366857,6.574138 -2.941307,8.416319 z m -1.424512,3.415686 c 0,0 3.403246,2.442009 3.509924,3.805512 l 0.302257,3.863257 -6.379776,0.569992 -0.302257,-3.863257 c -0.106679,-1.363503 2.869852,-4.375504 2.869852,-4.375504 z"
   id="path1-3"
   style="fill:#ff00ff;stroke-width:1.10301" /><g
   id="g2"
   transform="matrix(1.5226918,0,0,1.6604268,-1.0858423,-34.703906)"><polygon
     style="fill:#f7c02d"
     points="501.153,326.642 366.952,359.187 366.952,304.539 296.127,286.802 275.093,378.432 296.127,461.43 326.876,470.062 512,368.031 "
     id="polygon3"
     transform="matrix(0.0749975,0,0,0.0749975,1.2582314,18.77764)" /><polygon
     style="fill:#fbe27b"
     points="176.969,427.98 296.127,461.43 296.127,286.802 232.644,270.905 80.254,294.546 48.706,449.343 "
     id="polygon4"
     transform="matrix(0.0749975,0,0,0.0749975,1.2582314,18.77764)" /><polygon
     style="fill:#288fd9"
     points="80.254,482.693 80.254,294.481 40.127,294.481 19.094,388.587 40.127,482.693 "
     id="polygon5"
     transform="matrix(0.0749975,0,0,0.0749975,1.2582314,18.77764)" /><rect
     y="40.863281"
     style="fill:#8bcbf1;stroke-width:0.0749975"
     width="3.0095749"
     height="14.115654"
     id="rect5-6"
     x="1.2582319" /></g></svg>
