<?xml version="1.0" encoding="UTF-8" standalone="no"?>
<!-- Uploaded to: SVG Repo, www.svgrepo.com, Generator: SVG Repo Mixer Tools -->

<svg
   width="800px"
   height="800px"
   viewBox="0 0 1024 1024"
   class="icon"
   version="1.1"
   id="svg7"
   sodipodi:docname="image.svg"
   inkscape:version="1.4.3 (fcd0343856, 2026-01-01)"
   xmlns:inkscape="http://www.inkscape.org/namespaces/inkscape"
   xmlns:sodipodi="http://sodipodi.sourceforge.net/DTD/sodipodi-0.dtd"
   xmlns="http://www.w3.org/2000/svg"
   xmlns:svg="http://www.w3.org/2000/svg">
  <sodipodi:namedview
     id="namedview1"
     pagecolor="#ffffff"
     bordercolor="#000000"
     borderopacity="0.25"
     inkscape:showpageshadow="2"
     inkscape:pageopacity="0.0"
     inkscape:pagecheckerboard="0"
     inkscape:deskcolor="#d1d1d1"
     inkscape:zoom="1.49375"
     inkscape:cx="400"
     inkscape:cy="400"
     inkscape:window-width="2560"
     inkscape:window-height="1403"
     inkscape:window-x="0"
     inkscape:window-y="0"
     inkscape:window-maximized="1"
     inkscape:current-layer="svg7" />
  <defs
     id="defs7" />
  <g
     id="g2"
     transform="translate(17.903939,-25.6723)">
    <g
       id="g1"
       transform="translate(67.695393,-144.8261)">
      <path
         d="m 128,853.33332 v -42.66667 h 768 v 42.66667 z"
         fill="#cfd8dc"
         id="path2" />
      <path
         d="m 213.33333,831.99999 m 0,64 a 64,64 0 1 0 0,-128 64,64 0 1 0 0,128 z"
         fill="#90a4ae"
         id="path3" />
      <path
         d="m 512,831.99999 m 0,64 a 64,64 0 1 0 0,-128 64,64 0 1 0 0,128 z"
         fill="#90a4ae"
         id="path4" />
      <path
         d="m 810.66667,831.99999 m 0,64 a 64,64 0 1 0 0,-128 64,64 0 1 0 0,128 z"
         fill="#90a4ae"
         id="path5" />
    </g>
    <path
       d="m 109.18025,559.00563 v -42.66667 h 768 v 42.66667 z"
       fill="#cfd8dc"
       id="path2-5" />
    <path
       d="m 194.51358,537.6723 m 0,64 a 64,64 0 1 0 0,-128 64,64 0 1 0 0,128 z"
       fill="#90a4ae"
       id="path3-3"
       style="fill:#ff2a2a" />
    <path
       d="m 493.18025,537.6723 m 0,64 a 64,64 0 1 0 0,-128 64,64 0 1 0 0,128 z"
       fill="#90a4ae"
       id="path4-5" />
    <path
       d="m 791.84692,537.6723 m 0,64 a 64,64 0 1 0 0,-128 64,64 0 1 0 0,128 z"
       fill="#90a4ae"
       id="path5-6"
       style="fill:#ff0000" />
    <path
       d="m 24.49673,409.50404 v -42.66667 h 768 v 42.66667 z"
       fill="#cfd8dc"
       id="path2-2" />
    <path
       d="m 109.83006,388.17071 m 0,64 a 64,64 0 1 0 0,-128 64,64 0 1 0 0,128 z"
       fill="#90a4ae"
       id="path3-7" />
    <path
       d="m 408.49673,388.17071 m 0,64 a 64,64 0 1 0 0,-128 64,64 0 1 0 0,128 z"
       fill="#90a4ae"
       id="path4-0"
       style="fill:#ff2a2a" />
    <path
       d="m 707.1634,388.17071 m 0,64 a 64,64 0 1 0 0,-128 64,64 0 1 0 0,128 z"
       fill="#90a4ae"
       id="path5-9" />
    <path
       d="m 103.23548,858.00881 v -42.66667 h 768 v 42.66667 z"
       fill="#cfd8dc"
       id="path2-6" />
    <path
       d="m 188.56881,836.67548 m 0,64 a 64,64 0 1 0 0,-128 64,64 0 1 0 0,128 z"
       fill="#90a4ae"
       id="path3-2" />
    <path
       d="m 487.23548,836.67548 m 0,64 a 64,64 0 1 0 0,-128 64,64 0 1 0 0,128 z"
       fill="#90a4ae"
       id="path4-6" />
    <path
       d="m 785.90215,836.67548 m 0,64 a 64,64 0 1 0 0,-128 64,64 0 1 0 0,128 z"
       fill="#90a4ae"
       id="path5-1"
       style="fill:#ff0000" />
    <g
       id="g1-9"
       transform="translate(-20.458577,-593.33087)">
      <path
         d="m 128,853.33332 v -42.66667 h 768 v 42.66667 z"
         fill="#cfd8dc"
         id="path2-20" />
      <path
         d="m 213.33333,831.99999 m 0,64 a 64,64 0 1 0 0,-128 64,64 0 1 0 0,128 z"
         fill="#90a4ae"
         id="path3-23" />
      <path
         d="m 512,831.99999 m 0,64 a 64,64 0 1 0 0,-128 64,64 0 1 0 0,128 z"
         fill="#90a4ae"
         id="path4-7" />
      <path
         d="m 810.66667,831.99999 m 0,64 a 64,64 0 1 0 0,-128 64,64 0 1 0 0,128 z"
         fill="#90a4ae"
         id="path5-5" />
    </g>
  </g>
</svg>
